<svg width="67" height="65" viewBox="0 0 67 65" fill="none" xmlns="http://www.w3.org/2000/svg">
<path d="M31.959 0.956642C31.9909 0.956642 32.0228 0.956642 32.0547 0.956642C32.0866 0.956642 32.1185 0.956642 32.144 0.956642C32.1759 0.956642 32.2078 0.956642 32.2334 0.956642C32.2653 0.956642 32.2972 0.956642 32.3227 0.956642C32.3418 0.956642 32.361 0.956642 32.3865 0.956642C32.4056 0.956642 32.4248 0.956642 32.4503 0.956642C32.4694 0.956642 32.4886 0.956642 32.5141 0.956642C32.5332 0.956642 32.5524 0.956642 32.5779 0.956642C32.5843 0.956642 32.5907 0.956642 32.5971 0.956642C32.6034 0.956642 32.6098 0.956642 32.6162 0.956642C32.6226 0.956642 32.629 0.956642 32.6353 0.956642C32.6417 0.956642 32.6481 0.956642 32.6545 0.956642C34.2177 1.00131 35.7746 1.14806 37.3186 1.37776C37.2166 3.61733 37.1719 5.85689 37.1719 8.09646L37.1783 8.30064C36.7891 8.23683 36.4062 8.17303 36.017 8.12198C35.6278 8.07094 35.2386 8.02628 34.843 7.98799C34.4474 7.94971 34.0518 7.92419 33.6562 7.89867C33.2606 7.87952 32.8587 7.86676 32.4567 7.86038C30.8934 7.84762 29.3302 7.98161 27.7861 8.23683L27.7542 8.03266C27.4352 5.77395 27.0715 3.528 26.6504 1.28843C27.0268 1.23739 27.4033 1.19272 27.7861 1.14806C28.169 1.10977 28.5518 1.07149 28.9346 1.03959C29.3175 1.00769 29.7067 0.988544 30.0959 0.969403C30.4851 0.950261 30.8743 0.943881 31.2699 0.9375C31.2763 0.9375 31.2827 0.9375 31.2827 0.9375C31.289 0.9375 31.289 0.9375 31.2954 0.9375C31.3018 0.9375 31.3082 0.9375 31.3082 0.9375C31.3146 0.9375 31.3146 0.9375 31.3209 0.9375C31.3465 0.9375 31.3656 0.9375 31.3911 0.9375C31.4103 0.9375 31.4358 0.9375 31.4549 0.9375C31.4805 0.9375 31.4996 0.9375 31.5251 0.9375C31.5443 0.9375 31.5698 0.9375 31.5889 0.9375C31.6208 0.9375 31.6527 0.9375 31.6783 0.9375C31.7102 0.9375 31.7421 0.9375 31.7676 0.9375C31.7995 0.9375 31.8314 0.9375 31.8569 0.9375C31.8952 0.956642 31.9271 0.956642 31.959 0.956642Z" fill="#F3F3F4"/>
<path d="M55.8292 42.5381L56.0142 42.6721C58.1453 44.2608 60.3147 45.8113 62.4968 47.3235C60.5827 50.1501 58.1389 52.5938 55.3634 54.5654C53.5194 52.664 51.6435 50.8009 49.7294 48.9697L49.5635 48.8102C52.0519 47.1704 54.2085 45.0393 55.8292 42.5381Z" fill="#F3F3F4"/>
<path d="M56.1031 33.7911C55.8096 36.0945 55.0631 38.2702 53.9465 40.2354C52.8172 42.2134 51.3113 43.9744 49.4993 45.4611C47.6808 46.9478 45.5497 48.1473 43.1953 48.9768C40.8281 49.8062 38.2376 50.272 35.4876 50.2848C35.4621 50.2848 35.443 50.2848 35.4174 50.2848C35.3919 50.2848 35.3664 50.2848 35.3472 50.2848C35.3217 50.2848 35.3026 50.2848 35.2771 50.2848C35.2515 50.2848 35.226 50.2848 35.2069 50.2848C35.1686 50.2848 35.1367 50.2848 35.1048 50.2848C35.0729 50.2848 35.0537 50.2848 35.0282 50.2848C35.0027 50.2848 34.9899 50.2848 34.9708 50.2848C34.9517 50.2848 34.9389 50.2848 34.9198 50.2848C34.8815 50.2848 34.8432 50.2848 34.8177 50.2848C34.7858 50.2848 34.7602 50.2848 34.7411 50.2848C34.7156 50.2848 34.7028 50.2848 34.6837 50.2848C34.6645 50.2848 34.6518 50.2848 34.6326 50.2848C34.5943 50.2848 34.5624 50.2848 34.5305 50.2848C34.4986 50.2848 34.4795 50.2848 34.454 50.2848C34.4348 50.2848 34.4157 50.2848 34.3965 50.2848C34.3774 50.2848 34.3646 50.2848 34.3455 50.2848C34.3072 50.2848 34.2689 50.2784 34.237 50.2784C34.2051 50.2784 34.1796 50.2784 34.1605 50.272C34.1349 50.272 34.1158 50.272 34.103 50.272C34.0839 50.272 34.0711 50.272 34.052 50.272C34.0137 50.272 33.9882 50.2656 33.9563 50.2656C33.9308 50.2656 33.9052 50.2656 33.8797 50.2593C33.8542 50.2593 33.8351 50.2593 33.8159 50.2529C33.7968 50.2529 33.7776 50.2529 33.7585 50.2465C33.7266 50.2465 33.6947 50.2401 33.6692 50.2401C33.6436 50.2401 33.6181 50.2337 33.5926 50.2337C33.5671 50.2337 33.5479 50.2274 33.5224 50.2274C33.5033 50.2274 33.4777 50.2274 33.4586 50.221C31.0787 50.0359 28.7753 49.5255 26.6187 48.7279C24.4621 47.9304 22.4458 46.8521 20.6401 45.544C18.8344 44.2424 17.2393 42.7111 15.9058 41.0075C14.5786 39.3103 13.5194 37.4408 12.7857 35.45C12.7793 35.4245 12.7665 35.4054 12.7601 35.3862C12.7538 35.3671 12.7474 35.3479 12.741 35.3352C12.7346 35.3224 12.7282 35.3097 12.7282 35.2969C12.7219 35.2841 12.7219 35.2714 12.7155 35.2586C12.7091 35.2459 12.7091 35.2331 12.7027 35.2203C12.6963 35.2076 12.6963 35.1948 12.69 35.1884C12.6836 35.1757 12.6836 35.1629 12.6772 35.1502C12.6708 35.1374 12.6708 35.1246 12.6644 35.1119C12.6262 34.997 12.5879 34.8885 12.556 34.7801C12.5241 34.6716 12.4858 34.5695 12.4539 34.4674C12.422 34.3653 12.3901 34.2633 12.3646 34.1675C12.3327 34.0655 12.3071 33.9698 12.2816 33.874C12.1923 33.5486 12.1093 33.2232 12.0391 32.8978C11.969 32.5724 11.9052 32.2406 11.8541 31.9088C11.8031 31.577 11.7584 31.2453 11.7201 30.9071C11.6818 30.5689 11.6563 30.2371 11.6436 29.8926C11.6436 29.8734 11.6436 29.8543 11.6436 29.8288C11.6436 29.8096 11.6436 29.7905 11.6436 29.765C11.6436 29.7458 11.6436 29.7203 11.6436 29.7012C11.6436 29.682 11.6436 29.6629 11.6436 29.6374C11.6436 29.6246 11.6436 29.6118 11.6436 29.5991C11.6436 29.5863 11.6436 29.5736 11.6436 29.5608C11.6436 29.548 11.6436 29.5353 11.6436 29.5225C11.6436 29.5098 11.6436 29.497 11.6436 29.4842C11.6436 29.4459 11.6436 29.414 11.6436 29.3821C11.6436 29.3566 11.6436 29.3311 11.6436 29.312C11.6436 29.2928 11.6436 29.2737 11.6436 29.2609C11.6436 29.2482 11.6436 29.2354 11.6436 29.2226C11.6436 29.1843 11.6436 29.1524 11.6436 29.1269C11.6436 29.1014 11.6436 29.0759 11.6436 29.0567C11.6436 29.0376 11.6436 29.0185 11.6436 29.0057C11.6436 28.9929 11.6436 28.9802 11.6436 28.961C11.6436 28.9227 11.6436 28.8972 11.6436 28.8653C11.6436 28.8398 11.6436 28.8143 11.6436 28.7951C11.6436 28.776 11.6436 28.7569 11.6436 28.7441C11.6436 28.7313 11.6436 28.7122 11.6436 28.6994C11.6436 28.6675 11.6436 28.6356 11.6436 28.6101C11.6436 28.5846 11.6436 28.5654 11.6436 28.5399C11.6436 28.5208 11.6436 28.5016 11.6436 28.4889C11.6436 28.4697 11.6436 28.457 11.6436 28.4442C11.6436 28.4123 11.6436 28.3868 11.6436 28.3613C11.6436 28.3357 11.6436 28.3166 11.6436 28.2975C11.6436 28.2783 11.6436 28.2592 11.6436 28.2464C11.6436 28.2336 11.6436 28.2145 11.6436 28.2017C11.6436 28.1698 11.6436 28.1443 11.6499 28.1188C11.6499 28.0933 11.6499 28.0741 11.6499 28.055C11.6499 28.0359 11.6499 28.0167 11.6499 28.0039C11.6499 27.9912 11.6499 27.972 11.6499 27.9593C11.6499 27.9274 11.6563 27.8955 11.6563 27.8763C11.6563 27.8508 11.6563 27.8317 11.6627 27.8125C11.6627 27.7934 11.6627 27.7743 11.6691 27.7551C11.6691 27.736 11.6691 27.7232 11.6755 27.7041C11.6755 27.6722 11.6818 27.6466 11.6818 27.6211C11.6818 27.5956 11.6882 27.5765 11.6882 27.5509C11.6882 27.5318 11.6882 27.5126 11.6946 27.4935C11.6946 27.4744 11.6946 27.4552 11.701 27.4425C11.7137 27.3212 11.7265 27.1936 11.7393 27.0724C11.752 26.9512 11.7648 26.8299 11.7839 26.7087C11.7967 26.5875 11.8158 26.4726 11.835 26.3514C11.8541 26.2302 11.8733 26.1153 11.8924 26.0005C12.2816 23.7098 13.1238 21.5724 14.3234 19.6582C15.5165 17.7504 17.0734 16.0596 18.911 14.6622C20.7422 13.2649 22.8542 12.1547 25.1767 11.4018C27.4864 10.6489 30.0067 10.2405 32.661 10.2597C32.6866 10.2597 32.7057 10.2597 32.7312 10.2597C32.7567 10.2597 32.7759 10.2597 32.8014 10.2597C32.8269 10.2597 32.8461 10.2597 32.8716 10.2597C32.8971 10.2597 32.9163 10.2597 32.9418 10.2597C32.9545 10.2597 32.9673 10.2597 32.9865 10.2597C32.9992 10.2597 33.012 10.2597 33.0311 10.2597C33.0439 10.2597 33.0566 10.2597 33.0758 10.2597C33.0885 10.2597 33.1013 10.2597 33.1204 10.2597C33.1587 10.2597 33.197 10.2597 33.2289 10.2597C33.2608 10.2597 33.2863 10.2597 33.3055 10.2597C33.331 10.2597 33.3501 10.2597 33.3693 10.2597C33.3884 10.2597 33.4076 10.2597 33.4203 10.2597C33.4586 10.2597 33.4905 10.2597 33.516 10.2661C33.5416 10.2661 33.5735 10.2661 33.5926 10.2661C33.6181 10.2661 33.6373 10.2661 33.6564 10.2661C33.6756 10.2661 33.6947 10.2661 33.7202 10.2661C33.7457 10.2661 33.7713 10.2661 33.7968 10.2724C33.8223 10.2724 33.8414 10.2724 33.867 10.2788C33.8861 10.2788 33.9116 10.2788 33.9308 10.2852C33.9499 10.2852 33.9754 10.2852 33.9946 10.2916C34.0201 10.2916 34.0456 10.2916 34.0711 10.298C34.0967 10.298 34.1158 10.298 34.1413 10.3043C34.1669 10.3043 34.186 10.3043 34.2051 10.3107C34.2243 10.3107 34.2498 10.3107 34.2689 10.3171C34.2881 10.3171 34.3136 10.3171 34.3327 10.3235C34.3519 10.3235 34.3774 10.3235 34.3965 10.3299C34.4157 10.3299 34.4412 10.3299 34.4604 10.3362C34.4795 10.3362 34.505 10.3362 34.5242 10.3426C34.5497 10.3426 34.5752 10.349 34.5944 10.349C34.6199 10.349 34.639 10.3554 34.6581 10.3554C34.6773 10.3554 34.6964 10.3618 34.7156 10.3618C34.7347 10.3618 34.7539 10.3618 34.773 10.3681C34.8049 10.3681 34.8304 10.3745 34.8496 10.3745C34.8751 10.3745 34.8942 10.3809 34.9134 10.3809C34.9325 10.3809 34.9517 10.3873 34.9644 10.3873C34.9836 10.3873 34.9963 10.3937 35.0155 10.3937C35.0537 10.4 35.0856 10.4 35.1112 10.4C35.1367 10.4 35.1622 10.4064 35.175 10.4064C35.1941 10.4064 35.2069 10.4128 35.2196 10.4128C35.2324 10.4128 35.2452 10.4128 35.2579 10.4192C35.2707 10.4192 35.2834 10.4192 35.3026 10.4256C35.3153 10.4256 35.3281 10.4256 35.3472 10.432C35.36 10.432 35.3728 10.432 35.3919 10.4383C35.4047 10.4383 35.4174 10.4447 35.4366 10.4447C37.7591 10.7191 39.9987 11.3061 42.0851 12.1611C44.1715 13.0097 46.1112 14.1263 47.8467 15.4598C49.5822 16.7933 51.1136 18.3438 52.3833 20.0602C53.653 21.7829 54.6548 23.6716 55.3311 25.6814C55.3439 25.7261 55.3566 25.7644 55.3694 25.7963C55.3821 25.8282 55.3885 25.8537 55.3949 25.8792C55.4013 25.8984 55.4077 25.9175 55.414 25.9367C55.4204 25.9558 55.4268 25.9686 55.4268 25.9813C55.5289 26.3003 55.6182 26.6194 55.7075 26.9448C55.7905 27.2702 55.8671 27.5956 55.9372 27.921C56.0074 28.2528 56.0648 28.5846 56.1095 28.9164C56.1606 29.2482 56.1988 29.5863 56.2307 29.9245C56.2307 29.9436 56.2371 29.9692 56.2371 29.9883C56.2371 30.0074 56.2435 30.033 56.2435 30.0521C56.2435 30.0712 56.2499 30.0968 56.2499 30.1159C56.2499 30.135 56.2563 30.1606 56.2563 30.1797C56.2563 30.2116 56.2626 30.2371 56.2626 30.2627C56.2626 30.2882 56.269 30.3073 56.269 30.3265C56.269 30.3456 56.269 30.3647 56.2754 30.3839C56.2754 30.403 56.2754 30.4222 56.2754 30.4349C56.2882 30.6455 56.3009 30.8624 56.3073 31.073C56.3137 31.2835 56.3137 31.4941 56.3137 31.7047C56.3137 31.9152 56.3073 32.1194 56.3009 32.33C56.2945 32.5341 56.2818 32.7447 56.2626 32.9489C56.2626 32.9744 56.2563 32.9935 56.2563 33.0127C56.2563 33.0318 56.2563 33.051 56.2499 33.0637C56.2499 33.0765 56.2499 33.0956 56.2435 33.1084C56.2435 33.1211 56.2435 33.1339 56.2435 33.1467C56.2371 33.2041 56.2307 33.2615 56.2244 33.3126C56.218 33.37 56.2116 33.4274 56.2052 33.4785C56.1988 33.5359 56.1925 33.5933 56.1861 33.6443C56.1159 33.6762 56.1095 33.7337 56.1031 33.7911C55.8096 36.0945 56.1095 33.7337 56.1031 33.7911Z" fill="#EB0F1D"/>
<path d="M65.9098 25.0434C63.3639 25.2859 60.8053 25.4773 58.2531 25.6304L58.0234 25.6432C58.1255 25.9877 58.2276 26.3323 58.3169 26.6832C58.4063 27.0342 58.4892 27.3851 58.5594 27.7424C58.636 28.0997 58.6998 28.457 58.7508 28.8143C58.8082 29.1716 58.8529 29.5353 58.8848 29.9054C59.0188 31.3346 58.9933 32.7766 58.8274 34.1995L59.0635 34.2123C61.6795 34.3718 64.2955 34.5696 66.9052 34.8184C66.9945 33.7784 67.02 32.732 66.9817 31.6856C67.2114 37.7981 65.259 43.8213 61.5391 48.6706C57.9788 53.3028 52.9828 56.6973 47.4892 58.6051C44.2096 59.7472 40.7513 60.3597 37.2867 60.4873C38.8053 60.4299 40.3238 60.2768 41.8232 60.0279C41.3511 57.565 40.9364 55.0958 40.5599 52.6201L40.5344 52.4032C40.1452 52.4734 39.7496 52.5372 39.3476 52.5946C38.952 52.652 38.55 52.7031 38.1417 52.7413C37.7397 52.7796 37.3314 52.8115 36.9166 52.837C36.5019 52.8562 36.0872 52.8689 35.666 52.8753C34.0135 52.8817 32.3673 52.735 30.7339 52.4606V52.6839C30.7211 55.1659 30.6637 57.648 30.5425 60.1236C32.0738 60.3469 33.6179 60.4809 35.162 60.5128C22.2542 60.2512 9.39098 53.0731 3.57193 41.3266C1.95127 38.047 0.93677 34.4739 0.662407 30.8242C0.764496 32.1896 0.975054 33.5487 1.28132 34.8822C3.942 34.627 6.60907 34.4228 9.27613 34.2569L9.52497 34.2442C9.42927 33.8932 9.34632 33.5359 9.26975 33.1786C9.19318 32.8213 9.123 32.4576 9.06557 32.0939C9.00815 31.7302 8.95711 31.3665 8.91882 30.9965C8.88054 30.6328 8.85501 30.2627 8.83587 29.8926C8.76569 28.4506 8.8614 27.0023 9.10386 25.5794L8.85502 25.5666C6.19433 25.4007 3.53365 25.1966 0.872966 24.9413C0.67517 26.2685 0.579462 27.6148 0.579462 28.9547C0.547559 22.9187 2.63399 17.0231 6.42403 12.327C10.0865 7.78407 15.1462 4.48534 20.6782 2.68603C23.996 1.60133 27.4734 1.04623 30.9572 0.982422C29.5088 1.00794 28.0668 1.12917 26.6312 1.32697C27.0523 3.56654 27.416 5.81887 27.735 8.0712L27.7669 8.27538C28.1434 8.21157 28.5262 8.16053 28.909 8.10948C29.2919 8.06482 29.6811 8.02015 30.0703 7.98825C30.4595 7.95635 30.8551 7.93083 31.2507 7.91807C31.6463 7.9053 32.0419 7.89254 32.4439 7.89892C34.0262 7.91169 35.6086 8.06482 37.1718 8.3328L37.1655 8.12862C37.1655 5.88905 37.2101 3.64949 37.3122 1.40992C35.8702 1.19298 34.4091 1.05261 32.9479 0.995183C45.0709 1.4163 57.0664 7.89892 63.1534 18.5608C64.8506 21.5278 66.0438 24.7818 66.6116 28.1571C66.4457 27.0916 66.2097 26.0579 65.9098 25.0434C65.4376 25.0881 65.9863 25.2986 65.9098 25.0434ZM48.1846 47.3115C48.4973 47.1137 48.7972 46.9095 49.0907 46.699C49.3842 46.4884 49.6713 46.2715 49.9457 46.0482C50.22 45.8248 50.488 45.5951 50.7496 45.3591C51.0112 45.123 51.2664 44.8869 51.5089 44.6381C51.7578 44.3828 51.9938 44.1276 52.2235 43.8724C52.4532 43.6172 52.6702 43.3556 52.8807 43.094C53.0913 42.8324 53.2891 42.5708 53.4869 42.3028C53.6783 42.0348 53.8633 41.7668 54.042 41.4925C54.2398 41.1926 54.4248 40.8863 54.5971 40.5864C54.7694 40.2865 54.9353 39.9803 55.0884 39.674C55.2415 39.3677 55.3819 39.0615 55.5159 38.7488C55.6499 38.4426 55.7711 38.1299 55.886 37.8109C56.0008 37.4919 56.1029 37.1728 56.1986 36.8538C56.2943 36.5348 56.3836 36.2157 56.4602 35.8967C56.5368 35.5777 56.607 35.2587 56.6644 34.9333C56.7218 34.6079 56.7728 34.2888 56.8175 33.957C56.8558 33.6444 56.8941 33.3317 56.9132 33.0191C56.9387 32.7065 56.9515 32.3938 56.9579 32.0875C56.9643 31.7749 56.9643 31.4686 56.9579 31.156C56.9515 30.8433 56.9324 30.5371 56.9068 30.2244C56.9068 30.1925 56.9005 30.1606 56.9005 30.1351C56.9005 30.1096 56.8941 30.0904 56.8941 30.0713C56.8941 30.0521 56.8941 30.033 56.8877 30.0202C56.8877 30.0075 56.8877 29.9883 56.8813 29.9756C56.843 29.5927 56.7984 29.2291 56.7473 28.8717C56.6963 28.5144 56.6325 28.1699 56.5623 27.8317C56.4921 27.4936 56.4155 27.1618 56.3326 26.8427C56.2496 26.5173 56.1603 26.1983 56.0582 25.8857C55.9498 25.5475 55.8349 25.2093 55.7137 24.8775C55.5924 24.5457 55.4585 24.2203 55.3245 23.9013C55.1841 23.5823 55.0373 23.2633 54.8842 22.9506C54.7311 22.638 54.5652 22.3317 54.3929 22.0254C54.2143 21.7128 54.0356 21.4129 53.8506 21.113C53.6655 20.8195 53.4741 20.526 53.2763 20.2453C53.0785 19.9645 52.8743 19.6838 52.6702 19.4094C52.4596 19.135 52.2491 18.8671 52.0257 18.6055C51.7833 18.3183 51.5408 18.0376 51.292 17.7632C51.0431 17.4889 50.7879 17.2273 50.5263 16.9657C50.2647 16.7041 50.0031 16.4552 49.7287 16.2128C49.4608 15.9703 49.18 15.7278 48.8993 15.4981C48.6121 15.2621 48.3186 15.0387 48.0315 14.8218C47.738 14.6049 47.4509 14.3943 47.151 14.1965C46.8575 13.9923 46.5576 13.8009 46.2577 13.6095C45.9578 13.4245 45.6516 13.2394 45.3453 13.0672C45.0071 12.8694 44.6626 12.6843 44.3244 12.5121C43.9863 12.3334 43.6417 12.1675 43.3035 12.0144C42.959 11.8549 42.6208 11.7081 42.2699 11.5677C41.9253 11.4274 41.5744 11.2934 41.2235 11.1721C40.8726 11.0509 40.5216 10.9297 40.1707 10.8212C39.8198 10.7127 39.4688 10.6107 39.1179 10.5149C38.767 10.4192 38.4097 10.3363 38.0524 10.2533C37.695 10.1768 37.3377 10.1002 36.9804 10.0364C35.5257 9.7748 34.0518 9.64081 32.5779 9.63443C32.1823 9.63443 31.7867 9.64081 31.4038 9.65357C31.021 9.66633 30.6446 9.69186 30.2745 9.72376C29.9044 9.75566 29.5407 9.79394 29.1834 9.83861C28.8261 9.88327 28.4688 9.9407 28.1179 9.99812C28.0668 10.0109 28.0222 10.0173 27.9839 10.0236C27.9456 10.03 27.9201 10.0364 27.8945 10.0428C27.869 10.0492 27.8499 10.0492 27.8307 10.0555C27.8116 10.0555 27.7988 10.0619 27.7861 10.0619C27.4479 10.1257 27.1161 10.1959 26.7907 10.2725C26.4653 10.3491 26.1399 10.432 25.8209 10.5149C25.5018 10.5979 25.1828 10.7 24.8765 10.7957C24.5639 10.8978 24.2576 11.0062 23.9514 11.1147C23.6132 11.2423 23.2814 11.3763 22.956 11.5167C22.6306 11.6571 22.3179 11.7974 22.0053 11.9506C21.6927 12.1037 21.3928 12.2568 21.0929 12.4163C20.793 12.5759 20.4995 12.7481 20.2124 12.9204C19.8933 13.1118 19.5871 13.3096 19.2872 13.5074C18.9873 13.7052 18.7002 13.9158 18.4194 14.1263C18.1387 14.3369 17.8643 14.5538 17.6027 14.7771C17.3348 15.0005 17.0795 15.2238 16.8307 15.4599C16.5819 15.7023 16.3394 15.9384 16.1033 16.1809C15.8672 16.4233 15.6439 16.6722 15.427 16.921C15.21 17.1698 14.9995 17.4187 14.7953 17.6803C14.5911 17.9355 14.3997 18.1971 14.2083 18.4587C13.9977 18.7522 13.8063 19.0393 13.6149 19.3392C13.4299 19.6327 13.2512 19.9262 13.0853 20.2261C12.9194 20.526 12.7663 20.8259 12.6195 21.1258C12.4728 21.4257 12.3388 21.7319 12.2112 22.0382C12.0836 22.3508 11.9687 22.6635 11.8539 22.9761C11.7454 23.2888 11.6433 23.6078 11.554 23.9205C11.4647 24.2395 11.3817 24.5585 11.3051 24.8775C11.2286 25.1966 11.1648 25.522 11.1073 25.8538C11.0563 26.1473 11.0116 26.4344 10.9797 26.7279C10.9415 27.0214 10.9159 27.3085 10.8968 27.602C10.8776 27.8955 10.8585 28.1827 10.8521 28.4762C10.8457 28.7697 10.8457 29.0568 10.8521 29.3503C10.8521 29.3694 10.8521 29.3886 10.8521 29.4077C10.8521 29.4269 10.8521 29.446 10.8521 29.4651C10.8521 29.4843 10.8521 29.5034 10.8521 29.5226C10.8521 29.5417 10.8521 29.5608 10.8521 29.58C10.8585 29.6821 10.8585 29.7842 10.8649 29.8863C10.884 30.2436 10.9096 30.5881 10.9478 30.939C10.9861 31.2836 11.0308 31.6281 11.0818 31.9663C11.1329 32.3045 11.1967 32.6426 11.2732 32.9744C11.3434 33.3062 11.4264 33.638 11.5157 33.9634C11.6114 34.308 11.7135 34.6525 11.822 34.9907C11.9304 35.3289 12.0517 35.667 12.1857 35.9988C12.3133 36.3306 12.4536 36.656 12.6004 36.9814C12.7471 37.3068 12.9003 37.6258 13.0662 37.9449C13.2384 38.2639 13.4107 38.5829 13.5894 38.8892C13.768 39.1955 13.9594 39.5017 14.1509 39.7952C14.3423 40.0951 14.5465 40.3822 14.7506 40.6694C14.9548 40.9565 15.1718 41.2372 15.3887 41.518C15.6311 41.8242 15.8736 42.1177 16.1225 42.4113C16.3713 42.6984 16.6329 42.9791 16.8945 43.2535C17.1561 43.5278 17.4241 43.7894 17.6984 44.051C17.9728 44.3063 18.2535 44.5615 18.5343 44.804C18.8278 45.0528 19.1213 45.2889 19.4212 45.5186C19.7211 45.7483 20.021 45.9716 20.3208 46.1821C20.6207 46.3991 20.927 46.6033 21.2396 46.8011C21.5459 46.9989 21.8586 47.1967 22.1776 47.3817C23.5366 48.1856 24.9659 48.862 26.4462 49.3979C26.8035 49.5255 27.1672 49.6468 27.5308 49.7616C27.8945 49.8765 28.2582 49.9849 28.6283 50.0807C28.9984 50.1764 29.3684 50.2721 29.7385 50.355C30.1086 50.438 30.485 50.5145 30.8615 50.5783C32.3801 50.8399 33.9178 50.9803 35.4555 50.9739C36.9868 50.9612 38.5181 50.8272 40.0239 50.5464C40.4068 50.4762 40.7832 50.3933 41.1533 50.3104C41.5234 50.221 41.8871 50.1253 42.2508 50.0232C42.6144 49.9211 42.9654 49.8063 43.3163 49.6851C43.6672 49.5638 44.0118 49.4362 44.3499 49.3022C44.7009 49.1619 45.039 49.0151 45.3708 48.862C45.7026 48.7088 46.028 48.5493 46.3407 48.3834C46.6597 48.2175 46.966 48.0516 47.2658 47.873C47.604 47.6816 47.8975 47.5029 48.1846 47.3115ZM20.9589 49.098L21.112 48.9322C18.3365 47.2987 15.8353 45.174 13.8127 42.6537L13.6404 42.7941C11.6816 44.4211 9.69087 46.0099 7.66824 47.5476C10.0546 50.3869 12.9003 52.8307 16.0459 54.8022C17.6346 52.8626 19.2808 50.9675 20.9589 49.098ZM6.07948 12.7737C8.19144 14.2284 10.2715 15.7342 12.326 17.2719L12.5047 17.4059C14.2147 15.026 16.4287 13.0225 18.9299 11.4975L18.764 11.3444C16.9583 9.62805 15.1781 7.87978 13.449 6.08685C10.6416 7.8734 8.12763 10.1385 6.07948 12.7737ZM53.7102 17.4314C55.4967 15.932 57.3216 14.4709 59.1719 13.0416C56.8175 10.4129 54.0547 8.15415 51.0367 6.34207C49.582 8.09672 48.0826 9.81308 46.5449 11.4975L46.4109 11.6443C49.1034 13.1884 51.5408 15.1919 53.5507 17.5591L53.7102 17.4314ZM62.5026 47.3243C60.314 45.8121 58.151 44.2616 56.0199 42.6728L55.8349 42.5389C54.2143 45.04 52.0576 47.1711 49.5692 48.8045L49.7351 48.9641C51.6493 50.7953 53.5315 52.6584 55.3691 54.5598C58.1447 52.5946 60.5884 50.1508 62.5026 47.3243Z" fill="#EB0F1D"/>
<path d="M51.037 6.33594C54.0614 8.15439 56.8178 10.4131 59.1722 13.0355C57.3219 14.4647 55.497 15.9195 53.7105 17.4253L53.551 17.5529C51.5411 15.1794 49.1037 13.1823 46.4111 11.6382L46.5451 11.4914C48.0765 9.80695 49.5823 8.09059 51.037 6.33594C51.8027 6.79534 50.769 6.66134 51.037 6.33594Z" fill="#F3F3F4"/>
<path d="M13.4555 6.08057C15.1846 7.8735 16.9648 9.62176 18.7704 11.3381L18.9363 11.4913C16.4352 13.0162 14.2211 15.0133 12.5111 17.3996L12.3325 17.2656C10.278 15.7279 8.1979 14.2285 6.08594 12.7674C8.12771 10.1386 10.6416 7.8735 13.4555 6.08057C13.7745 6.41235 12.7408 6.53997 13.4555 6.08057Z" fill="#F3F3F4"/>
<path d="M65.9096 25.0427C65.9925 25.3362 66.0755 25.6234 66.1521 25.9232C66.2286 26.2167 66.2988 26.5102 66.3626 26.8101C66.4264 27.11 66.4902 27.4035 66.5476 27.7034C66.6051 28.0033 66.6561 28.3032 66.7008 28.6094C66.7008 28.6158 66.7008 28.6222 66.7008 28.6286C66.7008 28.635 66.7008 28.6413 66.7008 28.6477C66.7008 28.6541 66.7008 28.6605 66.7008 28.6669C66.7008 28.6733 66.7008 28.6796 66.7008 28.686C66.7008 28.7052 66.7072 28.7179 66.7072 28.7371C66.7072 28.7562 66.7135 28.769 66.7135 28.7881C66.7135 28.8072 66.7199 28.82 66.7199 28.8391C66.7199 28.8583 66.7263 28.871 66.7263 28.8902C66.7263 28.9029 66.7327 28.9157 66.7327 28.9349C66.7327 28.9476 66.7391 28.9604 66.7391 28.9795C66.7391 28.9923 66.7454 29.005 66.7454 29.0242C66.7454 29.0369 66.7518 29.0497 66.7518 29.0688C66.7518 29.0816 66.7518 29.0944 66.7582 29.1071C66.7582 29.1199 66.7646 29.1326 66.7646 29.1454C66.7646 29.1582 66.7646 29.1709 66.771 29.1837C66.771 29.1965 66.7773 29.2092 66.7773 29.222C66.7773 29.2411 66.7837 29.2603 66.7837 29.2794C66.7837 29.2985 66.7901 29.3177 66.7901 29.3368C66.7901 29.356 66.7965 29.3751 66.7965 29.3943C66.7965 29.4134 66.8029 29.4325 66.8029 29.4517C66.8029 29.4644 66.8029 29.4708 66.8029 29.4772C66.8029 29.4836 66.8029 29.4963 66.8092 29.5027C66.8092 29.5155 66.8092 29.5219 66.8092 29.5282C66.8092 29.5346 66.8092 29.5474 66.8092 29.5538C66.8156 29.5857 66.8156 29.6112 66.822 29.6431C66.822 29.675 66.8284 29.7005 66.8284 29.7324C66.8348 29.7643 66.8348 29.7898 66.8411 29.8217C66.8411 29.8537 66.8475 29.8792 66.8475 29.9111C66.8475 29.943 66.8539 29.9685 66.8539 30.0004C66.8539 30.0323 66.8603 30.0578 66.8603 30.0897C66.8603 30.1216 66.8667 30.1472 66.8667 30.1791C66.8667 30.211 66.8731 30.2365 66.8731 30.2684C66.8731 30.2748 66.8731 30.2875 66.8731 30.2939C66.8731 30.3003 66.8731 30.313 66.8731 30.3194C66.8731 30.3322 66.8731 30.3386 66.8731 30.345C66.8731 30.3513 66.8731 30.3641 66.8731 30.3705C66.8731 30.3896 66.873 30.4088 66.8794 30.4279C66.8794 30.447 66.8794 30.4662 66.8858 30.4853C66.8858 30.5045 66.8858 30.5236 66.8922 30.5427C66.8922 30.5619 66.8922 30.581 66.8986 30.6002C66.8986 30.6129 66.8986 30.6257 66.8986 30.6385C66.8986 30.6512 66.8986 30.664 66.8986 30.6767C66.8986 30.6895 66.8986 30.7023 66.8986 30.715C66.8986 30.7278 66.8986 30.7405 66.8986 30.7533C66.8986 30.7661 66.8986 30.7788 66.8986 30.798C66.8986 30.8107 66.8986 30.8235 66.8986 30.8426C66.8986 30.8554 66.8986 30.8682 66.8986 30.8873C66.8986 30.9001 66.8986 30.9128 66.8986 30.932C66.8986 30.9511 66.8986 30.9639 66.905 30.983C66.905 31.0021 66.905 31.0149 66.905 31.034C66.905 31.0532 66.905 31.066 66.905 31.0851C66.905 31.1042 66.905 31.117 66.905 31.1361C66.905 31.1425 66.905 31.1489 66.905 31.1553C66.905 31.1617 66.905 31.168 66.905 31.1744C66.905 31.1808 66.905 31.1872 66.905 31.1936C66.905 31.1999 66.905 31.2063 66.905 31.2127C66.9688 32.4122 66.956 33.6182 66.8539 34.8177C64.2443 34.5689 61.6282 34.3711 59.0122 34.2116L58.7762 34.1988C58.8144 33.8479 58.8463 33.4969 58.8719 33.146C58.8974 32.7951 58.9101 32.4378 58.9165 32.0805C58.9229 31.7231 58.9165 31.3595 58.9038 31.0021C58.891 30.6385 58.8655 30.2748 58.8336 29.9111C58.6932 28.4627 58.3933 27.0398 57.9658 25.6553L58.1955 25.6425C60.8115 25.4766 63.3638 25.2852 65.9096 25.0427C65.9989 25.3298 65.4374 25.0874 65.9096 25.0427Z" fill="#F3F3F4"/>
<path d="M0.885792 24.9219C3.5401 25.1771 6.20078 25.3813 8.86784 25.5472L9.11669 25.5599C9.05926 25.9045 9.00822 26.2554 8.96355 26.6127C8.91889 26.9636 8.88699 27.321 8.86784 27.6846C8.84232 28.042 8.82956 28.4056 8.82956 28.7693C8.82956 29.133 8.83594 29.5031 8.8487 29.8732C8.91889 31.3407 9.15497 32.8018 9.5378 34.2247L9.28896 34.2375C6.6219 34.4034 3.95483 34.6075 1.29415 34.8628C1.2112 34.5054 1.14101 34.1481 1.07083 33.7908C1.00064 33.4335 0.943219 33.0698 0.892174 32.7125C0.84113 32.3488 0.790085 31.9851 0.751802 31.6214C0.713518 31.2577 0.681615 30.8877 0.656093 30.524C0.656093 30.5176 0.656093 30.5112 0.656093 30.5048C0.656093 30.4985 0.656093 30.4921 0.656093 30.4857C0.656093 30.4793 0.656093 30.4729 0.656093 30.4666C0.656093 30.4602 0.656093 30.4538 0.656093 30.4474C0.656093 30.4283 0.656096 30.4091 0.649716 30.39C0.649716 30.3709 0.649714 30.3517 0.643334 30.3326C0.643334 30.3134 0.643332 30.2943 0.636952 30.2751C0.636952 30.256 0.636952 30.2369 0.636952 30.2177C0.636952 30.1922 0.63695 30.1603 0.63057 30.1348C0.63057 30.1093 0.630573 30.0773 0.624193 30.0518C0.624193 30.0263 0.624192 29.9944 0.617811 29.9625C0.617811 29.937 0.61781 29.9051 0.611429 29.8796C0.611429 29.854 0.611429 29.8221 0.611429 29.7966C0.611429 29.7711 0.611429 29.7392 0.611429 29.7137C0.611429 29.6881 0.611429 29.6562 0.611429 29.6307C0.611429 29.6052 0.611429 29.5733 0.611429 29.5478C0.611429 29.5286 0.611429 29.5095 0.611429 29.4903C0.611429 29.4712 0.611429 29.4521 0.611429 29.4329C0.611429 29.4138 0.611429 29.3946 0.611429 29.3755C0.611429 29.3563 0.611429 29.3372 0.611429 29.3181C0.611429 29.3117 0.611429 29.3053 0.611429 29.2989C0.611429 29.2925 0.611429 29.2862 0.611429 29.2798C0.611429 29.2734 0.611429 29.267 0.611429 29.2606C0.611429 29.2543 0.611429 29.2479 0.611429 29.2415C0.573146 27.7804 0.675235 26.3447 0.885792 24.9219C1.38347 24.9729 0.834748 25.2728 0.885792 24.9219Z" fill="#F3F3F4"/>
<path d="M13.8124 42.6602C15.8287 45.1805 18.3298 47.2988 21.1118 48.9386L20.9586 49.1045C19.2805 50.9676 17.6344 52.869 16.0456 54.8087C12.9064 52.8371 10.0543 50.3997 7.66797 47.554C9.6906 46.0099 11.6813 44.4276 13.6402 42.8005L13.8124 42.6602Z" fill="#F3F3F4"/>
<path d="M40.5348 52.3967L40.5603 52.62C40.9304 55.0957 41.3451 57.5713 41.8237 60.0279C41.4281 60.0917 41.0325 60.1491 40.6369 60.2001C40.2349 60.2512 39.833 60.2958 39.431 60.3405C39.029 60.3788 38.6207 60.4107 38.2059 60.4362C37.7976 60.4617 37.3828 60.4809 36.9681 60.4936C36.9553 60.4936 36.949 60.4936 36.9362 60.4936C36.9234 60.4936 36.9171 60.4936 36.9043 60.4936C36.8915 60.4936 36.8852 60.4936 36.8724 60.4936C36.8596 60.4936 36.8533 60.4936 36.8405 60.4936C36.8214 60.4936 36.8022 60.4936 36.7831 60.4936C36.7639 60.4936 36.7448 60.4936 36.7256 60.4936C36.7065 60.4936 36.6874 60.4936 36.6682 60.4936C36.6491 60.4936 36.6299 60.4936 36.6108 60.4936C36.5789 60.4936 36.547 60.4936 36.5151 60.4936C36.4832 60.4936 36.4513 60.4936 36.4194 60.4936C36.3875 60.4936 36.3556 60.4936 36.3237 60.4936C36.2918 60.4936 36.2599 60.4936 36.228 60.4936C36.1961 60.4936 36.1642 60.4936 36.1323 60.4936C36.1003 60.4936 36.0684 60.4936 36.0365 60.4936C36.0046 60.4936 35.9727 60.4936 35.9408 60.4936C35.9089 60.4936 35.877 60.4936 35.8451 60.4936C35.826 60.4936 35.8005 60.4936 35.7813 60.4936C35.7622 60.4936 35.7367 60.4936 35.7175 60.4936C35.6984 60.4936 35.6729 60.4936 35.6537 60.4936C35.6346 60.4936 35.6091 60.4936 35.5899 60.4936C35.5835 60.4936 35.5708 60.4936 35.5644 60.4936C35.558 60.4936 35.5452 60.4936 35.5389 60.4936C35.5325 60.4936 35.5197 60.4936 35.5133 60.4936C35.507 60.4936 35.4942 60.4936 35.4878 60.4936C33.8353 60.4745 32.1891 60.3341 30.5557 60.098C30.6769 57.6224 30.7407 55.1404 30.7471 52.6583V52.435C31.1491 52.5052 31.551 52.5626 31.9594 52.6137C32.3677 52.6647 32.7761 52.7094 33.1844 52.7477C33.5928 52.7859 34.0075 52.8115 34.4223 52.8242C34.837 52.8434 35.2517 52.8497 35.6729 52.8497C37.3063 52.8497 38.9333 52.6839 40.5348 52.3967Z" fill="#F3F3F4"/>
<path d="M65.1197 42.4297C64.6284 43.6356 64.1434 44.8479 63.6521 46.0538C62.6057 48.6316 61.202 51.0306 59.4282 53.1745C57.6863 55.2865 55.5999 57.1623 53.2455 58.7383C50.8783 60.3207 48.224 61.6032 45.3527 62.5156C42.4751 63.4344 39.3742 63.9831 36.1201 64.1044C36.2988 63.5365 36.4838 62.975 36.6625 62.4071C36.7964 61.9988 36.9241 61.5904 37.058 61.1821C37.1091 61.0226 37.1538 60.6142 37.275 60.4994C37.3835 60.3973 37.8173 60.4547 37.9896 60.4483C38.4554 60.4228 38.9212 60.3909 39.3869 60.3462C40.2228 60.2697 41.0586 60.1612 41.8881 60.0208C43.5024 59.7528 45.0911 59.3764 46.6544 58.8787C49.5639 57.9535 52.2501 56.6647 54.6556 55.0632C57.0483 53.468 59.1539 51.5794 60.9213 49.4419C62.6759 47.3236 64.0988 44.9628 65.1197 42.4297Z" fill="#A01D34"/>
<path d="M35.1682 60.4999C34.9449 61.2209 34.7152 61.9419 34.4919 62.6693C34.3707 63.0585 34.2941 63.5371 34.109 63.9007C34.0835 63.9518 34.0835 64.0858 34.0389 64.1241C33.8666 64.2644 32.9669 64.0922 32.7564 64.0794C28.8579 63.8688 24.9976 63.033 21.3607 61.6165C17.4176 60.0852 13.8189 57.903 10.7499 55.236C7.68724 52.5753 5.15417 49.4297 3.31658 45.9587C1.48536 42.5068 0.349624 38.7359 0.0625 34.7991C0.266677 33.472 0.470859 32.1384 0.675036 30.8113C0.968541 34.7545 2.1298 38.6083 3.98653 42.0984C5.85603 45.6077 8.42739 48.7916 11.5347 51.4842C14.6548 54.1896 18.3045 56.3972 22.3051 57.9477C26.3056 59.5046 30.6572 60.4042 35.1682 60.4999Z" fill="#A01D34"/>
<path d="M41.8234 60.021C41.5873 60.7229 41.3513 61.4247 41.1088 62.1202C40.9684 62.5285 40.8663 62.9752 40.6877 63.3644C40.6558 63.4346 40.6558 63.5686 40.5984 63.626C40.4261 63.8047 39.6732 63.7855 39.418 63.8174C39.0224 63.8685 38.6268 63.9131 38.2312 63.9514C37.8356 63.9897 37.4336 64.0216 37.0253 64.0471C36.6233 64.0726 36.2149 64.0918 35.8066 64.1045C35.7938 64.1045 35.7874 64.1045 35.7747 64.1045C35.7619 64.1045 35.7555 64.1045 35.7428 64.1045C35.73 64.1045 35.7236 64.1045 35.7109 64.1045C35.6981 64.1045 35.6917 64.1045 35.679 64.1045C35.6598 64.1045 35.6407 64.1045 35.6215 64.1045C35.6024 64.1045 35.5833 64.1045 35.5641 64.1045C35.545 64.1045 35.5258 64.1045 35.5067 64.1045C35.4875 64.1045 35.4684 64.1045 35.4493 64.1045C35.4174 64.1045 35.3855 64.1045 35.3536 64.1045C35.3217 64.1045 35.2898 64.1045 35.2579 64.1045C35.2259 64.1045 35.194 64.1045 35.1621 64.1045C35.1302 64.1045 35.0983 64.1045 35.0664 64.1045C35.0345 64.1045 35.0026 64.1045 34.9707 64.1045C34.9388 64.1045 34.9069 64.1045 34.875 64.1045C34.8431 64.1045 34.8112 64.1045 34.7793 64.1045C34.7474 64.1045 34.7155 64.1045 34.6836 64.1045C34.6645 64.1045 34.6389 64.1045 34.6198 64.1045C34.6007 64.1045 34.5751 64.1045 34.556 64.1045C34.5368 64.1045 34.5113 64.1045 34.4922 64.1045C34.473 64.1045 34.4475 64.1045 34.4284 64.1045C34.422 64.1045 34.4156 64.1045 34.4029 64.1045C34.3965 64.1045 34.3901 64.1045 34.3773 64.1045C34.371 64.1045 34.3646 64.1045 34.3518 64.1045C34.3454 64.1045 34.339 64.1045 34.3263 64.1045C33.9179 64.0982 33.5096 64.0854 33.1012 64.0663C32.6929 64.0471 32.2845 64.0216 31.8825 63.9897C31.4742 63.9578 31.0722 63.9195 30.6702 63.8748C30.2683 63.8302 29.8663 63.7791 29.4707 63.7217C29.6749 63.0199 29.8854 62.3116 30.0896 61.6097C30.2108 61.2014 30.3321 60.7867 30.4469 60.3783C30.4661 60.3209 30.4852 60.1422 30.5235 60.1039C30.6639 59.9827 31.538 60.2188 31.7486 60.2379C32.1569 60.2826 32.5653 60.3273 32.98 60.3592C33.3883 60.3911 33.8031 60.4166 34.2178 60.4357C34.6326 60.4549 35.0473 60.4676 35.462 60.474C35.4684 60.474 35.4748 60.474 35.4875 60.474C35.4939 60.474 35.5003 60.474 35.5131 60.474C35.5194 60.474 35.5258 60.474 35.5386 60.474C35.545 60.474 35.5514 60.474 35.5641 60.474C35.5833 60.474 35.6088 60.474 35.6279 60.474C35.6471 60.474 35.6726 60.474 35.6917 60.474C35.7109 60.474 35.7364 60.474 35.7555 60.474C35.7747 60.474 35.8002 60.474 35.8193 60.474C35.8512 60.474 35.8831 60.474 35.915 60.474C35.9469 60.474 35.9788 60.474 36.0107 60.474C36.0427 60.474 36.0746 60.474 36.1065 60.474C36.1384 60.474 36.1703 60.474 36.2022 60.474C36.2341 60.474 36.266 60.474 36.2979 60.474C36.3298 60.474 36.3617 60.474 36.3936 60.474C36.4255 60.474 36.4574 60.474 36.4893 60.474C36.5212 60.474 36.5531 60.474 36.585 60.474C36.6041 60.474 36.6233 60.474 36.6424 60.474C36.6616 60.474 36.6807 60.474 36.6998 60.474C36.719 60.474 36.7381 60.474 36.7573 60.474C36.7764 60.474 36.7956 60.474 36.8147 60.474C36.8275 60.474 36.8338 60.474 36.8466 60.474C36.8594 60.474 36.8657 60.474 36.8785 60.474C36.8913 60.474 36.8976 60.474 36.9104 60.474C36.9232 60.474 36.9296 60.474 36.9423 60.474C37.357 60.4613 37.7718 60.4421 38.1801 60.4166C38.5885 60.3911 38.9968 60.3592 39.4052 60.3209C39.8072 60.2826 40.2091 60.2379 40.6111 60.1805C41.0322 60.1486 41.4278 60.0848 41.8234 60.021Z" fill="#A59DAC"/>
<path d="M16.0459 54.8013C15.7652 56.0392 15.478 57.277 15.1973 58.5084C14.4125 58.0171 13.6468 57.4939 12.9003 56.9388C12.1602 56.3901 11.4455 55.8158 10.7501 55.2161C10.061 54.6163 9.39739 53.991 8.76572 53.3466C8.13404 52.7021 7.52789 52.0322 6.94727 51.3431C7.18973 50.0797 7.42581 48.81 7.66827 47.5403C8.25528 48.2421 8.87419 48.9185 9.51224 49.5629C10.1567 50.2137 10.833 50.8454 11.5285 51.4516C12.2304 52.0577 12.9577 52.6383 13.7106 53.1998C14.4699 53.7741 15.2483 54.3037 16.0459 54.8013Z" fill="#A59DAC"/>
<path d="M62.503 47.3235C62.1713 48.153 61.8331 48.9888 61.5013 49.8183C61.3482 50.2075 61.2142 50.6286 61.0228 50.9987C60.6463 51.7388 60.0338 52.4215 59.5106 53.0596C58.981 53.704 58.4259 54.3229 57.8389 54.9227C57.2519 55.5225 56.6329 56.1031 55.9821 56.6518C55.3313 57.2069 54.655 57.7301 53.9531 58.2342C54.2658 57.4175 54.5848 56.5944 54.8974 55.7777C55.0314 55.4268 55.1271 54.9482 55.3377 54.6356C55.4781 54.425 55.7397 54.2974 55.9438 54.1443C56.4479 53.7678 56.9392 53.3722 57.4241 52.9639C58.0813 52.4088 58.7066 51.8218 59.3064 51.2156C59.8998 50.6095 60.4677 49.9842 61.0036 49.3334C61.5332 48.6889 62.0309 48.019 62.503 47.3235Z" fill="#A59DAC"/>
<path d="M1.28806 34.8688C1.08388 36.1832 0.873326 37.4976 0.669149 38.812C0.592582 38.4611 0.516013 38.1038 0.452208 37.7528C0.388403 37.3955 0.324598 37.0446 0.273554 36.6809C0.222509 36.3236 0.177846 35.9663 0.139563 35.6026C0.10128 35.2389 0.0693761 34.8816 0.043854 34.5179C0.043854 34.5115 0.043854 34.5051 0.043854 34.4987C0.043854 34.4924 0.043854 34.486 0.043854 34.4796C0.043854 34.4732 0.043854 34.4668 0.043854 34.4605C0.043854 34.4541 0.043854 34.4477 0.043854 34.4413C0.043854 34.4222 0.0438575 34.403 0.0374769 34.3839C0.0374769 34.3648 0.0374756 34.3456 0.031095 34.3265C0.031095 34.3073 0.031095 34.2882 0.031095 34.2691C0.031095 34.2499 0.031095 34.2308 0.031095 34.2116C0.031095 34.1861 0.0310937 34.1542 0.0247131 34.1287C0.0247131 34.1032 0.0247118 34.0713 0.0183312 34.0457C0.0183312 34.0202 0.0183347 33.9883 0.0119542 33.9628C0.0119542 33.9373 0.0119528 33.9054 0.00557231 33.8798C0.00557231 33.8543 0.00557231 33.8224 0.00557231 33.7969C0.00557231 33.7714 0.00557231 33.7395 0.00557231 33.7139C0.00557231 33.6884 0.00557231 33.6565 0.00557231 33.631C0.00557231 33.6055 0.00557231 33.5736 0.00557231 33.5481C0.00557231 33.5289 0.00557231 33.5098 0.00557231 33.4906C0.00557231 33.4715 0.00557231 33.4523 0.00557231 33.4332C0.00557231 33.4141 0.00557231 33.3949 0.00557231 33.3758C0.00557231 33.3566 0.00557231 33.3375 0.00557231 33.3184C0.00557231 33.312 0.00557231 33.3056 0.00557231 33.2992C0.00557231 33.2928 0.00557231 33.2864 0.00557231 33.2801C0.00557231 33.2737 0.00557231 33.2673 0.00557231 33.2609C0.00557231 33.2545 0.00557231 33.2482 0.00557231 33.2418C-0.000808227 32.8781 0.00557367 32.5208 0.0119542 32.1571C0.0247153 31.7998 0.0374727 31.4425 0.0629948 31.0852C0.088517 30.7279 0.120421 30.3769 0.158704 30.026C0.196987 29.6751 0.24165 29.3305 0.292695 28.986C0.496872 27.6333 0.701052 26.287 0.898848 24.9343C0.847804 25.2853 0.803141 25.6362 0.764858 25.9871C0.726575 26.338 0.694671 26.6954 0.669149 27.0527C0.643627 27.41 0.624484 27.7737 0.618103 28.131C0.605342 28.4947 0.605341 28.8584 0.611721 29.2284C0.611721 29.2348 0.611721 29.2412 0.611721 29.2476C0.611721 29.2539 0.611721 29.2603 0.611721 29.2667C0.611721 29.2731 0.611721 29.2795 0.611721 29.2859C0.611721 29.2922 0.611721 29.2986 0.611721 29.305C0.611721 29.3241 0.611721 29.3433 0.611721 29.3624C0.611721 29.3816 0.611721 29.4007 0.611721 29.4198C0.611721 29.439 0.611721 29.4581 0.611721 29.4773C0.611721 29.4964 0.611721 29.5156 0.611721 29.5347C0.611721 29.5602 0.611721 29.5921 0.611721 29.6176C0.611721 29.6432 0.611721 29.6751 0.611721 29.7006C0.611721 29.7261 0.611721 29.758 0.611721 29.7835C0.611721 29.8154 0.611721 29.841 0.611721 29.8665C0.611721 29.892 0.611723 29.9239 0.618103 29.9494C0.618103 29.9749 0.618105 30.0069 0.624485 30.0388C0.624485 30.0643 0.624482 30.0962 0.630862 30.1217C0.630862 30.1472 0.630864 30.1791 0.637244 30.2046C0.637244 30.2238 0.637244 30.2429 0.637244 30.2621C0.637244 30.2812 0.637245 30.3004 0.643626 30.3195C0.643626 30.3386 0.643627 30.3578 0.650008 30.3769C0.650008 30.3961 0.650004 30.4152 0.656385 30.4343C0.656385 30.4407 0.656385 30.4471 0.656385 30.4535C0.656385 30.4599 0.656385 30.4662 0.656385 30.4726C0.656385 30.479 0.656385 30.4854 0.656385 30.4918C0.656385 30.4982 0.656385 30.5045 0.656385 30.5109C0.681907 30.881 0.713811 31.2447 0.752094 31.6084C0.790377 31.9721 0.835042 32.3357 0.892467 32.6994C0.943511 33.0631 1.00732 33.4204 1.07112 33.7777C1.13493 34.1542 1.20511 34.5115 1.28806 34.8688Z" fill="#A59DAC"/>
<path d="M36.9165 10.649L36.8463 10.6426C36.7315 10.6235 36.6102 10.6043 36.4954 10.5852C36.3805 10.566 36.2593 10.5469 36.1444 10.5341C36.0296 10.515 35.9084 10.5022 35.7935 10.4831C35.6787 10.4703 35.5574 10.4512 35.4426 10.4384C35.4362 10.4384 35.4298 10.4384 35.4298 10.4384C35.4234 10.4384 35.4171 10.4384 35.4171 10.4384C35.4107 10.4384 35.4043 10.4384 35.4043 10.4384C35.3979 10.4384 35.3915 10.4384 35.3915 10.4384C35.3788 10.4384 35.366 10.4384 35.3469 10.4321C35.3341 10.4321 35.3214 10.4257 35.3022 10.4257C35.2895 10.4257 35.2767 10.4257 35.2576 10.4193C35.2448 10.4193 35.232 10.4193 35.2129 10.4129C35.2001 10.4129 35.1874 10.4129 35.1746 10.4065C35.1618 10.4065 35.1491 10.4065 35.1363 10.4002C35.1236 10.4002 35.1108 10.4002 35.098 10.3938C35.0853 10.3938 35.0725 10.3938 35.0598 10.3874C35.0534 10.3874 35.0406 10.3874 35.0342 10.3874C35.0278 10.3874 35.0151 10.3874 35.0087 10.3874C35.0023 10.3874 34.9896 10.3874 34.9832 10.3874C34.9768 10.3874 34.964 10.3874 34.9577 10.3874C34.9385 10.3874 34.9258 10.3874 34.9066 10.381C34.8875 10.381 34.8747 10.381 34.8556 10.3746C34.8428 10.3746 34.8237 10.3746 34.8109 10.3683C34.7918 10.3683 34.779 10.3683 34.7599 10.3619C34.7535 10.3619 34.7535 10.3619 34.7471 10.3619C34.7407 10.3619 34.7407 10.3619 34.7343 10.3619C34.728 10.3619 34.728 10.3619 34.7216 10.3619C34.7152 10.3619 34.7152 10.3619 34.7088 10.3619C34.6897 10.3619 34.6705 10.3555 34.6514 10.3555C34.6323 10.3555 34.6131 10.3555 34.594 10.3491C34.5748 10.3491 34.5557 10.3491 34.5365 10.3427C34.5174 10.3427 34.4983 10.3427 34.4791 10.3363H34.4727H34.4664H34.46H34.4536C34.4345 10.3363 34.4153 10.3363 34.3898 10.33C34.3707 10.33 34.3515 10.33 34.326 10.3236C34.3068 10.3236 34.2877 10.3236 34.2622 10.3172C34.243 10.3172 34.2239 10.3172 34.1984 10.3108C34.1729 10.3108 34.1537 10.3108 34.1282 10.3044C34.1027 10.3044 34.0835 10.3044 34.0644 10.2981C34.0453 10.2981 34.0197 10.2981 34.0006 10.2917C33.9814 10.2917 33.9559 10.2917 33.9368 10.2853C33.9368 10.2853 33.9368 10.2853 33.9304 10.2853C33.9304 10.2853 33.9304 10.2853 33.924 10.2853C33.924 10.2853 33.924 10.2853 33.9176 10.2853C33.9176 10.2853 33.9176 10.2853 33.9113 10.2853C33.8921 10.2853 33.873 10.2853 33.8474 10.2789C33.8283 10.2789 33.8028 10.2789 33.7836 10.2725C33.7645 10.2725 33.739 10.2725 33.7198 10.2725C33.7007 10.2725 33.6816 10.2725 33.656 10.2725H33.6497H33.6433H33.6369H33.6305C33.6114 10.2725 33.5922 10.2725 33.5731 10.2725C33.5539 10.2725 33.5348 10.2725 33.5157 10.2725C33.4965 10.2725 33.4774 10.2725 33.4582 10.2725C33.4391 10.2725 33.42 10.2725 33.4008 10.2725C33.3944 10.2725 33.388 10.2725 33.388 10.2725C33.3817 10.2725 33.3753 10.2725 33.3753 10.2725C33.3689 10.2725 33.3625 10.2725 33.3625 10.2725C33.3562 10.2725 33.3498 10.2725 33.3498 10.2725C33.3306 10.2725 33.3179 10.2725 33.2987 10.2725C33.2796 10.2725 33.2668 10.2725 33.2477 10.2725C33.2285 10.2725 33.2158 10.2725 33.1966 10.2725C33.1775 10.2725 33.1647 10.2725 33.1456 10.2725C33.1392 10.2725 33.1264 10.2725 33.1201 10.2725C33.1137 10.2725 33.1073 10.2725 33.0946 10.2725C33.0882 10.2725 33.0754 10.2725 33.069 10.2725C33.0626 10.2725 33.0563 10.2725 33.0435 10.2725C33.0307 10.2725 33.018 10.2725 32.9988 10.2725C32.9861 10.2725 32.9733 10.2725 32.9542 10.2725C32.9414 10.2725 32.9287 10.2725 32.9095 10.2725C32.8967 10.2725 32.884 10.2725 32.8649 10.2725C32.8393 10.2725 32.8202 10.2725 32.7947 10.2725C32.7691 10.2725 32.75 10.2725 32.7245 10.2725C32.699 10.2725 32.6798 10.2725 32.6543 10.2725C32.6288 10.2725 32.6096 10.2725 32.5841 10.2725C32.5331 10.2725 32.482 10.2598 32.4374 10.247C32.3927 10.2279 32.348 10.2087 32.3034 10.1768C32.2651 10.1449 32.2332 10.113 32.2077 10.0747C32.1821 10.0365 32.1694 9.99818 32.163 9.95352C32.1502 9.77486 32.2778 9.64087 32.4565 9.64087H32.5522C34.007 9.64725 35.4617 9.78124 36.891 10.0301C36.8973 10.0301 36.9037 10.0301 36.9101 10.0365C36.9165 10.0365 36.9229 10.0365 36.9293 10.0428C36.9356 10.0428 36.942 10.0428 36.9484 10.0492C36.9548 10.0492 36.9612 10.0556 36.9612 10.0556C36.9994 10.0684 37.0377 10.0875 37.0696 10.113C37.1015 10.1386 37.1334 10.1641 37.1526 10.196C37.1781 10.2279 37.1909 10.2598 37.1972 10.2981C37.2036 10.3363 37.21 10.3746 37.2036 10.4129C37.2228 10.5533 37.0696 10.649 36.9165 10.649Z" fill="#FBFBFC"/>
<path d="M51.4261 18.8986C50.5265 17.8267 49.5247 16.8441 48.4464 15.9508C48.4081 15.9189 48.3762 15.887 48.3571 15.8487C48.3379 15.8104 48.3252 15.7721 48.3188 15.7275C48.3124 15.6892 48.3188 15.6445 48.3379 15.6062C48.3507 15.568 48.3762 15.5297 48.4081 15.4978C48.4209 15.485 48.44 15.4723 48.4592 15.4595C48.4783 15.4467 48.4975 15.4404 48.5166 15.434C48.5357 15.4276 48.5613 15.4212 48.5804 15.4148C48.5995 15.4084 48.6251 15.4084 48.6506 15.4084C48.6634 15.4084 48.6825 15.4084 48.6952 15.4084C48.708 15.4084 48.7272 15.4148 48.7399 15.4148C48.7527 15.4212 48.7718 15.4212 48.7846 15.4276C48.7973 15.434 48.8165 15.4403 48.8292 15.4467C48.8356 15.4467 48.842 15.4531 48.8484 15.4595C48.8548 15.4659 48.8611 15.4659 48.8675 15.4723C48.8739 15.4786 48.8803 15.4786 48.8867 15.485C48.893 15.4914 48.8994 15.4914 48.9058 15.4978C49.1866 15.7275 49.4673 15.9699 49.7353 16.2124C50.0033 16.4549 50.2712 16.7037 50.5265 16.9589C50.7817 17.2141 51.0369 17.4694 51.2794 17.7373C51.5218 17.9989 51.7579 18.2669 51.9876 18.5413C51.994 18.5477 51.994 18.5541 52.0004 18.5604C52.0068 18.5668 52.0067 18.5732 52.0131 18.5796C52.0195 18.586 52.0195 18.5923 52.0259 18.5987C52.0259 18.6051 52.0323 18.6115 52.0323 18.6179C52.1025 18.7518 52.0578 18.9114 51.9366 18.9943L51.7388 19.0517C51.7132 19.0517 51.6813 19.0454 51.6558 19.039C51.6303 19.0326 51.5984 19.0262 51.5729 19.0135C51.5473 19.0007 51.5218 18.9879 51.4963 18.9688C51.4708 18.9369 51.4453 18.9177 51.4261 18.8986C51.2092 18.6306 51.4453 18.9177 51.4261 18.8986Z" fill="#FBFBFC"/>
<path d="M55.7457 26.2174C55.701 26.2174 55.6627 26.2111 55.618 26.1983C55.5798 26.1855 55.5415 26.1664 55.5032 26.1473C55.4713 26.1217 55.4394 26.0962 55.4139 26.0643C55.3883 26.0324 55.3692 26.0005 55.3564 25.9622C55.3501 25.9495 55.3437 25.9303 55.3437 25.9176C55.3373 25.9048 55.3309 25.8857 55.3309 25.8729C55.3245 25.8601 55.3245 25.841 55.3182 25.8282C55.3118 25.8155 55.3118 25.8027 55.3054 25.7836C55.3054 25.7772 55.299 25.7644 55.299 25.758C55.299 25.7517 55.2926 25.7389 55.2926 25.7325C55.2926 25.7261 55.2863 25.7134 55.2863 25.707C55.2863 25.7006 55.2799 25.6879 55.2799 25.6815V25.6751V25.6687V25.6623V25.656C55.1842 25.3625 55.0757 25.0753 54.9672 24.7882C54.8588 24.5011 54.7375 24.214 54.6099 23.9332C54.4823 23.6525 54.3547 23.3717 54.2143 23.091C54.074 22.8102 53.9272 22.5359 53.7741 22.2679C53.7486 22.2296 53.7358 22.1849 53.7358 22.1467C53.7294 22.102 53.7358 22.0637 53.7549 22.0254C53.7677 21.9872 53.7932 21.9489 53.8251 21.9233C53.857 21.8914 53.8953 21.8659 53.94 21.8532C53.9527 21.8468 53.9655 21.8468 53.9719 21.8404C53.9846 21.8404 53.9974 21.834 54.0038 21.834C54.0165 21.834 54.0293 21.8276 54.0357 21.8276C54.0484 21.8276 54.0612 21.8276 54.0676 21.8276C54.0995 21.8276 54.125 21.834 54.1569 21.8404C54.1824 21.8468 54.2143 21.8532 54.2398 21.8659C54.2654 21.8787 54.2909 21.8914 54.3164 21.9106C54.3419 21.9297 54.3611 21.9489 54.3802 21.9744C54.3866 21.9808 54.3866 21.9808 54.393 21.9872C54.3994 21.9935 54.3994 21.9935 54.4057 21.9999C54.4057 22.0063 54.4121 22.0127 54.4121 22.0127C54.4185 22.0191 54.4185 22.0254 54.4185 22.0254C54.5908 22.3317 54.7503 22.638 54.9098 22.9506C55.0629 23.2633 55.2097 23.5759 55.3501 23.8949C55.4904 24.214 55.618 24.533 55.7393 24.852C55.8605 25.1774 55.9754 25.4964 56.0774 25.8282C56.0774 25.8346 56.0774 25.841 56.0838 25.841C56.0838 25.8474 56.0838 25.8538 56.0902 25.8538C56.0902 25.8601 56.0902 25.8665 56.0902 25.8665C56.0902 25.8729 56.0902 25.8793 56.0902 25.8793C56.1093 26.0452 55.9817 26.1728 55.8286 26.2047L55.7457 26.2174Z" fill="#FBFBFC"/>
<path d="M56.8815 29.8025C56.8815 29.8089 56.8815 29.8089 56.8815 29.8153C56.8815 29.8472 56.8879 29.8855 56.8879 29.9174C56.8879 29.9237 56.8879 29.9301 56.8879 29.9429C56.8879 29.9493 56.8879 29.9556 56.8879 29.962C56.8879 29.9684 56.8879 29.9748 56.8879 29.9812C56.8879 29.9939 56.8879 30.0067 56.8942 30.0258C56.8942 30.0386 56.8942 30.0513 56.9006 30.0705C56.9006 30.0833 56.9006 30.096 56.907 30.1152C56.907 30.1279 56.907 30.1407 56.9134 30.1598C56.9134 30.1662 56.9134 30.1726 56.9134 30.179C56.9134 30.1853 56.9134 30.1917 56.9134 30.1981C56.9134 30.2045 56.9134 30.2109 56.9134 30.2172C56.9134 30.2236 56.9134 30.23 56.9134 30.2364C56.9389 30.549 56.9517 30.8553 56.9644 31.1679C56.9708 31.4742 56.9772 31.7869 56.9644 32.0931C56.9581 32.3994 56.9453 32.7057 56.9198 33.0119C56.8942 33.3182 56.8687 33.6244 56.8241 33.9243C56.8241 33.9307 56.8241 33.9307 56.8241 33.9371C56.8241 33.9435 56.8241 33.9435 56.8241 33.9499C56.8241 33.9562 56.8241 33.9562 56.8241 33.9626C56.8241 33.969 56.8241 33.969 56.8241 33.9754C56.7858 34.1157 56.6454 34.1987 56.505 34.1987L56.4348 34.1923C56.3838 34.1859 56.3391 34.1668 56.3009 34.1477C56.2626 34.1221 56.2243 34.0966 56.1924 34.0647C56.1605 34.0328 56.1413 33.9945 56.1222 33.9499C56.1031 33.9116 56.0967 33.8669 56.0967 33.8222C56.0967 33.8159 56.0967 33.8095 56.0967 33.8031C56.1031 33.7457 56.1094 33.6883 56.1158 33.6372C56.1222 33.5798 56.1286 33.5224 56.135 33.4713C56.1413 33.4139 56.1477 33.3565 56.1541 33.3054C56.1605 33.248 56.1669 33.1906 56.1732 33.1395C56.1732 33.1268 56.1732 33.114 56.1732 33.1012C56.1732 33.0885 56.1732 33.0757 56.1732 33.063C56.1732 33.0502 56.1732 33.0374 56.1732 33.0247C56.1732 33.0119 56.1732 32.9992 56.1732 32.9864C56.1732 32.98 56.1732 32.98 56.1732 32.9736C56.1732 32.9673 56.1732 32.9673 56.1732 32.9609C56.1732 32.9545 56.1732 32.9545 56.1732 32.9481C56.1732 32.9417 56.1732 32.9417 56.1732 32.9353C56.1924 32.7312 56.1988 32.5206 56.2115 32.3164C56.2179 32.1123 56.2243 31.9017 56.2243 31.6911C56.2243 31.4806 56.2243 31.2764 56.2179 31.0659C56.2115 30.8553 56.1988 30.6447 56.186 30.4406C56.186 30.4214 56.186 30.4023 56.1796 30.3831C56.1796 30.364 56.1796 30.3449 56.1732 30.3257C56.1732 30.3066 56.1732 30.2874 56.1669 30.2747C56.1669 30.2555 56.1669 30.2364 56.1605 30.2236C56.1605 30.2172 56.1605 30.2172 56.1605 30.2109C56.1605 30.2045 56.1605 30.2045 56.1605 30.1981C56.1605 30.1917 56.1605 30.1917 56.1605 30.1853C56.1605 30.179 56.1605 30.179 56.1605 30.1726C56.1541 30.0896 56.1477 30.0067 56.1413 29.9237C56.1286 29.8599 56.1286 29.7706 56.1477 29.7132C56.1605 29.6749 56.186 29.6366 56.2179 29.6111C56.2498 29.5792 56.2817 29.56 56.3264 29.5409C56.371 29.5218 56.4157 29.5154 56.4668 29.5154C56.5178 29.5154 56.5625 29.5218 56.6071 29.5409C56.6518 29.56 56.6901 29.5792 56.7283 29.6111C56.7602 29.6366 56.7922 29.6749 56.8113 29.7132C56.856 29.7196 56.8751 29.7578 56.8815 29.8025Z" fill="#FBFBFC"/>
<path d="M41.0193 11.7463C40.9746 11.7272 40.9299 11.7017 40.898 11.6761C40.8661 11.6442 40.8342 11.6123 40.8151 11.574C40.796 11.5358 40.7832 11.4975 40.7768 11.4528C40.7704 11.4145 40.7768 11.3699 40.7959 11.3316C40.8087 11.2997 40.8279 11.2742 40.847 11.2486C40.8661 11.2231 40.8917 11.204 40.9236 11.1848C40.9491 11.1657 40.981 11.1529 41.0129 11.1466C41.0448 11.1402 41.0767 11.1338 41.115 11.1338C41.1214 11.1338 41.1277 11.1338 41.1405 11.1338C41.1469 11.1338 41.1533 11.1338 41.166 11.1338C41.1724 11.1338 41.1788 11.1338 41.1915 11.1402C41.1979 11.1402 41.2043 11.1402 41.2171 11.1466C41.2362 11.1529 41.249 11.1529 41.2681 11.1593C41.619 11.2805 41.9636 11.4145 42.3081 11.5549C42.6527 11.6953 42.9909 11.842 43.329 11.9952C43.6672 12.1483 43.999 12.3142 44.3308 12.4801C44.6626 12.646 44.988 12.8246 45.307 13.0033C45.3134 13.0097 45.3198 13.0097 45.3261 13.016C45.3325 13.0224 45.3389 13.0224 45.3453 13.0288C45.3517 13.0352 45.358 13.0416 45.3644 13.0416C45.3708 13.048 45.3772 13.0543 45.3836 13.0543C45.4155 13.0799 45.4346 13.1118 45.4537 13.1437C45.4729 13.1756 45.4856 13.2075 45.492 13.2457C45.4984 13.2776 45.4984 13.3159 45.492 13.3478C45.4856 13.3797 45.4729 13.418 45.4537 13.4499C45.3899 13.5456 45.2815 13.5903 45.1666 13.5903L44.9688 13.5393C44.6562 13.3606 44.3371 13.1947 44.0181 13.0288C43.6991 12.8629 43.3737 12.7098 43.0483 12.5566C42.7229 12.4099 42.3911 12.2631 42.0593 12.1292C41.6892 11.9952 41.3574 11.8676 41.0193 11.7463C40.9682 11.7336 41.3574 11.8676 41.0193 11.7463Z" fill="#FBFBFC"/>
<path d="M24.1432 11.7273C24.1049 11.7273 24.073 11.7209 24.0347 11.7146C24.0028 11.7082 23.9709 11.689 23.939 11.6763C23.9071 11.6571 23.8815 11.638 23.856 11.6125C23.8305 11.5869 23.8114 11.5614 23.7922 11.5295C23.7731 11.4912 23.7603 11.4593 23.7603 11.4211C23.7539 11.3828 23.7603 11.3445 23.7731 11.3126C23.7858 11.2807 23.7986 11.2424 23.8241 11.2169C23.8496 11.185 23.8752 11.1595 23.9135 11.1403C23.9198 11.1403 23.9198 11.1339 23.9262 11.1339C23.9326 11.1339 23.9326 11.1275 23.939 11.1275C23.9454 11.1275 23.9454 11.1212 23.9517 11.1212C23.9581 11.1212 23.9645 11.1148 23.9645 11.1148C24.2708 10.9999 24.577 10.8915 24.8897 10.7958C25.2023 10.6937 25.515 10.6043 25.834 10.515C26.153 10.4257 26.472 10.3491 26.7911 10.2726C27.1101 10.196 27.4355 10.1322 27.7609 10.0684C27.7673 10.0684 27.7673 10.0684 27.7737 10.0684C27.7801 10.0684 27.7801 10.0684 27.7864 10.0684C27.7928 10.0684 27.7928 10.0684 27.7992 10.0684C27.8056 10.0684 27.8056 10.0684 27.812 10.0684C27.8247 10.0684 27.8439 10.062 27.8566 10.062C27.8694 10.062 27.8885 10.0556 27.9013 10.0556C27.914 10.0556 27.9332 10.0492 27.946 10.0492C27.9587 10.0492 27.9779 10.0429 27.9906 10.0429C27.997 10.0429 28.0098 10.0365 28.0161 10.0365C28.0225 10.0365 28.0353 10.0301 28.0417 10.0301C28.048 10.0301 28.0608 10.0237 28.0672 10.0237C28.0736 10.0237 28.0863 10.0173 28.0927 10.0173H28.0991H28.1055H28.1118H28.1182C28.1246 10.0173 28.131 10.0173 28.1374 10.0173C28.1437 10.0173 28.1501 10.0173 28.1565 10.0173C28.1629 10.0173 28.1693 10.0173 28.1757 10.0173C28.182 10.0173 28.1884 10.0173 28.1948 10.0173C28.2395 10.0173 28.2777 10.0237 28.316 10.0365C28.3543 10.0492 28.3926 10.0684 28.4245 10.0875C28.4564 10.113 28.4883 10.1386 28.5074 10.1705C28.533 10.2024 28.5521 10.2343 28.5585 10.2726C28.6159 10.4512 28.4755 10.6171 28.3033 10.6426C26.9251 10.8787 25.5724 11.2488 24.2644 11.7337L24.1432 11.7273Z" fill="#FBFBFC"/>
<path d="M17.1308 16.0021C17.0351 16.0021 16.9394 15.9702 16.8628 15.9064C16.8309 15.8808 16.8054 15.8489 16.7862 15.817C16.7671 15.7851 16.7543 15.7468 16.7479 15.7149C16.7416 15.683 16.7416 15.6448 16.7479 15.6129C16.7543 15.5809 16.7671 15.5427 16.7862 15.5108C16.799 15.4852 16.8181 15.4661 16.8373 15.447C17.8518 14.509 18.962 13.6732 20.1424 12.9458C20.1488 12.9394 20.1552 12.9394 20.1615 12.933C20.1679 12.933 20.1743 12.9266 20.1807 12.9266C20.1871 12.9266 20.1934 12.9203 20.1998 12.9203C20.2062 12.9203 20.2126 12.9139 20.219 12.9139C20.2317 12.9139 20.2381 12.9075 20.2509 12.9075C20.2636 12.9075 20.27 12.9011 20.2828 12.9011C20.2955 12.9011 20.3019 12.9011 20.3147 12.9011C20.3274 12.9011 20.3338 12.9011 20.3466 12.9011C20.4678 12.9011 20.589 12.9522 20.6592 13.0479C20.6911 13.0862 20.7103 13.1244 20.723 13.1627C20.7358 13.201 20.7358 13.2457 20.7294 13.284C20.723 13.3222 20.7039 13.3669 20.6847 13.3988C20.6592 13.4371 20.6273 13.4626 20.5827 13.4881C20.2955 13.6604 20.0148 13.8454 19.734 14.0369C19.4533 14.2283 19.1853 14.4197 18.9173 14.6239C18.6494 14.828 18.3877 15.0322 18.1325 15.2492C17.8773 15.4661 17.6285 15.683 17.386 15.9127C17.3669 15.9255 17.3541 15.9383 17.335 15.951C17.3158 15.9638 17.2967 15.9702 17.2712 15.9765C17.252 15.9829 17.2265 15.9893 17.201 15.9957C17.1818 16.0021 17.1563 16.0021 17.1308 16.0021Z" fill="#FBFBFC"/>
<path d="M12.4543 22.4587C12.4096 22.446 12.3713 22.4268 12.3394 22.4013C12.3075 22.3758 12.282 22.3439 12.2565 22.312C12.2373 22.2801 12.2182 22.2418 12.2118 22.2035C12.2054 22.1652 12.2054 22.1269 12.2118 22.0887C12.2118 22.0823 12.2118 22.0823 12.2118 22.0759C12.2118 22.0695 12.2118 22.0695 12.2182 22.0631C12.2182 22.0567 12.2182 22.0567 12.2246 22.0504C12.2246 22.044 12.2246 22.044 12.231 22.0376C12.3586 21.7313 12.4926 21.4251 12.6393 21.1252C12.7861 20.8253 12.9392 20.5254 13.0987 20.2319C13.2582 19.9384 13.4305 19.6449 13.6092 19.3642C13.7878 19.077 13.9728 18.7963 14.1706 18.5219C14.177 18.5156 14.177 18.5092 14.1834 18.5092C14.1898 18.5028 14.1898 18.4964 14.1962 18.4964C14.2025 18.49 14.2025 18.4836 14.2089 18.4836C14.2153 18.4773 14.2217 18.4773 14.2217 18.4709C14.2408 18.4581 14.2536 18.4454 14.2727 18.4326C14.2919 18.4198 14.311 18.4135 14.3302 18.4071C14.3493 18.4007 14.3684 18.3943 14.394 18.3943C14.4131 18.3879 14.4386 18.3879 14.4578 18.3879C14.5343 18.3879 14.6045 18.4071 14.6683 18.4454C14.8215 18.5347 14.898 18.7389 14.7896 18.892C14.6045 19.16 14.4259 19.4343 14.2536 19.7087C14.0813 19.9831 13.9154 20.2638 13.7623 20.5509C13.6028 20.8381 13.456 21.1252 13.3157 21.4123C13.1753 21.7058 13.0413 21.9993 12.9201 22.2992C12.869 22.4332 12.7286 22.5098 12.5883 22.5098L12.4543 22.4587Z" fill="#FBFBFC"/>
<path d="M55.6625 37.3835C55.7072 37.3963 55.7391 37.4218 55.7774 37.4473C55.8093 37.4728 55.8348 37.5047 55.8603 37.5366C55.8794 37.5685 55.8986 37.6068 55.905 37.6451C55.9114 37.6834 55.9177 37.7217 55.9113 37.76C55.9113 37.7663 55.9113 37.7727 55.9113 37.7727C55.9113 37.7791 55.9113 37.7855 55.9113 37.7855C55.9113 37.7919 55.9114 37.7982 55.905 37.7982C55.905 37.8046 55.905 37.8046 55.8986 37.811C55.7837 38.1236 55.6625 38.4363 55.5285 38.7426C55.3945 39.0488 55.2542 39.3551 55.1074 39.6614C54.9543 39.9612 54.8011 40.2611 54.6289 40.5546C54.463 40.8481 54.2843 41.1416 54.1057 41.4288C54.1057 41.4351 54.0993 41.4415 54.0929 41.4415C54.0865 41.4479 54.0865 41.4543 54.0801 41.4543C54.0738 41.4607 54.0738 41.4607 54.0674 41.467C54.061 41.4734 54.061 41.4734 54.0546 41.4798C53.9908 41.5436 53.9015 41.5755 53.8122 41.5755L53.608 41.5181C53.5633 41.4926 53.525 41.4607 53.4931 41.4224C53.4612 41.3841 53.4421 41.3458 53.4293 41.3011C53.4166 41.2565 53.4102 41.2118 53.4166 41.1735C53.4229 41.1289 53.4357 41.0906 53.4612 41.0523C53.6399 40.7779 53.8122 40.4972 53.9717 40.2101C54.1312 39.923 54.2907 39.6358 54.4311 39.3423C54.5778 39.0488 54.7118 38.7553 54.8394 38.4554C54.967 38.1555 55.0883 37.8557 55.1967 37.5494C55.2095 37.5175 55.2223 37.4856 55.2478 37.4601C55.2669 37.4345 55.2924 37.4154 55.3243 37.3963C55.3499 37.3771 55.3818 37.3644 55.4201 37.358C55.452 37.3516 55.4902 37.3452 55.5285 37.3452C55.5413 37.3452 55.554 37.3452 55.5668 37.3452C55.5796 37.3452 55.5923 37.3452 55.6051 37.3516C55.6178 37.3516 55.6306 37.358 55.6434 37.358C55.637 37.3771 55.6497 37.3835 55.6625 37.3835C55.7008 37.4026 55.6497 37.3835 55.6625 37.3835Z" fill="#FBFBFC"/>
<path d="M11.6306 29.8797C11.6306 29.9243 11.6243 29.969 11.6115 30.0137C11.5924 30.0583 11.5732 30.0966 11.5413 30.1285C11.5094 30.1604 11.4711 30.1859 11.4265 30.2051C11.3818 30.2242 11.3307 30.237 11.2797 30.237C11.101 30.237 10.9096 30.1221 10.8969 29.9307C10.8969 29.8924 10.8905 29.8541 10.8905 29.8222C10.8905 29.8031 10.8905 29.7776 10.8905 29.7584C10.8905 29.7393 10.8905 29.7138 10.8905 29.6946C10.8905 29.6755 10.8905 29.65 10.8905 29.6308C10.8905 29.6244 10.8905 29.6244 10.8905 29.6181C10.8905 29.6117 10.8905 29.6117 10.8905 29.6053C10.8905 29.5989 10.8905 29.5989 10.8905 29.5925C10.8905 29.5862 10.8905 29.5862 10.8905 29.5798C10.8905 29.5606 10.8905 29.5415 10.8905 29.5224C10.8905 29.5032 10.8905 29.4841 10.8905 29.4649C10.8905 29.4458 10.8905 29.4266 10.8905 29.4075C10.8905 29.3884 10.8905 29.3692 10.8905 29.3501C10.865 28.1952 10.9415 27.0339 11.1393 25.8918C11.1393 25.8854 11.1393 25.8854 11.1393 25.8791C11.1393 25.8727 11.1393 25.8727 11.1393 25.8663C11.1393 25.8663 11.1393 25.8599 11.1393 25.8535C11.1393 25.8472 11.1393 25.8472 11.1393 25.8408C11.1521 25.8089 11.1649 25.777 11.1904 25.7451C11.2095 25.7196 11.2414 25.694 11.2733 25.6749C11.3052 25.6557 11.3371 25.6366 11.3754 25.6302C11.4137 25.6175 11.452 25.6111 11.4903 25.6111C11.5094 25.6111 11.5349 25.6111 11.5541 25.6175C11.6051 25.6302 11.6498 25.643 11.6881 25.6685C11.7263 25.694 11.7582 25.7196 11.7901 25.7515C11.8157 25.7834 11.8412 25.8216 11.854 25.8599C11.8667 25.8982 11.8731 25.9429 11.8731 25.9812C11.8731 25.9875 11.8731 25.9939 11.8731 26.0067C11.854 26.1215 11.8348 26.2428 11.8157 26.3576C11.7965 26.4788 11.7838 26.5937 11.7646 26.7149C11.7519 26.8361 11.7327 26.951 11.72 27.0722C11.7072 27.1935 11.6944 27.3083 11.6881 27.4295C11.6881 27.4295 11.6881 27.4295 11.6881 27.4359C11.6881 27.4359 11.6881 27.4359 11.6881 27.4423C11.6881 27.4423 11.6881 27.4423 11.6881 27.4487C11.6881 27.4487 11.6881 27.4487 11.6881 27.4551C11.6881 27.4742 11.6881 27.4933 11.6817 27.5061C11.6817 27.5252 11.6817 27.5444 11.6753 27.5571C11.6753 27.5763 11.6753 27.5954 11.6689 27.6082C11.6689 27.6273 11.6689 27.6465 11.6625 27.6592C11.6625 27.6656 11.6625 27.6656 11.6625 27.672C11.6625 27.6784 11.6625 27.6784 11.6625 27.6848C11.6625 27.6911 11.6625 27.6911 11.6625 27.6975C11.6625 27.7039 11.6625 27.7039 11.6625 27.7103C11.6625 27.723 11.6625 27.7422 11.6562 27.7549C11.6562 27.7677 11.6562 27.7868 11.6562 27.7996C11.6562 27.8124 11.6562 27.8315 11.6562 27.8443C11.6562 27.857 11.6562 27.8762 11.6562 27.8889C11.6562 27.8953 11.6562 27.9017 11.6562 27.9081C11.6562 27.9145 11.6562 27.9208 11.6562 27.9272C11.6562 27.9336 11.6562 27.94 11.6562 27.9464C11.6562 27.9527 11.6562 27.9591 11.6562 27.9655C11.6562 27.9783 11.6562 27.9974 11.6562 28.0102C11.6562 28.0229 11.6562 28.0421 11.6562 28.0548C11.6562 28.0676 11.6562 28.0867 11.6562 28.0995C11.6562 28.1123 11.6562 28.1314 11.6562 28.1442C11.6562 28.1505 11.6562 28.1569 11.6562 28.1633C11.6562 28.1697 11.6562 28.1761 11.6562 28.1824C11.6562 28.1888 11.6562 28.1952 11.6562 28.2016C11.6562 28.208 11.6562 28.2143 11.6562 28.2207C11.6562 28.2335 11.6562 28.2526 11.6562 28.2654C11.6562 28.2781 11.6562 28.2973 11.6562 28.3101C11.6562 28.3228 11.6562 28.342 11.6562 28.3547C11.6562 28.3675 11.6562 28.3866 11.6562 28.3994C11.6562 28.4058 11.6562 28.4121 11.6562 28.4185C11.6562 28.4249 11.6562 28.4313 11.6562 28.4377C11.6562 28.444 11.6562 28.4504 11.6562 28.4568C11.6562 28.4632 11.6562 28.4696 11.6562 28.4759C11.6562 28.4887 11.6562 28.5078 11.6562 28.5206C11.6562 28.5334 11.6562 28.5525 11.6562 28.5653C11.6562 28.578 11.6562 28.5972 11.6562 28.6099C11.6562 28.6227 11.6562 28.6418 11.6562 28.6546C11.6562 28.661 11.6562 28.6674 11.6562 28.6737C11.6562 28.6801 11.6562 28.6865 11.6562 28.6929C11.6562 28.6993 11.6562 28.7056 11.6562 28.712C11.6562 28.7184 11.6562 28.7248 11.6562 28.7312C11.6562 28.7439 11.6562 28.7567 11.6562 28.7758C11.6562 28.7886 11.6562 28.8014 11.6562 28.8205C11.6562 28.8333 11.6562 28.846 11.6562 28.8652C11.6562 28.8779 11.6562 28.8907 11.6562 28.9098C11.6562 28.9162 11.6562 28.9226 11.6562 28.929C11.6562 28.9353 11.6562 28.9417 11.6562 28.9481C11.6562 28.9545 11.6562 28.9609 11.6562 28.9672C11.6562 28.9736 11.6562 28.98 11.6562 28.9864C11.6562 28.9991 11.6562 29.0119 11.6562 29.0247C11.6562 29.0374 11.6562 29.0502 11.6562 29.063C11.6562 29.0757 11.6562 29.0885 11.6562 29.1012C11.6562 29.114 11.6562 29.1268 11.6562 29.1395C11.6562 29.1459 11.6562 29.1523 11.6562 29.165C11.6562 29.1714 11.6562 29.1778 11.6562 29.1906C11.6562 29.1969 11.6562 29.2033 11.6562 29.2161C11.6562 29.2225 11.6562 29.2289 11.6562 29.2416C11.6562 29.2544 11.6562 29.2671 11.6562 29.2799C11.6562 29.2927 11.6562 29.3054 11.6562 29.3182C11.6562 29.3309 11.6562 29.3437 11.6562 29.3565C11.6562 29.3692 11.6562 29.382 11.6562 29.3947C11.6562 29.4011 11.6562 29.4139 11.6562 29.4203C11.6562 29.4266 11.6562 29.4394 11.6562 29.4458C11.6562 29.4522 11.6562 29.4649 11.6562 29.4713C11.6562 29.4777 11.6562 29.4905 11.6562 29.4968C11.6562 29.5096 11.6562 29.5224 11.6562 29.5351C11.6562 29.5479 11.6562 29.5606 11.6562 29.5734C11.6562 29.5862 11.6562 29.5989 11.6562 29.6117C11.6562 29.6244 11.6562 29.6372 11.6562 29.65C11.6562 29.6691 11.6562 29.6882 11.6562 29.7138C11.6562 29.7329 11.6562 29.7521 11.6562 29.7776C11.6562 29.7967 11.6562 29.8159 11.6562 29.8414C11.6306 29.835 11.6306 29.8541 11.6306 29.8797Z" fill="#FBFBFC"/>
<path d="M51.2034 44.0635C51.2289 44.0635 51.2481 44.0635 51.2736 44.0699C51.2991 44.0762 51.3182 44.0826 51.3438 44.089C51.3693 44.0954 51.3884 44.1081 51.4076 44.1209C51.4267 44.1337 51.4458 44.1464 51.465 44.1656C51.4969 44.1911 51.5224 44.223 51.5479 44.2549C51.5671 44.2868 51.5862 44.3251 51.5926 44.357C51.599 44.3953 51.6054 44.4272 51.599 44.4655C51.5926 44.5037 51.5862 44.5356 51.5671 44.5675C51.5543 44.5994 51.5288 44.625 51.5097 44.6441C50.5143 45.6395 49.4105 46.5327 48.2364 47.2984L48.1854 47.3112L48.0323 47.3558C48.0004 47.3558 47.9685 47.3495 47.9429 47.3431C47.911 47.3367 47.8855 47.3239 47.86 47.3112C47.8345 47.2984 47.8089 47.2793 47.7834 47.2601C47.7579 47.241 47.7388 47.2218 47.7196 47.1963C47.5984 47.0496 47.6175 46.8262 47.7834 46.7305C48.9255 45.984 49.9847 45.1163 50.9546 44.1592C50.9737 44.14 50.9928 44.1273 51.012 44.1145C51.0311 44.1018 51.0503 44.0954 51.0758 44.0826C51.1013 44.0762 51.1204 44.0699 51.146 44.0635C51.1587 44.0699 51.1843 44.0635 51.2034 44.0635Z" fill="#FBFBFC"/>
<path d="M12.7797 35.431C12.8499 35.6224 12.9201 35.8074 12.9966 35.9988C13.0732 36.1839 13.1498 36.3753 13.2327 36.5603C13.3157 36.7453 13.3986 36.9304 13.4879 37.1154C13.5773 37.3005 13.6666 37.4855 13.7623 37.6641C13.8516 37.8364 13.7559 38.0342 13.5836 38.1044L13.4433 38.1299C13.4114 38.1299 13.3795 38.1235 13.3539 38.1172C13.322 38.1108 13.2965 38.098 13.2646 38.0853C13.2391 38.0725 13.2072 38.0534 13.1881 38.0342C13.1625 38.0151 13.1434 37.9959 13.1242 37.9704C13.1115 37.9576 13.0987 37.9385 13.0923 37.9194C12.4479 36.6624 11.9247 35.3416 11.5546 33.9826C11.5546 33.9762 11.5546 33.9762 11.5546 33.9698C11.5546 33.9698 11.5546 33.9634 11.5546 33.9571C11.5546 33.9507 11.5546 33.9507 11.5546 33.9443C11.5546 33.9379 11.5546 33.9379 11.5546 33.9315C11.5355 33.7529 11.6631 33.6125 11.8354 33.5806C11.8418 33.5806 11.8481 33.5806 11.8545 33.5742C11.8609 33.5742 11.8673 33.5742 11.8737 33.5742C11.88 33.5742 11.8864 33.5742 11.8928 33.5742C11.8992 33.5742 11.9056 33.5742 11.9119 33.5742C12.0778 33.5742 12.2437 33.6827 12.2884 33.8422C12.3139 33.9443 12.3458 34.04 12.3713 34.1421C12.4032 34.2442 12.4288 34.3399 12.4607 34.4356C12.4926 34.5313 12.5245 34.6334 12.5564 34.7291C12.5883 34.8248 12.6202 34.9269 12.6521 35.0226C12.6521 35.029 12.6585 35.0354 12.6585 35.0354C12.6585 35.0417 12.6648 35.0481 12.6648 35.0481C12.6648 35.0545 12.6712 35.0609 12.6712 35.0609C12.6712 35.0673 12.6776 35.0736 12.6776 35.0736C12.684 35.0864 12.684 35.0992 12.6904 35.1119C12.6968 35.1247 12.6968 35.1375 12.7031 35.1502C12.7095 35.163 12.7095 35.1757 12.7159 35.1821C12.7223 35.1949 12.7223 35.2076 12.7287 35.2204C12.735 35.2332 12.735 35.2459 12.7414 35.2523C12.7478 35.2651 12.7478 35.2778 12.7542 35.2906C12.7606 35.3033 12.7606 35.3161 12.7669 35.3289C12.7733 35.3416 12.7733 35.3544 12.7797 35.3672C12.7797 35.3735 12.7797 35.3735 12.7861 35.3799C12.7861 35.3863 12.7925 35.3863 12.7925 35.3927C12.7925 35.3991 12.7925 35.3991 12.7988 35.4054C12.7733 35.4246 12.7797 35.431 12.7797 35.431Z" fill="#FBFBFC"/>
<path d="M44.1843 48.626C44.3311 48.626 44.4778 48.7026 44.548 48.8366C44.5671 48.8749 44.5799 48.9131 44.5799 48.9514C44.5863 48.9897 44.5799 49.028 44.5735 49.0663C44.5671 49.1046 44.548 49.1365 44.5289 49.1684C44.5097 49.2003 44.4778 49.2258 44.4459 49.2513C44.4395 49.2577 44.4395 49.2577 44.4332 49.2577C44.4268 49.2577 44.4204 49.2641 44.4204 49.2641C44.414 49.2641 44.4076 49.2704 44.4013 49.2704C44.3949 49.2704 44.3885 49.2768 44.3821 49.2768C42.9975 49.8256 41.5619 50.2403 40.1008 50.521H40.0561H40.0242C39.8519 50.521 39.686 50.4126 39.6414 50.2467C39.5839 50.0616 39.7179 49.8766 39.903 49.8447C40.2603 49.7745 40.6176 49.6979 40.9685 49.615C41.3195 49.532 41.6704 49.4363 42.0149 49.3406C42.3595 49.2385 42.704 49.1301 43.0422 49.0152C43.3804 48.9004 43.7122 48.7728 44.0439 48.6452C44.0567 48.6388 44.0695 48.6388 44.0822 48.6324C44.095 48.626 44.1077 48.626 44.1205 48.626C44.1333 48.626 44.146 48.6196 44.1588 48.6196C44.1652 48.6324 44.1716 48.626 44.1843 48.626Z" fill="#FBFBFC"/>
<path d="M16.053 41.1916C16.9526 42.321 17.9671 43.361 19.0646 44.299C19.205 44.4266 19.2305 44.6435 19.0901 44.7839C19.071 44.803 19.0518 44.8158 19.0327 44.8285C19.0135 44.8413 18.9944 44.8541 18.9689 44.8604C18.9434 44.8668 18.9242 44.8732 18.8987 44.8796C18.8732 44.886 18.8476 44.886 18.8285 44.886C18.8094 44.886 18.7966 44.886 18.7775 44.886C18.7583 44.886 18.7456 44.8796 18.7264 44.8796C18.7073 44.8732 18.6945 44.8732 18.6754 44.8668C18.6626 44.8605 18.6435 44.8541 18.6307 44.8477C18.6243 44.8413 18.6179 44.8413 18.6116 44.8349C18.6052 44.8285 18.5988 44.8285 18.5924 44.8222C18.586 44.8158 18.5797 44.8158 18.5733 44.8094C18.5669 44.803 18.5605 44.7966 18.5541 44.7966C18.267 44.5542 17.9863 44.299 17.7183 44.0437C17.4439 43.7885 17.1759 43.5269 16.9207 43.2589C16.6591 42.991 16.4103 42.7166 16.1614 42.4422C15.919 42.1615 15.6829 41.8807 15.4532 41.5936C15.4468 41.5872 15.4468 41.5809 15.4404 41.5745C15.4341 41.5681 15.4341 41.5617 15.4277 41.5553C15.4213 41.549 15.4213 41.5426 15.4149 41.5362C15.4149 41.5298 15.4085 41.5234 15.4085 41.517C15.3447 41.3703 15.3894 41.2044 15.5234 41.1151C15.5425 41.1023 15.5553 41.0959 15.5744 41.0896C15.5936 41.0832 15.6063 41.0768 15.6255 41.0704C15.6446 41.064 15.6638 41.064 15.6765 41.0576C15.6957 41.0576 15.7148 41.0513 15.7339 41.0513C15.7659 41.0513 15.7914 41.0513 15.8233 41.0576C15.8552 41.064 15.8807 41.0704 15.9062 41.0832C15.9317 41.0959 15.9573 41.1087 15.9828 41.1278C16.0147 41.147 16.0338 41.1661 16.053 41.1916C16.2763 41.466 16.0338 41.1661 16.053 41.1916Z" fill="#FBFBFC"/>
<path d="M35.488 50.2786C35.5391 50.2786 35.5965 50.285 35.6412 50.3041C35.6858 50.3233 35.7305 50.3488 35.7688 50.3743C35.8071 50.4062 35.839 50.4445 35.8581 50.4828C35.8836 50.5211 35.8964 50.5657 35.8964 50.6168C35.9092 50.8082 35.7497 50.955 35.5582 50.9613H35.5263C33.995 50.9741 32.4573 50.8401 30.9451 50.5849C30.9387 50.5849 30.9323 50.5849 30.926 50.5785C30.9196 50.5785 30.9132 50.5785 30.9068 50.5721C30.9004 50.5721 30.8941 50.5657 30.8877 50.5657C30.8813 50.5657 30.8749 50.5594 30.8685 50.5594C30.709 50.5019 30.5814 50.3488 30.6133 50.1701C30.6197 50.1319 30.6325 50.0936 30.6516 50.0553C30.6707 50.0234 30.6963 49.9915 30.7282 49.966C30.7601 49.9404 30.792 49.9213 30.8303 49.9085C30.8685 49.8958 30.9132 49.8894 30.9579 49.8894C30.9642 49.8894 30.9706 49.8894 30.977 49.8894C30.9834 49.8894 30.9898 49.8894 30.9962 49.8894C31.0025 49.8894 31.0089 49.8894 31.0153 49.8894C31.0217 49.8894 31.0281 49.8894 31.0344 49.8958C31.2322 49.9277 31.43 49.9596 31.6278 49.9915C31.8256 50.0234 32.0234 50.0489 32.2212 50.0744C32.419 50.1 32.6168 50.1191 32.821 50.1446C33.0188 50.1638 33.2166 50.1829 33.4208 50.1957C33.4463 50.1957 33.4654 50.202 33.4909 50.202C33.5165 50.202 33.5356 50.2084 33.5547 50.2084C33.5739 50.2084 33.5994 50.2084 33.6185 50.2148C33.6377 50.2148 33.6632 50.2148 33.6824 50.2212C33.6887 50.2212 33.6887 50.2212 33.6951 50.2212C33.7015 50.2212 33.7015 50.2212 33.7079 50.2212C33.7143 50.2212 33.7143 50.2212 33.7206 50.2212C33.727 50.2212 33.727 50.2212 33.7334 50.2212C33.7525 50.2212 33.7717 50.2212 33.7908 50.2276C33.81 50.2276 33.8291 50.2276 33.8482 50.234C33.8674 50.234 33.8865 50.234 33.9057 50.234C33.9248 50.234 33.944 50.234 33.9631 50.234C33.9695 50.234 33.9759 50.234 33.9822 50.234C33.9886 50.234 33.995 50.234 34.0014 50.234C34.0078 50.234 34.0141 50.234 34.0205 50.234C34.0269 50.234 34.0333 50.234 34.0397 50.234C34.0588 50.234 34.0716 50.234 34.0907 50.234C34.1099 50.234 34.1226 50.234 34.1418 50.234C34.1609 50.234 34.1737 50.234 34.1928 50.234C34.2119 50.234 34.2247 50.234 34.2438 50.234C34.2502 50.234 34.263 50.234 34.2694 50.234C34.2757 50.234 34.2885 50.234 34.2949 50.234C34.3013 50.234 34.314 50.234 34.3204 50.234C34.3268 50.234 34.3395 50.234 34.3459 50.234C34.3587 50.234 34.3778 50.234 34.3906 50.234C34.4034 50.234 34.4225 50.234 34.4353 50.234C34.448 50.234 34.4672 50.234 34.4799 50.234C34.4927 50.234 34.5118 50.234 34.5246 50.234C34.531 50.234 34.5373 50.234 34.5501 50.234C34.5565 50.234 34.5692 50.234 34.5756 50.234C34.582 50.234 34.5948 50.234 34.6012 50.234C34.6075 50.234 34.6203 50.234 34.6267 50.234C34.6458 50.234 34.6586 50.234 34.6777 50.234C34.6905 50.234 34.7096 50.234 34.7224 50.234C34.7351 50.234 34.7543 50.234 34.767 50.234C34.7862 50.234 34.7989 50.234 34.8181 50.234C34.8245 50.234 34.8372 50.234 34.8436 50.234C34.85 50.234 34.8628 50.234 34.8691 50.234C34.8755 50.234 34.8883 50.234 34.8947 50.234C34.901 50.234 34.9138 50.234 34.9202 50.234C34.9393 50.234 34.9521 50.234 34.9712 50.234C34.9904 50.234 35.0031 50.234 35.0223 50.234C35.0414 50.234 35.0542 50.234 35.0733 50.234C35.0925 50.234 35.1052 50.234 35.1244 50.234C35.1307 50.234 35.1371 50.234 35.1435 50.234C35.1499 50.234 35.1563 50.234 35.169 50.234C35.1754 50.234 35.1818 50.234 35.1945 50.234C35.2009 50.234 35.2073 50.234 35.2137 50.234C35.2392 50.234 35.2647 50.234 35.2839 50.234C35.3094 50.234 35.3285 50.234 35.3541 50.234C35.3796 50.234 35.4051 50.234 35.4242 50.234C35.4434 50.2786 35.4625 50.2786 35.488 50.2786Z" fill="#FBFBFC"/>
<path d="M26.7146 48.7464C26.7657 48.7656 26.8103 48.7911 26.8486 48.823C26.8869 48.8549 26.9124 48.8932 26.938 48.9315C26.9571 48.9697 26.9699 49.0144 26.9762 49.0591C26.9762 49.1037 26.9699 49.1484 26.9571 49.1931C26.9061 49.3334 26.7721 49.4164 26.6253 49.4164L26.5105 49.3909L26.4849 49.3845C26.1213 49.2569 25.7639 49.1165 25.4066 48.9697C25.0493 48.823 24.692 48.6635 24.3475 48.504C23.9965 48.3381 23.652 48.1722 23.3074 47.9871C22.9629 47.8085 22.6247 47.6234 22.2929 47.4257C22.2865 47.4193 22.2802 47.4193 22.2738 47.4129C22.2674 47.4065 22.261 47.4065 22.2546 47.4001C22.2483 47.3937 22.2419 47.3874 22.2355 47.3874C22.2291 47.381 22.2227 47.3746 22.2164 47.3682C22.1079 47.2598 22.0824 47.0811 22.1653 46.9471C22.1845 46.9216 22.2036 46.9024 22.2227 46.8833C22.2483 46.8642 22.2674 46.845 22.2993 46.8323C22.3248 46.8195 22.3567 46.8067 22.3823 46.8004C22.4142 46.794 22.4397 46.7876 22.4716 46.7876C22.4907 46.7876 22.5035 46.7876 22.5226 46.7876C22.5418 46.7876 22.5545 46.794 22.5737 46.8004C22.5928 46.8067 22.6056 46.8131 22.6247 46.8195C22.6439 46.8259 22.6566 46.8323 22.6758 46.845C22.9948 47.0301 23.3202 47.2151 23.652 47.3874C23.9838 47.5596 24.3156 47.7255 24.6537 47.8851C24.9919 48.0446 25.3364 48.1977 25.681 48.3381C26.0128 48.4848 26.3637 48.6252 26.7146 48.7464Z" fill="#FBFBFC"/>
<path d="M55.2672 25.6557C52.4279 17.1951 44.1141 11.459 35.4365 10.4318C35.9087 10.4892 36.3808 10.553 36.8466 10.6359L36.9168 10.6423C37.0699 10.6423 37.2231 10.5466 37.2486 10.3871C37.255 10.3488 37.255 10.3105 37.2422 10.2722C37.2358 10.234 37.2167 10.2021 37.1975 10.1702C37.1784 10.1383 37.1465 10.1127 37.1146 10.0872C37.0827 10.0617 37.0444 10.0425 37.0061 10.0298C38.429 10.285 39.8391 10.6551 41.1981 11.14C41.1662 11.1336 41.1407 11.1272 41.1088 11.1272C41.0769 11.1272 41.0386 11.1336 41.0067 11.14C40.9748 11.1464 40.9429 11.1591 40.9174 11.1783C40.8919 11.1974 40.8664 11.2166 40.8408 11.2421C40.8217 11.2676 40.8026 11.2931 40.7898 11.325C40.777 11.3633 40.7707 11.408 40.7707 11.4463C40.777 11.4845 40.7898 11.5292 40.8089 11.5675C40.8281 11.6058 40.86 11.6377 40.8919 11.6696C40.9238 11.7015 40.9685 11.727 41.0131 11.7398C41.3513 11.861 41.6895 11.9886 42.0212 12.1226C42.353 12.2566 42.6848 12.4033 43.0102 12.5501C43.3356 12.6968 43.661 12.8564 43.9801 13.0223C44.2991 13.1882 44.6181 13.354 44.9308 13.5327L45.1286 13.5837C45.237 13.5837 45.3519 13.5327 45.4157 13.4434C45.4348 13.4115 45.4476 13.3796 45.454 13.3413C45.4603 13.3094 45.4603 13.2711 45.454 13.2392C45.4476 13.2073 45.4348 13.169 45.4157 13.1371C45.3965 13.1052 45.3774 13.0733 45.3455 13.0478C46.5642 13.7433 47.7318 14.5408 48.8165 15.4341C48.7591 15.4086 48.6953 15.3894 48.6379 15.3894C48.6123 15.3894 48.5932 15.3894 48.5677 15.3958C48.5421 15.4022 48.523 15.4022 48.5039 15.415C48.4847 15.4213 48.4656 15.4341 48.4464 15.4405C48.4273 15.4532 48.4082 15.466 48.3954 15.4788C48.3635 15.5107 48.338 15.5489 48.3252 15.5872C48.3124 15.6255 48.3061 15.6702 48.3061 15.7085C48.3124 15.7467 48.3252 15.7914 48.3443 15.8297C48.3635 15.868 48.3954 15.9063 48.4337 15.9318C49.512 16.8251 50.5137 17.8077 51.4134 18.8796C51.4325 18.9051 51.4517 18.9243 51.4772 18.9434C51.5027 18.9625 51.5282 18.9753 51.5538 18.9881C51.5793 19.0008 51.6112 19.0072 51.6367 19.0136C51.6622 19.02 51.6941 19.0263 51.7197 19.0263L51.9174 18.9689C52.0451 18.886 52.0833 18.7265 52.0132 18.5925C52.8873 19.6389 53.6721 20.7618 54.3421 21.9486C54.2655 21.8593 54.1506 21.8019 54.0358 21.8019C54.023 21.8019 54.0103 21.8019 54.0039 21.8019C53.9911 21.8019 53.9784 21.8019 53.972 21.8083C53.9592 21.8083 53.9465 21.8146 53.9401 21.8146C53.9273 21.8146 53.9146 21.821 53.9082 21.8274C53.8635 21.8465 53.8252 21.8721 53.7933 21.8976C53.7614 21.9295 53.7423 21.9614 53.7231 21.9997C53.7104 22.038 53.704 22.0762 53.704 22.1209C53.7104 22.1656 53.7231 22.2038 53.7423 22.2421C53.8954 22.5165 54.0422 22.7909 54.1825 23.0652C54.3229 23.346 54.4505 23.6267 54.5781 23.9075C54.7057 24.1882 54.8206 24.4753 54.9354 24.7624C55.0631 25.0751 55.1715 25.3686 55.2672 25.6557C54.5909 23.6459 55.1715 25.3686 55.2672 25.6557Z" fill="#72182F"/>
<path d="M55.8163 26.2107C55.9694 26.1788 56.097 26.0511 56.0779 25.8853C56.4799 27.1614 56.7479 28.4758 56.8819 29.8029C56.8755 29.7582 56.8627 29.72 56.8372 29.6817C56.818 29.6434 56.7861 29.6115 56.7542 29.5796C56.7223 29.5541 56.6777 29.5285 56.633 29.5094C56.5883 29.4966 56.5437 29.4839 56.4926 29.4839C56.314 29.4839 56.1417 29.6179 56.1608 29.8093L56.1672 29.8922C56.046 28.5523 55.7716 27.2315 55.3633 25.9491C55.4143 26.1086 55.5866 26.2107 55.7461 26.2107H55.8163Z" fill="#A1010D"/>
<path d="M11.4847 25.6171C11.4464 25.6171 11.4018 25.6234 11.3699 25.6362C11.3316 25.649 11.2997 25.6617 11.2678 25.6809C11.2359 25.7 11.2104 25.7255 11.1848 25.7511C11.1657 25.7766 11.1466 25.8085 11.1338 25.8468C11.3571 24.5579 11.7208 23.2945 12.2185 22.0822C12.1802 22.2545 12.3014 22.4077 12.4546 22.4587L12.5949 22.4906C12.7353 22.4906 12.8693 22.414 12.9267 22.28C13.0479 21.9802 13.1819 21.6867 13.3223 21.3931C13.4627 21.0996 13.6094 20.8125 13.7689 20.5318C13.9285 20.2446 14.088 19.9639 14.2602 19.6895C14.4325 19.4152 14.6112 19.1408 14.7962 18.8728C14.9111 18.7197 14.8281 18.5155 14.675 18.4262C14.6112 18.3879 14.5346 18.3688 14.4644 18.3688C14.4389 18.3688 14.4198 18.3688 14.4006 18.3752C14.3815 18.3815 14.356 18.3815 14.3368 18.3879C14.3177 18.3943 14.2985 18.4007 14.2794 18.4134C14.2603 18.4262 14.2411 18.4326 14.2283 18.4517C14.9813 17.3862 15.849 16.4036 16.7997 15.5167C16.7168 15.6507 16.7614 15.8102 16.8763 15.9123C16.9528 15.9697 17.0422 16.008 17.1443 16.008C17.1698 16.008 17.1889 16.008 17.2144 16.0016C17.24 15.9952 17.2591 15.9952 17.2846 15.9825C17.3038 15.9761 17.3293 15.9633 17.3484 15.9569C17.3676 15.9442 17.3867 15.9314 17.3995 15.9186C17.6419 15.6889 17.8908 15.472 18.146 15.2551C18.4012 15.0381 18.6628 14.834 18.9308 14.6298C19.1988 14.4256 19.4732 14.2342 19.7475 14.0428C20.0283 13.8514 20.309 13.6727 20.5961 13.494C20.6408 13.4685 20.6727 13.4366 20.6982 13.4047C20.7237 13.3664 20.7365 13.3281 20.7429 13.2899C20.7493 13.2516 20.7493 13.2069 20.7365 13.1686C20.7237 13.1304 20.7046 13.0857 20.6727 13.0538C20.5961 12.9581 20.4749 12.907 20.36 12.907C20.3473 12.907 20.3409 12.907 20.3281 12.907C20.3154 12.907 20.309 12.907 20.2962 12.907C20.2835 12.907 20.2771 12.9134 20.2643 12.9134C20.2516 12.9134 20.2452 12.9198 20.2324 12.9198C21.4001 12.2116 22.6379 11.6182 23.914 11.1396C23.7736 11.2162 23.7226 11.3885 23.7992 11.5288C23.8183 11.5607 23.8374 11.5863 23.863 11.6118C23.8885 11.6373 23.914 11.6564 23.9459 11.6756C23.9778 11.6947 24.0097 11.7075 24.0416 11.7139C24.0735 11.7203 24.1118 11.7266 24.1501 11.7266L24.2841 11.7075C25.5921 11.2226 26.9511 10.8589 28.323 10.6164C28.4952 10.5909 28.642 10.425 28.5782 10.2463C28.5654 10.2081 28.5463 10.1762 28.5271 10.1443C28.5016 10.1124 28.4761 10.0868 28.4442 10.0613C28.4123 10.0358 28.374 10.023 28.3357 10.0103C28.2974 9.99751 28.2591 9.99113 28.2145 9.99113C28.2081 9.99113 28.2017 9.99113 28.1953 9.99113C28.189 9.99113 28.1826 9.99113 28.1762 9.99113C28.1698 9.99113 28.1634 9.99113 28.1571 9.99113C28.1507 9.99113 28.1443 9.99113 28.1379 9.99113C29.5799 9.74229 31.0411 9.62106 32.5022 9.62744C32.3299 9.63382 32.1959 9.76781 32.2087 9.94008C32.2087 9.98475 32.2278 10.023 32.2534 10.0613C32.2789 10.0996 32.3108 10.1315 32.3491 10.1634C32.3874 10.1953 32.432 10.2144 32.4831 10.2336C32.5277 10.2527 32.5788 10.2591 32.6298 10.2591C25.2412 10.2144 17.7504 13.6599 13.9667 20.2C12.9331 21.9865 12.2121 23.9517 11.8675 25.9871C11.8803 25.8021 11.7272 25.6553 11.5549 25.6171C11.5294 25.6171 11.5039 25.6171 11.4847 25.6171Z" fill="#72182F"/>
<path d="M11.2803 30.2301C11.4717 30.2301 11.644 30.0706 11.6312 29.8792C11.7014 31.2254 11.9183 32.559 12.2757 33.8606C12.2629 33.8223 12.2438 33.784 12.2182 33.7521C12.1927 33.7202 12.1608 33.6947 12.1289 33.6692C12.097 33.6437 12.0587 33.6245 12.0204 33.6118C11.9822 33.599 11.9375 33.5926 11.8992 33.5926C11.8737 33.5926 11.8482 33.5926 11.8226 33.599C11.6504 33.6245 11.5228 33.7713 11.5419 33.9499C11.1846 32.6355 10.9676 31.2829 10.8975 29.9238C10.8975 29.9685 10.9166 30.0131 10.9357 30.0514C10.9549 30.0897 10.9868 30.1216 11.0187 30.1471C11.0506 30.1727 11.0953 30.1982 11.1399 30.2109C11.1782 30.2237 11.2292 30.2301 11.2803 30.2301Z" fill="#A1010D"/>
<path d="M56.5054 34.1863C56.6458 34.1863 56.7861 34.1034 56.8244 33.963C56.6585 35.2582 56.3522 36.528 55.9056 37.7594C55.9311 37.5935 55.8099 37.4404 55.6631 37.3829C55.6504 37.3766 55.6376 37.3766 55.6249 37.3702C55.6121 37.3638 55.5993 37.3638 55.5866 37.3638C55.5738 37.3638 55.5611 37.3574 55.5483 37.3574C55.5355 37.3574 55.5228 37.3574 55.51 37.3574C55.4717 37.3574 55.4398 37.3638 55.4015 37.3702C55.3696 37.3766 55.3377 37.3957 55.3058 37.4085C55.2803 37.4276 55.2548 37.4468 55.2293 37.4723C55.2101 37.4978 55.191 37.5297 55.1782 37.5616C55.0698 37.8679 54.9485 38.1678 54.8209 38.4676C54.6933 38.7675 54.5593 39.061 54.4126 39.3545C54.2658 39.648 54.1127 39.9352 53.9532 40.2223C53.7937 40.5094 53.6214 40.7902 53.4427 41.0645C53.4172 41.1028 53.4044 41.1411 53.3981 41.1857C53.3917 41.2304 53.3981 41.2751 53.4108 41.3134C53.4236 41.358 53.4491 41.3963 53.4746 41.4346C53.5065 41.4729 53.5448 41.5048 53.5895 41.5303L53.7937 41.5877C53.883 41.5877 53.9723 41.5558 54.0361 41.492C53.3215 42.5958 52.4856 43.6231 51.5605 44.5611C51.637 44.4207 51.5732 44.2548 51.4584 44.1591C51.4392 44.1463 51.4201 44.1272 51.401 44.1144C51.3818 44.1017 51.3563 44.0953 51.3371 44.0825C51.3116 44.0761 51.2925 44.0697 51.267 44.0634C51.2414 44.057 51.2223 44.057 51.1968 44.057C51.1712 44.057 51.1521 44.057 51.1266 44.0634C51.1011 44.0697 51.0819 44.0761 51.0564 44.0825C51.0373 44.0889 51.0117 44.1017 50.9926 44.1144C50.9735 44.1272 50.9543 44.1399 50.9352 44.1591C49.9717 45.1225 48.9062 45.9839 47.764 46.7304C47.5918 46.8261 47.579 47.0558 47.7002 47.1962C47.7194 47.2217 47.7449 47.2409 47.764 47.26C47.7896 47.2792 47.8151 47.2919 47.8406 47.3111C47.8661 47.3302 47.898 47.3366 47.9236 47.343C47.9555 47.3493 47.981 47.3557 48.0129 47.3557L48.166 47.3111C46.9856 48.0767 45.7286 48.7275 44.427 49.2507C44.561 49.1614 44.5993 48.9828 44.5291 48.836C44.4589 48.702 44.3122 48.6255 44.1654 48.6255C44.1527 48.6255 44.1399 48.6255 44.1271 48.6255C44.1144 48.6255 44.1016 48.6255 44.0889 48.6318C44.0761 48.6318 44.0633 48.6382 44.0506 48.6382C44.0378 48.6446 44.025 48.6446 44.0123 48.651C43.6805 48.785 43.3487 48.9062 43.0105 49.021C42.6724 49.1359 42.3278 49.2444 41.9833 49.3465C41.6387 49.4485 41.2878 49.5379 40.9369 49.6208C40.5859 49.7038 40.2286 49.7803 39.8713 49.8505C39.6863 49.8824 39.5459 50.0611 39.6097 50.2525C39.6608 50.4375 39.8458 50.5269 40.0245 50.5269C38.5442 50.8076 37.0384 50.948 35.5389 50.9544C35.724 50.9544 35.8899 50.8076 35.8771 50.6098C35.8771 50.5651 35.858 50.5205 35.8388 50.4758C35.8133 50.4375 35.7878 50.3992 35.7495 50.3673C35.7112 50.3354 35.6665 50.3099 35.6219 50.2972C35.5708 50.278 35.5198 50.2716 35.4688 50.2716C42.9212 50.2334 50.4247 46.6411 54.0808 39.9479C55.1208 38.0465 55.8035 35.9537 56.0779 33.8035C56.0715 33.9885 56.231 34.148 56.4097 34.1735L56.5054 34.1863Z" fill="#72182F"/>
<path d="M12.7793 35.4312C15.8675 43.7833 24.2834 49.3343 32.9801 50.1638C32.342 50.1 31.6976 50.0171 31.0659 49.9086C31.0595 49.9086 31.0532 49.9086 31.0468 49.9022C31.0404 49.9022 31.034 49.9022 31.0276 49.9022C31.0213 49.9022 31.0149 49.9022 31.0085 49.9022C31.0021 49.9022 30.9957 49.9022 30.9893 49.9022C30.9447 49.9022 30.9 49.9086 30.8617 49.9214C30.8235 49.9341 30.7852 49.9533 30.7596 49.9788C30.7277 50.0043 30.7022 50.0298 30.6831 50.0681C30.6639 50.1 30.6512 50.1383 30.6448 50.183C30.6129 50.3552 30.7405 50.5147 30.9 50.5722C29.407 50.3106 27.9331 49.915 26.5102 49.3981L26.6251 49.4237C26.7718 49.4237 26.9058 49.3407 26.9569 49.2004C26.976 49.1557 26.9824 49.111 26.976 49.0664C26.976 49.0217 26.9632 48.977 26.9377 48.9387C26.9186 48.9005 26.8867 48.8622 26.8484 48.8303C26.8101 48.7984 26.7654 48.7729 26.7144 48.7537C26.3635 48.6261 26.0125 48.4921 25.668 48.3517C25.3234 48.2114 24.9789 48.0582 24.6407 47.8987C24.3025 47.7392 23.9644 47.5733 23.639 47.401C23.3072 47.2288 22.9818 47.0437 22.6628 46.8587C22.65 46.8459 22.6308 46.8396 22.6117 46.8332C22.5926 46.8268 22.5798 46.8204 22.5607 46.814C22.5415 46.8077 22.5288 46.8076 22.5096 46.8013C22.4905 46.8013 22.4777 46.8013 22.4586 46.8013C22.4267 46.8013 22.4011 46.8077 22.3692 46.814C22.3373 46.8204 22.3118 46.8332 22.2863 46.8459C22.2608 46.8587 22.2353 46.8778 22.2097 46.897C22.1842 46.9161 22.1651 46.9353 22.1523 46.9608C22.063 47.0948 22.0885 47.267 22.2034 47.3819C20.9464 46.6418 19.7532 45.7931 18.643 44.8488C18.7004 44.8807 18.7706 44.8935 18.8344 44.8935C18.86 44.8935 18.8855 44.8935 18.9046 44.8871C18.9301 44.8807 18.9493 44.8743 18.9748 44.868C19.0003 44.8616 19.0195 44.8488 19.0386 44.8361C19.0577 44.8233 19.0769 44.8105 19.096 44.7914C19.2364 44.651 19.2109 44.4341 19.0705 44.3065C17.9731 43.3685 16.9585 42.3285 16.0589 41.1992C16.0398 41.1736 16.0206 41.1545 15.9951 41.1354C15.9696 41.1162 15.944 41.1035 15.9185 41.0907C15.893 41.0779 15.8611 41.0715 15.8356 41.0652C15.8037 41.0588 15.7782 41.0588 15.7462 41.0588C15.7271 41.0588 15.708 41.0588 15.6888 41.0652C15.6697 41.0652 15.6505 41.0715 15.6378 41.0779C15.6186 41.0843 15.5995 41.0907 15.5867 41.0971C15.5676 41.1034 15.5548 41.1098 15.5357 41.1226C15.4017 41.2119 15.3507 41.3778 15.4208 41.5246C14.5467 40.4271 13.781 39.2467 13.1302 38.0025C13.2068 38.0982 13.328 38.162 13.4556 38.162L13.596 38.1365C13.7747 38.0727 13.8704 37.8685 13.7747 37.6962C13.679 37.5112 13.5896 37.3326 13.5003 37.1475C13.411 36.9625 13.328 36.7774 13.2451 36.5924C13.1621 36.4074 13.0856 36.216 13.009 36.0309C12.9197 35.814 12.8495 35.6226 12.7793 35.4312C13.5003 37.39 12.8495 35.6226 12.7793 35.4312Z" fill="#72182F"/>
<path d="M28.8271 1.07087C29.5418 1.01345 30.2564 0.975163 30.971 0.962402C30.2564 0.975163 29.5418 1.01345 28.8271 1.07087Z" fill="url(#paint0_linear)"/>
<path d="M37.2614 1.38321C35.8386 1.16627 34.3966 1.0259 32.9609 0.974854C34.4029 1.03228 35.8386 1.17265 37.2614 1.38321Z" fill="url(#paint1_linear)"/>
<path d="M37.2617 1.38354C37.2809 1.38354 37.3 1.38993 37.3191 1.38993C37.3 1.38993 37.2809 1.38993 37.2617 1.38354Z" fill="url(#paint2_linear)"/>
<path d="M65.9103 25.0427C65.9167 25.0555 65.9167 25.0682 65.9231 25.081C65.9167 25.0682 65.9167 25.0555 65.9103 25.0427C65.4446 25.0874 65.9741 25.2916 65.9103 25.0427Z" fill="url(#paint3_linear)"/>
<path d="M0.841797 25.2661C0.854558 25.1513 0.873701 25.0428 0.892842 24.928H0.88646C0.867319 25.0364 0.854558 25.1513 0.841797 25.2661Z" fill="url(#paint4_linear)"/>
<defs>
<linearGradient id="paint0_linear" x1="29.8993" y1="0.962849" x2="29.8993" y2="1.07004" gradientUnits="userSpaceOnUse">
<stop stop-color="white"/>
<stop offset="1"/>
</linearGradient>
<linearGradient id="paint1_linear" x1="35.111" y1="0.979065" x2="35.111" y2="1.38468" gradientUnits="userSpaceOnUse">
<stop stop-color="white"/>
<stop offset="1"/>
</linearGradient>
<linearGradient id="paint2_linear" x1="37.2923" y1="1.38501" x2="37.2923" y2="1.39375" gradientUnits="userSpaceOnUse">
<stop stop-color="white"/>
<stop offset="1"/>
</linearGradient>
<linearGradient id="paint3_linear" x1="65.8206" y1="25.0414" x2="65.8206" y2="25.164" gradientUnits="userSpaceOnUse">
<stop stop-color="white"/>
<stop offset="1"/>
</linearGradient>
<linearGradient id="paint4_linear" x1="0.867128" y1="24.9229" x2="0.867128" y2="25.2631" gradientUnits="userSpaceOnUse">
<stop stop-color="white"/>
<stop offset="1"/>
</linearGradient>
</defs>
</svg>
