<svg width="44" height="44" viewBox="0 0 44 44" fill="none" xmlns="http://www.w3.org/2000/svg">
<path d="M7.18262 10.7754H35.9171L33.0796 36.3132C32.9823 37.192 32.5643 38.0041 31.9055 38.594C31.2467 39.1838 30.3935 39.5099 29.5093 39.5099H13.5904C12.7062 39.5099 11.853 39.1838 11.1942 38.594C10.5355 38.0041 10.1174 37.192 10.0201 36.3132L7.18262 10.7754Z" stroke="black" stroke-width="3.59181" stroke-linecap="round" stroke-linejoin="round"/>
<path d="M13.1906 5.6517C13.4811 5.03565 13.9408 4.51489 14.516 4.15016C15.0913 3.78544 15.7583 3.59179 16.4394 3.5918H26.6617C27.3431 3.59145 28.0106 3.78494 28.5862 4.14968C29.1617 4.51443 29.6217 5.03537 29.9123 5.6517L32.326 10.7754H10.7751L13.1906 5.6517Z" stroke="black" stroke-width="3.59181" stroke-linecap="round" stroke-linejoin="round"/>
<path d="M3.59009 10.7754H39.5082" stroke="black" stroke-width="3.59181" stroke-linecap="round" stroke-linejoin="round"/>
<path d="M17.9578 19.7549V28.7344" stroke="black" stroke-width="3.59181" stroke-linecap="round" stroke-linejoin="round"/>
<path d="M25.1414 19.7549V28.7344" stroke="black" stroke-width="3.59181" stroke-linecap="round" stroke-linejoin="round"/>
</svg>
