<svg width="95" height="96" viewBox="0 0 95 96" fill="none" xmlns="http://www.w3.org/2000/svg">
<g clip-path="url(#clip0)">
<path d="M44.6611 41.2211C30.6385 35.6819 14.7804 42.5593 9.24059 56.5826C3.70148 70.6052 10.5789 86.4633 24.6022 92.0024C38.6247 97.5415 54.4828 90.6641 60.0219 76.6416C65.5611 62.6183 58.6837 46.7602 44.6611 41.2211Z" fill="#FFC5B2"/>
<path d="M44.6587 41.2236C39.2745 39.0971 33.6203 38.8026 28.3837 40.0381C29.6518 40.3377 30.9148 40.7307 32.1626 41.2236C46.1852 46.7634 53.0618 62.6208 47.5227 76.6434C44.1101 85.2817 36.7811 91.2059 28.3779 93.1884C41.3626 96.2594 54.9719 89.4174 60.0181 76.6434C65.558 62.6208 58.6806 46.7634 44.6587 41.2236Z" fill="#FFA6A0"/>
<path d="M39.3542 49.0297C39.8001 47.902 39.182 46.8395 37.9819 46.668L30.5747 46.757C29.3841 46.9864 28.8051 48.0844 29.2871 49.1961L33.6436 59.2422C34.1263 60.3547 34.8856 60.3424 35.3307 59.2147L39.3542 49.0297Z" fill="#FF8500"/>
<path d="M27.2606 67.5975C28.3723 67.1154 28.36 66.3562 27.2323 65.9103L17.0473 61.8868C15.9196 61.4417 14.8571 62.0591 14.6855 63.2591L14.7746 70.6663C15.004 71.8569 16.102 72.436 17.2144 71.9539L27.2606 67.5975Z" fill="#FF8500"/>
<path d="M28.395 61.7259C29.5226 62.1717 30.051 61.626 29.5682 60.5136L25.2118 50.4674C24.7297 49.3557 23.5326 49.0278 22.5512 49.74L17.4239 55.0866C16.7283 56.0804 17.0822 57.2573 18.2099 57.7024L28.395 61.7259Z" fill="#FF8500"/>
<path d="M46.1528 49.4073C45.1598 48.7117 43.9829 49.0656 43.5371 50.1933L39.5136 60.3784C39.0684 61.506 39.6142 62.0337 40.7259 61.5516L50.772 57.1952C51.8845 56.7124 52.2116 55.5153 51.4994 54.5338L46.1528 49.4073Z" fill="#FF8500"/>
<path d="M35.6147 73.9807C35.1326 72.8682 34.3734 72.8805 33.9283 74.0082L29.9048 84.1932C29.4589 85.3209 30.0763 86.3834 31.277 86.5549L38.6842 86.4659C39.8741 86.2365 40.4539 85.1392 39.9711 84.0268L35.6147 73.9807Z" fill="#FF8500"/>
<path d="M29.7466 72.846C30.1917 71.7184 29.646 71.1907 28.5342 71.6728L18.4881 76.0292C17.3757 76.512 17.0485 77.7091 17.7607 78.6899L23.1073 83.8171C24.1003 84.5127 25.2772 84.1588 25.7231 83.0311L29.7466 72.846Z" fill="#FF8500"/>
<path d="M41.998 65.626C40.8855 66.108 40.8985 66.8673 42.0255 67.3131L52.2113 71.3366C53.3389 71.7818 54.4014 71.1644 54.573 69.9644L54.4839 62.5572C54.2545 61.3665 53.1565 60.7875 52.0441 61.2695L41.998 65.626Z" fill="#FF8500"/>
<path d="M40.8632 71.4951C39.7363 71.05 39.2079 71.595 39.6907 72.7074L44.0471 82.7535C44.5292 83.866 45.7263 84.1932 46.7077 83.481L51.835 78.1344C52.5306 77.1413 52.1766 75.9637 51.049 75.5186L40.8632 71.4951Z" fill="#FF8500"/>
<path d="M43.6982 49.8726C45.6691 52.416 47.1731 55.2851 48.1459 58.3351L50.7718 57.1966C51.8835 56.7138 52.2107 55.5167 51.4992 54.5359L46.1519 49.4087C45.2616 48.7848 44.2244 49.007 43.6982 49.8726Z" fill="#FF6D00"/>
<path d="M52.0441 61.2715L49.1279 62.5359C49.5072 65.0272 49.5427 67.5887 49.2061 70.1516L52.2112 71.3386C53.3382 71.7837 54.4014 71.1663 54.5722 69.9663L54.4839 62.5591C54.2545 61.3685 53.1565 60.7895 52.0441 61.2715Z" fill="#FF6D00"/>
<path d="M46.7068 83.4828L51.8341 78.1362C52.5296 77.1432 52.1757 75.9656 51.048 75.5204L48.2883 74.4297C48.0653 75.1716 47.812 75.9098 47.5225 76.6423C46.6293 78.9027 45.467 80.9749 44.0889 82.8408C44.5948 83.8823 45.7521 84.1762 46.7068 83.4828Z" fill="#FF6D00"/>
<path d="M83.8984 27.8715H83.7399V17.8203H57.5621V28.8877L54.0518 48.5818V88.8155C54.0518 91.8735 56.5307 94.3531 59.5887 94.3531H82.0528C85.1107 94.3531 87.5897 91.8735 87.5897 88.8155V48.5818L83.8984 27.8715Z" fill="#90E7FC"/>
<path d="M83.8986 27.8715H83.7401V17.8203H74.3063L74.3251 27.8715L78.0171 48.5818V84.5886C78.0171 87.6473 75.5374 90.1263 72.4794 90.1263H54.209C54.7981 92.5517 56.9825 94.3531 59.5889 94.3531H82.0529C85.1109 94.3531 87.5899 91.8742 87.5899 88.8155V48.5818L83.8986 27.8715Z" fill="#58D5EA"/>
<path d="M84.5413 19.9119H57.1005C55.3337 19.9119 53.9014 18.4795 53.9014 16.7128C53.9014 14.946 55.3337 13.5137 57.1005 13.5137H84.5413C86.308 13.5137 87.7404 14.946 87.7404 16.7128C87.7404 18.4795 86.308 19.9119 84.5413 19.9119Z" fill="#90E7FC"/>
<path d="M84.5413 30.0018H57.1005C55.3337 30.0018 53.9014 28.5694 53.9014 26.8026C53.9014 25.0359 55.3337 23.6035 57.1005 23.6035H84.5413C86.308 23.6035 87.7404 25.0359 87.7404 26.8026C87.7404 28.5694 86.308 30.0018 84.5413 30.0018Z" fill="#90E7FC"/>
<path d="M84.5412 13.5137H78.8516C80.0386 13.9805 80.8803 15.1357 80.8803 16.4884V16.9364C80.8803 18.2899 80.0393 19.4444 78.8516 19.9119H84.5412C86.308 19.9119 87.7403 18.4795 87.7403 16.7128C87.7403 14.946 86.308 13.5137 84.5412 13.5137Z" fill="#58D5EA"/>
<path d="M84.5412 23.6035H78.8516C80.0386 24.0704 80.8803 25.2255 80.8803 26.5783V27.0263C80.8803 28.3798 80.0393 29.5342 78.8516 30.0018H84.5412C86.308 30.0018 87.7403 28.5694 87.7403 26.8026C87.7403 25.0359 86.308 23.6035 84.5412 23.6035Z" fill="#58D5EA"/>
<path d="M54.0518 48.5802V88.8139C54.0518 91.8719 56.5307 94.3516 59.5887 94.3516H82.0528C85.1107 94.3516 87.5897 91.8719 87.5897 88.8139V48.5802L86.0792 40.1055H55.5623L54.0518 48.5802Z" fill="#FF8500"/>
<path d="M59.5889 94.3516H82.0529C85.1109 94.3516 87.5899 91.8719 87.5899 88.8139V48.5802L86.0793 40.1055H76.5066L78.0171 48.5802V84.587C78.0171 87.645 75.5381 90.1247 72.4794 90.1247H54.209C54.7981 92.5501 56.9825 94.3516 59.5889 94.3516Z" fill="#FF6D00"/>
<path d="M74.3253 57.4693C73.7261 57.4693 73.1738 57.077 72.9972 56.4727L57.2658 2.64055C57.0515 1.90663 57.4728 1.13798 58.2067 0.923012C58.9406 0.708773 59.7093 1.13001 59.9235 1.86393L75.6542 55.696C75.8692 56.43 75.4479 57.1986 74.714 57.4128C74.5845 57.4512 74.4535 57.4693 74.3253 57.4693Z" fill="#FF8500"/>
<path d="M71.1257 40.1055H68.2422L72.9974 56.4731C73.1741 57.0775 73.7263 57.4698 74.3256 57.4698C74.4537 57.4698 74.5847 57.4517 74.7143 57.414C75.4482 57.1991 75.8694 56.4304 75.6545 55.6965L71.1257 40.1055Z" fill="#F63511"/>
<path d="M32.374 59.7929C33.0189 61.2803 34.0524 61.4525 34.4961 61.4525H34.5236C34.9514 61.446 36.0103 61.2629 36.6183 59.7234L40.6418 49.5376C41.0109 48.6039 40.953 47.6037 40.4825 46.7945C40.0121 45.9845 39.1718 45.4388 38.1773 45.297C38.1071 45.2875 38.0354 45.2832 37.9652 45.2832L30.558 45.3722C30.4755 45.3737 30.3937 45.3816 30.3127 45.3976C29.3312 45.5865 28.517 46.1706 28.0798 46.9993C27.6419 47.828 27.6195 48.8297 28.0175 49.7468L32.374 59.7929ZM30.5283 48.2912C30.5624 48.2268 30.6398 48.1733 30.7462 48.1393L37.8661 48.0538C37.9739 48.0806 38.055 48.1277 38.0883 48.1856C38.1295 48.2565 38.1216 48.3817 38.0673 48.5207L34.4614 57.6476L30.5573 48.6452C30.4958 48.5026 30.4849 48.3738 30.5283 48.2912Z" fill="black"/>
<path d="M17.7637 73.2242L27.8105 68.8678C29.329 68.2091 29.4767 67.1444 29.4694 66.7174C29.4629 66.2904 29.2798 65.2315 27.7403 64.6228L17.5545 60.5993C16.6209 60.2309 15.6213 60.2888 14.8114 60.7592C14.0022 61.2297 13.4565 62.0693 13.3146 63.0638C13.3045 63.134 13.3001 63.2049 13.3009 63.2758L13.3899 70.683C13.3906 70.7655 13.3993 70.8473 13.4145 70.9284C13.6041 71.9106 14.1875 72.7241 15.0169 73.162C15.4519 73.3914 15.9354 73.5065 16.4283 73.5065C16.8742 73.5072 17.3287 73.4131 17.7637 73.2242ZM16.1562 70.4956L16.0708 63.3757C16.0976 63.2671 16.1453 63.1868 16.2025 63.1535C16.2734 63.1115 16.3987 63.1195 16.5376 63.1745L25.6652 66.7804L16.6628 70.6838C16.5195 70.746 16.3907 70.7569 16.3089 70.7134C16.2438 70.6794 16.1902 70.602 16.1562 70.4956Z" fill="black"/>
<path d="M17.7006 58.9929L27.8864 63.0165C28.3467 63.1981 28.7455 63.2676 29.0872 63.2676C29.8884 63.2676 30.3719 62.8847 30.5803 62.6698C30.8771 62.3629 31.4966 61.4849 30.838 59.9657L26.4815 49.9196C26.0835 49.0026 25.3372 48.3345 24.4332 48.087C23.5285 47.8402 22.5463 48.0349 21.7371 48.6226C21.6705 48.6711 21.6083 48.7254 21.5518 48.7847L16.4246 54.1313C16.3753 54.1827 16.3297 54.2377 16.2892 54.2956C15.7131 55.1185 15.5379 56.1051 15.8072 57.0018C16.0764 57.8979 16.7669 58.6238 17.7006 58.9929ZM18.5148 55.9523L23.4431 50.8128C23.5408 50.7585 23.632 50.7382 23.7029 50.7577C23.7927 50.7824 23.8795 50.8786 23.9418 51.0212L27.8451 60.0236L18.7182 56.4177C18.5793 56.3634 18.483 56.2838 18.4591 56.2049C18.4396 56.1405 18.4606 56.0493 18.5148 55.9523Z" fill="black"/>
<path d="M42.2497 49.6833L38.2262 59.8684C37.6175 61.4086 38.266 62.2656 38.5729 62.5623C38.7806 62.7635 39.2503 63.1131 40.0031 63.1124C40.362 63.1124 40.7862 63.0328 41.2769 62.8207L51.323 58.4635C52.0244 58.1596 52.3464 57.3446 52.0417 56.6432C51.7377 55.9419 50.9228 55.6198 50.2214 55.9238L41.219 59.8279L44.8242 50.7002C44.8792 50.562 44.9588 50.465 45.0377 50.4411C45.1014 50.4216 45.1926 50.4426 45.2903 50.4969L47.7106 52.818C48.2621 53.3471 49.1386 53.3283 49.6677 52.7768C50.1968 52.2253 50.1787 51.3488 49.6265 50.8197L47.1106 48.4066C47.0592 48.3574 47.0042 48.3125 46.9463 48.272C46.1234 47.6958 45.1368 47.5199 44.2408 47.7899C43.344 48.0592 42.6181 48.7497 42.2497 49.6833Z" fill="black"/>
<path d="M34.7343 71.7717C34.3066 71.7789 33.2477 71.9613 32.6397 73.5015L28.6162 83.6866C28.247 84.6203 28.3057 85.6205 28.7761 86.4305C29.2466 87.2397 30.0862 87.7854 31.0807 87.9272C31.1451 87.9367 31.2102 87.941 31.2761 87.941H31.2927L38.6999 87.852C38.7824 87.8512 38.8642 87.8426 38.9453 87.8274C39.9275 87.6377 40.7417 87.0536 41.1789 86.2249C41.616 85.3962 41.6385 84.3945 41.2404 83.4774L36.884 73.4313C36.2253 71.9121 35.1671 71.7652 34.7343 71.7717ZM38.7296 84.933C38.6956 84.9974 38.6181 85.0509 38.5117 85.0849L31.3919 85.1704C31.284 85.1436 31.203 85.0965 31.1697 85.0386C31.1284 84.9677 31.1364 84.8425 31.1914 84.7035L34.7966 75.5766L38.7006 84.579C38.7622 84.7216 38.773 84.8504 38.7296 84.933Z" fill="black"/>
<path d="M30.6853 70.6618C30.3784 70.3643 29.5004 69.7448 27.9819 70.4034L17.9351 74.7606C17.0181 75.158 16.35 75.9049 16.1025 76.8089C15.8557 77.7122 16.0511 78.6951 16.6388 79.5043C16.6866 79.5709 16.7408 79.6331 16.8009 79.6903L22.1475 84.8176C22.1982 84.8668 22.2532 84.9117 22.3118 84.9522C22.8814 85.351 23.5292 85.558 24.1719 85.558C24.4571 85.558 24.7415 85.5175 25.0173 85.4349C25.9134 85.165 26.6393 84.4745 27.0084 83.5408L31.0319 73.355C31.6406 71.8155 30.9921 70.9586 30.6853 70.6618ZM24.4332 82.5239C24.3789 82.6629 24.2993 82.7591 24.2204 82.783C24.1567 82.8025 24.0655 82.7816 23.9678 82.7273L18.8282 77.799C18.774 77.7013 18.7544 77.6094 18.774 77.5385C18.7978 77.4494 18.8941 77.3626 19.0367 77.3003L28.0391 73.3963L24.4332 82.5239Z" fill="black"/>
<path d="M89.1251 26.8008C89.1251 24.4709 87.3779 22.5435 85.1247 22.2554V21.2559C87.3779 20.9678 89.1251 19.0404 89.1251 16.7105C89.1251 14.183 87.0688 12.1268 84.5414 12.1268H62.9234L59.924 1.86353C59.7098 1.12961 58.9412 0.708368 58.2072 0.923332C57.4733 1.13757 57.0521 1.90623 57.2663 2.64015L60.0384 12.1268H57.1006C54.5731 12.1268 52.5169 14.183 52.5169 16.7105C52.5169 18.9217 54.0911 20.7724 56.1777 21.2008V22.3104C54.0911 22.7382 52.5169 24.5889 52.5169 26.8008C52.5169 28.857 53.8783 30.6013 55.7471 31.1804L53.3123 44.8396C50.9021 42.7681 48.1727 41.1215 45.1668 39.9338C30.4574 34.1233 13.7626 41.3633 7.95134 56.0727C5.13655 63.1984 5.26466 70.9935 8.31324 78.0229C11.3611 85.0516 16.9646 90.4734 24.0903 93.2882C27.5203 94.6432 31.0965 95.3011 34.6423 95.3011C41.1303 95.3011 47.5083 93.0935 52.6696 88.9158C52.7253 92.6853 55.8064 95.7346 59.5889 95.7346H82.0523C85.8688 95.7346 88.9738 92.6296 88.9738 88.8131V48.5794C88.9738 48.4983 88.9666 48.4165 88.9528 48.3369L85.8948 31.1804C87.7636 30.6013 89.1251 28.857 89.1251 26.8008ZM52.6674 70.0273L43.5926 66.4431L52.595 62.539C52.6182 62.5289 52.6428 62.5202 52.6674 62.5115V70.0273ZM52.6891 48.3369C52.6746 48.4165 52.6674 48.4983 52.6674 48.5794V59.7206C52.2773 59.7401 51.8806 59.8306 51.4934 59.9985L41.4473 64.355C39.9288 65.0144 39.7812 66.0783 39.7877 66.5053C39.7949 66.9324 39.9773 67.9913 41.5175 68.6L51.7026 72.6235C52.0203 72.7487 52.3453 72.8232 52.6674 72.8508V74.949C52.3591 74.6472 51.9849 74.4004 51.5571 74.231L41.3713 70.2075C39.8318 69.5995 38.9749 70.2473 38.6774 70.5542C38.3806 70.8611 37.7611 71.739 38.4197 73.2582L42.7762 83.3044C43.1743 84.2221 43.9205 84.8894 44.8245 85.137C45.0814 85.2065 45.3442 85.2412 45.6076 85.2412C46.272 85.2412 46.9408 85.0219 47.5206 84.6014C47.5872 84.5529 47.6494 84.4986 47.7059 84.4392L52.6674 79.2656V85.2202C45.3579 92.3017 34.6061 94.4658 25.1079 90.713C18.6699 88.1703 13.6077 83.2718 10.8537 76.9213C8.09972 70.5708 7.98391 63.5277 10.5266 57.0896C15.7769 43.8003 30.8598 37.2594 44.1499 42.509C47.3903 43.7894 50.276 45.656 52.7376 48.0641L52.6891 48.3369ZM50.7429 77.2723L45.8146 82.4112C45.7169 82.4655 45.625 82.4858 45.5548 82.4662C45.465 82.4416 45.3782 82.3461 45.3159 82.2028L41.4126 73.2003L50.5395 76.8062C50.6784 76.8612 50.7754 76.9409 50.7986 77.0197C50.8181 77.0834 50.7971 77.1746 50.7429 77.2723ZM84.5414 14.8952C85.5424 14.8952 86.3566 15.7095 86.3566 16.7105C86.3566 17.7115 85.5424 18.525 84.5414 18.525H64.7929L63.7326 14.8952H84.5414ZM62.9871 22.217H58.9469V21.2942H62.7179L62.9871 22.217ZM55.286 16.7105C55.286 15.7095 56.1003 14.8952 57.1006 14.8952H60.8476L61.9087 18.525H57.1006C56.1003 18.525 55.286 17.7115 55.286 16.7105ZM55.286 26.8008C55.286 25.7998 56.1003 24.9855 57.1006 24.9855H57.5609H57.5623H57.5645H63.7963L64.8574 28.616H57.1006C56.1003 28.616 55.286 27.8018 55.286 26.8008ZM86.2061 48.7017V88.8131C86.2061 91.1031 84.343 92.9661 82.053 92.9661H59.5889C57.2989 92.9661 55.4359 91.1031 55.4359 88.8131V48.7017L58.5228 31.3845H65.6665L67.8104 38.7207H62.3038C61.5395 38.7207 60.92 39.3403 60.92 40.1046C60.92 40.8689 61.5395 41.4892 62.3038 41.4892H68.6189L72.9977 56.4723C73.1743 57.0766 73.7266 57.4689 74.3259 57.4689C74.454 57.4689 74.585 57.4508 74.7146 57.4125C75.4485 57.1982 75.8697 56.4296 75.6548 55.6956L71.5039 41.4892H84.9206L86.2061 48.7017ZM68.5508 31.3845H83.1191L84.427 38.7207H70.6947L68.5508 31.3845ZM84.5414 28.616H67.7416L66.158 23.1963C66.1573 23.1927 66.1558 23.1898 66.1551 23.1869L65.6021 21.2942H82.3563V22.217H71.1333C70.369 22.217 69.7487 22.8373 69.7487 23.6016C69.7487 24.366 70.369 24.9855 71.1333 24.9855H83.7387H83.7409H83.7423H84.5414C85.5424 24.9855 86.3566 25.7998 86.3566 26.8008C86.3566 27.8018 85.5424 28.616 84.5414 28.616Z" fill="black"/>
</g>
<defs>
<clipPath id="clip0">
<rect width="94.8677" height="94.8677" fill="white" transform="translate(0 0.867188)"/>
</clipPath>
</defs>
</svg>
