<svg width="106" height="100" viewBox="0 0 106 100" fill="none" xmlns="http://www.w3.org/2000/svg">
<path d="M50.0837 0.03C50.1337 0.03 50.1837 0.03 50.2337 0.03C50.2837 0.03 50.3337 0.03 50.3737 0.03C50.4237 0.03 50.4737 0.03 50.5137 0.03C50.5637 0.03 50.6137 0.03 50.6537 0.03C50.6837 0.03 50.7137 0.03 50.7537 0.03C50.7837 0.03 50.8137 0.03 50.8537 0.03C50.8837 0.03 50.9137 0.03 50.9537 0.03C50.9837 0.03 51.0137 0.03 51.0537 0.03C51.0637 0.03 51.0737 0.03 51.0837 0.03C51.0937 0.03 51.1037 0.03 51.1137 0.03C51.1237 0.03 51.1337 0.03 51.1437 0.03C51.1537 0.03 51.1637 0.03 51.1737 0.03C53.6237 0.1 56.0637 0.33 58.4837 0.69C58.3237 4.2 58.2537 7.71 58.2537 11.22L58.2637 11.54C57.6537 11.44 57.0537 11.34 56.4437 11.26C55.8337 11.18 55.2237 11.11 54.6037 11.05C53.9837 10.99 53.3637 10.95 52.7437 10.91C52.1237 10.88 51.4937 10.86 50.8637 10.85C48.4137 10.83 45.9637 11.04 43.5437 11.44L43.4937 11.12C42.9937 7.58 42.4237 4.06 41.7637 0.55C42.3537 0.47 42.9437 0.4 43.5437 0.33C44.1437 0.27 44.7437 0.21 45.3437 0.16C45.9437 0.11 46.5537 0.08 47.1637 0.05C47.7737 0.02 48.3837 0.01 49.0037 0C49.0137 0 49.0237 0 49.0237 0C49.0337 0 49.0337 0 49.0437 0C49.0537 0 49.0637 0 49.0637 0C49.0737 0 49.0737 0 49.0837 0C49.1237 0 49.1537 0 49.1937 0C49.2237 0 49.2637 0 49.2937 0C49.3337 0 49.3637 0 49.4037 0C49.4337 0 49.4737 0 49.5037 0C49.5537 0 49.6037 0 49.6437 0C49.6937 0 49.7437 0 49.7837 0C49.8337 0 49.8837 0 49.9237 0C49.9837 0.03 50.0337 0.03 50.0837 0.03Z" fill="#F3F3F4"/>
<path d="M87.4938 65.1992L87.7838 65.4092C91.1238 67.8992 94.5238 70.3292 97.9438 72.6992C94.9438 77.1292 91.1138 80.9592 86.7638 84.0492C83.8738 81.0692 80.9338 78.1492 77.9338 75.2792L77.6738 75.0292C81.5738 72.4592 84.9538 69.1192 87.4938 65.1992Z" fill="#F3F3F4"/>
<path d="M87.9241 51.4904C87.4641 55.1004 86.2941 58.5104 84.5441 61.5904C82.7741 64.6904 80.4141 67.4504 77.5741 69.7804C74.7241 72.1104 71.3841 73.9904 67.6941 75.2904C63.9841 76.5904 59.9241 77.3204 55.6141 77.3404C55.5741 77.3404 55.5441 77.3404 55.5041 77.3404C55.4641 77.3404 55.4241 77.3404 55.3941 77.3404C55.3541 77.3404 55.3241 77.3404 55.2841 77.3404C55.2441 77.3404 55.2041 77.3404 55.1741 77.3404C55.1141 77.3404 55.0641 77.3404 55.0141 77.3404C54.9641 77.3404 54.9341 77.3404 54.8941 77.3404C54.8541 77.3404 54.8341 77.3404 54.8041 77.3404C54.7741 77.3404 54.7541 77.3404 54.7241 77.3404C54.6641 77.3404 54.6041 77.3404 54.5641 77.3404C54.5141 77.3404 54.4741 77.3404 54.4441 77.3404C54.4041 77.3404 54.3841 77.3404 54.3541 77.3404C54.3242 77.3404 54.3041 77.3404 54.2741 77.3404C54.2141 77.3404 54.1641 77.3404 54.1141 77.3404C54.0641 77.3404 54.0341 77.3404 53.9941 77.3404C53.9641 77.3404 53.9341 77.3404 53.9041 77.3404C53.8741 77.3404 53.8541 77.3404 53.8241 77.3404C53.7641 77.3404 53.7041 77.3304 53.6541 77.3304C53.6041 77.3304 53.5641 77.3304 53.5341 77.3204C53.4941 77.3204 53.4641 77.3204 53.4441 77.3204C53.4141 77.3204 53.3941 77.3204 53.3641 77.3204C53.3041 77.3204 53.2641 77.3104 53.2141 77.3104C53.1741 77.3104 53.1341 77.3104 53.0941 77.3004C53.0541 77.3004 53.0241 77.3004 52.9941 77.2904C52.9641 77.2904 52.9341 77.2904 52.9041 77.2804C52.8541 77.2804 52.8041 77.2704 52.7641 77.2704C52.7241 77.2704 52.6841 77.2604 52.6441 77.2604C52.6041 77.2604 52.5741 77.2504 52.5341 77.2504C52.5041 77.2504 52.4641 77.2504 52.4341 77.2404C48.7041 76.9504 45.0941 76.1504 41.7141 74.9004C38.3341 73.6504 35.1741 71.9604 32.3441 69.9104C29.5141 67.8704 27.0141 65.4704 24.9241 62.8004C22.8441 60.1404 21.1841 57.2104 20.0341 54.0904C20.0241 54.0504 20.0041 54.0204 19.9941 53.9904C19.9841 53.9604 19.9741 53.9304 19.9641 53.9104C19.9541 53.8904 19.9441 53.8704 19.9441 53.8504C19.9341 53.8304 19.9341 53.8104 19.9241 53.7904C19.9141 53.7704 19.9141 53.7504 19.9041 53.7304C19.8941 53.7104 19.8941 53.6904 19.8841 53.6804C19.8741 53.6604 19.8741 53.6404 19.8641 53.6204C19.8541 53.6004 19.8541 53.5804 19.8441 53.5604C19.7841 53.3804 19.7241 53.2104 19.6741 53.0404C19.6241 52.8704 19.5641 52.7104 19.5141 52.5504C19.4641 52.3904 19.4141 52.2304 19.3741 52.0804C19.3241 51.9204 19.2841 51.7704 19.2441 51.6204C19.1041 51.1104 18.9741 50.6004 18.8641 50.0904C18.7541 49.5804 18.6541 49.0604 18.5741 48.5404C18.4941 48.0204 18.4241 47.5004 18.3641 46.9704C18.3041 46.4404 18.2641 45.9204 18.2441 45.3804C18.2441 45.3504 18.2441 45.3204 18.2441 45.2804C18.2441 45.2504 18.2441 45.2204 18.2441 45.1804C18.2441 45.1504 18.2441 45.1104 18.2441 45.0804C18.2441 45.0504 18.2441 45.0204 18.2441 44.9804C18.2441 44.9604 18.2441 44.9404 18.2441 44.9204C18.2441 44.9004 18.2441 44.8804 18.2441 44.8604C18.2441 44.8404 18.2441 44.8204 18.2441 44.8004C18.2441 44.7804 18.2441 44.7604 18.2441 44.7404C18.2441 44.6804 18.2441 44.6304 18.2441 44.5804C18.2441 44.5404 18.2441 44.5004 18.2441 44.4704C18.2441 44.4404 18.2441 44.4104 18.2441 44.3904C18.2441 44.3704 18.2441 44.3504 18.2441 44.3304C18.2441 44.2704 18.2441 44.2204 18.2441 44.1804C18.2441 44.1404 18.2441 44.1004 18.2441 44.0704C18.2441 44.0404 18.2441 44.0104 18.2441 43.9904C18.2441 43.9704 18.2441 43.9504 18.2441 43.9204C18.2441 43.8604 18.2441 43.8204 18.2441 43.7704C18.2441 43.7304 18.2441 43.6904 18.2441 43.6604C18.2441 43.6304 18.2441 43.6004 18.2441 43.5804C18.2441 43.5604 18.2441 43.5304 18.2441 43.5104C18.2441 43.4604 18.2441 43.4104 18.2441 43.3704C18.2441 43.3304 18.2441 43.3004 18.2441 43.2604C18.2441 43.2304 18.2441 43.2004 18.2441 43.1804C18.2441 43.1504 18.2441 43.1304 18.2441 43.1104C18.2441 43.0604 18.2441 43.0204 18.2441 42.9804C18.2441 42.9404 18.2441 42.9104 18.2441 42.8804C18.2441 42.8504 18.2441 42.8204 18.2441 42.8004C18.2441 42.7804 18.2441 42.7504 18.2441 42.7304C18.2441 42.6804 18.2441 42.6404 18.2541 42.6004C18.2541 42.5604 18.2541 42.5304 18.2541 42.5004C18.2541 42.4704 18.2541 42.4404 18.2541 42.4204C18.2541 42.4004 18.2541 42.3704 18.2541 42.3504C18.2541 42.3004 18.2641 42.2504 18.2641 42.2204C18.2641 42.1804 18.2641 42.1504 18.2741 42.1204C18.2741 42.0904 18.2741 42.0604 18.2841 42.0304C18.2841 42.0004 18.2841 41.9804 18.2941 41.9504C18.2941 41.9004 18.3041 41.8604 18.3041 41.8204C18.3041 41.7804 18.3141 41.7504 18.3141 41.7104C18.3141 41.6804 18.3141 41.6504 18.3241 41.6204C18.3241 41.5904 18.3241 41.5604 18.3341 41.5404C18.3541 41.3504 18.3741 41.1504 18.3941 40.9604C18.4141 40.7704 18.4341 40.5804 18.4641 40.3904C18.4841 40.2004 18.5141 40.0204 18.5441 39.8304C18.5741 39.6404 18.6041 39.4604 18.6341 39.2804C19.2441 35.6904 20.5641 32.3404 22.4441 29.3404C24.3141 26.3504 26.7541 23.7004 29.6341 21.5104C32.5041 19.3204 35.8141 17.5804 39.4541 16.4004C43.0741 15.2204 47.0241 14.5804 51.1841 14.6104C51.2241 14.6104 51.2541 14.6104 51.2941 14.6104C51.3341 14.6104 51.3641 14.6104 51.4041 14.6104C51.4441 14.6104 51.4741 14.6104 51.5141 14.6104C51.5541 14.6104 51.5841 14.6104 51.6241 14.6104C51.6441 14.6104 51.6641 14.6104 51.6941 14.6104C51.7141 14.6104 51.7341 14.6104 51.7641 14.6104C51.7841 14.6104 51.8041 14.6104 51.8341 14.6104C51.8541 14.6104 51.8741 14.6104 51.9041 14.6104C51.9641 14.6104 52.0241 14.6104 52.0741 14.6104C52.1241 14.6104 52.1641 14.6104 52.1941 14.6104C52.2341 14.6104 52.2641 14.6104 52.2941 14.6104C52.3241 14.6104 52.3541 14.6104 52.3741 14.6104C52.4341 14.6104 52.4841 14.6104 52.5241 14.6204C52.5641 14.6204 52.6141 14.6204 52.6441 14.6204C52.6841 14.6204 52.7141 14.6204 52.7441 14.6204C52.7741 14.6204 52.8041 14.6204 52.8441 14.6204C52.8841 14.6204 52.9241 14.6204 52.9641 14.6304C53.0042 14.6304 53.0341 14.6304 53.0741 14.6404C53.1041 14.6404 53.1441 14.6404 53.1741 14.6504C53.2041 14.6504 53.2441 14.6504 53.2741 14.6604C53.3141 14.6604 53.3541 14.6604 53.3941 14.6704C53.4341 14.6704 53.4641 14.6704 53.5041 14.6804C53.5441 14.6804 53.5742 14.6804 53.6041 14.6904C53.6341 14.6904 53.6741 14.6904 53.7041 14.7004C53.7341 14.7004 53.7741 14.7004 53.8041 14.7104C53.8341 14.7104 53.8741 14.7104 53.9041 14.7204C53.9341 14.7204 53.9741 14.7204 54.0041 14.7304C54.0341 14.7304 54.0742 14.7304 54.1041 14.7404C54.1441 14.7404 54.1842 14.7504 54.2141 14.7504C54.2542 14.7504 54.2841 14.7604 54.3141 14.7604C54.3441 14.7604 54.3741 14.7704 54.4041 14.7704C54.4341 14.7704 54.4641 14.7704 54.4941 14.7804C54.5441 14.7804 54.5841 14.7904 54.6141 14.7904C54.6541 14.7904 54.6842 14.8004 54.7141 14.8004C54.7441 14.8004 54.7741 14.8104 54.7941 14.8104C54.8241 14.8104 54.8441 14.8204 54.8741 14.8204C54.9341 14.8304 54.9841 14.8304 55.0241 14.8304C55.0641 14.8304 55.1041 14.8404 55.1241 14.8404C55.1541 14.8404 55.1741 14.8504 55.1941 14.8504C55.2141 14.8504 55.2341 14.8504 55.2541 14.8604C55.2741 14.8604 55.2941 14.8604 55.3241 14.8704C55.3441 14.8704 55.3641 14.8704 55.3941 14.8804C55.4141 14.8804 55.4342 14.8804 55.4641 14.8904C55.4841 14.8904 55.5041 14.9004 55.5341 14.9004C59.1741 15.3304 62.6841 16.2504 65.9541 17.5904C69.2241 18.9204 72.2641 20.6704 74.9841 22.7604C77.7041 24.8504 80.1041 27.2804 82.0941 29.9704C84.0841 32.6704 85.6542 35.6304 86.7141 38.7804C86.7341 38.8504 86.7542 38.9104 86.7741 38.9604C86.7941 39.0104 86.8041 39.0504 86.8141 39.0904C86.8241 39.1204 86.8341 39.1504 86.8441 39.1804C86.8541 39.2104 86.8641 39.2304 86.8641 39.2504C87.0241 39.7504 87.1641 40.2504 87.3041 40.7604C87.4341 41.2704 87.5541 41.7804 87.6641 42.2904C87.7741 42.8104 87.8641 43.3304 87.9341 43.8504C88.0141 44.3704 88.0741 44.9004 88.1241 45.4304C88.1241 45.4604 88.1341 45.5004 88.1341 45.5304C88.1341 45.5604 88.1441 45.6004 88.1441 45.6304C88.1441 45.6604 88.1541 45.7004 88.1541 45.7304C88.1541 45.7604 88.1641 45.8004 88.1641 45.8304C88.1641 45.8804 88.1741 45.9204 88.1741 45.9604C88.1741 46.0004 88.1841 46.0304 88.1841 46.0604C88.1841 46.0904 88.1841 46.1204 88.1941 46.1504C88.1941 46.1804 88.1941 46.2104 88.1941 46.2304C88.2141 46.5604 88.2341 46.9004 88.2441 47.2304C88.2542 47.5604 88.2541 47.8904 88.2541 48.2204C88.2541 48.5504 88.2441 48.8704 88.2341 49.2004C88.2241 49.5204 88.2041 49.8504 88.1741 50.1704C88.1741 50.2104 88.1641 50.2404 88.1641 50.2704C88.1641 50.3004 88.1641 50.3304 88.1541 50.3504C88.1541 50.3704 88.1541 50.4004 88.1441 50.4204C88.1441 50.4404 88.1441 50.4604 88.1441 50.4804C88.1341 50.5704 88.1241 50.6604 88.1141 50.7404C88.1041 50.8304 88.0941 50.9204 88.0841 51.0004C88.0741 51.0904 88.0641 51.1804 88.0541 51.2604C87.9441 51.3104 87.9341 51.4004 87.9241 51.4904C87.4641 55.1004 87.9341 51.4004 87.9241 51.4904Z" fill="#EB0F1D"/>
<path d="M103.294 37.7803C99.3039 38.1603 95.2939 38.4603 91.2939 38.7003L90.9339 38.7203C91.0939 39.2603 91.2539 39.8003 91.3939 40.3503C91.5339 40.9003 91.6639 41.4503 91.7739 42.0103C91.8939 42.5703 91.9939 43.1303 92.0739 43.6903C92.1639 44.2503 92.2339 44.8203 92.2839 45.4003C92.4939 47.6403 92.4539 49.9003 92.1939 52.1303L92.5639 52.1503C96.6639 52.4003 100.764 52.7103 104.854 53.1003C104.994 51.4703 105.034 49.8303 104.974 48.1903C105.334 57.7703 102.274 67.2103 96.4439 74.8103C90.8639 82.0703 83.0339 87.3903 74.4239 90.3803C69.2839 92.1703 63.8639 93.1303 58.4339 93.3303C60.8139 93.2403 63.1939 93.0003 65.5439 92.6103C64.8039 88.7503 64.1539 84.8803 63.5639 81.0003L63.5239 80.6603C62.9139 80.7703 62.2939 80.8703 61.6639 80.9603C61.0439 81.0503 60.4139 81.1303 59.7739 81.1903C59.1439 81.2503 58.5039 81.3003 57.8539 81.3403C57.2039 81.3703 56.5539 81.3903 55.8939 81.4003C53.3039 81.4103 50.7239 81.1803 48.1639 80.7503V81.1003C48.1439 84.9903 48.0539 88.8803 47.8639 92.7603C50.2639 93.1103 52.6839 93.3203 55.1039 93.3703C34.8739 92.9603 14.7139 81.7103 5.59388 63.3003C3.05388 58.1603 1.46388 52.5603 1.03388 46.8403C1.19388 48.9803 1.52388 51.1103 2.00388 53.2003C6.17388 52.8003 10.3539 52.4803 14.5339 52.2203L14.9239 52.2003C14.7739 51.6503 14.6439 51.0903 14.5239 50.5303C14.4039 49.9703 14.2939 49.4003 14.2039 48.8303C14.1139 48.2603 14.0339 47.6903 13.9739 47.1103C13.9139 46.5403 13.8739 45.9603 13.8439 45.3803C13.7339 43.1203 13.8839 40.8503 14.2639 38.6203L13.8739 38.6003C9.70389 38.3403 5.53388 38.0203 1.36388 37.6203C1.05388 39.7003 0.903885 41.8103 0.903885 43.9103C0.853885 34.4503 4.12388 25.2103 10.0639 17.8503C15.8039 10.7303 23.7339 5.56031 32.4039 2.74031C37.6039 1.04031 43.0539 0.170313 48.5139 0.0703125C46.2439 0.110312 43.9839 0.300312 41.7339 0.610312C42.3939 4.12031 42.9639 7.65031 43.4639 11.1803L43.5139 11.5003C44.1039 11.4003 44.7039 11.3203 45.3039 11.2403C45.9039 11.1703 46.5139 11.1003 47.1239 11.0503C47.7339 11.0003 48.3539 10.9603 48.9739 10.9403C49.5939 10.9203 50.2139 10.9003 50.8439 10.9103C53.3239 10.9303 55.8039 11.1703 58.2539 11.5903L58.2439 11.2703C58.2439 7.76031 58.3139 4.25031 58.4739 0.740312C56.2139 0.400312 53.9239 0.180312 51.6339 0.0903125C70.6339 0.750313 89.4339 10.9103 98.9739 27.6203C101.634 32.2703 103.504 37.3703 104.394 42.6603C104.134 40.9903 103.764 39.3703 103.294 37.7803C102.554 37.8503 103.414 38.1803 103.294 37.7803ZM75.5139 72.6803C76.0039 72.3703 76.4739 72.0503 76.9339 71.7203C77.3939 71.3903 77.8439 71.0503 78.2739 70.7003C78.7039 70.3503 79.1239 69.9903 79.5339 69.6203C79.9439 69.2503 80.3439 68.8803 80.7239 68.4903C81.1139 68.0903 81.4839 67.6903 81.8439 67.2903C82.2039 66.8903 82.5439 66.4803 82.8739 66.0703C83.2039 65.6603 83.5139 65.2503 83.8239 64.8303C84.1239 64.4103 84.4139 63.9903 84.6939 63.5603C85.0039 63.0903 85.2939 62.6103 85.5639 62.1403C85.8339 61.6703 86.0939 61.1903 86.3339 60.7103C86.5739 60.2303 86.7939 59.7503 87.0039 59.2603C87.2139 58.7803 87.4039 58.2903 87.5839 57.7903C87.7639 57.2903 87.9239 56.7903 88.0739 56.2903C88.2239 55.7903 88.3639 55.2903 88.4839 54.7903C88.6039 54.2903 88.7139 53.7903 88.8039 53.2803C88.8939 52.7703 88.9739 52.2703 89.0439 51.7503C89.1039 51.2603 89.1639 50.7703 89.1939 50.2803C89.2339 49.7903 89.2539 49.3003 89.2639 48.8203C89.2739 48.3303 89.2739 47.8503 89.2639 47.3603C89.2539 46.8703 89.2239 46.3903 89.1839 45.9003C89.1839 45.8503 89.1739 45.8003 89.1739 45.7603C89.1739 45.7203 89.1639 45.6903 89.1639 45.6603C89.1639 45.6303 89.1639 45.6003 89.1539 45.5803C89.1539 45.5603 89.1539 45.5303 89.1439 45.5103C89.0839 44.9103 89.0139 44.3403 88.9339 43.7803C88.8539 43.2203 88.7539 42.6803 88.6439 42.1503C88.5339 41.6203 88.4139 41.1003 88.2839 40.6003C88.1539 40.0903 88.0139 39.5903 87.8539 39.1003C87.6839 38.5703 87.5039 38.0403 87.3139 37.5203C87.1239 37.0003 86.9139 36.4903 86.7039 35.9903C86.4839 35.4903 86.2539 34.9903 86.0139 34.5003C85.7739 34.0103 85.5139 33.5303 85.2439 33.0503C84.9639 32.5603 84.6839 32.0903 84.3939 31.6203C84.1039 31.1603 83.8039 30.7003 83.4939 30.2603C83.1839 29.8203 82.8639 29.3803 82.5439 28.9503C82.2139 28.5203 81.8839 28.1003 81.5339 27.6903C81.1539 27.2403 80.7739 26.8003 80.3839 26.3703C79.9939 25.9403 79.5939 25.5303 79.1839 25.1203C78.7739 24.7103 78.3639 24.3203 77.9339 23.9403C77.5139 23.5603 77.0739 23.1803 76.6339 22.8203C76.1839 22.4503 75.7239 22.1003 75.2739 21.7603C74.8139 21.4203 74.3639 21.0903 73.8939 20.7803C73.4339 20.4603 72.9639 20.1603 72.4939 19.8603C72.0239 19.5703 71.5439 19.2803 71.0639 19.0103C70.5339 18.7003 69.9939 18.4103 69.4639 18.1403C68.9339 17.8603 68.3939 17.6003 67.8639 17.3603C67.3239 17.1103 66.7939 16.8803 66.2439 16.6603C65.7039 16.4403 65.1539 16.2303 64.6039 16.0403C64.0539 15.8503 63.5039 15.6603 62.9539 15.4903C62.4039 15.3203 61.8539 15.1603 61.3039 15.0103C60.7539 14.8603 60.1939 14.7303 59.6339 14.6003C59.0739 14.4803 58.5139 14.3603 57.9539 14.2603C55.6739 13.8503 53.3639 13.6403 51.0539 13.6303C50.4339 13.6303 49.8139 13.6403 49.2139 13.6603C48.6139 13.6803 48.0239 13.7203 47.4439 13.7703C46.8639 13.8203 46.2939 13.8803 45.7339 13.9503C45.1739 14.0203 44.6139 14.1103 44.0639 14.2003C43.9839 14.2203 43.9139 14.2303 43.8539 14.2403C43.7939 14.2503 43.7539 14.2603 43.7139 14.2703C43.6739 14.2803 43.6439 14.2803 43.6139 14.2903C43.5839 14.2903 43.5639 14.3003 43.5439 14.3003C43.0139 14.4003 42.4939 14.5103 41.9839 14.6303C41.4739 14.7503 40.9639 14.8803 40.4639 15.0103C39.9639 15.1403 39.4639 15.3003 38.9839 15.4503C38.4939 15.6103 38.0139 15.7803 37.5339 15.9503C37.0039 16.1503 36.4839 16.3603 35.9739 16.5803C35.4639 16.8003 34.9739 17.0203 34.4839 17.2603C33.9939 17.5003 33.5239 17.7403 33.0539 17.9903C32.5839 18.2403 32.1239 18.5103 31.6739 18.7803C31.1739 19.0803 30.6939 19.3903 30.2239 19.7003C29.7539 20.0103 29.3039 20.3403 28.8639 20.6703C28.4239 21.0003 27.9939 21.3403 27.5839 21.6903C27.1639 22.0403 26.7639 22.3903 26.3739 22.7603C25.9839 23.1403 25.6039 23.5103 25.2339 23.8903C24.8639 24.2703 24.5139 24.6603 24.1739 25.0503C23.8339 25.4403 23.5039 25.8303 23.1839 26.2403C22.8639 26.6403 22.5639 27.0503 22.2639 27.4603C21.9339 27.9203 21.6339 28.3703 21.3339 28.8403C21.0439 29.3003 20.7639 29.7603 20.5039 30.2303C20.2439 30.7003 20.0039 31.1703 19.7739 31.6403C19.5439 32.1103 19.3339 32.5903 19.1339 33.0703C18.9339 33.5603 18.7539 34.0503 18.5739 34.5403C18.4039 35.0303 18.2439 35.5303 18.1039 36.0203C17.9639 36.5203 17.8339 37.0203 17.7139 37.5203C17.5939 38.0203 17.4939 38.5303 17.4039 39.0503C17.3239 39.5103 17.2539 39.9603 17.2039 40.4203C17.1439 40.8803 17.1039 41.3303 17.0739 41.7903C17.0439 42.2503 17.0139 42.7003 17.0039 43.1603C16.9939 43.6203 16.9939 44.0703 17.0039 44.5303C17.0039 44.5603 17.0039 44.5903 17.0039 44.6203C17.0039 44.6503 17.0039 44.6803 17.0039 44.7103C17.0039 44.7403 17.0039 44.7703 17.0039 44.8003C17.0039 44.8303 17.0039 44.8603 17.0039 44.8903C17.0139 45.0503 17.0139 45.2103 17.0239 45.3703C17.0539 45.9303 17.0939 46.4703 17.1539 47.0203C17.2139 47.5603 17.2839 48.1003 17.3639 48.6303C17.4439 49.1603 17.5439 49.6903 17.6639 50.2103C17.7739 50.7303 17.9039 51.2503 18.0439 51.7603C18.1939 52.3003 18.3539 52.8403 18.5239 53.3703C18.6939 53.9003 18.8839 54.4303 19.0939 54.9503C19.2939 55.4703 19.5139 55.9803 19.7439 56.4903C19.9739 57.0003 20.2139 57.5003 20.4739 58.0003C20.7439 58.5003 21.0139 59.0003 21.2939 59.4803C21.5739 59.9603 21.8739 60.4403 22.1739 60.9003C22.4739 61.3703 22.7939 61.8203 23.1139 62.2703C23.4339 62.7203 23.7739 63.1603 24.1139 63.6003C24.4939 64.0803 24.8739 64.5403 25.2639 65.0003C25.6539 65.4503 26.0639 65.8903 26.4739 66.3203C26.8839 66.7503 27.3039 67.1603 27.7339 67.5703C28.1639 67.9703 28.6039 68.3703 29.0439 68.7503C29.5039 69.1403 29.9639 69.5103 30.4339 69.8703C30.9039 70.2303 31.3739 70.5803 31.8439 70.9103C32.3139 71.2503 32.7939 71.5703 33.2839 71.8803C33.7639 72.1903 34.2539 72.5003 34.7539 72.7903C36.8839 74.0503 39.1239 75.1103 41.4439 75.9503C42.0039 76.1503 42.5739 76.3403 43.1439 76.5203C43.7139 76.7003 44.2839 76.8703 44.8639 77.0203C45.4439 77.1703 46.0239 77.3203 46.6039 77.4503C47.1839 77.5803 47.7739 77.7003 48.3639 77.8003C50.7439 78.2103 53.1539 78.4303 55.5639 78.4203C57.9639 78.4003 60.3639 78.1903 62.7239 77.7503C63.3239 77.6403 63.9139 77.5103 64.4939 77.3803C65.0739 77.2403 65.6439 77.0903 66.2139 76.9303C66.7839 76.7703 67.3339 76.5903 67.8839 76.4003C68.4339 76.2103 68.9739 76.0103 69.5039 75.8003C70.0539 75.5803 70.5839 75.3503 71.1039 75.1103C71.6239 74.8703 72.1339 74.6203 72.6239 74.3603C73.1239 74.1003 73.6039 73.8403 74.0739 73.5603C74.6039 73.2603 75.0639 72.9803 75.5139 72.6803ZM32.8439 75.4803L33.0839 75.2203C28.7339 72.6603 24.8139 69.3303 21.6439 65.3803L21.3739 65.6003C18.3039 68.1503 15.1839 70.6403 12.0139 73.0503C15.7539 77.5003 20.2139 81.3303 25.1439 84.4203C27.6339 81.3803 30.2139 78.4103 32.8439 75.4803ZM9.52388 18.5503C12.8339 20.8303 16.0939 23.1903 19.3139 25.6003L19.5939 25.8103C22.2739 22.0803 25.7439 18.9403 29.6639 16.5503L29.4039 16.3103C26.5739 13.6203 23.7839 10.8803 21.0739 8.07031C16.6739 10.8703 12.7339 14.4203 9.52388 18.5503ZM84.1739 25.8503C86.9739 23.5003 89.8339 21.2103 92.7339 18.9703C89.0439 14.8503 84.7139 11.3103 79.9839 8.47031C77.7039 11.2203 75.3539 13.9103 72.9439 16.5503L72.7339 16.7803C76.9539 19.2003 80.7739 22.3403 83.9239 26.0503L84.1739 25.8503ZM97.9539 72.7003C94.5239 70.3303 91.1339 67.9003 87.7939 65.4103L87.5039 65.2003C84.9639 69.1203 81.5839 72.4603 77.6839 75.0203L77.9439 75.2703C80.9439 78.1403 83.8939 81.0603 86.7739 84.0403C91.1239 80.9603 94.9539 77.1303 97.9539 72.7003Z" fill="#EB0F1D"/>
<path d="M79.9844 8.46094C84.7244 11.3109 89.0444 14.8509 92.7344 18.9609C89.8344 21.2009 86.9744 23.4809 84.1744 25.8409L83.9244 26.0409C80.7744 22.3209 76.9544 19.1909 72.7344 16.7709L72.9444 16.5409C75.3444 13.9009 77.7044 11.2109 79.9844 8.46094C81.1844 9.18094 79.5644 8.97094 79.9844 8.46094Z" fill="#F3F3F4"/>
<path d="M21.0842 8.06055C23.7942 10.8705 26.5842 13.6105 29.4142 16.3005L29.6742 16.5405C25.7542 18.9305 22.2842 22.0605 19.6042 25.8005L19.3242 25.5905C16.1042 23.1805 12.8442 20.8305 9.53418 18.5405C12.7342 14.4205 16.6742 10.8705 21.0842 8.06055C21.5842 8.58055 19.9642 8.78055 21.0842 8.06055Z" fill="#F3F3F4"/>
<path d="M103.294 37.7793C103.424 38.2393 103.554 38.6893 103.674 39.1593C103.794 39.6193 103.904 40.0793 104.004 40.5493C104.104 41.0193 104.204 41.4793 104.294 41.9493C104.384 42.4193 104.464 42.8893 104.534 43.3693C104.534 43.3793 104.534 43.3893 104.534 43.3993C104.534 43.4093 104.534 43.4193 104.534 43.4293C104.534 43.4393 104.534 43.4493 104.534 43.4593C104.534 43.4693 104.534 43.4793 104.534 43.4893C104.534 43.5193 104.544 43.5393 104.544 43.5693C104.544 43.5993 104.554 43.6193 104.554 43.6493C104.554 43.6793 104.564 43.6993 104.564 43.7293C104.564 43.7593 104.574 43.7793 104.574 43.8093C104.574 43.8293 104.584 43.8493 104.584 43.8793C104.584 43.8993 104.594 43.9193 104.594 43.9493C104.594 43.9693 104.604 43.9893 104.604 44.0193C104.604 44.0393 104.614 44.0593 104.614 44.0893C104.614 44.1093 104.614 44.1293 104.624 44.1493C104.624 44.1693 104.634 44.1893 104.634 44.2093C104.634 44.2293 104.634 44.2493 104.644 44.2693C104.644 44.2893 104.654 44.3093 104.654 44.3293C104.654 44.3593 104.664 44.3893 104.664 44.4193C104.664 44.4493 104.674 44.4793 104.674 44.5093C104.674 44.5393 104.684 44.5693 104.684 44.5993C104.684 44.6293 104.694 44.6593 104.694 44.6893C104.694 44.7093 104.694 44.7193 104.694 44.7293C104.694 44.7393 104.694 44.7593 104.704 44.7693C104.704 44.7893 104.704 44.7993 104.704 44.8093C104.704 44.8193 104.704 44.8393 104.704 44.8493C104.714 44.8993 104.714 44.9393 104.724 44.9893C104.724 45.0393 104.734 45.0793 104.734 45.1293C104.744 45.1793 104.744 45.2193 104.754 45.2693C104.754 45.3193 104.764 45.3593 104.764 45.4093C104.764 45.4593 104.774 45.4993 104.774 45.5493C104.774 45.5993 104.784 45.6393 104.784 45.6893C104.784 45.7393 104.794 45.7793 104.794 45.8293C104.794 45.8793 104.804 45.9193 104.804 45.9693C104.804 45.9793 104.804 45.9993 104.804 46.0093C104.804 46.0193 104.804 46.0393 104.804 46.0493C104.804 46.0693 104.804 46.0793 104.804 46.0893C104.804 46.0993 104.804 46.1193 104.804 46.1293C104.804 46.1593 104.804 46.1893 104.814 46.2193C104.814 46.2493 104.814 46.2793 104.824 46.3093C104.824 46.3393 104.824 46.3693 104.834 46.3993C104.834 46.4293 104.834 46.4593 104.844 46.4893C104.844 46.5093 104.844 46.5293 104.844 46.5493C104.844 46.5693 104.844 46.5893 104.844 46.6093C104.844 46.6293 104.844 46.6493 104.844 46.6693C104.844 46.6893 104.844 46.7093 104.844 46.7293C104.844 46.7493 104.844 46.7693 104.844 46.7993C104.844 46.8193 104.844 46.8393 104.844 46.8693C104.844 46.8893 104.844 46.9093 104.844 46.9393C104.844 46.9593 104.844 46.9793 104.844 47.0093C104.844 47.0393 104.844 47.0593 104.854 47.0893C104.854 47.1193 104.854 47.1393 104.854 47.1693C104.854 47.1993 104.854 47.2193 104.854 47.2493C104.854 47.2793 104.854 47.2993 104.854 47.3293C104.854 47.3393 104.854 47.3493 104.854 47.3593C104.854 47.3693 104.854 47.3793 104.854 47.3893C104.854 47.3993 104.854 47.4093 104.854 47.4193C104.854 47.4293 104.854 47.4393 104.854 47.4493C104.954 49.3293 104.934 51.2193 104.774 53.0993C100.684 52.7093 96.5837 52.3993 92.4837 52.1493L92.1138 52.1293C92.1738 51.5793 92.2237 51.0293 92.2637 50.4793C92.3037 49.9293 92.3238 49.3693 92.3338 48.8093C92.3438 48.2493 92.3338 47.6793 92.3138 47.1193C92.2938 46.5493 92.2538 45.9793 92.2038 45.4093C91.9838 43.1393 91.5138 40.9093 90.8438 38.7393L91.2038 38.7193C95.3038 38.4593 99.3037 38.1593 103.294 37.7793C103.434 38.2293 102.554 37.8493 103.294 37.7793Z" fill="#F3F3F4"/>
<path d="M1.38381 37.5898C5.54381 37.9898 9.71381 38.3098 13.8938 38.5698L14.2838 38.5898C14.1938 39.1298 14.1138 39.6798 14.0438 40.2398C13.9738 40.7898 13.9238 41.3498 13.8938 41.9198C13.8538 42.4798 13.8338 43.0498 13.8338 43.6198C13.8338 44.1898 13.8438 44.7698 13.8638 45.3498C13.9738 47.6498 14.3438 49.9398 14.9438 52.1698L14.5538 52.1898C10.3738 52.4498 6.19381 52.7698 2.02381 53.1698C1.89381 52.6098 1.78381 52.0498 1.67381 51.4898C1.56381 50.9298 1.47381 50.3598 1.39381 49.7998C1.31381 49.2298 1.23381 48.6598 1.17381 48.0898C1.11381 47.5198 1.06381 46.9398 1.02381 46.3698C1.02381 46.3598 1.02381 46.3498 1.02381 46.3398C1.02381 46.3298 1.02381 46.3198 1.02381 46.3098C1.02381 46.2998 1.02381 46.2898 1.02381 46.2798C1.02381 46.2698 1.02381 46.2598 1.02381 46.2498C1.02381 46.2198 1.02381 46.1898 1.01381 46.1598C1.01381 46.1298 1.01381 46.0998 1.00381 46.0698C1.00381 46.0398 1.00381 46.0098 0.99381 45.9798C0.99381 45.9498 0.99381 45.9198 0.99381 45.8898C0.99381 45.8498 0.993808 45.7998 0.983808 45.7598C0.983808 45.7198 0.983813 45.6698 0.973813 45.6298C0.973813 45.5898 0.973811 45.5398 0.963811 45.4898C0.963811 45.4498 0.963809 45.3998 0.953809 45.3598C0.953809 45.3198 0.953809 45.2698 0.953809 45.2298C0.953809 45.1898 0.953809 45.1398 0.953809 45.0998C0.953809 45.0598 0.953809 45.0098 0.953809 44.9698C0.953809 44.9298 0.953809 44.8798 0.953809 44.8398C0.953809 44.8098 0.953809 44.7798 0.953809 44.7498C0.953809 44.7198 0.953809 44.6898 0.953809 44.6598C0.953809 44.6298 0.953809 44.5998 0.953809 44.5698C0.953809 44.5398 0.953809 44.5098 0.953809 44.4798C0.953809 44.4698 0.953809 44.4598 0.953809 44.4498C0.953809 44.4398 0.953809 44.4298 0.953809 44.4198C0.953809 44.4098 0.953809 44.3998 0.953809 44.3898C0.953809 44.3798 0.953809 44.3698 0.953809 44.3598C0.893809 42.0698 1.05381 39.8198 1.38381 37.5898C2.16381 37.6698 1.30381 38.1398 1.38381 37.5898Z" fill="#F3F3F4"/>
<path d="M21.6437 65.3906C24.8037 69.3406 28.7237 72.6606 33.0837 75.2306L32.8437 75.4906C30.2137 78.4106 27.6337 81.3906 25.1437 84.4306C20.2237 81.3406 15.7537 77.5206 12.0137 73.0606C15.1837 70.6406 18.3037 68.1606 21.3737 65.6106L21.6437 65.3906Z" fill="#F3F3F4"/>
<path d="M63.5238 80.6504L63.5638 81.0004C64.1438 84.8804 64.7938 88.7604 65.5438 92.6104C64.9238 92.7104 64.3038 92.8004 63.6838 92.8804C63.0538 92.9604 62.4238 93.0304 61.7938 93.1004C61.1638 93.1604 60.5238 93.2104 59.8738 93.2504C59.2338 93.2904 58.5838 93.3204 57.9338 93.3404C57.9138 93.3404 57.9038 93.3404 57.8838 93.3404C57.8638 93.3404 57.8538 93.3404 57.8338 93.3404C57.8138 93.3404 57.8038 93.3404 57.7838 93.3404C57.7638 93.3404 57.7538 93.3404 57.7338 93.3404C57.7038 93.3404 57.6738 93.3404 57.6438 93.3404C57.6138 93.3404 57.5838 93.3404 57.5538 93.3404C57.5238 93.3404 57.4938 93.3404 57.4638 93.3404C57.4338 93.3404 57.4038 93.3404 57.3738 93.3404C57.3238 93.3404 57.2738 93.3404 57.2238 93.3404C57.1738 93.3404 57.1238 93.3404 57.0738 93.3404C57.0238 93.3404 56.9738 93.3404 56.9238 93.3404C56.8738 93.3404 56.8238 93.3404 56.7738 93.3404C56.7238 93.3404 56.6738 93.3404 56.6238 93.3404C56.5738 93.3404 56.5238 93.3404 56.4738 93.3404C56.4238 93.3404 56.3738 93.3404 56.3238 93.3404C56.2738 93.3404 56.2238 93.3404 56.1738 93.3404C56.1438 93.3404 56.1038 93.3404 56.0738 93.3404C56.0438 93.3404 56.0038 93.3404 55.9738 93.3404C55.9438 93.3404 55.9038 93.3404 55.8738 93.3404C55.8438 93.3404 55.8038 93.3404 55.7738 93.3404C55.7638 93.3404 55.7438 93.3404 55.7338 93.3404C55.7238 93.3404 55.7038 93.3404 55.6938 93.3404C55.6838 93.3404 55.6638 93.3404 55.6538 93.3404C55.6438 93.3404 55.6238 93.3404 55.6138 93.3404C53.0238 93.3104 50.4438 93.0904 47.8838 92.7204C48.0738 88.8404 48.1738 84.9504 48.1838 81.0604V80.7104C48.8138 80.8204 49.4438 80.9104 50.0838 80.9904C50.7238 81.0704 51.3638 81.1404 52.0038 81.2004C52.6438 81.2604 53.2938 81.3004 53.9438 81.3204C54.5938 81.3504 55.2438 81.3604 55.9038 81.3604C58.4638 81.3604 61.0138 81.1004 63.5238 80.6504Z" fill="#F3F3F4"/>
<path d="M102.054 65.0293C101.284 66.9193 100.524 68.8193 99.7545 70.7093C98.1145 74.7493 95.9145 78.5093 93.1345 81.8693C90.4045 85.1793 87.1345 88.1193 83.4445 90.5893C79.7345 93.0693 75.5745 95.0793 71.0745 96.5093C66.5645 97.9493 61.7045 98.8093 56.6045 98.9993C56.8845 98.1093 57.1745 97.2293 57.4545 96.3393C57.6645 95.6993 57.8645 95.0593 58.0745 94.4193C58.1545 94.1693 58.2245 93.5293 58.4145 93.3493C58.5845 93.1893 59.2645 93.2793 59.5345 93.2693C60.2645 93.2293 60.9945 93.1793 61.7245 93.1093C63.0345 92.9893 64.3445 92.8193 65.6445 92.5993C68.1745 92.1793 70.6645 91.5893 73.1145 90.8093C77.6745 89.3593 81.8845 87.3393 85.6545 84.8293C89.4045 82.3293 92.7045 79.3693 95.4745 76.0193C98.2245 72.6993 100.454 68.9993 102.054 65.0293Z" fill="#A01D34"/>
<path d="M55.1138 93.3503C54.7638 94.4803 54.4038 95.6103 54.0538 96.7503C53.8638 97.3603 53.7438 98.1103 53.4538 98.6803C53.4137 98.7603 53.4137 98.9703 53.3438 99.0303C53.0737 99.2503 51.6638 98.9803 51.3338 98.9603C45.2238 98.6303 39.1738 97.3203 33.4738 95.1003C27.2938 92.7003 21.6537 89.2803 16.8438 85.1003C12.0437 80.9303 8.07376 76.0003 5.19376 70.5603C2.32376 65.1503 0.54375 59.2403 0.09375 53.0703C0.41375 50.9903 0.733757 48.9003 1.05376 46.8203C1.51376 53.0003 3.33375 59.0403 6.24375 64.5103C9.17375 70.0103 13.2038 75.0003 18.0738 79.2203C22.9638 83.4603 28.6838 86.9203 34.9538 89.3503C41.2238 91.7903 48.0438 93.2003 55.1138 93.3503Z" fill="#A01D34"/>
<path d="M65.5446 92.5996C65.1746 93.6996 64.8046 94.7996 64.4246 95.8896C64.2046 96.5296 64.0446 97.2296 63.7646 97.8396C63.7146 97.9496 63.7146 98.1596 63.6246 98.2496C63.3546 98.5296 62.1746 98.4996 61.7746 98.5496C61.1546 98.6296 60.5346 98.6996 59.9146 98.7596C59.2946 98.8196 58.6646 98.8696 58.0246 98.9096C57.3946 98.9496 56.7546 98.9796 56.1146 98.9996C56.0946 98.9996 56.0846 98.9996 56.0646 98.9996C56.0446 98.9996 56.0346 98.9996 56.0146 98.9996C55.9946 98.9996 55.9846 98.9996 55.9646 98.9996C55.9446 98.9996 55.9346 98.9996 55.9146 98.9996C55.8846 98.9996 55.8546 98.9996 55.8246 98.9996C55.7946 98.9996 55.7646 98.9996 55.7346 98.9996C55.7046 98.9996 55.6746 98.9996 55.6446 98.9996C55.6146 98.9996 55.5846 98.9996 55.5546 98.9996C55.5046 98.9996 55.4546 98.9996 55.4046 98.9996C55.3546 98.9996 55.3046 98.9996 55.2546 98.9996C55.2046 98.9996 55.1546 98.9996 55.1046 98.9996C55.0546 98.9996 55.0046 98.9996 54.9546 98.9996C54.9046 98.9996 54.8546 98.9996 54.8046 98.9996C54.7546 98.9996 54.7046 98.9996 54.6546 98.9996C54.6046 98.9996 54.5546 98.9996 54.5046 98.9996C54.4546 98.9996 54.4046 98.9996 54.3546 98.9996C54.3246 98.9996 54.2846 98.9996 54.2546 98.9996C54.2246 98.9996 54.1846 98.9996 54.1546 98.9996C54.1246 98.9996 54.0846 98.9996 54.0546 98.9996C54.0246 98.9996 53.9846 98.9996 53.9546 98.9996C53.9446 98.9996 53.9346 98.9996 53.9146 98.9996C53.9046 98.9996 53.8946 98.9996 53.8746 98.9996C53.8646 98.9996 53.8546 98.9996 53.8346 98.9996C53.8246 98.9996 53.8146 98.9996 53.7946 98.9996C53.1546 98.9896 52.5146 98.9696 51.8746 98.9396C51.2346 98.9096 50.5946 98.8696 49.9646 98.8196C49.3246 98.7696 48.6946 98.7096 48.0646 98.6396C47.4346 98.5696 46.8046 98.4896 46.1846 98.3996C46.5046 97.2996 46.8346 96.1896 47.1546 95.0896C47.3446 94.4496 47.5346 93.7996 47.7146 93.1596C47.7446 93.0696 47.7746 92.7896 47.8346 92.7296C48.0546 92.5396 49.4246 92.9096 49.7546 92.9396C50.3946 93.0096 51.0346 93.0796 51.6846 93.1296C52.3246 93.1796 52.9746 93.2196 53.6246 93.2496C54.2746 93.2796 54.9246 93.2996 55.5746 93.3096C55.5846 93.3096 55.5946 93.3096 55.6146 93.3096C55.6246 93.3096 55.6346 93.3096 55.6546 93.3096C55.6646 93.3096 55.6746 93.3096 55.6946 93.3096C55.7046 93.3096 55.7146 93.3096 55.7346 93.3096C55.7646 93.3096 55.8046 93.3096 55.8346 93.3096C55.8646 93.3096 55.9046 93.3096 55.9346 93.3096C55.9646 93.3096 56.0046 93.3096 56.0346 93.3096C56.0646 93.3096 56.1046 93.3096 56.1346 93.3096C56.1846 93.3096 56.2346 93.3096 56.2846 93.3096C56.3346 93.3096 56.3846 93.3096 56.4346 93.3096C56.4846 93.3096 56.5346 93.3096 56.5846 93.3096C56.6346 93.3096 56.6846 93.3096 56.7346 93.3096C56.7846 93.3096 56.8346 93.3096 56.8846 93.3096C56.9346 93.3096 56.9846 93.3096 57.0346 93.3096C57.0846 93.3096 57.1346 93.3096 57.1846 93.3096C57.2346 93.3096 57.2846 93.3096 57.3346 93.3096C57.3646 93.3096 57.3946 93.3096 57.4246 93.3096C57.4546 93.3096 57.4846 93.3096 57.5146 93.3096C57.5446 93.3096 57.5746 93.3096 57.6046 93.3096C57.6346 93.3096 57.6646 93.3096 57.6946 93.3096C57.7146 93.3096 57.7246 93.3096 57.7446 93.3096C57.7646 93.3096 57.7746 93.3096 57.7946 93.3096C57.8146 93.3096 57.8246 93.3096 57.8446 93.3096C57.8646 93.3096 57.8746 93.3096 57.8946 93.3096C58.5446 93.2896 59.1946 93.2596 59.8346 93.2196C60.4746 93.1796 61.1146 93.1296 61.7546 93.0696C62.3846 93.0096 63.0146 92.9396 63.6446 92.8496C64.3046 92.7996 64.9246 92.6996 65.5446 92.5996Z" fill="#A59DAC"/>
<path d="M25.1438 84.4191C24.7038 86.3591 24.2538 88.2991 23.8138 90.2291C22.5838 89.4591 21.3838 88.6391 20.2138 87.7691C19.0538 86.9091 17.9338 86.0091 16.8438 85.0691C15.7638 84.1291 14.7238 83.1491 13.7338 82.1391C12.7438 81.1291 11.7938 80.0791 10.8838 78.9991C11.2638 77.0191 11.6338 75.0291 12.0138 73.0391C12.9338 74.1391 13.9038 75.1991 14.9038 76.2091C15.9138 77.2291 16.9738 78.2191 18.0638 79.1691C19.1638 80.1191 20.3038 81.0291 21.4838 81.9091C22.6738 82.8091 23.8938 83.6391 25.1438 84.4191Z" fill="#A59DAC"/>
<path d="M97.9537 72.6992C97.4337 73.9992 96.9037 75.3092 96.3837 76.6092C96.1437 77.2192 95.9337 77.8792 95.6337 78.4592C95.0437 79.6192 94.0837 80.6892 93.2637 81.6892C92.4337 82.6992 91.5637 83.6692 90.6437 84.6092C89.7237 85.5492 88.7537 86.4592 87.7337 87.3192C86.7137 88.1892 85.6537 89.0092 84.5537 89.7992C85.0437 88.5192 85.5437 87.2292 86.0337 85.9492C86.2437 85.3992 86.3937 84.6492 86.7237 84.1592C86.9437 83.8292 87.3537 83.6292 87.6737 83.3892C88.4637 82.7992 89.2337 82.1792 89.9937 81.5392C91.0237 80.6692 92.0037 79.7492 92.9437 78.7992C93.8737 77.8492 94.7637 76.8692 95.6037 75.8492C96.4337 74.8392 97.2137 73.7892 97.9537 72.6992Z" fill="#A59DAC"/>
<path d="M2.01414 53.1794C1.69414 55.2394 1.36414 57.2994 1.04414 59.3594C0.924143 58.8094 0.804139 58.2494 0.704139 57.6994C0.604139 57.1394 0.50414 56.5894 0.42414 56.0194C0.34414 55.4594 0.274141 54.8994 0.214141 54.3294C0.154141 53.7594 0.104139 53.1994 0.0641393 52.6294C0.0641393 52.6194 0.0641393 52.6094 0.0641393 52.5994C0.0641393 52.5894 0.0641393 52.5794 0.0641393 52.5694C0.0641393 52.5594 0.0641393 52.5494 0.0641393 52.5394C0.0641393 52.5294 0.0641393 52.5194 0.0641393 52.5094C0.0641393 52.4794 0.0641447 52.4494 0.0541447 52.4194C0.0541447 52.3894 0.0541426 52.3594 0.0441426 52.3294C0.0441426 52.2994 0.0441426 52.2694 0.0441426 52.2394C0.0441426 52.2094 0.0441426 52.1794 0.0441426 52.1494C0.0441426 52.1094 0.0441405 52.0594 0.0341405 52.0194C0.0341405 51.9794 0.0341383 51.9294 0.0241383 51.8894C0.0241383 51.8494 0.0241438 51.7994 0.0141438 51.7594C0.0141438 51.7194 0.0141417 51.6694 0.00414169 51.6294C0.00414169 51.5894 0.00414169 51.5394 0.00414169 51.4994C0.00414169 51.4594 0.00414169 51.4094 0.00414169 51.3694C0.00414169 51.3294 0.00414169 51.2794 0.00414169 51.2394C0.00414169 51.1994 0.00414169 51.1494 0.00414169 51.1094C0.00414169 51.0794 0.00414169 51.0494 0.00414169 51.0194C0.00414169 50.9894 0.00414169 50.9594 0.00414169 50.9294C0.00414169 50.8994 0.00414169 50.8694 0.00414169 50.8394C0.00414169 50.8094 0.00414169 50.7794 0.00414169 50.7494C0.00414169 50.7394 0.00414169 50.7294 0.00414169 50.7194C0.00414169 50.7094 0.00414169 50.6994 0.00414169 50.6894C0.00414169 50.6794 0.00414169 50.6694 0.00414169 50.6594C0.00414169 50.6494 0.00414169 50.6394 0.00414169 50.6294C-0.00585831 50.0594 0.00414383 49.4994 0.0141438 48.9294C0.0341438 48.3694 0.054138 47.8094 0.094138 47.2494C0.134138 46.6894 0.18414 46.1394 0.24414 45.5894C0.30414 45.0394 0.374139 44.4994 0.454139 43.9594C0.774139 41.8394 1.09414 39.7294 1.40414 37.6094C1.32414 38.1594 1.25414 38.7094 1.19414 39.2594C1.13414 39.8094 1.08414 40.3694 1.04414 40.9294C1.00414 41.4894 0.974141 42.0594 0.964141 42.6194C0.944141 43.1894 0.944139 43.7594 0.954139 44.3394C0.954139 44.3494 0.954139 44.3594 0.954139 44.3694C0.954139 44.3794 0.954139 44.3894 0.954139 44.3994C0.954139 44.4094 0.954139 44.4194 0.954139 44.4294C0.954139 44.4394 0.954139 44.4494 0.954139 44.4594C0.954139 44.4894 0.954139 44.5194 0.954139 44.5494C0.954139 44.5794 0.954139 44.6094 0.954139 44.6394C0.954139 44.6694 0.954139 44.6994 0.954139 44.7294C0.954139 44.7594 0.954139 44.7894 0.954139 44.8194C0.954139 44.8594 0.954139 44.9094 0.954139 44.9494C0.954139 44.9894 0.954139 45.0394 0.954139 45.0794C0.954139 45.1194 0.954139 45.1694 0.954139 45.2094C0.954139 45.2594 0.954139 45.2994 0.954139 45.3394C0.954139 45.3794 0.954141 45.4294 0.964141 45.4694C0.964141 45.5094 0.964143 45.5594 0.974143 45.6094C0.974143 45.6494 0.974137 45.6994 0.984137 45.7394C0.984137 45.7794 0.98414 45.8294 0.99414 45.8694C0.99414 45.8994 0.99414 45.9294 0.99414 45.9594C0.99414 45.9894 0.994142 46.0194 1.00414 46.0494C1.00414 46.0794 1.00414 46.1094 1.01414 46.1394C1.01414 46.1694 1.01414 46.1994 1.02414 46.2294C1.02414 46.2394 1.02414 46.2494 1.02414 46.2594C1.02414 46.2694 1.02414 46.2794 1.02414 46.2894C1.02414 46.2994 1.02414 46.3094 1.02414 46.3194C1.02414 46.3294 1.02414 46.3394 1.02414 46.3494C1.06414 46.9294 1.11414 47.4994 1.17414 48.0694C1.23414 48.6394 1.30414 49.2094 1.39414 49.7794C1.47414 50.3494 1.57414 50.9094 1.67414 51.4694C1.77414 52.0594 1.88414 52.6194 2.01414 53.1794Z" fill="#A59DAC"/>
<path d="M57.8537 15.2206L57.7437 15.2106C57.5637 15.1806 57.3737 15.1506 57.1937 15.1206C57.0137 15.0906 56.8237 15.0606 56.6437 15.0406C56.4637 15.0106 56.2737 14.9906 56.0937 14.9606C55.9137 14.9406 55.7237 14.9106 55.5437 14.8906C55.5337 14.8906 55.5237 14.8906 55.5237 14.8906C55.5137 14.8906 55.5037 14.8906 55.5037 14.8906C55.4937 14.8906 55.4837 14.8906 55.4837 14.8906C55.4737 14.8906 55.4637 14.8906 55.4637 14.8906C55.4437 14.8906 55.4237 14.8906 55.3937 14.8806C55.3737 14.8806 55.3537 14.8706 55.3237 14.8706C55.3037 14.8706 55.2837 14.8706 55.2537 14.8606C55.2337 14.8606 55.2137 14.8606 55.1837 14.8506C55.1637 14.8506 55.1437 14.8506 55.1237 14.8406C55.1037 14.8406 55.0837 14.8406 55.0637 14.8306C55.0437 14.8306 55.0237 14.8306 55.0037 14.8206C54.9837 14.8206 54.9637 14.8206 54.9437 14.8106C54.9337 14.8106 54.9137 14.8106 54.9037 14.8106C54.8937 14.8106 54.8737 14.8106 54.8637 14.8106C54.8537 14.8106 54.8337 14.8106 54.8237 14.8106C54.8137 14.8106 54.7937 14.8106 54.7837 14.8106C54.7537 14.8106 54.7337 14.8106 54.7037 14.8006C54.6737 14.8006 54.6537 14.8006 54.6237 14.7906C54.6037 14.7906 54.5737 14.7906 54.5537 14.7806C54.5237 14.7806 54.5037 14.7806 54.4737 14.7706C54.4637 14.7706 54.4637 14.7706 54.4537 14.7706C54.4437 14.7706 54.4437 14.7706 54.4337 14.7706C54.4237 14.7706 54.4237 14.7706 54.4137 14.7706C54.4037 14.7706 54.4037 14.7706 54.3937 14.7706C54.3637 14.7706 54.3337 14.7606 54.3037 14.7606C54.2737 14.7606 54.2437 14.7606 54.2137 14.7506C54.1837 14.7506 54.1537 14.7506 54.1237 14.7406C54.0937 14.7406 54.0637 14.7406 54.0337 14.7306H54.0237H54.0137H54.0037H53.9937C53.9637 14.7306 53.9337 14.7306 53.8937 14.7206C53.8637 14.7206 53.8337 14.7206 53.7937 14.7106C53.7637 14.7106 53.7337 14.7106 53.6937 14.7006C53.6637 14.7006 53.6337 14.7006 53.5937 14.6906C53.5537 14.6906 53.5237 14.6906 53.4837 14.6806C53.4437 14.6806 53.4137 14.6806 53.3837 14.6706C53.3537 14.6706 53.3137 14.6706 53.2837 14.6606C53.2537 14.6606 53.2137 14.6606 53.1837 14.6506C53.1837 14.6506 53.1837 14.6506 53.1737 14.6506C53.1737 14.6506 53.1737 14.6506 53.1637 14.6506C53.1637 14.6506 53.1637 14.6506 53.1537 14.6506C53.1537 14.6506 53.1537 14.6506 53.1437 14.6506C53.1137 14.6506 53.0837 14.6506 53.0437 14.6406C53.0137 14.6406 52.9737 14.6406 52.9437 14.6306C52.9137 14.6306 52.8737 14.6306 52.8437 14.6306C52.8137 14.6306 52.7837 14.6306 52.7437 14.6306H52.7337H52.7237H52.7137H52.7037C52.6737 14.6306 52.6437 14.6306 52.6137 14.6306C52.5837 14.6306 52.5537 14.6306 52.5237 14.6306C52.4937 14.6306 52.4637 14.6306 52.4337 14.6306C52.4037 14.6306 52.3737 14.6306 52.3437 14.6306C52.3337 14.6306 52.3237 14.6306 52.3237 14.6306C52.3137 14.6306 52.3037 14.6306 52.3037 14.6306C52.2937 14.6306 52.2837 14.6306 52.2837 14.6306C52.2737 14.6306 52.2637 14.6306 52.2637 14.6306C52.2337 14.6306 52.2137 14.6306 52.1837 14.6306C52.1537 14.6306 52.1337 14.6306 52.1037 14.6306C52.0737 14.6306 52.0537 14.6306 52.0237 14.6306C51.9937 14.6306 51.9737 14.6306 51.9437 14.6306C51.9337 14.6306 51.9137 14.6306 51.9037 14.6306C51.8937 14.6306 51.8837 14.6306 51.8637 14.6306C51.8537 14.6306 51.8337 14.6306 51.8237 14.6306C51.8137 14.6306 51.8037 14.6306 51.7837 14.6306C51.7637 14.6306 51.7437 14.6306 51.7137 14.6306C51.6937 14.6306 51.6737 14.6306 51.6437 14.6306C51.6237 14.6306 51.6037 14.6306 51.5737 14.6306C51.5537 14.6306 51.5337 14.6306 51.5037 14.6306C51.4637 14.6306 51.4337 14.6306 51.3937 14.6306C51.3537 14.6306 51.3237 14.6306 51.2837 14.6306C51.2437 14.6306 51.2137 14.6306 51.1737 14.6306C51.1337 14.6306 51.1037 14.6306 51.0637 14.6306C50.9837 14.6306 50.9037 14.6106 50.8337 14.5906C50.7637 14.5606 50.6937 14.5306 50.6237 14.4806C50.5637 14.4306 50.5137 14.3806 50.4737 14.3206C50.4337 14.2606 50.4137 14.2006 50.4037 14.1306C50.3837 13.8506 50.5837 13.6406 50.8637 13.6406H51.0137C53.2937 13.6506 55.5737 13.8606 57.8137 14.2506C57.8237 14.2506 57.8337 14.2506 57.8437 14.2606C57.8537 14.2606 57.8637 14.2606 57.8737 14.2706C57.8837 14.2706 57.8937 14.2706 57.9037 14.2806C57.9137 14.2806 57.9237 14.2906 57.9237 14.2906C57.9837 14.3106 58.0437 14.3406 58.0937 14.3806C58.1437 14.4206 58.1937 14.4606 58.2237 14.5106C58.2637 14.5606 58.2837 14.6106 58.2937 14.6706C58.3037 14.7306 58.3137 14.7906 58.3037 14.8506C58.3337 15.0706 58.0937 15.2206 57.8537 15.2206Z" fill="#FBFBFC"/>
<path d="M80.5944 28.1497C79.1844 26.4697 77.6145 24.9297 75.9245 23.5297C75.8645 23.4797 75.8145 23.4297 75.7845 23.3697C75.7545 23.3097 75.7345 23.2497 75.7245 23.1797C75.7145 23.1197 75.7245 23.0497 75.7545 22.9897C75.7745 22.9297 75.8145 22.8697 75.8645 22.8197C75.8845 22.7997 75.9145 22.7797 75.9445 22.7597C75.9745 22.7397 76.0045 22.7297 76.0345 22.7197C76.0645 22.7097 76.1045 22.6997 76.1345 22.6897C76.1645 22.6797 76.2045 22.6797 76.2445 22.6797C76.2645 22.6797 76.2944 22.6797 76.3144 22.6797C76.3344 22.6797 76.3645 22.6897 76.3845 22.6897C76.4045 22.6997 76.4344 22.6997 76.4544 22.7097C76.4744 22.7197 76.5045 22.7297 76.5245 22.7397C76.5345 22.7397 76.5445 22.7497 76.5545 22.7597C76.5645 22.7697 76.5745 22.7697 76.5845 22.7797C76.5945 22.7897 76.6045 22.7897 76.6145 22.7997C76.6245 22.8097 76.6345 22.8097 76.6445 22.8197C77.0845 23.1797 77.5245 23.5597 77.9445 23.9397C78.3645 24.3197 78.7844 24.7097 79.1844 25.1097C79.5844 25.5097 79.9845 25.9097 80.3645 26.3297C80.7445 26.7397 81.1145 27.1597 81.4745 27.5897C81.4845 27.5997 81.4845 27.6097 81.4945 27.6197C81.5045 27.6297 81.5044 27.6397 81.5144 27.6497C81.5244 27.6597 81.5245 27.6697 81.5345 27.6797C81.5345 27.6897 81.5444 27.6997 81.5444 27.7097C81.6544 27.9197 81.5845 28.1697 81.3945 28.2997L81.0845 28.3897C81.0445 28.3897 80.9944 28.3797 80.9544 28.3697C80.9144 28.3597 80.8644 28.3497 80.8244 28.3297C80.7844 28.3097 80.7444 28.2897 80.7044 28.2597C80.6644 28.2097 80.6244 28.1797 80.5944 28.1497C80.2544 27.7297 80.6244 28.1797 80.5944 28.1497Z" fill="#FBFBFC"/>
<path d="M87.3637 39.6202C87.2937 39.6202 87.2337 39.6102 87.1637 39.5902C87.1037 39.5702 87.0437 39.5402 86.9837 39.5102C86.9337 39.4702 86.8837 39.4302 86.8437 39.3802C86.8037 39.3302 86.7737 39.2802 86.7537 39.2202C86.7437 39.2002 86.7337 39.1702 86.7337 39.1502C86.7237 39.1302 86.7137 39.1002 86.7137 39.0802C86.7037 39.0602 86.7037 39.0302 86.6937 39.0102C86.6837 38.9902 86.6837 38.9702 86.6737 38.9402C86.6737 38.9302 86.6637 38.9102 86.6637 38.9002C86.6637 38.8902 86.6537 38.8702 86.6537 38.8602C86.6537 38.8502 86.6437 38.8302 86.6437 38.8202C86.6437 38.8102 86.6337 38.7902 86.6337 38.7802V38.7702V38.7602V38.7502V38.7402C86.4837 38.2802 86.3137 37.8302 86.1437 37.3802C85.9737 36.9302 85.7837 36.4802 85.5837 36.0402C85.3837 35.6002 85.1837 35.1602 84.9637 34.7202C84.7437 34.2802 84.5137 33.8502 84.2737 33.4302C84.2337 33.3702 84.2137 33.3002 84.2137 33.2402C84.2037 33.1702 84.2137 33.1102 84.2437 33.0502C84.2637 32.9902 84.3037 32.9302 84.3537 32.8902C84.4037 32.8402 84.4637 32.8002 84.5337 32.7802C84.5537 32.7702 84.5737 32.7702 84.5837 32.7602C84.6037 32.7602 84.6237 32.7502 84.6337 32.7502C84.6537 32.7502 84.6737 32.7402 84.6837 32.7402C84.7037 32.7402 84.7237 32.7402 84.7337 32.7402C84.7837 32.7402 84.8237 32.7502 84.8737 32.7602C84.9137 32.7702 84.9637 32.7802 85.0037 32.8002C85.0437 32.8202 85.0837 32.8402 85.1237 32.8702C85.1637 32.9002 85.1937 32.9302 85.2237 32.9702C85.2337 32.9802 85.2337 32.9802 85.2437 32.9902C85.2537 33.0002 85.2537 33.0002 85.2637 33.0102C85.2637 33.0202 85.2737 33.0302 85.2737 33.0302C85.2837 33.0402 85.2837 33.0502 85.2837 33.0502C85.5537 33.5302 85.8037 34.0102 86.0537 34.5002C86.2937 34.9902 86.5237 35.4802 86.7437 35.9802C86.9637 36.4802 87.1637 36.9802 87.3537 37.4802C87.5437 37.9902 87.7237 38.4902 87.8837 39.0102C87.8837 39.0202 87.8837 39.0302 87.8937 39.0302C87.8937 39.0402 87.8937 39.0502 87.9037 39.0502C87.9037 39.0602 87.9037 39.0702 87.9037 39.0702C87.9037 39.0802 87.9037 39.0902 87.9037 39.0902C87.9337 39.3502 87.7337 39.5502 87.4937 39.6002L87.3637 39.6202Z" fill="#FBFBFC"/>
<path d="M89.1441 45.2391C89.1441 45.2491 89.1441 45.2491 89.1441 45.2591C89.1441 45.3091 89.1541 45.3691 89.1541 45.4191C89.1541 45.4291 89.1541 45.4391 89.1541 45.4591C89.1541 45.4691 89.1541 45.4791 89.1541 45.4891C89.1541 45.4991 89.1541 45.5091 89.1541 45.5191C89.1541 45.5391 89.1541 45.5591 89.1641 45.5891C89.1641 45.6091 89.1641 45.6291 89.1741 45.6591C89.1741 45.6791 89.1741 45.6991 89.1841 45.7291C89.1841 45.7491 89.1841 45.7691 89.1941 45.7991C89.1941 45.8091 89.1941 45.8191 89.1941 45.8291C89.1941 45.8391 89.1941 45.8491 89.1941 45.8591C89.1941 45.8691 89.1941 45.8791 89.1941 45.8891C89.1941 45.8991 89.1941 45.9091 89.1941 45.9191C89.2341 46.4091 89.2541 46.8891 89.2741 47.3791C89.2841 47.8591 89.2941 48.3491 89.2741 48.8291C89.2641 49.3091 89.2441 49.7891 89.2041 50.2691C89.1641 50.7491 89.1241 51.2291 89.0541 51.6991C89.0541 51.7091 89.0541 51.7091 89.0541 51.7191C89.0541 51.7291 89.0541 51.7291 89.0541 51.7391C89.0541 51.7491 89.0541 51.7491 89.0541 51.7591C89.0541 51.7691 89.0541 51.7691 89.0541 51.7791C88.9941 51.9991 88.7741 52.1291 88.5541 52.1291L88.4441 52.1191C88.3641 52.1091 88.2941 52.0791 88.2341 52.0491C88.1741 52.0091 88.1141 51.9691 88.0641 51.9191C88.0141 51.8691 87.9841 51.8091 87.9541 51.7391C87.9241 51.6791 87.9141 51.6091 87.9141 51.5391C87.9141 51.5291 87.9141 51.5191 87.9141 51.5091C87.9241 51.4191 87.9341 51.3291 87.9441 51.2491C87.9541 51.1591 87.9641 51.0691 87.9741 50.9891C87.9841 50.8991 87.9941 50.8091 88.0041 50.7291C88.0141 50.6391 88.0241 50.5491 88.0341 50.4691C88.0341 50.4491 88.0341 50.4291 88.0341 50.4091C88.0341 50.3891 88.0341 50.3691 88.0341 50.3491C88.0341 50.3291 88.0341 50.3091 88.0341 50.2891C88.0341 50.2691 88.0341 50.2491 88.0341 50.2291C88.0341 50.2191 88.0341 50.2191 88.0341 50.2091C88.0341 50.1991 88.0341 50.1991 88.0341 50.1891C88.0341 50.1791 88.0341 50.1791 88.0341 50.1691C88.0341 50.1591 88.0341 50.1591 88.0341 50.1491C88.0641 49.8291 88.0741 49.4991 88.0941 49.1791C88.1041 48.8591 88.1141 48.5291 88.1141 48.1991C88.1141 47.8691 88.1141 47.5491 88.1041 47.2191C88.0941 46.8891 88.0741 46.5591 88.0541 46.2391C88.0541 46.2091 88.0541 46.1791 88.0441 46.1491C88.0441 46.1191 88.0441 46.0891 88.0341 46.0591C88.0341 46.0291 88.0341 45.9991 88.0241 45.9791C88.0241 45.9491 88.0241 45.9191 88.0141 45.8991C88.0141 45.8891 88.0141 45.8891 88.0141 45.8791C88.0141 45.8691 88.0141 45.8691 88.0141 45.8591C88.0141 45.8491 88.0141 45.8491 88.0141 45.8391C88.0141 45.8291 88.0141 45.8291 88.0141 45.8191C88.0041 45.6891 87.9941 45.5591 87.9841 45.4291C87.9641 45.3291 87.9641 45.1891 87.9941 45.0991C88.0141 45.0391 88.0541 44.9791 88.1041 44.9391C88.1541 44.8891 88.2041 44.8591 88.2741 44.8291C88.3441 44.7991 88.4141 44.7891 88.4941 44.7891C88.5741 44.7891 88.6441 44.7991 88.7141 44.8291C88.7841 44.8591 88.8441 44.8891 88.9041 44.9391C88.9541 44.9791 89.0041 45.0391 89.0341 45.0991C89.1041 45.1091 89.1341 45.1691 89.1441 45.2391Z" fill="#FBFBFC"/>
<path d="M64.2841 16.9405C64.2141 16.9105 64.1441 16.8705 64.0941 16.8305C64.0441 16.7805 63.9942 16.7305 63.9642 16.6705C63.9342 16.6105 63.9141 16.5505 63.9041 16.4805C63.8941 16.4205 63.9041 16.3505 63.9341 16.2905C63.9541 16.2405 63.9841 16.2005 64.0141 16.1605C64.0441 16.1205 64.0842 16.0905 64.1342 16.0605C64.1742 16.0305 64.2242 16.0105 64.2742 16.0005C64.3242 15.9905 64.3741 15.9805 64.4341 15.9805C64.4441 15.9805 64.4541 15.9805 64.4741 15.9805C64.4841 15.9805 64.4941 15.9805 64.5141 15.9805C64.5241 15.9805 64.5342 15.9805 64.5541 15.9905C64.5641 15.9905 64.5741 15.9905 64.5941 16.0005C64.6241 16.0105 64.6441 16.0105 64.6741 16.0205C65.2241 16.2105 65.7641 16.4205 66.3041 16.6405C66.8441 16.8605 67.3741 17.0905 67.9041 17.3305C68.4341 17.5705 68.9541 17.8305 69.4741 18.0905C69.9941 18.3505 70.5041 18.6305 71.0041 18.9105C71.0141 18.9205 71.0241 18.9205 71.0341 18.9305C71.0441 18.9405 71.0541 18.9405 71.0641 18.9505C71.0741 18.9605 71.0841 18.9705 71.0941 18.9705C71.1041 18.9805 71.1141 18.9905 71.1241 18.9905C71.1741 19.0305 71.2041 19.0805 71.2341 19.1305C71.2641 19.1805 71.2841 19.2305 71.2941 19.2905C71.3041 19.3405 71.3041 19.4005 71.2941 19.4505C71.2841 19.5005 71.2641 19.5605 71.2341 19.6105C71.1341 19.7605 70.9641 19.8305 70.7841 19.8305L70.4741 19.7505C69.9841 19.4705 69.4841 19.2105 68.9841 18.9505C68.4841 18.6905 67.9742 18.4505 67.4642 18.2105C66.9542 17.9805 66.4342 17.7505 65.9142 17.5405C65.3342 17.3305 64.8141 17.1305 64.2841 16.9405C64.2041 16.9205 64.8141 17.1305 64.2841 16.9405Z" fill="#FBFBFC"/>
<path d="M37.8344 16.9105C37.7744 16.9105 37.7244 16.9005 37.6644 16.8905C37.6144 16.8805 37.5644 16.8505 37.5144 16.8305C37.4644 16.8005 37.4244 16.7705 37.3844 16.7305C37.3444 16.6905 37.3144 16.6505 37.2844 16.6005C37.2544 16.5405 37.2344 16.4905 37.2344 16.4305C37.2244 16.3705 37.2344 16.3105 37.2544 16.2605C37.2744 16.2105 37.2944 16.1505 37.3344 16.1105C37.3744 16.0605 37.4144 16.0205 37.4744 15.9905C37.4844 15.9905 37.4844 15.9805 37.4944 15.9805C37.5044 15.9805 37.5044 15.9705 37.5144 15.9705C37.5244 15.9705 37.5244 15.9605 37.5344 15.9605C37.5444 15.9605 37.5544 15.9505 37.5544 15.9505C38.0344 15.7705 38.5144 15.6005 39.0044 15.4505C39.4944 15.2905 39.9844 15.1505 40.4844 15.0105C40.9844 14.8705 41.4844 14.7505 41.9844 14.6305C42.4844 14.5105 42.9944 14.4105 43.5044 14.3105C43.5144 14.3105 43.5144 14.3105 43.5244 14.3105C43.5344 14.3105 43.5344 14.3105 43.5444 14.3105C43.5544 14.3105 43.5544 14.3105 43.5644 14.3105C43.5744 14.3105 43.5744 14.3105 43.5844 14.3105C43.6044 14.3105 43.6344 14.3005 43.6544 14.3005C43.6744 14.3005 43.7044 14.2905 43.7244 14.2905C43.7444 14.2905 43.7744 14.2805 43.7944 14.2805C43.8144 14.2805 43.8444 14.2705 43.8644 14.2705C43.8744 14.2705 43.8944 14.2605 43.9044 14.2605C43.9144 14.2605 43.9344 14.2505 43.9444 14.2505C43.9544 14.2505 43.9744 14.2405 43.9844 14.2405C43.9944 14.2405 44.0144 14.2305 44.0244 14.2305H44.0344H44.0444H44.0544H44.0644C44.0744 14.2305 44.0844 14.2305 44.0944 14.2305C44.1044 14.2305 44.1144 14.2305 44.1244 14.2305C44.1344 14.2305 44.1444 14.2305 44.1544 14.2305C44.1644 14.2305 44.1744 14.2305 44.1844 14.2305C44.2544 14.2305 44.3144 14.2405 44.3744 14.2605C44.4344 14.2805 44.4944 14.3105 44.5444 14.3405C44.5944 14.3805 44.6444 14.4205 44.6744 14.4705C44.7144 14.5205 44.7444 14.5705 44.7544 14.6305C44.8444 14.9105 44.6244 15.1705 44.3544 15.2105C42.1944 15.5805 40.0744 16.1605 38.0244 16.9205L37.8344 16.9105Z" fill="#FBFBFC"/>
<path d="M26.8438 23.61C26.6938 23.61 26.5438 23.56 26.4238 23.46C26.3738 23.42 26.3338 23.37 26.3038 23.32C26.2738 23.27 26.2538 23.21 26.2438 23.16C26.2338 23.11 26.2338 23.05 26.2438 23C26.2538 22.95 26.2738 22.89 26.3038 22.84C26.3238 22.8 26.3538 22.77 26.3838 22.74C27.9738 21.27 29.7138 19.96 31.5638 18.82C31.5738 18.81 31.5838 18.81 31.5938 18.8C31.6038 18.8 31.6138 18.79 31.6238 18.79C31.6338 18.79 31.6438 18.78 31.6538 18.78C31.6638 18.78 31.6738 18.77 31.6838 18.77C31.7038 18.77 31.7138 18.76 31.7338 18.76C31.7538 18.76 31.7638 18.75 31.7838 18.75C31.8038 18.75 31.8138 18.75 31.8338 18.75C31.8538 18.75 31.8638 18.75 31.8838 18.75C32.0738 18.75 32.2638 18.83 32.3738 18.98C32.4238 19.04 32.4538 19.1 32.4738 19.16C32.4938 19.22 32.4938 19.29 32.4838 19.35C32.4738 19.41 32.4438 19.48 32.4138 19.53C32.3738 19.59 32.3238 19.63 32.2538 19.67C31.8038 19.94 31.3638 20.23 30.9238 20.53C30.4838 20.83 30.0638 21.13 29.6438 21.45C29.2238 21.77 28.8138 22.09 28.4138 22.43C28.0138 22.77 27.6238 23.11 27.2438 23.47C27.2138 23.49 27.1938 23.51 27.1638 23.53C27.1338 23.55 27.1038 23.56 27.0638 23.57C27.0338 23.58 26.9938 23.59 26.9538 23.6C26.9238 23.61 26.8838 23.61 26.8438 23.61Z" fill="#FBFBFC"/>
<path d="M19.5145 33.7296C19.4445 33.7096 19.3845 33.6796 19.3345 33.6396C19.2845 33.5996 19.2445 33.5496 19.2045 33.4996C19.1745 33.4496 19.1445 33.3896 19.1345 33.3296C19.1245 33.2696 19.1245 33.2096 19.1345 33.1496C19.1345 33.1396 19.1345 33.1396 19.1345 33.1296C19.1345 33.1196 19.1345 33.1196 19.1445 33.1096C19.1445 33.0996 19.1445 33.0996 19.1545 33.0896C19.1545 33.0796 19.1545 33.0796 19.1645 33.0696C19.3645 32.5896 19.5745 32.1096 19.8045 31.6396C20.0345 31.1696 20.2745 30.6996 20.5245 30.2396C20.7745 29.7796 21.0445 29.3196 21.3245 28.8796C21.6045 28.4296 21.8945 27.9896 22.2045 27.5596C22.2145 27.5496 22.2145 27.5396 22.2245 27.5396C22.2345 27.5296 22.2345 27.5196 22.2445 27.5196C22.2545 27.5096 22.2545 27.4996 22.2645 27.4996C22.2745 27.4896 22.2845 27.4896 22.2845 27.4796C22.3145 27.4596 22.3345 27.4396 22.3645 27.4196C22.3945 27.3996 22.4245 27.3896 22.4545 27.3796C22.4845 27.3696 22.5145 27.3596 22.5545 27.3596C22.5845 27.3496 22.6245 27.3496 22.6545 27.3496C22.7745 27.3496 22.8845 27.3796 22.9845 27.4396C23.2245 27.5796 23.3445 27.8996 23.1745 28.1396C22.8845 28.5596 22.6045 28.9896 22.3345 29.4196C22.0645 29.8496 21.8045 30.2896 21.5645 30.7396C21.3145 31.1896 21.0845 31.6396 20.8645 32.0896C20.6445 32.5496 20.4345 33.0096 20.2445 33.4796C20.1645 33.6896 19.9445 33.8096 19.7245 33.8096L19.5145 33.7296Z" fill="#FBFBFC"/>
<path d="M87.2339 57.1205C87.3039 57.1405 87.3539 57.1805 87.4139 57.2205C87.4639 57.2605 87.5039 57.3105 87.5439 57.3605C87.5739 57.4105 87.6039 57.4705 87.6139 57.5305C87.6239 57.5905 87.6339 57.6505 87.6239 57.7105C87.6239 57.7205 87.6239 57.7305 87.6239 57.7305C87.6239 57.7405 87.6239 57.7505 87.6239 57.7505C87.6239 57.7605 87.6239 57.7705 87.6139 57.7705C87.6139 57.7805 87.6139 57.7805 87.6039 57.7905C87.4239 58.2805 87.2339 58.7705 87.0239 59.2505C86.8139 59.7305 86.5939 60.2105 86.3639 60.6905C86.1239 61.1605 85.8839 61.6305 85.6139 62.0905C85.3539 62.5505 85.0739 63.0105 84.7939 63.4605C84.7939 63.4705 84.7839 63.4805 84.7739 63.4805C84.7639 63.4905 84.7639 63.5005 84.7539 63.5005C84.7439 63.5105 84.7439 63.5105 84.7339 63.5205C84.7239 63.5306 84.7239 63.5305 84.7139 63.5405C84.6139 63.6405 84.4739 63.6905 84.3339 63.6905L84.0139 63.6005C83.9439 63.5605 83.8839 63.5105 83.8339 63.4505C83.7839 63.3905 83.7539 63.3305 83.7339 63.2605C83.7139 63.1905 83.7039 63.1205 83.7139 63.0605C83.7239 62.9905 83.7439 62.9305 83.7839 62.8705C84.0639 62.4405 84.3339 62.0005 84.5839 61.5505C84.8339 61.1005 85.0839 60.6505 85.3039 60.1905C85.5339 59.7305 85.7439 59.2705 85.9439 58.8005C86.1439 58.3305 86.3339 57.8605 86.5039 57.3805C86.5239 57.3305 86.5439 57.2805 86.5839 57.2405C86.6139 57.2005 86.6539 57.1705 86.7039 57.1405C86.7439 57.1105 86.7939 57.0905 86.8539 57.0805C86.9039 57.0705 86.9639 57.0605 87.0239 57.0605C87.0439 57.0605 87.0639 57.0605 87.0839 57.0605C87.1039 57.0605 87.1239 57.0605 87.1439 57.0705C87.1639 57.0705 87.1839 57.0805 87.2039 57.0805C87.1939 57.1105 87.2139 57.1205 87.2339 57.1205C87.2939 57.1505 87.2139 57.1205 87.2339 57.1205Z" fill="#FBFBFC"/>
<path d="M18.2241 45.3599C18.2241 45.4299 18.2141 45.4999 18.1941 45.5699C18.1641 45.6399 18.1341 45.6999 18.0841 45.7499C18.0341 45.7999 17.9741 45.8399 17.9041 45.8699C17.8341 45.8999 17.7541 45.9199 17.6741 45.9199C17.3941 45.9199 17.0941 45.7399 17.0741 45.4399C17.0741 45.3799 17.0641 45.3199 17.0641 45.2699C17.0641 45.2399 17.0641 45.1999 17.0641 45.1699C17.0641 45.1399 17.0641 45.0999 17.0641 45.0699C17.0641 45.0399 17.0641 44.9999 17.0641 44.9699C17.0641 44.9599 17.0641 44.9599 17.0641 44.9499C17.0641 44.9399 17.0641 44.9399 17.0641 44.9299C17.0641 44.9199 17.0641 44.9199 17.0641 44.9099C17.0641 44.8999 17.0641 44.8999 17.0641 44.8899C17.0641 44.8599 17.0641 44.8299 17.0641 44.7999C17.0641 44.7699 17.0641 44.7399 17.0641 44.7099C17.0641 44.6799 17.0641 44.6499 17.0641 44.6199C17.0641 44.5899 17.0641 44.5599 17.0641 44.5299C17.0241 42.7199 17.1441 40.8999 17.4541 39.1099C17.4541 39.0999 17.4541 39.0999 17.4541 39.0899C17.4541 39.0799 17.4541 39.0799 17.4541 39.0699C17.4541 39.0699 17.4541 39.0599 17.4541 39.0499C17.4541 39.0399 17.4541 39.0399 17.4541 39.0299C17.4741 38.9799 17.4941 38.9299 17.5341 38.8799C17.5641 38.8399 17.6141 38.7999 17.6641 38.7699C17.7141 38.7399 17.7641 38.7099 17.8241 38.6999C17.8841 38.6799 17.9441 38.6699 18.0041 38.6699C18.0341 38.6699 18.0741 38.6699 18.1041 38.6799C18.1841 38.6999 18.2541 38.7199 18.3141 38.7599C18.3741 38.7999 18.4241 38.8399 18.4741 38.8899C18.5141 38.9399 18.5541 38.9999 18.5741 39.0599C18.5941 39.1199 18.6041 39.1899 18.6041 39.2499C18.6041 39.2599 18.6041 39.2699 18.6041 39.2899C18.5741 39.4699 18.5441 39.6599 18.5141 39.8399C18.4841 40.0299 18.4641 40.2099 18.4341 40.3999C18.4141 40.5899 18.3841 40.7699 18.3641 40.9599C18.3441 41.1499 18.3241 41.3299 18.3141 41.5199C18.3141 41.5199 18.3141 41.5199 18.3141 41.5299C18.3141 41.5299 18.3141 41.5299 18.3141 41.5399C18.3141 41.5399 18.3141 41.5399 18.3141 41.5499C18.3141 41.5499 18.3141 41.5499 18.3141 41.5599C18.3141 41.5899 18.3141 41.6199 18.3041 41.6399C18.3041 41.6699 18.3041 41.6999 18.2941 41.7199C18.2941 41.7499 18.2941 41.7799 18.2841 41.7999C18.2841 41.8299 18.2841 41.8599 18.2741 41.8799C18.2741 41.8899 18.2741 41.8899 18.2741 41.8999C18.2741 41.9099 18.2741 41.9099 18.2741 41.9199C18.2741 41.9299 18.2741 41.9299 18.2741 41.9399C18.2741 41.9499 18.2741 41.9499 18.2741 41.9599C18.2741 41.9799 18.2741 42.0099 18.2641 42.0299C18.2641 42.0499 18.2641 42.0799 18.2641 42.0999C18.2641 42.1199 18.2641 42.1499 18.2641 42.1699C18.2641 42.1899 18.2641 42.2199 18.2641 42.2399C18.2641 42.2499 18.2641 42.2599 18.2641 42.2699C18.2641 42.2799 18.2641 42.2899 18.2641 42.2999C18.2641 42.3099 18.2641 42.3199 18.2641 42.3299C18.2641 42.3399 18.2641 42.3499 18.2641 42.3599C18.2641 42.3799 18.2641 42.4099 18.2641 42.4299C18.2641 42.4499 18.2641 42.4799 18.2641 42.4999C18.2641 42.5199 18.2641 42.5499 18.2641 42.5699C18.2641 42.5899 18.2641 42.6199 18.2641 42.6399C18.2641 42.6499 18.2641 42.6599 18.2641 42.6699C18.2641 42.6799 18.2641 42.6899 18.2641 42.6999C18.2641 42.7099 18.2641 42.7199 18.2641 42.7299C18.2641 42.7399 18.2641 42.7499 18.2641 42.7599C18.2641 42.7799 18.2641 42.8099 18.2641 42.8299C18.2641 42.8499 18.2641 42.8799 18.2641 42.8999C18.2641 42.9199 18.2641 42.9499 18.2641 42.9699C18.2641 42.9899 18.2641 43.0199 18.2641 43.0399C18.2641 43.0499 18.2641 43.0599 18.2641 43.0699C18.2641 43.0799 18.2641 43.0899 18.2641 43.0999C18.2641 43.1099 18.2641 43.1199 18.2641 43.1299C18.2641 43.1399 18.2641 43.1499 18.2641 43.1599C18.2641 43.1799 18.2641 43.2099 18.2641 43.2299C18.2641 43.2499 18.2641 43.2799 18.2641 43.2999C18.2641 43.3199 18.2641 43.3499 18.2641 43.3699C18.2641 43.3899 18.2641 43.4199 18.2641 43.4399C18.2641 43.4499 18.2641 43.4599 18.2641 43.4699C18.2641 43.4799 18.2641 43.4899 18.2641 43.4999C18.2641 43.5099 18.2641 43.5199 18.2641 43.5299C18.2641 43.5399 18.2641 43.5499 18.2641 43.5599C18.2641 43.5799 18.2641 43.5999 18.2641 43.6299C18.2641 43.6499 18.2641 43.6699 18.2641 43.6999C18.2641 43.7199 18.2641 43.7399 18.2641 43.7699C18.2641 43.7899 18.2641 43.8099 18.2641 43.8399C18.2641 43.8499 18.2641 43.8599 18.2641 43.8699C18.2641 43.8799 18.2641 43.8899 18.2641 43.8999C18.2641 43.9099 18.2641 43.9199 18.2641 43.9299C18.2641 43.9399 18.2641 43.9499 18.2641 43.9599C18.2641 43.9799 18.2641 43.9999 18.2641 44.0199C18.2641 44.0399 18.2641 44.0599 18.2641 44.0799C18.2641 44.0999 18.2641 44.1199 18.2641 44.1399C18.2641 44.1599 18.2641 44.1799 18.2641 44.1999C18.2641 44.2099 18.2641 44.2199 18.2641 44.2399C18.2641 44.2499 18.2641 44.2599 18.2641 44.2799C18.2641 44.2899 18.2641 44.2999 18.2641 44.3199C18.2641 44.3299 18.2641 44.3399 18.2641 44.3599C18.2641 44.3799 18.2641 44.3999 18.2641 44.4199C18.2641 44.4399 18.2641 44.4599 18.2641 44.4799C18.2641 44.4999 18.2641 44.5199 18.2641 44.5399C18.2641 44.5599 18.2641 44.5799 18.2641 44.5999C18.2641 44.6099 18.2641 44.6299 18.2641 44.6399C18.2641 44.6499 18.2641 44.6699 18.2641 44.6799C18.2641 44.6899 18.2641 44.7099 18.2641 44.7199C18.2641 44.7299 18.2641 44.7499 18.2641 44.7599C18.2641 44.7799 18.2641 44.7999 18.2641 44.8199C18.2641 44.8399 18.2641 44.8599 18.2641 44.8799C18.2641 44.8999 18.2641 44.9199 18.2641 44.9399C18.2641 44.9599 18.2641 44.9799 18.2641 44.9999C18.2641 45.0299 18.2641 45.0599 18.2641 45.0999C18.2641 45.1299 18.2641 45.1599 18.2641 45.1999C18.2641 45.2299 18.2641 45.2599 18.2641 45.2999C18.2241 45.2899 18.2241 45.3199 18.2241 45.3599Z" fill="#FBFBFC"/>
<path d="M80.2444 67.5898C80.2844 67.5898 80.3144 67.5898 80.3544 67.5998C80.3944 67.6098 80.4244 67.6198 80.4644 67.6298C80.5044 67.6398 80.5344 67.6598 80.5644 67.6798C80.5944 67.6998 80.6244 67.7198 80.6544 67.7498C80.7044 67.7898 80.7444 67.8398 80.7844 67.8898C80.8144 67.9398 80.8444 67.9998 80.8544 68.0498C80.8644 68.1098 80.8744 68.1598 80.8644 68.2198C80.8544 68.2798 80.8444 68.3298 80.8144 68.3798C80.7944 68.4298 80.7544 68.4698 80.7244 68.4998C79.1644 70.0598 77.4344 71.4598 75.5944 72.6598L75.5144 72.6798L75.2744 72.7498C75.2244 72.7498 75.1744 72.7398 75.1344 72.7298C75.0844 72.7198 75.0444 72.6998 75.0044 72.6798C74.9644 72.6598 74.9244 72.6298 74.8844 72.5998C74.8444 72.5698 74.8144 72.5398 74.7844 72.4998C74.5944 72.2698 74.6244 71.9198 74.8844 71.7698C76.6744 70.5998 78.3344 69.2398 79.8544 67.7398C79.8844 67.7098 79.9144 67.6898 79.9444 67.6698C79.9744 67.6498 80.0044 67.6398 80.0444 67.6198C80.0844 67.6098 80.1144 67.5998 80.1544 67.5898C80.1744 67.5998 80.2144 67.5898 80.2444 67.5898Z" fill="#FBFBFC"/>
<path d="M20.0245 54.0604C20.1345 54.3604 20.2445 54.6504 20.3645 54.9504C20.4845 55.2404 20.6045 55.5404 20.7345 55.8304C20.8645 56.1204 20.9945 56.4104 21.1345 56.7004C21.2745 56.9904 21.4145 57.2804 21.5645 57.5604C21.7045 57.8304 21.5545 58.1404 21.2845 58.2504L21.0645 58.2904C21.0145 58.2904 20.9645 58.2804 20.9245 58.2704C20.8745 58.2604 20.8345 58.2404 20.7845 58.2204C20.7445 58.2004 20.6945 58.1704 20.6645 58.1404C20.6245 58.1104 20.5945 58.0804 20.5645 58.0404C20.5445 58.0204 20.5245 57.9904 20.5145 57.9604C19.5045 55.9904 18.6845 53.9204 18.1045 51.7904C18.1045 51.7804 18.1045 51.7804 18.1045 51.7704C18.1045 51.7704 18.1045 51.7604 18.1045 51.7504C18.1045 51.7404 18.1045 51.7404 18.1045 51.7304C18.1045 51.7204 18.1045 51.7204 18.1045 51.7104C18.0745 51.4304 18.2745 51.2104 18.5445 51.1604C18.5545 51.1604 18.5645 51.1604 18.5745 51.1504C18.5845 51.1504 18.5945 51.1504 18.6045 51.1504C18.6145 51.1504 18.6245 51.1504 18.6345 51.1504C18.6445 51.1504 18.6545 51.1504 18.6645 51.1504C18.9245 51.1504 19.1845 51.3204 19.2545 51.5704C19.2945 51.7304 19.3445 51.8804 19.3845 52.0404C19.4345 52.2004 19.4745 52.3504 19.5245 52.5004C19.5745 52.6504 19.6245 52.8104 19.6745 52.9604C19.7245 53.1104 19.7745 53.2704 19.8245 53.4204C19.8245 53.4304 19.8345 53.4404 19.8345 53.4404C19.8345 53.4504 19.8445 53.4604 19.8445 53.4604C19.8445 53.4704 19.8545 53.4804 19.8545 53.4804C19.8545 53.4904 19.8645 53.5004 19.8645 53.5004C19.8745 53.5204 19.8745 53.5404 19.8845 53.5604C19.8945 53.5804 19.8945 53.6004 19.9045 53.6204C19.9145 53.6404 19.9145 53.6604 19.9245 53.6704C19.9345 53.6904 19.9345 53.7104 19.9445 53.7304C19.9545 53.7504 19.9545 53.7704 19.9645 53.7804C19.9745 53.8004 19.9745 53.8204 19.9845 53.8404C19.9945 53.8604 19.9945 53.8804 20.0045 53.9004C20.0145 53.9204 20.0145 53.9404 20.0245 53.9604C20.0245 53.9704 20.0245 53.9704 20.0345 53.9804C20.0345 53.9904 20.0445 53.9904 20.0445 54.0004C20.0445 54.0104 20.0445 54.0104 20.0545 54.0204C20.0145 54.0504 20.0245 54.0604 20.0245 54.0604Z" fill="#FBFBFC"/>
<path d="M69.2446 74.7405C69.4746 74.7405 69.7046 74.8605 69.8146 75.0705C69.8446 75.1305 69.8646 75.1905 69.8646 75.2505C69.8746 75.3105 69.8646 75.3705 69.8546 75.4305C69.8446 75.4905 69.8146 75.5405 69.7846 75.5905C69.7546 75.6405 69.7046 75.6805 69.6546 75.7205C69.6446 75.7305 69.6446 75.7305 69.6346 75.7305C69.6246 75.7305 69.6146 75.7405 69.6146 75.7405C69.6046 75.7405 69.5946 75.7505 69.5846 75.7505C69.5746 75.7505 69.5646 75.7605 69.5546 75.7605C67.3846 76.6205 65.1346 77.2705 62.8446 77.7105H62.7746H62.7246C62.4546 77.7105 62.1946 77.5405 62.1246 77.2805C62.0346 76.9905 62.2446 76.7005 62.5346 76.6505C63.0946 76.5405 63.6546 76.4205 64.2046 76.2905C64.7546 76.1605 65.3046 76.0105 65.8446 75.8605C66.3846 75.7005 66.9246 75.5305 67.4546 75.3505C67.9846 75.1705 68.5046 74.9705 69.0246 74.7705C69.0446 74.7605 69.0646 74.7605 69.0846 74.7505C69.1046 74.7405 69.1246 74.7405 69.1446 74.7405C69.1646 74.7405 69.1846 74.7305 69.2046 74.7305C69.2146 74.7505 69.2246 74.7405 69.2446 74.7405Z" fill="#FBFBFC"/>
<path d="M25.1545 63.0891C26.5645 64.8591 28.1545 66.4891 29.8745 67.9591C30.0945 68.1591 30.1345 68.4991 29.9145 68.7191C29.8845 68.7491 29.8545 68.7691 29.8245 68.7891C29.7945 68.8091 29.7645 68.8291 29.7245 68.8391C29.6845 68.8491 29.6545 68.8591 29.6145 68.8691C29.5745 68.8791 29.5345 68.8791 29.5045 68.8791C29.4745 68.8791 29.4545 68.8791 29.4245 68.8791C29.3945 68.8791 29.3745 68.8691 29.3445 68.8691C29.3145 68.8591 29.2945 68.8591 29.2645 68.8491C29.2445 68.8391 29.2145 68.8291 29.1945 68.8191C29.1845 68.8091 29.1745 68.8091 29.1645 68.7991C29.1545 68.7891 29.1445 68.7891 29.1345 68.7791C29.1245 68.7691 29.1145 68.7691 29.1045 68.7591C29.0945 68.7491 29.0845 68.7391 29.0745 68.7391C28.6245 68.3591 28.1845 67.9591 27.7645 67.5591C27.3345 67.1591 26.9145 66.7491 26.5145 66.3291C26.1045 65.9091 25.7145 65.4791 25.3245 65.0491C24.9445 64.6091 24.5745 64.1691 24.2145 63.7191C24.2045 63.7091 24.2045 63.6991 24.1945 63.6891C24.1845 63.6791 24.1845 63.6691 24.1745 63.6591C24.1645 63.6491 24.1645 63.6391 24.1545 63.6291C24.1545 63.6191 24.1445 63.6091 24.1445 63.5991C24.0445 63.3691 24.1145 63.1091 24.3245 62.9691C24.3545 62.9491 24.3745 62.9391 24.4045 62.9291C24.4345 62.9191 24.4545 62.9091 24.4845 62.8991C24.5145 62.8891 24.5445 62.8891 24.5645 62.8791C24.5945 62.8791 24.6245 62.8691 24.6545 62.8691C24.7045 62.8691 24.7445 62.8691 24.7945 62.8791C24.8445 62.8891 24.8845 62.8991 24.9245 62.9191C24.9645 62.9391 25.0045 62.9591 25.0445 62.9891C25.0945 63.0191 25.1245 63.0491 25.1545 63.0891C25.5045 63.5191 25.1245 63.0491 25.1545 63.0891Z" fill="#FBFBFC"/>
<path d="M55.6145 77.3307C55.6945 77.3307 55.7845 77.3407 55.8545 77.3707C55.9245 77.4007 55.9945 77.4407 56.0545 77.4807C56.1145 77.5307 56.1645 77.5907 56.1945 77.6507C56.2345 77.7107 56.2545 77.7807 56.2545 77.8607C56.2745 78.1607 56.0245 78.3907 55.7245 78.4007H55.6745C53.2745 78.4207 50.8645 78.2107 48.4945 77.8107C48.4845 77.8107 48.4745 77.8107 48.4645 77.8007C48.4545 77.8007 48.4445 77.8007 48.4345 77.7907C48.4245 77.7907 48.4145 77.7807 48.4045 77.7807C48.3945 77.7807 48.3845 77.7707 48.3745 77.7707C48.1245 77.6807 47.9245 77.4407 47.9745 77.1607C47.9845 77.1007 48.0045 77.0407 48.0345 76.9807C48.0645 76.9307 48.1045 76.8807 48.1545 76.8407C48.2045 76.8007 48.2545 76.7707 48.3145 76.7507C48.3745 76.7307 48.4445 76.7207 48.5145 76.7207C48.5245 76.7207 48.5345 76.7207 48.5445 76.7207C48.5545 76.7207 48.5645 76.7207 48.5745 76.7207C48.5845 76.7207 48.5945 76.7207 48.6045 76.7207C48.6145 76.7207 48.6245 76.7207 48.6345 76.7307C48.9445 76.7807 49.2545 76.8307 49.5645 76.8807C49.8745 76.9307 50.1845 76.9707 50.4945 77.0107C50.8045 77.0507 51.1145 77.0807 51.4345 77.1207C51.7445 77.1507 52.0545 77.1807 52.3745 77.2007C52.4145 77.2007 52.4445 77.2107 52.4845 77.2107C52.5245 77.2107 52.5545 77.2207 52.5845 77.2207C52.6145 77.2207 52.6545 77.2207 52.6845 77.2307C52.7145 77.2307 52.7545 77.2307 52.7845 77.2407C52.7945 77.2407 52.7945 77.2407 52.8045 77.2407C52.8145 77.2407 52.8145 77.2407 52.8245 77.2407C52.8345 77.2407 52.8345 77.2407 52.8445 77.2407C52.8545 77.2407 52.8545 77.2407 52.8645 77.2407C52.8945 77.2407 52.9245 77.2407 52.9545 77.2507C52.9845 77.2507 53.0145 77.2507 53.0445 77.2607C53.0745 77.2607 53.1045 77.2607 53.1345 77.2607C53.1645 77.2607 53.1945 77.2607 53.2245 77.2607C53.2345 77.2607 53.2445 77.2607 53.2545 77.2607C53.2645 77.2607 53.2745 77.2607 53.2845 77.2607C53.2945 77.2607 53.3045 77.2607 53.3145 77.2607C53.3245 77.2607 53.3345 77.2607 53.3445 77.2607C53.3745 77.2607 53.3945 77.2607 53.4245 77.2607C53.4545 77.2607 53.4745 77.2607 53.5045 77.2607C53.5345 77.2607 53.5545 77.2607 53.5845 77.2607C53.6145 77.2607 53.6345 77.2607 53.6645 77.2607C53.6745 77.2607 53.6945 77.2607 53.7045 77.2607C53.7145 77.2607 53.7345 77.2607 53.7445 77.2607C53.7545 77.2607 53.7745 77.2607 53.7845 77.2607C53.7945 77.2607 53.8145 77.2607 53.8245 77.2607C53.8445 77.2607 53.8745 77.2607 53.8945 77.2607C53.9145 77.2607 53.9445 77.2607 53.9645 77.2607C53.9845 77.2607 54.0145 77.2607 54.0345 77.2607C54.0545 77.2607 54.0845 77.2607 54.1045 77.2607C54.1145 77.2607 54.1245 77.2607 54.1445 77.2607C54.1545 77.2607 54.1745 77.2607 54.1845 77.2607C54.1945 77.2607 54.2145 77.2607 54.2245 77.2607C54.2345 77.2607 54.2545 77.2607 54.2645 77.2607C54.2945 77.2607 54.3145 77.2607 54.3445 77.2607C54.3645 77.2607 54.3945 77.2607 54.4145 77.2607C54.4345 77.2607 54.4645 77.2607 54.4845 77.2607C54.5145 77.2607 54.5345 77.2607 54.5645 77.2607C54.5745 77.2607 54.5945 77.2607 54.6045 77.2607C54.6145 77.2607 54.6345 77.2607 54.6445 77.2607C54.6545 77.2607 54.6745 77.2607 54.6845 77.2607C54.6945 77.2607 54.7145 77.2607 54.7245 77.2607C54.7545 77.2607 54.7745 77.2607 54.8045 77.2607C54.8345 77.2607 54.8545 77.2607 54.8845 77.2607C54.9145 77.2607 54.9345 77.2607 54.9645 77.2607C54.9945 77.2607 55.0145 77.2607 55.0445 77.2607C55.0545 77.2607 55.0645 77.2607 55.0745 77.2607C55.0845 77.2607 55.0945 77.2607 55.1145 77.2607C55.1245 77.2607 55.1345 77.2607 55.1545 77.2607C55.1645 77.2607 55.1745 77.2607 55.1845 77.2607C55.2245 77.2607 55.2645 77.2607 55.2945 77.2607C55.3345 77.2607 55.3645 77.2607 55.4045 77.2607C55.4445 77.2607 55.4845 77.2607 55.5145 77.2607C55.5445 77.3307 55.5745 77.3307 55.6145 77.3307Z" fill="#FBFBFC"/>
<path d="M41.8642 74.9294C41.9442 74.9594 42.0142 74.9994 42.0742 75.0494C42.1342 75.0994 42.1742 75.1594 42.2142 75.2194C42.2442 75.2794 42.2642 75.3494 42.2742 75.4194C42.2742 75.4894 42.2642 75.5594 42.2442 75.6294C42.1642 75.8494 41.9542 75.9794 41.7242 75.9794L41.5442 75.9394L41.5042 75.9294C40.9342 75.7294 40.3742 75.5094 39.8142 75.2794C39.2542 75.0494 38.6942 74.7994 38.1542 74.5494C37.6042 74.2894 37.0642 74.0294 36.5242 73.7394C35.9842 73.4594 35.4542 73.1694 34.9342 72.8594C34.9242 72.8494 34.9142 72.8494 34.9042 72.8394C34.8942 72.8294 34.8842 72.8294 34.8742 72.8194C34.8642 72.8094 34.8542 72.7994 34.8442 72.7994C34.8342 72.7894 34.8242 72.7794 34.8142 72.7694C34.6442 72.5994 34.6042 72.3194 34.7342 72.1094C34.7642 72.0694 34.7942 72.0394 34.8242 72.0094C34.8642 71.9794 34.8942 71.9494 34.9442 71.9294C34.9842 71.9094 35.0342 71.8894 35.0742 71.8794C35.1242 71.8694 35.1642 71.8594 35.2142 71.8594C35.2442 71.8594 35.2642 71.8594 35.2942 71.8594C35.3242 71.8594 35.3442 71.8694 35.3742 71.8794C35.4042 71.8894 35.4242 71.8994 35.4542 71.9094C35.4842 71.9194 35.5042 71.9294 35.5342 71.9494C36.0342 72.2394 36.5442 72.5294 37.0642 72.7994C37.5842 73.0694 38.1042 73.3294 38.6342 73.5794C39.1642 73.8294 39.7042 74.0694 40.2442 74.2894C40.7642 74.5194 41.3142 74.7394 41.8642 74.9294Z" fill="#FBFBFC"/>
<path d="M86.6142 38.74C82.1642 25.48 69.1342 16.49 55.5342 14.88C56.2742 14.97 57.0142 15.07 57.7442 15.2L57.8542 15.21C58.0942 15.21 58.3342 15.06 58.3742 14.81C58.3842 14.75 58.3842 14.69 58.3642 14.63C58.3542 14.57 58.3242 14.52 58.2942 14.47C58.2642 14.42 58.2142 14.38 58.1642 14.34C58.1142 14.3 58.0542 14.27 57.9942 14.25C60.2242 14.65 62.4342 15.23 64.5642 15.99C64.5142 15.98 64.4742 15.97 64.4242 15.97C64.3742 15.97 64.3142 15.98 64.2642 15.99C64.2142 16 64.1642 16.02 64.1242 16.05C64.0842 16.08 64.0442 16.11 64.0042 16.15C63.9742 16.19 63.9442 16.23 63.9242 16.28C63.9042 16.34 63.8942 16.41 63.8942 16.47C63.9042 16.53 63.9242 16.6 63.9542 16.66C63.9842 16.72 64.0342 16.77 64.0842 16.82C64.1342 16.87 64.2042 16.91 64.2742 16.93C64.8042 17.12 65.3342 17.32 65.8542 17.53C66.3742 17.74 66.8942 17.97 67.4042 18.2C67.9142 18.43 68.4242 18.68 68.9242 18.94C69.4242 19.2 69.9242 19.46 70.4142 19.74L70.7242 19.82C70.8942 19.82 71.0742 19.74 71.1742 19.6C71.2042 19.55 71.2242 19.5 71.2342 19.44C71.2442 19.39 71.2442 19.33 71.2342 19.28C71.2242 19.23 71.2042 19.17 71.1742 19.12C71.1442 19.07 71.1142 19.02 71.0642 18.98C72.9742 20.07 74.8042 21.32 76.5042 22.72C76.4142 22.68 76.3142 22.65 76.2242 22.65C76.1842 22.65 76.1542 22.65 76.1142 22.66C76.0742 22.67 76.0442 22.67 76.0142 22.69C75.9842 22.7 75.9542 22.72 75.9242 22.73C75.8942 22.75 75.8642 22.77 75.8442 22.79C75.7942 22.84 75.7542 22.9 75.7342 22.96C75.7142 23.02 75.7042 23.09 75.7042 23.15C75.7142 23.21 75.7342 23.28 75.7642 23.34C75.7942 23.4 75.8442 23.46 75.9042 23.5C77.5942 24.9 79.1642 26.44 80.5742 28.12C80.6042 28.16 80.6342 28.19 80.6742 28.22C80.7142 28.25 80.7542 28.27 80.7942 28.29C80.8342 28.31 80.8842 28.32 80.9242 28.33C80.9642 28.34 81.0142 28.35 81.0542 28.35L81.3642 28.26C81.5642 28.13 81.6242 27.88 81.5142 27.67C82.8842 29.31 84.1142 31.07 85.1642 32.93C85.0442 32.79 84.8642 32.7 84.6842 32.7C84.6642 32.7 84.6442 32.7 84.6342 32.7C84.6142 32.7 84.5942 32.7 84.5842 32.71C84.5642 32.71 84.5442 32.72 84.5342 32.72C84.5142 32.72 84.4942 32.73 84.4842 32.74C84.4142 32.77 84.3542 32.81 84.3042 32.85C84.2542 32.9 84.2242 32.95 84.1942 33.01C84.1742 33.07 84.1642 33.13 84.1642 33.2C84.1742 33.27 84.1942 33.33 84.2242 33.39C84.4642 33.82 84.6942 34.25 84.9142 34.68C85.1342 35.12 85.3342 35.56 85.5342 36C85.7342 36.44 85.9142 36.89 86.0942 37.34C86.2942 37.83 86.4642 38.29 86.6142 38.74C85.5542 35.59 86.4642 38.29 86.6142 38.74Z" fill="#72182F"/>
<path d="M87.4737 39.6096C87.7137 39.5596 87.9137 39.3596 87.8837 39.0996C88.5137 41.0996 88.9337 43.1596 89.1437 45.2396C89.1337 45.1696 89.1137 45.1096 89.0737 45.0496C89.0437 44.9896 88.9937 44.9396 88.9437 44.8896C88.8937 44.8496 88.8237 44.8096 88.7537 44.7796C88.6837 44.7596 88.6137 44.7396 88.5337 44.7396C88.2537 44.7396 87.9837 44.9496 88.0137 45.2496L88.0237 45.3796C87.8337 43.2796 87.4037 41.2096 86.7637 39.1996C86.8437 39.4496 87.1137 39.6096 87.3637 39.6096H87.4737Z" fill="#A1010D"/>
<path d="M17.9943 38.6795C17.9343 38.6795 17.8643 38.6895 17.8143 38.7095C17.7543 38.7295 17.7043 38.7495 17.6543 38.7795C17.6043 38.8095 17.5643 38.8495 17.5243 38.8895C17.4943 38.9295 17.4643 38.9795 17.4443 39.0395C17.7943 37.0195 18.3643 35.0395 19.1443 33.1395C19.0843 33.4095 19.2743 33.6495 19.5143 33.7295L19.7343 33.7795C19.9543 33.7795 20.1643 33.6595 20.2543 33.4495C20.4443 32.9795 20.6543 32.5195 20.8743 32.0595C21.0943 31.5995 21.3243 31.1495 21.5743 30.7095C21.8243 30.2595 22.0743 29.8195 22.3443 29.3895C22.6143 28.9595 22.8943 28.5295 23.1843 28.1095C23.3643 27.8695 23.2343 27.5495 22.9943 27.4095C22.8943 27.3495 22.7743 27.3195 22.6643 27.3195C22.6243 27.3195 22.5943 27.3195 22.5643 27.3295C22.5343 27.3395 22.4943 27.3395 22.4643 27.3495C22.4343 27.3595 22.4043 27.3695 22.3743 27.3895C22.3443 27.4095 22.3143 27.4195 22.2943 27.4495C23.4743 25.7795 24.8343 24.2395 26.3243 22.8495C26.1943 23.0595 26.2643 23.3095 26.4443 23.4695C26.5643 23.5595 26.7043 23.6195 26.8643 23.6195C26.9043 23.6195 26.9343 23.6195 26.9743 23.6095C27.0143 23.5995 27.0443 23.5995 27.0843 23.5795C27.1143 23.5695 27.1543 23.5495 27.1843 23.5395C27.2143 23.5195 27.2443 23.4995 27.2643 23.4795C27.6443 23.1195 28.0343 22.7795 28.4343 22.4395C28.8343 22.0995 29.2443 21.7795 29.6643 21.4595C30.0843 21.1395 30.5143 20.8395 30.9443 20.5395C31.3843 20.2395 31.8243 19.9595 32.2743 19.6795C32.3443 19.6395 32.3943 19.5895 32.4343 19.5395C32.4743 19.4795 32.4943 19.4195 32.5043 19.3595C32.5143 19.2995 32.5143 19.2295 32.4943 19.1695C32.4743 19.1095 32.4443 19.0395 32.3943 18.9895C32.2743 18.8395 32.0843 18.7595 31.9043 18.7595C31.8843 18.7595 31.8743 18.7595 31.8543 18.7595C31.8343 18.7595 31.8243 18.7595 31.8043 18.7595C31.7843 18.7595 31.7743 18.7695 31.7543 18.7695C31.7343 18.7695 31.7243 18.7795 31.7043 18.7795C33.5343 17.6695 35.4743 16.7395 37.4743 15.9895C37.2543 16.1095 37.1743 16.3795 37.2943 16.5995C37.3243 16.6495 37.3543 16.6895 37.3943 16.7295C37.4343 16.7695 37.4743 16.7995 37.5243 16.8295C37.5743 16.8595 37.6243 16.8795 37.6743 16.8895C37.7243 16.8995 37.7843 16.9095 37.8443 16.9095L38.0543 16.8795C40.1043 16.1195 42.2343 15.5495 44.3843 15.1695C44.6543 15.1295 44.8843 14.8695 44.7843 14.5895C44.7643 14.5295 44.7343 14.4795 44.7043 14.4295C44.6643 14.3795 44.6243 14.3395 44.5743 14.2995C44.5243 14.2595 44.4643 14.2395 44.4043 14.2195C44.3443 14.1995 44.2843 14.1895 44.2143 14.1895C44.2043 14.1895 44.1943 14.1895 44.1843 14.1895C44.1743 14.1895 44.1643 14.1895 44.1543 14.1895C44.1443 14.1895 44.1343 14.1895 44.1243 14.1895C44.1143 14.1895 44.1043 14.1895 44.0943 14.1895C46.3543 13.7995 48.6443 13.6095 50.9343 13.6195C50.6643 13.6295 50.4543 13.8395 50.4743 14.1095C50.4743 14.1795 50.5043 14.2395 50.5443 14.2995C50.5843 14.3595 50.6343 14.4095 50.6943 14.4595C50.7543 14.5095 50.8243 14.5395 50.9043 14.5695C50.9743 14.5995 51.0543 14.6095 51.1343 14.6095C39.5543 14.5395 27.8143 19.9395 21.8843 30.1895C20.2643 32.9895 19.1343 36.0695 18.5943 39.2595C18.6143 38.9695 18.3743 38.7395 18.1043 38.6795C18.0643 38.6795 18.0243 38.6795 17.9943 38.6795Z" fill="#72182F"/>
<path d="M17.6742 45.9094C17.9742 45.9094 18.2442 45.6594 18.2242 45.3594C18.3342 47.4694 18.6742 49.5594 19.2342 51.5994C19.2142 51.5394 19.1842 51.4794 19.1442 51.4294C19.1042 51.3794 19.0542 51.3394 19.0042 51.2994C18.9542 51.2594 18.8942 51.2294 18.8342 51.2094C18.7742 51.1894 18.7042 51.1794 18.6442 51.1794C18.6042 51.1794 18.5642 51.1794 18.5242 51.1894C18.2542 51.2294 18.0542 51.4594 18.0842 51.7394C17.5242 49.6794 17.1842 47.5594 17.0742 45.4294C17.0742 45.4994 17.1042 45.5694 17.1342 45.6294C17.1642 45.6894 17.2142 45.7394 17.2642 45.7794C17.3142 45.8194 17.3842 45.8594 17.4542 45.8794C17.5142 45.8994 17.5942 45.9094 17.6742 45.9094Z" fill="#A1010D"/>
<path d="M88.554 52.1098C88.774 52.1098 88.994 51.9798 89.054 51.7598C88.794 53.7898 88.314 55.7798 87.614 57.7098C87.654 57.4498 87.464 57.2098 87.234 57.1198C87.214 57.1098 87.194 57.1098 87.174 57.0998C87.154 57.0898 87.134 57.0898 87.114 57.0898C87.094 57.0898 87.074 57.0798 87.054 57.0798C87.034 57.0798 87.014 57.0798 86.994 57.0798C86.934 57.0798 86.884 57.0898 86.824 57.0998C86.774 57.1098 86.724 57.1398 86.674 57.1598C86.634 57.1898 86.594 57.2198 86.554 57.2598C86.524 57.2998 86.494 57.3498 86.474 57.3998C86.304 57.8798 86.114 58.3498 85.914 58.8198C85.714 59.2898 85.504 59.7498 85.274 60.2098C85.044 60.6698 84.804 61.1198 84.554 61.5698C84.304 62.0198 84.034 62.4598 83.754 62.8898C83.714 62.9498 83.694 63.0098 83.684 63.0798C83.674 63.1498 83.684 63.2198 83.704 63.2798C83.724 63.3498 83.764 63.4098 83.804 63.4698C83.854 63.5298 83.914 63.5798 83.984 63.6198L84.304 63.7098C84.444 63.7098 84.584 63.6598 84.684 63.5598C83.564 65.2898 82.254 66.8998 80.804 68.3698C80.924 68.1498 80.824 67.8898 80.644 67.7398C80.614 67.7198 80.584 67.6898 80.554 67.6698C80.524 67.6498 80.484 67.6398 80.454 67.6198C80.414 67.6098 80.384 67.5998 80.344 67.5898C80.304 67.5798 80.274 67.5798 80.234 67.5798C80.194 67.5798 80.164 67.5798 80.124 67.5898C80.084 67.5998 80.054 67.6098 80.014 67.6198C79.984 67.6298 79.944 67.6498 79.914 67.6698C79.884 67.6898 79.854 67.7098 79.824 67.7398C78.314 69.2498 76.644 70.5998 74.854 71.7698C74.584 71.9198 74.564 72.2798 74.754 72.4998C74.784 72.5398 74.824 72.5698 74.854 72.5998C74.894 72.6298 74.934 72.6498 74.974 72.6798C75.014 72.7098 75.064 72.7198 75.104 72.7298C75.154 72.7398 75.194 72.7498 75.244 72.7498L75.484 72.6798C73.634 73.8798 71.664 74.8998 69.624 75.7198C69.834 75.5798 69.894 75.2998 69.784 75.0698C69.674 74.8598 69.444 74.7398 69.214 74.7398C69.194 74.7398 69.174 74.7398 69.154 74.7398C69.134 74.7398 69.114 74.7398 69.094 74.7498C69.074 74.7498 69.054 74.7598 69.034 74.7598C69.014 74.7698 68.994 74.7698 68.974 74.7798C68.454 74.9898 67.934 75.1798 67.404 75.3598C66.874 75.5398 66.334 75.7098 65.794 75.8698C65.254 76.0298 64.704 76.1698 64.154 76.2998C63.604 76.4298 63.044 76.5498 62.484 76.6598C62.194 76.7098 61.974 76.9898 62.074 77.2898C62.154 77.5798 62.444 77.7198 62.724 77.7198C60.404 78.1598 58.044 78.3798 55.694 78.3898C55.984 78.3898 56.244 78.1598 56.224 77.8498C56.224 77.7798 56.194 77.7098 56.164 77.6398C56.124 77.5798 56.084 77.5198 56.024 77.4698C55.964 77.4198 55.894 77.3798 55.824 77.3598C55.744 77.3298 55.664 77.3198 55.584 77.3198C67.264 77.2598 79.024 71.6298 84.754 61.1398C86.384 58.1598 87.454 54.8798 87.884 51.5098C87.874 51.7998 88.124 52.0498 88.404 52.0898L88.554 52.1098Z" fill="#72182F"/>
<path d="M20.0244 54.0605C24.8644 67.1505 38.0544 75.8506 51.6844 77.1506C50.6844 77.0506 49.6744 76.9205 48.6844 76.7505C48.6744 76.7505 48.6644 76.7505 48.6544 76.7405C48.6444 76.7405 48.6344 76.7405 48.6244 76.7405C48.6144 76.7405 48.6044 76.7405 48.5944 76.7405C48.5844 76.7405 48.5744 76.7405 48.5644 76.7405C48.4944 76.7405 48.4244 76.7505 48.3644 76.7705C48.3044 76.7905 48.2444 76.8205 48.2044 76.8605C48.1544 76.9006 48.1144 76.9405 48.0844 77.0005C48.0544 77.0505 48.0344 77.1105 48.0244 77.1805C47.9744 77.4506 48.1744 77.7006 48.4244 77.7906C46.0844 77.3806 43.7744 76.7605 41.5444 75.9505L41.7244 75.9905C41.9544 75.9905 42.1644 75.8605 42.2444 75.6405C42.2744 75.5705 42.2844 75.5005 42.2744 75.4305C42.2744 75.3605 42.2544 75.2905 42.2144 75.2305C42.1844 75.1705 42.1344 75.1105 42.0744 75.0605C42.0144 75.0105 41.9444 74.9706 41.8644 74.9406C41.3144 74.7406 40.7644 74.5305 40.2244 74.3105C39.6844 74.0905 39.1444 73.8505 38.6144 73.6005C38.0844 73.3505 37.5544 73.0905 37.0444 72.8205C36.5244 72.5505 36.0144 72.2606 35.5144 71.9706C35.4944 71.9506 35.4644 71.9405 35.4344 71.9305C35.4044 71.9205 35.3844 71.9106 35.3544 71.9006C35.3244 71.8906 35.3044 71.8905 35.2744 71.8805C35.2444 71.8805 35.2244 71.8805 35.1944 71.8805C35.1444 71.8805 35.1044 71.8906 35.0544 71.9006C35.0044 71.9106 34.9644 71.9305 34.9244 71.9505C34.8844 71.9705 34.8444 72.0005 34.8044 72.0305C34.7644 72.0605 34.7344 72.0905 34.7144 72.1305C34.5744 72.3405 34.6144 72.6105 34.7944 72.7906C32.8244 71.6306 30.9544 70.3005 29.2144 68.8205C29.3044 68.8705 29.4144 68.8905 29.5144 68.8905C29.5544 68.8905 29.5944 68.8905 29.6244 68.8805C29.6644 68.8705 29.6944 68.8605 29.7344 68.8505C29.7744 68.8405 29.8044 68.8205 29.8344 68.8005C29.8644 68.7805 29.8944 68.7605 29.9244 68.7305C30.1444 68.5105 30.1044 68.1706 29.8844 67.9706C28.1644 66.5006 26.5744 64.8705 25.1644 63.1005C25.1344 63.0605 25.1044 63.0305 25.0644 63.0005C25.0244 62.9705 24.9844 62.9506 24.9444 62.9305C24.9044 62.9105 24.8544 62.9005 24.8144 62.8905C24.7644 62.8805 24.7244 62.8805 24.6744 62.8805C24.6444 62.8805 24.6144 62.8805 24.5844 62.8905C24.5544 62.8905 24.5244 62.9005 24.5044 62.9105C24.4744 62.9205 24.4444 62.9305 24.4244 62.9405C24.3944 62.9505 24.3744 62.9605 24.3444 62.9805C24.1344 63.1205 24.0544 63.3806 24.1644 63.6105C22.7944 61.8905 21.5944 60.0405 20.5744 58.0905C20.6944 58.2405 20.8844 58.3405 21.0844 58.3405L21.3044 58.3005C21.5844 58.2005 21.7344 57.8805 21.5844 57.6105C21.4344 57.3205 21.2944 57.0405 21.1544 56.7505C21.0144 56.4605 20.8844 56.1705 20.7544 55.8805C20.6244 55.5905 20.5044 55.2905 20.3844 55.0005C20.2444 54.6605 20.1344 54.3605 20.0244 54.0605C21.1544 57.1305 20.1344 54.3605 20.0244 54.0605Z" fill="#72182F"/>
<path d="M45.1748 0.209063C46.2948 0.119062 47.4148 0.0590625 48.5348 0.0390625C47.4148 0.0590625 46.2948 0.119062 45.1748 0.209063Z" fill="url(#paint0_linear)"/>
<path d="M58.3943 0.698594C56.1643 0.358594 53.9043 0.138594 51.6543 0.0585938C53.9143 0.148594 56.1643 0.368594 58.3943 0.698594Z" fill="url(#paint1_linear)"/>
<path d="M58.3945 0.699219C58.4245 0.699219 58.4545 0.709219 58.4845 0.709219C58.4545 0.709219 58.4245 0.709219 58.3945 0.699219Z" fill="url(#paint2_linear)"/>
<path d="M103.295 37.7793C103.305 37.7993 103.305 37.8193 103.315 37.8393C103.305 37.8193 103.305 37.7993 103.295 37.7793C102.565 37.8493 103.395 38.1693 103.295 37.7793Z" fill="url(#paint3_linear)"/>
<path d="M1.31445 38.1296C1.33445 37.9496 1.36445 37.7796 1.39445 37.5996H1.38445C1.35445 37.7696 1.33445 37.9496 1.31445 38.1296Z" fill="url(#paint4_linear)"/>
<defs>
<linearGradient id="paint0_linear" x1="46.8552" y1="0.0397625" x2="46.8552" y2="0.207763" gradientUnits="userSpaceOnUse">
<stop stop-color="white"/>
<stop offset="1"/>
</linearGradient>
<linearGradient id="paint1_linear" x1="55.024" y1="0.0651938" x2="55.024" y2="0.700894" gradientUnits="userSpaceOnUse">
<stop stop-color="white"/>
<stop offset="1"/>
</linearGradient>
<linearGradient id="paint2_linear" x1="58.4424" y1="0.701519" x2="58.4424" y2="0.715219" gradientUnits="userSpaceOnUse">
<stop stop-color="white"/>
<stop offset="1"/>
</linearGradient>
<linearGradient id="paint3_linear" x1="103.154" y1="37.7773" x2="103.154" y2="37.9694" gradientUnits="userSpaceOnUse">
<stop stop-color="white"/>
<stop offset="1"/>
</linearGradient>
<linearGradient id="paint4_linear" x1="1.35415" y1="37.5916" x2="1.35415" y2="38.1248" gradientUnits="userSpaceOnUse">
<stop stop-color="white"/>
<stop offset="1"/>
</linearGradient>
</defs>
</svg>
