<svg width="56" height="71" viewBox="0 0 56 71" fill="none" xmlns="http://www.w3.org/2000/svg">
<path d="M31.7778 37.679C32.2353 40.2935 33.7811 42.6119 36.0188 44.0394C37.5546 45.0192 39.3328 45.5267 41.1264 45.5265C41.6041 45.5265 42.083 45.4894 42.5586 45.4166L46.2485 59.1874L42.8509 60.0977C41.0999 60.5668 40.0571 62.3732 40.5262 64.1241C40.7535 64.9724 41.2975 65.6813 42.058 66.1203C42.5645 66.4128 43.1267 66.5622 43.6964 66.5622C43.9819 66.5622 44.2693 66.5246 44.5527 66.4487L53.3485 64.0918C54.1969 63.8646 54.9057 63.3207 55.3448 62.5602C55.784 61.7997 55.9005 60.9137 55.6732 60.0655C55.4459 59.2172 54.902 58.5083 54.1415 58.0693C53.381 57.6302 52.4952 57.5138 51.6468 57.7409L48.2492 58.6513L44.5593 44.8805C46.6901 44.0495 48.4706 42.4647 49.5345 40.4178C50.7586 38.0626 50.9381 35.2821 50.0271 32.789L49.6121 31.6535C49.4157 31.1161 48.8207 30.8398 48.2837 31.0362C47.7464 31.2324 47.4701 31.827 47.6665 32.3644L48.0814 33.4999C48.8039 35.4771 48.6672 37.5946 47.6964 39.4625C46.7256 41.3304 45.0711 42.659 43.0378 43.204C41.004 43.7484 38.9071 43.4253 37.1325 42.293C35.3579 41.1609 34.1807 39.3955 33.8178 37.3219L32.8665 31.8859C33.3505 31.7312 33.7404 31.7157 34.1968 31.6982C35.0048 31.6671 35.9205 31.6321 37.3003 30.8812C38.6803 30.1303 39.2073 29.3804 39.6721 28.7188C40.0705 28.1519 40.3852 27.7041 41.3392 27.185C42.2933 26.6659 42.8402 26.6449 43.5326 26.6182C44.0847 26.5971 44.689 26.5729 45.4573 26.3197L46.1159 28.1219C46.3122 28.6591 46.9068 28.9355 47.4443 28.7392C47.9816 28.543 48.2579 27.9484 48.0615 27.411L43.4124 14.6884C42.9798 13.5044 41.735 12.8577 40.5171 13.1837L30.2101 15.9454C28.9922 16.2717 28.2378 17.4545 28.4552 18.6964L31.7778 37.679ZM30.7467 17.946L41.0538 15.1843C41.2278 15.1378 41.4053 15.2302 41.4674 15.3993L44.7462 24.3721C44.2791 24.5157 43.8966 24.5312 43.4534 24.5483C42.6454 24.5794 41.7296 24.6145 40.3496 25.3654C38.9696 26.1164 38.4427 26.8662 37.9778 27.5279C37.5794 28.0947 37.2647 28.5426 36.3107 29.0617C35.3569 29.5808 34.8101 29.6016 34.1178 29.6283C33.6441 29.6465 33.1308 29.6664 32.5076 29.8325L30.4962 18.3391C30.465 18.1615 30.5727 17.9926 30.7467 17.946ZM53.551 61.5243C53.3886 61.8055 53.1263 62.0067 52.8126 62.0909C52.8126 62.0909 52.8126 62.0909 52.8124 62.0909L44.0165 64.4478C43.7027 64.5316 43.375 64.4886 43.0937 64.3263C42.8124 64.1639 42.6112 63.9016 42.5271 63.5878C42.443 63.2739 42.4861 62.9462 42.6485 62.6649C42.8109 62.3836 43.0733 62.1824 43.387 62.0981L52.183 59.7414C52.2878 59.7134 52.394 59.6994 52.4997 59.6994C52.7104 59.6994 52.9184 59.7546 53.1058 59.8629C53.3871 60.0253 53.5883 60.2876 53.6724 60.6014C53.7565 60.9153 53.7134 61.243 53.551 61.5243Z" fill="black"/>
<path d="M30.4437 11.6919C30.8406 11.6919 31.2349 11.5676 31.5717 11.3227C32.168 10.8894 32.461 10.1691 32.3363 9.44283L32.0204 7.60008L33.3591 6.29522C33.8869 5.78081 34.0732 5.02571 33.8454 4.32487C33.6177 3.62404 33.0231 3.12275 32.2939 3.01683L30.4439 2.7481L29.6164 1.07148C29.2902 0.410558 28.6297 0 27.8928 0C27.1558 0 26.4954 0.410558 26.1693 1.07148L25.3418 2.7481L23.4919 3.01683C22.7626 3.12275 22.168 3.62404 21.9402 4.32487C21.7125 5.02571 21.8988 5.78081 22.4266 6.29536L23.7653 7.60008L23.4492 9.44283C23.3246 10.1692 23.6177 10.8897 24.214 11.3227C24.8101 11.7559 25.5857 11.812 26.2382 11.4691L27.8928 10.5991L29.5476 11.4691C29.8313 11.6182 30.1383 11.6919 30.4437 11.6919ZM26.9983 8.72915L25.5419 9.49475L25.8202 7.87296C25.927 7.24918 25.7205 6.61325 25.2674 6.17162L24.0891 5.02336L25.7178 4.78666C26.344 4.69538 26.8849 4.30223 27.1647 3.73521L27.8928 2.25952L28.621 3.73493C28.9008 4.30209 29.4417 4.69525 30.0683 4.78653L31.6967 5.02322L30.5183 6.17162C30.0654 6.61312 29.8586 7.24918 29.9656 7.87282L30.2438 9.49462L28.7876 8.72901C28.2273 8.43432 27.5582 8.43432 26.9983 8.72915Z" fill="black"/>
<path d="M19.997 11.632C20.1989 11.9166 20.5181 12.0683 20.8424 12.0683C21.0497 12.0683 21.259 12.0062 21.441 11.8771C21.9075 11.5461 22.0173 10.8995 21.6861 10.433L18.3658 5.75463C18.0348 5.28828 17.3882 5.17849 16.9217 5.50951C16.4552 5.84052 16.3454 6.48708 16.6766 6.95357L19.997 11.632Z" fill="black"/>
<path d="M11.8172 13.9338L17.8166 15.6581C17.9122 15.6856 18.0084 15.6987 18.1032 15.6987C18.5532 15.6987 18.9676 15.4029 19.0982 14.9487C19.2563 14.3991 18.9386 13.8252 18.3889 13.6673L12.3895 11.9431C11.8397 11.7847 11.2659 12.1026 11.1079 12.6524C10.95 13.2022 11.2674 13.776 11.8172 13.9338Z" fill="black"/>
<path d="M35.4934 12.4016C35.7237 12.4016 35.9557 12.3251 36.1481 12.168L41.213 8.02926C41.6561 7.66731 41.7216 7.01481 41.3597 6.5718C40.9978 6.12906 40.3454 6.06305 39.9024 6.42514L34.8375 10.5639C34.3944 10.9258 34.3288 11.5783 34.6908 12.0213C34.8956 12.2718 35.1932 12.4016 35.4934 12.4016Z" fill="black"/>
<path d="M5.75937 36.9319C4.84835 39.4249 5.02788 42.2055 6.25196 44.5607C7.3157 46.6074 9.09631 48.1922 11.2271 49.0234L7.53735 62.794L4.13979 61.8837C2.38915 61.4144 0.582722 62.4575 0.113474 64.2084C-0.113831 65.0566 0.00272124 65.9426 0.441865 66.7029C0.881008 67.4636 1.58985 68.0075 2.43803 68.2347L11.234 70.5916C11.5179 70.6677 11.8033 70.704 12.0841 70.704C13.5355 70.7038 14.8673 69.734 15.2605 68.267C15.7296 66.516 14.6868 64.7097 12.9358 64.2406L9.53821 63.3302L13.2277 49.5609C13.709 49.6354 14.193 49.6738 14.6765 49.6738C15.7064 49.6738 16.7331 49.5047 17.7205 49.1677C18.2618 48.9831 18.551 48.3944 18.3662 47.853C18.1815 47.3116 17.5928 47.0223 17.0516 47.2073C15.6633 47.681 14.1753 47.729 12.7487 47.3471C10.7152 46.8021 9.06082 45.4734 8.09001 43.6055C7.11919 41.7378 6.98248 39.6202 7.705 37.643L9.59911 32.4597C10.0956 32.5677 10.4409 32.7493 10.845 32.9624C11.5602 33.3394 12.371 33.7669 13.9412 33.8065C15.5115 33.8455 16.3431 33.4602 17.0766 33.1196C17.705 32.828 18.2014 32.5954 19.2873 32.625C20.3732 32.6523 20.8573 32.9077 21.4702 33.2308C21.9589 33.4884 22.4945 33.7697 23.2864 33.9347L21.9686 41.4649C21.7416 42.762 21.1761 43.9739 20.333 44.9699C19.9635 45.4065 20.0177 46.0601 20.4544 46.4296C20.649 46.5942 20.8866 46.6747 21.123 46.6747C21.417 46.6747 21.7093 46.5501 21.9142 46.3082C22.9945 45.0319 23.7188 43.4805 24.0091 41.822L27.3313 22.8393C27.5486 21.5974 26.7942 20.4146 25.5762 20.0883L15.2693 17.3266C14.0509 16.9998 12.8067 17.6471 12.3739 18.8313L11.1067 22.2992C10.9103 22.8365 11.1868 23.4311 11.724 23.6275C12.261 23.8232 12.8558 23.5474 13.0523 23.0101L14.3195 19.5422C14.3814 19.3731 14.5587 19.2808 14.7332 19.3272L25.0401 22.0889C25.2141 22.1355 25.322 22.3044 25.2909 22.482L23.6441 31.892C23.168 31.7829 22.8288 31.605 22.4365 31.3981C21.7211 31.0211 20.9105 30.5937 19.34 30.554C17.7693 30.5141 16.9381 30.9003 16.2046 31.2409C15.5762 31.5325 15.0798 31.7652 13.9939 31.7355C12.9083 31.7082 12.4243 31.453 11.8114 31.1298C11.3921 30.9087 10.9378 30.6693 10.3149 30.5016L11.5032 27.2499C11.6995 26.7126 11.4231 26.1179 10.8859 25.9217C10.3487 25.7253 9.75392 26.0016 9.55754 26.539L5.75937 36.9319ZM12.3994 66.2414C12.7132 66.3255 12.9755 66.5267 13.1379 66.8082C13.3003 67.0896 13.3434 67.4172 13.2595 67.7311C13.0857 68.3786 12.4176 68.7639 11.77 68.591L2.97385 66.2341C2.66023 66.15 2.39799 65.9488 2.23545 65.6674C2.07305 65.3861 2.02996 65.0584 2.11406 64.7446C2.25948 64.2018 2.7522 63.843 3.28912 63.843C3.39296 63.843 3.49847 63.8565 3.60342 63.8845L12.3994 66.2414Z" fill="black"/>
</svg>
