<svg width="71" height="71" viewBox="0 0 71 71" fill="none" xmlns="http://www.w3.org/2000/svg">
<path d="M70.7188 34.2188V0H22.8125V11.4062H16.4934C17.5816 10.1938 18.25 8.59803 18.25 6.84375C18.25 3.06942 15.1806 0 11.4062 0C7.63192 0 4.5625 3.06942 4.5625 6.84375C4.5625 8.89231 5.47158 10.7287 6.90192 11.9834C2.89148 13.3807 0 17.1904 0 21.6719V25.0938C0 27.61 2.04628 29.6562 4.5625 29.6562V41.6328C4.5625 42.2476 4.7142 42.8236 4.96286 43.3438H0V52.4688H4.96172C4.7085 53.1839 4.5625 53.9493 4.5625 54.75C4.5625 56.7986 5.47158 58.635 6.90192 59.8897C2.89148 61.2869 0 65.0966 0 69.5781V70.7188H20.5312H22.8125H41.0625H43.3438H63.875V69.5781C63.875 65.0966 60.9835 61.2869 56.9731 59.8897C58.4034 58.635 59.3125 56.7986 59.3125 54.75C59.3125 53.9493 59.1665 53.1839 58.9133 52.4688H70.7188V43.3438H63.38L57.905 34.2188H70.7188ZM25.0938 2.28125H68.4375V31.9375H25.0938V18.25H28.5156C30.0007 18.25 31.2554 17.293 31.7276 15.9688H45.625V4.5625H27.375V11.4062H25.0938V2.28125ZM17.8496 43.3438C18.0983 42.8236 18.25 42.2476 18.25 41.6328V18.25H22.8125V34.2188H35.6263L30.1513 43.3438H17.8496ZM38.2862 34.2188H41.3294L35.8544 43.3438H32.8112L38.2862 34.2188ZM43.3438 35.2955V43.3438H38.5143L43.3438 35.2955ZM45.625 34.2188H47.9062V43.3438H45.625V34.2188ZM50.1875 35.2955L55.0169 43.3438H50.1875V35.2955ZM31.7276 13.6875C31.3832 12.7214 30.6224 11.9606 29.6562 11.6161V6.84375H43.3438V13.6875H31.7276ZM11.4062 2.28125C13.9225 2.28125 15.9688 4.32753 15.9688 6.84375C15.9688 9.35997 13.9225 11.4062 11.4062 11.4062C8.89003 11.4062 6.84375 9.35997 6.84375 6.84375C6.84375 4.32753 8.89003 2.28125 11.4062 2.28125ZM6.84375 41.6328V21.6719H4.5625V27.375C3.30439 27.375 2.28125 26.3519 2.28125 25.0938V21.6719C2.28125 17.2691 5.86281 13.6875 10.2656 13.6875H28.5156C29.1441 13.6875 29.6562 14.1996 29.6562 14.8281C29.6562 15.4566 29.1441 15.9688 28.5156 15.9688H15.9688V41.6328C15.9688 42.5761 15.2011 43.3438 14.2578 43.3438C13.3145 43.3438 12.5469 42.5761 12.5469 41.6328V26.2344H10.2656V41.6328C10.2656 42.5761 9.49798 43.3438 8.55469 43.3438C7.61139 43.3438 6.84375 42.5761 6.84375 41.6328ZM11.4062 50.1875C13.9225 50.1875 15.9688 52.2338 15.9688 54.75C15.9688 57.2662 13.9225 59.3125 11.4062 59.3125C8.89003 59.3125 6.84375 57.2662 6.84375 54.75C6.84375 52.2338 8.89003 50.1875 11.4062 50.1875ZM2.36223 68.4375C2.91772 64.5731 6.24948 61.5938 10.2656 61.5938H12.5469C16.563 61.5938 19.8948 64.5731 20.4503 68.4375H2.36223ZM15.9106 59.8897C17.3409 58.635 18.25 56.7986 18.25 54.75C18.25 53.9493 18.104 53.1839 17.8508 52.4688H25.493C25.2397 53.1839 25.0938 53.9493 25.0938 54.75C25.0938 56.7986 26.0028 58.635 27.4332 59.8897C24.9318 60.7611 22.8707 62.5678 21.6719 64.8959C20.4719 62.5678 18.4108 60.7611 15.9106 59.8897ZM36.5 54.75C36.5 57.2662 34.4537 59.3125 31.9375 59.3125C29.4213 59.3125 27.375 57.2662 27.375 54.75C27.375 52.2338 29.4213 50.1875 31.9375 50.1875C34.4537 50.1875 36.5 52.2338 36.5 54.75ZM22.8935 68.4375C23.449 64.5731 26.7807 61.5938 30.7969 61.5938H33.0781C37.0943 61.5938 40.426 64.5731 40.9815 68.4375H22.8935ZM36.4418 59.8897C37.8722 58.635 38.7812 56.7986 38.7812 54.75C38.7812 53.9493 38.6353 53.1839 38.382 52.4688H46.0242C45.771 53.1839 45.625 53.9493 45.625 54.75C45.625 56.7986 46.5341 58.635 47.9644 59.8897C45.463 60.7611 43.4019 62.5678 42.2031 64.8959C41.0032 62.5678 38.9421 60.7611 36.4418 59.8897ZM53.6094 61.5938C57.6255 61.5938 60.9573 64.5731 61.5128 68.4375H43.4247C43.9802 64.5731 47.312 61.5938 51.3281 61.5938H53.6094ZM52.4688 59.3125C49.9525 59.3125 47.9062 57.2662 47.9062 54.75C47.9062 52.2338 49.9525 50.1875 52.4688 50.1875C54.985 50.1875 57.0312 52.2338 57.0312 54.75C57.0312 57.2662 54.985 59.3125 52.4688 59.3125ZM68.4375 50.1875H57.5559C56.3024 48.7914 54.4899 47.9062 52.4688 47.9062C50.4476 47.9062 48.6362 48.7914 47.3816 50.1875H37.0247C35.7711 48.7914 33.9587 47.9062 31.9375 47.9062C29.9163 47.9062 28.105 48.7914 26.8503 50.1875H16.4934C15.2399 48.7914 13.4274 47.9062 11.4062 47.9062C9.38506 47.9062 7.57375 48.7914 6.31906 50.1875H2.28125V45.625H68.4375V50.1875ZM60.72 43.3438H57.6768L52.2018 34.2188H55.245L60.72 43.3438Z" fill="black"/>
<path d="M45.625 25.0938V27.375H43.3438V18.25H41.0625V27.375H38.7812V29.6562H66.1562V13.6875H63.875V27.375H61.5938V15.9688H59.3125V27.375H57.0312V22.8125H54.75V27.375H52.4688V20.5312H50.1875V27.375H47.9062V25.0938H45.625Z" fill="black"/>
<path d="M47.9062 4.5625H50.1875V6.84375H47.9062V4.5625Z" fill="black"/>
<path d="M52.4688 4.5625H66.1562V6.84375H52.4688V4.5625Z" fill="black"/>
<path d="M47.9062 9.125H66.1562V11.4062H47.9062V9.125Z" fill="black"/>
<path d="M27.375 22.8125H29.6562V25.0938H27.375V22.8125Z" fill="black"/>
<path d="M27.375 27.375H29.6562V29.6562H27.375V27.375Z" fill="black"/>
</svg>
