<svg width="72" height="71" viewBox="0 0 72 71" fill="none" xmlns="http://www.w3.org/2000/svg">
<path d="M37.0236 30.3946C36.8681 30.3766 36.7105 30.3895 36.56 30.4328C36.4096 30.4761 36.2692 30.5488 36.147 30.6468C36.0249 30.7447 35.9234 30.8659 35.8484 31.0034C35.7735 31.1409 35.7265 31.2918 35.7104 31.4476L35.5211 33.2577C35.4961 33.4782 35.4096 33.6871 35.2715 33.8607C35.1334 34.0344 34.9493 34.1657 34.7402 34.2397L26.8607 36.9845C26.6181 37.0689 26.4094 37.23 26.2664 37.4434C26.1234 37.6569 26.0538 37.9111 26.068 38.1676V48.7328C26.0671 48.8885 26.097 49.0428 26.1559 49.187C26.2147 49.3311 26.3015 49.4622 26.4111 49.5728L32.8236 56.0089C33.0267 56.2193 33.1447 56.4974 33.1549 56.7897V67.4377C33.1549 67.7515 33.0302 68.0524 32.8083 68.2743C32.5865 68.4961 32.2855 68.6208 31.9717 68.6208C31.658 68.6208 31.357 68.4961 31.1352 68.2743C30.9133 68.0524 30.7886 67.7515 30.7886 67.4377V57.7717C30.7895 57.616 30.7597 57.4616 30.7008 57.3175C30.6419 57.1733 30.5552 57.0422 30.4455 56.9317L23.5954 50.0342C23.4848 49.9245 23.3537 49.8378 23.2095 49.7789C23.0654 49.72 22.911 49.6902 22.7553 49.6911H20.1407C19.8269 49.6911 19.526 49.8157 19.3041 50.0376C19.0822 50.2595 18.9576 50.5604 18.9576 50.8742V60.339C18.9566 60.5339 18.9074 60.7255 18.8146 60.8968C18.7217 61.0681 18.5879 61.2138 18.4252 61.321L7.77722 68.4197C7.51639 68.5909 7.19847 68.6521 6.89269 68.5901C6.5869 68.5281 6.318 68.3477 6.14453 68.0884C5.9733 67.8275 5.91204 67.5096 5.97408 67.2038C6.03613 66.8981 6.21645 66.6292 6.4758 66.4557L16.059 60.0551C16.2217 59.9479 16.3555 59.8022 16.4483 59.6309C16.5412 59.4596 16.5904 59.268 16.5914 59.0731V50.8742C16.5914 50.5604 16.4667 50.2595 16.2448 50.0376C16.023 49.8157 15.722 49.6911 15.4083 49.6911C15.0945 49.6911 14.7935 49.8157 14.5717 50.0376C14.3498 50.2595 14.2252 50.5604 14.2252 50.8742V58.4342L5.16256 64.4799C4.52702 64.9015 4.04417 65.5165 3.78553 66.234C3.52689 66.9514 3.50623 67.7331 3.72659 68.4632C3.94695 69.1933 4.39662 69.8331 5.00899 70.2876C5.62137 70.7422 6.36387 70.9874 7.12651 70.987C7.82511 70.9874 8.5083 70.7816 9.09047 70.3954L19.7384 63.2968C20.2261 62.9728 20.6261 62.5332 20.9028 62.0171C21.1794 61.5011 21.324 60.9246 21.3238 60.339V52.0573H22.2584L28.4224 58.2568V67.4377C28.4224 68.379 28.7964 69.2818 29.462 69.9474C30.1276 70.613 31.0304 70.987 31.9717 70.987C32.9131 70.987 33.8159 70.613 34.4815 69.9474C35.1471 69.2818 35.5211 68.379 35.5211 67.4377V56.7897C35.5234 55.8504 35.1532 54.9485 34.4918 54.2815L28.4224 48.1885V38.9485L35.5211 36.4758C36.1545 36.2565 36.713 35.8624 37.1317 35.3389C37.5505 34.8155 37.8124 34.1842 37.8873 33.518L38.0884 31.7079C38.1064 31.5514 38.093 31.393 38.049 31.2418C38.005 31.0906 37.9312 30.9497 37.832 30.8274C37.7329 30.7051 37.6103 30.6038 37.4715 30.5295C37.3326 30.4552 37.1804 30.4093 37.0236 30.3946Z" fill="black"/>
<path d="M12.9001 44.9589L14.2252 43.8941V46.1421C14.2252 46.4558 14.3498 46.7568 14.5717 46.9786C14.7936 47.2005 15.0945 47.3252 15.4083 47.3252C15.7221 47.3252 16.023 47.2005 16.2449 46.9786C16.4668 46.7568 16.5914 46.4558 16.5914 46.1421V41.4096C16.5908 41.1866 16.5271 40.9683 16.4078 40.78C16.2885 40.5916 16.1184 40.4407 15.917 40.3448C15.7259 40.2601 15.5158 40.2274 15.3079 40.2503C15.1001 40.2732 14.9021 40.3507 14.7339 40.475L11.4922 43.0541C11.3656 43.1559 11.2193 43.2305 11.0626 43.2732C10.9059 43.3159 10.742 43.3259 10.5812 43.3026L3.4826 42.226H3.2933C3.00694 42.1581 2.75615 41.986 2.58989 41.7431C2.42363 41.5003 2.35384 41.2042 2.39414 40.9127C2.44402 40.6039 2.61417 40.3274 2.86738 40.1437C3.11796 39.9559 3.4328 39.875 3.74288 39.9189L9.83588 40.8417C9.99583 40.8667 10.1592 40.8586 10.3159 40.8179C10.4726 40.7772 10.6193 40.7048 10.7469 40.6051L16.828 35.7662C17.1315 35.6379 17.4492 35.5465 17.7745 35.4941H18.9576C19.2714 35.4941 19.5723 35.3695 19.7942 35.1476C20.0161 34.9257 20.1407 34.6248 20.1407 34.311V33.8141C20.1415 33.5832 20.0747 33.3571 19.9486 33.1637C19.8225 32.9703 19.6425 32.818 19.4309 32.7256C18.4344 32.2907 17.6181 31.526 17.1191 30.56C16.6202 29.594 16.4691 28.4857 16.6912 27.4214C16.9134 26.3571 17.4952 25.4018 18.3389 24.716C19.1825 24.0302 20.2366 23.6559 21.3238 23.6559C22.4111 23.6559 23.4651 24.0302 24.3088 24.716C25.1525 25.4018 25.7343 26.3571 25.9564 27.4214C26.1786 28.4857 26.0275 29.594 25.5285 30.56C25.0296 31.526 24.2133 32.2907 23.2168 32.7256C23.0052 32.818 22.8252 32.9703 22.6991 33.1637C22.5729 33.3571 22.5061 33.5832 22.5069 33.8141V34.311C22.5069 34.6248 22.6316 34.9257 22.8535 35.1476C23.0753 35.3695 23.3763 35.4941 23.69 35.4941H24.4236C24.7282 35.4929 25.0206 35.3742 25.2399 35.1628C25.3606 35.0425 25.5059 34.9497 25.6658 34.8907L32.5397 32.5245C32.751 32.4523 32.9376 32.3218 33.0779 32.148C33.2182 31.9743 33.3064 31.7643 33.3324 31.5425L34.338 22.3498C34.3737 22.0397 34.5305 21.7562 34.7743 21.5612C35.018 21.3662 35.329 21.2754 35.6394 21.3087C35.794 21.3251 35.9503 21.3108 36.0994 21.2668C36.2485 21.2227 36.3875 21.1497 36.5084 21.0519C36.6292 20.9541 36.7296 20.8335 36.8038 20.6968C36.878 20.5602 36.9246 20.4103 36.9408 20.2557C36.9741 19.9453 36.8833 19.6343 36.6883 19.3906C36.4933 19.1468 36.2098 18.99 35.8997 18.9543C35.4358 18.9016 34.9661 18.941 34.5175 19.0702C34.0689 19.1993 33.6501 19.4157 33.2853 19.707C32.9204 19.9982 32.6166 20.3586 32.3912 20.7674C32.1658 21.1762 32.0233 21.6255 31.9718 22.0895L31.0371 30.5132L27.5706 31.6963C28.1878 30.5342 28.4698 29.2235 28.3852 27.9104C28.3006 26.5973 27.8528 25.3336 27.0916 24.2603C26.3304 23.187 25.2859 22.3464 24.0747 21.8324C22.8635 21.3183 21.5332 21.151 20.2324 21.3491C18.9316 21.5472 17.7115 22.103 16.7082 22.9544C15.705 23.8057 14.9581 24.9192 14.551 26.1704C14.1439 27.4216 14.0925 28.7614 14.4027 30.0401C14.7129 31.3188 15.3723 32.4862 16.3075 33.4118L15.7277 33.6366L15.4675 33.7904L9.67024 38.4045L4.08598 37.5645C3.21245 37.4451 2.32572 37.655 1.59846 38.1534C0.871206 38.6518 0.355491 39.4031 0.151745 40.2609C-0.0520015 41.1187 0.0708078 42.0216 0.496257 42.7938C0.921706 43.5661 1.61934 44.1523 2.4533 44.4384C2.63925 44.4982 2.82896 44.5456 3.02119 44.5804L10.1198 45.657C10.6063 45.7403 11.1048 45.7213 11.5836 45.6011C12.0623 45.4809 12.5107 45.2622 12.9001 44.9589Z" fill="black"/>
<path d="M69.7594 10.3059C69.369 9.96319 68.9081 9.71032 68.4093 9.56518C67.9105 9.42003 67.3859 9.38615 66.8726 9.46593C66.0242 9.63068 65.2616 10.0907 64.7202 10.7642C64.1787 11.4378 63.8934 12.2814 63.9148 13.1454V28.3956H60.9216C61.6277 27.5984 62.1471 26.6537 62.4418 25.6304C62.7366 24.607 62.7992 23.5308 62.6252 22.4801C62.3807 21.0935 61.7293 19.8109 60.7539 18.7955C59.7785 17.78 58.5231 17.0776 57.1474 16.7775C56.1059 16.5575 55.0284 16.5718 53.993 16.8194C52.9577 17.067 51.9903 17.5417 51.1609 18.2091C49.8836 19.2457 49.0059 20.6937 48.6779 22.3057C48.3499 23.9177 48.5919 25.5936 49.3626 27.0469L45.8961 25.8638L44.9733 17.582C44.9064 16.6805 44.5078 15.8356 43.8545 15.2107C43.2012 14.5858 42.3395 14.2251 41.4358 14.1984C40.9396 14.201 40.4495 14.3077 39.9971 14.5115C39.5447 14.7153 39.1401 15.0116 38.8093 15.3815C38.4696 15.7498 38.2118 16.1858 38.0527 16.661C37.8937 17.1361 37.837 17.6395 37.8865 18.1381L39.0696 28.7861C39.1444 29.4522 39.4064 30.0835 39.8252 30.607C40.2439 31.1304 40.8023 31.5246 41.4358 31.7438L48.5344 34.2165V43.4566L42.4651 49.5496C41.8036 50.2165 41.4335 51.1184 41.4358 52.0578V62.5756C41.4144 63.4395 41.6997 64.2832 42.2411 64.9567C42.7826 65.6303 43.5452 66.0903 44.3936 66.255C44.9067 66.3418 45.4326 66.3147 45.934 66.1756C46.4355 66.0366 46.9002 65.7889 47.2953 65.4503C47.6904 65.1116 48.0062 64.6902 48.2204 64.2159C48.4345 63.7416 48.5417 63.2261 48.5344 62.7057V53.5248L54.6984 47.3253H55.6331V67.308C55.6116 68.172 55.897 69.0156 56.4384 69.6892C56.9799 70.3627 57.7425 70.8227 58.5908 70.9875C58.7876 71.005 58.9856 71.005 59.1824 70.9875C60.1237 70.9875 61.0265 70.6135 61.6921 69.9479C62.3578 69.2823 62.7317 68.3795 62.7317 67.4381V39.0436C62.7317 38.7298 62.6071 38.4289 62.3852 38.207C62.1633 37.9851 61.8624 37.8605 61.5486 37.8605C61.2348 37.8605 60.9339 37.9851 60.712 38.207C60.4901 38.4289 60.3655 38.7298 60.3655 39.0436V67.4381C60.368 67.612 60.3322 67.7842 60.2606 67.9427C60.189 68.1011 60.0834 68.2418 59.9512 68.3547C59.819 68.4677 59.6636 68.5502 59.496 68.5962C59.3283 68.6423 59.1526 68.6508 58.9813 68.6212C58.6927 68.5506 58.4374 68.3825 58.2585 68.1454C58.0796 67.9083 57.988 67.6167 57.9993 67.3198V46.1422C57.9993 45.8284 57.8746 45.5275 57.6528 45.3056C57.4309 45.0838 57.13 44.9591 56.8162 44.9591H54.2015C54.0458 44.9582 53.8915 44.9881 53.7473 45.0469C53.6032 45.1058 53.4721 45.1926 53.3615 45.3022L46.5113 52.1997C46.4017 52.3103 46.3149 52.4414 46.256 52.5855C46.1972 52.7297 46.1673 52.884 46.1682 53.0397V62.7057C46.1708 62.8796 46.1349 63.0518 46.0633 63.2102C45.9917 63.3687 45.8861 63.5094 45.7539 63.6223C45.6218 63.7353 45.4663 63.8177 45.2987 63.8638C45.131 63.9098 44.9553 63.9184 44.784 63.8888C44.4955 63.8182 44.2402 63.6501 44.0613 63.413C43.8823 63.1759 43.7908 62.8842 43.802 62.5874V52.0578C43.8011 51.9021 43.831 51.7477 43.8898 51.6036C43.9487 51.4594 44.0355 51.3283 44.1451 51.2178L50.5575 44.7817C50.6672 44.6711 50.754 44.54 50.8128 44.3959C50.8717 44.2517 50.9016 44.0974 50.9007 43.9416V33.3765C50.9021 33.1299 50.8265 32.889 50.6844 32.6875C50.5423 32.486 50.3407 32.3339 50.108 32.2526L42.2285 29.5078C42.0193 29.4337 41.8352 29.3024 41.6972 29.1288C41.5591 28.9552 41.4726 28.7462 41.4476 28.5258L40.2645 17.8778C40.246 17.7146 40.2617 17.5493 40.3106 17.3924C40.3595 17.2356 40.4405 17.0906 40.5485 16.9668C40.6593 16.8406 40.7958 16.7395 40.9488 16.6701C41.1018 16.6008 41.2678 16.5648 41.4358 16.5646C41.7398 16.5935 42.0242 16.7274 42.2402 16.9433C42.4561 17.1592 42.59 17.4437 42.6189 17.7477L43.6127 26.7866C43.6387 27.0084 43.7269 27.2183 43.8672 27.3921C44.0075 27.5659 44.1941 27.6964 44.4054 27.7686L51.2792 30.1348C51.4392 30.1938 51.5844 30.2866 51.7052 30.4069C51.9245 30.6183 52.2169 30.737 52.5215 30.7382H53.2669C53.5806 30.7382 53.8816 30.6135 54.1034 30.3917C54.3253 30.1698 54.45 29.8689 54.45 29.5551V29.0582C54.4508 28.8273 54.384 28.6012 54.2579 28.4078C54.1317 28.2143 53.9517 28.0621 53.7401 27.9697C52.7436 27.5348 51.9273 26.7701 51.4284 25.8041C50.9294 24.8381 50.7783 23.7298 51.0005 22.6655C51.2226 21.6012 51.8044 20.6458 52.6481 19.9601C53.4918 19.2743 54.5458 18.8999 55.6331 18.8999C56.7203 18.8999 57.7744 19.2743 58.6181 19.9601C59.4617 20.6458 60.0435 21.6012 60.2657 22.6655C60.4878 23.7298 60.3367 24.8381 59.8378 25.8041C59.3388 26.7701 58.5225 27.5348 57.526 27.9697C57.3144 28.0621 57.1344 28.2143 57.0083 28.4078C56.8822 28.6012 56.8154 28.8273 56.8162 29.0582V29.5787C56.8162 29.8925 56.9408 30.1934 57.1627 30.4153C57.3846 30.6372 57.6855 30.7618 57.9993 30.7618H63.9148C64.5424 30.7618 65.1442 30.5125 65.588 30.0688C66.0317 29.625 66.281 29.0232 66.281 28.3956V13.1454C66.2692 12.8502 66.3591 12.5598 66.5357 12.3229C66.7123 12.086 66.9648 11.9169 67.2512 11.844C67.4248 11.8133 67.6031 11.8218 67.773 11.8689C67.9429 11.916 68.1001 12.0004 68.2332 12.1161C68.363 12.2272 68.4673 12.3651 68.5388 12.5203C68.6102 12.6755 68.6473 12.8444 68.6472 13.0152V28.3956C68.6472 29.6507 68.1486 30.8545 67.2611 31.742C66.3736 32.6295 65.1699 33.1281 63.9148 33.1281H61.5486C61.2348 33.1281 60.9339 33.2527 60.712 33.4746C60.4901 33.6965 60.3655 33.9974 60.3655 34.3112C60.3655 34.6249 60.4901 34.9259 60.712 35.1477C60.9339 35.3696 61.2348 35.4943 61.5486 35.4943H63.9148C65.7975 35.4943 67.6031 34.7464 68.9343 33.4151C70.2656 32.0839 71.0135 30.2783 71.0135 28.3956V13.0152C71.0137 12.4997 70.9017 11.9902 70.6851 11.5223C70.4685 11.0544 70.1526 10.6393 69.7594 10.3059Z" fill="black"/>
<path d="M3.57686 14.1973C4.51819 14.1973 5.42098 13.8233 6.0866 13.1577C6.75223 12.4921 7.12617 11.5893 7.12617 10.648V7.09864H14.2248V9.67781C13.5141 9.42653 12.7418 9.40807 12.0198 9.62512C11.2979 9.84216 10.6638 10.2834 10.2095 10.885C9.75511 11.4866 9.5041 12.2172 9.4928 12.9709C9.4815 13.7247 9.71049 14.4625 10.1466 15.0774C10.5827 15.6923 11.2033 16.1524 11.9184 16.391C12.6335 16.6296 13.406 16.6343 14.124 16.4044C14.8419 16.1746 15.468 15.7221 15.9116 15.1125C16.3552 14.503 16.5931 13.768 16.591 13.0142V1.18311C16.591 0.869327 16.4664 0.568399 16.2445 0.346524C16.0226 0.124648 15.7217 0 15.4079 0H5.94307C5.62929 0 5.32836 0.124648 5.10649 0.346524C4.88461 0.568399 4.75996 0.869327 4.75996 1.18311V7.3116C4.27181 7.13447 3.75073 7.06662 3.23349 7.11283C2.71625 7.15903 2.21545 7.31818 1.76643 7.57903C1.3174 7.83989 0.93108 8.1961 0.634725 8.62253C0.33837 9.04896 0.139198 9.53523 0.0512604 10.047C-0.0366775 10.5588 -0.0112388 11.0837 0.125782 11.5846C0.262802 12.0855 0.508066 12.5502 0.844272 12.946C1.18048 13.3417 1.59943 13.6589 2.07158 13.8751C2.54373 14.0913 3.05757 14.2013 3.57686 14.1973ZM13.0417 14.1973C12.8077 14.1973 12.579 14.1279 12.3844 13.9979C12.1898 13.8679 12.0382 13.6831 11.9487 13.4669C11.8591 13.2507 11.8357 13.0129 11.8813 12.7834C11.927 12.5539 12.0397 12.3431 12.2051 12.1776C12.3706 12.0121 12.5814 11.8995 12.8109 11.8538C13.0404 11.8081 13.2783 11.8316 13.4945 11.9211C13.7106 12.0107 13.8954 12.1623 14.0254 12.3569C14.1554 12.5514 14.2248 12.7802 14.2248 13.0142C14.2248 13.328 14.1002 13.6289 13.8783 13.8508C13.6564 14.0726 13.3555 14.1973 13.0417 14.1973ZM7.12617 2.36621H14.2248V4.73243H7.12617V2.36621ZM3.57686 9.46485C3.81085 9.46485 4.03959 9.53424 4.23415 9.66424C4.42871 9.79424 4.58036 9.97902 4.6699 10.1952C4.75945 10.4114 4.78288 10.6493 4.73723 10.8788C4.69158 11.1083 4.5789 11.3191 4.41344 11.4845C4.24798 11.65 4.03717 11.7627 3.80767 11.8083C3.57817 11.854 3.34028 11.8306 3.1241 11.741C2.90792 11.6515 2.72314 11.4998 2.59314 11.3053C2.46314 11.1107 2.39375 10.882 2.39375 10.648C2.39375 10.3342 2.5184 10.0333 2.74027 9.81138C2.96215 9.5895 3.26308 9.46485 3.57686 9.46485Z" fill="black"/>
<path d="M46.4758 12.8719C47.042 13.2424 47.704 13.4398 48.3806 13.4398C48.9745 13.4358 49.5586 13.2873 50.0822 13.0069C50.6058 12.7266 51.0532 12.3229 51.3857 11.8307L54.5564 6.83802L59.5492 10.0206C59.7396 10.1436 59.9613 10.2093 60.188 10.2099C60.386 10.2095 60.5807 10.1595 60.7543 10.0645C60.9279 9.96939 61.0749 9.83226 61.1818 9.66565L63.7255 5.66675C63.8202 5.53262 63.8859 5.38025 63.9185 5.21934C63.9511 5.05843 63.9498 4.89249 63.9148 4.73209C63.8417 4.42679 63.6557 4.16049 63.3942 3.98674L57.3841 0.188966C57.1204 0.0199665 56.8004 -0.0375738 56.4944 0.0289603C56.1883 0.0954944 55.9211 0.280673 55.7514 0.543897L53.2669 4.53097L51.1846 7.71352C50.9393 7.39116 50.6389 7.11478 50.2973 6.89718C49.506 6.4371 48.5676 6.3005 47.678 6.51589C46.7884 6.73129 46.0164 7.28202 45.5232 8.0531C45.03 8.82418 44.8538 9.75597 45.0313 10.6539C45.2088 11.5518 45.7263 12.3465 46.4758 12.8719ZM57.1238 2.81546L61.1109 5.35914L59.8213 7.35859L55.8342 4.81491L57.1238 2.81546ZM47.3513 9.25156C47.4593 9.08325 47.6082 8.94506 47.784 8.84989C47.9599 8.75471 48.157 8.70567 48.357 8.70733C48.5818 8.70924 48.8022 8.77045 48.9958 8.8848C49.2572 9.05628 49.4401 9.32425 49.5046 9.63015C49.5723 9.93464 49.517 10.2535 49.3508 10.5175C49.2677 10.6488 49.1595 10.7624 49.0325 10.8519C48.9054 10.9414 48.762 11.005 48.6104 11.0391C48.4588 11.0731 48.3019 11.077 48.1488 11.0504C47.9957 11.0239 47.8494 10.9674 47.7181 10.8842C47.5868 10.8011 47.4731 10.693 47.3836 10.5659C47.2942 10.4389 47.2306 10.2955 47.1965 10.1439C47.1624 9.99226 47.1586 9.83542 47.1852 9.68232C47.2117 9.52921 47.2682 9.38284 47.3513 9.25156Z" fill="black"/>
<path d="M23.6885 11.0394C23.8607 11.8283 24.2969 12.535 24.925 13.0426C25.5531 13.5503 26.3356 13.8285 27.1431 13.8315C27.4015 13.8273 27.6589 13.7996 27.9122 13.7487C28.8294 13.5467 29.6293 12.9894 30.1364 12.1988L33.9578 6.21228C34.1268 5.94858 34.1844 5.62863 34.1178 5.32257C34.0513 5.01651 33.8661 4.74933 33.6029 4.57959C33.3392 4.41059 33.0193 4.35305 32.7132 4.41959C32.4071 4.48612 32.14 4.6713 31.9702 4.93452L29.9353 8.10525C29.6939 7.7836 29.3975 7.50722 29.0598 7.2889C28.2672 6.783 27.3064 6.61223 26.388 6.81408C25.4697 7.01593 24.669 7.57391 24.1617 8.36553C23.9057 8.75585 23.7317 9.19416 23.6503 9.65381C23.569 10.1135 23.582 10.5849 23.6885 11.0394ZM26.1493 9.64328C26.2331 9.51165 26.3421 9.39789 26.47 9.30855C26.5979 9.21921 26.7423 9.15605 26.8947 9.12272C26.981 9.11042 27.0686 9.11042 27.155 9.12272C27.3654 9.1244 27.5715 9.18215 27.7521 9.29002C27.9328 9.39789 28.0814 9.55198 28.1826 9.73641C28.2839 9.92083 28.3341 10.1289 28.3282 10.3392C28.3222 10.5495 28.2603 10.7545 28.1488 10.9329C28.065 11.0645 27.956 11.1783 27.8281 11.2676C27.7002 11.3569 27.5558 11.4201 27.4034 11.4534C27.1756 11.5034 26.9381 11.4848 26.7207 11.4001C26.5034 11.3154 26.3159 11.1684 26.1819 10.9775C26.0479 10.7866 25.9733 10.5603 25.9675 10.3271C25.9617 10.094 26.025 9.86428 26.1493 9.66695V9.64328Z" fill="black"/>
<path d="M40.2524 9.46387C40.5662 9.46387 40.8672 9.33922 41.089 9.11735C41.3109 8.89547 41.4355 8.59455 41.4355 8.28077V3.54834C41.4355 3.23456 41.3109 2.93363 41.089 2.71176C40.8672 2.48988 40.5662 2.36523 40.2524 2.36523C39.9387 2.36523 39.6377 2.48988 39.4159 2.71176C39.194 2.93363 39.0693 3.23456 39.0693 3.54834V8.28077C39.0693 8.59455 39.194 8.89547 39.4159 9.11735C39.6377 9.33922 39.9387 9.46387 40.2524 9.46387Z" fill="black"/>
<path d="M3.57715 23.6616V27.2109C3.57715 27.5247 3.7018 27.8256 3.92367 28.0475C4.14555 28.2694 4.44648 28.394 4.76025 28.394C5.07403 28.394 5.37496 28.2694 5.59684 28.0475C5.81871 27.8256 5.94336 27.5247 5.94336 27.2109V23.6616C5.94336 23.3478 5.81871 23.0469 5.59684 22.825C5.37496 22.6032 5.07403 22.4785 4.76025 22.4785C4.44648 22.4785 4.14555 22.6032 3.92367 22.825C3.7018 23.0469 3.57715 23.3478 3.57715 23.6616Z" fill="black"/>
<path d="M28.4224 20.1123C29.0758 20.1123 29.6055 19.5826 29.6055 18.9292C29.6055 18.2758 29.0758 17.7461 28.4224 17.7461C27.769 17.7461 27.2393 18.2758 27.2393 18.9292C27.2393 19.5826 27.769 20.1123 28.4224 20.1123Z" fill="black"/>
<path d="M22.5063 3.54981C23.1598 3.54981 23.6895 3.02011 23.6895 2.3667C23.6895 1.71329 23.1598 1.18359 22.5063 1.18359C21.8529 1.18359 21.3232 1.71329 21.3232 2.3667C21.3232 3.02011 21.8529 3.54981 22.5063 3.54981Z" fill="black"/>
</svg>
