<svg width="81" height="81" viewBox="0 0 81 81" fill="none" xmlns="http://www.w3.org/2000/svg">
<g clip-path="url(#clip0)">
<path d="M8.69979 22.0647C7.52431 21.3907 6.01969 21.8452 5.42411 23.0521C-0.108483 34.274 0.251998 47.0476 5.50248 57.6112C6.09806 58.818 7.61834 59.2569 8.77815 58.5829L40.3594 40.2454L8.69979 22.0647Z" fill="#FFA000"/>
<path d="M40.4544 76.7793L40.3604 40.2454L8.77914 58.5829C7.61933 59.2568 7.24317 60.7771 7.99548 61.9056C11.2241 66.7485 15.5969 70.9332 20.9728 74.0208C26.3643 77.1084 32.179 78.7698 37.9781 79.1303C39.326 79.2086 40.4544 78.1272 40.4544 76.7793Z" fill="#FFA000"/>
<path d="M40.2816 3.72649C40.2816 2.3786 39.1375 1.29716 37.7896 1.3912C26.0191 2.17485 14.7972 8.28735 7.90105 18.7256C7.14874 19.8541 7.5249 21.3744 8.70038 22.0483L40.3757 40.2291L40.2816 3.72649Z" fill="#FFA000"/>
<path d="M40.7514 2.30054C40.4537 2.69236 40.2812 3.17823 40.2812 3.71111L40.3596 40.2451L40.7514 40.0256V2.30054Z" fill="#FFA000"/>
<path d="M12.1951 24.0703C11.2233 25.763 9.85978 27.2206 9.21718 28.9917C8.55891 30.8097 8.66862 32.8159 8.35516 34.681C8.02603 36.5774 7.24237 38.4269 7.25804 40.3233C7.25804 42.2354 8.05737 44.0848 8.40218 45.9656C8.73131 47.8464 8.63728 49.8525 9.29554 51.6549C9.95381 53.4417 11.333 54.9149 12.2891 56.5763L40.3596 40.2449L12.1951 24.0703Z" fill="#FFE082"/>
<path d="M33.3542 36.217L8.93555 50.4012C9.46843 53.0656 11.0044 54.3821 12.2582 56.5607L40.3601 40.245L33.3542 36.217Z" fill="#FFB300"/>
<path d="M12.2578 56.561C13.2139 58.191 13.7938 60.1345 15.0319 61.5921C16.2544 63.034 18.0412 63.9431 19.5301 65.1812C20.972 66.3881 22.1789 67.9867 23.8716 68.9584C25.5643 69.9302 27.5547 70.1653 29.3258 70.8079C31.1439 71.4661 32.8366 72.5633 34.686 72.8767C36.5824 73.2058 38.5416 72.7357 40.438 72.7357L40.3596 40.2454L12.2578 56.561Z" fill="#FFE082"/>
<path d="M40.3588 40.2454L36.5032 42.4866L36.5659 66.9053C34.6695 66.9053 32.7104 67.3755 30.8139 67.0463C28.9488 66.7172 27.2718 65.6357 25.4537 64.9775C23.6827 64.3349 21.6922 64.0998 19.9995 63.1281C18.3068 62.1563 17.1 60.5577 15.6581 59.3508C14.6706 58.5202 13.5265 57.8462 12.5234 57.0469C13.3228 58.5672 13.9183 60.2756 15.0311 61.6078C16.2536 63.0497 18.0404 63.9587 19.5293 65.1969C20.9712 66.4037 22.1781 68.0024 23.8707 68.9741C25.5634 69.9458 27.5539 70.1809 29.325 70.8235C31.1431 71.4818 32.8357 72.5789 34.6852 72.8924C36.5816 73.2215 38.5407 72.7513 40.4372 72.7513L40.3588 40.2454Z" fill="#FFB300"/>
<path d="M40.2972 7.75482C38.3851 7.75482 36.4259 7.31598 34.5452 7.64511C32.6644 7.97425 30.9874 9.08703 29.185 9.7453C27.3982 10.4036 25.3921 10.6387 23.7464 11.6104C22.1007 12.5665 20.8939 14.1651 19.4207 15.4033C17.9787 16.6258 16.1763 17.5348 14.9382 19.0238C13.7313 20.4657 13.1514 22.3935 12.1797 24.0705L40.3599 40.2451L40.2972 7.75482Z" fill="#FFE082"/>
<path d="M40.2971 7.75458C39.0119 7.75458 37.7111 7.5665 36.4416 7.53516L36.4886 28.9916C36.4886 31.4052 33.8868 32.9255 31.7867 31.7187L13.5745 21.2491C13.12 22.1895 12.7125 23.1612 12.1953 24.0703L40.3598 40.2449L40.2971 7.75458Z" fill="#FFB300"/>
<path d="M40.7514 7.73926C40.5947 7.73926 40.4536 7.75493 40.2969 7.75493L40.3752 40.2452L40.7671 40.0258V7.73926H40.7514Z" fill="#FFE082"/>
<path d="M40.7513 31.9229L40.3438 32.1736L40.3594 40.2453L40.7513 40.0258V31.9229Z" fill="#FFB300"/>
<path d="M30.1243 60.4166C28.8391 62.6422 26.0023 63.4102 23.761 62.1407C21.5355 60.8555 20.7518 58.0187 22.037 55.7774C23.3222 53.5518 26.1747 52.7682 28.4003 54.0534C30.6258 55.3386 31.4095 58.1754 30.1243 60.4166Z" fill="#EF5350"/>
<path d="M21.2072 46.765C19.922 48.9906 17.0852 49.7742 14.8439 48.489C12.6183 47.2038 11.8504 44.367 13.1199 42.1258C14.3894 39.8845 17.2419 39.1165 19.4832 40.4017C21.7087 41.6869 22.4924 44.5394 21.2072 46.765Z" fill="#EF5350"/>
<path d="M36.4876 27.8632C35.2024 30.0887 32.3499 30.8724 30.1243 29.5872C27.8987 28.302 27.1151 25.4495 28.4003 23.2239C29.6855 20.9984 32.538 20.2147 34.7636 21.4999C36.9891 22.7851 37.7571 25.6376 36.4876 27.8632Z" fill="#EF5350"/>
<path d="M22.6188 23.3967C21.9762 24.5095 20.5499 24.9013 19.4372 24.2587C18.3244 23.6161 17.9325 22.1898 18.5751 21.0771C19.2177 19.9643 20.644 19.5724 21.7568 20.215C22.8852 20.8576 23.2614 22.2682 22.6188 23.3967Z" fill="#FFA000"/>
<path d="M28.7301 39.634C28.0875 40.7468 26.6613 41.1386 25.5485 40.496C24.4357 39.8534 24.0439 38.4271 24.6865 37.3144C25.3291 36.2016 26.7553 35.8097 27.8681 36.4523C28.9809 37.0949 29.357 38.5212 28.7301 39.634Z" fill="#FFA000"/>
<path d="M36.9276 14.5258C37.2254 13.272 36.4574 12.0181 35.2035 11.7203C33.9497 11.4225 32.6959 12.1905 32.3981 13.4444C32.1003 14.6982 32.8683 15.9521 34.1221 16.2499C35.3603 16.5476 36.6141 15.7797 36.9276 14.5258Z" fill="#FFA000"/>
<path d="M16.9918 34.885C16.3492 35.9977 14.923 36.3896 13.8102 35.747C12.6974 35.1044 12.3056 33.6781 12.9482 32.5653C13.5908 31.4525 15.017 31.0607 16.1298 31.7033C17.2426 32.3459 17.6344 33.7722 16.9918 34.885Z" fill="#FFA000"/>
<path d="M36.5211 66.7797C35.8785 67.8925 34.4523 68.2843 33.3395 67.6417C32.2267 66.9991 31.8349 65.5729 32.4775 64.4601C33.1201 63.3473 34.5463 62.9555 35.6591 63.5981C36.7719 64.2407 37.1637 65.6513 36.5211 66.7797Z" fill="#FFA000"/>
<path d="M36.5836 51.5146C35.941 52.6274 34.5148 53.0192 33.402 52.3766C32.2892 51.734 31.8974 50.3078 32.54 49.195C33.1826 48.0822 34.6088 47.6904 35.7216 48.333C36.8344 48.9599 37.2262 50.3861 36.5836 51.5146Z" fill="#FFA000"/>
<path d="M29.1995 54.6174C29.0898 58.5357 24.4192 60.6359 21.4257 57.9558C21.3787 59.6171 22.225 61.2471 23.761 62.1248C25.9866 63.41 28.8391 62.6421 30.1243 60.4008C31.237 58.473 30.7982 56.0594 29.1995 54.6174Z" fill="#D32F2F"/>
<path d="M20.2816 40.9822C20.1719 44.9004 15.5013 47.0006 12.5077 44.3205C12.4607 45.9819 13.307 47.6119 14.843 48.4896C17.0686 49.7748 19.9211 49.0068 21.2063 46.7655C22.3191 44.8221 21.8802 42.4241 20.2816 40.9822Z" fill="#D32F2F"/>
<path d="M35.5472 22.0803C35.4375 25.9986 30.7669 28.0988 27.7733 25.4187C27.7263 27.08 28.5727 28.71 30.1086 29.5877C32.3342 30.8729 35.1867 30.1049 36.4719 27.8637C37.6004 25.9202 37.1615 23.5222 35.5472 22.0803Z" fill="#D32F2F"/>
<path d="M31.1448 60.9964C32.7435 58.2066 31.7874 54.6331 28.9976 53.0345C26.2078 51.4358 22.6344 52.3919 21.0357 55.1817C19.437 57.9715 20.3931 61.545 23.1829 63.1436C25.9727 64.7423 29.5462 63.7862 31.1448 60.9964ZM23.0575 56.3572C24.0136 54.6958 26.1451 54.1159 27.8065 55.072C29.4678 56.028 30.0477 58.1596 29.0917 59.8209C28.1356 61.4823 26.0041 62.0622 24.3427 61.1061C22.6814 60.1501 22.1015 58.0185 23.0575 56.3572Z" fill="black"/>
<path d="M20.0621 39.3826C17.2723 37.784 13.6988 38.74 12.1001 41.5298C10.5015 44.3196 11.4576 47.8931 14.2474 49.4918C17.0372 51.0904 20.6106 50.1343 22.2093 47.3445C23.8079 44.5547 22.8519 40.9969 20.0621 39.3826ZM15.4228 47.4699C13.7615 46.5139 13.1816 44.3823 14.1377 42.721C15.0937 41.0596 17.2252 40.4797 18.8866 41.4358C20.5479 42.3919 21.1278 44.5234 20.1718 46.1847C19.2314 47.8461 17.0999 48.426 15.4228 47.4699Z" fill="black"/>
<path d="M35.3433 20.4813C32.5535 18.8826 28.9801 19.8387 27.3814 22.6285C25.7827 25.4183 26.7388 28.9917 29.5286 30.5904C32.3184 32.189 35.8919 31.233 37.4905 28.4432C39.0892 25.6534 38.1331 22.0956 35.3433 20.4813ZM30.7041 28.5686C29.0427 27.6125 28.4628 25.481 29.4189 23.8196C30.375 22.1583 32.5065 21.5784 34.1678 22.5344C35.8292 23.4905 36.4091 25.622 35.453 27.2834C34.497 28.9447 32.3654 29.5246 30.7041 28.5686Z" fill="black"/>
<path d="M22.3502 19.1959C20.6732 18.2398 18.526 18.8197 17.5699 20.4967C16.6138 22.1738 17.1937 24.321 18.8708 25.277C20.5478 26.2331 22.695 25.6532 23.651 23.9762C24.6071 22.2991 24.0272 20.1519 22.3502 19.1959ZM20.0306 23.2239C19.482 22.9104 19.2939 22.2051 19.6074 21.6409C19.9209 21.0923 20.6261 20.9042 21.1904 21.2177C21.7389 21.5312 21.927 22.2365 21.6135 22.8007C21.2844 23.3492 20.5791 23.553 20.0306 23.2239Z" fill="black"/>
<path d="M24.9528 41.5151C26.6298 42.4711 28.777 41.8912 29.7331 40.2142C30.6891 38.5372 30.1092 36.39 28.4322 35.4339C26.7552 34.4779 24.608 35.0578 23.6519 36.7348C22.6959 38.4118 23.2758 40.559 24.9528 41.5151ZM27.2724 37.4714C27.821 37.7849 28.009 38.4902 27.6956 39.0544C27.3821 39.6029 26.6768 39.791 26.1126 39.4776C25.564 39.1641 25.376 38.4588 25.6894 37.8946C26.0186 37.346 26.7239 37.1579 27.2724 37.4714Z" fill="black"/>
<path d="M32.9143 17.0339C33.1964 17.1906 33.5099 17.316 33.839 17.4101C35.7198 17.8646 37.6162 16.7048 38.0708 14.824C38.2902 13.915 38.1491 12.9746 37.6476 12.1753C37.1617 11.3759 36.3937 10.8117 35.4847 10.5923C33.6039 10.1378 31.7075 11.2976 31.253 13.1783C31.0335 14.0717 31.1746 15.0121 31.6605 15.8114C31.9739 16.3286 32.3971 16.7361 32.9143 17.0339ZM34.9361 12.8649C35.0458 12.8962 35.1399 12.9276 35.2339 12.9903C35.4063 13.0843 35.5474 13.2254 35.6414 13.3821C35.7982 13.6485 35.8452 13.962 35.7825 14.2598C35.6258 14.871 35.0145 15.2629 34.3876 15.1061C34.0898 15.0278 33.839 14.8554 33.6666 14.5889C33.5099 14.3225 33.4629 14.009 33.5256 13.7112C33.6823 13.1 34.3092 12.7238 34.9361 12.8649Z" fill="black"/>
<path d="M18.0104 35.4647C18.9665 33.7877 18.3866 31.6405 16.7096 30.6844C15.0325 29.7283 12.8853 30.3082 11.9293 31.9853C10.9732 33.6623 11.5531 35.8095 13.2301 36.7655C14.9072 37.7216 17.0544 37.1417 18.0104 35.4647ZM14.4056 34.7281C13.8571 34.4146 13.669 33.7093 13.9824 33.1451C14.2959 32.5965 15.0012 32.4084 15.5654 32.7219C16.114 33.0354 16.3021 33.7406 15.9886 34.3049C15.6595 34.8534 14.9542 35.0415 14.4056 34.7281Z" fill="black"/>
<path d="M32.7575 68.645C34.4345 69.601 36.5817 69.0211 37.5378 67.3441C38.4938 65.6671 37.9139 63.5199 36.2369 62.5638C34.5599 61.6077 32.4127 62.1876 31.4566 63.8647C30.5006 65.5417 31.0805 67.6889 32.7575 68.645ZM35.0771 64.617C35.6257 64.9304 35.8137 65.6357 35.5003 66.2C35.1868 66.7485 34.4815 66.9366 33.9173 66.6231C33.3687 66.3097 33.1807 65.6044 33.4941 65.0401C33.8076 64.4916 34.5129 64.2878 35.0771 64.617Z" fill="black"/>
<path d="M32.82 53.3788C34.497 54.3349 36.6442 53.755 37.6003 52.078C38.5563 50.4009 37.9764 48.2537 36.2994 47.2977C34.6224 46.3416 32.4752 46.9215 31.5191 48.5985C30.5631 50.2756 31.143 52.4228 32.82 53.3788ZM35.1396 49.3509C35.6882 49.6643 35.8762 50.3696 35.5628 50.9338C35.2493 51.4824 34.544 51.6705 33.9798 51.357C33.4312 51.0435 33.2432 50.3383 33.5566 49.774C33.8858 49.2255 34.591 49.0217 35.1396 49.3509Z" fill="black"/>
<path d="M40.7516 25.6376C40.6262 25.5906 40.4851 25.5592 40.3284 25.5592C39.6858 25.5592 39.1529 26.0921 39.1529 26.7347L39.1843 38.2074L13.7625 23.6158C14.4521 22.2052 14.985 20.8103 15.847 19.7759C16.9598 18.4437 18.6839 17.566 20.1728 16.3121C21.6774 15.0426 22.8529 13.4753 24.3262 12.629C25.8151 11.7669 27.7429 11.5318 29.5923 10.8579C31.4418 10.184 33.0718 9.11819 34.7488 8.8204C36.081 8.5853 37.5543 8.80473 39.1216 8.89876L39.1529 21.2648C39.1529 21.9074 39.6858 22.4403 40.3284 22.4403C40.4851 22.4403 40.6262 22.409 40.7516 22.3619V0.733093C40.5792 0.842804 40.4224 0.952516 40.2657 1.09357C39.5604 0.46665 38.6357 0.153189 37.6953 0.215881C25.2666 1.04655 13.8409 7.5979 6.89772 18.0832C6.38051 18.8668 6.19243 19.8386 6.39618 20.7476C5.50281 21.0454 4.76618 21.688 4.34301 22.5343C-1.18959 33.7876 -1.09555 46.9687 4.45272 58.1279C4.86022 58.9429 5.58118 59.6012 6.50589 59.899C6.31781 60.808 6.49022 61.7797 7.0231 62.5634C10.4712 67.7355 14.9694 71.9359 20.3922 75.0391C25.8151 78.1581 31.7082 79.9291 37.9147 80.3053C39.0432 80.368 40.0776 79.8978 40.7672 79.1141V25.6376H40.7516ZM38.0088 40.2449L12.6497 54.9776C11.772 53.6767 10.8473 52.5169 10.3771 51.2474C9.78156 49.6331 9.89128 47.6896 9.54647 45.7618C9.20166 43.834 8.43368 42.0473 8.43368 40.3233C8.43368 38.6306 9.18599 36.8282 9.51512 34.8847C9.84426 32.9726 9.73455 31.0292 10.3301 29.3991C10.7846 28.1296 11.725 26.9698 12.6027 25.6533L38.0088 40.2449ZM8.87253 19.3684C15.3142 9.61973 26.1599 3.33482 37.8677 2.55117C38.526 2.50415 39.1059 3.03703 39.1059 3.72665V6.53213C37.5386 6.42242 35.9556 6.203 34.3256 6.48511C32.2568 6.86126 30.517 8.0054 28.7773 8.63232C27.0376 9.25925 24.9688 9.52569 23.1507 10.5758C21.3326 11.6259 20.0944 13.2872 18.6682 14.4941C17.2733 15.6695 15.4082 16.6256 14.0446 18.2556C12.9945 19.5094 12.4146 21.0141 11.725 22.4246L9.2957 21.0297C8.68445 20.7006 8.51204 19.9326 8.87253 19.3684ZM6.55291 57.0778C1.33378 46.5768 1.30243 34.0384 6.47455 23.5531C6.77233 22.9418 7.52464 22.7224 8.10455 23.0672L10.5339 24.4621C9.65618 25.7787 8.6531 27.0325 8.10455 28.5685C7.38358 30.5746 7.4933 32.6591 7.17983 34.4616C6.86637 36.2953 6.05137 38.2231 6.05137 40.3076C6.05137 42.4235 6.88205 44.3356 7.21118 46.1537C7.54031 47.9717 7.4306 50.0563 8.15156 52.0311C8.7158 53.5827 9.71887 54.8365 10.5966 56.1374L8.16724 57.548C7.60301 57.9085 6.8507 57.689 6.55291 57.0778ZM38.0401 77.9543C32.2097 77.5939 26.6615 75.9325 21.552 73.0016C16.4426 70.0708 12.2109 66.1212 8.96656 61.2625C8.59041 60.714 8.77849 59.946 9.35839 59.6012L11.7877 58.1906C12.4773 59.6012 13.0729 61.0901 14.1387 62.3596C14.5619 62.8612 15.2985 62.9239 15.8 62.5007C16.3016 62.0775 16.3643 61.3409 15.9411 60.8393C15.0634 59.7892 14.5305 58.41 13.8252 57.0151L39.1999 42.2824L39.2626 71.6067C37.6953 71.7165 36.2377 71.9515 34.8898 71.7164C33.2285 71.4343 31.5828 70.3686 29.7177 69.6946C27.8996 69.0364 25.9719 68.8013 24.4516 67.9392C22.8372 67.0145 21.6774 65.3689 19.9377 63.9896C19.4205 63.5821 18.6839 63.6762 18.292 64.1934C17.8845 64.7106 17.9786 65.4472 18.4958 65.839C20.1101 67.1086 21.3326 68.8483 23.2918 69.9767C25.1412 71.0425 27.21 71.2933 28.9184 71.9045C30.6738 72.5471 32.4292 73.6756 34.4823 74.0361C36.1123 74.3182 37.6953 74.0831 39.2626 73.9734V76.7789C39.2783 77.4528 38.7141 78.0014 38.0401 77.9543Z" fill="black"/>
<path d="M69.0719 11.9552C61.4861 4.36948 51.424 0.200439 40.7036 0.200439C40.6566 0.200439 40.6096 0.200439 40.5469 0.200439V2.5514C40.5939 2.5514 40.6409 2.5514 40.7036 2.5514C50.7971 2.5514 60.2793 6.48534 67.4105 13.6166C74.5418 20.7478 78.4757 30.2301 78.4757 40.3235C78.4757 50.417 74.5418 59.8992 67.4105 67.0304C60.2793 74.1617 50.7971 78.0956 40.7036 78.0956C40.6566 78.0956 40.6096 78.0956 40.5469 78.0956V80.4466C40.5939 80.4466 40.6409 80.4466 40.7036 80.4466C51.424 80.4466 61.5018 76.2776 69.0719 68.6918C76.6576 61.106 80.8267 51.0439 80.8267 40.3235C80.8267 29.6031 76.642 19.5253 69.0719 11.9552Z" fill="white"/>
<path d="M64.8088 16.2184C58.3672 9.77673 49.8097 6.23462 40.7036 6.23462C40.6566 6.23462 40.6096 6.23462 40.5469 6.23462V18.7104C40.5939 18.7104 40.6409 18.7104 40.7036 18.7104C49.7783 18.7104 57.944 24.4311 61.0316 32.9572C61.251 33.5685 61.9249 33.8819 62.5362 33.6625C63.1474 33.4431 63.4609 32.7691 63.2415 32.1579C62.8967 31.2018 62.4892 30.2771 62.0347 29.3838L68.7584 25.4968C70.937 29.6032 72.2378 34.2424 72.4259 39.1638H64.6521C64.6207 38.4271 64.5424 37.6905 64.4483 36.9539C64.3543 36.3113 63.7587 35.8567 63.1161 35.9508C62.4735 36.0448 62.019 36.6404 62.113 37.283C62.2541 38.2861 62.3325 39.3205 62.3325 40.3392C62.3325 52.2665 52.6308 61.9524 40.7193 61.9524C40.6723 61.9524 40.6252 61.9524 40.5625 61.9524V74.4125C40.6096 74.4125 40.6566 74.4125 40.7193 74.4125C49.8253 74.4125 58.3828 70.8704 64.8245 64.4288C71.2661 57.9871 74.8082 49.4296 74.8082 40.3236C74.7925 31.2175 71.2504 22.66 64.8088 16.2184ZM41.8791 16.3908V8.61693C46.8004 8.78933 51.4397 10.1059 55.546 12.2844L51.6591 19.0239C48.6655 17.4722 45.3428 16.5475 41.8791 16.3908ZM60.8435 27.3306C58.9784 24.4467 56.5177 22.0174 53.6809 20.1837L57.5678 13.4442C61.5958 15.9833 65.0282 19.4157 67.5673 23.4437L60.8435 27.3306ZM41.8791 72.0459V64.272C45.3899 64.0996 48.6969 63.1749 51.6591 61.6546L55.546 68.3941C51.424 70.5569 46.8004 71.8578 41.8791 72.0459ZM57.5678 67.2029L53.6809 60.4635C56.5491 58.614 58.9784 56.169 60.8435 53.3009L67.5829 57.1878C65.0282 61.2315 61.6115 64.6482 57.5678 67.2029ZM62.019 51.279C63.5393 48.3168 64.464 45.0098 64.6364 41.499H72.4102C72.2378 46.4204 70.9213 51.0596 68.7427 55.166L62.019 51.279Z" fill="white"/>
<path d="M54.3705 35.4962C52.8659 35.4962 51.471 36.2015 50.5619 37.3613H46.4399C45.8287 36.1858 44.8569 35.2141 43.6814 34.6029V30.4808C44.8413 29.5718 45.5465 28.1612 45.5465 26.6723C45.5465 24.0079 43.3837 21.845 40.7192 21.845C40.6722 21.845 40.6252 21.845 40.5625 21.845V24.1959C40.6095 24.1959 40.6565 24.1959 40.7192 24.1959C42.0828 24.1959 43.1956 25.3087 43.1956 26.6723C43.1956 27.5656 42.7097 28.3963 41.9261 28.8352C41.5499 29.0389 41.3305 29.4307 41.3305 29.8539V33.9132C41.1267 33.8976 40.923 33.8819 40.7192 33.8819C40.6722 33.8819 40.6252 33.8819 40.5625 33.8819V36.2329C40.6095 36.2329 40.6565 36.2329 40.7192 36.2329C42.9762 36.2329 44.8256 38.0666 44.8256 40.3392C44.8256 42.5961 42.9918 44.4455 40.7192 44.4455C40.6722 44.4455 40.6252 44.4455 40.5625 44.4455V46.7965C40.6095 46.7965 40.6565 46.7965 40.7192 46.7965C40.923 46.7965 41.1267 46.7808 41.3305 46.7652V50.8245C41.3305 51.2477 41.5656 51.6395 41.9261 51.8432C42.7097 52.2821 43.1956 53.1128 43.1956 54.0061C43.1956 55.3697 42.0828 56.4825 40.7192 56.4825C40.6722 56.4825 40.6252 56.4825 40.5625 56.4825V58.8334C40.6095 58.8334 40.6565 58.8334 40.7192 58.8334C43.3837 58.8334 45.5465 56.6705 45.5465 54.0061C45.5465 52.5015 44.8413 51.1066 43.6814 50.1976V46.0756C44.8569 45.4643 45.8287 44.4926 46.4399 43.3171H50.5619C51.471 44.4769 52.8815 45.1822 54.3705 45.1822C57.0349 45.1822 59.1978 43.0193 59.1978 40.3549C59.1978 37.6591 57.0349 35.4962 54.3705 35.4962ZM54.3705 42.7999C53.4771 42.7999 52.6464 42.314 52.2076 41.5304C52.0039 41.1542 51.612 40.9348 51.1889 40.9348H47.1295C47.1452 40.731 47.1609 40.5273 47.1609 40.3235C47.1609 40.1198 47.1452 39.916 47.1295 39.7123H51.1889C51.612 39.7123 52.0039 39.4772 52.2076 39.1167C52.6464 38.333 53.4771 37.8472 54.3705 37.8472C55.734 37.8472 56.8468 38.96 56.8468 40.3235C56.8468 41.6871 55.734 42.7999 54.3705 42.7999Z" fill="white"/>
</g>
<defs>
<clipPath id="clip0">
<rect width="80.2462" height="80.2462" fill="white" transform="translate(0.158203 0.12207)"/>
</clipPath>
</defs>
</svg>
