<svg width="114" height="114" viewBox="0 0 114 114" fill="none" xmlns="http://www.w3.org/2000/svg">
<g clip-path="url(#clip0)">
<path d="M12.0804 31.0321C10.418 30.079 8.29012 30.7218 7.44784 32.4285C-0.376529 48.2989 0.133274 66.3637 7.55867 81.3031C8.40095 83.0098 10.551 83.6305 12.1912 82.6774L56.8544 56.7439L12.0804 31.0321Z" fill="#FFA000"/>
<path d="M56.9873 108.412L56.8543 56.7441L12.1911 82.6776C10.5509 83.6307 10.0189 85.7808 11.0828 87.3767C15.6489 94.2258 21.833 100.144 29.4357 104.51C37.0606 108.877 45.284 111.227 53.4851 111.736C55.3914 111.847 56.9873 110.318 56.9873 108.412Z" fill="#FFA000"/>
<path d="M56.7436 5.09781C56.7436 3.19159 55.1256 1.66218 53.2193 1.79517C36.5732 2.90344 20.7028 11.5479 10.95 26.3101C9.88608 27.906 10.418 30.056 12.0805 31.0091L56.8766 56.7209L56.7436 5.09781Z" fill="#FFA000"/>
<path d="M57.4081 3.08008C56.987 3.63421 56.7432 4.32134 56.7432 5.07496L56.854 56.7424L57.4081 56.4321V3.08008Z" fill="#FFA000"/>
<path d="M17.0225 33.8672C15.6482 36.261 13.7198 38.3224 12.811 40.8271C11.8801 43.3983 12.0352 46.2355 11.5919 48.8731C11.1265 51.5551 10.0182 54.1706 10.0404 56.8527C10.0404 59.5568 11.1708 62.1723 11.6584 64.8322C12.1239 67.492 11.9909 70.3292 12.9219 72.8782C13.8528 75.4051 15.8034 77.4886 17.1554 79.8381L56.8536 56.7418L17.0225 33.8672Z" fill="#FFE082"/>
<path d="M46.9467 51.0469L12.4131 71.1065C13.1667 74.8746 15.3389 76.7365 17.1121 79.8175L56.8546 56.7434L46.9467 51.0469Z" fill="#FFB300"/>
<path d="M17.1113 79.8183C18.4634 82.1235 19.2835 84.872 21.0346 86.9334C22.7635 88.9726 25.2903 90.2582 27.3961 92.0092C29.4353 93.716 31.142 95.9768 33.5359 97.3511C35.9297 98.7253 38.7447 99.0578 41.2494 99.9666C43.8206 100.898 46.2144 102.449 48.83 102.892C51.512 103.358 54.2826 102.693 56.9646 102.693L56.8538 56.7441L17.1113 79.8183Z" fill="#FFE082"/>
<path d="M56.854 56.7441L51.4013 59.9138L51.4899 94.4474C48.8079 94.4474 46.0373 95.1124 43.3553 94.6469C40.7176 94.1814 38.3459 92.652 35.7747 91.7211C33.27 90.8123 30.455 90.4798 28.0612 89.1056C25.6673 87.7313 23.9606 85.4704 21.9214 83.7637C20.5249 82.5889 18.9069 81.6358 17.4883 80.5054C18.6187 82.6554 19.461 85.0715 21.0347 86.9555C22.7636 88.9947 25.2905 90.2803 27.3962 92.0314C29.4354 93.7381 31.1421 95.999 33.536 97.3732C35.9299 98.7475 38.7449 99.08 41.2495 99.9887C43.8207 100.92 46.2146 102.471 48.8301 102.915C51.5121 103.38 54.2828 102.715 56.9648 102.715L56.854 56.7441Z" fill="#FFB300"/>
<path d="M56.7656 10.7951C54.0615 10.7951 51.2908 10.1744 48.6309 10.6399C45.9711 11.1054 43.5994 12.6791 41.0504 13.6101C38.5235 14.541 35.6864 14.8735 33.359 16.2477C31.0316 17.5998 29.3249 19.8607 27.2414 21.6118C25.2022 23.3407 22.6531 24.6262 20.9021 26.732C19.1953 28.7712 18.3752 31.4975 17.001 33.8692L56.8543 56.7438L56.7656 10.7951Z" fill="#FFE082"/>
<path d="M56.7659 10.7947C54.9484 10.7947 53.1086 10.5287 51.3132 10.4844L51.3797 40.8287C51.3797 44.2422 47.7003 46.3922 44.7301 44.6855L18.974 29.8791C18.3312 31.209 17.7549 32.5832 17.0234 33.8688L56.8546 56.7435L56.7659 10.7947Z" fill="#FFB300"/>
<path d="M57.4084 10.7734C57.1868 10.7734 56.9873 10.7956 56.7656 10.7956L56.8765 56.7444L57.4306 56.4341V10.7734H57.4084Z" fill="#FFE082"/>
<path d="M57.4083 44.9727L56.832 45.3273L56.8542 56.7425L57.4083 56.4322V44.9727Z" fill="#FFB300"/>
<path d="M42.3802 85.2691C40.5626 88.4166 36.5507 89.5027 33.381 87.7073C30.2336 85.8898 29.1253 81.8778 30.9428 78.7082C32.7604 75.5607 36.7945 74.4524 39.942 76.27C43.0895 78.0876 44.1977 82.0995 42.3802 85.2691Z" fill="#EF5350"/>
<path d="M29.7678 65.9634C27.9502 69.1109 23.9383 70.2191 20.7686 68.4016C17.6212 66.584 16.5351 62.5721 18.3305 59.4024C20.1258 56.2328 24.1599 55.1467 27.3296 56.9642C30.4771 58.7818 31.5853 62.8159 29.7678 65.9634Z" fill="#EF5350"/>
<path d="M51.3792 39.232C49.5616 42.3795 45.5275 43.4878 42.3801 41.6702C39.2326 39.8526 38.1243 35.8186 39.9419 32.6711C41.7594 29.5236 45.7935 28.4153 48.941 30.2329C52.0885 32.0504 53.1746 36.0845 51.3792 39.232Z" fill="#EF5350"/>
<path d="M31.7619 32.9139C30.8531 34.4876 28.836 35.0417 27.2623 34.133C25.6886 33.2242 25.1344 31.2071 26.0432 29.6334C26.952 28.0596 28.969 27.5055 30.5428 28.4143C32.1387 29.3231 32.6706 31.318 31.7619 32.9139Z" fill="#FFA000"/>
<path d="M40.4064 55.8787C39.4976 57.4524 37.4806 58.0066 35.9068 57.0978C34.3331 56.189 33.779 54.172 34.6877 52.5982C35.5965 51.0245 37.6136 50.4704 39.1873 51.3791C40.761 52.2879 41.293 54.305 40.4064 55.8787Z" fill="#FFA000"/>
<path d="M51.9993 20.3688C52.4205 18.5955 51.3344 16.8223 49.5612 16.4012C47.7879 15.98 46.0147 17.0661 45.5936 18.8394C45.1724 20.6126 46.2585 22.3858 48.0317 22.807C49.7828 23.2281 51.556 22.142 51.9993 20.3688Z" fill="#FFA000"/>
<path d="M23.8048 49.1619C22.896 50.7356 20.879 51.2898 19.3053 50.381C17.7315 49.4722 17.1774 47.4552 18.0862 45.8814C18.9949 44.3077 21.012 43.7536 22.5857 44.6623C24.1595 45.5711 24.7136 47.5882 23.8048 49.1619Z" fill="#FFA000"/>
<path d="M51.423 94.2693C50.5142 95.8431 48.4972 96.3972 46.9234 95.4884C45.3497 94.5796 44.7956 92.5626 45.7043 90.9889C46.6131 89.4151 48.6302 88.861 50.2039 89.7698C51.7776 90.6785 52.3318 92.6734 51.423 94.2693Z" fill="#FFA000"/>
<path d="M51.5119 72.6795C50.6031 74.2532 48.586 74.8074 47.0123 73.8986C45.4386 72.9898 44.8844 70.9728 45.7932 69.399C46.702 67.8253 48.719 67.2711 50.2928 68.1799C51.8665 69.0665 52.4206 71.0836 51.5119 72.6795Z" fill="#FFA000"/>
<path d="M41.0718 77.0703C40.9167 82.6117 34.3114 85.5818 30.0778 81.7915C30.0113 84.1411 31.2083 86.4463 33.3805 87.6875C36.5279 89.5051 40.562 88.419 42.3796 85.2493C43.9533 82.523 43.3327 79.1095 41.0718 77.0703Z" fill="#D32F2F"/>
<path d="M28.4605 57.7852C28.3054 63.3265 21.7001 66.2967 17.4665 62.5064C17.4 64.8559 18.5969 67.1611 20.7691 68.4024C23.9166 70.2199 27.9507 69.1338 29.7683 65.9642C31.342 63.2157 30.7214 59.8244 28.4605 57.7852Z" fill="#D32F2F"/>
<path d="M50.0494 31.0547C49.8942 36.596 43.2889 39.5662 39.0554 35.7759C38.9889 38.1254 40.1858 40.4306 42.358 41.6719C45.5055 43.4895 49.5396 42.4034 51.3571 39.2337C52.953 36.4852 52.3324 33.0939 50.0494 31.0547Z" fill="#D32F2F"/>
<path d="M43.8209 86.0909C46.0818 82.1455 44.7297 77.0918 40.7843 74.8309C36.8388 72.57 31.7851 73.9221 29.5243 77.8676C27.2634 81.813 28.6155 86.8667 32.5609 89.1276C36.5064 91.3884 41.5601 90.0363 43.8209 86.0909ZM32.3836 79.53C33.7357 77.1804 36.7502 76.3603 39.0997 77.7124C41.4492 79.0645 42.2694 82.079 40.9173 84.4285C39.5652 86.778 36.5507 87.5982 34.2012 86.2461C31.8516 84.894 31.0315 81.8795 32.3836 79.53Z" fill="black"/>
<path d="M28.1505 55.5243C24.2051 53.2634 19.1513 54.6155 16.8905 58.5609C14.6296 62.5064 15.9817 67.5601 19.9271 69.8209C23.8726 72.0818 28.9263 70.7297 31.1871 66.7843C33.448 62.8388 32.0959 57.8073 28.1505 55.5243ZM21.5895 66.9616C19.24 65.6095 18.4199 62.595 19.772 60.2455C21.1241 57.896 24.1386 57.0758 26.4881 58.4279C28.8376 59.78 29.6577 62.7945 28.3056 65.144C26.9757 67.4936 23.9612 68.3137 21.5895 66.9616Z" fill="black"/>
<path d="M49.7608 28.7918C45.8154 26.531 40.7617 27.8831 38.5008 31.8285C36.24 35.7739 37.5921 40.8276 41.5375 43.0885C45.4829 45.3494 50.5366 43.9973 52.7975 40.0519C55.0584 36.1064 53.7063 31.0749 49.7608 28.7918ZM43.1999 40.2292C40.8504 38.8771 40.0302 35.8626 41.3823 33.5131C42.7344 31.1635 45.7489 30.3434 48.0984 31.6955C50.448 33.0476 51.2681 36.0621 49.916 38.4116C48.5639 40.7611 45.5494 41.5813 43.1999 40.2292Z" fill="black"/>
<path d="M31.3853 26.9755C29.0137 25.6234 25.977 26.4435 24.6249 28.8152C23.2728 31.1869 24.0929 34.2236 26.4646 35.5757C28.8363 36.9277 31.873 36.1076 33.2251 33.7359C34.5772 31.3642 33.757 28.3276 31.3853 26.9755ZM28.1049 32.672C27.3291 32.2287 27.0631 31.2313 27.5064 30.4333C27.9497 29.6575 28.9472 29.3915 29.7451 29.8348C30.5209 30.2781 30.7869 31.2756 30.3436 32.0735C29.8781 32.8493 28.8807 33.1375 28.1049 32.672Z" fill="black"/>
<path d="M35.0652 58.5385C37.4369 59.8906 40.4736 59.0705 41.8257 56.6988C43.1777 54.3271 42.3576 51.2905 39.9859 49.9384C37.6142 48.5863 34.5776 49.4064 33.2255 51.7781C31.8734 54.1498 32.6935 57.1865 35.0652 58.5385ZM38.3457 52.8199C39.1215 53.2632 39.3875 54.2606 38.9442 55.0586C38.5009 55.8344 37.5034 56.1004 36.7055 55.6571C35.9297 55.2137 35.6637 54.2163 36.107 53.4184C36.5725 52.6426 37.5699 52.3766 38.3457 52.8199Z" fill="black"/>
<path d="M46.3258 23.9174C46.7248 24.1391 47.1681 24.3164 47.6336 24.4494C50.2934 25.0922 52.9754 23.4519 53.6182 20.7921C53.9285 19.5065 53.729 18.1766 53.0197 17.0462C52.3326 15.9157 51.2465 15.1178 49.9609 14.8075C47.3011 14.1647 44.6191 15.8049 43.9763 18.4647C43.666 19.7282 43.8655 21.0581 44.5526 22.1885C44.9959 22.92 45.5944 23.4963 46.3258 23.9174ZM49.1851 18.0214C49.3403 18.0658 49.4733 18.1101 49.6063 18.1988C49.8501 18.3317 50.0496 18.5312 50.1826 18.7529C50.4042 19.1297 50.4707 19.573 50.3821 19.9941C50.1604 20.8586 49.296 21.4127 48.4094 21.1911C47.9882 21.0802 47.6336 20.8364 47.3897 20.4596C47.1681 20.0828 47.1016 19.6395 47.1903 19.2184C47.4119 18.3539 48.2985 17.8219 49.1851 18.0214Z" fill="black"/>
<path d="M25.2456 49.984C26.5977 47.6123 25.7775 44.5756 23.4059 43.2235C21.0342 41.8715 17.9975 42.6916 16.6454 45.0633C15.2933 47.435 16.1135 50.4716 18.4851 51.8237C20.8568 53.1758 23.8935 52.3557 25.2456 49.984ZM20.1476 48.9422C19.3718 48.4989 19.1058 47.5015 19.5491 46.7035C19.9924 45.9277 20.9898 45.6617 21.7878 46.105C22.5636 46.5484 22.8296 47.5458 22.3863 48.3437C21.9208 49.1195 20.9233 49.3855 20.1476 48.9422Z" fill="black"/>
<path d="M46.1043 96.9077C48.476 98.2598 51.5126 97.4397 52.8647 95.068C54.2168 92.6963 53.3967 89.6596 51.025 88.3075C48.6533 86.9554 45.6167 87.7756 44.2646 90.1473C42.9125 92.519 43.7326 95.5556 46.1043 96.9077ZM49.3848 91.2112C50.1605 91.6545 50.4265 92.6519 49.9832 93.4499C49.5399 94.2257 48.5425 94.4917 47.7445 94.0484C46.9687 93.6051 46.7028 92.6076 47.1461 91.8097C47.5894 91.0339 48.5868 90.7457 49.3848 91.2112Z" fill="black"/>
<path d="M46.1922 75.3178C48.5639 76.6699 51.6005 75.8498 52.9526 73.4781C54.3047 71.1064 53.4846 68.0698 51.1129 66.7177C48.7412 65.3656 45.7045 66.1857 44.3525 68.5574C43.0004 70.9291 43.8205 73.9658 46.1922 75.3178ZM49.4727 69.6214C50.2484 70.0647 50.5144 71.0621 50.0711 71.8601C49.6278 72.6358 48.6304 72.9018 47.8324 72.4585C47.0566 72.0152 46.7906 71.0178 47.234 70.2198C47.6994 69.444 48.6969 69.1559 49.4727 69.6214Z" fill="black"/>
<path d="M57.4078 36.0864C57.2305 36.0199 57.031 35.9756 56.8093 35.9756C55.9005 35.9756 55.1469 36.7292 55.1469 37.638L55.1912 53.863L19.239 33.2271C20.2143 31.2322 20.9679 29.2595 22.187 27.7965C23.7608 25.9125 26.199 24.6712 28.3047 22.898C30.4325 21.1026 32.0949 18.8861 34.1785 17.6891C36.2842 16.47 39.0105 16.1376 41.626 15.1845C44.2416 14.2313 46.5468 12.7241 48.9184 12.303C50.8025 11.9705 52.886 12.2808 55.1026 12.4138L55.1469 29.9023C55.1469 30.811 55.9005 31.5647 56.8093 31.5647C57.031 31.5647 57.2305 31.5203 57.4078 31.4538V0.865638C57.164 1.0208 56.9423 1.17595 56.7207 1.37544C55.7232 0.488827 54.4155 0.04552 53.0855 0.134181C35.5084 1.30895 19.3499 10.5741 9.53062 25.4027C8.79917 26.511 8.53318 27.8852 8.82133 29.1708C7.55791 29.5919 6.51614 30.5007 5.91767 31.6976C-1.9067 47.6124 -1.77371 66.2534 6.07283 82.0352C6.64913 83.1878 7.66873 84.1187 8.97649 84.5398C8.7105 85.8254 8.95432 87.1997 9.70795 88.3079C14.5843 95.6225 20.9458 101.563 28.615 105.952C36.2842 110.362 44.6184 112.867 53.3959 113.399C54.9918 113.488 56.4547 112.823 57.43 111.715V36.0864H57.4078ZM53.5288 56.7445L17.6653 77.5799C16.424 75.7402 15.1163 74.1 14.4513 72.3046C13.609 70.0215 13.7642 67.273 13.2766 64.5467C12.7889 61.8204 11.7028 59.2935 11.7028 56.8553C11.7028 54.4615 12.7668 51.9124 13.2322 49.1639C13.6977 46.4598 13.5426 43.7113 14.3848 41.4061C15.0276 39.6107 16.3576 37.9704 17.5988 36.1085L53.5288 56.7445ZM12.3235 27.2202C21.4334 13.4334 36.7718 4.54509 53.3294 3.43682C54.2603 3.37032 55.0804 4.12394 55.0804 5.09922V9.06682C52.8639 8.91166 50.6252 8.60135 48.32 9.00032C45.3942 9.53229 42.9338 11.1504 40.4735 12.037C38.0131 12.9236 35.0873 13.3004 32.5161 14.7855C29.9449 16.2706 28.1938 18.6201 26.1768 20.3268C24.2041 21.9892 21.5664 23.3413 19.638 25.6465C18.1529 27.4197 17.3328 29.5476 16.3576 31.5425L12.9219 29.5698C12.0575 29.1043 11.8137 28.0182 12.3235 27.2202ZM9.04298 80.5501C1.66192 65.6993 1.61759 47.967 8.93216 33.1384C9.3533 32.2739 10.4172 31.9636 11.2374 32.4513L14.673 34.424C13.4317 36.2859 12.0131 38.0591 11.2374 40.2313C10.2177 43.0685 10.3729 46.0165 9.9296 48.5655C9.48629 51.1588 8.33369 53.8852 8.33369 56.8332C8.33369 59.8255 9.50846 62.5296 9.97393 65.1008C10.4394 67.672 10.2842 70.62 11.3039 73.4128C12.1018 75.6072 13.5204 77.3804 14.7616 79.2202L11.326 81.215C10.5281 81.7248 9.46413 81.4145 9.04298 80.5501ZM53.5732 110.074C45.3277 109.565 37.4811 107.215 30.2552 103.07C23.0293 98.9252 17.0447 93.3395 12.4564 86.4682C11.9245 85.6924 12.1905 84.6063 13.0106 84.1187L16.4462 82.1238C17.4215 84.1187 18.2638 86.2244 19.771 88.0198C20.3695 88.7291 21.4113 88.8178 22.1205 88.2193C22.8298 87.6208 22.9185 86.579 22.32 85.8698C21.0788 84.3847 20.3251 82.4341 19.3277 80.4614L55.2134 59.626L55.3021 101.097C53.0855 101.253 51.0242 101.585 49.1179 101.253C46.7684 100.854 44.4411 99.3463 41.8034 98.3932C39.2322 97.4622 36.5059 97.1298 34.3558 95.9107C32.0728 94.6029 30.4325 92.2756 27.9722 90.325C27.2407 89.7487 26.199 89.8817 25.6448 90.6131C25.0685 91.3446 25.2015 92.3864 25.933 92.9405C28.216 94.7359 29.9449 97.1963 32.7156 98.7922C35.3311 100.299 38.2569 100.654 40.6729 101.519C43.1555 102.427 45.638 104.023 48.5416 104.533C50.8468 104.932 53.0855 104.599 55.3021 104.444V108.412C55.3242 109.365 54.5263 110.141 53.5732 110.074Z" fill="black"/>
<path d="M97.462 16.7353C86.734 6.00731 72.5039 0.111328 57.3427 0.111328C57.2763 0.111328 57.2098 0.111328 57.1211 0.111328V3.43613C57.1876 3.43613 57.2541 3.43613 57.3427 3.43613C71.6172 3.43613 85.0273 8.99963 95.1125 19.0849C105.198 29.1701 110.761 42.5801 110.761 56.8546C110.761 71.1291 105.198 84.5392 95.1125 94.6244C85.0273 104.71 71.6172 110.273 57.3427 110.273C57.2763 110.273 57.2098 110.273 57.1211 110.273V113.598C57.1876 113.598 57.2541 113.598 57.3427 113.598C72.5039 113.598 86.7562 107.702 97.462 96.9739C108.19 86.2459 114.086 72.0157 114.086 56.8546C114.086 41.6935 108.168 27.4412 97.462 16.7353Z" fill="black"/>
<path d="M91.4321 22.7639C82.3221 13.6539 70.2198 8.64453 57.3418 8.64453C57.2753 8.64453 57.2088 8.64453 57.1201 8.64453V26.2882C57.1866 26.2882 57.2531 26.2882 57.3418 26.2882C70.1755 26.2882 81.7237 34.3785 86.0902 46.4365C86.4005 47.3009 87.3537 47.7442 88.2181 47.4339C89.0826 47.1236 89.5259 46.1705 89.2155 45.306C88.7279 43.9539 88.1516 42.6462 87.5088 41.3828L97.0178 35.8857C100.099 41.6931 101.938 48.254 102.204 55.2139H91.2104C91.1661 54.1722 91.0553 53.1304 90.9223 52.0886C90.7893 51.1798 89.947 50.5371 89.0382 50.67C88.1294 50.803 87.4866 51.6453 87.6196 52.5541C87.8191 53.9727 87.93 55.4356 87.93 56.8763C87.93 73.7442 74.2096 87.4424 57.3639 87.4424C57.2974 87.4424 57.2309 87.4424 57.1423 87.4424V105.064C57.2088 105.064 57.2753 105.064 57.3639 105.064C70.242 105.064 82.3443 100.054 91.4543 90.9445C100.564 81.8345 105.574 69.7322 105.574 56.8542C105.551 43.9761 100.542 31.8738 91.4321 22.7639ZM59.0042 23.0077V12.0137C65.9641 12.2575 72.525 14.1194 78.3324 17.2004L72.8354 26.7315C68.6018 24.5371 63.9027 23.2293 59.0042 23.0077ZM85.8243 38.4791C83.1866 34.4007 79.7066 30.965 75.6947 28.3717L81.1917 18.8406C86.8882 22.4314 91.7424 27.2856 95.3332 32.9821L85.8243 38.4791ZM59.0042 101.717V90.7228C63.9692 90.479 68.6461 89.1713 72.8354 87.0212L78.3324 96.5523C72.5029 99.6111 65.9641 101.451 59.0042 101.717ZM81.1917 94.8678L75.6947 85.3367C79.7509 82.7211 83.1866 79.2633 85.8243 75.2071L95.3554 80.7041C91.7424 86.4228 86.9103 91.2548 81.1917 94.8678ZM87.4867 72.3478C89.6367 68.1585 90.9444 63.4816 91.1883 58.5166H102.182C101.938 65.4765 100.077 72.0374 96.9956 77.8448L87.4867 72.3478Z" fill="black"/>
<path d="M76.6703 50.0267C74.5424 50.0267 72.5697 51.0242 71.2841 52.6644H65.4546C64.5901 51.002 63.2159 49.6278 61.5535 48.7633V42.9338C63.1937 41.6482 64.1912 39.6533 64.1912 37.5476C64.1912 33.7795 61.1323 30.7207 57.3642 30.7207C57.2977 30.7207 57.2312 30.7207 57.1426 30.7207V34.0455C57.2091 34.0455 57.2756 34.0455 57.3642 34.0455C59.2926 34.0455 60.8664 35.6192 60.8664 37.5476C60.8664 38.8111 60.1792 39.9858 59.071 40.6064C58.539 40.8946 58.2287 41.4487 58.2287 42.0472V47.788C57.9405 47.7659 57.6524 47.7437 57.3642 47.7437C57.2977 47.7437 57.2312 47.7437 57.1426 47.7437V51.0685C57.2091 51.0685 57.2756 51.0685 57.3642 51.0685C60.556 51.0685 63.1716 53.6618 63.1716 56.8758C63.1716 60.0676 60.5782 62.6831 57.3642 62.6831C57.2977 62.6831 57.2312 62.6831 57.1426 62.6831V66.0079C57.2091 66.0079 57.2756 66.0079 57.3642 66.0079C57.6524 66.0079 57.9405 65.9858 58.2287 65.9636V71.7044C58.2287 72.3029 58.5612 72.857 59.071 73.1452C60.1792 73.7658 60.8664 74.9406 60.8664 76.204C60.8664 78.1324 59.2926 79.7061 57.3642 79.7061C57.2977 79.7061 57.2312 79.7061 57.1426 79.7061V83.0309C57.2091 83.0309 57.2756 83.0309 57.3642 83.0309C61.1323 83.0309 64.1912 79.9721 64.1912 76.204C64.1912 74.0761 63.1937 72.1034 61.5535 70.8178V64.9883C63.2159 64.1239 64.5901 62.7496 65.4546 61.0872H71.2841C72.5697 62.7275 74.5646 63.7249 76.6703 63.7249C80.4384 63.7249 83.4972 60.6661 83.4972 56.898C83.4972 53.0855 80.4384 50.0267 76.6703 50.0267ZM76.6703 60.3558C75.4068 60.3558 74.2321 59.6687 73.6114 58.5604C73.3233 58.0284 72.7692 57.7181 72.1707 57.7181H66.4299C66.452 57.43 66.4742 57.1418 66.4742 56.8537C66.4742 56.5655 66.452 56.2774 66.4299 55.9892H72.1707C72.7692 55.9892 73.3233 55.6567 73.6114 55.1469C74.2321 54.0387 75.4068 53.3515 76.6703 53.3515C78.5986 53.3515 80.1724 54.9253 80.1724 56.8537C80.1724 58.782 78.5986 60.3558 76.6703 60.3558Z" fill="black"/>
</g>
<defs>
<clipPath id="clip0">
<rect width="113.487" height="113.487" fill="white"/>
</clipPath>
</defs>
</svg>
