<svg width="80" height="81" viewBox="0 0 80 81" fill="none" xmlns="http://www.w3.org/2000/svg">
<g clip-path="url(#clip0)">
<path d="M44.964 29.5763C47.487 26.5266 52.4344 27.8627 52.9725 31.7695C53.1436 33.0117 52.7849 34.2768 51.9889 35.2395L50.3651 37.1997C53.6245 37.5431 56.1723 40.2945 56.1723 43.6266V51.7114C56.1723 55.8659 52.7748 59.2461 48.5986 59.2461H36.0804C34.8419 59.2461 33.7274 58.7113 32.9562 57.8624C32.3762 58.3039 31.6528 58.5668 30.868 58.5668H26.6705C24.9618 58.5668 23.5723 57.1844 23.5723 55.4843V40.5141C23.5723 38.814 24.9618 37.4315 26.6705 37.4315H30.868C31.7566 37.4315 32.5673 37.7685 33.1786 38.3203C34.9576 36.6361 36.936 37.3235 38.6471 37.1633L44.964 29.5763Z" fill="#00FFA9"/>
<path d="M53.6741 31.1127C53.1201 27.0702 48.0267 25.6876 45.4292 28.8433L38.9259 36.694C37.1643 36.8598 35.1275 36.1485 33.2961 37.8912C32.6668 37.3202 31.8321 36.9716 30.9173 36.9716H26.596C24.8368 36.9716 23.4062 38.4021 23.4062 40.1613V55.6518C23.4062 57.4109 24.8368 58.8415 26.596 58.8415H30.9173C31.7252 58.8415 32.47 58.5693 33.0671 58.1125C33.861 58.9909 35.0085 59.5443 36.2835 59.5443H49.1711C53.4706 59.5443 56.9683 56.0466 56.9683 51.7477V43.3819C56.9683 39.9341 54.3453 37.087 50.9898 36.7316L52.6615 34.7034C53.4809 33.7071 53.8503 32.3981 53.6741 31.1127ZM31.9469 55.2982C31.9469 55.8656 31.4847 56.3272 30.9173 56.3272H26.596C26.223 56.3272 25.9205 56.0241 25.9205 55.6518V40.1613C25.9205 39.7889 26.223 39.4858 26.596 39.4858H30.9173C31.4847 39.4858 31.9469 39.9474 31.9469 40.5148V55.2982ZM48.5898 35.6905C47.4569 37.1058 48.4622 39.2082 50.2797 39.2082C52.5813 39.2082 54.4535 41.0803 54.4535 43.3819V51.7471C54.4535 54.6598 52.0838 57.0294 49.1711 57.0294H36.2829C35.2782 57.0294 34.4606 56.2124 34.4606 55.2077V41.0305C34.4606 40.0252 35.2782 39.2082 36.2829 39.2082H39.0899C39.7393 39.2082 40.3485 38.9202 40.7592 38.4221L47.3682 30.4439C48.5758 28.9763 50.9254 29.5729 51.1836 31.4541C51.3634 32.7717 50.5609 33.2267 48.5898 35.6905Z" fill="#323232"/>
<path d="M19.7126 29.2466C24.6092 25.6055 30.2736 23.3884 36.2764 22.7408C56.3665 20.5583 73.1138 35.4492 74.3354 54.345C74.3761 54.9689 74.8948 55.4482 75.5108 55.4482C75.5357 55.4482 75.5612 55.447 75.5879 55.4451C76.2367 55.4026 76.7299 54.8432 76.6874 54.1926C75.5296 36.2869 61.5201 22.1449 44.0979 20.373V16.4167H44.7406C47.2506 16.4167 49.2898 14.3751 49.2898 11.8675C49.2898 9.35938 47.2506 7.31836 44.7406 7.31836H35.6338C33.1238 7.31836 31.0846 9.35938 31.0846 11.8675C31.0846 14.3751 33.1238 16.4167 35.6338 16.4167H36.2764V20.3712C29.7628 21.0284 23.613 23.409 18.3051 27.3544C17.7833 27.7425 17.6746 28.4812 18.0628 29.0042C18.4509 29.526 19.1896 29.6347 19.7126 29.2466ZM41.741 20.2114C40.8298 20.1731 39.5269 20.1756 38.6333 20.2096V16.4167H41.741V20.2114ZM35.6338 14.0592C34.4249 14.0592 33.4415 13.0757 33.4415 11.8675C33.4415 10.6593 34.4249 9.67525 35.6338 9.67525H44.7406C45.9494 9.67525 46.9329 10.6593 46.9329 11.8675C46.9329 13.0757 45.9494 14.0592 44.7406 14.0592C41.9646 14.0592 38.3995 14.0592 35.6338 14.0592Z" fill="white"/>
<path d="M76.7638 63.4134V58.9802C76.7638 58.3297 76.2359 57.8018 75.5854 57.8018C74.933 57.8018 74.4069 58.3297 74.4069 58.9802V62.9001H5.96606V56.5717C5.96606 47.3167 9.61802 38.6618 16.2471 32.2004C16.7124 31.746 16.7221 30.9995 16.2677 30.533C15.8134 30.0677 15.0674 30.0586 14.6021 30.5129C7.51383 37.4202 3.60917 46.6752 3.60917 56.5717V63.4134C1.70301 64.2966 0.376953 66.2271 0.376953 68.4619V68.6034C0.376953 71.6698 2.87173 74.1646 5.93812 74.1646H9.47709C10.1283 74.1646 10.6555 73.6373 10.6555 72.9861C10.6555 72.3349 10.1283 71.8077 9.47709 71.8077H5.93812C4.17166 71.8077 2.73384 70.3704 2.73384 68.6034V68.4619C2.73384 66.6978 4.16741 65.2624 5.93022 65.2576H74.4428C76.2062 65.2624 77.6391 66.6978 77.6391 68.4619V68.6034C77.6391 70.3698 76.2013 71.8077 74.4349 71.8077H14.1915C13.5403 71.8077 13.013 72.3349 13.013 72.9861C13.013 73.6373 13.5403 74.1646 14.1915 74.1646H74.4349C77.5013 74.1646 79.996 71.6698 79.996 68.6034V68.4619C79.996 66.2271 78.67 64.2966 76.7638 63.4134Z" fill="white"/>
</g>
<defs>
<clipPath id="clip0">
<rect width="79.6192" height="79.6192" fill="white" transform="translate(0.376953 0.942139)"/>
</clipPath>
</defs>
</svg>
