<svg width="113" height="113" viewBox="0 0 113 113" fill="none" xmlns="http://www.w3.org/2000/svg">
<g clip-path="url(#clip0)">
<path d="M63.0575 40.4958C66.6256 36.1829 73.6224 38.0724 74.3834 43.5975C74.6254 45.3542 74.1181 47.1434 72.9924 48.5049L70.696 51.277C75.3055 51.7627 78.9086 55.6539 78.9086 60.3662V71.7999C78.9086 77.6753 74.1039 82.4557 68.1977 82.4557H50.4941C48.7426 82.4557 47.1663 81.6994 46.0757 80.4989C45.2554 81.1232 44.2324 81.4951 43.1226 81.4951H37.1864C34.7698 81.4951 32.8047 79.54 32.8047 77.1357V55.9644C32.8047 53.5601 34.7698 51.6049 37.1864 51.6049H43.1226C44.3793 51.6049 45.5258 52.0815 46.3903 52.8619C48.9061 50.48 51.704 51.4522 54.1239 51.2255L63.0575 40.4958Z" fill="#00FFA9"/>
<path d="M75.3741 42.6686C74.5906 36.9515 67.3873 34.9962 63.7139 39.4591L54.5167 50.5617C52.0254 50.7962 49.145 49.7903 46.5549 52.2549C45.6649 51.4474 44.4845 50.9543 43.1908 50.9543H37.0793C34.5915 50.9543 32.5684 52.9774 32.5684 55.4653V77.3724C32.5684 79.8603 34.5915 81.8834 37.0793 81.8834H43.1908C44.3333 81.8834 45.3865 81.4985 46.231 80.8525C47.3538 82.0947 48.9766 82.8773 50.7798 82.8773H69.0058C75.0863 82.8773 80.0328 77.9308 80.0328 71.8512V60.0201C80.0328 55.144 76.3234 51.1175 71.5779 50.615L73.942 47.7465C75.1009 46.3377 75.6232 44.4864 75.3741 42.6686ZM44.6469 76.8724C44.6469 77.6748 43.9931 78.3277 43.1908 78.3277H37.0793C36.5519 78.3277 36.124 77.899 36.124 77.3724V55.4653C36.124 54.9387 36.5519 54.51 37.0793 54.51H43.1908C43.9931 54.51 44.6469 55.1629 44.6469 55.9653V76.8724ZM68.1837 49.1425C66.5815 51.1442 68.0033 54.1174 70.5736 54.1174C73.8286 54.1174 76.4763 56.7651 76.4763 60.0201V71.8503C76.4763 75.9696 73.125 79.3208 69.0058 79.3208H50.7789C49.358 79.3208 48.2017 78.1653 48.2017 76.7444V56.6946C48.2017 55.2728 49.358 54.1174 50.7789 54.1174H54.7487C55.667 54.1174 56.5287 53.7102 57.1094 53.0058L66.4561 41.7227C68.1639 39.6472 71.4868 40.4908 71.8519 43.1514C72.1062 45.0147 70.9714 45.6581 68.1837 49.1425Z" fill="black"/>
<path d="M27.3439 40.0291C34.2689 34.8799 42.2797 31.7443 50.769 30.8285C79.1811 27.7419 102.866 48.8011 104.593 75.5242C104.651 76.4064 105.384 77.0843 106.256 77.0843C106.291 77.0843 106.327 77.0825 106.365 77.08C107.282 77.0198 107.98 76.2286 107.92 75.3086C106.282 49.9858 86.4694 29.9858 61.8304 27.4798V21.8847H62.7393C66.289 21.8847 69.1729 18.9974 69.1729 15.4512C69.1729 11.9041 66.289 9.01758 62.7393 9.01758H49.8601C46.3105 9.01758 43.4266 11.9041 43.4266 15.4512C43.4266 18.9974 46.3105 21.8847 49.8601 21.8847H50.769V27.4773C41.5572 28.4068 32.86 31.7735 25.3535 37.3531C24.6155 37.9021 24.4617 38.9467 25.0107 39.6864C25.5596 40.4243 26.6043 40.5781 27.3439 40.0291ZM58.4972 27.2513C57.2086 27.1972 55.3659 27.2006 54.1022 27.2488V21.8847H58.4972V27.2513ZM49.8601 18.5507C48.1506 18.5507 46.7598 17.1598 46.7598 15.4512C46.7598 13.7425 48.1506 12.3508 49.8601 12.3508H62.7393C64.4489 12.3508 65.8397 13.7425 65.8397 15.4512C65.8397 17.1598 64.4489 18.5507 62.7393 18.5507C58.8134 18.5507 53.7715 18.5507 49.8601 18.5507Z" fill="black"/>
<path d="M108.029 88.3482V82.0788C108.029 81.1587 107.282 80.4122 106.362 80.4122C105.439 80.4122 104.695 81.1587 104.695 82.0788V87.6223H7.90429V78.6726C7.90429 65.5838 13.069 53.3438 22.444 44.2059C23.1021 43.5633 23.1158 42.5075 22.4732 41.8477C21.8306 41.1897 20.7757 41.1768 20.1177 41.8194C10.0932 51.5879 4.5711 64.6766 4.5711 78.6726V88.3482C1.87535 89.5973 0 92.3274 0 95.488V95.6881C0 100.025 3.52819 103.553 7.86477 103.553H12.8697C13.7906 103.553 14.5363 102.807 14.5363 101.886C14.5363 100.965 13.7906 100.22 12.8697 100.22H7.86477C5.3666 100.22 3.33318 98.1871 3.33318 95.6881V95.488C3.33318 92.9932 5.36058 90.9632 7.8536 90.9564H104.746C107.24 90.9632 109.267 92.9932 109.267 95.488V95.6881C109.267 98.1863 107.233 100.22 104.735 100.22H19.5369C18.616 100.22 17.8703 100.965 17.8703 101.886C17.8703 102.807 18.616 103.553 19.5369 103.553H104.735C109.072 103.553 112.6 100.025 112.6 95.6881V95.488C112.6 92.3274 110.724 89.5973 108.029 88.3482Z" fill="black"/>
</g>
<defs>
<clipPath id="clip0">
<rect width="112.6" height="112.6" fill="white"/>
</clipPath>
</defs>
</svg>
