<svg width="35" height="34" viewBox="0 0 35 34" fill="none" xmlns="http://www.w3.org/2000/svg">
<path d="M30.4208 10.8857C31.1049 11.6722 31.7891 12.455 32.4697 13.2379C32.8682 13.6964 33.2667 14.1513 33.6616 14.6098C33.7322 14.6909 33.8838 14.8072 33.9226 14.9095C33.9649 15.0188 33.8803 15.2798 33.8591 15.3997C33.7992 15.7382 33.7251 16.0768 33.644 16.4118C33.2737 17.9071 32.6919 19.3494 31.9689 20.7106C30.9639 22.6044 29.6414 24.417 28.0897 26.0533C26.5381 27.6896 24.7607 29.1461 22.8528 30.324C20.9485 31.4983 18.9137 32.3976 16.8436 32.9195C15.6023 31.6358 14.361 30.3486 13.1196 29.065C15.2602 28.5113 17.2986 27.5838 19.1747 26.4166C21.1037 25.2211 22.8987 23.747 24.468 22.093C26.0373 20.4391 27.3774 18.6124 28.4001 16.7045C29.4228 14.8072 30.1245 12.8359 30.4208 10.8857Z" fill="#961C2E"/>
<path d="M28.573 2.94092C29.6768 4.2281 30.7841 5.51881 31.8879 6.80599C32.304 7.29265 32.6849 7.80047 32.9917 8.36472C33.2632 8.86196 33.4854 9.40152 33.6582 9.97281C33.831 10.5476 33.9544 11.1577 34.0215 11.7996C34.0885 12.4449 34.1026 13.122 34.0532 13.8308C32.9247 12.5331 31.7997 11.2353 30.6748 9.93755C30.5655 9.81059 30.5584 9.82117 30.5549 9.65543C30.5372 9.01712 30.5901 8.3894 30.5267 7.74758C30.4632 7.10222 30.3433 6.49213 30.174 5.91731C30.0047 5.34248 29.7826 4.80645 29.5145 4.30921C29.2465 3.81902 28.9327 3.36057 28.573 2.94092Z" fill="#961C2E"/>
<path d="M12.7776 29.1498C14.019 30.4335 15.2603 31.7171 16.5016 33.0008C15.4543 33.2441 14.3857 33.3958 13.3101 33.4205C12.3051 33.4416 11.36 33.3534 10.4819 33.1595C9.60727 32.9655 8.80322 32.6693 8.07676 32.2814C7.35382 31.8935 6.70847 31.4139 6.14775 30.8496C4.89583 29.5871 3.64392 28.3246 2.392 27.0586C2.95624 27.6264 3.60865 28.106 4.31748 28.4798C5.04395 28.8642 5.85152 29.1569 6.7261 29.3438C7.60773 29.5307 8.55637 29.6153 9.56495 29.5871C10.5806 29.5624 11.6527 29.4178 12.7776 29.1498Z" fill="#961C2E"/>
<path d="M15.5499 28.2578C16.7842 29.5485 18.022 30.8392 19.2563 32.1299C19.0588 32.2075 18.8578 32.2816 18.6568 32.3556C18.4558 32.4297 18.2548 32.4967 18.0538 32.5637C17.8528 32.6307 17.6518 32.6907 17.4507 32.7506C17.2497 32.8106 17.0487 32.8635 16.8442 32.9164C16.8301 32.9199 16.816 32.9234 16.8019 32.9269C16.7878 32.9305 16.7736 32.934 16.7595 32.9375C16.7454 32.941 16.7313 32.9446 16.7172 32.9481C16.7031 32.9516 16.689 32.9551 16.6749 32.9587C16.6608 32.9622 16.6467 32.9657 16.6326 32.9693C16.6185 32.9728 16.6044 32.9763 16.5903 32.9798C16.5762 32.9834 16.5621 32.9869 16.5479 32.9904C16.5338 32.9939 16.5197 32.9975 16.5056 33.001C16.3046 33.0468 16.1036 33.0892 15.9061 33.1279C15.7086 33.1667 15.5111 33.1985 15.3172 33.2302C15.1232 33.262 14.9293 33.2866 14.7388 33.3113C14.5484 33.336 14.358 33.3536 14.1711 33.3713C12.9262 32.0947 11.6778 30.8145 10.433 29.5379C10.6234 29.5203 10.8138 29.4991 11.0042 29.4745C11.1982 29.4498 11.3922 29.4216 11.5861 29.3898C11.7801 29.3581 11.9811 29.3228 12.1786 29.284C12.3761 29.2452 12.5771 29.1994 12.7816 29.1535C12.7957 29.15 12.8098 29.1465 12.8239 29.143C12.838 29.1394 12.8521 29.1359 12.8663 29.1324C12.8804 29.1289 12.8945 29.1253 12.9086 29.1218C12.9227 29.1183 12.9368 29.1148 12.9509 29.1112C12.965 29.1077 12.9791 29.1042 12.9932 29.1007C13.0073 29.0971 13.0214 29.0936 13.0355 29.0901C13.0496 29.0865 13.0637 29.083 13.0778 29.0795C13.092 29.076 13.1061 29.0724 13.1202 29.0689C13.3247 29.016 13.5257 28.9596 13.7303 28.8996C13.9348 28.8397 14.1358 28.7762 14.3368 28.7057C14.5378 28.6387 14.7424 28.5681 14.9434 28.4941C15.1479 28.4165 15.3489 28.3389 15.5499 28.2578Z" fill="#9A95A0"/>
<path d="M30.5512 8.09277C31.1649 8.80161 31.7785 9.51044 32.3886 10.2193C32.7906 10.6812 33.1891 11.1467 33.5911 11.6087C33.711 11.7463 33.8485 11.8803 33.9543 12.0284C34.0742 12.2012 34.0637 12.3105 34.0742 12.5468C34.0813 12.6843 34.0848 12.8254 34.0848 12.9664C34.0848 13.1075 34.0848 13.2521 34.0778 13.3967C34.0742 13.5413 34.0672 13.6858 34.0566 13.834V13.8375V13.841V13.8445V13.8481C34.0566 13.8586 34.0566 13.8657 34.0531 13.8763C34.0531 13.8869 34.0531 13.8939 34.0531 13.9045C34.0531 13.9151 34.0531 13.9221 34.0496 13.9327C34.0496 13.9433 34.0496 13.9503 34.046 13.9609C34.046 13.968 34.046 13.9715 34.046 13.9785C34.046 13.9856 34.046 13.9891 34.046 13.9962C34.046 14.0032 34.046 14.0068 34.046 14.0138C34.046 14.0209 34.046 14.0244 34.046 14.0314C34.046 14.0385 34.046 14.0456 34.046 14.0526C34.046 14.0597 34.046 14.0667 34.046 14.0738C34.046 14.0808 34.046 14.0879 34.046 14.0949C34.046 14.102 34.046 14.109 34.0425 14.1161C34.0425 14.1231 34.0425 14.1337 34.039 14.1408C34.039 14.1478 34.039 14.1584 34.0355 14.1655C34.0355 14.1725 34.0355 14.1831 34.0319 14.1901C34.0319 14.1972 34.0319 14.2078 34.0284 14.2148C34.0284 14.2184 34.0284 14.2254 34.0284 14.2289C34.0284 14.2325 34.0284 14.2395 34.0284 14.243C34.0284 14.2466 34.0284 14.2536 34.0284 14.2571C34.0284 14.2607 34.0284 14.2677 34.0284 14.2712C34.0284 14.2854 34.0249 14.2995 34.0249 14.3136C34.0249 14.3277 34.0213 14.3418 34.0213 14.3559C34.0213 14.37 34.0178 14.3841 34.0178 14.3982C34.0178 14.4123 34.0143 14.4264 34.0143 14.4405C34.0143 14.4546 34.0108 14.4687 34.0108 14.4828C34.0108 14.4969 34.0072 14.5111 34.0072 14.5252C34.0072 14.5393 34.0037 14.5534 34.0037 14.5675C34.0037 14.5816 34.0002 14.5957 34.0002 14.6098C34.0002 14.6168 34.0002 14.6204 33.9967 14.6274C33.9967 14.6345 33.9967 14.638 33.9931 14.6451C33.9931 14.6521 33.9931 14.6556 33.9896 14.6627C33.9896 14.6697 33.9896 14.6733 33.9861 14.6803C33.9861 14.6874 33.9826 14.6944 33.9826 14.7015C33.9826 14.7085 33.979 14.7156 33.979 14.7226C33.979 14.7297 33.9755 14.7368 33.9755 14.7438C33.9755 14.7509 33.972 14.7579 33.972 14.765C33.972 14.772 33.9684 14.7826 33.9684 14.7896C33.9684 14.8002 33.9649 14.8073 33.9649 14.8143C33.9649 14.8214 33.9614 14.832 33.9614 14.839C33.9614 14.8461 33.9579 14.8567 33.9579 14.8637C33.9579 14.8672 33.9579 14.8708 33.9579 14.8743C33.9579 14.8778 33.9579 14.8813 33.9579 14.8849C33.9579 14.8884 33.9579 14.8919 33.9579 14.8954C33.9579 14.899 33.9579 14.9025 33.9579 14.906C33.9332 15.0682 33.9085 15.234 33.8768 15.3962C33.8485 15.5584 33.8133 15.7242 33.778 15.8864C33.7428 16.0486 33.704 16.2144 33.6616 16.3766C33.6193 16.5388 33.577 16.7046 33.5312 16.8668C32.914 16.1615 32.2933 15.4562 31.6762 14.7509C31.2742 14.2924 30.8722 13.834 30.4701 13.3755C30.3502 13.238 30.2056 13.104 30.1034 12.9559C30.0822 12.9241 30.0258 12.8888 30.0117 12.8536C29.9729 12.7478 30.1034 12.4657 30.1351 12.3458C30.1774 12.18 30.2162 12.0178 30.255 11.8521C30.2903 11.6863 30.3255 11.5241 30.3573 11.3583C30.389 11.1926 30.4172 11.0304 30.4419 10.8682C30.4419 10.8646 30.4419 10.8611 30.4419 10.8576C30.4419 10.854 30.4419 10.8505 30.4419 10.847C30.4419 10.8435 30.4419 10.8399 30.4419 10.8364C30.4419 10.8329 30.4419 10.8294 30.4419 10.8258C30.4419 10.8188 30.4455 10.8082 30.4455 10.8011C30.4455 10.7941 30.449 10.7835 30.449 10.7765C30.449 10.7694 30.4525 10.7588 30.4525 10.7518C30.4525 10.7447 30.456 10.7341 30.456 10.7271C30.456 10.72 30.4596 10.713 30.4596 10.7059C30.4596 10.6989 30.4631 10.6918 30.4631 10.6848C30.4631 10.6777 30.4666 10.6707 30.4666 10.6636C30.4666 10.6566 30.4701 10.6495 30.4701 10.6425C30.4701 10.6354 30.4701 10.6319 30.4737 10.6248C30.4737 10.6178 30.4737 10.6142 30.4772 10.6072C30.4772 10.6001 30.4772 10.5966 30.4807 10.5896C30.4807 10.5825 30.4807 10.579 30.4842 10.5719C30.4842 10.5578 30.4878 10.5437 30.4913 10.5296C30.4913 10.5155 30.4948 10.5014 30.4948 10.4873C30.4983 10.4732 30.4984 10.4591 30.5019 10.445C30.5019 10.4309 30.5054 10.4168 30.5054 10.4026C30.5054 10.3885 30.5089 10.3744 30.5089 10.3603C30.5089 10.3462 30.5125 10.3321 30.5125 10.318C30.5125 10.3039 30.516 10.2898 30.516 10.2757C30.516 10.2616 30.5195 10.2475 30.5195 10.2334C30.5195 10.2298 30.5195 10.2228 30.5195 10.2193C30.5195 10.2157 30.5195 10.2087 30.5195 10.2052C30.5195 10.2016 30.5195 10.1946 30.5195 10.1911C30.5195 10.1875 30.5195 10.1805 30.5195 10.177C30.5195 10.1699 30.5195 10.1593 30.523 10.1523C30.523 10.1452 30.523 10.1346 30.5266 10.1276C30.5266 10.1205 30.5266 10.1099 30.5301 10.1029C30.5301 10.0958 30.5301 10.0853 30.5336 10.0782C30.5336 10.0712 30.5336 10.0641 30.5336 10.057C30.5336 10.05 30.5336 10.0429 30.5371 10.0359C30.5371 10.0288 30.5371 10.0218 30.5407 10.0147C30.5407 10.0077 30.5407 10.0006 30.5407 9.99357C30.5407 9.98652 30.5407 9.98299 30.5407 9.97594C30.5407 9.96889 30.5407 9.96536 30.5407 9.95831C30.5407 9.95125 30.5407 9.94773 30.5407 9.94068C30.5407 9.93362 30.5407 9.93009 30.5407 9.92304C30.5407 9.91246 30.5407 9.90541 30.5442 9.89483C30.5442 9.88425 30.5442 9.8772 30.5477 9.86662C30.5477 9.85604 30.5477 9.84899 30.5512 9.83841C30.5512 9.82783 30.5512 9.82077 30.5548 9.81019V9.80667V9.80314V9.79961V9.79609C30.5654 9.64797 30.5724 9.50338 30.5795 9.35527C30.5865 9.21068 30.5865 9.06609 30.5865 8.92503C30.5865 8.78397 30.583 8.64291 30.5795 8.50538C30.5689 8.36432 30.5618 8.22678 30.5512 8.09277Z" fill="#9A95A0"/>
<path d="M26.5309 19.6421C27.6629 20.894 28.7914 22.1459 29.9234 23.3978C29.9622 23.4402 30.1138 23.5601 30.1209 23.6165C30.1314 23.7082 29.8529 23.9832 29.7894 24.0644C29.5989 24.3112 29.405 24.551 29.2075 24.7908C28.8866 25.1717 28.5586 25.549 28.213 25.9158C27.8709 26.2825 27.5183 26.6387 27.1515 26.9878C26.7883 27.3334 26.4145 27.672 26.0301 28C24.8134 26.6881 23.6003 25.3762 22.3837 24.0644C22.7716 23.7329 23.1489 23.3943 23.5192 23.0417C23.886 22.689 24.2457 22.3293 24.5913 21.959C24.9369 21.5887 25.2719 21.2114 25.5963 20.8235C25.9243 20.4356 26.2346 20.0406 26.5309 19.6421Z" fill="#9A95A0"/>
<path d="M26.2919 13.5522C27.5191 13.3018 28.7499 13.0691 29.9842 12.8575C30.1711 12.2121 30.3227 11.5527 30.425 10.8897C29.9031 14.3069 28.235 17.4949 26.1191 20.1926C24.0385 22.8481 21.4429 25.1227 18.523 26.8155C16.8302 27.7958 15.0176 28.5787 13.1239 29.0689C13.9491 28.8538 14.7566 28.5787 15.5501 28.2649C15.5819 27.1117 15.6453 25.962 15.73 24.8124L15.737 24.7066C15.5501 24.7877 15.3632 24.8618 15.1763 24.9358C14.9894 25.0099 14.799 25.0769 14.6121 25.1404C14.4216 25.2038 14.2347 25.2673 14.0443 25.3237C13.8539 25.3802 13.6634 25.4331 13.473 25.4824C12.7536 25.6658 12.0201 25.7892 11.283 25.8386L11.2619 25.9479C11.0044 27.1505 10.7294 28.353 10.4296 29.545C11.2195 29.4709 12.006 29.344 12.7783 29.1606C10.2004 29.7778 7.3721 29.8553 4.90353 28.7762C2.63597 27.7853 0.992615 25.8351 0.350787 23.4512C-0.0406577 21.9947 -0.0688735 20.4607 0.132139 18.9689C0.0510284 19.572 0.00870942 20.1785 0.0157625 20.7851C1.1901 20.3655 2.36796 19.9634 3.55287 19.579L3.6622 19.5402C3.65514 19.3815 3.65161 19.2229 3.65161 19.0642C3.65161 18.9019 3.65867 18.7397 3.66572 18.574C3.6763 18.4082 3.6904 18.2425 3.70804 18.0697C3.72567 17.9004 3.75035 17.7276 3.77857 17.5548C3.89494 16.8424 4.08185 16.1442 4.32165 15.4636L4.21938 15.4812C3.08384 15.7175 1.94125 15.9361 0.798652 16.1371C0.618799 16.6802 0.467161 17.2304 0.343732 17.7911C1.57449 12.1204 5.63352 7.15508 10.3238 3.90362C11.6604 2.97615 13.0851 2.17562 14.5803 1.5338C14.5486 2.5847 14.4851 3.63561 14.404 4.68298L14.3969 4.7782C14.5733 4.69709 14.7531 4.62303 14.933 4.54898C15.1128 4.47492 15.2927 4.40439 15.4761 4.34091C15.6594 4.27391 15.8393 4.21043 16.0227 4.15401C16.206 4.09406 16.3894 4.03763 16.5763 3.98826C17.2746 3.79077 17.9905 3.64971 18.7134 3.57566L18.7346 3.47339C18.9673 2.359 19.2177 1.24462 19.4963 0.140819C21.778 -0.165989 24.1972 0.0244438 26.2637 1.11061C28.1751 2.11567 29.5645 3.85425 30.1817 5.9208C30.5555 7.17624 30.6542 8.50222 30.5555 9.8035C30.5978 9.23573 30.6013 8.66796 30.559 8.10371C29.3177 8.54806 28.0728 8.9783 26.8209 9.38737L26.701 9.42969C26.7151 9.58838 26.7257 9.74708 26.7327 9.9093C26.7398 10.0715 26.7398 10.2373 26.7398 10.403C26.7363 10.5723 26.7292 10.7416 26.7186 10.9144C26.708 11.0872 26.6904 11.2635 26.6657 11.4398C26.574 12.1663 26.4048 12.8822 26.1791 13.5804L26.2919 13.5522ZM19.7961 21.3352C19.9618 21.2012 20.1205 21.0637 20.2792 20.9262C20.4379 20.7886 20.593 20.6476 20.7447 20.5065C20.8963 20.3654 21.0444 20.2209 21.1926 20.0763C21.3371 19.9317 21.4817 19.7836 21.6228 19.6355C22.1729 19.0395 22.6913 18.4153 23.1604 17.7523C23.6188 17.1105 24.0385 16.4369 24.4017 15.7351C24.4899 15.5623 24.571 15.3895 24.6521 15.2167C24.7297 15.0439 24.8072 14.8746 24.8778 14.7054C24.9483 14.5361 25.0153 14.3668 25.0788 14.1976C25.1423 14.0283 25.1987 13.8625 25.2551 13.6933C25.2692 13.6545 25.2798 13.6157 25.2939 13.5769C25.3045 13.5381 25.3186 13.4993 25.3292 13.464C25.3398 13.4252 25.3503 13.39 25.3609 13.3512C25.3715 13.3124 25.3821 13.2771 25.3927 13.2383C25.3962 13.2278 25.3997 13.2172 25.4032 13.2066C25.4068 13.196 25.4103 13.1854 25.4103 13.1749C25.4138 13.1643 25.4173 13.1537 25.4173 13.1466C25.4209 13.1361 25.4209 13.129 25.4244 13.1184C25.4279 13.1043 25.4314 13.0938 25.435 13.0832C25.4385 13.0726 25.442 13.062 25.442 13.0514C25.4456 13.0409 25.4456 13.0338 25.4491 13.0267C25.4526 13.0197 25.4526 13.0091 25.4561 13.0021C25.4597 12.9844 25.4632 12.9703 25.4667 12.9562C25.4702 12.9421 25.4738 12.9315 25.4738 12.9245C25.4773 12.9139 25.4773 12.9068 25.4808 12.8998C25.4808 12.8927 25.4843 12.8857 25.4843 12.8786C25.4914 12.8434 25.4984 12.8152 25.5055 12.794C25.509 12.7728 25.5161 12.7552 25.5196 12.7411C25.5231 12.727 25.5231 12.7199 25.5267 12.7094C25.5267 12.7023 25.5302 12.6953 25.5302 12.6917C25.5337 12.6706 25.5372 12.6565 25.5408 12.6424C25.5443 12.6282 25.5478 12.6177 25.5478 12.6071C25.5513 12.5965 25.5513 12.5895 25.5549 12.5824C25.5549 12.5754 25.5584 12.5683 25.5584 12.5648C25.5619 12.5471 25.5655 12.5295 25.569 12.5154C25.5725 12.5013 25.5725 12.4907 25.576 12.4801C25.5796 12.4696 25.5796 12.4625 25.5796 12.4555C25.5796 12.4484 25.5831 12.4413 25.5831 12.4343C25.5866 12.4167 25.5901 12.4026 25.5937 12.3884C25.5972 12.3743 25.5972 12.3638 25.6007 12.3532C25.6042 12.3426 25.6042 12.3355 25.6042 12.3285C25.6042 12.3214 25.6078 12.3144 25.6078 12.3073C25.6113 12.2897 25.6148 12.2756 25.6148 12.2615C25.6184 12.2474 25.6183 12.2368 25.6219 12.2298C25.6219 12.2192 25.6254 12.2121 25.6254 12.2051C25.6254 12.198 25.6289 12.191 25.6289 12.1839C25.6325 12.1663 25.636 12.1522 25.636 12.1381C25.6395 12.124 25.6395 12.1134 25.643 12.1063C25.643 12.0957 25.6466 12.0887 25.6466 12.0816C25.6466 12.0746 25.6501 12.0675 25.6501 12.0605C25.6536 12.0393 25.6571 12.0217 25.6571 12.0076C25.6607 11.9935 25.6607 11.9829 25.6642 11.9723C25.6642 11.9617 25.6677 11.9547 25.6677 11.9512C25.6677 11.9441 25.6677 11.9406 25.6712 11.9335C25.6712 11.9265 25.6748 11.9159 25.6748 11.9088C25.6748 11.9018 25.6783 11.8912 25.6783 11.8842C25.6783 11.8771 25.6818 11.8665 25.6818 11.8595C25.6818 11.8524 25.6854 11.8418 25.6854 11.8348C25.6924 11.7854 25.6995 11.736 25.7065 11.6867C25.7277 11.5103 25.7453 11.3411 25.7559 11.1753C25.7665 11.0096 25.7735 10.8509 25.777 10.6922C25.7806 10.537 25.777 10.3819 25.7735 10.2337C25.7665 10.0856 25.7594 9.93751 25.7453 9.79292C25.7312 9.63775 25.71 9.48259 25.6889 9.33447C25.6642 9.18636 25.6395 9.03825 25.6078 8.89718C25.576 8.75612 25.5408 8.61506 25.4984 8.48106C25.4597 8.34705 25.4138 8.21304 25.3644 8.08608C25.3115 7.9556 25.2586 7.82865 25.2022 7.70522C25.1458 7.58179 25.0858 7.46189 25.0224 7.34904C24.9589 7.23266 24.8919 7.12334 24.8214 7.01402C24.7508 6.9047 24.6768 6.80243 24.6027 6.70016C24.5181 6.58731 24.4334 6.47799 24.3417 6.37572C24.2536 6.27345 24.1584 6.17471 24.0632 6.07949C23.9679 5.98427 23.8692 5.89611 23.7669 5.80795C23.6647 5.72331 23.5589 5.63867 23.4495 5.56109C23.3367 5.48351 23.2238 5.40945 23.111 5.34245C22.9946 5.27192 22.8782 5.20844 22.7619 5.14496C22.6455 5.08501 22.5256 5.02506 22.4022 4.97216C22.2787 4.91926 22.1553 4.86636 22.0283 4.82052C21.8908 4.77115 21.7533 4.7253 21.6122 4.68298C21.4712 4.64067 21.3301 4.6054 21.189 4.57366C21.0444 4.54192 20.8999 4.51371 20.7553 4.48903C20.6072 4.46434 20.459 4.44671 20.3109 4.42907C20.1628 4.41497 20.0112 4.40086 19.8595 4.39381C19.7079 4.38676 19.5527 4.38323 19.3976 4.38323C19.2424 4.38323 19.0837 4.38676 18.9215 4.39734C18.7628 4.40439 18.6006 4.4185 18.4348 4.43613C18.4207 4.43613 18.4066 4.43965 18.3925 4.43965C18.3784 4.43965 18.3678 4.44318 18.3537 4.44318C18.3396 4.44318 18.329 4.44671 18.3149 4.44671C18.3043 4.44671 18.2902 4.45024 18.2796 4.45024C18.1456 4.46787 18.0152 4.4855 17.8917 4.50313C17.7683 4.52076 17.6484 4.54193 17.5285 4.56308C17.4121 4.58424 17.2957 4.60893 17.1794 4.63361C17.063 4.6583 16.9501 4.68651 16.8373 4.7112C16.8197 4.71472 16.8056 4.71825 16.7915 4.72178C16.7773 4.7253 16.7668 4.72883 16.7597 4.72883C16.7491 4.73236 16.7421 4.73236 16.735 4.73588C16.728 4.73588 16.7209 4.73941 16.7174 4.73941C16.6328 4.76057 16.5481 4.78525 16.4635 4.80641C16.1602 4.89105 15.864 4.98627 15.5713 5.08854C15.2786 5.19081 14.9894 5.30365 14.7002 5.42708C14.4146 5.55051 14.1325 5.68099 13.8539 5.81853C13.5753 5.95606 13.3002 6.10418 13.0287 6.25934C12.9616 6.29813 12.8982 6.33693 12.8382 6.36866C12.7783 6.40393 12.7254 6.43567 12.6725 6.46741C12.6196 6.49915 12.5702 6.53089 12.5208 6.5591C12.4715 6.58731 12.4256 6.61905 12.3762 6.64726C12.2105 6.75306 12.0483 6.85885 11.8896 6.96818C11.7309 7.0775 11.5722 7.18682 11.417 7.29967C11.2619 7.41252 11.1067 7.52889 10.9551 7.64527C10.8034 7.76164 10.6553 7.88154 10.5072 8.00497C10.345 8.13898 10.1898 8.26946 10.0346 8.40347C9.87946 8.53748 9.73135 8.67501 9.58323 8.80902C9.43512 8.94656 9.29406 9.08409 9.153 9.22515C9.01193 9.36621 8.8744 9.50727 8.74039 9.64834C8.60286 9.79645 8.47237 9.94104 8.34189 10.0892C8.21494 10.2373 8.08798 10.3819 7.96808 10.53C7.84818 10.6781 7.72828 10.8227 7.61543 10.9708C7.49905 11.1189 7.38973 11.267 7.28041 11.4151C7.16051 11.5809 7.04413 11.7466 6.93128 11.9124C6.81843 12.0781 6.71264 12.2403 6.61037 12.4026C6.5081 12.5648 6.40936 12.7305 6.31414 12.8927C6.21892 13.055 6.13076 13.2172 6.0426 13.3829C5.95444 13.5487 5.87332 13.7109 5.79574 13.8766C5.71816 14.0389 5.64057 14.2011 5.57004 14.3633C5.49951 14.5255 5.43251 14.6877 5.36903 14.8464C5.30556 15.0087 5.2456 15.1673 5.18918 15.3296C5.15744 15.4213 5.1257 15.5129 5.09749 15.6046C5.06928 15.6928 5.04106 15.7845 5.01285 15.8691C4.98816 15.9573 4.95996 16.0419 4.9388 16.1301C4.91411 16.2147 4.89295 16.3029 4.87179 16.3875C4.86827 16.4016 4.86474 16.4157 4.86121 16.4263C4.85769 16.4369 4.85768 16.4475 4.85416 16.4545C4.85063 16.4616 4.85064 16.4722 4.84711 16.4757C4.84711 16.4827 4.84358 16.4898 4.84358 16.4968C4.83653 16.5321 4.82947 16.5568 4.82595 16.578C4.82242 16.5991 4.81537 16.6168 4.81537 16.6309C4.81184 16.645 4.81184 16.652 4.80832 16.6626C4.80832 16.6696 4.80479 16.6767 4.80479 16.6838C4.80126 16.7014 4.79773 16.7155 4.79421 16.7296C4.79068 16.7437 4.79068 16.7543 4.78715 16.7613C4.78363 16.7719 4.78363 16.779 4.7801 16.786C4.7801 16.7931 4.77657 16.8001 4.77657 16.8072C4.77305 16.8213 4.76953 16.8354 4.76953 16.846C4.766 16.8566 4.766 16.8671 4.76247 16.8777C4.75894 16.8883 4.75894 16.8953 4.75542 16.9059C4.75542 16.913 4.75189 16.9236 4.75189 16.9306C4.74836 16.9447 4.74836 16.9588 4.74484 16.9694C4.74131 16.98 4.74131 16.9906 4.73778 17.0011C4.73778 17.0117 4.73426 17.0188 4.73426 17.0294C4.73426 17.0364 4.73073 17.047 4.73073 17.054C4.72721 17.0717 4.72368 17.0893 4.72368 17.0999C4.72015 17.114 4.72015 17.1246 4.71662 17.1316C4.71662 17.1422 4.7131 17.1493 4.7131 17.1528C4.7131 17.1598 4.70957 17.1634 4.70957 17.1704C4.70252 17.2127 4.69546 17.2515 4.68841 17.2938C4.65667 17.4913 4.63199 17.6853 4.61436 17.8722C4.59672 18.0626 4.58262 18.2495 4.57556 18.4294C4.56851 18.6128 4.56851 18.7926 4.57203 18.9654C4.57556 19.1417 4.58614 19.3145 4.60378 19.4838C4.61788 19.6178 4.63199 19.7448 4.64962 19.8682C4.66725 19.9916 4.68841 20.108 4.70957 20.2209C4.73073 20.3337 4.75542 20.4466 4.78363 20.5524C4.81184 20.6617 4.84005 20.7639 4.87179 20.8697C4.91411 21.0037 4.95995 21.1342 5.00933 21.2612C5.0587 21.3881 5.11159 21.5116 5.16802 21.6315C5.22444 21.7514 5.28439 21.8678 5.34435 21.9806C5.40782 22.0934 5.47483 22.2028 5.54183 22.3121C5.83453 22.767 6.19424 23.1761 6.61037 23.5217C6.71264 23.6063 6.81844 23.6839 6.92776 23.7615C7.03708 23.8391 7.1464 23.9096 7.26278 23.9801C7.37563 24.0507 7.49553 24.1141 7.61543 24.1776C7.73533 24.2411 7.85876 24.2975 7.98219 24.354C8.52175 24.5938 9.09657 24.7489 9.67845 24.8371C9.85478 24.8618 10.0346 24.8829 10.218 24.9006C10.4014 24.9147 10.5848 24.9253 10.7752 24.9288C10.9656 24.9323 11.1561 24.9288 11.35 24.9217C11.544 24.9147 11.7415 24.897 11.9425 24.8794C11.9531 24.8794 11.9601 24.8759 11.9707 24.8759C11.9813 24.8759 11.9883 24.8724 11.9989 24.8724C12.006 24.8724 12.0165 24.8688 12.0236 24.8688C12.0306 24.8688 12.0412 24.8653 12.0483 24.8653C12.0835 24.8618 12.1118 24.8582 12.1364 24.8547C12.1611 24.8512 12.1788 24.8512 12.1929 24.8477C12.207 24.8441 12.2211 24.8441 12.2317 24.8441C12.2422 24.8441 12.2493 24.8406 12.2599 24.8406C12.7077 24.7807 13.1486 24.6925 13.5858 24.5832C13.9103 24.4985 14.2312 24.4068 14.5486 24.2975C14.866 24.1917 15.1798 24.0754 15.4902 23.9449C15.8005 23.8179 16.1073 23.6769 16.4106 23.5287C16.7139 23.3806 17.0136 23.2219 17.3099 23.0527C17.3204 23.0456 17.3345 23.0386 17.3451 23.0315C17.3557 23.0245 17.3663 23.0174 17.3769 23.0139C17.3874 23.0068 17.398 22.9998 17.4086 22.9962C17.4192 22.9892 17.4298 22.9857 17.4403 22.9786C17.6449 22.8587 17.8494 22.7353 18.0504 22.6048C18.2514 22.4743 18.4524 22.3438 18.6499 22.2063C18.8474 22.0688 19.0414 21.9277 19.2353 21.7831C19.4222 21.6385 19.6127 21.4904 19.7961 21.3352ZM22.3881 24.0612C23.9291 22.7494 25.3256 21.2647 26.5317 19.6425C25.6536 19.1664 24.7931 18.6516 23.9433 18.1226L23.8692 18.0803C22.8465 19.505 21.6299 20.7957 20.2757 21.9101L20.3391 21.9735C21.0444 22.6471 21.7251 23.3454 22.3881 24.0612ZM7.24162 25.3237L7.32626 25.225C6.27183 24.763 5.35493 24.0154 4.72015 23.0562L4.63199 23.1408C3.61988 24.1247 2.60071 25.1016 1.56038 26.0608C2.31506 27.1329 3.34128 27.9969 4.51561 28.5787C5.40783 27.4785 6.31767 26.3958 7.24162 25.3237ZM22.7548 3.88599L22.6702 3.98473C23.7493 4.38323 24.7226 5.0568 25.4244 5.9737L25.5126 5.88906C26.5282 4.90163 27.5509 3.92126 28.5912 2.96204C27.7343 1.96403 26.6305 1.2023 25.4103 0.719169C24.5392 1.78771 23.6541 2.84566 22.7548 3.88599ZM4.23702 9.71534C5.02343 10.1491 5.79222 10.6146 6.55395 11.0977L6.62095 11.1365C7.61191 9.78234 8.77566 8.55864 10.0664 7.4901L10.0064 7.43368C9.36811 6.83417 8.7545 6.2135 8.15499 5.5752C6.70911 6.81301 5.39019 8.20246 4.23702 9.71534Z" fill="#ED0E1C"/>
<path d="M8.15494 5.5752C8.75092 6.2135 9.36807 6.83417 10.0064 7.43368L10.0663 7.4901C8.77561 8.55864 7.60833 9.78234 6.6209 11.1365L6.5539 11.0977C5.7957 10.6146 5.02691 10.1491 4.23697 9.71534C5.39014 8.20246 6.70906 6.81301 8.15494 5.5752C8.26426 5.69157 7.79171 5.88553 8.15494 5.5752Z" fill="#F6F6F6"/>
<path d="M17.0523 0.644974C17.0664 0.641448 17.0805 0.637921 17.0946 0.634395C17.1087 0.630868 17.1228 0.62734 17.1369 0.623813C17.1511 0.620287 17.1652 0.61676 17.1793 0.613234C17.1934 0.609707 17.2075 0.606181 17.2216 0.602655C17.2286 0.599128 17.2357 0.599129 17.2427 0.595603C17.2498 0.592076 17.2569 0.592075 17.2639 0.588548C17.271 0.585022 17.278 0.585023 17.2851 0.581496C17.2921 0.57797 17.2992 0.577968 17.3062 0.574442C17.3133 0.570915 17.3203 0.570917 17.3274 0.56739C17.3344 0.563864 17.3415 0.563862 17.3485 0.560335C17.3556 0.560335 17.3626 0.55681 17.3697 0.553284C17.3768 0.549757 17.3838 0.549758 17.3909 0.546232C17.4014 0.542705 17.4085 0.542704 17.4191 0.539177C17.4297 0.535651 17.4367 0.535652 17.4473 0.532125C17.4579 0.528599 17.4649 0.528597 17.4755 0.525071C17.4861 0.521544 17.4931 0.521545 17.5037 0.518019C17.5072 0.518019 17.5108 0.518018 17.5143 0.514492C17.5178 0.514492 17.5213 0.510964 17.5249 0.510964C17.5284 0.510964 17.5319 0.50744 17.5354 0.50744C17.539 0.50744 17.5425 0.507439 17.546 0.503912C17.6871 0.468647 17.8246 0.433382 17.9657 0.401643C18.1032 0.369904 18.2408 0.338165 18.3783 0.309952C18.5158 0.28174 18.6534 0.257054 18.7874 0.232368C18.9249 0.207683 19.0589 0.186525 19.1929 0.165366C19.2035 0.16184 19.2176 0.161838 19.2282 0.158312C19.2388 0.158312 19.2493 0.154787 19.2599 0.154787C19.2705 0.154787 19.2811 0.15126 19.2881 0.15126C19.2987 0.15126 19.3058 0.147732 19.3163 0.147732C19.3763 0.140679 19.4327 0.1301 19.4927 0.123047C19.2176 1.23038 18.9637 2.34123 18.7309 3.45562L18.7098 3.55788C18.5405 3.57552 18.3677 3.59668 18.1914 3.62136C18.0151 3.64605 17.8387 3.67779 17.6624 3.71305C17.4861 3.74832 17.3062 3.78711 17.1228 3.82943C16.943 3.87175 16.7596 3.92112 16.5727 3.97049C15.8286 4.17855 15.0986 4.44657 14.3933 4.76396L14.4004 4.66874C14.4815 3.62136 14.545 2.57046 14.5767 1.51955C14.5908 1.5125 14.6084 1.50545 14.6225 1.49839C14.6366 1.49134 14.6543 1.48429 14.6684 1.48076C14.6825 1.47371 14.6966 1.46665 14.7142 1.46313C14.7283 1.45608 14.746 1.44902 14.7601 1.44549C14.7706 1.44197 14.7812 1.43844 14.7918 1.43139C14.8024 1.42786 14.813 1.42433 14.8235 1.41728C14.8341 1.41376 14.8447 1.41023 14.8553 1.40318C14.8659 1.39965 14.8764 1.39612 14.887 1.38907C15.0246 1.33265 15.1656 1.27622 15.3032 1.22332C15.4407 1.17043 15.5818 1.11753 15.7228 1.06816C15.8639 1.01878 16.0014 0.969414 16.1425 0.920043C16.2835 0.874198 16.4246 0.828353 16.5657 0.782508C16.5692 0.782508 16.5727 0.778981 16.5762 0.778981C16.5798 0.778981 16.5833 0.775454 16.5868 0.775454C16.5903 0.775454 16.5939 0.771929 16.5974 0.771929C16.6009 0.771929 16.6044 0.768402 16.608 0.768402C16.6185 0.764875 16.6256 0.761347 16.6362 0.761347C16.6468 0.757821 16.6538 0.754296 16.6644 0.754296C16.675 0.750769 16.682 0.747244 16.6926 0.747244C16.7032 0.743717 16.7102 0.740189 16.7208 0.740189C16.7279 0.736663 16.7349 0.736664 16.742 0.733137C16.749 0.729611 16.7561 0.729609 16.7631 0.726083C16.7702 0.722556 16.7772 0.722557 16.7843 0.719031C16.7913 0.715504 16.7984 0.715503 16.8055 0.711976C16.8125 0.70845 16.8196 0.708451 16.8266 0.704924C16.8337 0.701398 16.8407 0.701396 16.8478 0.69787C16.8548 0.694343 16.8619 0.694344 16.8689 0.690818C16.876 0.687291 16.883 0.687293 16.8901 0.683766C16.9042 0.68024 16.9183 0.676713 16.9324 0.66966C16.9465 0.666133 16.9606 0.662606 16.9747 0.655553C16.9888 0.652027 17.0029 0.6485 17.017 0.641447C17.0241 0.655553 17.0382 0.652027 17.0523 0.644974Z" fill="#F6F6F6"/>
<path d="M0.794761 16.1262C1.93736 15.9252 3.07995 15.7065 4.21549 15.4703L4.31776 15.4526C4.25781 15.6254 4.20138 15.7982 4.14849 15.971C4.09559 16.1438 4.04622 16.3202 4.00037 16.493C3.95453 16.6658 3.91221 16.8421 3.87695 17.0149C3.83816 17.1912 3.80641 17.364 3.7782 17.5403C3.6724 18.1963 3.63009 18.8628 3.6583 19.5258L3.54898 19.5646C2.36406 19.949 1.1862 20.351 0.0118713 20.7706C0.0118713 20.6261 0.0118694 20.4779 0.0153959 20.3298C0.0189225 20.1817 0.0259746 20.0301 0.0365542 19.8784C0.0471338 19.7268 0.0577136 19.5751 0.0753462 19.42C0.0894523 19.2648 0.110613 19.1096 0.131772 18.9545C0.131772 18.951 0.131772 18.9474 0.131772 18.9474C0.131772 18.9439 0.131772 18.9404 0.131772 18.9368C0.131772 18.9333 0.131772 18.9298 0.131772 18.9298C0.131772 18.9263 0.131772 18.9227 0.131772 18.9227C0.131772 18.9157 0.135302 18.9051 0.135302 18.8981C0.135302 18.891 0.138827 18.8804 0.138827 18.8734C0.138827 18.8663 0.142351 18.8557 0.142351 18.8487C0.142351 18.8416 0.145881 18.8311 0.145881 18.824C0.145881 18.8169 0.145879 18.8099 0.149406 18.8028C0.149406 18.7958 0.15293 18.7887 0.15293 18.7817C0.15293 18.7746 0.152934 18.7676 0.15646 18.7605C0.15646 18.7535 0.159985 18.7464 0.159985 18.7394C0.159985 18.7323 0.159983 18.7253 0.163509 18.7217C0.163509 18.7147 0.167039 18.7076 0.167039 18.7041C0.167039 18.697 0.167037 18.69 0.170564 18.6865C0.170564 18.6794 0.174094 18.6724 0.174094 18.6688C0.17762 18.6547 0.177617 18.6406 0.181143 18.6265C0.18467 18.6124 0.184671 18.5983 0.188198 18.5842C0.191724 18.5701 0.191726 18.556 0.195252 18.5419C0.198779 18.5278 0.198775 18.5137 0.202301 18.4996C0.205828 18.4855 0.205829 18.4713 0.209356 18.4572C0.212883 18.4431 0.212884 18.429 0.216411 18.4149C0.219937 18.4008 0.219939 18.3867 0.223465 18.3726C0.226992 18.3585 0.226988 18.3444 0.230514 18.3303C0.230514 18.3232 0.234044 18.3197 0.234044 18.3127C0.234044 18.3056 0.237569 18.3021 0.237569 18.295C0.237569 18.288 0.241093 18.2844 0.241093 18.2774C0.241093 18.2703 0.244623 18.2668 0.244623 18.2598C0.244623 18.2527 0.248148 18.2456 0.248148 18.2386C0.248148 18.2315 0.251673 18.2245 0.251673 18.2174C0.251673 18.2104 0.255203 18.2033 0.255203 18.1927C0.255203 18.1857 0.258727 18.1786 0.258727 18.1681C0.258727 18.161 0.262257 18.154 0.262257 18.1469C0.262257 18.1399 0.265782 18.1328 0.265782 18.1257C0.265782 18.1187 0.269306 18.1116 0.269306 18.1046C0.269306 18.0975 0.272836 18.0905 0.272836 18.0834C0.272836 18.0799 0.276361 18.0729 0.276361 18.0693C0.276361 18.0658 0.279885 18.0587 0.279885 18.0552C0.279885 18.0517 0.283415 18.0446 0.283415 18.0411C0.283415 18.0376 0.28694 18.0305 0.28694 18.027C0.420948 17.3816 0.590222 16.7469 0.794761 16.1262C1.00635 16.0909 0.745389 16.2849 0.794761 16.1262Z" fill="#F6F6F6"/>
<path d="M25.4133 0.722656C26.6335 1.20579 27.7373 1.96752 28.5942 2.96552C27.5504 3.92474 26.5277 4.90512 25.5156 5.89254L25.4274 5.97718C24.7221 5.06028 23.7523 4.38672 22.6732 3.98822L22.7578 3.88948C23.6536 2.84562 24.5387 1.78767 25.4133 0.722656C25.7272 0.846085 25.2511 0.920142 25.4133 0.722656Z" fill="#F6F6F6"/>
<path d="M4.72038 23.0527C5.35515 24.0155 6.27205 24.7596 7.32648 25.2216L7.24184 25.3203C6.31789 26.3924 5.41158 27.475 4.51584 28.5718C3.34151 27.9863 2.31528 27.1259 1.56061 26.0538C2.60093 25.0981 3.6201 24.1213 4.63222 23.1338L4.72038 23.0527Z" fill="#F6F6F6"/>
<path d="M30.5515 8.09277C30.562 8.22678 30.5691 8.36432 30.5726 8.50538C30.5761 8.64291 30.5797 8.78397 30.5797 8.92503C30.5797 9.0661 30.5761 9.21068 30.5726 9.35527C30.5656 9.49986 30.5585 9.64797 30.5479 9.79609V9.79961V9.80314V9.80667V9.81019C30.5479 9.82077 30.5479 9.82783 30.5444 9.83841C30.5444 9.84899 30.5444 9.85604 30.5409 9.86662C30.5409 9.8772 30.5409 9.88425 30.5373 9.89483C30.5373 9.90541 30.5373 9.91246 30.5338 9.92304C30.5338 9.93009 30.5338 9.93362 30.5338 9.94068C30.5338 9.94773 30.5338 9.95125 30.5338 9.95831C30.5338 9.96536 30.5338 9.96889 30.5338 9.97594C30.5338 9.98299 30.5338 9.98652 30.5338 9.99357C30.5338 10.0006 30.5338 10.0077 30.5338 10.0147C30.5338 10.0218 30.5338 10.0288 30.5303 10.0359C30.5303 10.0429 30.5303 10.05 30.5268 10.057C30.5268 10.0641 30.5268 10.0712 30.5268 10.0782C30.5268 10.0853 30.5268 10.0958 30.5232 10.1029C30.5232 10.1099 30.5232 10.1205 30.5197 10.1276C30.5197 10.1346 30.5197 10.1452 30.5162 10.1523C30.5162 10.1593 30.5162 10.1699 30.5127 10.177C30.5127 10.1805 30.5127 10.1875 30.5127 10.1911C30.5127 10.1946 30.5127 10.2016 30.5127 10.2052C30.5127 10.2087 30.5127 10.2157 30.5127 10.2193C30.5127 10.2228 30.5127 10.2298 30.5127 10.2334C30.5127 10.2475 30.5091 10.2616 30.5091 10.2757C30.5091 10.2898 30.5056 10.3039 30.5056 10.318C30.5056 10.3321 30.5021 10.3462 30.5021 10.3603C30.5021 10.3744 30.4985 10.3885 30.4985 10.4026C30.4985 10.4168 30.495 10.4309 30.495 10.445C30.495 10.4591 30.4915 10.4732 30.488 10.4873C30.488 10.5014 30.4844 10.5155 30.4844 10.5296C30.4809 10.5437 30.4809 10.5578 30.4774 10.5719C30.4774 10.579 30.4774 10.5825 30.4739 10.5896C30.4739 10.5966 30.4739 10.6001 30.4703 10.6072C30.4703 10.6142 30.4703 10.6178 30.4668 10.6248C30.4668 10.6319 30.4668 10.6354 30.4633 10.6425C30.4633 10.6495 30.4598 10.6566 30.4598 10.6636C30.4598 10.6707 30.4562 10.6777 30.4562 10.6848C30.4562 10.6918 30.4527 10.6989 30.4527 10.7059C30.4527 10.713 30.4492 10.72 30.4492 10.7271C30.4492 10.7341 30.4457 10.7447 30.4457 10.7518C30.4457 10.7588 30.4421 10.7694 30.4421 10.7765C30.4421 10.7835 30.4386 10.7941 30.4386 10.8011C30.4386 10.8082 30.4351 10.8188 30.4351 10.8258C30.4351 10.8294 30.4351 10.8329 30.4351 10.8364C30.4351 10.8399 30.4351 10.8435 30.4351 10.847C30.4351 10.8505 30.4351 10.854 30.4351 10.8576C30.4351 10.8611 30.4351 10.8646 30.4351 10.8682C30.3328 11.5347 30.1847 12.1906 29.9943 12.836C28.76 13.0475 27.5292 13.2803 26.302 13.5307L26.1856 13.5518C26.242 13.372 26.2949 13.1957 26.3443 13.0158C26.3937 12.836 26.4395 12.6561 26.4783 12.4798C26.5206 12.2999 26.5559 12.1236 26.5876 11.9437C26.6194 11.7674 26.6476 11.5876 26.6687 11.4112C26.7534 10.7447 26.7675 10.0676 26.704 9.40111L26.8239 9.3588C28.0652 8.96735 29.3101 8.53712 30.5515 8.09277C30.562 8.22678 30.3187 8.17741 30.5515 8.09277Z" fill="#F6F6F6"/>
<path d="M15.7359 24.6992L15.7289 24.805C15.6442 25.9547 15.5843 27.1078 15.549 28.2575C15.348 28.3386 15.147 28.4127 14.946 28.4867C14.745 28.5608 14.544 28.6313 14.3394 28.6983C14.1384 28.7653 13.9339 28.8288 13.7329 28.8923C13.5283 28.9522 13.3273 29.0086 13.1228 29.0615C13.1087 29.0651 13.0945 29.0686 13.0804 29.0721C13.0663 29.0756 13.0522 29.0792 13.0381 29.0827C13.024 29.0862 13.0099 29.0897 12.9958 29.0933C12.9817 29.0968 12.9676 29.1003 12.9535 29.1039C12.9394 29.1074 12.9253 29.1109 12.9112 29.1144C12.8971 29.118 12.883 29.1215 12.8689 29.125C12.8547 29.1285 12.8406 29.1321 12.8265 29.1356C12.8124 29.1391 12.7983 29.1426 12.7842 29.1462C12.0119 29.3295 11.2255 29.4565 10.4355 29.5306C10.7353 28.3386 11.0139 27.136 11.2678 25.9335L11.289 25.8242C11.4618 25.8136 11.6381 25.796 11.8179 25.7748C11.9978 25.7537 12.1777 25.729 12.361 25.7008C12.5444 25.6725 12.7278 25.6373 12.9147 25.5985C13.1016 25.5597 13.292 25.5174 13.4825 25.468C14.2477 25.2776 15.0024 25.0166 15.7359 24.6992Z" fill="#F6F6F6"/>
<path d="M23.8722 18.0801L23.9462 18.1224C24.7961 18.6514 25.6566 19.1627 26.5347 19.6423C25.3286 21.2645 23.9321 22.7492 22.391 24.0611C21.728 23.3452 21.0474 22.6469 20.3421 21.9734L20.2786 21.9099C21.6328 20.7955 22.8495 19.5048 23.8722 18.0801Z" fill="#F6F6F6"/>
<path d="M11.4664 24.7488C11.4594 24.7735 11.4558 24.7947 11.4558 24.8123C11.4558 24.8334 11.4629 24.8511 11.4699 24.8652C11.4805 24.8793 11.4911 24.8899 11.5087 24.9005C11.5228 24.9075 11.544 24.911 11.5651 24.911C11.5969 24.9075 11.6251 24.9075 11.6568 24.904C11.6886 24.9004 11.7168 24.9005 11.7485 24.8969C11.7803 24.8934 11.8085 24.8899 11.8402 24.8899C11.872 24.8863 11.9002 24.8828 11.9319 24.8793C11.1808 24.9569 10.4226 24.9533 9.67493 24.8405L9.72783 24.837C9.79836 24.8193 9.86889 24.7629 9.90063 24.6959C9.93589 24.6289 9.93942 24.5196 9.84068 24.502C9.28348 24.4208 8.73335 24.2692 8.21495 24.0506C8.20789 24.047 8.20085 24.047 8.19732 24.0435C8.19027 24.0435 8.18321 24.04 8.17615 24.04C8.1691 24.04 8.16205 24.04 8.155 24.04C8.14794 24.04 8.14089 24.0435 8.13031 24.0435C8.11621 24.047 8.1021 24.0506 8.08799 24.0576C8.07389 24.0647 8.05978 24.0717 8.0492 24.0823C8.03509 24.0929 8.02451 24.1035 8.01041 24.114C7.99983 24.1246 7.98925 24.1387 7.97867 24.1528C7.93988 24.2057 7.90461 24.3009 7.96809 24.3538C7.48143 24.1422 7.01945 23.8637 6.60685 23.5251L6.70912 23.5392L6.83608 23.4616C6.88192 23.4087 6.93834 23.2994 6.87134 23.2359C6.47637 22.908 6.12372 22.5236 5.84512 22.0898C5.81338 22.051 5.76049 22.0475 5.71464 22.0581C5.70759 22.0616 5.70054 22.0616 5.68996 22.0651C5.6829 22.0686 5.67232 22.0722 5.66527 22.0757C5.65822 22.0792 5.64764 22.0863 5.64059 22.0898C5.63353 22.0969 5.62295 22.1004 5.6159 22.1074C5.563 22.1533 5.50658 22.2344 5.52421 22.3085C5.23856 21.8712 5.01992 21.3916 4.86122 20.8943C4.88591 20.9402 4.94586 20.9402 4.9917 20.9296L5.05165 20.9014C5.11866 20.8591 5.20329 20.7603 5.17508 20.6721C5.13629 20.5417 5.10102 20.4112 5.06929 20.2772C5.03755 20.1432 5.00934 20.0092 4.98818 19.8716C4.96349 19.7341 4.94586 19.5966 4.92823 19.4555C4.91412 19.3144 4.90001 19.1734 4.89296 19.0288C4.89296 19.0112 4.88591 18.997 4.87886 18.9829C4.8718 18.9688 4.86122 18.9583 4.84712 18.9512C4.83301 18.9441 4.8189 18.9406 4.8048 18.9371C4.78716 18.9371 4.76953 18.9371 4.7519 18.9406C4.74837 18.9406 4.74837 18.9406 4.74485 18.9441C4.74132 18.9441 4.74132 18.9441 4.73779 18.9477C4.73426 18.9477 4.73427 18.9512 4.73074 18.9512C4.72722 18.9512 4.72721 18.9547 4.72369 18.9547C4.63905 18.99 4.55794 19.0817 4.56146 19.1769C4.56146 19.2016 4.56499 19.2298 4.56499 19.2545C4.56499 19.2792 4.56852 19.3074 4.56852 19.3321C4.56852 19.3567 4.57205 19.385 4.57557 19.4096C4.5791 19.4343 4.5791 19.4625 4.58263 19.4872C4.51562 18.7643 4.55441 18.0308 4.66726 17.3149C4.65316 17.4066 4.73427 17.4348 4.80833 17.4136C4.82948 17.4066 4.85417 17.396 4.87533 17.3819C4.89648 17.3678 4.91765 17.3502 4.93528 17.3325C4.95291 17.3149 4.96702 17.2937 4.98112 17.269C4.9917 17.2479 5.00228 17.2267 5.00581 17.2056C4.69548 19.1275 4.98465 21.2223 6.33178 22.714C7.66834 24.1916 9.71019 24.6924 11.6427 24.569C11.5651 24.5972 11.4946 24.6677 11.4664 24.7488Z" fill="#6D1627"/>
<path d="M15.6943 23.8563L15.726 23.8422C16.128 23.6694 16.5195 23.479 16.9074 23.2744C15.8671 23.8316 14.7632 24.2795 13.6171 24.5722C13.6418 24.5651 13.663 24.5545 13.6841 24.5404C13.7053 24.5263 13.7229 24.5087 13.7406 24.4911C13.7582 24.4734 13.7723 24.4523 13.7829 24.4311C13.7935 24.41 13.8005 24.3888 13.804 24.3641C13.8181 24.2724 13.73 24.223 13.6489 24.2442C14.5517 24.015 15.4298 23.6835 16.2655 23.2779C16.2197 23.2991 16.1703 23.3238 16.1245 23.3449C16.0786 23.3661 16.0293 23.3908 15.9834 23.4119C15.9376 23.4331 15.8882 23.4543 15.8424 23.4754C15.7965 23.4966 15.7472 23.5177 15.7013 23.5389C15.6131 23.5777 15.5391 23.6659 15.5426 23.7681C15.5497 23.8528 15.6272 23.8739 15.6943 23.8563Z" fill="#A2000C"/>
<path d="M24.3342 15.5478C24.3518 15.5513 24.366 15.5548 24.3801 15.5654C24.3942 15.5724 24.4012 15.5865 24.4083 15.6007C24.4153 15.6148 24.4189 15.6289 24.4189 15.6465C24.4189 15.6641 24.4188 15.6818 24.4118 15.7029C24.4083 15.717 24.4047 15.7276 24.3977 15.7417C24.0345 16.44 23.6219 17.11 23.1669 17.7518L23.1564 17.7589L23.0153 17.8576L22.9271 17.8541C22.8319 17.8224 22.8601 17.7025 22.906 17.646C22.9659 17.5614 23.0223 17.4803 23.0788 17.3957C23.1352 17.311 23.1916 17.2264 23.248 17.1453C23.3045 17.0606 23.3574 16.976 23.4103 16.8914C23.4632 16.8067 23.5161 16.7221 23.569 16.6375C23.5795 16.6233 23.5866 16.6057 23.5972 16.5916C23.6077 16.5775 23.6148 16.5599 23.6254 16.5458C23.636 16.5317 23.643 16.514 23.6536 16.4999C23.6642 16.4858 23.6712 16.4682 23.6818 16.4541C23.6818 16.4541 23.6818 16.4505 23.6853 16.4505C23.6853 16.4505 23.6853 16.447 23.6889 16.447C23.6889 16.447 23.6889 16.4435 23.6924 16.4435C23.6924 16.4435 23.6924 16.44 23.6959 16.44C23.7312 16.38 23.7664 16.3201 23.8017 16.2566C23.837 16.1966 23.8687 16.1332 23.904 16.0732C23.9357 16.0133 23.971 15.9498 24.0027 15.8898C24.0345 15.8299 24.0662 15.7664 24.0979 15.7064C24.0979 15.7064 24.0979 15.7029 24.1015 15.6994C24.1015 15.6959 24.105 15.6959 24.105 15.6923C24.105 15.6923 24.1085 15.6888 24.1085 15.6853L24.112 15.6818C24.1226 15.6677 24.1332 15.6536 24.1438 15.6394C24.1579 15.6253 24.1685 15.6148 24.1826 15.6042C24.1967 15.5936 24.2108 15.583 24.2284 15.576C24.2425 15.5689 24.2602 15.5619 24.2743 15.5583C24.2813 15.5583 24.2848 15.5548 24.2919 15.5548C24.2989 15.5548 24.3025 15.5548 24.3095 15.5513C24.3166 15.5513 24.3201 15.5513 24.3272 15.5513C24.3236 15.5442 24.3307 15.5478 24.3342 15.5478Z" fill="#FEFEFE"/>
<path d="M17.8029 22.4494C17.8206 22.4459 17.8347 22.4424 17.8523 22.4424C17.8664 22.4424 17.8805 22.4459 17.8946 22.4494C17.9087 22.4565 17.9193 22.4635 17.9264 22.4706C17.937 22.4812 17.944 22.4918 17.9475 22.5059C17.9546 22.5235 17.9546 22.5447 17.9511 22.5658C17.9475 22.587 17.9405 22.6081 17.9299 22.6293C17.9193 22.6504 17.9052 22.6716 17.8876 22.6892C17.87 22.7069 17.8488 22.7245 17.8276 22.7386C17.7959 22.7598 17.7642 22.7774 17.7324 22.7986C17.7007 22.8197 17.6689 22.8374 17.6372 22.8585C17.6055 22.8761 17.5737 22.8973 17.542 22.9149C17.5102 22.9326 17.4785 22.9537 17.4468 22.9714C17.4362 22.9784 17.4256 22.9855 17.415 22.989C17.4045 22.996 17.3939 23.0031 17.3833 23.0066C17.3727 23.0137 17.3621 23.0172 17.3515 23.0243C17.341 23.0313 17.3304 23.0348 17.3198 23.0419C16.8049 23.3346 16.2795 23.5991 15.7364 23.8318L15.7047 23.8459C15.6377 23.8636 15.5565 23.8389 15.5565 23.7578C15.5565 23.7366 15.5601 23.7119 15.5671 23.6908C15.5742 23.6696 15.5848 23.6485 15.5989 23.6273C15.613 23.6061 15.6306 23.5885 15.6482 23.5709C15.6694 23.5532 15.6906 23.5391 15.7152 23.5321C15.7611 23.5109 15.8105 23.4898 15.8563 23.4686C15.9021 23.4474 15.9515 23.4263 15.9974 23.4051C16.0432 23.384 16.0926 23.3628 16.1384 23.3381C16.1843 23.317 16.2336 23.2923 16.2795 23.2711C16.2936 23.2641 16.3042 23.257 16.3183 23.2535C16.3324 23.2464 16.343 23.2394 16.3571 23.2359C16.3712 23.2288 16.3818 23.2217 16.3959 23.2182C16.41 23.2112 16.4241 23.2041 16.4347 23.1971C16.4417 23.1935 16.4488 23.19 16.4558 23.1865C16.4629 23.183 16.4699 23.1794 16.477 23.1759C16.484 23.1724 16.4911 23.1688 16.4981 23.1653C16.5052 23.1618 16.5122 23.1583 16.5193 23.1547C16.5334 23.1477 16.5475 23.1406 16.5581 23.1336C16.5722 23.1265 16.5828 23.1195 16.5969 23.1124C16.611 23.1054 16.6251 23.0983 16.6357 23.0913C16.6498 23.0842 16.6604 23.0772 16.6745 23.0701C16.685 23.0666 16.6921 23.0595 16.7027 23.056C16.7132 23.0525 16.7203 23.0454 16.7309 23.0419C16.7415 23.0384 16.7485 23.0313 16.7591 23.0278C16.7697 23.0243 16.7767 23.0172 16.7873 23.0137C16.7873 23.0137 16.7908 23.0137 16.7908 23.0102C16.7908 23.0102 16.7944 23.0102 16.7944 23.0066C16.7944 23.0066 16.7979 23.0066 16.7979 23.0031C16.7979 23.0031 16.8014 23.0031 16.8014 22.9996C16.879 22.9573 16.9566 22.9149 17.0342 22.8726C17.1117 22.8303 17.1893 22.788 17.2669 22.7421C17.3445 22.6998 17.4221 22.654 17.4997 22.6081C17.5772 22.5623 17.6548 22.5164 17.7289 22.4706C17.7359 22.4671 17.7395 22.4635 17.7465 22.46C17.7536 22.4565 17.7571 22.453 17.7642 22.453C17.7712 22.4494 17.7747 22.4494 17.7818 22.4459C17.7924 22.453 17.7994 22.4494 17.8029 22.4494Z" fill="#FEFEFE"/>
<path d="M8.81419 9.88783L8.70486 9.87725C8.69428 9.8702 8.68371 9.85962 8.68018 9.84551C8.67313 9.83141 8.67313 9.8173 8.67313 9.8032C8.67313 9.78909 8.67665 9.77146 8.68371 9.75382C8.69076 9.73619 8.69781 9.71856 8.70839 9.70093C8.71192 9.6974 8.71192 9.69387 8.71544 9.69035C8.71897 9.68682 8.71897 9.68329 8.7225 9.67977C8.72602 9.67624 8.72955 9.67271 8.72955 9.66919C8.73308 9.66566 8.7366 9.66213 8.74013 9.65861C8.87414 9.51755 9.01167 9.37296 9.15273 9.23543C9.2938 9.09789 9.43486 8.95683 9.57945 8.82282C9.72403 8.68881 9.87215 8.5548 10.0203 8.4208C10.1684 8.29031 10.32 8.15983 10.4752 8.03288C10.4787 8.02935 10.4787 8.02935 10.4822 8.02583C10.4858 8.0223 10.4858 8.0223 10.4893 8.01877C10.4928 8.01877 10.4928 8.01525 10.4963 8.01525C10.4999 8.01525 10.4999 8.01172 10.5034 8.01172C10.5069 8.00819 10.514 8.00467 10.5175 8.00467C10.521 8.00114 10.5281 8.00114 10.5316 7.99761C10.5351 7.99409 10.5422 7.99409 10.5457 7.99056C10.5492 7.98703 10.5563 7.98704 10.5598 7.98704C10.5739 7.98351 10.5845 7.97998 10.5986 7.97998C10.6127 7.97998 10.6233 7.97998 10.6339 7.98351C10.6445 7.98703 10.655 7.99056 10.6621 7.99409C10.6727 8.00114 10.6797 8.00819 10.6868 8.01525C10.7432 8.0893 10.6656 8.1951 10.6127 8.24095C10.0238 8.72761 9.45954 9.24953 8.93762 9.80672L8.81419 9.88783Z" fill="#FEFEFE"/>
<path d="M14.3965 5.85721C14.3894 5.86074 14.3824 5.86426 14.3789 5.86779C14.3718 5.87132 14.3648 5.87484 14.3612 5.87837C14.3542 5.8819 14.3471 5.88542 14.3436 5.88895C14.3366 5.89248 14.3295 5.896 14.326 5.89953C14.3119 5.90658 14.3013 5.91011 14.2872 5.91716C14.2731 5.92421 14.2625 5.92774 14.2519 5.9348C14.2378 5.94185 14.2272 5.94537 14.2131 5.95243C14.2025 5.95948 14.1884 5.96301 14.1779 5.97006C14.1743 5.97006 14.1743 5.97359 14.1708 5.97359C14.1673 5.97359 14.1673 5.97711 14.1638 5.97711C14.1602 5.97711 14.1602 5.98064 14.1567 5.98064C14.1532 5.98064 14.1532 5.98417 14.1496 5.98417C14.0932 6.01238 14.0333 6.04059 13.9768 6.0688C13.9204 6.09701 13.8605 6.12523 13.804 6.15344C13.7476 6.18165 13.6877 6.21339 13.6312 6.2416C13.5748 6.26981 13.5184 6.30155 13.4584 6.33329C13.1164 6.51667 12.7814 6.71063 12.4534 6.91517L12.3934 6.94691C12.3405 6.96101 12.27 6.95043 12.2559 6.89048C12.2488 6.87638 12.2489 6.85874 12.2524 6.83759C12.2559 6.81995 12.2594 6.79879 12.27 6.78116C12.2806 6.76353 12.2912 6.74237 12.3053 6.72474C12.3194 6.7071 12.337 6.68947 12.3582 6.67537L12.3617 6.67184L12.3652 6.66831L12.3687 6.66479L12.3723 6.66126C12.4181 6.63305 12.4675 6.60131 12.5133 6.5731C12.5592 6.54488 12.6086 6.51667 12.6544 6.48493C12.7002 6.45672 12.7496 6.42851 12.7955 6.4003C12.8413 6.37208 12.8907 6.34387 12.9365 6.31566L12.94 6.31213L12.9436 6.30861L12.9471 6.30508L12.9506 6.30155C12.9577 6.29803 12.9612 6.2945 12.9647 6.29097C12.9683 6.28745 12.9753 6.28392 12.9788 6.28039C12.9824 6.27687 12.9894 6.27334 12.9929 6.26981C12.9965 6.26629 13.0035 6.26276 13.0071 6.25923C13.1199 6.19576 13.2292 6.13228 13.3421 6.07233C13.4549 6.01238 13.5678 5.95243 13.6806 5.896C13.7935 5.83958 13.9063 5.78315 14.0192 5.72673C14.132 5.67383 14.2449 5.62093 14.3612 5.56804C14.3648 5.56804 14.3683 5.56451 14.3718 5.56451C14.3753 5.56451 14.3789 5.56098 14.3789 5.56098C14.3824 5.56098 14.3859 5.55746 14.3859 5.55746C14.3894 5.55746 14.393 5.55746 14.393 5.55393C14.4106 5.54688 14.4318 5.54688 14.4459 5.54688C14.4635 5.54688 14.4776 5.5504 14.4917 5.55746C14.5058 5.56451 14.5164 5.57156 14.5235 5.58567C14.5305 5.59625 14.5376 5.61035 14.5376 5.62799C14.5376 5.64562 14.534 5.66678 14.527 5.68794C14.5199 5.7091 14.5094 5.73026 14.4952 5.74789C14.4811 5.76905 14.4635 5.78668 14.4423 5.80431C14.4423 5.83252 14.4212 5.84663 14.3965 5.85721Z" fill="#FEFEFE"/>
<path d="M6.09493 13.5697C6.0773 13.5662 6.0632 13.5627 6.05262 13.5521C6.04204 13.5451 6.03146 13.5345 6.0244 13.5204C6.01735 13.5063 6.01382 13.4922 6.01382 13.4781C6.01382 13.4604 6.01735 13.4428 6.0244 13.4252C6.0244 13.4216 6.02793 13.4181 6.02793 13.4181C6.02793 13.4146 6.03145 13.4111 6.03145 13.4111C6.03145 13.4075 6.03498 13.404 6.03498 13.404C6.03498 13.4005 6.03851 13.397 6.03851 13.397C6.12667 13.2347 6.21484 13.069 6.31005 12.9068C6.40527 12.7445 6.50048 12.5823 6.60275 12.4201C6.70502 12.2579 6.80729 12.0992 6.91308 11.9405C7.01888 11.7818 7.13173 11.6231 7.24458 11.4644C7.24811 11.4609 7.24811 11.4574 7.25163 11.4538C7.25516 11.4503 7.25869 11.4468 7.25869 11.4433C7.26221 11.4397 7.26574 11.4362 7.26574 11.4327C7.26926 11.4291 7.2728 11.4256 7.27632 11.4256C7.28337 11.4186 7.29395 11.4115 7.301 11.4045C7.31158 11.3974 7.31864 11.3904 7.32922 11.3868C7.3398 11.3798 7.35038 11.3763 7.35743 11.3727C7.36801 11.3692 7.37859 11.3657 7.38564 11.3621C7.41386 11.3551 7.44559 11.3516 7.47381 11.3621C7.56197 11.3974 7.51965 11.5103 7.48086 11.5632C7.05062 12.1591 6.65918 12.7833 6.31358 13.4287C6.28184 13.4922 6.22189 13.5451 6.15136 13.5627L6.09493 13.5697Z" fill="#FEFEFE"/>
<path d="M16.4067 5.12361C16.3855 5.13067 16.3644 5.13067 16.3432 5.13067C16.3221 5.12714 16.3044 5.12361 16.2903 5.11303C16.2762 5.10245 16.2656 5.09187 16.2586 5.07424C16.2515 5.06013 16.248 5.03898 16.2515 5.02134C16.2656 4.93318 16.3326 4.85207 16.4173 4.82739L16.4561 4.8168C16.4772 4.80975 16.4984 4.80623 16.5196 4.79917C16.5407 4.79212 16.5619 4.78859 16.583 4.78154C16.6042 4.77449 16.6253 4.77096 16.6465 4.76391C16.6677 4.75685 16.6888 4.75333 16.71 4.74627C16.717 4.74627 16.7241 4.74275 16.7276 4.74275C16.7347 4.74275 16.7417 4.73922 16.7452 4.73922C16.7523 4.73922 16.7594 4.73569 16.7629 4.73569C16.7699 4.73569 16.777 4.73217 16.7805 4.73217C16.784 4.73217 16.7876 4.72864 16.7911 4.72864C16.7946 4.72864 16.7981 4.72512 16.8017 4.72512C16.8052 4.72512 16.8087 4.72159 16.8123 4.72159C16.8158 4.72159 16.8193 4.71806 16.8228 4.71806C16.9357 4.68985 17.0485 4.66516 17.1614 4.64048C17.2742 4.61579 17.3871 4.59463 17.4964 4.57347C17.6057 4.55232 17.7186 4.53468 17.8314 4.51705C17.9407 4.49942 18.0536 4.48531 18.1629 4.47121C18.1664 4.47121 18.17 4.47121 18.1735 4.47121C18.177 4.47121 18.1805 4.47121 18.1841 4.47121C18.1876 4.47121 18.1911 4.47121 18.1947 4.47121C18.1982 4.47121 18.2017 4.47121 18.2052 4.47121C18.2088 4.47121 18.2158 4.4712 18.2193 4.46768C18.2229 4.46768 18.2299 4.46768 18.2334 4.46415C18.237 4.46415 18.244 4.46415 18.2476 4.46063C18.2511 4.46063 18.2581 4.46063 18.2617 4.4571C18.2722 4.4571 18.2863 4.45357 18.2969 4.45357C18.3075 4.45357 18.3216 4.45005 18.3322 4.45005C18.3428 4.45005 18.3569 4.44652 18.3675 4.44652C18.378 4.44652 18.3921 4.44299 18.4027 4.44299C18.4027 4.44299 18.4027 4.44299 18.4062 4.44299C18.4062 4.44299 18.4062 4.44299 18.4098 4.44299C18.4098 4.44299 18.4098 4.44299 18.4133 4.44299C18.4133 4.44299 18.4133 4.44299 18.4168 4.44299C18.5015 4.43947 18.5403 4.51352 18.512 4.58758C18.4874 4.66869 18.4098 4.73217 18.3322 4.75333L18.304 4.76038C18.1594 4.77449 18.0183 4.79212 17.8702 4.81328C17.7256 4.83444 17.5775 4.85912 17.4329 4.88734C17.2848 4.91555 17.1402 4.94376 16.9921 4.97903C16.844 5.01429 16.6959 5.04956 16.5442 5.08835C16.5407 5.08835 16.5407 5.08835 16.5372 5.08835C16.5337 5.08835 16.5337 5.08835 16.5301 5.08835C16.5301 5.08835 16.5266 5.08835 16.5231 5.08835C16.5195 5.08835 16.5196 5.08835 16.516 5.08835C16.5054 5.09187 16.4949 5.0954 16.4843 5.0954C16.4737 5.09893 16.4631 5.10245 16.4525 5.10245C16.442 5.10598 16.4314 5.10951 16.4208 5.10951C16.4279 5.11656 16.4173 5.12009 16.4067 5.12361Z" fill="#FEFEFE"/>
<path d="M5.00855 17.2163C5.00502 17.2375 4.99797 17.2587 4.98387 17.2798C4.97329 17.301 4.95565 17.3221 4.93802 17.3433C4.92039 17.3609 4.89923 17.3786 4.87807 17.3927C4.85691 17.4068 4.83575 17.4174 4.81107 17.4244C4.73701 17.4456 4.6559 17.4138 4.67001 17.3257C4.67353 17.308 4.67353 17.2904 4.67706 17.2763C4.67706 17.2657 4.68059 17.2551 4.68059 17.2445C4.68059 17.234 4.68411 17.2234 4.68411 17.2128C4.68411 17.2022 4.68764 17.1917 4.68764 17.1811C4.68764 17.174 4.69117 17.1705 4.69117 17.1634C4.69117 17.1564 4.69469 17.1529 4.69469 17.1458C4.69469 17.1388 4.69822 17.1352 4.69822 17.1282C4.69822 17.1211 4.70175 17.1176 4.70175 17.1105C4.70175 17.107 4.70174 17.1035 4.70527 17.0964C4.70527 17.0929 4.70527 17.0894 4.70879 17.0823C4.70879 17.0788 4.7088 17.0753 4.71232 17.0682C4.71232 17.0647 4.71232 17.0612 4.71585 17.0541C4.71585 17.0471 4.71938 17.04 4.71938 17.0294C4.71938 17.0224 4.7229 17.0153 4.7229 17.0047C4.7229 16.9977 4.72643 16.9906 4.72643 16.9801C4.72643 16.973 4.72996 16.966 4.72996 16.9554C4.72996 16.9519 4.72996 16.9518 4.72996 16.9483C4.72996 16.9448 4.72996 16.9448 4.72996 16.9413C4.72996 16.9377 4.72996 16.9377 4.72996 16.9342C4.72996 16.9307 4.72996 16.9307 4.72996 16.9272C4.72996 16.9201 4.73348 16.9131 4.73348 16.9025C4.73348 16.8954 4.73701 16.8848 4.73701 16.8778C4.73701 16.8707 4.74054 16.8637 4.74054 16.8531C4.74054 16.8461 4.74406 16.839 4.74406 16.8284C4.74406 16.8249 4.74406 16.8249 4.74406 16.8214C4.74406 16.8178 4.74406 16.8178 4.74406 16.8143C4.74406 16.8108 4.74406 16.8108 4.74406 16.8073C4.74406 16.8037 4.74406 16.8037 4.74406 16.8002C4.74406 16.7932 4.74759 16.7861 4.74759 16.7791C4.74759 16.772 4.75112 16.7649 4.75112 16.7579C4.75112 16.7508 4.75464 16.7438 4.75464 16.7367C4.75464 16.7297 4.75817 16.7226 4.75817 16.7156C4.75817 16.712 4.75817 16.7085 4.7617 16.705C4.7617 16.7015 4.76169 16.6979 4.76522 16.6944C4.76522 16.6909 4.76522 16.6874 4.76875 16.6838C4.76875 16.6803 4.76875 16.6768 4.77227 16.6733C4.77227 16.6662 4.7758 16.6591 4.7758 16.6556C4.7758 16.6486 4.77933 16.6415 4.77933 16.638C4.77933 16.6309 4.78285 16.6239 4.78285 16.6204C4.78285 16.6133 4.78638 16.6063 4.78638 16.6027C4.78638 16.5992 4.78991 16.5957 4.78991 16.5886C4.78991 16.5851 4.79343 16.5816 4.79343 16.5745C4.79343 16.571 4.79696 16.5675 4.79696 16.5604C4.79696 16.5569 4.80049 16.5498 4.80049 16.5463C4.80049 16.5428 4.80401 16.5357 4.80401 16.5322C4.80401 16.5287 4.80754 16.5216 4.80754 16.5181C4.80754 16.5146 4.81107 16.5075 4.81107 16.504C4.81107 16.5005 4.81459 16.4934 4.81459 16.4899C4.81459 16.4828 4.81812 16.4758 4.81812 16.4722C4.81812 16.4652 4.82165 16.4581 4.82165 16.4546C4.82165 16.4476 4.82517 16.4405 4.82517 16.437C4.82517 16.4299 4.8287 16.4229 4.8287 16.4193C4.8287 16.4158 4.8287 16.4123 4.83222 16.4123C4.83222 16.4088 4.83222 16.4052 4.83575 16.4052C4.83575 16.4017 4.83575 16.3982 4.83928 16.3982C4.83928 16.3947 4.83928 16.3911 4.8428 16.3911C4.86396 16.3065 4.88512 16.2183 4.90981 16.1337C4.93449 16.0491 4.95918 15.9609 4.98387 15.8763C5.00855 15.7916 5.03676 15.7035 5.06145 15.6188C5.08966 15.5342 5.11787 15.446 5.14609 15.3614C5.14609 15.3579 5.14961 15.3579 5.14961 15.3543C5.14961 15.3508 5.14961 15.3473 5.15314 15.3473C5.15314 15.3438 5.15666 15.3438 5.15666 15.3402C5.15666 15.3367 5.16019 15.3367 5.16019 15.3332C5.16725 15.3155 5.17783 15.3014 5.19193 15.2873C5.20251 15.2732 5.21662 15.2591 5.23072 15.245C5.24483 15.2344 5.25893 15.2239 5.27657 15.2133C5.29067 15.2062 5.3083 15.1992 5.32594 15.1921C5.34004 15.1886 5.35062 15.1851 5.36473 15.1851C5.38589 15.1851 5.40352 15.1851 5.42115 15.1921C5.43526 15.1992 5.44937 15.2097 5.45995 15.2203C5.47053 15.2344 5.47406 15.2485 5.47406 15.2662C5.47406 15.2838 5.47406 15.305 5.46348 15.3261C5.4141 15.4707 5.36473 15.6188 5.32241 15.7634C5.27657 15.908 5.23778 16.0561 5.19899 16.2007C5.16019 16.3453 5.12493 16.4934 5.09671 16.638C5.06498 16.7826 5.03676 16.9272 5.01208 17.0718C5.01208 17.0718 5.01208 17.0718 5.01208 17.0753C5.01208 17.0753 5.01208 17.0753 5.01208 17.0788C5.01208 17.0788 5.01208 17.0788 5.01208 17.0823C5.01208 17.0823 5.01208 17.0823 5.01208 17.0859C5.01208 17.0964 5.00855 17.107 5.00855 17.1176C5.00855 17.1282 5.00503 17.1388 5.00503 17.1493C5.00503 17.1599 5.0015 17.1705 5.0015 17.1811C5.01208 17.1952 5.01208 17.2058 5.00855 17.2163Z" fill="#FEFEFE"/>
<path d="M20.1381 4.7461C20.1169 4.74257 20.1028 4.73552 20.0887 4.72847C20.0746 4.71789 20.064 4.70378 20.0605 4.68968C20.0534 4.67557 20.0534 4.65441 20.0569 4.63678C20.0605 4.61562 20.0675 4.59446 20.0781 4.5733C20.0887 4.55567 20.0993 4.54156 20.1098 4.52745C20.1239 4.51335 20.1345 4.49924 20.1522 4.48866C20.1663 4.47808 20.1804 4.4675 20.198 4.45692C20.2121 4.44987 20.2297 4.44282 20.2474 4.43577C20.2509 4.43577 20.258 4.43224 20.2615 4.43224C20.265 4.43224 20.2721 4.43224 20.2756 4.42871C20.2791 4.42871 20.2862 4.42871 20.2897 4.42871C20.2932 4.42871 20.3003 4.42871 20.3038 4.42871C20.8821 4.48866 21.4534 4.61209 22.0036 4.80605C22.0071 4.80605 22.0071 4.80958 22.0106 4.80958C22.0142 4.80958 22.0142 4.8131 22.0177 4.8131C22.0212 4.8131 22.0212 4.81663 22.0247 4.81663C22.0283 4.81663 22.0283 4.82016 22.0318 4.82016C22.0953 4.86953 22.0671 4.95769 22.0283 5.01059L21.8802 5.11639L21.792 5.11991C21.665 5.07407 21.5346 5.03175 21.4005 4.99295C21.2665 4.95416 21.1325 4.9189 20.995 4.88716C20.8575 4.85542 20.7199 4.82721 20.5789 4.80605C20.4272 4.78136 20.2826 4.76373 20.1381 4.7461C20.1169 4.7461 20.2826 4.76373 20.1381 4.7461Z" fill="#FEFEFE"/>
<path d="M4.89953 19.0393C4.90659 19.1839 4.92069 19.3249 4.9348 19.466C4.94891 19.607 4.97006 19.7446 4.99475 19.8821C5.01944 20.0197 5.04412 20.1537 5.07586 20.2877C5.1076 20.4217 5.14286 20.5522 5.18166 20.6826C5.20987 20.7708 5.12876 20.8695 5.05823 20.9119L4.99827 20.9401C4.98417 20.9436 4.97006 20.9471 4.95596 20.9471C4.94185 20.9471 4.93127 20.9471 4.92069 20.9436C4.91011 20.9401 4.89953 20.9366 4.88895 20.9295C4.87837 20.9224 4.87132 20.9154 4.8678 20.9048C4.86427 20.8978 4.86074 20.8907 4.85722 20.8837C4.82548 20.7814 4.79726 20.6756 4.76905 20.5663C4.74084 20.4605 4.71615 20.3511 4.69499 20.2418C4.67383 20.1325 4.65267 20.0232 4.63857 19.9103C4.62093 19.7975 4.60683 19.6846 4.59625 19.5718C4.59625 19.5683 4.59625 19.5683 4.59625 19.5647C4.59625 19.5612 4.59625 19.5612 4.59625 19.5577C4.59625 19.5542 4.59625 19.5542 4.59625 19.5506C4.59625 19.5471 4.59625 19.5471 4.59625 19.5436C4.59625 19.54 4.59625 19.5365 4.59625 19.5295C4.59625 19.5259 4.59625 19.5224 4.59625 19.5154C4.59625 19.5118 4.59625 19.5083 4.59625 19.5013C4.59625 19.4977 4.59625 19.4942 4.59625 19.4871C4.59272 19.4625 4.59272 19.4342 4.5892 19.4096C4.58567 19.3849 4.58567 19.3567 4.58215 19.332C4.58215 19.3073 4.57862 19.2791 4.57862 19.2544C4.57862 19.2297 4.57509 19.2015 4.57509 19.1768C4.57157 19.0816 4.65267 18.9899 4.73731 18.9546C4.74084 18.9546 4.74084 18.9511 4.74436 18.9511C4.74789 18.9511 4.74789 18.9476 4.75142 18.9476C4.75495 18.9476 4.75495 18.9476 4.75847 18.9441C4.762 18.9441 4.762 18.9441 4.76552 18.9405C4.78316 18.937 4.80079 18.9335 4.81842 18.937C4.83606 18.937 4.85016 18.9441 4.86074 18.9511C4.87485 18.9582 4.88542 18.9687 4.89248 18.9829C4.89248 19.004 4.89601 19.0216 4.89953 19.0393C4.90659 19.1803 4.89601 19.0216 4.89953 19.0393Z" fill="#FEFEFE"/>
<path d="M24.2778 6.92233C24.2002 6.82006 24.1191 6.72132 24.0344 6.62257C23.9498 6.52736 23.8616 6.43214 23.7699 6.34398C23.6783 6.25581 23.583 6.16765 23.4843 6.08654C23.3856 6.00543 23.2833 5.92432 23.1775 5.85026C23.0999 5.79384 23.1563 5.68099 23.2057 5.63162C23.2163 5.62104 23.2269 5.61046 23.2374 5.60341C23.248 5.59635 23.2586 5.58577 23.2692 5.57872C23.2798 5.57167 23.2903 5.56461 23.3009 5.56109C23.3115 5.55756 23.3221 5.55051 23.3327 5.55051C23.3397 5.54698 23.3468 5.54698 23.3538 5.54698C23.3609 5.54698 23.3679 5.54698 23.375 5.54346C23.382 5.54346 23.3891 5.54346 23.3961 5.54346C23.4032 5.54346 23.4102 5.54698 23.4138 5.54698C23.4244 5.55051 23.4349 5.55404 23.442 5.55756C23.5513 5.63515 23.6571 5.71626 23.7594 5.80089C23.8616 5.88553 23.9604 5.97722 24.0556 6.06891C24.1508 6.1606 24.2425 6.25581 24.3307 6.35456C24.4188 6.4533 24.5035 6.55557 24.5811 6.65784C24.5846 6.66136 24.5846 6.66137 24.5881 6.66489C24.5881 6.66842 24.5916 6.67194 24.5916 6.67194C24.5916 6.67547 24.5952 6.679 24.5952 6.679C24.5952 6.68253 24.5987 6.68605 24.5987 6.68958C24.6163 6.76364 24.5634 6.84122 24.5105 6.88706L24.4082 6.94349L24.2778 6.92233Z" fill="#FEFEFE"/>
<path d="M5.84784 22.0965C6.12644 22.5303 6.47909 22.9112 6.87407 23.2426C6.94107 23.3061 6.88817 23.4154 6.8388 23.4683L6.71184 23.5459L6.60958 23.5318H6.59899C6.49672 23.4472 6.39798 23.359 6.30276 23.2673C6.20755 23.1756 6.11586 23.0804 6.0277 22.9817C5.93953 22.8829 5.8549 22.7807 5.77379 22.6784C5.69268 22.5726 5.61509 22.4668 5.54456 22.354C5.54456 22.3504 5.54103 22.3504 5.54103 22.3469C5.54103 22.3434 5.53751 22.3434 5.53751 22.3399C5.53751 22.3363 5.53398 22.3328 5.53398 22.3328C5.53398 22.3293 5.53398 22.3257 5.53045 22.3257C5.51282 22.2517 5.56925 22.1706 5.62215 22.1247C5.6292 22.1177 5.63978 22.1106 5.64683 22.1071C5.65388 22.1001 5.66447 22.0965 5.67152 22.093C5.67857 22.0895 5.68915 22.0859 5.6962 22.0824C5.70325 22.0789 5.71384 22.0754 5.72089 22.0754C5.76321 22.0542 5.81611 22.0577 5.84784 22.0965C5.91838 22.2058 5.84079 22.0895 5.84784 22.0965Z" fill="#FEFEFE"/>
<path d="M25.5475 10.0005C25.5299 10.004 25.5157 10.0076 25.4981 10.0076C25.484 10.0076 25.4699 10.004 25.4558 9.99699C25.4417 9.98994 25.4311 9.98288 25.4205 9.97583C25.41 9.96525 25.4029 9.95467 25.3994 9.94057C25.3994 9.93351 25.3958 9.92999 25.3958 9.92293C25.3888 9.83477 25.3782 9.75013 25.3641 9.6655C25.3535 9.58086 25.3394 9.49622 25.3253 9.41159C25.3112 9.32695 25.2936 9.24584 25.2759 9.1612C25.2583 9.07657 25.2407 8.99546 25.2195 8.91787C25.2054 8.86498 25.1913 8.81208 25.1772 8.75918C25.1631 8.70628 25.149 8.65338 25.1314 8.60401C25.1172 8.55112 25.0996 8.50174 25.082 8.44885C25.0643 8.39947 25.0467 8.34658 25.0291 8.2972C24.9938 8.20904 25.0714 8.11383 25.1419 8.07151C25.149 8.06798 25.1525 8.06445 25.1596 8.06093C25.1666 8.0574 25.1701 8.05387 25.1772 8.05387C25.1843 8.05035 25.1878 8.05035 25.1948 8.04682C25.2019 8.04329 25.2054 8.0433 25.2125 8.03977C25.2266 8.03624 25.2407 8.03271 25.2548 8.03271C25.2689 8.03271 25.2795 8.03272 25.29 8.03624C25.3006 8.03977 25.3112 8.04329 25.3218 8.04682C25.3324 8.05387 25.3394 8.06093 25.3465 8.06798C25.3465 8.06798 25.35 8.07151 25.35 8.07503C25.35 8.07856 25.3535 8.07856 25.3535 8.08209C25.3535 8.08561 25.3571 8.08561 25.3571 8.08914C25.3571 8.09267 25.3606 8.09267 25.3606 8.09619C25.41 8.22315 25.4558 8.35716 25.4946 8.49116C25.5334 8.62517 25.5722 8.76271 25.6039 8.90377C25.6356 9.04483 25.6639 9.18589 25.6885 9.33048C25.7132 9.47506 25.7309 9.62318 25.7485 9.77129C25.7485 9.77482 25.7485 9.77482 25.7485 9.77834C25.7485 9.78187 25.7485 9.78187 25.7485 9.7854C25.7485 9.78893 25.7485 9.79245 25.7485 9.79245C25.7485 9.79598 25.7485 9.79951 25.7485 9.79951C25.7379 9.88414 25.6639 9.9582 25.5898 9.99346L25.5475 10.0005Z" fill="#FEFEFE"/>
<path d="M25.7132 11.6333C25.7132 11.6368 25.7132 11.6368 25.7132 11.6404C25.7097 11.665 25.7062 11.6933 25.7026 11.7179C25.7026 11.7285 25.6991 11.7391 25.6991 11.7497C25.6991 11.7603 25.6956 11.7708 25.6956 11.7814C25.6956 11.792 25.6921 11.8026 25.6921 11.8132V11.8167C25.6921 11.8202 25.6921 11.8202 25.6921 11.8237C25.6921 11.8273 25.6921 11.8273 25.6921 11.8308C25.6921 11.8308 25.6921 11.8343 25.6921 11.8378C25.6921 11.8449 25.6885 11.8555 25.6885 11.8625C25.6885 11.8696 25.685 11.8802 25.685 11.8872C25.685 11.8943 25.6815 11.9048 25.6815 11.9119C25.6815 11.919 25.678 11.9295 25.678 11.9366C25.678 11.9436 25.678 11.9472 25.6744 11.9542C25.6744 11.9613 25.6744 11.9648 25.6709 11.9718C25.6709 11.9789 25.6709 11.9824 25.6674 11.9895C25.6674 11.9965 25.6674 12.0001 25.6639 12.0071C25.6639 12.0106 25.6638 12.0177 25.6603 12.0212C25.6603 12.0247 25.6603 12.0318 25.6568 12.0353C25.6568 12.0389 25.6568 12.0459 25.6533 12.0494C25.6533 12.053 25.6533 12.06 25.6497 12.0635C25.6497 12.0706 25.6462 12.0776 25.6462 12.0812C25.6462 12.0882 25.6427 12.0953 25.6427 12.0988C25.6427 12.1059 25.6392 12.1129 25.6392 12.1164C25.6392 12.1235 25.6356 12.1305 25.6356 12.1341C25.6356 12.1376 25.6356 12.1411 25.6321 12.1446C25.6321 12.1482 25.6321 12.1517 25.6321 12.1552C25.6321 12.1588 25.6321 12.1623 25.6286 12.1658C25.6286 12.1693 25.6286 12.1729 25.6251 12.1764C25.6251 12.1834 25.6215 12.1905 25.6215 12.1975C25.6215 12.2046 25.618 12.2117 25.618 12.2187C25.618 12.2258 25.6145 12.2328 25.6145 12.2399C25.6145 12.2469 25.611 12.254 25.611 12.261C25.611 12.2645 25.611 12.2681 25.6074 12.2716C25.6074 12.2751 25.6074 12.2787 25.6074 12.2822C25.6074 12.2857 25.6074 12.2892 25.6039 12.2928C25.6039 12.2963 25.6039 12.2998 25.6039 12.3033C25.6039 12.3104 25.6004 12.3174 25.6004 12.3245C25.6004 12.3316 25.5968 12.3386 25.5968 12.3457C25.5968 12.3527 25.5933 12.3598 25.5933 12.3668C25.5933 12.3739 25.5898 12.3809 25.5898 12.388C25.5898 12.3915 25.5898 12.395 25.5863 12.3986C25.5863 12.4021 25.5863 12.4056 25.5827 12.4091C25.5827 12.4127 25.5827 12.4162 25.5792 12.4197C25.5792 12.4232 25.5792 12.4268 25.5757 12.4303C25.5757 12.4374 25.5722 12.4444 25.5722 12.4515C25.5722 12.4585 25.5686 12.4656 25.5686 12.4726C25.5686 12.4797 25.5651 12.4867 25.5651 12.4938C25.5651 12.5008 25.5616 12.5079 25.5616 12.5149C25.5616 12.5185 25.5616 12.522 25.5581 12.529C25.5581 12.5326 25.5581 12.5361 25.5545 12.5431C25.5545 12.5467 25.5545 12.5502 25.551 12.5573C25.551 12.5608 25.551 12.5643 25.5475 12.5714C25.5475 12.5784 25.5439 12.5855 25.5439 12.589C25.5439 12.596 25.5404 12.6031 25.5404 12.6066C25.5404 12.6137 25.5369 12.6207 25.5369 12.6243C25.5369 12.6313 25.5334 12.6384 25.5334 12.6419C25.5334 12.6454 25.5298 12.6489 25.5298 12.656C25.5298 12.6595 25.5298 12.663 25.5263 12.6701C25.5263 12.6736 25.5228 12.6807 25.5228 12.6842C25.5228 12.6877 25.5193 12.6948 25.5193 12.6983C25.5193 12.7054 25.5157 12.7089 25.5157 12.7159C25.5157 12.723 25.5122 12.7265 25.5122 12.7336C25.5122 12.7406 25.5087 12.7442 25.5087 12.7512C25.5087 12.7583 25.5052 12.7618 25.5052 12.7688C25.5052 12.7759 25.5016 12.7794 25.5016 12.7865C25.5016 12.7935 25.4981 12.7971 25.4981 12.8041C25.4981 12.8112 25.4946 12.8147 25.4946 12.8217C25.4946 12.8253 25.491 12.8323 25.491 12.8358C25.491 12.8394 25.4875 12.8464 25.4875 12.85C25.4875 12.8535 25.484 12.857 25.484 12.8641C25.484 12.8676 25.4805 12.8711 25.4805 12.8782C25.4805 12.8817 25.4769 12.8887 25.4769 12.8923C25.4769 12.8993 25.4734 12.9064 25.4734 12.9134C25.4734 12.9205 25.4699 12.9275 25.4699 12.9346C25.4699 12.9416 25.4664 12.9487 25.4664 12.9557C25.4664 12.9628 25.4628 12.9699 25.4628 12.9769C25.4628 12.9804 25.4628 12.984 25.4593 12.9875C25.4593 12.991 25.4593 12.9945 25.4558 12.9981C25.4558 13.0016 25.4558 13.0051 25.4523 13.0086C25.4523 13.0122 25.4523 13.0157 25.4487 13.0192C25.4452 13.0263 25.4452 13.0333 25.4417 13.0439C25.4382 13.051 25.4382 13.0615 25.4346 13.0686C25.4311 13.0757 25.4311 13.0862 25.4276 13.0933C25.424 13.1003 25.424 13.1109 25.4205 13.118C25.4205 13.118 25.4205 13.1215 25.4205 13.125C25.4205 13.1286 25.4205 13.1285 25.4205 13.1321C25.4205 13.1356 25.4205 13.1356 25.4205 13.1391C25.4205 13.1391 25.4205 13.1427 25.4205 13.1462C25.417 13.1568 25.417 13.1638 25.4135 13.1744C25.4099 13.185 25.4099 13.192 25.4064 13.2026C25.4029 13.2132 25.4029 13.2202 25.3994 13.2308C25.3958 13.2414 25.3958 13.2485 25.3923 13.259C25.3923 13.259 25.3923 13.259 25.3923 13.2626C25.3923 13.2626 25.3923 13.2626 25.3923 13.2661C25.3923 13.2661 25.3923 13.2661 25.3923 13.2696C25.3923 13.2696 25.3923 13.2696 25.3923 13.2731C25.35 13.4213 25.3041 13.5694 25.2583 13.7175C25.2583 13.7175 25.2583 13.7175 25.2583 13.721C25.2583 13.721 25.2583 13.721 25.2583 13.7245C25.2583 13.7245 25.2583 13.7245 25.2583 13.7281C25.2583 13.7281 25.2583 13.7281 25.2583 13.7316C25.2301 13.8092 25.156 13.8726 25.0784 13.8938L25.0467 13.9009C25.022 13.9044 25.0009 13.9009 24.9832 13.8938C24.9656 13.8868 24.9515 13.8762 24.9409 13.8621C24.9303 13.848 24.9268 13.8303 24.9233 13.8127C24.9233 13.7915 24.9233 13.7704 24.9303 13.7492V13.7457V13.7422V13.7386V13.7351C24.9762 13.5941 25.0185 13.453 25.0573 13.3119C25.0961 13.1709 25.1349 13.0298 25.1666 12.8887C25.1983 12.7477 25.2301 12.6066 25.2583 12.4691C25.2865 12.328 25.3112 12.1905 25.3324 12.053C25.3324 12.0424 25.3359 12.0318 25.3359 12.0247C25.3359 12.0142 25.3394 12.0036 25.3394 11.9965C25.3394 11.986 25.3429 11.9789 25.3429 11.9683C25.3429 11.9577 25.3465 11.9507 25.3465 11.9401C25.3535 11.9013 25.357 11.859 25.3641 11.8202C25.3676 11.7849 25.3747 11.7426 25.3923 11.7109C25.4029 11.6897 25.417 11.6686 25.4346 11.6509C25.4523 11.6333 25.4699 11.6157 25.491 11.6051C25.5122 11.591 25.5334 11.5804 25.5581 11.5769C25.5827 11.5698 25.6039 11.5698 25.6251 11.5698C25.6462 11.5734 25.6603 11.5769 25.6744 11.5875C25.6885 11.598 25.6991 11.6086 25.7062 11.6262C25.7097 11.5945 25.7132 11.6121 25.7132 11.6333Z" fill="#FEFEFE"/>
<path d="M13.6484 24.248C13.6731 24.241 13.6942 24.241 13.7119 24.2445C13.733 24.248 13.7506 24.2551 13.7648 24.2657C13.7789 24.2762 13.7894 24.2903 13.7965 24.308C13.8035 24.3256 13.8071 24.3468 13.8035 24.3679C13.7894 24.4632 13.7048 24.5513 13.6166 24.576L13.6025 24.5795C13.4862 24.6077 13.3663 24.6395 13.2499 24.6642C13.1406 24.6888 13.0312 24.7135 12.9219 24.7347C12.8126 24.7559 12.7033 24.777 12.5939 24.7946C12.4846 24.8123 12.3753 24.8299 12.266 24.844H12.2625H12.2589H12.2554H12.2519C12.2448 24.844 12.2342 24.8475 12.2272 24.8475C12.2201 24.8475 12.2095 24.8511 12.2025 24.8511C12.1954 24.8511 12.1849 24.8546 12.1778 24.8546C12.1708 24.8546 12.1602 24.8581 12.1531 24.8581C12.1496 24.8581 12.1425 24.8581 12.139 24.8581C12.1355 24.8581 12.1284 24.8581 12.1249 24.8581C12.1214 24.8581 12.1143 24.8581 12.1108 24.8581C12.1073 24.8581 12.1002 24.8581 12.0967 24.8581C12.0932 24.8581 12.0861 24.8581 12.0826 24.8581C12.0791 24.8581 12.0755 24.8581 12.0685 24.8581C12.065 24.8581 12.0579 24.8581 12.0544 24.8581C12.0509 24.8581 12.0473 24.8581 12.0403 24.8581C12.0332 24.8581 12.0226 24.8616 12.0156 24.8616C12.0085 24.8616 11.998 24.8652 11.9909 24.8652C11.9839 24.8652 11.9733 24.8687 11.9662 24.8687C11.9592 24.8687 11.9486 24.8722 11.9415 24.8722C11.9098 24.8758 11.8781 24.8793 11.8463 24.8828C11.8146 24.8863 11.7828 24.8899 11.7511 24.8899C11.7194 24.8934 11.6912 24.8934 11.6594 24.8969C11.6277 24.9004 11.5995 24.9004 11.5677 24.904C11.5466 24.904 11.5254 24.9004 11.5113 24.8934C11.4937 24.8863 11.4831 24.8758 11.4725 24.8581C11.4619 24.844 11.4584 24.8264 11.4584 24.8052C11.4584 24.7841 11.4619 24.7629 11.469 24.7417C11.476 24.7206 11.4866 24.703 11.4972 24.6818C11.5078 24.6642 11.5254 24.6465 11.5395 24.6289C11.5571 24.6148 11.5748 24.6007 11.5924 24.5901C11.61 24.5795 11.6312 24.5725 11.6488 24.5654C11.6488 24.5654 11.6488 24.5654 11.6524 24.5654H11.6559C11.6559 24.5654 11.6559 24.5654 11.6594 24.5654H11.6629H11.6665H11.67H11.6735H11.677C11.8252 24.5548 11.9768 24.5407 12.1284 24.5231C12.2801 24.5055 12.4317 24.4843 12.5869 24.4596C12.7421 24.4349 12.8972 24.4067 13.0524 24.375C13.2076 24.3432 13.3627 24.308 13.5214 24.2727C13.532 24.2692 13.5426 24.2692 13.5532 24.2657C13.5637 24.2621 13.5743 24.2586 13.5849 24.2586C13.5955 24.2551 13.6061 24.2516 13.6166 24.2516C13.6272 24.2551 13.6378 24.2516 13.6484 24.248Z" fill="#FEFEFE"/>
<path d="M23.6919 16.4298C23.6814 16.4509 23.6708 16.4686 23.6602 16.4862C23.6496 16.5038 23.639 16.5215 23.6285 16.5391C23.6179 16.5567 23.6073 16.5708 23.6003 16.5885C23.5897 16.6061 23.5826 16.6202 23.572 16.6343C23.1771 17.2832 22.7292 17.9144 22.2355 18.521C21.7418 19.1276 21.2022 19.7059 20.6274 20.249C20.0526 20.7921 19.4389 21.2999 18.8006 21.7654C18.1623 22.2274 17.4958 22.647 16.8082 23.0103C16.7941 23.0173 16.7799 23.0244 16.7694 23.0314C16.7553 23.0385 16.7447 23.0455 16.7341 23.0491C16.7235 23.0561 16.7129 23.0596 16.7024 23.0667C16.6918 23.0702 16.6847 23.0773 16.6742 23.0808C16.66 23.0878 16.6459 23.0949 16.6354 23.102C16.6213 23.109 16.6107 23.1161 16.5966 23.1231C16.5825 23.1302 16.5719 23.1372 16.5578 23.1443C16.5437 23.1513 16.5296 23.1584 16.519 23.1654C16.5119 23.169 16.5049 23.1725 16.4978 23.176C16.4908 23.1795 16.4837 23.1831 16.4767 23.1866C16.4696 23.1901 16.4626 23.1936 16.4555 23.1972C16.4485 23.2007 16.4414 23.2042 16.4343 23.2077C16.4202 23.2148 16.4061 23.2219 16.3956 23.2289C16.3815 23.236 16.3709 23.243 16.3568 23.2465C16.3427 23.2536 16.3321 23.2606 16.318 23.2642C16.3039 23.2712 16.2898 23.2783 16.2792 23.2818C16.0641 23.3841 15.8525 23.4828 15.6338 23.5745C15.4187 23.6662 15.2001 23.7544 14.9814 23.8355C14.7628 23.9166 14.5441 23.9906 14.322 24.0612C14.1033 24.1317 13.8811 24.1916 13.659 24.2481C13.6484 24.2516 13.6378 24.2551 13.6272 24.2551C13.6167 24.2587 13.6061 24.2622 13.5955 24.2622C13.5849 24.2657 13.5743 24.2692 13.5638 24.2692C13.5532 24.2728 13.5426 24.2728 13.532 24.2763C13.3768 24.3151 13.2182 24.3503 13.063 24.3786C12.9078 24.4103 12.7527 24.4385 12.5975 24.4632C12.4423 24.4879 12.2907 24.509 12.139 24.5267C11.9874 24.5443 11.8358 24.5584 11.6876 24.569C10.5415 24.643 9.5012 24.509 8.60193 24.1917C7.70619 23.8743 6.94446 23.3735 6.34848 22.7211C5.75603 22.0722 5.33284 21.2682 5.10009 20.3407C4.87086 19.4167 4.83208 18.3658 5.01545 17.2162C5.01545 17.2056 5.01898 17.195 5.01898 17.1844C5.01898 17.1739 5.02251 17.1633 5.02251 17.1527C5.02251 17.1421 5.02603 17.1315 5.02603 17.121C5.02603 17.1104 5.02956 17.0998 5.02956 17.0892C5.21294 16.0313 5.57264 14.9663 6.06636 13.9365C6.5636 12.9068 7.19838 11.9052 7.94247 10.9636C8.68657 10.0256 9.53646 9.14749 10.4639 8.36107C11.3914 7.57466 12.4 6.88346 13.4544 6.31921C13.5109 6.28747 13.5673 6.25926 13.6272 6.22752C13.6837 6.19931 13.7401 6.16757 13.8 6.13936C13.8565 6.11115 13.9164 6.08294 13.9728 6.05472C14.0293 6.02651 14.0892 5.9983 14.1456 5.97009C14.1633 5.95951 14.1844 5.95246 14.1985 5.9454C14.2162 5.93835 14.2303 5.9313 14.2444 5.92424C14.2585 5.91719 14.2726 5.91014 14.2832 5.90661C14.2973 5.89956 14.3079 5.89603 14.322 5.88898C14.4912 5.81139 14.664 5.73734 14.8368 5.66328C15.0096 5.59275 15.1824 5.52222 15.3552 5.45874C15.528 5.39526 15.7044 5.33531 15.8807 5.27536C16.057 5.21894 16.2333 5.16604 16.4097 5.11667C16.4202 5.11314 16.4308 5.10961 16.4414 5.10961C16.452 5.10609 16.4626 5.10256 16.4731 5.10256C16.4837 5.09904 16.4943 5.09551 16.5049 5.09551C16.5155 5.09198 16.526 5.08846 16.5366 5.08846C17.6334 4.79575 18.6702 4.67938 19.6188 4.71817C20.571 4.75696 21.4385 4.95445 22.1932 5.28947C22.9514 5.62801 23.6003 6.11115 24.1151 6.71771C24.63 7.3278 25.0109 8.06484 25.2295 8.91121C25.2507 8.99232 25.2683 9.07343 25.2859 9.15454C25.3036 9.23565 25.3177 9.32029 25.3353 9.40492C25.3494 9.48956 25.3635 9.5742 25.3741 9.65883C25.3847 9.74347 25.3953 9.83164 25.4058 9.91627C25.4199 10.0644 25.4305 10.216 25.4376 10.3641C25.4446 10.5158 25.4446 10.6674 25.4446 10.8226C25.4411 10.9778 25.434 11.1329 25.4235 11.2916C25.4129 11.4503 25.3953 11.609 25.3741 11.7748C25.3741 11.7853 25.3706 11.7959 25.3706 11.8065C25.3706 11.8171 25.367 11.8276 25.367 11.8382C25.367 11.8488 25.3635 11.8594 25.3635 11.87C25.3635 11.8805 25.36 11.8911 25.36 11.9017C25.36 11.9123 25.3565 11.9193 25.3565 11.9299C25.3565 11.9405 25.3529 11.9475 25.3529 11.9581C25.3529 11.9687 25.3494 11.9758 25.3494 11.9863C25.3494 11.9969 25.3459 12.004 25.3459 12.0146C25.3247 12.1521 25.3 12.2932 25.2718 12.4307C25.2436 12.5717 25.2119 12.7093 25.1801 12.8503C25.1484 12.9914 25.1096 13.1325 25.0708 13.2735C25.032 13.4146 24.9897 13.5556 24.9439 13.6967C24.891 13.8625 24.8345 14.0282 24.7711 14.1939C24.7111 14.3597 24.6441 14.5254 24.5771 14.6877C24.5101 14.8534 24.436 15.0156 24.3585 15.1814C24.2809 15.3436 24.2033 15.5093 24.1187 15.6716C24.0834 15.7386 24.0481 15.8056 24.0164 15.869C23.9811 15.9325 23.9494 15.996 23.9141 16.0595C23.8788 16.123 23.8436 16.1829 23.8118 16.2464C23.7625 16.3063 23.7272 16.3663 23.6919 16.4298C23.6778 16.4474 23.7272 16.3663 23.6919 16.4298Z" fill="#ED0E1C"/>
<path d="M18.7481 22.1357C18.5683 22.2627 18.3884 22.3861 18.205 22.506L18.7481 22.1357Z" fill="#6D1627"/>
<path d="M21.5372 19.385C21.5478 19.3815 21.5584 19.3815 21.569 19.3779C21.5796 19.3779 21.5901 19.3779 21.6007 19.3779C21.6113 19.3779 21.6184 19.3815 21.6289 19.385C21.636 19.3885 21.6466 19.392 21.6536 19.3991C21.6677 19.4097 21.6748 19.4202 21.6818 19.4344C21.6889 19.4485 21.6924 19.4661 21.6924 19.4837C21.6924 19.5014 21.6889 19.519 21.6818 19.5366C21.6748 19.5543 21.6677 19.5754 21.6536 19.593C21.6501 19.5966 21.6501 19.6001 21.6466 19.6036C21.643 19.6072 21.643 19.6107 21.6395 19.6142C21.636 19.6177 21.636 19.6213 21.6325 19.6248C21.6289 19.6283 21.6254 19.6318 21.6219 19.6354C21.0576 20.2349 20.4546 20.7991 19.8198 21.3246L19.7987 21.3352L19.7176 21.3739L19.5836 21.3387C19.573 21.3246 19.5694 21.3034 19.5659 21.2858C19.5659 21.2646 19.5694 21.2435 19.5765 21.2223C19.5836 21.2011 19.5941 21.18 19.6082 21.1588C19.6223 21.1377 19.64 21.1165 19.6647 21.0989C19.8198 20.9719 19.9715 20.845 20.1196 20.7145C20.2677 20.584 20.4158 20.45 20.5639 20.3125C20.7085 20.1749 20.8531 20.0374 20.9942 19.8963C21.1352 19.7553 21.2728 19.6107 21.4103 19.4661C21.4209 19.4555 21.4315 19.4449 21.442 19.4379C21.4526 19.4308 21.4632 19.4202 21.4738 19.4167C21.4843 19.4097 21.4949 19.4026 21.5055 19.3991C21.5126 19.392 21.5267 19.3885 21.5372 19.385Z" fill="#FEFEFE"/>
<path d="M14.4101 5.56419C14.4066 5.56419 14.403 5.56419 14.403 5.56772C14.3995 5.56772 14.396 5.57125 14.396 5.57125C14.3925 5.57125 14.3889 5.57477 14.3889 5.57477C14.3854 5.57477 14.3819 5.5783 14.3784 5.5783C13.9164 5.78636 13.465 6.01911 13.0242 6.2695C14.0927 5.65941 15.2318 5.16217 16.4202 4.82715C16.3955 4.8342 16.3744 4.84478 16.3567 4.85889C16.3391 4.87299 16.3215 4.8871 16.3074 4.90473C16.2933 4.92236 16.2827 4.94 16.2721 4.96116C16.2615 4.98231 16.258 4.99995 16.2545 5.02111C16.2404 5.1128 16.3391 5.14454 16.4096 5.1269C15.6938 5.32791 14.999 5.58888 14.3219 5.89569C14.329 5.89216 14.336 5.88863 14.3396 5.88511C14.3466 5.88158 14.3537 5.87805 14.3572 5.87452C14.3642 5.871 14.3713 5.86747 14.3748 5.86395C14.3819 5.86042 14.3889 5.85689 14.3925 5.85337C14.4171 5.84279 14.4383 5.82868 14.4559 5.81457C14.4771 5.79694 14.4912 5.77931 14.5088 5.75815C14.5229 5.73699 14.5335 5.71583 14.5406 5.6982C14.5476 5.67704 14.5512 5.65588 14.5512 5.63825C14.5512 5.62062 14.5441 5.60651 14.5371 5.59593C14.53 5.58535 14.5194 5.57477 14.5053 5.56772C14.4912 5.56067 14.4771 5.55714 14.4595 5.55714C14.4489 5.55714 14.4313 5.56066 14.4101 5.56419Z" fill="#A2000C"/>
<path d="M5.34764 15.1989C5.33001 15.2024 5.31591 15.2095 5.29827 15.2201C5.28417 15.2271 5.26653 15.2377 5.25243 15.2518C5.23832 15.2624 5.22421 15.2765 5.21363 15.2941C5.20305 15.3082 5.19248 15.3259 5.1819 15.34C5.41112 14.6805 5.69677 14.0422 6.02121 13.4251C6.00005 13.485 6.02121 13.5591 6.09174 13.5697L6.15522 13.5626C6.22575 13.545 6.2857 13.4921 6.31744 13.4286C6.66304 12.7797 7.05448 12.1555 7.48472 11.5631C7.52351 11.5102 7.5623 11.3973 7.47766 11.3621C7.44945 11.3515 7.41771 11.3515 7.3895 11.3621C7.37892 11.3656 7.36834 11.3691 7.36129 11.3726C7.35071 11.3762 7.34013 11.3832 7.33307 11.3867C7.32249 11.3938 7.31544 11.3973 7.30486 11.4044C7.29428 11.4114 7.28723 11.4185 7.28018 11.4255C7.72099 10.8225 8.19708 10.2477 8.70842 9.70106C8.67668 9.7469 8.64847 9.83507 8.70842 9.87738L8.81774 9.88796L8.94117 9.81038C9.4631 9.25319 10.0273 8.73126 10.6163 8.2446C10.6692 8.19876 10.7468 8.09296 10.6903 8.0189C10.6833 8.00832 10.6762 8.00127 10.6656 7.99775C10.6551 7.99069 10.648 7.98717 10.6374 7.98717C10.6269 7.98364 10.6163 7.98364 10.6022 7.98364C10.5916 7.98364 10.5775 7.98716 10.5634 7.99069C10.5598 7.99069 10.5528 7.99422 10.5493 7.99422C10.5457 7.99774 10.5387 7.99775 10.5352 8.00127C10.5316 8.0048 10.5246 8.0048 10.5211 8.00832C10.5175 8.01185 10.5105 8.01538 10.5069 8.01538C11.0959 7.52872 11.713 7.08085 12.3584 6.67177C12.2984 6.71409 12.2279 6.80225 12.2561 6.88336C12.2737 6.94331 12.3443 6.95389 12.3936 6.93979L12.4536 6.90805C12.7816 6.70351 13.1166 6.50955 13.4587 6.32617C9.44899 8.47735 5.83078 12.5011 5.03378 17.0891C5.13605 16.4967 5.28769 15.9113 5.4887 15.3435C5.49576 15.3223 5.49928 15.3012 5.49928 15.2835C5.49928 15.2659 5.49223 15.2483 5.48518 15.2377C5.4746 15.2236 5.46402 15.213 5.44639 15.2095C5.43228 15.2024 5.41112 15.2024 5.38996 15.2024C5.37233 15.1954 5.35822 15.1954 5.34764 15.1989Z" fill="#6D1627"/>
<path d="M25.2227 8.91108C24.796 7.24656 23.6464 5.89943 22.0594 5.23291C20.3914 4.53113 18.4906 4.60167 16.7626 5.0319C17.274 4.90495 17.7924 4.80973 18.3178 4.75683L18.346 4.74978C18.4236 4.72862 18.5012 4.66162 18.5259 4.58403C18.5506 4.50998 18.5153 4.43592 18.4306 4.43944C19.0513 4.37597 19.6826 4.36892 20.3032 4.43592C20.2821 4.43239 20.2644 4.43592 20.2468 4.44297C20.2292 4.4465 20.2151 4.45355 20.1974 4.46413C20.1798 4.47118 20.1657 4.48176 20.1516 4.49587C20.1375 4.50645 20.1234 4.52056 20.1093 4.53466C20.0952 4.54877 20.0846 4.5664 20.0775 4.58051C20.067 4.60167 20.0599 4.62282 20.0564 4.64398C20.0529 4.66514 20.0564 4.68278 20.0599 4.69688C20.067 4.71099 20.074 4.72509 20.0881 4.73567C20.1022 4.74625 20.1163 4.75331 20.1375 4.75331C20.2821 4.76741 20.4231 4.78857 20.5642 4.81326C20.7053 4.83794 20.8428 4.86263 20.9803 4.89437C21.1179 4.92611 21.2519 4.96137 21.3859 5.00016C21.5199 5.03896 21.6504 5.08127 21.7773 5.12712L21.8655 5.12359L22.0136 5.0178C22.0524 4.9649 22.0841 4.87674 22.0171 4.82736C22.5108 5.00722 22.9834 5.25055 23.4136 5.55736C23.3854 5.5503 23.3572 5.55383 23.3325 5.56088C23.3219 5.56441 23.3114 5.56794 23.3008 5.57146C23.2902 5.57499 23.2796 5.58204 23.269 5.58909C23.2585 5.59615 23.2479 5.6032 23.2373 5.61378C23.2267 5.62083 23.2162 5.63141 23.2056 5.64199C23.1562 5.69136 23.0998 5.80421 23.1774 5.86064C23.2832 5.93469 23.3854 6.0158 23.4842 6.09691C23.5829 6.17802 23.6781 6.26619 23.7698 6.35435C23.8615 6.44251 23.9497 6.53773 24.0343 6.63294C24.1189 6.72816 24.2 6.83043 24.2776 6.9327L24.4116 6.96091L24.5139 6.90449C24.5668 6.85864 24.6197 6.78106 24.6021 6.707C24.9159 7.12313 25.1663 7.58511 25.3497 8.06824C25.318 8.02945 25.2615 8.02592 25.2157 8.04003C25.2086 8.04003 25.2051 8.04356 25.1981 8.04708C25.191 8.05061 25.1875 8.05061 25.1804 8.05413C25.1734 8.05766 25.1698 8.06119 25.1628 8.06119C25.1557 8.06119 25.1522 8.06824 25.1452 8.07177C25.0782 8.11409 24.997 8.21283 25.0323 8.29747C25.0499 8.34684 25.0676 8.39621 25.0852 8.44911C25.1028 8.49848 25.1205 8.55138 25.1346 8.60427C25.1487 8.65717 25.1663 8.70654 25.1804 8.75944C25.1945 8.80528 25.2086 8.85818 25.2227 8.91108C25.0076 8.07882 25.2086 8.85818 25.2227 8.91108Z" fill="#6D1627"/>
<path d="M25.7449 9.79639C25.8048 10.4065 25.7872 11.0236 25.7131 11.6337C25.7131 11.6125 25.7131 11.5949 25.7061 11.5808C25.699 11.5667 25.6885 11.5526 25.6743 11.542C25.6602 11.5314 25.6426 11.5279 25.625 11.5244C25.6038 11.5209 25.5827 11.5244 25.558 11.5314C25.4698 11.5561 25.3816 11.6372 25.3711 11.7324L25.364 11.7783C25.4416 11.1682 25.4592 10.5511 25.4028 9.93745C25.424 10.0009 25.4945 10.015 25.5509 10.0009L25.5897 9.99035C25.6602 9.95508 25.7343 9.88102 25.7449 9.79639C25.759 9.94097 25.7414 9.81402 25.7449 9.79639Z" fill="#A2000C"/>
<path d="M25.0674 13.859C25.145 13.8378 25.2226 13.7744 25.2473 13.6968C25.0251 14.3845 24.7395 15.0545 24.4115 15.6998C24.4186 15.6787 24.4186 15.6611 24.4186 15.6434C24.4186 15.6258 24.415 15.6117 24.408 15.5976C24.4009 15.5835 24.3903 15.5729 24.3798 15.5623C24.3657 15.5553 24.3516 15.5482 24.3339 15.5447C24.3304 15.5447 24.3233 15.5447 24.3198 15.5447C24.3128 15.5447 24.3092 15.5447 24.3022 15.5447C24.2951 15.5447 24.2916 15.5447 24.2845 15.5482C24.2775 15.5482 24.274 15.5517 24.2669 15.5517C24.1999 15.5694 24.14 15.6152 24.1012 15.6716C24.4256 15.0369 24.7042 14.3774 24.9228 13.6968V13.7003V13.7038V13.7074V13.7109C24.8946 13.7955 24.9405 13.8731 25.0357 13.8661L25.0674 13.859Z" fill="#A2000C"/>
<path d="M18.205 22.5057C18.0216 22.6256 17.8382 22.742 17.6513 22.8549C17.7113 22.8196 17.7677 22.7843 17.8276 22.7491C17.8523 22.7349 17.8699 22.7173 17.8876 22.6997C17.9052 22.6821 17.9193 22.6609 17.9299 22.6397C17.9405 22.6186 17.9475 22.5974 17.9511 22.5763C17.9546 22.5551 17.9511 22.5339 17.9475 22.5163C17.944 22.5022 17.9334 22.4916 17.9264 22.481C17.9158 22.4705 17.9052 22.4634 17.8946 22.4599C17.8805 22.4564 17.8664 22.4528 17.8523 22.4528C17.8382 22.4528 17.8206 22.4528 17.8029 22.4599C17.7959 22.4599 17.7924 22.4634 17.7853 22.4634C17.7783 22.4669 17.7747 22.4669 17.7677 22.4705C17.7606 22.474 17.7571 22.474 17.75 22.4775C17.743 22.481 17.7395 22.4846 17.7324 22.4881C17.6548 22.5339 17.5772 22.5798 17.5032 22.6256C17.4256 22.6715 17.348 22.7173 17.2704 22.7596C17.1929 22.8055 17.1153 22.8478 17.0377 22.8901C16.9601 22.9324 16.8825 22.9748 16.8049 23.0171C19.5556 21.5536 21.9466 19.3072 23.5653 16.6411C23.3572 16.9867 23.1351 17.3217 22.9023 17.6497C22.8565 17.7097 22.8282 17.826 22.9235 17.8578L23.0116 17.8613L23.1527 17.7625C22.6907 18.4079 22.1864 19.025 21.6433 19.6034C21.6786 19.5505 21.7033 19.4553 21.6433 19.4094C21.6363 19.4024 21.6292 19.3989 21.6186 19.3953C21.6081 19.3918 21.601 19.3883 21.5904 19.3883C21.5799 19.3883 21.5693 19.3883 21.5587 19.3883C21.5481 19.3883 21.5375 19.3918 21.527 19.3953C21.5164 19.3989 21.5058 19.4024 21.4952 19.4059C21.4846 19.4094 21.4741 19.4165 21.4635 19.4235C21.4529 19.4306 21.4423 19.4376 21.4317 19.4447C21.4212 19.4518 21.4106 19.4623 21.4 19.4729C21.2625 19.6175 21.1249 19.7621 20.9839 19.9032C20.8428 20.0442 20.6982 20.1817 20.5536 20.3193C20.409 20.4568 20.2609 20.5908 20.1093 20.7213C19.9612 20.8518 19.8095 20.9823 19.6544 21.1057C19.6332 21.1233 19.612 21.1445 19.5979 21.1656C19.5838 21.1868 19.5733 21.208 19.5662 21.2291C19.5591 21.2503 19.5556 21.2714 19.5556 21.2926C19.5556 21.3138 19.5627 21.3314 19.5733 21.3455L19.7073 21.3808L19.7884 21.342C19.4498 21.6206 19.0972 21.8886 18.7375 22.1425" fill="#6D1627"/>
<path opacity="0.7" d="M1.55995 26.0535C2.02898 26.7201 2.6038 27.3019 3.24916 27.7886L27.427 1.86862C27.3071 1.77693 27.1837 1.68171 27.0603 1.59707C26.9756 1.53712 26.8875 1.4807 26.7993 1.42427C26.697 1.3608 26.5948 1.30084 26.489 1.24089C26.4114 1.19505 26.3373 1.14568 26.2562 1.10336C24.1897 0.0171877 21.7705 -0.176771 19.4888 0.133563C19.2137 1.24089 18.9598 2.35175 18.7271 3.46613L18.7059 3.5684C17.983 3.64246 17.2706 3.78705 16.5689 3.98101C16.3855 4.0339 16.1986 4.0868 16.0152 4.14675C15.8318 4.2067 15.6484 4.27018 15.4686 4.33366C15.2887 4.40066 15.1053 4.47119 14.9255 4.54172C14.7456 4.61578 14.5658 4.69336 14.3895 4.77095L14.3965 4.67573C14.4776 3.62835 14.5411 2.57745 14.5728 1.52654C13.0776 2.16484 11.6529 2.96889 10.3163 3.89637C5.86937 6.97503 1.99724 11.6018 0.554893 16.9022C0.625423 16.6412 0.703008 16.3838 0.787645 16.1299C1.93024 15.9289 3.07283 15.7102 4.20837 15.474L4.31065 15.4563C4.07437 16.1369 3.88393 16.8352 3.76756 17.5476C3.73935 17.7204 3.71466 17.8932 3.69703 18.0624C3.6794 18.2317 3.66529 18.401 3.65471 18.5667C3.64413 18.7325 3.6406 18.8947 3.6406 19.0569C3.6406 19.2191 3.64413 19.3778 3.65118 19.533L3.54186 19.5718C2.35695 19.9562 1.17909 20.3582 0.00475521 20.7779C0.00122868 20.4852 0.0118108 20.1889 0.0294435 19.8962C-0.0516666 21.0882 0.0294398 22.2907 0.339774 23.4439C0.593684 24.3925 1.00982 25.2706 1.55995 26.05C1.56701 26.0465 1.56348 26.05 1.55995 26.0535Z" fill="url(#paint0_linear)"/>
<defs>
<linearGradient id="paint0_linear" x1="15.5373" y1="14.9909" x2="-1.01469" y2="1.78127" gradientUnits="userSpaceOnUse">
<stop stop-color="white"/>
<stop offset="0.0848" stop-color="#F6F6F6"/>
<stop offset="0.2247" stop-color="#DDDDDD"/>
<stop offset="0.4024" stop-color="#B4B4B4"/>
<stop offset="0.6108" stop-color="#7C7C7C"/>
<stop offset="0.8422" stop-color="#353535"/>
<stop offset="1"/>
</linearGradient>
</defs>
</svg>
