<svg width="106" height="106" viewBox="0 0 106 106" fill="none" xmlns="http://www.w3.org/2000/svg">
<path d="M3.12431 16.3987H77.8891V13.2744H0V92.726H21.4737V89.6017H3.12431V16.3987Z" fill="white"/>
<path d="M82.867 13.2744V16.3987H102.876V89.6017H26.4512V92.726H106V13.2744H82.867Z" fill="white"/>
<path d="M63.5569 86.0892H99.3625V19.9121H6.63672V61.2968H9.76103V23.0364H96.2382V82.9649H65.6721L62.3536 74.6683H43.6454L40.3269 82.9649H9.76103V66.2749H6.63672V86.0892H42.4424L45.7607 77.7929H60.2384L63.5569 86.0892Z" fill="white"/>
<path d="M57.9772 81.3047H48.0215V84.429H57.9772V81.3047Z" fill="white"/>
<path d="M21.4729 29.6731V26.5488H13.2734V38.0668H16.3977V29.6731H21.4729Z" fill="white"/>
<path d="M16.3977 41.3857H13.2734V44.7045H16.3977V41.3857Z" fill="white"/>
<path d="M92.8224 76.3262H89.5039V79.4505H92.8224V76.3262Z" fill="white"/>
<path d="M86.1859 76.3262H82.8672V79.4505H86.1859V76.3262Z" fill="white"/>
<path d="M79.5492 76.3262H76.2305V79.4505H79.5492V76.3262Z" fill="white"/>
<path d="M53.001 71.1552C58.2948 71.1552 63.3615 69.2281 67.262 65.7343C71.8459 61.6701 74.4747 55.8191 74.4747 49.6819C74.4747 43.936 72.244 38.5407 68.1932 34.4897C64.1424 30.4392 58.747 28.208 53.001 28.208C47.2551 28.208 41.8599 30.439 37.8089 34.4897C33.7583 38.5405 31.5273 43.936 31.5273 49.6819C31.5273 55.8194 34.1562 61.6703 38.7343 65.7293C42.6406 69.2279 47.7073 71.1552 53.001 71.1552ZM51.4388 67.9626C48.0447 67.6762 44.8165 66.4628 42.1025 64.4484L47.023 59.5281C48.3687 60.3438 49.8738 60.8775 51.4388 61.0916V67.9626ZM54.5633 67.9628V61.092C56.1256 60.8796 57.623 60.3492 58.9764 59.5254L63.8998 64.4488C61.1881 66.462 57.9592 67.6764 54.5633 67.9628ZM66.2477 62.3781L61.4146 57.545C63.0361 55.8138 64.0872 53.6165 64.4101 51.244H71.2827C70.9258 55.42 69.1489 59.3542 66.2477 62.3781ZM71.2809 48.1194H64.4122C64.1468 46.1411 63.3791 44.2896 62.1742 42.7176L67.0386 37.8532C69.4936 40.7591 70.9639 44.3175 71.2809 48.1194ZM54.5633 31.4017C58.3652 31.7186 61.9237 33.189 64.8296 35.644L59.9643 40.509C58.3892 39.3024 56.5392 38.5356 54.5633 38.2706V31.4017ZM58.937 43.7558C60.5217 45.326 61.3947 47.4304 61.3947 49.6815C61.3947 52.4787 60.0153 55.0769 57.7007 56.6344C56.3088 57.5768 54.684 58.075 53.0013 58.075C51.0208 58.075 49.1732 57.4129 47.6586 56.1601C45.7195 54.5567 44.608 52.1953 44.608 49.6815C44.6078 47.4304 45.4808 45.326 47.0756 43.7455C48.6459 42.1609 50.7504 41.2878 53.0013 41.2878C55.2519 41.288 57.3564 42.1607 58.937 43.7558ZM51.4388 31.4017V38.2703C49.4606 38.5358 47.6091 39.3032 46.0371 40.5081L41.1725 35.6437C44.0784 33.189 47.6369 31.7186 51.4388 31.4017ZM38.9635 37.8532L43.8287 42.7182C42.6219 44.2933 41.8549 46.1435 41.5899 48.1194H34.7214C35.0384 44.3177 36.5087 40.7593 38.9635 37.8532ZM34.7196 51.244H41.593C41.9137 53.6068 42.9561 55.8024 44.5865 57.5462L39.7541 62.3785C36.8545 59.3575 35.0765 55.4219 34.7196 51.244Z" fill="white"/>
</svg>
