<svg width="90" height="68" viewBox="0 0 90 68" fill="none" xmlns="http://www.w3.org/2000/svg">
<path d="M2.64774 2.64774H66.0083V0H0V67.3324H18.1982V64.6847H2.64774V2.64774Z" fill="#A2000C"/>
<path d="M70.2274 0V2.64774H87.184V64.6847H22.417V67.3324H89.8317V0H70.2274Z" fill="#A2000C"/>
<path d="M53.8628 61.7078H84.2069V5.625H5.625V40.6971H8.27274V8.27274H81.5591V59.0601H55.6554L52.8431 52.029H36.9886L34.1763 59.0601H8.27274V44.9159H5.625V61.7078H35.969L38.7812 54.6769H51.0505L53.8628 61.7078Z" fill="#A2000C"/>
<path d="M49.1334 57.6533H40.6963V60.3011H49.1334V57.6533Z" fill="#A2000C"/>
<path d="M18.1978 13.8977V11.25H11.249V21.0111H13.8968V13.8977H18.1978Z" fill="#A2000C"/>
<path d="M13.8968 23.8232H11.249V26.6357H13.8968V23.8232Z" fill="#A2000C"/>
<path d="M78.6649 53.4346H75.8525V56.0823H78.6649V53.4346Z" fill="#A2000C"/>
<path d="M73.0391 53.4346H70.2266V56.0823H73.0391V53.4346Z" fill="#A2000C"/>
<path d="M67.415 53.4346H64.6025V56.0823H67.415V53.4346Z" fill="#A2000C"/>
<path d="M44.916 49.0525C49.4023 49.0525 53.6961 47.4194 57.0016 44.4585C60.8863 41.0142 63.1142 36.0557 63.1142 30.8546C63.1142 25.9852 61.2237 21.4129 57.7908 17.9798C54.3579 14.5471 49.7855 12.6562 44.916 12.6562C40.0465 12.6562 35.4742 14.5469 32.0412 17.9798C28.6084 21.4127 26.7178 25.9852 26.7178 30.8546C26.7178 36.0559 28.9457 41.0144 32.8254 44.4543C36.1359 47.4192 40.4297 49.0525 44.916 49.0525ZM43.592 46.3469C40.7157 46.1042 37.9799 45.0759 35.6799 43.3687L39.8498 39.199C40.9903 39.8902 42.2658 40.3426 43.592 40.524V46.3469ZM46.2399 46.347V40.5243C47.5639 40.3443 48.8329 39.8948 49.9799 39.1967L54.1523 43.3691C51.8542 45.0752 49.1179 46.1044 46.2399 46.347ZM56.1421 41.6142L52.0462 37.5183C53.4203 36.0512 54.3111 34.1891 54.5848 32.1784H60.4091C60.1066 35.7175 58.6007 39.0516 56.1421 41.6142ZM60.4075 29.5305H54.5865C54.3616 27.8539 53.711 26.2848 52.6899 24.9526L56.8123 20.8302C58.8928 23.2928 60.1389 26.3085 60.4075 29.5305ZM46.2399 15.3628C49.4619 15.6314 52.4776 16.8774 54.9403 18.958L50.8171 23.0809C49.4823 22.0584 47.9145 21.4085 46.2399 21.1839V15.3628ZM49.9465 25.8325C51.2894 27.1631 52.0293 28.9466 52.0293 30.8543C52.0293 33.2248 50.8603 35.4267 48.8987 36.7467C47.7192 37.5453 46.3422 37.9675 44.9162 37.9675C43.2378 37.9675 41.6721 37.4064 40.3885 36.3447C38.7452 34.9858 37.8032 32.9846 37.8032 30.8543C37.803 28.9466 38.5429 27.1631 39.8944 25.8237C41.2252 24.4808 43.0087 23.7409 44.9162 23.7409C46.8235 23.7411 48.607 24.4807 49.9465 25.8325ZM43.592 15.3628V21.1837C41.9156 21.4087 40.3465 22.0591 39.0143 23.0802L34.8917 18.9578C37.3544 16.8774 40.37 15.6314 43.592 15.3628ZM33.0197 20.8302L37.1428 24.9531C36.1201 26.288 35.47 27.856 35.2454 29.5305H29.4246C29.6933 26.3087 30.9393 23.293 33.0197 20.8302ZM29.4231 32.1784H35.2481C35.5198 34.1809 36.4032 36.0415 37.7849 37.5194L33.6897 41.6146C31.2323 39.0544 29.7255 35.719 29.4231 32.1784Z" fill="#A2000C"/>
</svg>
