<svg width="79" height="53" viewBox="0 0 79 53" fill="none" xmlns="http://www.w3.org/2000/svg">
<path d="M10.7013 58.8852H67.9526C73.5839 58.8852 78.1672 54.338 78.1672 48.7538V18.7384C78.1672 13.1574 73.5949 8.61805 67.9746 8.60705L68.0532 8.60548V7.0311C68.1082 6.16535 67.5488 5.463 66.6799 5.463H61.1806C60.3117 5.463 59.6093 6.16535 59.6093 7.03424V8.60548H57.5777C56.7387 3.85248 52.556 0.224487 47.5265 0.224487H31.1275C26.0995 0.224487 21.9184 3.85248 21.0778 8.60548H10.7013C5.07002 8.60548 0.488281 13.1511 0.488281 18.7384V48.7538C0.488281 54.338 5.07002 58.8852 10.7013 58.8852ZM3.86488 18.7384C3.86488 15.013 6.93194 11.9836 10.7013 11.9836H20.9144H24.291L24.5534 8.60548C25.3406 5.73325 27.9756 3.60265 31.1275 3.60265H47.5265C50.68 3.60265 53.3149 5.73168 54.1021 8.60548L54.3645 11.9836H57.7411H67.9526C71.7236 11.9836 74.7906 15.013 74.7906 18.7384V48.7538C74.7906 52.4776 71.7236 55.5086 67.9526 55.5086H10.7013C6.93351 55.5086 3.86488 52.4776 3.86488 48.7538V18.7384ZM29.1446 11.2232H49.2753C49.9808 11.2232 50.5511 10.6528 50.5511 9.94732C50.5511 9.24183 49.9808 8.67147 49.2753 8.67147H29.1446C28.4406 8.67147 27.8687 9.24183 27.8687 9.94732C27.8687 10.6528 28.4406 11.2232 29.1446 11.2232ZM39.3293 52.5876C49.8394 52.5876 58.3916 44.0369 58.3916 33.5253C58.3916 23.0153 49.8409 14.4631 39.3293 14.4631C28.8177 14.4631 20.267 23.0138 20.267 33.5253C20.267 44.0369 28.8177 52.5876 39.3293 52.5876ZM39.3293 17.6543C48.0811 17.6543 55.2004 24.7735 55.2004 33.5269C55.2004 42.2787 48.0811 49.3996 39.3293 49.3996C30.5775 49.3996 23.4567 42.2803 23.4567 33.5269C23.4567 24.7735 30.576 17.6543 39.3293 17.6543ZM29.2828 34.5891C29.2828 28.268 34.4239 23.1269 40.745 23.1269C41.3327 23.1269 41.8088 22.6508 41.8088 22.0632C41.8088 21.4755 41.3327 20.9994 40.745 20.9994C33.2533 20.9994 27.1569 27.0958 27.1569 34.5875C27.1569 35.1752 27.633 35.6512 28.2207 35.6512C28.8067 35.6528 29.2828 35.1767 29.2828 34.5891Z" fill="white"/>
</svg>
