<svg width="96" height="64" viewBox="0 0 96 64" fill="none" xmlns="http://www.w3.org/2000/svg">
<path d="M13.0479 72.0639H82.78C89.6389 72.0639 95.2214 66.5255 95.2214 59.7239V23.1652C95.2214 16.3675 89.6523 10.8386 82.8067 10.8252L82.9024 10.8233V8.90569C82.9694 7.8512 82.2881 6.99574 81.2298 6.99574H74.5316C73.4733 6.99574 72.6178 7.8512 72.6178 8.90951V10.8233H70.1433C69.1214 5.03413 64.0269 0.615234 57.9009 0.615234H37.9269C31.8029 0.615234 26.7103 5.03413 25.6864 10.8233H13.0479C6.18895 10.8233 0.608398 16.3598 0.608398 23.1652V59.7239C0.608398 66.5255 6.18895 72.0639 13.0479 72.0639ZM4.72109 23.1652C4.72109 18.6276 8.45677 14.9379 13.0479 14.9379H25.4874H29.6001L29.9197 10.8233C30.8785 7.32491 34.0879 4.72984 37.9269 4.72984H57.9009C61.7419 4.72984 64.9513 7.323 65.9101 10.8233L66.2297 14.9379H70.3424H82.78C87.373 14.9379 91.1087 18.6276 91.1087 23.1652V59.7239C91.1087 64.2596 87.373 67.9512 82.78 67.9512H13.0479C8.45868 67.9512 4.72109 64.2596 4.72109 59.7239V23.1652ZM35.5117 14.0116H60.031C60.8902 14.0116 61.5849 13.3169 61.5849 12.4576C61.5849 11.5984 60.8902 10.9037 60.031 10.9037H35.5117C34.6544 10.9037 33.9578 11.5984 33.9578 12.4576C33.9578 13.3169 34.6544 14.0116 35.5117 14.0116ZM47.9168 64.3935C60.718 64.3935 71.1347 53.9788 71.1347 41.1757C71.1347 28.3745 60.7199 17.9578 47.9168 17.9578C35.1137 17.9578 24.6989 28.3726 24.6989 41.1757C24.6989 53.9788 35.1137 64.3935 47.9168 64.3935ZM47.9168 21.8447C58.5765 21.8447 67.2478 30.516 67.2478 41.1776C67.2478 51.8373 58.5765 60.5105 47.9168 60.5105C37.2571 60.5105 28.5839 51.8392 28.5839 41.1776C28.5839 30.516 37.2552 21.8447 47.9168 21.8447ZM35.6802 42.4713C35.6802 34.7722 41.942 28.5103 49.6411 28.5103C50.3569 28.5103 50.9367 27.9305 50.9367 27.2147C50.9367 26.499 50.3569 25.9191 49.6411 25.9191C40.5163 25.9191 33.0908 33.3445 33.0908 42.4694C33.0908 43.1851 33.6707 43.765 34.3864 43.765C35.1003 43.7669 35.6802 43.187 35.6802 42.4713Z" fill="white"/>
</svg>
