<svg width="84" height="86" viewBox="0 0 84 86" fill="none" xmlns="http://www.w3.org/2000/svg">
<path d="M60.7088 54.3009V50.4037L65.4828 47.7874C65.5647 47.7429 65.6409 47.6911 65.7128 47.6307C68.0143 45.7117 69.3339 42.8941 69.3339 39.8997V36.7516H70.0527C72.8271 36.7516 75.084 34.4947 75.084 31.7202C75.084 30.0944 74.2962 28.6612 73.0945 27.7397C73.4481 26.1613 73.6465 24.3084 73.6465 22.3763C73.6465 10.4866 63.9734 0.813477 52.0836 0.813477C46.598 0.813477 41.4574 2.86195 37.4626 6.56357H33.3958C28.639 6.56357 24.7707 10.4319 24.7707 15.1887C24.7707 17.3996 25.6145 19.4136 26.9873 20.9417C25.0179 20.9546 23.3101 22.2915 22.8314 24.2063L22.2119 26.6889H17.583V26.3065C17.583 24.1747 15.9917 22.339 13.8814 22.0385L8.33833 21.2464C6.49543 20.9791 4.70284 21.9235 3.87195 23.5867L0.788459 29.7523C0.489454 30.3474 0.332764 31.0144 0.332764 31.68V49.5872C0.332764 51.893 1.22978 54.0579 2.85993 55.6866L7.27313 60.1027C8.3599 61.1866 8.95791 62.6299 8.95791 64.1666V85.6274C8.95791 86.4209 9.60048 87.0649 10.3954 87.0649H23.3331H80.8341C81.5874 87.0649 82.2141 86.4827 82.2673 85.7294L83.7091 65.502C83.7091 60.4261 68.4326 56.1409 60.7088 54.3009ZM39.8949 58.2684L44.5021 74.3946L42.1776 74.1358L41.86 76.9922L66.4589 79.7263V84.1898H36.0394L32.6727 65.1125C32.1552 62.1627 30.929 59.3365 29.1307 56.9387C27.8383 55.2166 26.1378 53.7963 24.2115 52.8346L19.6028 50.5302C19.2333 50.3448 18.976 50.0113 18.8696 49.6188L18.8121 49.363L17.9769 42.6828C17.9252 42.2673 18.0488 41.8663 18.3248 41.5529C18.5376 41.3114 18.8236 41.1849 19.1298 41.1245C19.8658 46.7582 24.6873 51.1268 30.5208 51.1268C36.7266 51.1268 41.7852 46.1832 42.0008 40.0291C42.1604 40.1369 42.3128 40.2577 42.4465 40.4058C42.9007 40.9089 43.1149 41.5572 43.0473 42.2314L42.1805 50.8925C42.1144 51.5494 41.8211 52.169 41.3568 52.6333C39.8848 54.1054 39.3242 56.2631 39.8949 58.2684ZM21.8036 62.7937L19.8112 53.848L22.9249 55.4049C24.453 56.1696 25.8042 57.2952 26.8306 58.6637C27.0175 58.9139 27.1742 59.1841 27.3467 59.4443C24.7319 60.5828 22.9062 61.6754 21.8036 62.7937ZM21.8956 39.6266C21.8956 34.8698 25.764 31.0015 30.5208 31.0015C35.2775 31.0015 39.1459 34.8698 39.1459 39.6266C39.1459 44.3834 35.2775 48.2518 30.5208 48.2518C25.764 48.2518 21.8956 44.3834 21.8956 39.6266ZM41.6688 36.8551C40.8896 33.7227 38.8325 31.092 36.0754 29.5639H49.2086V49.6893H45.1907L45.908 42.5175C46.0546 41.0454 45.5702 39.5734 44.5769 38.4766C43.8078 37.627 42.78 37.0678 41.6688 36.8551ZM46.3335 52.5643H50.6461H54.5303C55.6645 52.5643 56.7886 52.3358 57.8337 51.9074V57.692C54.5547 60.567 49.6125 60.567 46.3335 57.692V52.5643ZM66.4589 39.8997C66.4589 41.9942 65.5546 43.9679 63.9734 45.335L57.3406 48.9705C56.481 49.442 55.5107 49.6893 54.5303 49.6893H52.0836V28.1264C52.0836 27.3329 51.441 26.6889 50.6461 26.6889H38.8297L38.2086 24.2049C38.1741 24.0683 38.1209 23.9432 38.0749 23.8139H60.2028L66.4589 28.8164V39.8997ZM70.0527 33.8765H69.3339V29.5639H70.0527C71.2415 29.5639 72.2089 30.5314 72.2089 31.7202C72.2089 32.9091 71.2415 33.8765 70.0527 33.8765ZM52.0836 3.68852C62.3878 3.68852 70.7714 12.0722 70.7714 22.3763C70.7714 23.9404 70.6334 25.4368 70.3819 26.722C70.2712 26.7148 70.1648 26.6889 70.0527 26.6889H68.401L62.1463 21.6849V15.1887C62.1463 10.4319 58.2779 6.56357 53.5211 6.56357H42.1475C45.0958 4.70198 48.5042 3.68852 52.0836 3.68852ZM33.3958 9.43862H53.5211C56.6923 9.43862 59.2712 12.0175 59.2712 15.1887V20.9388H34.0254H33.3958C30.2246 20.9388 27.6457 18.3599 27.6457 15.1887C27.6457 12.0175 30.2246 9.43862 33.3958 9.43862ZM25.6202 24.9035C25.7812 24.2624 26.3548 23.8139 27.0161 23.8139H33.3958H34.0254C34.6867 23.8139 35.2588 24.2624 35.4213 24.9035L35.8684 26.6889H25.1732L25.6202 24.9035ZM24.9662 29.5639C21.8166 31.3105 19.574 34.4918 19.1169 38.2193C17.987 38.2955 16.9247 38.7929 16.17 39.6467C15.352 40.5739 14.9711 41.8088 15.1234 43.035L15.9543 49.6893H13.2705V45.3767H13.1871C14.1229 44.4624 14.708 43.1917 14.708 41.7829V29.5639H16.1455H24.9662ZM9.30579 58.0686L4.89259 53.6525C3.80582 52.5672 3.20781 51.1239 3.20781 49.5872V31.68C3.20781 31.4586 3.25956 31.2344 3.35875 31.0374L6.44224 24.8719C6.71824 24.3184 7.3105 24.0036 7.93008 24.0927L13.4732 24.8848C14.1776 24.984 14.708 25.5964 14.708 26.3065V26.6889H13.2705H8.95791V29.5639H11.833V32.439H8.95791V35.314H11.833V38.1891H8.95791V41.0641H11.833V41.7829C11.833 42.9717 10.8655 43.9392 9.67667 43.9392H8.95791V46.8142H9.67667C9.92248 46.8142 10.1582 46.7754 10.3954 46.7409V51.1268C10.3954 51.9203 11.038 52.5643 11.833 52.5643H16.5811L20.494 70.1265L20.7815 70.0619L21.7892 84.1898H11.833V64.1666C11.833 61.8622 10.9359 59.6959 9.30579 58.0686ZM23.3331 65.502C23.3331 65.4891 23.497 64.2097 28.7425 61.9614C29.2486 63.1301 29.6194 64.3578 29.8408 65.6113L33.1198 84.1898H24.67L23.3331 65.502ZM79.4958 84.1898H69.3339V72.6897H66.4589V76.834L47.5928 74.7381L42.6606 57.4792C42.376 56.4787 42.6549 55.402 43.3895 54.666C43.4153 54.6401 43.434 54.6099 43.4585 54.584V58.3144C43.4585 58.6954 43.6094 59.0619 43.8797 59.3307C46.1409 61.592 49.1137 62.7233 52.0836 62.7233C55.0535 62.7233 58.0263 61.592 60.2876 59.3307C60.5578 59.0619 60.7088 58.6954 60.7088 58.3144V57.2622C71.4485 59.9014 80.8341 63.6994 80.8384 65.4L79.4958 84.1898Z" fill="white"/>
</svg>
