<svg width="123" height="125" viewBox="0 0 123 125" fill="none" xmlns="http://www.w3.org/2000/svg">
<path d="M88.6164 78.5052V72.7852L95.6234 68.9452C95.7437 68.8798 95.8555 68.8038 95.961 68.7152C99.339 65.8985 101.276 61.763 101.276 57.3681V52.7474H102.331C106.403 52.7474 109.716 49.4348 109.716 45.3627C109.716 42.9763 108.559 40.8728 106.795 39.5203C107.314 37.2036 107.606 34.4839 107.606 31.6482C107.606 14.1971 93.408 -0.000488281 75.9569 -0.000488281C67.9055 -0.000488281 60.3604 3.00614 54.497 8.43917H48.528C41.5463 8.43917 35.8685 14.1169 35.8685 21.0986C35.8685 24.3437 37.1071 27.2997 39.122 29.5425C36.2314 29.5615 33.7249 31.5237 33.0223 34.3341L32.1129 37.978H25.319V37.4167C25.319 34.2877 22.9833 31.5934 19.8859 31.1524L11.7501 29.9898C9.0452 29.5974 6.41414 30.9836 5.19461 33.4248L0.668842 42.4742C0.22998 43.3477 0 44.3267 0 45.3036V71.5868C0 74.9711 1.31659 78.1486 3.70923 80.5391L10.1867 87.0208C11.7818 88.6117 12.6595 90.73 12.6595 92.9855V124.484C12.6595 125.649 13.6026 126.594 14.7694 126.594H33.7586H118.155C119.261 126.594 120.181 125.74 120.259 124.634L122.375 94.9456C122.375 87.4955 99.9529 81.2059 88.6164 78.5052ZM58.0669 84.3285L64.8292 107.998L61.4175 107.618L60.9512 111.81L97.056 115.823V122.375H52.4081L47.4667 94.3738C46.7072 90.0443 44.9074 85.8962 42.2679 82.3769C40.3711 79.8492 37.8751 77.7646 35.0478 76.3531L28.2834 72.9709C27.7411 72.6987 27.3635 72.2092 27.2073 71.6332L27.1229 71.2576L25.8971 61.4529C25.8211 60.8431 26.0026 60.2544 26.4077 59.7945C26.7199 59.44 27.1398 59.2543 27.5892 59.1657C28.6695 67.4345 35.7462 73.8465 44.3082 73.8465C53.4167 73.8465 60.8415 66.5905 61.158 57.558C61.3922 57.7162 61.6158 57.8934 61.812 58.1108C62.4788 58.8492 62.7931 59.8008 62.694 60.7903L61.4217 73.5026C61.3246 74.4668 60.8942 75.3762 60.2127 76.0577C58.0522 78.2182 57.2293 81.3852 58.0669 84.3285ZM31.5137 90.9706L28.5893 77.8406L33.1594 80.1256C35.4022 81.2481 37.3856 82.9001 38.892 84.9088C39.1663 85.2759 39.3963 85.6726 39.6495 86.0545C35.8116 87.7255 33.132 89.329 31.5137 90.9706ZM31.6487 56.9672C31.6487 49.9855 37.3265 44.3077 44.3082 44.3077C51.2899 44.3077 56.9677 49.9855 56.9677 56.9672C56.9677 63.9489 51.2899 69.6267 44.3082 69.6267C37.3265 69.6267 31.6487 63.9489 31.6487 56.9672ZM60.6706 52.8993C59.527 48.3018 56.5077 44.4406 52.4609 42.1978H71.7371V71.7366H65.8399L66.8927 61.2102C67.1079 59.0497 66.3969 56.8891 64.9389 55.2793C63.8101 54.0323 62.3015 53.2115 60.6706 52.8993ZM67.5172 75.9564H73.847H79.548C81.2127 75.9564 82.8626 75.6209 84.3966 74.9922V83.4825C79.5838 87.7023 72.33 87.7023 67.5172 83.4825V75.9564ZM97.056 57.3681C97.056 60.4422 95.7289 63.3391 93.408 65.3457L83.6729 70.6816C82.4111 71.3737 80.9869 71.7366 79.548 71.7366H75.9569V40.0879C75.9569 38.9232 75.0138 37.978 73.847 37.978H56.5035L55.592 34.332C55.5414 34.1316 55.4633 33.948 55.3958 33.7581H87.8737L97.056 41.1006V57.3681ZM102.331 48.5275H101.276V42.1978H102.331C104.076 42.1978 105.496 43.6178 105.496 45.3627C105.496 47.1076 104.076 48.5275 102.331 48.5275ZM75.9569 4.21934C91.0808 4.21934 103.386 16.5244 103.386 31.6482C103.386 33.9438 103.183 36.1402 102.814 38.0265C102.652 38.0159 102.495 37.978 102.331 37.978H99.9065L90.7263 30.6333V21.0986C90.7263 14.1169 85.0485 8.43917 78.0668 8.43917H61.3732C65.7006 5.70683 70.7032 4.21934 75.9569 4.21934ZM48.528 12.659H78.0668C82.7213 12.659 86.5065 16.4442 86.5065 21.0986V29.5383H49.4522H48.528C43.8735 29.5383 40.0884 25.7531 40.0884 21.0986C40.0884 16.4442 43.8735 12.659 48.528 12.659ZM37.1155 35.3574C37.3518 34.4164 38.1937 33.7581 39.1642 33.7581H48.528H49.4522C50.4227 33.7581 51.2625 34.4164 51.5009 35.3574L52.1571 37.978H36.4593L37.1155 35.3574ZM36.1555 42.1978C31.5327 44.7613 28.2412 49.4306 27.5702 54.9016C25.9118 55.0134 24.3526 55.7434 23.2449 56.9967C22.0444 58.3576 21.4853 60.17 21.7089 61.9698L22.9284 71.7366H18.9892V65.4068H18.8668C20.2404 64.0649 21.0991 62.1998 21.0991 60.1321V42.1978H23.2091H36.1555ZM13.1701 84.0353L6.69265 77.5536C5.09755 75.9606 4.21983 73.8423 4.21983 71.5868V45.3036C4.21983 44.9787 4.29578 44.6495 4.44137 44.3605L8.96713 35.311C9.37224 34.4987 10.2415 34.0366 11.1509 34.1675L19.2867 35.33C20.3206 35.4756 21.0991 36.3744 21.0991 37.4167V37.978H18.9892H12.6595V42.1978H16.8793V46.4176H12.6595V50.6374H16.8793V54.8573H12.6595V59.0771H16.8793V60.1321C16.8793 61.877 15.4593 63.2969 13.7144 63.2969H12.6595V67.5168H13.7144C14.0752 67.5168 14.4213 67.4598 14.7694 67.4091V73.8465C14.7694 75.0112 15.7125 75.9564 16.8793 75.9564H23.8484L29.5915 101.733L30.0135 101.638L31.4926 122.375H16.8793V92.9855C16.8793 89.6033 15.5627 86.4237 13.1701 84.0353ZM33.7586 94.9456C33.7586 94.9266 33.9992 93.0488 41.6982 89.7489C42.4409 91.4643 42.9853 93.2661 43.3102 95.106L48.1229 122.375H35.7208L33.7586 94.9456ZM116.191 122.375H101.276V105.495H97.056V111.578L69.3655 108.502L62.1264 83.1702C61.7086 81.7017 62.118 80.1214 63.1961 79.0411C63.2341 79.0031 63.2615 78.9588 63.2974 78.9208V84.3961C63.2974 84.9552 63.519 85.4932 63.9156 85.8878C67.2345 89.2067 71.5978 90.8672 75.9569 90.8672C80.316 90.8672 84.6793 89.2067 87.9982 85.8878C88.3948 85.4932 88.6164 84.9552 88.6164 84.3961V82.8516C104.38 86.7254 118.155 92.2998 118.161 94.7958L116.191 122.375Z" fill="white"/>
<path d="M86.5058 42.7256C84.4698 42.7256 82.8135 44.3819 82.8135 46.4179C82.8135 48.454 84.4698 50.1103 86.5058 50.1103C88.5419 50.1103 90.1982 48.454 90.1982 46.4179C90.1982 44.3819 88.5419 42.7256 86.5058 42.7256ZM85.9783 46.4179C85.9783 46.1268 86.2147 45.8905 86.5058 45.8905C86.797 45.8905 87.0333 46.1268 87.0333 46.4179C87.0333 46.9982 85.9783 46.9982 85.9783 46.4179Z" fill="white"/>
<path d="M44.3068 65.4062C48.9613 65.4062 52.7465 61.621 52.7465 56.9665C52.7465 52.312 48.9613 48.5269 44.3068 48.5269C39.6524 48.5269 35.8672 52.312 35.8672 56.9665C35.8672 61.621 39.6524 65.4062 44.3068 65.4062ZM44.3068 52.7467C46.6341 52.7467 48.5267 54.6393 48.5267 56.9665C48.5267 59.2937 46.6341 61.1863 44.3068 61.1863C41.9796 61.1863 40.087 59.2937 40.087 56.9665C40.087 54.6393 41.9796 52.7467 44.3068 52.7467Z" fill="white"/>
</svg>
