<svg width="70" height="71" viewBox="0 0 70 71" fill="none" xmlns="http://www.w3.org/2000/svg">
<path d="M50.1606 44.7697V41.5701L54.0802 39.4221C54.1474 39.3855 54.21 39.343 54.269 39.2934C56.1586 37.7178 57.242 35.4046 57.242 32.9461V30.3614H57.8321C60.11 30.3614 61.9629 28.5084 61.9629 26.2306C61.9629 24.8958 61.3162 23.7191 60.3295 22.9625C60.6198 21.6666 60.7827 20.1453 60.7827 18.5591C60.7827 8.79738 52.8409 0.855591 43.0792 0.855591C38.5754 0.855591 34.3549 2.53742 31.0751 5.57652H27.7362C23.8308 5.57652 20.6548 8.75253 20.6548 12.6579C20.6548 14.4731 21.3476 16.1266 22.4747 17.3812C20.8578 17.3918 19.4557 18.4895 19.0626 20.0615L18.554 22.0998H14.7536V21.7858C14.7536 20.0356 13.4471 18.5284 11.7145 18.2817L7.16354 17.6314C5.65048 17.4119 4.17873 18.1873 3.49655 19.5528L0.964954 24.6149C0.719466 25.1035 0.59082 25.6511 0.59082 26.1976V40.8997C0.59082 42.7928 1.32729 44.5702 2.66567 45.9074L6.28899 49.5331C7.18124 50.423 7.67222 51.608 7.67222 52.8696V70.4893C7.67222 71.1408 8.19978 71.6696 8.85245 71.6696H19.4745H66.6839C67.3023 71.6696 67.8169 71.1916 67.8606 70.5731L69.0443 53.9661C69.0443 49.7987 56.502 46.2804 50.1606 44.7697ZM33.072 48.0271L36.8547 61.267L34.9462 61.0546L34.6854 63.3997L54.8815 65.6445V69.3091H29.9066L27.1425 53.6462C26.7176 51.2244 25.7109 48.9041 24.2344 46.9354C23.1734 45.5215 21.7772 44.3554 20.1957 43.5659L16.4118 41.6739C16.1085 41.5217 15.8973 41.2479 15.8099 40.9257L15.7627 40.7156L15.077 35.2311C15.0345 34.89 15.136 34.5607 15.3626 34.3034C15.5373 34.1051 15.7722 34.0013 16.0235 33.9517C16.6278 38.577 20.5863 42.1637 25.3757 42.1637C30.4708 42.1637 34.624 38.1049 34.8011 33.0523C34.9321 33.1409 35.0572 33.24 35.1669 33.3616C35.5399 33.7747 35.7157 34.3069 35.6603 34.8605L34.9486 41.9714C34.8943 42.5107 34.6535 43.0194 34.2723 43.4006C33.0637 44.6092 32.6035 46.3807 33.072 48.0271ZM18.2188 51.7425L16.583 44.3979L19.1394 45.6761C20.3939 46.304 21.5034 47.2281 22.3461 48.3517C22.4995 48.5571 22.6281 48.7789 22.7698 48.9926C20.6229 49.9273 19.124 50.8243 18.2188 51.7425ZM18.2943 32.7219C18.2943 28.8165 21.4703 25.6405 25.3757 25.6405C29.2811 25.6405 32.4571 28.8165 32.4571 32.7219C32.4571 36.6273 29.2811 39.8033 25.3757 39.8033C21.4703 39.8033 18.2943 36.6273 18.2943 32.7219ZM34.5284 30.4464C33.8887 27.8747 32.1998 25.7148 29.9361 24.4603H40.7187V40.9835H37.42L38.0089 35.0953C38.1293 33.8868 37.7316 32.6782 36.916 31.7777C36.2846 31.0802 35.4407 30.6211 34.5284 30.4464ZM38.3583 43.344H41.899H45.088C46.0192 43.344 46.9421 43.1563 47.8001 42.8046V47.5539C45.108 49.9143 41.0504 49.9143 38.3583 47.5539V43.344ZM54.8815 32.9461C54.8815 34.6657 54.1392 36.2862 52.8409 37.4086L47.3953 40.3934C46.6895 40.7805 45.8929 40.9835 45.088 40.9835H43.0792V23.28C43.0792 22.6285 42.5516 22.0998 41.899 22.0998H32.1975L31.6876 20.0603C31.6593 19.9482 31.6156 19.8455 31.5778 19.7393H49.7452L54.8815 23.8465V32.9461ZM57.8321 28.0009H57.242V24.4603H57.8321C58.8082 24.4603 59.6025 25.2545 59.6025 26.2306C59.6025 27.2067 58.8082 28.0009 57.8321 28.0009ZM43.0792 3.21606C51.5391 3.21606 58.4222 10.0992 58.4222 18.5591C58.4222 19.8432 58.3089 21.0718 58.1024 22.1269C58.0115 22.121 57.9242 22.0998 57.8321 22.0998H56.476L51.3408 17.9914V12.6579C51.3408 8.75253 48.1648 5.57652 44.2594 5.57652H34.9214C37.3421 4.04812 40.1404 3.21606 43.0792 3.21606ZM27.7362 7.93699H44.2594C46.863 7.93699 48.9804 10.0543 48.9804 12.6579V17.3789H28.2531H27.7362C25.1326 17.3789 23.0152 15.2615 23.0152 12.6579C23.0152 10.0543 25.1326 7.93699 27.7362 7.93699ZM21.3523 20.6339C21.4845 20.1076 21.9554 19.7393 22.4983 19.7393H27.7362H28.2531C28.796 19.7393 29.2658 20.1076 29.3991 20.6339L29.7662 22.0998H20.9852L21.3523 20.6339ZM20.8153 24.4603C18.2294 25.8942 16.3882 28.5061 16.0129 31.5664C15.0853 31.629 14.2131 32.0373 13.5934 32.7384C12.9219 33.4997 12.6091 34.5135 12.7342 35.5202L13.4164 40.9835H11.2129V37.4428H11.1445C11.9128 36.6922 12.3932 35.6489 12.3932 34.4922V24.4603H13.5734H20.8153ZM7.95783 47.8631L4.33452 44.2374C3.44226 43.3463 2.95129 42.1614 2.95129 40.8997V26.1976C2.95129 26.0158 2.99377 25.8317 3.07521 25.67L5.60681 20.608C5.83342 20.1536 6.31967 19.8951 6.82835 19.9683L11.3793 20.6186C11.9576 20.7 12.3932 21.2028 12.3932 21.7858V22.0998H11.2129H7.67222V24.4603H10.0327V26.8207H7.67222V29.1812H10.0327V31.5416H7.67222V33.9021H10.0327V34.4922C10.0327 35.4683 9.23839 36.2626 8.26233 36.2626H7.67222V38.623H8.26233C8.46415 38.623 8.65771 38.5912 8.85245 38.5629V42.1637C8.85245 42.8152 9.38002 43.344 10.0327 43.344H13.931L17.1436 57.7629L17.3796 57.7098L18.207 69.3091H10.0327V52.8696C10.0327 50.9777 9.29622 49.1991 7.95783 47.8631ZM19.4745 53.9661C19.4745 53.9555 19.6091 52.905 23.9158 51.0592C24.3312 52.0187 24.6357 53.0266 24.8175 54.0558L27.5096 69.3091H20.5722L19.4745 53.9661ZM65.5851 69.3091H57.242V59.8672H54.8815V63.2699L39.3922 61.5491L35.3428 47.3792C35.1091 46.5578 35.3381 45.6738 35.9412 45.0695C35.9624 45.0482 35.9777 45.0234 35.9978 45.0022V48.0649C35.9978 48.3777 36.1217 48.6786 36.3436 48.8993C38.2001 50.7558 40.6408 51.6847 43.0792 51.6847C45.5176 51.6847 47.9583 50.7558 49.8148 48.8993C50.0367 48.6786 50.1606 48.3777 50.1606 48.0649V47.201C58.9781 49.3679 66.6839 52.4861 66.6874 53.8823L65.5851 69.3091Z" fill="white"/>
<path d="M48.9804 24.7554C47.8415 24.7554 46.915 25.6819 46.915 26.8208C46.915 27.9597 47.8415 28.8862 48.9804 28.8862C50.1194 28.8862 51.0459 27.9597 51.0459 26.8208C51.0459 25.6819 50.1194 24.7554 48.9804 24.7554ZM48.6854 26.8208C48.6854 26.6579 48.8176 26.5257 48.9804 26.5257C49.1433 26.5257 49.2755 26.6579 49.2755 26.8208C49.2755 27.1453 48.6854 27.1453 48.6854 26.8208Z" fill="white"/>
<path d="M25.3752 37.4426C27.9788 37.4426 30.0962 35.3253 30.0962 32.7217C30.0962 30.1181 27.9788 28.0007 25.3752 28.0007C22.7716 28.0007 20.6543 30.1181 20.6543 32.7217C20.6543 35.3253 22.7716 37.4426 25.3752 37.4426ZM25.3752 30.3612C26.677 30.3612 27.7357 31.4199 27.7357 32.7217C27.7357 34.0235 26.677 35.0821 25.3752 35.0821C24.0734 35.0821 23.0148 34.0235 23.0148 32.7217C23.0148 31.4199 24.0734 30.3612 25.3752 30.3612Z" fill="white"/>
</svg>
