<svg width="70" height="45" viewBox="0 0 70 45" fill="none" xmlns="http://www.w3.org/2000/svg">
<path d="M39.2152 8.93481C35.9028 8.93481 33.208 11.6297 33.208 14.942C33.208 18.2544 35.9028 20.9493 39.2152 20.9493C42.5276 20.9493 45.2225 18.2544 45.2225 14.942C45.2225 11.6297 42.5276 8.93481 39.2152 8.93481ZM39.2152 16.9444C38.1111 16.9444 37.2128 16.0462 37.2128 14.942C37.2128 13.8379 38.1111 12.9396 39.2152 12.9396C40.3194 12.9396 41.2176 13.8379 41.2176 14.942C41.2176 16.0462 40.3194 16.9444 39.2152 16.9444Z" fill="white"/>
<path d="M55.2357 24.954C51.9234 24.954 49.2285 27.6488 49.2285 30.9612C49.2285 34.2736 51.9234 36.9684 55.2357 36.9684C58.5481 36.9684 61.243 34.2736 61.243 30.9612C61.243 27.6488 58.5481 24.954 55.2357 24.954ZM55.2357 32.9636C54.1316 32.9636 53.2333 32.0653 53.2333 30.9612C53.2333 29.8571 54.1316 28.9588 55.2357 28.9588C56.3399 28.9588 57.2381 29.8571 57.2381 30.9612C57.2381 32.0653 56.3399 32.9636 55.2357 32.9636Z" fill="white"/>
<path d="M56.3464 9.27049C55.4265 8.65722 54.183 8.90579 53.5696 9.82596L37.5503 33.8549C36.9369 34.7749 37.1856 36.0181 38.1058 36.6317C39.0258 37.2449 40.2691 36.9965 40.8826 36.0762L56.9019 12.0473C57.5153 11.1271 57.2666 9.8839 56.3464 9.27049Z" fill="white"/>
<path d="M67.2498 0.924805H2.90573C1.79986 0.924805 0.90332 1.82135 0.90332 2.92721V14.9417C0.90332 16.0475 1.79986 16.9441 2.90573 16.9441C6.21811 16.9441 8.91295 19.6389 8.91295 22.9513C8.91295 26.2637 6.21811 28.9585 2.90573 28.9585C1.79986 28.9585 0.90332 29.8551 0.90332 30.9609V42.9754C0.90332 44.0812 1.79986 44.9778 2.90573 44.9778H67.2498C68.3556 44.9778 69.2522 44.0812 69.2522 42.9754V2.92721C69.2522 1.82135 68.3556 0.924805 67.2498 0.924805ZM65.2474 40.973H20.9274V38.9706C20.9274 37.8647 20.0309 36.9681 18.925 36.9681C17.8191 36.9681 16.9226 37.8647 16.9226 38.9706V40.973H4.90814V32.7623C9.47242 31.832 12.9178 27.7863 12.9178 22.9513C12.9178 18.1163 9.47242 14.0707 4.90814 13.1404V4.92962H17.0894V6.93203C17.0894 8.03789 17.986 8.93443 19.0919 8.93443C20.1977 8.93443 21.0943 8.03789 21.0943 6.93203V4.92962H65.2474V40.973Z" fill="white"/>
<path d="M18.9253 24.954C17.8194 24.954 16.9229 25.8505 16.9229 26.9564V30.9612C16.9229 32.0671 17.8194 32.9636 18.9253 32.9636C20.0311 32.9636 20.9277 32.0671 20.9277 30.9612V26.9564C20.9277 25.8505 20.0311 24.954 18.9253 24.954Z" fill="white"/>
<path d="M18.9253 12.9395C17.8194 12.9395 16.9229 13.836 16.9229 14.9419V18.9467C16.9229 20.0525 17.8194 20.9491 18.9253 20.9491C20.0311 20.9491 20.9277 20.0525 20.9277 18.9467V14.9419C20.9277 13.836 20.0311 12.9395 18.9253 12.9395Z" fill="white"/>
</svg>
