<svg width="84" height="43" viewBox="0 0 84 43" fill="none" xmlns="http://www.w3.org/2000/svg">
<path d="M46.6642 10.4824C42.6297 10.4824 39.3474 13.7647 39.3474 17.7992C39.3474 21.8337 42.6297 25.116 46.6642 25.116C50.6987 25.116 53.981 21.8337 53.981 17.7992C53.981 13.7647 50.6987 10.4824 46.6642 10.4824ZM46.6642 20.2382C45.3194 20.2382 44.2253 19.144 44.2253 17.7992C44.2253 16.4544 45.3194 15.3603 46.6642 15.3603C48.009 15.3603 49.1031 16.4544 49.1031 17.7992C49.1031 19.144 48.009 20.2382 46.6642 20.2382Z" fill="white"/>
<path d="M66.1762 29.9941C62.1417 29.9941 58.8594 33.2765 58.8594 37.3109C58.8594 41.3454 62.1417 44.6277 66.1762 44.6277C70.2107 44.6277 73.493 41.3454 73.493 37.3109C73.493 33.2765 70.2107 29.9941 66.1762 29.9941ZM66.1762 39.7499C64.8313 39.7499 63.7372 38.6558 63.7372 37.3109C63.7372 35.9661 64.8313 34.872 66.1762 34.872C67.521 34.872 68.6151 35.9661 68.6151 37.3109C68.6151 38.6558 67.521 39.7499 66.1762 39.7499Z" fill="white"/>
<path d="M67.53 10.8922C66.4095 10.1452 64.895 10.448 64.1478 11.5687L44.6364 40.8359C43.8893 41.9565 44.1922 43.4708 45.3129 44.2181C46.4335 44.965 47.9478 44.6624 48.6951 43.5415L68.2065 14.2743C68.9537 13.1536 68.6508 11.6393 67.53 10.8922Z" fill="white"/>
<path d="M80.8102 0.726562H2.43918C1.09224 0.726562 0.000244141 1.81855 0.000244141 3.16549V17.7991C0.000244141 19.146 1.09224 20.238 2.43918 20.238C6.47366 20.238 9.75597 23.5203 9.75597 27.5548C9.75597 31.5893 6.47366 34.8716 2.43918 34.8716C1.09224 34.8716 0.000244141 35.9636 0.000244141 37.3105V51.9441C0.000244141 53.2911 1.09224 54.3831 2.43918 54.3831H80.8102C82.1571 54.3831 83.2491 53.2911 83.2491 51.9441V3.16549C83.2491 1.81855 82.1571 0.726562 80.8102 0.726562ZM78.3713 49.5052H24.3896V47.0663C24.3896 45.7193 23.2976 44.6273 21.9506 44.6273C20.6037 44.6273 19.5117 45.7193 19.5117 47.0663V49.5052H4.87811V39.5046C10.4374 38.3715 14.6338 33.4439 14.6338 27.5548C14.6338 21.6658 10.4374 16.7383 4.87811 15.6052V5.60443H19.7149V8.04336C19.7149 9.3903 20.8069 10.4823 22.1539 10.4823C23.5008 10.4823 24.5928 9.3903 24.5928 8.04336V5.60443H78.3713V49.5052Z" fill="white"/>
<path d="M21.9511 29.9941C20.6042 29.9941 19.5122 31.0861 19.5122 32.4331V37.3109C19.5122 38.6579 20.6042 39.7499 21.9511 39.7499C23.2981 39.7499 24.3901 38.6579 24.3901 37.3109V32.4331C24.3901 31.0861 23.2981 29.9941 21.9511 29.9941Z" fill="white"/>
<path d="M21.9511 15.3604C20.6042 15.3604 19.5122 16.4523 19.5122 17.7993V22.6771C19.5122 24.0241 20.6042 25.1161 21.9511 25.1161C23.2981 25.1161 24.3901 24.0241 24.3901 22.6771V17.7993C24.3901 16.4523 23.2981 15.3604 21.9511 15.3604Z" fill="white"/>
</svg>
