<svg width="123" height="62" viewBox="0 0 123 62" fill="none" xmlns="http://www.w3.org/2000/svg">
<path d="M68.4911 14.3188C62.5695 14.3188 57.752 19.1364 57.752 25.058C57.752 30.9796 62.5695 35.7972 68.4911 35.7972C74.4127 35.7972 79.2303 30.9796 79.2303 25.058C79.2303 19.1364 74.4127 14.3188 68.4911 14.3188ZM68.4911 28.6377C66.5173 28.6377 64.9114 27.0319 64.9114 25.058C64.9114 23.0842 66.5173 21.4783 68.4911 21.4783C70.465 21.4783 72.0708 23.0842 72.0708 25.058C72.0708 27.0319 70.465 28.6377 68.4911 28.6377Z" fill="white"/>
<path d="M97.1298 42.9565C91.2082 42.9565 86.3906 47.7741 86.3906 53.6957C86.3906 59.6173 91.2082 64.4349 97.1298 64.4349C103.051 64.4349 107.869 59.6173 107.869 53.6957C107.869 47.7741 103.051 42.9565 97.1298 42.9565ZM97.1298 57.2754C95.1559 57.2754 93.5501 55.6696 93.5501 53.6957C93.5501 51.7219 95.1559 50.116 97.1298 50.116C99.1037 50.116 100.71 51.7219 100.71 53.6957C100.71 55.6696 99.1037 57.2754 97.1298 57.2754Z" fill="white"/>
<path d="M99.1155 14.9193C97.471 13.8229 95.248 14.2673 94.1514 15.9123L65.5136 58.869C64.417 60.5137 64.8616 62.7363 66.5066 63.8331C68.1514 64.9294 70.3739 64.4853 71.4708 62.8401L100.109 19.8834C101.205 18.2384 100.761 16.0159 99.1155 14.9193Z" fill="white"/>
<path d="M118.608 -0.000488281H3.57972C1.60276 -0.000488281 0 1.60227 0 3.57923V25.0576C0 27.0345 1.60276 28.6373 3.57972 28.6373C9.5013 28.6373 14.3189 33.4549 14.3189 39.3765C14.3189 45.298 9.5013 50.1156 3.57972 50.1156C1.60276 50.1156 0 51.7184 0 53.6954V75.1737C0 77.1507 1.60276 78.7534 3.57972 78.7534H118.608C120.585 78.7534 122.188 77.1507 122.188 75.1737V3.57923C122.188 1.60227 120.585 -0.000488281 118.608 -0.000488281ZM115.028 71.594H35.7972V68.0143C35.7972 66.0373 34.1945 64.4345 32.2175 64.4345C30.2405 64.4345 28.6378 66.0373 28.6378 68.0143V71.594H7.15945V56.9157C15.3191 55.2525 21.4783 48.0201 21.4783 39.3765C21.4783 30.7329 15.3191 23.5006 7.15945 21.8375V7.15896H28.9361V10.7387C28.9361 12.7156 30.5389 14.3184 32.5158 14.3184C34.4928 14.3184 36.0955 12.7156 36.0955 10.7387V7.15896H115.028V71.594Z" fill="white"/>
<path d="M32.2184 42.9565C30.2414 42.9565 28.6387 44.5593 28.6387 46.5363V53.6957C28.6387 55.6727 30.2414 57.2754 32.2184 57.2754C34.1954 57.2754 35.7981 55.6727 35.7981 53.6957V46.5363C35.7981 44.5593 34.1954 42.9565 32.2184 42.9565Z" fill="white"/>
<path d="M32.2184 21.478C30.2414 21.478 28.6387 23.0808 28.6387 25.0578V32.2172C28.6387 34.1942 30.2414 35.7969 32.2184 35.7969C34.1954 35.7969 35.7981 34.1942 35.7981 32.2172V25.0578C35.7981 23.0808 34.1954 21.478 32.2184 21.478Z" fill="white"/>
</svg>
