<svg width="97" height="95" viewBox="0 0 97 95" fill="none" xmlns="http://www.w3.org/2000/svg">
<path d="M86.2631 30.8691C88.2031 33.0991 90.1431 35.3191 92.0731 37.5391C93.2031 38.8391 94.3331 40.1291 95.4531 41.4291C95.6531 41.6591 96.0831 41.9891 96.1931 42.2791C96.3131 42.5891 96.0731 43.3291 96.0131 43.6691C95.8431 44.6291 95.6331 45.5891 95.4031 46.5391C94.3531 50.7791 92.7031 54.8691 90.6531 58.7291C87.8031 64.0991 84.0531 69.2391 79.6531 73.8791C75.2531 78.5191 70.2131 82.6491 64.8031 85.9891C59.4031 89.3191 53.6331 91.8691 47.7631 93.3491C44.2431 89.7091 40.7231 86.0591 37.2031 82.4191C43.2731 80.8491 49.0531 78.2191 54.3731 74.9091C59.8431 71.5191 64.9331 67.3391 69.3831 62.6491C73.8331 57.9591 77.6331 52.7791 80.5331 47.3691C83.4331 41.9891 85.4231 36.3991 86.2631 30.8691Z" fill="#961C2E"/>
<path d="M81.0234 8.33887C84.1534 11.9889 87.2934 15.6489 90.4234 19.2989C91.6034 20.6789 92.6834 22.1189 93.5534 23.7189C94.3234 25.1289 94.9534 26.6589 95.4434 28.2789C95.9334 29.9089 96.2834 31.6389 96.4734 33.4589C96.6634 35.2889 96.7034 37.2089 96.5634 39.2189C93.3634 35.5389 90.1734 31.8589 86.9834 28.1789C86.6734 27.8189 86.6534 27.8489 86.6434 27.3789C86.5934 25.5689 86.7434 23.7889 86.5634 21.9689C86.3834 20.1389 86.0434 18.4089 85.5634 16.7789C85.0834 15.1489 84.4534 13.6289 83.6934 12.2189C82.9334 10.8289 82.0434 9.52887 81.0234 8.33887Z" fill="#961C2E"/>
<path d="M36.2332 82.6585C39.7532 86.2985 43.2732 89.9385 46.7932 93.5785C43.8232 94.2685 40.7932 94.6985 37.7432 94.7685C34.8932 94.8285 32.2132 94.5785 29.7232 94.0285C27.2432 93.4785 24.9632 92.6385 22.9032 91.5385C20.8532 90.4385 19.0232 89.0785 17.4332 87.4785C13.8832 83.8985 10.3332 80.3185 6.7832 76.7285C8.3832 78.3385 10.2332 79.6985 12.2432 80.7585C14.3032 81.8485 16.5932 82.6785 19.0732 83.2085C21.5732 83.7385 24.2632 83.9785 27.1232 83.8985C30.0032 83.8285 33.0432 83.4185 36.2332 82.6585Z" fill="#961C2E"/>
<path d="M44.094 80.1289C47.594 83.7889 51.104 87.4489 54.604 91.1089C54.044 91.3289 53.474 91.5389 52.904 91.7489C52.334 91.9589 51.764 92.1489 51.194 92.3389C50.624 92.5289 50.054 92.6989 49.484 92.8689C48.914 93.0389 48.344 93.1889 47.764 93.3389C47.724 93.3489 47.684 93.3589 47.644 93.3689C47.604 93.3789 47.564 93.3889 47.524 93.3989C47.484 93.4089 47.444 93.4189 47.404 93.4289C47.364 93.4389 47.324 93.4489 47.284 93.4589C47.244 93.4689 47.204 93.4789 47.164 93.4889C47.124 93.4989 47.084 93.5089 47.044 93.5189C47.004 93.5289 46.964 93.5389 46.924 93.5489C46.884 93.5589 46.844 93.5689 46.804 93.5789C46.234 93.7089 45.664 93.8289 45.104 93.9389C44.544 94.0489 43.984 94.1389 43.434 94.2289C42.884 94.3189 42.334 94.3889 41.794 94.4589C41.254 94.5289 40.714 94.5789 40.184 94.6289C36.654 91.0089 33.114 87.3789 29.584 83.7589C30.124 83.7089 30.664 83.6489 31.204 83.5789C31.754 83.5089 32.304 83.4289 32.854 83.3389C33.404 83.2489 33.974 83.1489 34.534 83.0389C35.094 82.9289 35.664 82.7989 36.244 82.6689C36.284 82.6589 36.324 82.6489 36.364 82.6389C36.404 82.6289 36.444 82.6189 36.484 82.6089C36.524 82.5989 36.564 82.5889 36.604 82.5789C36.644 82.5689 36.684 82.5589 36.724 82.5489C36.764 82.5389 36.804 82.5289 36.844 82.5189C36.884 82.5089 36.924 82.4989 36.964 82.4889C37.004 82.4789 37.044 82.4689 37.084 82.4589C37.124 82.4489 37.164 82.4389 37.204 82.4289C37.784 82.2789 38.354 82.1189 38.934 81.9489C39.514 81.7789 40.084 81.5989 40.654 81.3989C41.224 81.2089 41.804 81.0089 42.374 80.7989C42.954 80.5789 43.524 80.3589 44.094 80.1289Z" fill="#9A95A0"/>
<path d="M86.6333 22.9492C88.3733 24.9592 90.1133 26.9692 91.8433 28.9792C92.9833 30.2892 94.1133 31.6092 95.2533 32.9192C95.5933 33.3092 95.9833 33.6892 96.2833 34.1092C96.6233 34.5992 96.5933 34.9092 96.6233 35.5792C96.6433 35.9692 96.6533 36.3692 96.6533 36.7692C96.6533 37.1692 96.6533 37.5792 96.6333 37.9892C96.6233 38.3992 96.6032 38.8092 96.5732 39.2292V39.2392V39.2492V39.2592V39.2692C96.5732 39.2992 96.5733 39.3192 96.5633 39.3492C96.5633 39.3792 96.5633 39.3992 96.5633 39.4292C96.5633 39.4592 96.5633 39.4792 96.5533 39.5092C96.5533 39.5392 96.5533 39.5592 96.5433 39.5892C96.5433 39.6092 96.5433 39.6192 96.5433 39.6392C96.5433 39.6592 96.5433 39.6692 96.5433 39.6892C96.5433 39.7092 96.5433 39.7192 96.5433 39.7392C96.5433 39.7592 96.5433 39.7692 96.5433 39.7892C96.5433 39.8092 96.5433 39.8292 96.5433 39.8492C96.5433 39.8692 96.5433 39.8892 96.5433 39.9092C96.5433 39.9292 96.5433 39.9492 96.5433 39.9692C96.5433 39.9892 96.5433 40.0092 96.5333 40.0292C96.5333 40.0492 96.5333 40.0792 96.5233 40.0992C96.5233 40.1192 96.5233 40.1492 96.5133 40.1692C96.5133 40.1892 96.5133 40.2192 96.5033 40.2392C96.5033 40.2592 96.5033 40.2892 96.4933 40.3092C96.4933 40.3192 96.4933 40.3392 96.4933 40.3492C96.4933 40.3592 96.4933 40.3792 96.4933 40.3892C96.4933 40.3992 96.4933 40.4192 96.4933 40.4292C96.4933 40.4392 96.4933 40.4592 96.4933 40.4692C96.4933 40.5092 96.4833 40.5492 96.4833 40.5892C96.4833 40.6292 96.4733 40.6692 96.4733 40.7092C96.4733 40.7492 96.4632 40.7892 96.4632 40.8292C96.4632 40.8692 96.4533 40.9092 96.4533 40.9492C96.4533 40.9892 96.4433 41.0292 96.4433 41.0692C96.4433 41.1092 96.4333 41.1492 96.4333 41.1892C96.4333 41.2292 96.4233 41.2692 96.4233 41.3092C96.4233 41.3492 96.4133 41.3892 96.4133 41.4292C96.4133 41.4492 96.4133 41.4592 96.4033 41.4792C96.4033 41.4992 96.4033 41.5092 96.3933 41.5292C96.3933 41.5492 96.3933 41.5592 96.3833 41.5792C96.3833 41.5992 96.3833 41.6092 96.3733 41.6292C96.3733 41.6492 96.3633 41.6692 96.3633 41.6892C96.3633 41.7092 96.3532 41.7292 96.3532 41.7492C96.3532 41.7692 96.3433 41.7892 96.3433 41.8092C96.3433 41.8292 96.3333 41.8492 96.3333 41.8692C96.3333 41.8892 96.3232 41.9192 96.3232 41.9392C96.3232 41.9692 96.3133 41.9892 96.3133 42.0092C96.3133 42.0292 96.3033 42.0592 96.3033 42.0792C96.3033 42.0992 96.2933 42.1292 96.2933 42.1492C96.2933 42.1592 96.2933 42.1692 96.2933 42.1792C96.2933 42.1892 96.2933 42.1992 96.2933 42.2092C96.2933 42.2192 96.2933 42.2292 96.2933 42.2392C96.2933 42.2492 96.2933 42.2592 96.2933 42.2692C96.2233 42.7292 96.1533 43.1992 96.0633 43.6592C95.9833 44.1192 95.8833 44.5892 95.7833 45.0492C95.6833 45.5092 95.5733 45.9792 95.4533 46.4392C95.3333 46.8992 95.2133 47.3692 95.0833 47.8292C93.3333 45.8292 91.5732 43.8292 89.8232 41.8292C88.6832 40.5292 87.5433 39.2292 86.4033 37.9292C86.0633 37.5392 85.6533 37.1592 85.3633 36.7392C85.3033 36.6492 85.1432 36.5492 85.1032 36.4492C84.9932 36.1492 85.3633 35.3492 85.4533 35.0092C85.5733 34.5392 85.6833 34.0792 85.7933 33.6092C85.8933 33.1392 85.9933 32.6792 86.0833 32.2092C86.1733 31.7392 86.2532 31.2792 86.3232 30.8192C86.3232 30.8092 86.3232 30.7992 86.3232 30.7892C86.3232 30.7792 86.3232 30.7692 86.3232 30.7592C86.3232 30.7492 86.3232 30.7392 86.3232 30.7292C86.3232 30.7192 86.3232 30.7092 86.3232 30.6992C86.3232 30.6792 86.3333 30.6492 86.3333 30.6292C86.3333 30.6092 86.3433 30.5792 86.3433 30.5592C86.3433 30.5392 86.3532 30.5092 86.3532 30.4892C86.3532 30.4692 86.3633 30.4392 86.3633 30.4192C86.3633 30.3992 86.3733 30.3792 86.3733 30.3592C86.3733 30.3392 86.3833 30.3192 86.3833 30.2992C86.3833 30.2792 86.3933 30.2592 86.3933 30.2392C86.3933 30.2192 86.4033 30.1992 86.4033 30.1792C86.4033 30.1592 86.4033 30.1492 86.4133 30.1292C86.4133 30.1092 86.4133 30.0992 86.4233 30.0792C86.4233 30.0592 86.4233 30.0492 86.4333 30.0292C86.4333 30.0092 86.4333 29.9992 86.4433 29.9792C86.4433 29.9392 86.4532 29.8992 86.4632 29.8592C86.4632 29.8192 86.4733 29.7792 86.4733 29.7392C86.4833 29.6992 86.4833 29.6592 86.4933 29.6192C86.4933 29.5792 86.5033 29.5392 86.5033 29.4992C86.5033 29.4592 86.5133 29.4192 86.5133 29.3792C86.5133 29.3392 86.5233 29.2992 86.5233 29.2592C86.5233 29.2192 86.5333 29.1792 86.5333 29.1392C86.5333 29.0992 86.5433 29.0592 86.5433 29.0192C86.5433 29.0092 86.5433 28.9892 86.5433 28.9792C86.5433 28.9692 86.5433 28.9492 86.5433 28.9392C86.5433 28.9292 86.5433 28.9092 86.5433 28.8992C86.5433 28.8892 86.5433 28.8692 86.5433 28.8592C86.5433 28.8392 86.5433 28.8092 86.5533 28.7892C86.5533 28.7692 86.5533 28.7392 86.5633 28.7192C86.5633 28.6992 86.5632 28.6692 86.5732 28.6492C86.5732 28.6292 86.5733 28.5992 86.5833 28.5792C86.5833 28.5592 86.5833 28.5392 86.5833 28.5192C86.5833 28.4992 86.5833 28.4792 86.5933 28.4592C86.5933 28.4392 86.5932 28.4192 86.6032 28.3992C86.6032 28.3792 86.6032 28.3592 86.6032 28.3392C86.6032 28.3192 86.6032 28.3092 86.6032 28.2892C86.6032 28.2692 86.6032 28.2592 86.6032 28.2392C86.6032 28.2192 86.6032 28.2092 86.6032 28.1892C86.6032 28.1692 86.6032 28.1592 86.6032 28.1392C86.6032 28.1092 86.6033 28.0892 86.6133 28.0592C86.6133 28.0292 86.6133 28.0092 86.6233 27.9792C86.6233 27.9492 86.6233 27.9292 86.6333 27.8992C86.6333 27.8692 86.6333 27.8492 86.6433 27.8192V27.8092V27.7992V27.7892V27.7792C86.6733 27.3592 86.6932 26.9492 86.7132 26.5292C86.7332 26.1192 86.7333 25.7092 86.7333 25.3092C86.7333 24.9092 86.7232 24.5092 86.7132 24.1192C86.6832 23.7192 86.6633 23.3292 86.6333 22.9492Z" fill="#9A95A0"/>
<path d="M75.2336 55.6992C78.4436 59.2492 81.6436 62.7992 84.8536 66.3492C84.9636 66.4692 85.3936 66.8092 85.4136 66.9692C85.4436 67.2292 84.6536 68.0092 84.4736 68.2392C83.9336 68.9392 83.3836 69.6192 82.8236 70.2992C81.9136 71.3792 80.9836 72.4492 80.0036 73.4892C79.0336 74.5292 78.0336 75.5392 76.9936 76.5292C75.9636 77.5092 74.9036 78.4692 73.8136 79.3992C70.3636 75.6792 66.9236 71.9592 63.4736 68.2392C64.5736 67.2992 65.6436 66.3392 66.6936 65.3392C67.7336 64.3392 68.7536 63.3192 69.7336 62.2692C70.7136 61.2192 71.6636 60.1492 72.5836 59.0492C73.5136 57.9492 74.3936 56.8292 75.2336 55.6992Z" fill="#9A95A0"/>
<path d="M74.5532 38.4288C78.0332 37.7188 81.5232 37.0588 85.0232 36.4588C85.5532 34.6288 85.9832 32.7588 86.2732 30.8788C84.7932 40.5688 80.0632 49.6088 74.0632 57.2588C68.1632 64.7888 60.8032 71.2388 52.5232 76.0388C47.7232 78.8188 42.5832 81.0388 37.2132 82.4288C39.5532 81.8188 41.8432 81.0388 44.0932 80.1488C44.1832 76.8788 44.3632 73.6188 44.6032 70.3588L44.6232 70.0588C44.0932 70.2888 43.5632 70.4988 43.0332 70.7088C42.5032 70.9188 41.9632 71.1088 41.4332 71.2888C40.8932 71.4688 40.3632 71.6488 39.8232 71.8088C39.2832 71.9688 38.7432 72.1188 38.2032 72.2588C36.1632 72.7788 34.0832 73.1288 31.9932 73.2688L31.9332 73.5788C31.2032 76.9888 30.4232 80.3988 29.5732 83.7788C31.8132 83.5688 34.0432 83.2088 36.2332 82.6888C28.9232 84.4388 20.9032 84.6588 13.9032 81.5988C7.47318 78.7888 2.81319 73.2588 0.993187 66.4988C-0.116813 62.3688 -0.196824 58.0188 0.373176 53.7888C0.143176 55.4988 0.0231744 57.2188 0.0431744 58.9388C3.37317 57.7488 6.71317 56.6088 10.0732 55.5188L10.3832 55.4088C10.3632 54.9588 10.3532 54.5088 10.3532 54.0588C10.3532 53.5988 10.3732 53.1388 10.3932 52.6688C10.4232 52.1988 10.4632 51.7288 10.5132 51.2388C10.5632 50.7588 10.6332 50.2688 10.7132 49.7788C11.0432 47.7588 11.5732 45.7788 12.2532 43.8488L11.9632 43.8988C8.74317 44.5688 5.50318 45.1888 2.26318 45.7588C1.75318 47.2988 1.32318 48.8588 0.973182 50.4488C4.46318 34.3688 15.9732 20.2888 29.2732 11.0688C33.0632 8.4388 37.1032 6.1688 41.3432 4.3488C41.2532 7.3288 41.0732 10.3088 40.8432 13.2788L40.8232 13.5488C41.3232 13.3188 41.8332 13.1088 42.3432 12.8988C42.8532 12.6888 43.3632 12.4888 43.8832 12.3088C44.4032 12.1188 44.9132 11.9388 45.4332 11.7788C45.9532 11.6088 46.4732 11.4488 47.0032 11.3088C48.9832 10.7488 51.0132 10.3488 53.0632 10.1388L53.1232 9.8488C53.7832 6.6888 54.4932 3.52881 55.2832 0.398805C61.7532 -0.471195 68.6132 0.0688055 74.4732 3.14881C79.8932 5.99881 83.8332 10.9288 85.5832 16.7888C86.6432 20.3488 86.9232 24.1088 86.6432 27.7988C86.7632 26.1888 86.7732 24.5788 86.6532 22.9788C83.1332 24.2388 79.6032 25.4588 76.0532 26.6188L75.7132 26.7388C75.7532 27.1888 75.7832 27.6388 75.8032 28.0988C75.8232 28.5588 75.8232 29.0288 75.8232 29.4988C75.8132 29.9788 75.7932 30.4588 75.7632 30.9488C75.7332 31.4388 75.6832 31.9388 75.6132 32.4388C75.3532 34.4988 74.8732 36.5288 74.2332 38.5088L74.5532 38.4288ZM56.1332 60.4988C56.6032 60.1188 57.0532 59.7288 57.5032 59.3388C57.9532 58.9488 58.3932 58.5488 58.8232 58.1488C59.2532 57.7488 59.6732 57.3388 60.0932 56.9288C60.5032 56.5188 60.9132 56.0988 61.3132 55.6788C62.8732 53.9888 64.3432 52.2188 65.6732 50.3388C66.9732 48.5188 68.1632 46.6088 69.1932 44.6188C69.4432 44.1288 69.6732 43.6388 69.9032 43.1488C70.1232 42.6588 70.3432 42.1788 70.5432 41.6988C70.7432 41.2188 70.9332 40.7388 71.1132 40.2588C71.2932 39.7788 71.4532 39.3088 71.6132 38.8288C71.6532 38.7188 71.6832 38.6088 71.7232 38.4988C71.7532 38.3888 71.7932 38.2788 71.8232 38.1788C71.8532 38.0688 71.8832 37.9688 71.9132 37.8588C71.9432 37.7488 71.9732 37.6488 72.0032 37.5388C72.0132 37.5088 72.0232 37.4788 72.0332 37.4488C72.0432 37.4188 72.0532 37.3888 72.0532 37.3588C72.0632 37.3288 72.0732 37.2988 72.0732 37.2788C72.0832 37.2488 72.0832 37.2288 72.0932 37.1988C72.1032 37.1588 72.1132 37.1288 72.1232 37.0988C72.1332 37.0688 72.1432 37.0388 72.1432 37.0088C72.1532 36.9788 72.1532 36.9588 72.1632 36.9388C72.1732 36.9188 72.1732 36.8888 72.1832 36.8688C72.1932 36.8188 72.2032 36.7788 72.2132 36.7388C72.2232 36.6988 72.2332 36.6688 72.2332 36.6488C72.2432 36.6188 72.2432 36.5988 72.2532 36.5788C72.2532 36.5588 72.2632 36.5388 72.2632 36.5188C72.2832 36.4188 72.3032 36.3388 72.3232 36.2788C72.3332 36.2188 72.3532 36.1688 72.3632 36.1288C72.3732 36.0888 72.3732 36.0688 72.3832 36.0388C72.3832 36.0188 72.3932 35.9988 72.3932 35.9888C72.4032 35.9288 72.4132 35.8888 72.4232 35.8488C72.4332 35.8088 72.4432 35.7788 72.4432 35.7488C72.4532 35.7188 72.4532 35.6988 72.4632 35.6788C72.4632 35.6588 72.4732 35.6388 72.4732 35.6288C72.4832 35.5788 72.4932 35.5288 72.5032 35.4888C72.5132 35.4488 72.5132 35.4188 72.5232 35.3888C72.5332 35.3588 72.5332 35.3388 72.5332 35.3188C72.5332 35.2988 72.5432 35.2788 72.5432 35.2588C72.5532 35.2088 72.5632 35.1688 72.5732 35.1288C72.5832 35.0888 72.5832 35.0588 72.5932 35.0288C72.6032 34.9988 72.6032 34.9788 72.6032 34.9588C72.6032 34.9388 72.6132 34.9188 72.6132 34.8988C72.6232 34.8488 72.6332 34.8088 72.6332 34.7688C72.6432 34.7288 72.6432 34.6988 72.6532 34.6788C72.6532 34.6488 72.6632 34.6288 72.6632 34.6088C72.6632 34.5888 72.6732 34.5688 72.6732 34.5488C72.6832 34.4988 72.6932 34.4588 72.6932 34.4188C72.7032 34.3788 72.7032 34.3488 72.7132 34.3288C72.7132 34.2988 72.7232 34.2788 72.7232 34.2588C72.7232 34.2388 72.7332 34.2188 72.7332 34.1988C72.7432 34.1388 72.7532 34.0888 72.7532 34.0488C72.7632 34.0088 72.7632 33.9788 72.7732 33.9488C72.7732 33.9188 72.7832 33.8988 72.7832 33.8888C72.7832 33.8688 72.7832 33.8588 72.7932 33.8388C72.7932 33.8188 72.8032 33.7888 72.8032 33.7688C72.8032 33.7488 72.8132 33.7188 72.8132 33.6988C72.8132 33.6788 72.8232 33.6488 72.8232 33.6288C72.8232 33.6088 72.8332 33.5788 72.8332 33.5588C72.8532 33.4188 72.8732 33.2788 72.8932 33.1388C72.9532 32.6388 73.0032 32.1588 73.0332 31.6888C73.0632 31.2188 73.0832 30.7688 73.0932 30.3188C73.1032 29.8788 73.0932 29.4388 73.0832 29.0188C73.0632 28.5988 73.0432 28.1788 73.0032 27.7688C72.9632 27.3288 72.9032 26.8888 72.8432 26.4688C72.7732 26.0488 72.7032 25.6288 72.6132 25.2288C72.5232 24.8288 72.4232 24.4288 72.3032 24.0488C72.1932 23.6688 72.0632 23.2888 71.9232 22.9288C71.7732 22.5588 71.6232 22.1988 71.4632 21.8488C71.3032 21.4988 71.1332 21.1588 70.9532 20.8388C70.7732 20.5088 70.5832 20.1988 70.3832 19.8888C70.1832 19.5788 69.9732 19.2888 69.7632 18.9988C69.5232 18.6788 69.2832 18.3688 69.0232 18.0788C68.7732 17.7888 68.5032 17.5088 68.2332 17.2388C67.9632 16.9688 67.6832 16.7188 67.3932 16.4688C67.1032 16.2288 66.8032 15.9888 66.4932 15.7688C66.1732 15.5488 65.8532 15.3388 65.5332 15.1488C65.2032 14.9488 64.8732 14.7688 64.5432 14.5888C64.2132 14.4188 63.8732 14.2488 63.5232 14.0988C63.1732 13.9488 62.8232 13.7988 62.4632 13.6688C62.0732 13.5288 61.6832 13.3988 61.2832 13.2788C60.8832 13.1588 60.4832 13.0588 60.0832 12.9688C59.6732 12.8788 59.2632 12.7988 58.8532 12.7288C58.4332 12.6588 58.0132 12.6088 57.5932 12.5588C57.1732 12.5188 56.7432 12.4788 56.3132 12.4588C55.8832 12.4388 55.4432 12.4288 55.0032 12.4288C54.5632 12.4288 54.1132 12.4388 53.6532 12.4688C53.2032 12.4888 52.7432 12.5288 52.2732 12.5788C52.2332 12.5788 52.1932 12.5888 52.1532 12.5888C52.1132 12.5888 52.0832 12.5988 52.0432 12.5988C52.0032 12.5988 51.9732 12.6088 51.9332 12.6088C51.9032 12.6088 51.8632 12.6188 51.8332 12.6188C51.4532 12.6688 51.0832 12.7188 50.7332 12.7688C50.3832 12.8188 50.0432 12.8788 49.7032 12.9388C49.3732 12.9988 49.0432 13.0688 48.7132 13.1388C48.3832 13.2088 48.0632 13.2888 47.7432 13.3588C47.6932 13.3688 47.6532 13.3788 47.6132 13.3888C47.5732 13.3988 47.5432 13.4088 47.5232 13.4088C47.4932 13.4188 47.4732 13.4188 47.4532 13.4288C47.4332 13.4288 47.4132 13.4388 47.4032 13.4388C47.1632 13.4988 46.9232 13.5688 46.6832 13.6288C45.8232 13.8688 44.9832 14.1388 44.1532 14.4288C43.3232 14.7188 42.5032 15.0388 41.6832 15.3888C40.8732 15.7388 40.0732 16.1088 39.2832 16.4988C38.4932 16.8888 37.7132 17.3088 36.9432 17.7488C36.7532 17.8588 36.5732 17.9688 36.4032 18.0588C36.2332 18.1588 36.0832 18.2488 35.9332 18.3388C35.7832 18.4288 35.6432 18.5188 35.5032 18.5988C35.3632 18.6788 35.2332 18.7688 35.0932 18.8488C34.6232 19.1488 34.1632 19.4488 33.7132 19.7588C33.2632 20.0688 32.8132 20.3788 32.3732 20.6988C31.9332 21.0188 31.4932 21.3488 31.0632 21.6788C30.6332 22.0088 30.2132 22.3488 29.7932 22.6988C29.3332 23.0788 28.8932 23.4488 28.4532 23.8288C28.0132 24.2088 27.5932 24.5988 27.1732 24.9788C26.7532 25.3688 26.3532 25.7588 25.9532 26.1588C25.5532 26.5588 25.1632 26.9588 24.7832 27.3588C24.3932 27.7788 24.0232 28.1888 23.6532 28.6088C23.2932 29.0288 22.9332 29.4388 22.5932 29.8588C22.2532 30.2788 21.9132 30.6888 21.5932 31.1088C21.2632 31.5288 20.9532 31.9488 20.6432 32.3688C20.3032 32.8388 19.9732 33.3088 19.6532 33.7788C19.3332 34.2488 19.0332 34.7088 18.7432 35.1688C18.4532 35.6288 18.1732 36.0988 17.9032 36.5588C17.6332 37.0188 17.3832 37.4788 17.1332 37.9488C16.8832 38.4188 16.6532 38.8788 16.4332 39.3488C16.2132 39.8088 15.9932 40.2688 15.7932 40.7288C15.5932 41.1888 15.4032 41.6488 15.2232 42.0988C15.0432 42.5588 14.8732 43.0088 14.7132 43.4688C14.6232 43.7288 14.5332 43.9888 14.4532 44.2488C14.3732 44.4988 14.2932 44.7588 14.2132 44.9988C14.1432 45.2488 14.0632 45.4888 14.0032 45.7388C13.9332 45.9788 13.8732 46.2288 13.8132 46.4688C13.8032 46.5088 13.7932 46.5488 13.7832 46.5788C13.7732 46.6088 13.7732 46.6388 13.7632 46.6588C13.7532 46.6788 13.7532 46.7088 13.7432 46.7188C13.7432 46.7388 13.7332 46.7588 13.7332 46.7788C13.7132 46.8788 13.6932 46.9488 13.6832 47.0088C13.6732 47.0688 13.6532 47.1188 13.6532 47.1588C13.6432 47.1988 13.6432 47.2188 13.6332 47.2488C13.6332 47.2688 13.6232 47.2888 13.6232 47.3088C13.6132 47.3588 13.6032 47.3988 13.5932 47.4388C13.5832 47.4788 13.5832 47.5088 13.5732 47.5288C13.5632 47.5588 13.5632 47.5788 13.5532 47.5988C13.5532 47.6188 13.5432 47.6388 13.5432 47.6588C13.5332 47.6988 13.5232 47.7388 13.5232 47.7688C13.5132 47.7988 13.5132 47.8288 13.5032 47.8588C13.4932 47.8888 13.4932 47.9088 13.4832 47.9388C13.4832 47.9588 13.4732 47.9888 13.4732 48.0088C13.4632 48.0488 13.4632 48.0888 13.4532 48.1188C13.4432 48.1488 13.4432 48.1788 13.4332 48.2088C13.4332 48.2388 13.4232 48.2588 13.4232 48.2888C13.4232 48.3088 13.4132 48.3388 13.4132 48.3588C13.4032 48.4088 13.3932 48.4588 13.3932 48.4888C13.3832 48.5288 13.3832 48.5588 13.3732 48.5788C13.3732 48.6088 13.3632 48.6288 13.3632 48.6388C13.3632 48.6588 13.3532 48.6688 13.3532 48.6888C13.3332 48.8088 13.3132 48.9188 13.2932 49.0388C13.2032 49.5988 13.1332 50.1488 13.0832 50.6788C13.0332 51.2188 12.9932 51.7488 12.9732 52.2588C12.9532 52.7788 12.9532 53.2888 12.9632 53.7788C12.9732 54.2788 13.0032 54.7688 13.0532 55.2488C13.0932 55.6288 13.1332 55.9888 13.1832 56.3388C13.2332 56.6888 13.2932 57.0188 13.3532 57.3388C13.4132 57.6588 13.4832 57.9788 13.5632 58.2788C13.6432 58.5888 13.7232 58.8788 13.8132 59.1788C13.9332 59.5588 14.0632 59.9288 14.2032 60.2888C14.3432 60.6488 14.4932 60.9988 14.6532 61.3388C14.8132 61.6788 14.9832 62.0088 15.1532 62.3288C15.3332 62.6488 15.5232 62.9588 15.7132 63.2688C16.5432 64.5588 17.5632 65.7188 18.7432 66.6988C19.0332 66.9388 19.3332 67.1588 19.6432 67.3788C19.9532 67.5988 20.2632 67.7988 20.5932 67.9988C20.9132 68.1988 21.2532 68.3788 21.5932 68.5588C21.9332 68.7388 22.2832 68.8988 22.6332 69.0588C24.1632 69.7388 25.7932 70.1788 27.4432 70.4288C27.9432 70.4988 28.4532 70.5588 28.9732 70.6088C29.4932 70.6488 30.0132 70.6788 30.5532 70.6888C31.0932 70.6988 31.6332 70.6888 32.1832 70.6688C32.7332 70.6488 33.2932 70.5988 33.8632 70.5488C33.8932 70.5488 33.9132 70.5388 33.9432 70.5388C33.9732 70.5388 33.9932 70.5288 34.0232 70.5288C34.0432 70.5288 34.0732 70.5188 34.0932 70.5188C34.1132 70.5188 34.1432 70.5088 34.1632 70.5088C34.2632 70.4988 34.3432 70.4888 34.4132 70.4788C34.4832 70.4688 34.5332 70.4688 34.5732 70.4588C34.6132 70.4488 34.6532 70.4488 34.6832 70.4488C34.7132 70.4488 34.7332 70.4388 34.7632 70.4388C36.0332 70.2688 37.2832 70.0188 38.5232 69.7088C39.4432 69.4688 40.3532 69.2088 41.2532 68.8988C42.1532 68.5988 43.0432 68.2688 43.9232 67.8988C44.8032 67.5388 45.6732 67.1388 46.5332 66.7188C47.3932 66.2988 48.2432 65.8488 49.0832 65.3688C49.1132 65.3488 49.1532 65.3288 49.1832 65.3088C49.2132 65.2888 49.2432 65.2688 49.2732 65.2588C49.3032 65.2388 49.3332 65.2188 49.3632 65.2088C49.3932 65.1888 49.4232 65.1788 49.4532 65.1588C50.0332 64.8188 50.6132 64.4688 51.1832 64.0988C51.7532 63.7288 52.3232 63.3588 52.8832 62.9688C53.4432 62.5788 53.9932 62.1788 54.5432 61.7688C55.0732 61.3588 55.6132 60.9388 56.1332 60.4988ZM63.4832 68.2288C67.8532 64.5088 71.8132 60.2988 75.2332 55.6988C72.7432 54.3488 70.3032 52.8888 67.8932 51.3888L67.6832 51.2688C64.7832 55.3088 61.3332 58.9688 57.4932 62.1288L57.6732 62.3088C59.6732 64.2188 61.6032 66.1988 63.4832 68.2288ZM20.5332 71.8088L20.7732 71.5288C17.7832 70.2188 15.1832 68.0988 13.3832 65.3788L13.1332 65.6188C10.2632 68.4088 7.37318 71.1788 4.42318 73.8988C6.56318 76.9388 9.47318 79.3888 12.8032 81.0388C15.3332 77.9188 17.9132 74.8488 20.5332 71.8088ZM64.5232 11.0188L64.2832 11.2988C67.3432 12.4288 70.1032 14.3388 72.0932 16.9388L72.3432 16.6988C75.2232 13.8988 78.1232 11.1188 81.0732 8.39881C78.6432 5.56881 75.5132 3.4088 72.0532 2.0388C69.5832 5.0688 67.0732 8.0688 64.5232 11.0188ZM12.0132 27.5488C14.2432 28.7788 16.4232 30.0988 18.5832 31.4688L18.7732 31.5788C21.5832 27.7388 24.8832 24.2688 28.5432 21.2388L28.3732 21.0788C26.5632 19.3788 24.8232 17.6188 23.1232 15.8088C19.0232 19.3188 15.2832 23.2588 12.0132 27.5488Z" fill="#ED0E1C"/>
<path d="M23.1237 15.8086C24.8137 17.6186 26.5637 19.3786 28.3737 21.0786L28.5437 21.2386C24.8837 24.2686 21.5737 27.7386 18.7737 31.5786L18.5837 31.4686C16.4337 30.0986 14.2537 28.7786 12.0137 27.5486C15.2837 23.2586 19.0237 19.3186 23.1237 15.8086C23.4337 16.1386 22.0937 16.6886 23.1237 15.8086Z" fill="#F6F6F6"/>
<path d="M48.3535 1.82864C48.3935 1.81864 48.4335 1.80864 48.4735 1.79864C48.5135 1.78864 48.5535 1.77863 48.5935 1.76863C48.6335 1.75863 48.6735 1.74863 48.7135 1.73863C48.7535 1.72863 48.7935 1.71863 48.8335 1.70863C48.8535 1.69863 48.8735 1.69864 48.8935 1.68864C48.9135 1.67864 48.9335 1.67863 48.9535 1.66863C48.9735 1.65863 48.9935 1.65864 49.0135 1.64864C49.0335 1.63864 49.0535 1.63863 49.0735 1.62863C49.0935 1.61863 49.1135 1.61863 49.1335 1.60863C49.1535 1.59863 49.1735 1.59863 49.1935 1.58863C49.2135 1.58863 49.2335 1.57863 49.2535 1.56863C49.2735 1.55863 49.2935 1.55864 49.3135 1.54864C49.3435 1.53864 49.3635 1.53863 49.3935 1.52863C49.4235 1.51863 49.4435 1.51864 49.4735 1.50864C49.5035 1.49864 49.5235 1.49863 49.5535 1.48863C49.5835 1.47863 49.6035 1.47864 49.6335 1.46864C49.6435 1.46864 49.6535 1.46863 49.6635 1.45863C49.6735 1.45863 49.6835 1.44863 49.6935 1.44863C49.7035 1.44863 49.7135 1.43864 49.7235 1.43864C49.7335 1.43864 49.7435 1.43863 49.7535 1.42863C50.1535 1.32863 50.5435 1.22863 50.9435 1.13863C51.3335 1.04863 51.7235 0.958632 52.1135 0.878632C52.5035 0.798632 52.8935 0.72863 53.2735 0.65863C53.6635 0.58863 54.0435 0.528636 54.4235 0.468636C54.4535 0.458636 54.4935 0.458631 54.5235 0.448631C54.5535 0.448631 54.5835 0.438637 54.6135 0.438637C54.6435 0.438637 54.6735 0.428635 54.6935 0.428635C54.7235 0.428635 54.7435 0.418633 54.7735 0.418633C54.9435 0.398633 55.1035 0.368633 55.2735 0.348633C54.4935 3.48863 53.7735 6.63864 53.1135 9.79864L53.0535 10.0886C52.5735 10.1386 52.0835 10.1986 51.5835 10.2686C51.0835 10.3386 50.5835 10.4286 50.0835 10.5286C49.5835 10.6286 49.0735 10.7386 48.5535 10.8586C48.0435 10.9786 47.5235 11.1186 46.9935 11.2586C44.8835 11.8486 42.8135 12.6086 40.8135 13.5086L40.8335 13.2386C41.0635 10.2686 41.2435 7.28863 41.3335 4.30863C41.3735 4.28863 41.4235 4.26863 41.4635 4.24863C41.5035 4.22863 41.5535 4.20863 41.5935 4.19863C41.6335 4.17863 41.6735 4.15864 41.7235 4.14864C41.7635 4.12864 41.8135 4.10863 41.8535 4.09863C41.8835 4.08863 41.9135 4.07863 41.9435 4.05863C41.9735 4.04863 42.0035 4.03863 42.0335 4.01863C42.0635 4.00863 42.0935 3.99863 42.1235 3.97863C42.1535 3.96863 42.1835 3.95864 42.2135 3.93864C42.6035 3.77864 43.0035 3.61864 43.3935 3.46864C43.7835 3.31864 44.1835 3.16863 44.5835 3.02863C44.9835 2.88863 45.3735 2.74864 45.7735 2.60863C46.1735 2.47863 46.5735 2.34864 46.9735 2.21864C46.9835 2.21864 46.9935 2.20863 47.0035 2.20863C47.0135 2.20863 47.0235 2.19863 47.0335 2.19863C47.0435 2.19863 47.0535 2.18864 47.0635 2.18864C47.0735 2.18864 47.0835 2.17863 47.0935 2.17863C47.1235 2.16863 47.1435 2.15863 47.1735 2.15863C47.2035 2.14863 47.2235 2.13863 47.2535 2.13863C47.2835 2.12863 47.3035 2.11864 47.3335 2.11864C47.3635 2.10864 47.3835 2.09863 47.4135 2.09863C47.4335 2.08863 47.4535 2.08864 47.4735 2.07864C47.4935 2.06864 47.5135 2.06863 47.5335 2.05863C47.5535 2.04863 47.5735 2.04864 47.5935 2.03864C47.6135 2.02864 47.6335 2.02863 47.6535 2.01863C47.6735 2.00863 47.6935 2.00863 47.7135 1.99863C47.7335 1.98863 47.7535 1.98863 47.7735 1.97863C47.7935 1.96863 47.8135 1.96863 47.8335 1.95863C47.8535 1.94863 47.8735 1.94864 47.8935 1.93864C47.9335 1.92864 47.9735 1.91864 48.0135 1.89864C48.0535 1.88864 48.0935 1.87863 48.1335 1.85863C48.1735 1.84863 48.2135 1.83863 48.2535 1.81863C48.2735 1.85863 48.3135 1.84864 48.3535 1.82864Z" fill="#F6F6F6"/>
<path d="M2.2532 45.7284C5.4932 45.1584 8.7332 44.5384 11.9532 43.8684L12.2432 43.8184C12.0732 44.3084 11.9132 44.7984 11.7632 45.2884C11.6132 45.7784 11.4732 46.2784 11.3432 46.7684C11.2132 47.2584 11.0932 47.7584 10.9932 48.2484C10.8832 48.7484 10.7932 49.2384 10.7132 49.7384C10.4132 51.5984 10.2932 53.4884 10.3732 55.3684L10.0632 55.4784C6.7032 56.5684 3.3632 57.7084 0.0332031 58.8984C0.0332031 58.4884 0.0331976 58.0684 0.0431976 57.6484C0.0531976 57.2284 0.0731952 56.7984 0.103195 56.3684C0.133195 55.9384 0.163196 55.5084 0.213196 55.0684C0.253196 54.6284 0.313199 54.1884 0.373199 53.7484C0.373199 53.7384 0.373199 53.7284 0.373199 53.7284C0.373199 53.7184 0.373199 53.7084 0.373199 53.6984C0.373199 53.6884 0.373199 53.6784 0.373199 53.6784C0.373199 53.6684 0.373199 53.6584 0.373199 53.6584C0.373199 53.6384 0.383209 53.6084 0.383209 53.5884C0.383209 53.5684 0.393204 53.5384 0.393204 53.5184C0.393204 53.4984 0.403198 53.4684 0.403198 53.4484C0.403198 53.4284 0.413208 53.3984 0.413208 53.3784C0.413208 53.3584 0.413203 53.3384 0.423203 53.3184C0.423203 53.2984 0.433197 53.2784 0.433197 53.2584C0.433197 53.2384 0.433207 53.2184 0.443207 53.1984C0.443207 53.1784 0.453201 53.1584 0.453201 53.1384C0.453201 53.1184 0.453196 53.0984 0.463196 53.0884C0.463196 53.0684 0.473206 53.0484 0.473206 53.0384C0.473206 53.0184 0.4732 52.9984 0.4832 52.9884C0.4832 52.9684 0.49321 52.9484 0.49321 52.9384C0.50321 52.8984 0.503199 52.8584 0.513199 52.8184C0.523199 52.7784 0.523203 52.7384 0.533203 52.6984C0.543203 52.6584 0.543207 52.6184 0.553207 52.5784C0.563207 52.5384 0.563196 52.4984 0.573196 52.4584C0.583196 52.4184 0.583201 52.3784 0.593201 52.3384C0.603201 52.2984 0.603205 52.2584 0.613205 52.2184C0.623205 52.1784 0.623209 52.1384 0.633209 52.0984C0.643209 52.0584 0.643198 52.0184 0.653198 51.9784C0.653198 51.9584 0.663208 51.9484 0.663208 51.9284C0.663208 51.9084 0.673203 51.8984 0.673203 51.8784C0.673203 51.8584 0.683197 51.8484 0.683197 51.8284C0.683197 51.8084 0.693207 51.7984 0.693207 51.7784C0.693207 51.7584 0.703201 51.7384 0.703201 51.7184C0.703201 51.6984 0.713196 51.6784 0.713196 51.6584C0.713196 51.6384 0.723206 51.6184 0.723206 51.5884C0.723206 51.5684 0.7332 51.5484 0.7332 51.5184C0.7332 51.4984 0.74321 51.4784 0.74321 51.4584C0.74321 51.4384 0.753204 51.4184 0.753204 51.3984C0.753204 51.3784 0.763199 51.3584 0.763199 51.3384C0.763199 51.3184 0.773209 51.2984 0.773209 51.2784C0.773209 51.2684 0.783203 51.2484 0.783203 51.2384C0.783203 51.2284 0.793198 51.2084 0.793198 51.1984C0.793198 51.1884 0.803207 51.1684 0.803207 51.1584C0.803207 51.1484 0.813202 51.1284 0.813202 51.1184C1.1932 49.2884 1.6732 47.4884 2.2532 45.7284C2.8532 45.6284 2.1132 46.1784 2.2532 45.7284Z" fill="#F6F6F6"/>
<path d="M72.0639 2.04883C75.5239 3.41883 78.654 5.57882 81.084 8.40882C78.124 11.1288 75.2239 13.9088 72.3539 16.7088L72.1039 16.9488C70.1039 14.3488 67.3539 12.4388 64.2939 11.3088L64.534 11.0288C67.074 8.06882 69.5839 5.06883 72.0639 2.04883C72.9539 2.39883 71.6039 2.60883 72.0639 2.04883Z" fill="#F6F6F6"/>
<path d="M13.3838 65.3691C15.1838 68.0991 17.7838 70.2091 20.7738 71.5191L20.5338 71.7991C17.9138 74.8391 15.3438 77.9092 12.8038 81.0191C9.47383 79.3591 6.56383 76.9192 4.42383 73.8792C7.37383 71.1692 10.2638 68.3992 13.1338 65.5992L13.3838 65.3691Z" fill="#F6F6F6"/>
<path d="M86.6339 22.9492C86.6639 23.3292 86.6839 23.7192 86.6939 24.1192C86.7039 24.5092 86.7139 24.9092 86.7139 25.3092C86.7139 25.7092 86.7039 26.1192 86.6939 26.5292C86.6739 26.9392 86.6539 27.3592 86.6239 27.7792V27.7892V27.7992V27.8092V27.8192C86.6239 27.8492 86.6239 27.8692 86.6139 27.8992C86.6139 27.9292 86.6139 27.9492 86.6039 27.9792C86.6039 28.0092 86.6039 28.0292 86.5939 28.0592C86.5939 28.0892 86.5939 28.1092 86.5839 28.1392C86.5839 28.1592 86.5839 28.1692 86.5839 28.1892C86.5839 28.2092 86.5839 28.2192 86.5839 28.2392C86.5839 28.2592 86.5839 28.2692 86.5839 28.2892C86.5839 28.3092 86.5839 28.3192 86.5839 28.3392C86.5839 28.3592 86.5839 28.3792 86.5839 28.3992C86.5839 28.4192 86.5839 28.4392 86.5739 28.4592C86.5739 28.4792 86.5739 28.4992 86.5639 28.5192C86.5639 28.5392 86.5639 28.5592 86.5639 28.5792C86.5639 28.5992 86.5639 28.6292 86.5539 28.6492C86.5539 28.6692 86.5539 28.6992 86.5439 28.7192C86.5439 28.7392 86.5439 28.7692 86.5339 28.7892C86.5339 28.8092 86.5339 28.8392 86.5239 28.8592C86.5239 28.8692 86.5239 28.8892 86.5239 28.8992C86.5239 28.9092 86.5239 28.9292 86.5239 28.9392C86.5239 28.9492 86.5239 28.9692 86.5239 28.9792C86.5239 28.9892 86.5239 29.0092 86.5239 29.0192C86.5239 29.0592 86.5139 29.0992 86.5139 29.1392C86.5139 29.1792 86.5039 29.2192 86.5039 29.2592C86.5039 29.2992 86.4939 29.3392 86.4939 29.3792C86.4939 29.4192 86.4839 29.4592 86.4839 29.4992C86.4839 29.5392 86.4739 29.5792 86.4739 29.6192C86.4739 29.6592 86.4639 29.6992 86.4539 29.7392C86.4539 29.7792 86.4439 29.8192 86.4439 29.8592C86.4339 29.8992 86.4339 29.9392 86.4239 29.9792C86.4239 29.9992 86.4239 30.0092 86.4139 30.0292C86.4139 30.0492 86.4139 30.0592 86.4039 30.0792C86.4039 30.0992 86.4039 30.1092 86.3939 30.1292C86.3939 30.1492 86.3939 30.1592 86.3839 30.1792C86.3839 30.1992 86.3739 30.2192 86.3739 30.2392C86.3739 30.2592 86.3639 30.2792 86.3639 30.2992C86.3639 30.3192 86.3539 30.3392 86.3539 30.3592C86.3539 30.3792 86.3439 30.3992 86.3439 30.4192C86.3439 30.4392 86.3339 30.4692 86.3339 30.4892C86.3339 30.5092 86.3239 30.5392 86.3239 30.5592C86.3239 30.5792 86.3139 30.6092 86.3139 30.6292C86.3139 30.6492 86.3039 30.6792 86.3039 30.6992C86.3039 30.7092 86.3039 30.7192 86.3039 30.7292C86.3039 30.7392 86.3039 30.7492 86.3039 30.7592C86.3039 30.7692 86.3039 30.7792 86.3039 30.7892C86.3039 30.7992 86.3039 30.8092 86.3039 30.8192C86.0139 32.7092 85.5939 34.5692 85.0539 36.3992C81.5539 36.9992 78.0639 37.6592 74.5839 38.3692L74.2539 38.4292C74.4139 37.9192 74.5639 37.4192 74.7039 36.9092C74.8439 36.3992 74.9739 35.8892 75.0839 35.3892C75.2039 34.8792 75.3039 34.3792 75.3939 33.8692C75.4839 33.3692 75.5639 32.8592 75.6239 32.3592C75.8639 30.4692 75.9039 28.5492 75.7239 26.6592L76.0639 26.5392C79.5839 25.4292 83.1139 24.2092 86.6339 22.9492C86.6639 23.3292 85.9739 23.1892 86.6339 22.9492Z" fill="#F6F6F6"/>
<path d="M44.6237 70.0391L44.6037 70.3391C44.3637 73.5991 44.1938 76.8691 44.0938 80.1291C43.5238 80.3591 42.9538 80.5691 42.3838 80.7791C41.8138 80.9891 41.2438 81.1891 40.6638 81.3791C40.0938 81.5691 39.5138 81.7491 38.9438 81.9291C38.3638 82.0991 37.7937 82.2591 37.2137 82.4091C37.1737 82.4191 37.1337 82.4291 37.0938 82.4391C37.0538 82.4491 37.0138 82.4591 36.9738 82.4691C36.9338 82.4791 36.8937 82.4891 36.8537 82.4991C36.8137 82.5091 36.7737 82.5191 36.7337 82.5291C36.6937 82.5391 36.6538 82.5491 36.6138 82.5591C36.5738 82.5691 36.5338 82.5791 36.4938 82.5891C36.4538 82.5991 36.4137 82.6091 36.3737 82.6191C36.3337 82.6291 36.2938 82.6391 36.2538 82.6491C34.0638 83.1691 31.8338 83.5291 29.5938 83.7391C30.4438 80.3591 31.2338 76.9491 31.9538 73.5391L32.0137 73.2291C32.5037 73.1991 33.0037 73.1491 33.5137 73.0891C34.0237 73.0291 34.5338 72.9591 35.0538 72.8791C35.5738 72.7991 36.0937 72.6991 36.6237 72.5891C37.1537 72.4791 37.6937 72.3591 38.2337 72.2191C40.4037 71.6791 42.5437 70.9391 44.6237 70.0391Z" fill="#F6F6F6"/>
<path d="M67.6939 51.2686L67.9039 51.3885C70.3139 52.8885 72.7539 54.3385 75.2439 55.6985C71.8239 60.2985 67.8639 64.5085 63.4939 68.2285C61.6139 66.1985 59.6839 64.2185 57.6839 62.3085L57.5039 62.1286C61.3439 58.9686 64.7939 55.3086 67.6939 51.2686Z" fill="#F6F6F6"/>
<path d="M32.5137 70.1791C32.4937 70.2491 32.4837 70.3091 32.4837 70.3591C32.4837 70.4191 32.5037 70.4691 32.5237 70.5091C32.5537 70.5491 32.5837 70.5791 32.6337 70.6091C32.6737 70.6291 32.7337 70.6391 32.7937 70.6391C32.8837 70.6291 32.9637 70.6291 33.0537 70.6191C33.1437 70.6091 33.2237 70.6091 33.3137 70.5991C33.4037 70.5891 33.4837 70.5791 33.5737 70.5791C33.6637 70.5691 33.7437 70.5591 33.8337 70.5491C31.7037 70.7691 29.5537 70.7591 27.4337 70.4391L27.5837 70.4291C27.7837 70.3791 27.9837 70.2191 28.0737 70.0291C28.1737 69.8391 28.1837 69.5291 27.9037 69.4791C26.3237 69.2491 24.7637 68.8191 23.2937 68.1991C23.2737 68.1891 23.2537 68.1891 23.2437 68.1791C23.2237 68.1791 23.2037 68.1691 23.1837 68.1691C23.1637 68.1691 23.1437 68.1691 23.1237 68.1691C23.1037 68.1691 23.0837 68.1791 23.0537 68.1791C23.0137 68.1891 22.9737 68.1991 22.9337 68.2191C22.8937 68.2391 22.8537 68.2591 22.8237 68.2891C22.7837 68.3191 22.7537 68.3491 22.7137 68.3791C22.6837 68.4091 22.6537 68.4491 22.6237 68.4891C22.5137 68.6391 22.4137 68.9091 22.5937 69.0591C21.2137 68.4591 19.9037 67.6691 18.7337 66.7091L19.0237 66.7491L19.3837 66.5291C19.5137 66.3791 19.6737 66.0691 19.4837 65.8891C18.3637 64.9591 17.3637 63.8691 16.5737 62.6391C16.4837 62.5291 16.3337 62.5191 16.2037 62.5491C16.1837 62.5591 16.1637 62.5591 16.1337 62.5691C16.1137 62.5791 16.0837 62.5891 16.0637 62.5991C16.0437 62.6091 16.0137 62.6291 15.9937 62.6391C15.9737 62.6591 15.9437 62.6691 15.9237 62.6891C15.7737 62.8191 15.6137 63.0491 15.6637 63.2591C14.8537 62.0191 14.2337 60.6591 13.7837 59.2491C13.8537 59.3791 14.0237 59.3791 14.1537 59.3491L14.3237 59.2691C14.5137 59.1491 14.7537 58.8691 14.6737 58.6191C14.5637 58.2491 14.4637 57.8791 14.3737 57.4991C14.2837 57.1191 14.2037 56.7391 14.1437 56.3491C14.0737 55.9591 14.0237 55.5691 13.9737 55.1691C13.9337 54.7691 13.8937 54.3691 13.8737 53.9591C13.8737 53.9091 13.8537 53.8691 13.8337 53.8291C13.8137 53.7891 13.7837 53.7591 13.7437 53.7391C13.7037 53.7191 13.6637 53.7091 13.6237 53.6991C13.5737 53.6991 13.5237 53.6991 13.4737 53.7091C13.4637 53.7091 13.4637 53.7091 13.4537 53.7191C13.4437 53.7191 13.4437 53.7191 13.4337 53.7291C13.4237 53.7291 13.4237 53.7391 13.4137 53.7391C13.4037 53.7391 13.4037 53.7491 13.3937 53.7491C13.1537 53.8491 12.9237 54.1091 12.9337 54.3791C12.9337 54.4491 12.9437 54.5291 12.9437 54.5991C12.9437 54.6691 12.9537 54.7491 12.9537 54.8191C12.9537 54.8891 12.9637 54.9691 12.9737 55.0391C12.9837 55.1091 12.9837 55.1891 12.9937 55.2591C12.8037 53.2091 12.9137 51.1291 13.2337 49.0991C13.1937 49.3591 13.4237 49.4391 13.6337 49.3791C13.6937 49.3591 13.7637 49.3291 13.8237 49.2891C13.8837 49.2491 13.9437 49.1991 13.9937 49.1491C14.0437 49.0991 14.0837 49.0391 14.1237 48.9691C14.1537 48.9091 14.1837 48.8491 14.1937 48.7891C13.3137 54.2391 14.1337 60.1791 17.9537 64.4091C21.7437 68.5991 27.5337 70.0191 33.0137 69.6691C32.7937 69.7491 32.5937 69.9491 32.5137 70.1791Z" fill="#6D1627"/>
<path d="M44.5033 67.649L44.5933 67.609C45.7333 67.119 46.8433 66.579 47.9433 65.999C44.9933 67.579 41.8633 68.849 38.6133 69.679C38.6833 69.659 38.7433 69.629 38.8033 69.589C38.8633 69.549 38.9133 69.499 38.9633 69.449C39.0133 69.399 39.0533 69.339 39.0833 69.279C39.1133 69.219 39.1333 69.159 39.1433 69.089C39.1833 68.829 38.9333 68.689 38.7033 68.749C41.2633 68.099 43.7533 67.159 46.1233 66.009C45.9933 66.069 45.8533 66.139 45.7233 66.199C45.5933 66.259 45.4533 66.329 45.3233 66.389C45.1933 66.449 45.0533 66.509 44.9233 66.569C44.7933 66.629 44.6533 66.689 44.5233 66.749C44.2733 66.859 44.0633 67.109 44.0733 67.399C44.0933 67.639 44.3133 67.699 44.5033 67.649Z" fill="#A2000C"/>
<path d="M69.0031 44.0884C69.0531 44.0984 69.0931 44.1084 69.1331 44.1384C69.1731 44.1584 69.1931 44.1984 69.2131 44.2384C69.2331 44.2784 69.2431 44.3184 69.2431 44.3684C69.2431 44.4184 69.2431 44.4684 69.2231 44.5284C69.2131 44.5684 69.2031 44.5984 69.1831 44.6384C68.1531 46.6184 66.9831 48.5184 65.6931 50.3384L65.6631 50.3584L65.2631 50.6384L65.0131 50.6284C64.7431 50.5384 64.8231 50.1984 64.9531 50.0384C65.1231 49.7984 65.2831 49.5684 65.4431 49.3284C65.6031 49.0884 65.7631 48.8484 65.9231 48.6184C66.0831 48.3784 66.2331 48.1384 66.3831 47.8984C66.5331 47.6584 66.6831 47.4184 66.8331 47.1784C66.8631 47.1384 66.8831 47.0884 66.9131 47.0484C66.9431 47.0084 66.9631 46.9584 66.9931 46.9184C67.0231 46.8784 67.0431 46.8284 67.0731 46.7884C67.1031 46.7484 67.1231 46.6984 67.1531 46.6584C67.1531 46.6584 67.1531 46.6484 67.1631 46.6484C67.1631 46.6484 67.1631 46.6384 67.1731 46.6384C67.1731 46.6384 67.1731 46.6284 67.1831 46.6284C67.1831 46.6284 67.1831 46.6184 67.1931 46.6184C67.2931 46.4484 67.3931 46.2784 67.4931 46.0984C67.5931 45.9284 67.6831 45.7484 67.7831 45.5784C67.8731 45.4084 67.9731 45.2284 68.0631 45.0584C68.1531 44.8884 68.2431 44.7084 68.3331 44.5384C68.3331 44.5384 68.3331 44.5284 68.3431 44.5184C68.3431 44.5084 68.3531 44.5084 68.3531 44.4984C68.3531 44.4984 68.3631 44.4884 68.3631 44.4784L68.3731 44.4684C68.4031 44.4284 68.4331 44.3884 68.4631 44.3484C68.5031 44.3084 68.5331 44.2784 68.5731 44.2484C68.6131 44.2184 68.6531 44.1884 68.7031 44.1684C68.7431 44.1484 68.7931 44.1284 68.8331 44.1184C68.8531 44.1184 68.8631 44.1084 68.8831 44.1084C68.9031 44.1084 68.9131 44.1084 68.9331 44.0984C68.9531 44.0984 68.9631 44.0984 68.9831 44.0984C68.9731 44.0784 68.9931 44.0884 69.0031 44.0884Z" fill="#FEFEFE"/>
<path d="M50.4833 63.6587C50.5333 63.6487 50.5733 63.6387 50.6233 63.6387C50.6633 63.6387 50.7033 63.6487 50.7433 63.6587C50.7833 63.6787 50.8133 63.6987 50.8333 63.7187C50.8633 63.7487 50.8833 63.7787 50.8933 63.8187C50.9133 63.8687 50.9133 63.9287 50.9033 63.9887C50.8933 64.0487 50.8733 64.1087 50.8433 64.1687C50.8133 64.2287 50.7733 64.2887 50.7233 64.3387C50.6733 64.3887 50.6133 64.4387 50.5533 64.4787C50.4633 64.5387 50.3733 64.5887 50.2833 64.6487C50.1933 64.7087 50.1033 64.7587 50.0133 64.8187C49.9233 64.8687 49.8333 64.9287 49.7433 64.9787C49.6533 65.0287 49.5633 65.0887 49.4733 65.1387C49.4433 65.1587 49.4133 65.1787 49.3833 65.1887C49.3533 65.2087 49.3233 65.2287 49.2933 65.2387C49.2633 65.2587 49.2333 65.2687 49.2033 65.2887C49.1733 65.3087 49.1433 65.3187 49.1133 65.3387C47.6533 66.1687 46.1633 66.9187 44.6233 67.5787L44.5333 67.6187C44.3433 67.6687 44.1133 67.5987 44.1133 67.3687C44.1133 67.3087 44.1233 67.2387 44.1433 67.1787C44.1633 67.1187 44.1933 67.0587 44.2333 66.9987C44.2733 66.9387 44.3233 66.8887 44.3733 66.8387C44.4333 66.7887 44.4933 66.7487 44.5633 66.7287C44.6933 66.6687 44.8333 66.6087 44.9633 66.5487C45.0933 66.4887 45.2333 66.4287 45.3633 66.3687C45.4933 66.3087 45.6333 66.2487 45.7633 66.1787C45.8933 66.1187 46.0333 66.0487 46.1633 65.9887C46.2033 65.9687 46.2333 65.9487 46.2733 65.9387C46.3133 65.9187 46.3433 65.8987 46.3833 65.8887C46.4233 65.8687 46.4533 65.8487 46.4933 65.8387C46.5333 65.8187 46.5733 65.7987 46.6033 65.7787C46.6233 65.7687 46.6433 65.7587 46.6633 65.7487C46.6833 65.7387 46.7033 65.7287 46.7233 65.7187C46.7433 65.7087 46.7633 65.6987 46.7833 65.6887C46.8033 65.6787 46.8233 65.6687 46.8433 65.6587C46.8833 65.6387 46.9233 65.6187 46.9533 65.5987C46.9933 65.5787 47.0233 65.5587 47.0633 65.5387C47.1033 65.5187 47.1433 65.4987 47.1733 65.4787C47.2133 65.4587 47.2433 65.4387 47.2833 65.4187C47.3133 65.4087 47.3333 65.3887 47.3633 65.3787C47.3933 65.3687 47.4133 65.3487 47.4433 65.3387C47.4733 65.3287 47.4933 65.3087 47.5233 65.2987C47.5533 65.2887 47.5733 65.2687 47.6033 65.2587C47.6033 65.2587 47.6133 65.2587 47.6133 65.2487C47.6133 65.2487 47.6233 65.2487 47.6233 65.2387C47.6233 65.2387 47.6333 65.2387 47.6333 65.2287C47.6333 65.2287 47.6433 65.2287 47.6433 65.2187C47.8633 65.0987 48.0833 64.9787 48.3033 64.8587C48.5233 64.7387 48.7433 64.6187 48.9633 64.4887C49.1833 64.3687 49.4033 64.2387 49.6233 64.1087C49.8433 63.9787 50.0633 63.8487 50.2733 63.7187C50.2933 63.7087 50.3033 63.6987 50.3233 63.6887C50.3433 63.6787 50.3533 63.6687 50.3733 63.6687C50.3933 63.6587 50.4033 63.6587 50.4233 63.6487C50.4533 63.6687 50.4733 63.6587 50.4833 63.6587Z" fill="#FEFEFE"/>
<path d="M24.9938 28.0389L24.6837 28.0089C24.6537 27.9889 24.6238 27.9589 24.6138 27.9189C24.5938 27.8789 24.5938 27.8389 24.5938 27.7989C24.5938 27.7589 24.6037 27.7089 24.6237 27.6589C24.6437 27.6089 24.6638 27.5589 24.6938 27.5089C24.7038 27.4989 24.7037 27.4889 24.7137 27.4789C24.7237 27.4689 24.7237 27.4589 24.7337 27.4489C24.7437 27.4389 24.7538 27.4289 24.7538 27.4189C24.7638 27.4089 24.7738 27.3989 24.7838 27.3889C25.1638 26.9889 25.5538 26.5789 25.9538 26.1889C26.3538 25.7989 26.7538 25.3989 27.1638 25.0189C27.5738 24.6389 27.9938 24.2589 28.4138 23.8789C28.8338 23.5089 29.2638 23.1389 29.7038 22.7789C29.7138 22.7689 29.7138 22.7689 29.7238 22.7589C29.7338 22.7489 29.7338 22.7489 29.7438 22.7389C29.7538 22.7389 29.7537 22.7289 29.7637 22.7289C29.7737 22.7289 29.7738 22.7189 29.7838 22.7189C29.7938 22.7089 29.8137 22.6989 29.8237 22.6989C29.8337 22.6889 29.8538 22.6889 29.8638 22.6789C29.8738 22.6689 29.8937 22.6689 29.9037 22.6589C29.9137 22.6489 29.9338 22.6489 29.9438 22.6489C29.9838 22.6389 30.0138 22.6289 30.0538 22.6289C30.0938 22.6289 30.1237 22.6289 30.1537 22.6389C30.1837 22.6489 30.2137 22.6589 30.2337 22.6689C30.2637 22.6889 30.2838 22.7089 30.3038 22.7289C30.4638 22.9389 30.2438 23.2389 30.0938 23.3689C28.4237 24.7489 26.8238 26.2289 25.3438 27.8089L24.9938 28.0389Z" fill="#FEFEFE"/>
<path d="M40.8239 16.6085C40.8039 16.6185 40.7839 16.6285 40.7739 16.6385C40.7539 16.6485 40.7339 16.6585 40.7239 16.6685C40.7039 16.6785 40.6839 16.6885 40.6739 16.6985C40.6539 16.7085 40.6339 16.7185 40.6239 16.7285C40.5839 16.7485 40.5539 16.7585 40.5139 16.7785C40.4739 16.7985 40.4439 16.8085 40.4139 16.8285C40.3739 16.8485 40.3439 16.8585 40.3039 16.8785C40.2739 16.8985 40.2339 16.9085 40.2039 16.9285C40.1939 16.9285 40.1939 16.9385 40.1839 16.9385C40.1739 16.9385 40.1739 16.9485 40.1639 16.9485C40.1539 16.9485 40.1539 16.9585 40.1439 16.9585C40.1339 16.9585 40.1339 16.9685 40.1239 16.9685C39.9639 17.0485 39.7939 17.1285 39.6339 17.2085C39.4739 17.2885 39.3039 17.3685 39.1439 17.4485C38.9839 17.5285 38.8139 17.6185 38.6539 17.6985C38.4939 17.7785 38.3339 17.8685 38.1639 17.9585C37.1939 18.4785 36.2439 19.0285 35.3139 19.6085L35.1439 19.6985C34.9939 19.7385 34.7939 19.7085 34.7539 19.5385C34.7339 19.4985 34.7339 19.4485 34.7439 19.3885C34.7539 19.3385 34.7639 19.2785 34.7939 19.2285C34.8239 19.1785 34.8539 19.1185 34.8939 19.0685C34.9339 19.0185 34.9839 18.9685 35.0439 18.9285L35.0539 18.9185L35.0639 18.9085L35.0739 18.8985L35.0839 18.8885C35.2139 18.8085 35.3539 18.7185 35.4839 18.6385C35.6139 18.5585 35.7539 18.4785 35.8839 18.3885C36.0139 18.3085 36.1539 18.2285 36.2839 18.1485C36.4139 18.0685 36.5539 17.9885 36.6839 17.9085L36.6939 17.8985L36.7039 17.8885L36.7139 17.8785L36.7239 17.8685C36.7439 17.8585 36.7539 17.8485 36.7639 17.8385C36.7739 17.8285 36.7939 17.8185 36.8039 17.8085C36.8139 17.7985 36.8339 17.7885 36.8439 17.7785C36.8539 17.7685 36.8739 17.7585 36.8839 17.7485C37.2039 17.5685 37.5139 17.3885 37.8339 17.2185C38.1539 17.0485 38.4739 16.8785 38.7939 16.7185C39.1139 16.5585 39.4339 16.3985 39.7539 16.2385C40.0739 16.0885 40.3939 15.9385 40.7239 15.7885C40.7339 15.7885 40.7439 15.7785 40.7539 15.7785C40.7639 15.7785 40.7739 15.7685 40.7739 15.7685C40.7839 15.7685 40.7939 15.7585 40.7939 15.7585C40.8039 15.7585 40.8139 15.7585 40.8139 15.7485C40.8639 15.7285 40.9239 15.7285 40.9639 15.7285C41.0139 15.7285 41.0539 15.7385 41.0939 15.7585C41.1339 15.7785 41.1639 15.7985 41.1839 15.8385C41.2039 15.8685 41.2239 15.9085 41.2239 15.9585C41.2239 16.0085 41.2139 16.0685 41.1939 16.1285C41.1739 16.1885 41.1439 16.2485 41.1039 16.2985C41.0639 16.3585 41.0139 16.4085 40.9539 16.4585C40.9539 16.5385 40.8939 16.5785 40.8239 16.6085Z" fill="#FEFEFE"/>
<path d="M17.2837 38.4791C17.2337 38.4691 17.1937 38.4591 17.1637 38.4291C17.1337 38.4091 17.1037 38.3791 17.0837 38.3391C17.0637 38.2991 17.0537 38.2591 17.0537 38.2191C17.0537 38.1691 17.0637 38.1191 17.0837 38.0691C17.0837 38.0591 17.0937 38.0491 17.0937 38.0491C17.0937 38.0391 17.1037 38.0291 17.1037 38.0291C17.1037 38.0191 17.1137 38.0091 17.1137 38.0091C17.1137 37.9991 17.1237 37.9891 17.1237 37.9891C17.3737 37.5291 17.6237 37.0591 17.8937 36.5991C18.1637 36.1391 18.4337 35.6791 18.7237 35.2191C19.0137 34.7591 19.3037 34.3091 19.6037 33.8591C19.9037 33.4091 20.2237 32.9591 20.5437 32.5091C20.5537 32.4991 20.5537 32.4891 20.5637 32.4791C20.5737 32.4691 20.5837 32.4591 20.5837 32.4491C20.5937 32.4391 20.6037 32.4291 20.6037 32.4191C20.6137 32.4091 20.6237 32.3991 20.6337 32.3991C20.6537 32.3791 20.6837 32.3591 20.7037 32.3391C20.7337 32.3191 20.7537 32.2991 20.7837 32.2891C20.8137 32.2691 20.8437 32.2591 20.8637 32.2491C20.8937 32.2391 20.9237 32.2291 20.9437 32.2191C21.0237 32.1991 21.1137 32.1891 21.1937 32.2191C21.4437 32.3191 21.3237 32.6391 21.2137 32.7891C19.9937 34.4791 18.8837 36.2491 17.9037 38.0791C17.8137 38.2591 17.6437 38.4091 17.4437 38.4591L17.2837 38.4791Z" fill="#FEFEFE"/>
<path d="M46.523 14.529C46.463 14.549 46.403 14.549 46.343 14.549C46.283 14.539 46.233 14.529 46.193 14.499C46.153 14.469 46.123 14.439 46.103 14.389C46.083 14.349 46.073 14.289 46.083 14.239C46.123 13.989 46.313 13.759 46.553 13.689L46.663 13.659C46.723 13.639 46.783 13.629 46.843 13.609C46.903 13.589 46.963 13.579 47.023 13.559C47.083 13.539 47.143 13.529 47.203 13.509C47.263 13.489 47.323 13.479 47.383 13.459C47.403 13.459 47.423 13.449 47.433 13.449C47.453 13.449 47.473 13.439 47.483 13.439C47.503 13.439 47.523 13.429 47.533 13.429C47.553 13.429 47.573 13.419 47.583 13.419C47.593 13.419 47.603 13.409 47.613 13.409C47.623 13.409 47.633 13.399 47.643 13.399C47.653 13.399 47.663 13.389 47.673 13.389C47.683 13.389 47.693 13.379 47.703 13.379C48.023 13.299 48.343 13.229 48.663 13.159C48.983 13.089 49.303 13.029 49.613 12.969C49.923 12.909 50.243 12.859 50.563 12.809C50.873 12.759 51.193 12.719 51.503 12.679C51.513 12.679 51.523 12.679 51.533 12.679C51.543 12.679 51.553 12.679 51.563 12.679C51.573 12.679 51.583 12.679 51.593 12.679C51.603 12.679 51.613 12.679 51.623 12.679C51.633 12.679 51.653 12.679 51.663 12.669C51.673 12.669 51.693 12.669 51.703 12.659C51.713 12.659 51.733 12.659 51.743 12.649C51.753 12.649 51.773 12.649 51.783 12.639C51.813 12.639 51.853 12.629 51.883 12.629C51.913 12.629 51.953 12.619 51.983 12.619C52.013 12.619 52.053 12.609 52.083 12.609C52.113 12.609 52.153 12.599 52.183 12.599C52.183 12.599 52.183 12.599 52.193 12.599C52.193 12.599 52.193 12.599 52.203 12.599C52.203 12.599 52.203 12.599 52.213 12.599C52.213 12.599 52.213 12.599 52.223 12.599C52.463 12.589 52.573 12.799 52.493 13.009C52.423 13.239 52.203 13.419 51.983 13.479L51.903 13.499C51.493 13.539 51.093 13.589 50.673 13.649C50.263 13.709 49.843 13.779 49.433 13.859C49.013 13.939 48.603 14.019 48.183 14.119C47.763 14.219 47.343 14.319 46.913 14.429C46.903 14.429 46.903 14.429 46.893 14.429C46.883 14.429 46.883 14.429 46.873 14.429C46.873 14.429 46.863 14.429 46.853 14.429C46.843 14.429 46.843 14.429 46.833 14.429C46.803 14.439 46.773 14.449 46.743 14.449C46.713 14.459 46.683 14.469 46.653 14.469C46.623 14.479 46.593 14.489 46.563 14.489C46.583 14.509 46.553 14.519 46.523 14.529Z" fill="#FEFEFE"/>
<path d="M14.2038 48.8186C14.1938 48.8786 14.1738 48.9386 14.1338 48.9986C14.1038 49.0586 14.0538 49.1186 14.0038 49.1786C13.9538 49.2286 13.8938 49.2786 13.8338 49.3186C13.7738 49.3586 13.7138 49.3886 13.6438 49.4086C13.4338 49.4686 13.2038 49.3786 13.2438 49.1286C13.2538 49.0786 13.2538 49.0286 13.2638 48.9886C13.2638 48.9586 13.2738 48.9286 13.2738 48.8986C13.2738 48.8686 13.2838 48.8386 13.2838 48.8086C13.2838 48.7786 13.2938 48.7486 13.2938 48.7186C13.2938 48.6986 13.3038 48.6886 13.3038 48.6686C13.3038 48.6486 13.3138 48.6386 13.3138 48.6186C13.3138 48.5986 13.3238 48.5886 13.3238 48.5686C13.3238 48.5486 13.3338 48.5386 13.3338 48.5186C13.3338 48.5086 13.3338 48.4986 13.3438 48.4786C13.3438 48.4686 13.3438 48.4586 13.3538 48.4386C13.3538 48.4286 13.3538 48.4186 13.3638 48.3986C13.3638 48.3886 13.3638 48.3786 13.3738 48.3586C13.3738 48.3386 13.3838 48.3186 13.3838 48.2886C13.3838 48.2686 13.3938 48.2486 13.3938 48.2186C13.3938 48.1986 13.4038 48.1786 13.4038 48.1486C13.4038 48.1286 13.4138 48.1086 13.4138 48.0786C13.4138 48.0686 13.4138 48.0686 13.4138 48.0586C13.4138 48.0486 13.4138 48.0486 13.4138 48.0386C13.4138 48.0286 13.4138 48.0286 13.4138 48.0186C13.4138 48.0086 13.4138 48.0086 13.4138 47.9986C13.4138 47.9786 13.4238 47.9586 13.4238 47.9286C13.4238 47.9086 13.4338 47.8786 13.4338 47.8586C13.4338 47.8386 13.4438 47.8186 13.4438 47.7886C13.4438 47.7686 13.4538 47.7486 13.4538 47.7186C13.4538 47.7086 13.4538 47.7086 13.4538 47.6986C13.4538 47.6886 13.4538 47.6886 13.4538 47.6786C13.4538 47.6686 13.4538 47.6686 13.4538 47.6586C13.4538 47.6486 13.4538 47.6486 13.4538 47.6386C13.4538 47.6186 13.4638 47.5986 13.4638 47.5786C13.4638 47.5586 13.4738 47.5386 13.4738 47.5186C13.4738 47.4986 13.4838 47.4786 13.4838 47.4586C13.4838 47.4386 13.4938 47.4186 13.4938 47.3986C13.4938 47.3886 13.4938 47.3786 13.5038 47.3686C13.5038 47.3586 13.5038 47.3486 13.5138 47.3386C13.5138 47.3286 13.5138 47.3186 13.5238 47.3086C13.5238 47.2986 13.5238 47.2886 13.5338 47.2786C13.5338 47.2586 13.5438 47.2386 13.5438 47.2286C13.5438 47.2086 13.5538 47.1886 13.5538 47.1786C13.5538 47.1586 13.5638 47.1386 13.5638 47.1286C13.5638 47.1086 13.5738 47.0886 13.5738 47.0786C13.5738 47.0686 13.5838 47.0586 13.5838 47.0386C13.5838 47.0286 13.5938 47.0186 13.5938 46.9986C13.5938 46.9886 13.6038 46.9786 13.6038 46.9586C13.6038 46.9486 13.6138 46.9286 13.6138 46.9186C13.6138 46.9086 13.6238 46.8886 13.6238 46.8786C13.6238 46.8686 13.6338 46.8486 13.6338 46.8386C13.6338 46.8286 13.6438 46.8086 13.6438 46.7986C13.6438 46.7886 13.6538 46.7686 13.6538 46.7586C13.6538 46.7386 13.6638 46.7186 13.6638 46.7086C13.6638 46.6886 13.6738 46.6686 13.6738 46.6586C13.6738 46.6386 13.6838 46.6186 13.6838 46.6086C13.6838 46.5886 13.6938 46.5686 13.6938 46.5586C13.6938 46.5486 13.6938 46.5386 13.7038 46.5386C13.7038 46.5286 13.7038 46.5186 13.7138 46.5186C13.7138 46.5086 13.7138 46.4986 13.7238 46.4986C13.7238 46.4886 13.7238 46.4786 13.7338 46.4786C13.7938 46.2386 13.8538 45.9886 13.9238 45.7486C13.9938 45.5086 14.0638 45.2586 14.1338 45.0186C14.2038 44.7786 14.2838 44.5286 14.3538 44.2886C14.4338 44.0486 14.5138 43.7986 14.5938 43.5586C14.5938 43.5486 14.6038 43.5486 14.6038 43.5386C14.6038 43.5286 14.6038 43.5186 14.6138 43.5186C14.6138 43.5086 14.6238 43.5086 14.6238 43.4986C14.6238 43.4886 14.6338 43.4886 14.6338 43.4786C14.6538 43.4286 14.6838 43.3886 14.7238 43.3486C14.7538 43.3086 14.7938 43.2686 14.8338 43.2286C14.8738 43.1986 14.9138 43.1686 14.9638 43.1386C15.0038 43.1186 15.0538 43.0986 15.1038 43.0786C15.1438 43.0686 15.1738 43.0586 15.2138 43.0586C15.2738 43.0586 15.3238 43.0586 15.3738 43.0786C15.4138 43.0986 15.4538 43.1286 15.4838 43.1586C15.5138 43.1986 15.5238 43.2386 15.5238 43.2886C15.5238 43.3386 15.5238 43.3986 15.4938 43.4586C15.3538 43.8686 15.2138 44.2886 15.0938 44.6986C14.9638 45.1086 14.8538 45.5286 14.7438 45.9386C14.6338 46.3486 14.5338 46.7686 14.4538 47.1786C14.3638 47.5886 14.2838 47.9986 14.2138 48.4086C14.2138 48.4086 14.2138 48.4086 14.2138 48.4186C14.2138 48.4186 14.2138 48.4186 14.2138 48.4286C14.2138 48.4286 14.2138 48.4286 14.2138 48.4386C14.2138 48.4386 14.2138 48.4386 14.2138 48.4486C14.2138 48.4786 14.2038 48.5086 14.2038 48.5386C14.2038 48.5686 14.1938 48.5986 14.1938 48.6286C14.1938 48.6586 14.1838 48.6886 14.1838 48.7186C14.2138 48.7586 14.2138 48.7886 14.2038 48.8186Z" fill="#FEFEFE"/>
<path d="M57.1037 13.4586C57.0437 13.4486 57.0037 13.4286 56.9637 13.4086C56.9237 13.3786 56.8938 13.3386 56.8838 13.2986C56.8638 13.2586 56.8638 13.1986 56.8738 13.1486C56.8838 13.0886 56.9037 13.0286 56.9337 12.9686C56.9637 12.9186 56.9938 12.8786 57.0238 12.8386C57.0638 12.7986 57.0938 12.7586 57.1438 12.7286C57.1838 12.6986 57.2238 12.6686 57.2738 12.6386C57.3138 12.6186 57.3638 12.5986 57.4138 12.5786C57.4238 12.5786 57.4438 12.5686 57.4538 12.5686C57.4638 12.5686 57.4838 12.5686 57.4938 12.5586C57.5038 12.5586 57.5238 12.5586 57.5338 12.5586C57.5438 12.5586 57.5637 12.5586 57.5737 12.5586C59.2137 12.7286 60.8338 13.0786 62.3938 13.6286C62.4038 13.6286 62.4038 13.6386 62.4138 13.6386C62.4238 13.6386 62.4237 13.6486 62.4338 13.6486C62.4438 13.6486 62.4438 13.6586 62.4538 13.6586C62.4638 13.6586 62.4638 13.6686 62.4738 13.6686C62.6538 13.8086 62.5737 14.0586 62.4637 14.2086L62.0438 14.5086L61.7938 14.5186C61.4338 14.3886 61.0637 14.2686 60.6837 14.1586C60.3038 14.0486 59.9238 13.9486 59.5338 13.8586C59.1438 13.7686 58.7537 13.6886 58.3537 13.6286C57.9237 13.5586 57.5137 13.5086 57.1037 13.4586C57.0437 13.4586 57.5137 13.5086 57.1037 13.4586Z" fill="#FEFEFE"/>
<path d="M13.8939 53.9885C13.9139 54.3985 13.954 54.7985 13.994 55.1985C14.034 55.5985 14.0939 55.9885 14.1639 56.3785C14.2339 56.7685 14.3039 57.1485 14.3939 57.5285C14.4839 57.9085 14.5839 58.2785 14.6939 58.6485C14.7739 58.8985 14.5439 59.1785 14.3439 59.2985L14.1739 59.3785C14.1339 59.3885 14.0939 59.3985 14.0539 59.3985C14.0139 59.3985 13.9839 59.3985 13.9539 59.3885C13.9239 59.3785 13.8939 59.3685 13.8639 59.3485C13.8339 59.3285 13.8139 59.3085 13.8039 59.2785C13.7939 59.2585 13.784 59.2385 13.774 59.2185C13.684 58.9285 13.604 58.6285 13.524 58.3185C13.444 58.0185 13.3739 57.7085 13.3139 57.3985C13.2539 57.0885 13.1939 56.7785 13.1539 56.4585C13.1039 56.1385 13.0639 55.8185 13.0339 55.4985C13.0339 55.4885 13.0339 55.4885 13.0339 55.4785C13.0339 55.4685 13.0339 55.4685 13.0339 55.4585C13.0339 55.4485 13.0339 55.4485 13.0339 55.4385C13.0339 55.4285 13.0339 55.4285 13.0339 55.4185C13.0339 55.4085 13.0339 55.3985 13.0339 55.3785C13.0339 55.3685 13.0339 55.3585 13.0339 55.3385C13.0339 55.3285 13.0339 55.3185 13.0339 55.2985C13.0339 55.2885 13.0339 55.2785 13.0339 55.2585C13.0239 55.1885 13.0239 55.1085 13.0139 55.0385C13.0039 54.9685 13.004 54.8885 12.994 54.8185C12.994 54.7485 12.9839 54.6685 12.9839 54.5985C12.9839 54.5285 12.9739 54.4485 12.9739 54.3785C12.9639 54.1085 13.1939 53.8485 13.4339 53.7485C13.4439 53.7485 13.4439 53.7385 13.4539 53.7385C13.4639 53.7385 13.4639 53.7285 13.4739 53.7285C13.4839 53.7285 13.484 53.7285 13.494 53.7185C13.504 53.7185 13.5039 53.7185 13.5139 53.7085C13.5639 53.6985 13.6139 53.6885 13.6639 53.6985C13.7139 53.6985 13.7539 53.7185 13.7839 53.7385C13.8239 53.7585 13.8539 53.7885 13.8739 53.8285C13.8739 53.8885 13.8839 53.9385 13.8939 53.9885C13.9139 54.3885 13.8839 53.9385 13.8939 53.9885Z" fill="#FEFEFE"/>
<path d="M68.8438 19.6287C68.6238 19.3387 68.3938 19.0587 68.1538 18.7787C67.9138 18.5087 67.6638 18.2387 67.4038 17.9887C67.1438 17.7387 66.8738 17.4888 66.5938 17.2588C66.3138 17.0288 66.0238 16.7987 65.7238 16.5887C65.5038 16.4287 65.6638 16.1087 65.8038 15.9688C65.8338 15.9387 65.8638 15.9087 65.8938 15.8887C65.9238 15.8687 65.9538 15.8387 65.9838 15.8187C66.0138 15.7987 66.0438 15.7787 66.0738 15.7687C66.1038 15.7587 66.1338 15.7387 66.1638 15.7387C66.1838 15.7287 66.2038 15.7287 66.2238 15.7287C66.2438 15.7287 66.2638 15.7287 66.2838 15.7188C66.3038 15.7188 66.3238 15.7188 66.3438 15.7188C66.3638 15.7188 66.3838 15.7287 66.3938 15.7287C66.4238 15.7387 66.4538 15.7488 66.4738 15.7588C66.7838 15.9788 67.0838 16.2087 67.3738 16.4487C67.6638 16.6887 67.9438 16.9487 68.2138 17.2087C68.4838 17.4687 68.7438 17.7387 68.9938 18.0187C69.2438 18.2987 69.4838 18.5887 69.7038 18.8787C69.7138 18.8887 69.7138 18.8888 69.7238 18.8988C69.7238 18.9088 69.7338 18.9187 69.7338 18.9187C69.7338 18.9287 69.7438 18.9388 69.7438 18.9388C69.7438 18.9488 69.7538 18.9588 69.7538 18.9688C69.8038 19.1788 69.6538 19.3987 69.5038 19.5287L69.2138 19.6888L68.8438 19.6287Z" fill="#FEFEFE"/>
<path d="M16.5832 62.659C17.3732 63.889 18.3732 64.969 19.4932 65.909C19.6832 66.089 19.5332 66.399 19.3932 66.549L19.0332 66.769L18.7432 66.729H18.7132C18.4232 66.489 18.1432 66.239 17.8732 65.979C17.6032 65.719 17.3432 65.449 17.0932 65.169C16.8432 64.889 16.6032 64.599 16.3732 64.309C16.1432 64.009 15.9232 63.709 15.7232 63.389C15.7232 63.379 15.7132 63.379 15.7132 63.369C15.7132 63.359 15.7032 63.359 15.7032 63.349C15.7032 63.339 15.6932 63.329 15.6932 63.329C15.6932 63.319 15.6932 63.309 15.6832 63.309C15.6332 63.099 15.7932 62.869 15.9432 62.739C15.9632 62.719 15.9932 62.699 16.0132 62.689C16.0332 62.669 16.0632 62.659 16.0832 62.649C16.1032 62.639 16.1332 62.629 16.1532 62.619C16.1732 62.609 16.2032 62.599 16.2232 62.599C16.3432 62.539 16.4932 62.549 16.5832 62.659C16.7832 62.969 16.5632 62.639 16.5832 62.659Z" fill="#FEFEFE"/>
<path d="M72.4432 28.3583C72.3932 28.3683 72.3532 28.3783 72.3032 28.3783C72.2632 28.3783 72.2232 28.3683 72.1832 28.3483C72.1432 28.3283 72.1132 28.3083 72.0832 28.2883C72.0532 28.2583 72.0332 28.2283 72.0232 28.1883C72.0232 28.1683 72.0132 28.1583 72.0132 28.1383C71.9932 27.8883 71.9632 27.6483 71.9232 27.4083C71.8932 27.1683 71.8532 26.9283 71.8132 26.6883C71.7732 26.4483 71.7232 26.2183 71.6732 25.9783C71.6232 25.7383 71.5732 25.5083 71.5132 25.2883C71.4732 25.1383 71.4332 24.9883 71.3932 24.8383C71.3532 24.6883 71.3132 24.5383 71.2632 24.3983C71.2232 24.2483 71.1732 24.1083 71.1232 23.9583C71.0732 23.8183 71.0232 23.6683 70.9732 23.5283C70.8732 23.2783 71.0932 23.0083 71.2932 22.8883C71.3132 22.8783 71.3232 22.8683 71.3432 22.8583C71.3632 22.8483 71.3732 22.8383 71.3932 22.8383C71.4132 22.8283 71.4232 22.8283 71.4432 22.8183C71.4632 22.8083 71.4732 22.8083 71.4932 22.7983C71.5332 22.7883 71.5732 22.7783 71.6132 22.7783C71.6532 22.7783 71.6832 22.7783 71.7132 22.7883C71.7432 22.7983 71.7732 22.8083 71.8032 22.8183C71.8332 22.8383 71.8532 22.8583 71.8732 22.8783C71.8732 22.8783 71.8832 22.8883 71.8832 22.8983C71.8832 22.9083 71.8932 22.9083 71.8932 22.9183C71.8932 22.9283 71.9032 22.9283 71.9032 22.9383C71.9032 22.9483 71.9132 22.9483 71.9132 22.9583C72.0532 23.3183 72.1832 23.6983 72.2932 24.0783C72.4032 24.4583 72.5132 24.8483 72.6032 25.2483C72.6932 25.6483 72.7732 26.0483 72.8432 26.4583C72.9132 26.8683 72.9632 27.2883 73.0132 27.7083C73.0132 27.7183 73.0132 27.7183 73.0132 27.7283C73.0132 27.7383 73.0132 27.7383 73.0132 27.7483C73.0132 27.7583 73.0132 27.7683 73.0132 27.7683C73.0132 27.7783 73.0132 27.7883 73.0132 27.7883C72.9832 28.0283 72.7732 28.2383 72.5632 28.3383L72.4432 28.3583Z" fill="#FEFEFE"/>
<path d="M72.9138 32.9886C72.9138 32.9986 72.9138 32.9986 72.9138 33.0086C72.9038 33.0786 72.8938 33.1586 72.8838 33.2286C72.8838 33.2586 72.8738 33.2886 72.8738 33.3186C72.8738 33.3486 72.8638 33.3786 72.8638 33.4086C72.8638 33.4386 72.8538 33.4686 72.8538 33.4986V33.5086C72.8538 33.5186 72.8538 33.5186 72.8538 33.5286C72.8538 33.5386 72.8538 33.5386 72.8538 33.5486C72.8538 33.5486 72.8538 33.5586 72.8538 33.5686C72.8538 33.5886 72.8438 33.6186 72.8438 33.6386C72.8438 33.6586 72.8338 33.6886 72.8338 33.7086C72.8338 33.7286 72.8238 33.7586 72.8238 33.7786C72.8238 33.7986 72.8138 33.8286 72.8138 33.8486C72.8138 33.8686 72.8138 33.8786 72.8038 33.8986C72.8038 33.9186 72.8038 33.9286 72.7938 33.9486C72.7938 33.9686 72.7938 33.9786 72.7838 33.9986C72.7838 34.0186 72.7838 34.0286 72.7738 34.0486C72.7738 34.0586 72.7738 34.0786 72.7638 34.0886C72.7638 34.0986 72.7638 34.1186 72.7538 34.1286C72.7538 34.1386 72.7538 34.1586 72.7438 34.1686C72.7438 34.1786 72.7438 34.1986 72.7338 34.2086C72.7338 34.2286 72.7238 34.2486 72.7238 34.2586C72.7238 34.2786 72.7138 34.2986 72.7138 34.3086C72.7138 34.3286 72.7038 34.3486 72.7038 34.3586C72.7038 34.3786 72.6938 34.3986 72.6938 34.4086C72.6938 34.4186 72.6938 34.4286 72.6838 34.4386C72.6838 34.4486 72.6838 34.4586 72.6838 34.4686C72.6838 34.4786 72.6838 34.4886 72.6738 34.4986C72.6738 34.5086 72.6738 34.5186 72.6638 34.5286C72.6638 34.5486 72.6538 34.5686 72.6538 34.5886C72.6538 34.6086 72.6438 34.6286 72.6438 34.6486C72.6438 34.6686 72.6338 34.6886 72.6338 34.7086C72.6338 34.7286 72.6238 34.7486 72.6238 34.7686C72.6238 34.7786 72.6238 34.7886 72.6138 34.7986C72.6138 34.8086 72.6138 34.8186 72.6138 34.8286C72.6138 34.8386 72.6138 34.8486 72.6038 34.8586C72.6038 34.8686 72.6038 34.8786 72.6038 34.8886C72.6038 34.9086 72.5938 34.9286 72.5938 34.9486C72.5938 34.9686 72.5838 34.9886 72.5838 35.0086C72.5838 35.0286 72.5738 35.0486 72.5738 35.0686C72.5738 35.0886 72.5638 35.1086 72.5638 35.1286C72.5638 35.1386 72.5638 35.1486 72.5538 35.1586C72.5538 35.1686 72.5538 35.1786 72.5438 35.1886C72.5438 35.1986 72.5438 35.2086 72.5338 35.2186C72.5338 35.2286 72.5338 35.2386 72.5238 35.2486C72.5238 35.2686 72.5138 35.2886 72.5138 35.3086C72.5138 35.3286 72.5038 35.3486 72.5038 35.3686C72.5038 35.3886 72.4938 35.4086 72.4938 35.4286C72.4938 35.4486 72.4838 35.4686 72.4838 35.4886C72.4838 35.4986 72.4838 35.5086 72.4738 35.5286C72.4738 35.5386 72.4738 35.5486 72.4638 35.5686C72.4638 35.5786 72.4638 35.5886 72.4538 35.6086C72.4538 35.6186 72.4538 35.6286 72.4438 35.6486C72.4438 35.6686 72.4338 35.6886 72.4338 35.6986C72.4338 35.7186 72.4238 35.7386 72.4238 35.7486C72.4238 35.7686 72.4138 35.7886 72.4138 35.7986C72.4138 35.8186 72.4038 35.8386 72.4038 35.8486C72.4038 35.8586 72.3938 35.8686 72.3938 35.8886C72.3938 35.8986 72.3938 35.9086 72.3838 35.9286C72.3838 35.9386 72.3738 35.9586 72.3738 35.9686C72.3738 35.9786 72.3638 35.9986 72.3638 36.0086C72.3638 36.0286 72.3538 36.0386 72.3538 36.0586C72.3538 36.0786 72.3438 36.0886 72.3438 36.1086C72.3438 36.1286 72.3338 36.1386 72.3338 36.1586C72.3338 36.1786 72.3238 36.1886 72.3238 36.2086C72.3238 36.2286 72.3138 36.2386 72.3138 36.2586C72.3138 36.2786 72.3038 36.2886 72.3038 36.3086C72.3038 36.3286 72.2938 36.3386 72.2938 36.3586C72.2938 36.3686 72.2838 36.3886 72.2838 36.3986C72.2838 36.4086 72.2738 36.4286 72.2738 36.4386C72.2738 36.4486 72.2638 36.4586 72.2638 36.4786C72.2638 36.4886 72.2538 36.4986 72.2538 36.5186C72.2538 36.5286 72.2438 36.5486 72.2438 36.5586C72.2438 36.5786 72.2338 36.5986 72.2338 36.6186C72.2338 36.6386 72.2238 36.6586 72.2238 36.6786C72.2238 36.6986 72.2138 36.7186 72.2138 36.7386C72.2138 36.7586 72.2038 36.7786 72.2038 36.7986C72.2038 36.8086 72.2038 36.8186 72.1938 36.8286C72.1938 36.8386 72.1938 36.8486 72.1838 36.8586C72.1838 36.8686 72.1838 36.8786 72.1738 36.8886C72.1738 36.8986 72.1738 36.9086 72.1638 36.9186C72.1538 36.9386 72.1538 36.9586 72.1438 36.9886C72.1338 37.0086 72.1338 37.0386 72.1238 37.0586C72.1138 37.0786 72.1138 37.1086 72.1038 37.1286C72.0938 37.1486 72.0938 37.1786 72.0838 37.1986C72.0838 37.1986 72.0838 37.2086 72.0838 37.2186C72.0838 37.2286 72.0838 37.2286 72.0838 37.2386C72.0838 37.2486 72.0838 37.2486 72.0838 37.2586C72.0838 37.2586 72.0838 37.2686 72.0838 37.2786C72.0738 37.3086 72.0738 37.3286 72.0638 37.3586C72.0538 37.3886 72.0538 37.4086 72.0438 37.4386C72.0338 37.4686 72.0338 37.4886 72.0238 37.5186C72.0138 37.5486 72.0138 37.5686 72.0038 37.5986C72.0038 37.5986 72.0038 37.5986 72.0038 37.6086C72.0038 37.6086 72.0038 37.6086 72.0038 37.6186C72.0038 37.6186 72.0038 37.6186 72.0038 37.6286C72.0038 37.6286 72.0038 37.6286 72.0038 37.6386C71.8838 38.0586 71.7538 38.4786 71.6238 38.8986C71.6238 38.8986 71.6238 38.8986 71.6238 38.9086C71.6238 38.9086 71.6238 38.9086 71.6238 38.9186C71.6238 38.9186 71.6238 38.9186 71.6238 38.9286C71.6238 38.9286 71.6238 38.9286 71.6238 38.9386C71.5438 39.1586 71.3338 39.3386 71.1138 39.3986L71.0238 39.4186C70.9538 39.4286 70.8938 39.4186 70.8438 39.3986C70.7938 39.3786 70.7538 39.3486 70.7238 39.3086C70.6938 39.2686 70.6838 39.2186 70.6738 39.1686C70.6738 39.1086 70.6738 39.0486 70.6938 38.9886V38.9786V38.9686V38.9586V38.9486C70.8238 38.5486 70.9438 38.1486 71.0538 37.7486C71.1638 37.3486 71.2738 36.9486 71.3638 36.5486C71.4538 36.1486 71.5438 35.7486 71.6238 35.3586C71.7038 34.9586 71.7738 34.5686 71.8338 34.1786C71.8338 34.1486 71.8438 34.1186 71.8438 34.0986C71.8438 34.0686 71.8538 34.0386 71.8538 34.0186C71.8538 33.9886 71.8638 33.9686 71.8638 33.9386C71.8638 33.9086 71.8738 33.8886 71.8738 33.8586C71.8938 33.7486 71.9038 33.6286 71.9238 33.5186C71.9338 33.4186 71.9538 33.2986 72.0038 33.2086C72.0338 33.1486 72.0738 33.0886 72.1238 33.0386C72.1738 32.9886 72.2238 32.9386 72.2838 32.9086C72.3438 32.8686 72.4038 32.8386 72.4738 32.8286C72.5438 32.8086 72.6038 32.8086 72.6638 32.8086C72.7238 32.8186 72.7638 32.8286 72.8038 32.8586C72.8438 32.8886 72.8738 32.9186 72.8938 32.9686C72.9038 32.8786 72.9138 32.9286 72.9138 32.9886Z" fill="#FEFEFE"/>
<path d="M38.7032 68.7588C38.7732 68.7388 38.8332 68.7388 38.8832 68.7488C38.9432 68.7588 38.9932 68.7788 39.0332 68.8088C39.0732 68.8388 39.1032 68.8788 39.1232 68.9288C39.1432 68.9788 39.1532 69.0388 39.1432 69.0988C39.1032 69.3688 38.8632 69.6188 38.6132 69.6888L38.5732 69.6988C38.2432 69.7788 37.9032 69.8688 37.5732 69.9388C37.2632 70.0088 36.9532 70.0788 36.6432 70.1388C36.3332 70.1988 36.0231 70.2588 35.7132 70.3088C35.4032 70.3588 35.0932 70.4088 34.7832 70.4488H34.7732H34.7632H34.7532H34.7432C34.7232 70.4488 34.6932 70.4588 34.6732 70.4588C34.6532 70.4588 34.6231 70.4688 34.6031 70.4688C34.5831 70.4688 34.5532 70.4788 34.5332 70.4788C34.5132 70.4788 34.4832 70.4888 34.4632 70.4888C34.4532 70.4888 34.4332 70.4888 34.4232 70.4888C34.4132 70.4888 34.3932 70.4888 34.3832 70.4888C34.3732 70.4888 34.3532 70.4888 34.3432 70.4888C34.3332 70.4888 34.3132 70.4888 34.3032 70.4888C34.2932 70.4888 34.2732 70.4888 34.2632 70.4888C34.2532 70.4888 34.2432 70.4888 34.2232 70.4888C34.2132 70.4888 34.1932 70.4888 34.1832 70.4888C34.1732 70.4888 34.1632 70.4888 34.1432 70.4888C34.1232 70.4888 34.0932 70.4988 34.0732 70.4988C34.0532 70.4988 34.0232 70.5088 34.0032 70.5088C33.9832 70.5088 33.9532 70.5188 33.9332 70.5188C33.9132 70.5188 33.8832 70.5288 33.8632 70.5288C33.7732 70.5388 33.6832 70.5488 33.5932 70.5588C33.5032 70.5688 33.4132 70.5788 33.3232 70.5788C33.2332 70.5888 33.1532 70.5888 33.0632 70.5988C32.9732 70.6088 32.8932 70.6088 32.8032 70.6188C32.7432 70.6188 32.6832 70.6088 32.6432 70.5888C32.5932 70.5688 32.5632 70.5388 32.5332 70.4888C32.5032 70.4488 32.4932 70.3988 32.4932 70.3388C32.4932 70.2788 32.5032 70.2188 32.5232 70.1588C32.5432 70.0988 32.5731 70.0488 32.6031 69.9888C32.6331 69.9388 32.6832 69.8888 32.7232 69.8388C32.7732 69.7988 32.8232 69.7588 32.8732 69.7288C32.9232 69.6988 32.9832 69.6788 33.0332 69.6588C33.0332 69.6588 33.0332 69.6588 33.0432 69.6588H33.0532C33.0532 69.6588 33.0532 69.6588 33.0632 69.6588H33.0732H33.0832H33.0932H33.1031H33.1132C33.5332 69.6288 33.9632 69.5888 34.3932 69.5388C34.8232 69.4888 35.2532 69.4288 35.6932 69.3588C36.1332 69.2888 36.5732 69.2088 37.0132 69.1188C37.4532 69.0288 37.8932 68.9288 38.3432 68.8288C38.3732 68.8188 38.4032 68.8188 38.4332 68.8088C38.4632 68.7988 38.4932 68.7888 38.5232 68.7888C38.5532 68.7788 38.5832 68.7688 38.6132 68.7688C38.6432 68.7788 38.6732 68.7688 38.7032 68.7588Z" fill="#FEFEFE"/>
<path d="M67.1831 46.5889C67.1531 46.6489 67.1231 46.6989 67.0931 46.7489C67.0631 46.7989 67.0331 46.8489 67.0031 46.8989C66.9731 46.9489 66.9431 46.9889 66.9231 47.0389C66.8931 47.0889 66.8731 47.1289 66.8431 47.1689C65.7231 49.0089 64.4531 50.7989 63.0531 52.5189C61.6531 54.2389 60.1231 55.8789 58.4931 57.4189C56.8631 58.9589 55.1231 60.3989 53.3131 61.7189C51.5031 63.0289 49.6131 64.2189 47.6631 65.2489C47.6231 65.2689 47.5831 65.2889 47.5531 65.3089C47.5131 65.3289 47.4831 65.3489 47.4531 65.3589C47.4231 65.3789 47.3931 65.3889 47.3631 65.4089C47.3331 65.4189 47.3131 65.4389 47.2831 65.4489C47.2431 65.4689 47.2031 65.4889 47.1731 65.5089C47.1331 65.5289 47.1031 65.5489 47.0631 65.5689C47.0231 65.5889 46.9931 65.6089 46.9531 65.6289C46.9131 65.6489 46.8731 65.6689 46.8431 65.6889C46.8231 65.6989 46.8031 65.7089 46.7831 65.7189C46.7631 65.7289 46.7431 65.7389 46.7231 65.7489C46.7031 65.7589 46.6831 65.7689 46.6631 65.7789C46.6431 65.7889 46.6231 65.7989 46.6031 65.8089C46.5631 65.8289 46.5231 65.8489 46.4931 65.8689C46.4531 65.8889 46.4231 65.9089 46.3831 65.9189C46.3431 65.9389 46.3131 65.9589 46.2731 65.9689C46.2331 65.9889 46.1931 66.0089 46.1631 66.0189C45.5531 66.3089 44.9531 66.5889 44.3331 66.8489C43.7231 67.1089 43.1031 67.3589 42.4831 67.5889C41.8631 67.8189 41.2431 68.0289 40.6131 68.2289C39.9931 68.4289 39.3631 68.5989 38.7331 68.7589C38.7031 68.7689 38.6731 68.7789 38.6431 68.7789C38.6131 68.7889 38.5831 68.7989 38.5531 68.7989C38.5231 68.8089 38.4931 68.8189 38.4631 68.8189C38.4331 68.8289 38.4031 68.8289 38.3731 68.8389C37.9331 68.9489 37.4831 69.0489 37.0431 69.1289C36.6031 69.2189 36.1631 69.2989 35.7231 69.3689C35.2831 69.4389 34.8531 69.4989 34.4231 69.5489C33.9931 69.5989 33.5631 69.6389 33.1431 69.6689C29.8931 69.8789 26.9431 69.4989 24.3931 68.5989C21.8531 67.6989 19.6931 66.2789 18.0031 64.4289C16.3231 62.5889 15.1231 60.3089 14.4631 57.6789C13.8131 55.0589 13.7031 52.0789 14.2231 48.8189C14.2231 48.7889 14.2331 48.7589 14.2331 48.7289C14.2331 48.6989 14.2431 48.6689 14.2431 48.6389C14.2431 48.6089 14.2531 48.5789 14.2531 48.5489C14.2531 48.5189 14.2631 48.4889 14.2631 48.4589C14.7831 45.4589 15.8031 42.4389 17.2031 39.5189C18.6131 36.5989 20.4131 33.7589 22.5231 31.0889C24.6331 28.4289 27.0431 25.9389 29.6731 23.7089C32.3031 21.4789 35.1631 19.5189 38.1531 17.9189C38.3131 17.8289 38.4731 17.7489 38.6431 17.6589C38.8031 17.5789 38.9631 17.4889 39.1331 17.4089C39.2931 17.3289 39.4631 17.2489 39.6231 17.1689C39.7831 17.0889 39.9531 17.0089 40.1131 16.9289C40.1631 16.8989 40.2231 16.8789 40.2631 16.8589C40.3131 16.8389 40.3531 16.8189 40.3931 16.7989C40.4331 16.7789 40.4731 16.7589 40.5031 16.7489C40.5431 16.7289 40.5731 16.7189 40.6131 16.6989C41.0931 16.4789 41.5831 16.2689 42.0731 16.0589C42.5631 15.8589 43.0531 15.6589 43.5431 15.4789C44.0331 15.2989 44.5331 15.1289 45.0331 14.9589C45.5331 14.7989 46.0331 14.6489 46.5331 14.5089C46.5631 14.4989 46.5931 14.4889 46.6231 14.4889C46.6531 14.4789 46.6831 14.4689 46.7131 14.4689C46.7431 14.4589 46.7731 14.4489 46.8031 14.4489C46.8331 14.4389 46.8631 14.4289 46.8931 14.4289C50.0031 13.5989 52.9431 13.2689 55.6331 13.3789C58.3331 13.4889 60.7931 14.0489 62.9331 14.9989C65.0831 15.9589 66.9231 17.3289 68.3831 19.0489C69.8431 20.7789 70.9231 22.8689 71.5431 25.2689C71.6031 25.4989 71.6531 25.7289 71.7031 25.9589C71.7531 26.1889 71.7931 26.4289 71.8431 26.6689C71.8831 26.9089 71.9231 27.1489 71.9531 27.3889C71.9831 27.6289 72.0131 27.8789 72.0431 28.1189C72.0831 28.5389 72.1131 28.9689 72.1331 29.3889C72.1531 29.8189 72.1531 30.2489 72.1531 30.6889C72.1431 31.1289 72.1231 31.5689 72.0931 32.0189C72.0631 32.4689 72.0131 32.9189 71.9531 33.3889C71.9531 33.4189 71.9431 33.4489 71.9431 33.4789C71.9431 33.5089 71.9331 33.5389 71.9331 33.5689C71.9331 33.5989 71.9231 33.6289 71.9231 33.6589C71.9231 33.6889 71.9131 33.7189 71.9131 33.7489C71.9131 33.7789 71.9031 33.7989 71.9031 33.8289C71.9031 33.8589 71.8931 33.8789 71.8931 33.9089C71.8931 33.9389 71.8831 33.9589 71.8831 33.9889C71.8831 34.0189 71.8731 34.0389 71.8731 34.0689C71.8131 34.4589 71.7431 34.8589 71.6631 35.2489C71.5831 35.6489 71.4931 36.0389 71.4031 36.4389C71.3131 36.8389 71.2031 37.2389 71.0931 37.6389C70.9831 38.0389 70.8631 38.4389 70.7331 38.8389C70.5831 39.3089 70.4231 39.7789 70.2431 40.2489C70.0731 40.7189 69.8831 41.1889 69.6931 41.6489C69.5031 42.1189 69.2931 42.5789 69.0731 43.0489C68.8531 43.5089 68.6331 43.9789 68.3931 44.4389C68.2931 44.6289 68.1931 44.8189 68.1031 44.9989C68.0031 45.1789 67.9131 45.3589 67.8131 45.5389C67.7131 45.7189 67.6131 45.8889 67.5231 46.0689C67.3831 46.2389 67.2831 46.4089 67.1831 46.5889C67.1431 46.6389 67.2831 46.4089 67.1831 46.5889Z" fill="#ED0E1C"/>
<path d="M53.1631 62.7686C52.6531 63.1286 52.143 63.4785 51.623 63.8185L53.1631 62.7686Z" fill="#6D1627"/>
<path d="M61.0734 54.9692C61.1034 54.9592 61.1334 54.9592 61.1634 54.9492C61.1934 54.9492 61.2234 54.9492 61.2534 54.9492C61.2834 54.9492 61.3034 54.9592 61.3334 54.9692C61.3534 54.9792 61.3834 54.9892 61.4034 55.0092C61.4434 55.0392 61.4634 55.0692 61.4834 55.1092C61.5034 55.1492 61.5134 55.1992 61.5134 55.2492C61.5134 55.2992 61.5034 55.3492 61.4834 55.3992C61.4634 55.4492 61.4434 55.5092 61.4034 55.5592C61.3934 55.5692 61.3934 55.5792 61.3834 55.5892C61.3734 55.5992 61.3734 55.6092 61.3634 55.6192C61.3534 55.6292 61.3534 55.6392 61.3434 55.6492C61.3334 55.6592 61.3234 55.6692 61.3134 55.6792C59.7134 57.3792 58.0034 58.9792 56.2034 60.4692L56.1434 60.4992L55.9134 60.6092L55.5334 60.5092C55.5034 60.4692 55.4934 60.4092 55.4834 60.3592C55.4834 60.2992 55.4934 60.2392 55.5134 60.1792C55.5334 60.1192 55.5634 60.0592 55.6034 59.9992C55.6434 59.9392 55.6934 59.8792 55.7634 59.8292C56.2034 59.4692 56.6334 59.1092 57.0534 58.7392C57.4734 58.3692 57.8934 57.9892 58.3134 57.5992C58.7234 57.2092 59.1334 56.8192 59.5334 56.4192C59.9334 56.0192 60.3234 55.6092 60.7134 55.1992C60.7434 55.1692 60.7734 55.1392 60.8034 55.1192C60.8334 55.0992 60.8634 55.0692 60.8934 55.0592C60.9234 55.0392 60.9534 55.0192 60.9834 55.0092C61.0034 54.9892 61.0434 54.9792 61.0734 54.9692Z" fill="#FEFEFE"/>
<path d="M40.8636 15.7785C40.8536 15.7785 40.8436 15.7785 40.8436 15.7885C40.8336 15.7885 40.8236 15.7985 40.8236 15.7985C40.8136 15.7985 40.8036 15.8085 40.8036 15.8085C40.7936 15.8085 40.7836 15.8185 40.7736 15.8185C39.4636 16.4085 38.1836 17.0685 36.9336 17.7785C39.9636 16.0485 43.1936 14.6385 46.5636 13.6885C46.4936 13.7085 46.4336 13.7385 46.3836 13.7785C46.3336 13.8185 46.2836 13.8585 46.2436 13.9085C46.2036 13.9585 46.1736 14.0085 46.1436 14.0685C46.1136 14.1285 46.1036 14.1785 46.0936 14.2385C46.0536 14.4985 46.3336 14.5885 46.5336 14.5385C44.5036 15.1085 42.5336 15.8485 40.6136 16.7185C40.6336 16.7085 40.6536 16.6985 40.6636 16.6885C40.6836 16.6785 40.7036 16.6685 40.7136 16.6585C40.7336 16.6485 40.7536 16.6385 40.7636 16.6285C40.7836 16.6185 40.8036 16.6085 40.8136 16.5985C40.8836 16.5685 40.9436 16.5285 40.9936 16.4885C41.0536 16.4385 41.0936 16.3885 41.1436 16.3285C41.1836 16.2685 41.2136 16.2085 41.2336 16.1585C41.2536 16.0985 41.2636 16.0385 41.2636 15.9885C41.2636 15.9385 41.2436 15.8985 41.2236 15.8685C41.2036 15.8385 41.1736 15.8085 41.1336 15.7885C41.0936 15.7685 41.0536 15.7585 41.0036 15.7585C40.9736 15.7585 40.9236 15.7685 40.8636 15.7785Z" fill="#A2000C"/>
<path d="M15.1634 43.0985C15.1134 43.1085 15.0734 43.1285 15.0234 43.1585C14.9834 43.1785 14.9334 43.2085 14.8934 43.2485C14.8534 43.2785 14.8134 43.3185 14.7834 43.3685C14.7534 43.4085 14.7234 43.4585 14.6934 43.4985C15.3434 41.6285 16.1534 39.8185 17.0734 38.0685C17.0134 38.2385 17.0734 38.4485 17.2734 38.4785L17.4534 38.4585C17.6534 38.4085 17.8234 38.2585 17.9134 38.0785C18.8934 36.2385 20.0034 34.4685 21.2234 32.7885C21.3334 32.6385 21.4434 32.3185 21.2034 32.2185C21.1234 32.1885 21.0334 32.1885 20.9534 32.2185C20.9234 32.2285 20.8934 32.2385 20.8734 32.2485C20.8434 32.2585 20.8134 32.2785 20.7934 32.2885C20.7634 32.3085 20.7434 32.3185 20.7134 32.3385C20.6834 32.3585 20.6634 32.3785 20.6434 32.3985C21.8934 30.6885 23.2434 29.0585 24.6934 27.5085C24.6034 27.6385 24.5234 27.8885 24.6934 28.0085L25.0034 28.0385L25.3534 27.8185C26.8334 26.2385 28.4334 24.7585 30.1034 23.3785C30.2534 23.2485 30.4734 22.9485 30.3134 22.7385C30.2934 22.7085 30.2734 22.6885 30.2434 22.6785C30.2134 22.6585 30.1934 22.6485 30.1634 22.6485C30.1334 22.6385 30.1034 22.6385 30.0634 22.6385C30.0334 22.6385 29.9934 22.6485 29.9534 22.6585C29.9434 22.6585 29.9234 22.6685 29.9134 22.6685C29.9034 22.6785 29.8834 22.6785 29.8734 22.6885C29.8634 22.6985 29.8434 22.6985 29.8334 22.7085C29.8234 22.7185 29.8034 22.7285 29.7934 22.7285C31.4634 21.3485 33.2134 20.0785 35.0434 18.9185C34.8734 19.0385 34.6734 19.2885 34.7534 19.5185C34.8034 19.6885 35.0034 19.7185 35.1434 19.6785L35.3134 19.5885C36.2434 19.0085 37.1934 18.4585 38.1634 17.9385C26.7934 24.0385 16.5334 35.4485 14.2734 48.4585C14.5634 46.7785 14.9934 45.1185 15.5634 43.5085C15.5834 43.4485 15.5934 43.3885 15.5934 43.3385C15.5934 43.2885 15.5734 43.2385 15.5534 43.2085C15.5234 43.1685 15.4934 43.1385 15.4434 43.1285C15.4034 43.1085 15.3434 43.1085 15.2834 43.1085C15.2334 43.0885 15.1934 43.0885 15.1634 43.0985Z" fill="#6D1627"/>
<path d="M71.5232 25.2683C70.3132 20.5483 67.0532 16.7283 62.5532 14.8383C57.8232 12.8483 52.4332 13.0483 47.5332 14.2683C48.9832 13.9083 50.4532 13.6383 51.9432 13.4883L52.0232 13.4683C52.2432 13.4083 52.4632 13.2183 52.5332 12.9983C52.6032 12.7883 52.5032 12.5783 52.2632 12.5883C54.0232 12.4083 55.8132 12.3883 57.5732 12.5783C57.5132 12.5683 57.4632 12.5783 57.4132 12.5983C57.3632 12.6083 57.3232 12.6283 57.2732 12.6583C57.2232 12.6783 57.1832 12.7083 57.1432 12.7483C57.1032 12.7783 57.0632 12.8183 57.0232 12.8583C56.9832 12.8983 56.9532 12.9483 56.9332 12.9883C56.9032 13.0483 56.8832 13.1083 56.8732 13.1683C56.8632 13.2283 56.8732 13.2783 56.8832 13.3183C56.9032 13.3583 56.9232 13.3983 56.9632 13.4283C57.0032 13.4583 57.0432 13.4783 57.1032 13.4783C57.5132 13.5183 57.9132 13.5783 58.3132 13.6483C58.7132 13.7183 59.1032 13.7883 59.4932 13.8783C59.8832 13.9683 60.2632 14.0683 60.6432 14.1783C61.0232 14.2883 61.3932 14.4083 61.7532 14.5383L62.0032 14.5283L62.4232 14.2283C62.5332 14.0783 62.6232 13.8283 62.4332 13.6883C63.8332 14.1983 65.1732 14.8883 66.3932 15.7583C66.3132 15.7383 66.2332 15.7483 66.1632 15.7683C66.1332 15.7783 66.1032 15.7883 66.0732 15.7983C66.0432 15.8083 66.0132 15.8283 65.9832 15.8483C65.9532 15.8683 65.9232 15.8883 65.8932 15.9183C65.8632 15.9383 65.8332 15.9683 65.8032 15.9983C65.6632 16.1383 65.5032 16.4583 65.7232 16.6183C66.0232 16.8283 66.3132 17.0583 66.5932 17.2883C66.8732 17.5183 67.1432 17.7683 67.4032 18.0183C67.6632 18.2683 67.9132 18.5383 68.1532 18.8083C68.3932 19.0783 68.6232 19.3683 68.8432 19.6583L69.2232 19.7383L69.5132 19.5783C69.6632 19.4483 69.8132 19.2283 69.7632 19.0183C70.6532 20.1983 71.3632 21.5083 71.8832 22.8783C71.7932 22.7683 71.6332 22.7583 71.5032 22.7983C71.4832 22.7983 71.4732 22.8083 71.4532 22.8183C71.4332 22.8283 71.4232 22.8283 71.4032 22.8383C71.3832 22.8483 71.3732 22.8583 71.3532 22.8583C71.3332 22.8583 71.3232 22.8783 71.3032 22.8883C71.1132 23.0083 70.8832 23.2883 70.9832 23.5283C71.0332 23.6683 71.0832 23.8083 71.1332 23.9583C71.1832 24.0983 71.2332 24.2483 71.2732 24.3983C71.3132 24.5483 71.3632 24.6883 71.4032 24.8383C71.4432 24.9683 71.4832 25.1183 71.5232 25.2683C70.9132 22.9083 71.4832 25.1183 71.5232 25.2683Z" fill="#6D1627"/>
<path d="M73.0038 27.7783C73.1738 29.5083 73.1238 31.2583 72.9138 32.9883C72.9138 32.9283 72.9138 32.8783 72.8938 32.8383C72.8738 32.7983 72.8438 32.7583 72.8038 32.7283C72.7638 32.6983 72.7138 32.6883 72.6638 32.6783C72.6038 32.6683 72.5438 32.6783 72.4738 32.6983C72.2238 32.7683 71.9738 32.9983 71.9438 33.2683L71.9238 33.3983C72.1438 31.6683 72.1938 29.9183 72.0338 28.1783C72.0938 28.3583 72.2938 28.3983 72.4538 28.3583L72.5638 28.3283C72.7638 28.2283 72.9738 28.0183 73.0038 27.7783C73.0438 28.1883 72.9938 27.8283 73.0038 27.7783Z" fill="#A2000C"/>
<path d="M71.0838 39.2989C71.3038 39.2389 71.5238 39.0589 71.5938 38.8389C70.9637 40.7889 70.1538 42.6889 69.2238 44.5189C69.2438 44.4589 69.2438 44.4089 69.2438 44.3589C69.2438 44.3089 69.2337 44.2689 69.2137 44.2289C69.1937 44.1889 69.1638 44.1589 69.1338 44.1289C69.0938 44.1089 69.0538 44.0889 69.0038 44.0789C68.9938 44.0789 68.9737 44.0789 68.9637 44.0789C68.9437 44.0789 68.9338 44.0789 68.9138 44.0789C68.8938 44.0789 68.8838 44.0789 68.8638 44.0889C68.8438 44.0889 68.8338 44.0989 68.8138 44.0989C68.6238 44.1489 68.4537 44.2789 68.3438 44.4389C69.2638 42.6389 70.0538 40.7689 70.6738 38.8389V38.8489V38.8589V38.8689V38.8789C70.5938 39.1189 70.7238 39.3389 70.9938 39.3189L71.0838 39.2989Z" fill="#A2000C"/>
<path d="M51.6233 63.8185C51.1033 64.1585 50.5833 64.4885 50.0533 64.8085C50.2233 64.7085 50.3833 64.6085 50.5533 64.5085C50.6233 64.4685 50.6733 64.4185 50.7233 64.3685C50.7733 64.3185 50.8133 64.2585 50.8433 64.1985C50.8733 64.1385 50.8933 64.0785 50.9033 64.0185C50.9133 63.9585 50.9033 63.8985 50.8933 63.8485C50.8833 63.8085 50.8533 63.7785 50.8333 63.7485C50.8033 63.7185 50.7733 63.6985 50.7433 63.6885C50.7033 63.6785 50.6633 63.6685 50.6233 63.6685C50.5833 63.6685 50.5333 63.6685 50.4833 63.6885C50.4633 63.6885 50.4533 63.6985 50.4333 63.6985C50.4133 63.7085 50.4033 63.7085 50.3833 63.7185C50.3633 63.7285 50.3533 63.7285 50.3333 63.7385C50.3133 63.7485 50.3033 63.7585 50.2833 63.7685C50.0633 63.8985 49.8433 64.0285 49.6333 64.1585C49.4133 64.2885 49.1933 64.4185 48.9733 64.5385C48.7533 64.6685 48.5333 64.7885 48.3133 64.9085C48.0933 65.0285 47.8733 65.1485 47.6533 65.2685C55.4533 61.1185 62.2333 54.7485 66.8233 47.1885C66.2333 48.1685 65.6033 49.1185 64.9433 50.0485C64.8133 50.2185 64.7333 50.5485 65.0033 50.6385L65.2533 50.6485L65.6533 50.3685C64.3433 52.1985 62.9133 53.9485 61.3733 55.5885C61.4733 55.4385 61.5433 55.1685 61.3733 55.0385C61.3533 55.0185 61.3333 55.0085 61.3033 54.9985C61.2733 54.9885 61.2533 54.9785 61.2233 54.9785C61.1933 54.9785 61.1633 54.9785 61.1333 54.9785C61.1033 54.9785 61.0733 54.9885 61.0433 54.9985C61.0133 55.0085 60.9833 55.0185 60.9533 55.0285C60.9233 55.0385 60.8933 55.0585 60.8633 55.0785C60.8333 55.0985 60.8033 55.1185 60.7733 55.1385C60.7433 55.1585 60.7133 55.1885 60.6833 55.2185C60.2933 55.6285 59.9033 56.0385 59.5033 56.4385C59.1033 56.8385 58.6933 57.2285 58.2833 57.6185C57.8733 58.0085 57.4533 58.3885 57.0233 58.7585C56.6033 59.1285 56.1733 59.4985 55.7333 59.8485C55.6733 59.8985 55.6133 59.9585 55.5733 60.0185C55.5333 60.0785 55.5033 60.1385 55.4833 60.1985C55.4633 60.2585 55.4533 60.3185 55.4533 60.3785C55.4533 60.4385 55.4733 60.4885 55.5033 60.5285L55.8833 60.6285L56.1133 60.5185C55.1533 61.3085 54.1533 62.0685 53.1333 62.7885" fill="#6D1627"/>
<path opacity="0.7" d="M4.42349 73.8787C5.75349 75.7687 7.38348 77.4187 9.21348 78.7987L77.7735 5.29874C77.4335 5.03874 77.0835 4.76874 76.7335 4.52874C76.4935 4.35874 76.2435 4.19874 75.9935 4.03874C75.7035 3.85874 75.4135 3.68874 75.1135 3.51874C74.8935 3.38874 74.6835 3.24874 74.4535 3.12874C68.5935 0.0487382 61.7335 -0.501262 55.2635 0.378738C54.4835 3.51874 53.7635 6.66874 53.1035 9.82874L53.0435 10.1187C50.9935 10.3287 48.9735 10.7387 46.9835 11.2887C46.4635 11.4387 45.9335 11.5887 45.4135 11.7587C44.8935 11.9287 44.3735 12.1087 43.8635 12.2887C43.3535 12.4787 42.8335 12.6787 42.3235 12.8787C41.8135 13.0887 41.3035 13.3087 40.8035 13.5287L40.8235 13.2587C41.0535 10.2887 41.2335 7.30874 41.3235 4.32874C37.0835 6.13874 33.0435 8.41874 29.2535 11.0487C16.6435 19.7787 5.66348 32.8987 1.57348 47.9287C1.77348 47.1887 1.99349 46.4587 2.23349 45.7387C5.47348 45.1687 8.71348 44.5487 11.9335 43.8787L12.2235 43.8287C11.5535 45.7587 11.0135 47.7387 10.6835 49.7587C10.6035 50.2487 10.5335 50.7387 10.4835 51.2187C10.4335 51.6987 10.3935 52.1787 10.3635 52.6487C10.3335 53.1187 10.3235 53.5787 10.3235 54.0387C10.3235 54.4987 10.3335 54.9487 10.3535 55.3887L10.0435 55.4987C6.68348 56.5887 3.34348 57.7287 0.0134841 58.9187C0.00348412 58.0887 0.0334914 57.2487 0.0834914 56.4187C-0.146509 59.7987 0.0834811 63.2087 0.963481 66.4787C1.68348 69.1687 2.86349 71.6587 4.42349 73.8687C4.44349 73.8587 4.43349 73.8687 4.42349 73.8787Z" fill="url(#paint0_linear)"/>
<defs>
<linearGradient id="paint0_linear" x1="44.0585" y1="42.5089" x2="-2.87731" y2="5.05104" gradientUnits="userSpaceOnUse">
<stop stop-color="white"/>
<stop offset="0.0848" stop-color="#F6F6F6"/>
<stop offset="0.2247" stop-color="#DDDDDD"/>
<stop offset="0.4024" stop-color="#B4B4B4"/>
<stop offset="0.6108" stop-color="#7C7C7C"/>
<stop offset="0.8422" stop-color="#353535"/>
<stop offset="1"/>
</linearGradient>
</defs>
</svg>
