<svg width="47" height="45" viewBox="0 0 47 45" fill="none" xmlns="http://www.w3.org/2000/svg">
<path d="M4.74566 15.5229C3.9158 16.6279 3.0812 17.7375 2.25133 18.8424C1.75816 19.4968 1.26498 20.1559 0.771809 20.8104C0.676968 20.9336 0.492027 21.1044 0.439864 21.2514C0.392443 21.3889 0.496769 21.6118 0.534706 21.7588C0.648515 22.2187 0.77655 22.674 0.918812 23.1245C1.56373 25.1399 2.49792 27.0557 3.61705 28.8482C5.14874 31.2903 7.09299 33.595 9.33124 35.6388C11.5695 37.6874 14.0923 39.4657 16.7668 40.8646C19.4366 42.2587 22.2486 43.264 25.0796 43.7667C26.6208 41.922 28.162 40.0821 29.7032 38.2375C26.7773 37.6969 23.9558 36.6536 21.3239 35.2689C18.6257 33.851 16.0745 32.0491 13.8078 29.9815C11.5458 27.914 9.56835 25.5904 8.01295 23.134C6.46229 20.6823 5.33368 18.1026 4.74566 15.5229Z" fill="#961C2E"/>
<path d="M6.46284 4.68262C5.10661 6.5178 3.74564 8.35298 2.38941 10.1882C1.87726 10.8805 1.41728 11.6013 1.06163 12.3837C0.748648 13.0808 0.49732 13.8206 0.321863 14.6078C0.146407 15.3949 0.0373393 16.2248 0.00888686 17.0926C-0.0195656 17.9652 0.027855 18.8756 0.160633 19.824C1.54532 17.9746 2.93474 16.1252 4.31943 14.2758C4.4522 14.0956 4.46169 14.1099 4.4522 13.887C4.41427 13.0287 4.28149 12.1893 4.3052 11.3263C4.32891 10.4537 4.4285 9.62385 4.60395 8.83667C4.77467 8.04948 5.02125 7.30972 5.33423 6.61264C5.64246 5.92504 6.02183 5.28012 6.46284 4.68262Z" fill="#961C2E"/>
<path d="M30.1727 38.3184C28.6315 40.1583 27.0903 42.003 25.5492 43.8429C26.9765 44.0705 28.4229 44.1701 29.8692 44.099C31.2207 44.0326 32.4773 43.8192 33.6391 43.4778C34.7915 43.1364 35.8442 42.6622 36.7831 42.0694C37.7173 41.4814 38.5377 40.7748 39.23 39.9639C40.7854 38.1477 42.3456 36.3362 43.901 34.52C43.1991 35.3357 42.3693 36.0422 41.4541 36.616C40.5151 37.204 39.4624 37.6735 38.3053 38.0102C37.1435 38.3469 35.8774 38.5508 34.5212 38.6077C33.1554 38.6599 31.7044 38.5698 30.1727 38.3184Z" fill="#961C2E"/>
<path d="M26.3651 37.3887C24.8334 39.2381 23.3018 41.0922 21.7653 42.9416C22.0404 43.027 22.3154 43.1076 22.5904 43.1882C22.8655 43.2641 23.1405 43.34 23.4156 43.4064C23.6906 43.4775 23.9656 43.5391 24.2454 43.6008C24.5205 43.6624 24.7955 43.7146 25.0753 43.7667C25.0943 43.7715 25.1132 43.7715 25.1322 43.7762C25.1512 43.781 25.1701 43.781 25.1891 43.7857C25.2081 43.7905 25.227 43.7905 25.246 43.7952C25.265 43.8 25.2839 43.7999 25.3029 43.8047C25.3219 43.8094 25.3408 43.8094 25.3598 43.8142C25.3788 43.8189 25.3977 43.8189 25.4167 43.8237C25.4357 43.8284 25.4546 43.8284 25.4736 43.8331C25.4926 43.8379 25.5116 43.8379 25.5305 43.8426C25.8056 43.8853 26.0759 43.9232 26.3462 43.9564C26.6165 43.9896 26.882 44.0133 27.1476 44.037C27.4131 44.0608 27.6739 44.075 27.93 44.0892C28.1908 44.1034 28.4469 44.1082 28.6982 44.1129C30.2441 42.2777 31.7948 40.4426 33.3407 38.6121C33.0846 38.6074 32.8238 38.5979 32.5678 38.5837C32.3069 38.5694 32.0461 38.5505 31.7806 38.5268C31.515 38.5031 31.2447 38.4746 30.9744 38.4414C30.7041 38.4082 30.4291 38.3703 30.154 38.3229C30.1351 38.3181 30.1161 38.3181 30.0971 38.3134C30.0782 38.3086 30.0592 38.3086 30.0402 38.3039C30.0213 38.2991 30.0023 38.2992 29.9833 38.2944C29.9644 38.2897 29.9454 38.2897 29.9264 38.2849C29.9075 38.2802 29.8885 38.2802 29.8695 38.2754C29.8505 38.2707 29.8316 38.2707 29.8126 38.266C29.7936 38.2612 29.7747 38.2612 29.7557 38.2565C29.7367 38.2517 29.7178 38.247 29.6988 38.247C29.419 38.1948 29.144 38.1379 28.8642 38.0763C28.5844 38.0146 28.3094 37.9482 28.0296 37.8771C27.7498 37.806 27.4748 37.7301 27.195 37.6495C26.92 37.5594 26.6449 37.474 26.3651 37.3887Z" fill="#9A95A0"/>
<path d="M4.30483 11.7866C3.55084 12.7967 2.79685 13.8067 2.04287 14.8168C1.54969 15.476 1.05652 16.1398 0.56334 16.799C0.416336 16.9934 0.245622 17.1878 0.117586 17.3965C-0.0294178 17.6383 -0.000965149 17.7853 0.00851899 18.1031C0.0132611 18.288 0.022744 18.4777 0.0369702 18.6674C0.0511965 18.857 0.0654237 19.0467 0.084392 19.2412C0.10336 19.4356 0.12707 19.63 0.155522 19.8244V19.8292V19.8339V19.8387V19.8434C0.155522 19.8576 0.160265 19.8671 0.160265 19.8813C0.160265 19.8956 0.165006 19.905 0.165006 19.9193C0.165006 19.9335 0.169749 19.943 0.169749 19.9572C0.169749 19.9714 0.174491 19.9809 0.174491 19.9951C0.174491 20.0046 0.174492 20.0094 0.179234 20.0189C0.179234 20.0283 0.179233 20.0331 0.183975 20.0426C0.183975 20.052 0.183974 20.0568 0.188716 20.0663C0.188716 20.0758 0.188717 20.0805 0.193459 20.09C0.193459 20.0995 0.198201 20.109 0.198201 20.1184C0.198201 20.1279 0.202944 20.1374 0.202944 20.1469C0.202944 20.1564 0.207685 20.1659 0.207685 20.1753C0.207685 20.1848 0.212428 20.1943 0.212428 20.2038C0.212428 20.2133 0.217169 20.2275 0.217169 20.237C0.217169 20.2465 0.221911 20.2607 0.221911 20.2702C0.221911 20.2797 0.226654 20.2939 0.226654 20.3034C0.226654 20.3129 0.231395 20.3271 0.231395 20.3366C0.231395 20.3413 0.231396 20.3508 0.236138 20.3555C0.236138 20.3603 0.236137 20.3698 0.240879 20.3745C0.240879 20.3792 0.24088 20.3887 0.245622 20.3935C0.245622 20.3982 0.245622 20.4077 0.250364 20.4124C0.255106 20.4314 0.255106 20.4504 0.259848 20.4693C0.26459 20.4883 0.26459 20.5073 0.269332 20.5263C0.274074 20.5452 0.274075 20.5642 0.278817 20.5832C0.283559 20.6021 0.283559 20.6211 0.288301 20.6401C0.293043 20.659 0.293043 20.678 0.297786 20.697C0.302528 20.7159 0.307268 20.7349 0.307268 20.7539C0.31201 20.7728 0.316752 20.7918 0.316752 20.8108C0.321494 20.8297 0.326237 20.8487 0.326237 20.8677C0.326237 20.8772 0.33098 20.8819 0.33098 20.8914C0.33098 20.9009 0.335721 20.9056 0.335721 20.9151C0.335721 20.9246 0.340462 20.9293 0.340462 20.9388C0.340462 20.9483 0.345205 20.953 0.345205 20.9625C0.345205 20.972 0.349947 20.9815 0.349947 20.991C0.349947 21.0005 0.35469 21.0099 0.35469 21.0194C0.35469 21.0289 0.359431 21.0384 0.359431 21.0479C0.359431 21.0574 0.364174 21.0668 0.364174 21.0763C0.364174 21.0858 0.368916 21.1 0.373659 21.1095C0.378401 21.119 0.378399 21.1332 0.383141 21.1427C0.387883 21.1522 0.387883 21.1664 0.392625 21.1759C0.392625 21.1854 0.397368 21.1996 0.40211 21.2091C0.40211 21.2139 0.402111 21.2186 0.406853 21.2233C0.406853 21.2281 0.406852 21.2328 0.411594 21.2376C0.411594 21.2423 0.411595 21.2471 0.416337 21.2518C0.416337 21.2565 0.416336 21.2613 0.421079 21.266C0.468499 21.4842 0.520661 21.6975 0.577566 21.9157C0.634471 22.1338 0.691376 22.3472 0.757765 22.5653C0.819412 22.7835 0.885802 22.9969 0.956933 23.2103C1.02806 23.4237 1.10394 23.6418 1.17981 23.8552C1.94328 22.8499 2.70201 21.8445 3.46549 20.8392C3.95866 20.1848 4.45658 19.5304 4.94975 18.8808C5.09676 18.6863 5.2817 18.4919 5.40499 18.2833C5.43344 18.2358 5.49984 18.1884 5.51406 18.1363C5.55674 17.9892 5.35283 17.6241 5.30067 17.4676C5.22954 17.2495 5.15841 17.0361 5.09202 16.818C5.02563 16.5998 4.96398 16.3864 4.90708 16.1683C4.85017 15.9502 4.79801 15.732 4.74585 15.5186C4.74585 15.5139 4.74584 15.5091 4.7411 15.5044C4.7411 15.4997 4.7411 15.4949 4.73636 15.4902C4.73636 15.4854 4.73636 15.4807 4.73162 15.476C4.73162 15.4712 4.73162 15.4665 4.72688 15.4617C4.72213 15.4475 4.72214 15.438 4.71739 15.4285C4.71265 15.419 4.71265 15.4048 4.70791 15.3953C4.70317 15.3859 4.70317 15.3716 4.69843 15.3621C4.69368 15.3479 4.69368 15.3384 4.68894 15.3289C4.68894 15.3195 4.6842 15.31 4.6842 15.3005C4.6842 15.291 4.67946 15.2815 4.67946 15.272C4.67946 15.2626 4.67471 15.2531 4.67471 15.2436C4.67471 15.2341 4.66997 15.2246 4.66997 15.2151C4.66997 15.2057 4.66523 15.2009 4.66523 15.1914C4.66523 15.1819 4.66049 15.1772 4.66049 15.1677C4.66049 15.1582 4.65574 15.1535 4.65574 15.144C4.65574 15.1345 4.65101 15.1298 4.65101 15.1203C4.64626 15.1013 4.64152 15.0824 4.64152 15.0634C4.63678 15.0444 4.63204 15.0255 4.63204 15.0065C4.62729 14.9875 4.62255 14.9685 4.62255 14.9496C4.61781 14.9306 4.61307 14.9116 4.61307 14.8927C4.60833 14.8737 4.60359 14.8547 4.60359 14.8358C4.59884 14.8168 4.59884 14.7978 4.5941 14.7789C4.58936 14.7599 4.58462 14.7409 4.58462 14.722C4.57987 14.703 4.57987 14.684 4.57513 14.6651C4.57513 14.6603 4.57513 14.6508 4.57039 14.6461C4.57039 14.6413 4.56565 14.6319 4.56565 14.6271C4.56565 14.6224 4.56565 14.6129 4.5609 14.6082C4.5609 14.6034 4.5609 14.5939 4.55616 14.5892C4.55616 14.5797 4.55142 14.5655 4.55142 14.556C4.55142 14.5465 4.54668 14.5323 4.54668 14.5228C4.54668 14.5133 4.54194 14.4991 4.54194 14.4896C4.54194 14.4801 4.53719 14.4659 4.53719 14.4564C4.53719 14.4469 4.53245 14.4374 4.53245 14.428C4.53245 14.4185 4.52771 14.409 4.52771 14.3995C4.52771 14.39 4.52297 14.3805 4.52297 14.371C4.52297 14.3616 4.51823 14.3521 4.51823 14.3426C4.51823 14.3331 4.51348 14.3284 4.51348 14.3189C4.51348 14.3094 4.50874 14.3047 4.50874 14.2952C4.50874 14.2857 4.50874 14.281 4.504 14.2715C4.504 14.262 4.504 14.2572 4.49926 14.2478C4.49926 14.2335 4.49452 14.224 4.49452 14.2098C4.49452 14.1956 4.48977 14.1861 4.48977 14.1719C4.48977 14.1577 4.48503 14.1482 4.48503 14.1339C4.48503 14.1197 4.48029 14.1102 4.48029 14.096V14.0913V14.0865V14.0818V14.077C4.45184 13.8779 4.42813 13.6834 4.40442 13.489C4.38545 13.2946 4.36648 13.1049 4.35225 12.9152C4.33803 12.7256 4.32854 12.5359 4.31906 12.3509C4.30957 12.1518 4.30483 11.9668 4.30483 11.7866Z" fill="#9A95A0"/>
<path d="M10.8067 26.8901C9.4125 28.6779 8.01359 30.4657 6.61942 32.2534C6.572 32.3151 6.37757 32.4858 6.37757 32.5664C6.37283 32.6944 6.77117 33.0311 6.86601 33.1354C7.14579 33.4484 7.43032 33.7519 7.71958 34.0507C8.1843 34.5343 8.66325 35.0038 9.16117 35.4638C9.65434 35.9238 10.1665 36.3648 10.6881 36.7963C11.2097 37.2278 11.7456 37.6452 12.2909 38.0435C13.7942 36.1656 15.2974 34.2878 16.8006 32.4146C16.2506 32.0116 15.71 31.5895 15.1836 31.1533C14.6572 30.717 14.1403 30.2665 13.6424 29.8065C13.1398 29.3465 12.6561 28.8676 12.1866 28.3839C11.6982 27.8955 11.2429 27.3975 10.8067 26.8901Z" fill="#9A95A0"/>
<path d="M10.7021 18.7146C10.3369 17.7994 10.0382 16.8557 9.84376 15.8883C9.79634 15.6512 9.75841 15.4189 9.72521 15.1865C9.69202 14.9541 9.66831 14.7265 9.6446 14.5036C9.62563 14.2808 9.6114 14.0579 9.60666 13.8398C9.59718 13.6216 9.59718 13.4035 9.60192 13.1948L9.43595 13.1474C7.71932 12.7159 6.00743 12.2606 4.30028 11.7864C4.30028 12.5499 4.35719 13.3134 4.471 14.0674C4.04421 11.151 4.36668 8.06865 5.90785 5.50319C7.45376 2.93299 10.0524 1.24956 12.9261 0.505057C14.6996 0.0450763 16.549 -0.0734806 18.3747 0.0403291C18.8537 1.49614 19.2947 2.96145 19.7168 4.43623L19.7547 4.56901C20.7316 4.59746 21.7037 4.72076 22.6568 4.91992C22.9082 4.97208 23.1595 5.02899 23.4156 5.09064C23.6669 5.15228 23.9182 5.21867 24.1696 5.2898C24.4209 5.36093 24.6675 5.4368 24.9188 5.51742C25.1654 5.59804 25.4167 5.6834 25.6633 5.7735L25.6443 5.64546C25.4357 4.24655 25.2507 2.8429 25.1037 1.43925C32.3638 3.94306 38.9079 9.1783 42.9576 15.7081C44.1526 17.6287 45.1295 19.6962 45.7649 21.8728C45.5468 21.1331 45.2907 20.4075 44.9967 19.701C43.4413 19.5445 41.8954 19.3595 40.3448 19.1509L40.2025 19.1366C40.5866 20.0282 40.9091 20.9434 41.1319 21.887C41.1888 22.1147 41.2363 22.3423 41.2742 22.5699C41.3169 22.7975 41.3501 23.0204 41.3785 23.2385C41.407 23.4614 41.4307 23.6795 41.4449 23.8929C41.4639 24.1111 41.4734 24.3245 41.4781 24.5331L41.6251 24.5758C43.2516 24.9789 44.8687 25.4057 46.4857 25.8514C46.4336 25.0358 46.3198 24.2249 46.1538 23.4282C46.8509 26.7571 46.647 30.3848 44.7881 33.3154C42.9481 36.2223 39.7852 37.8868 36.4468 38.4084C34.3745 38.7356 32.2453 38.6502 30.1778 38.3136C31.2305 38.4843 32.2975 38.5791 33.3644 38.6028C32.8428 37.0332 32.3591 35.4494 31.8991 33.8608L31.8612 33.7185C30.8654 33.7233 29.8695 33.6237 28.8879 33.4482C28.6271 33.4008 28.3663 33.3486 28.1055 33.2917C27.8447 33.2348 27.5838 33.1732 27.3278 33.102C27.067 33.0356 26.8109 32.9598 26.5501 32.8792C26.294 32.7985 26.0332 32.7179 25.7771 32.6278L25.8008 32.7654C26.0237 34.297 26.2181 35.8382 26.3746 37.3794C27.47 37.7256 28.5797 38.0196 29.7083 38.2282C25.2223 37.4031 20.9781 35.4019 17.2746 32.7654C13.5853 30.1382 10.3275 26.8235 7.92323 22.973C6.49112 20.6731 5.35303 18.1645 4.75553 15.5184C4.95469 16.4005 5.22025 17.2683 5.53322 18.1171C7.20718 18.2831 8.88112 18.4775 10.5503 18.6956L10.7021 18.7146ZM20.0013 28.5117C20.2668 28.6967 20.5324 28.8816 20.8074 29.0571C21.0777 29.2325 21.3528 29.4032 21.6325 29.5692C21.9076 29.7352 22.1921 29.8917 22.4719 30.0481C22.7564 30.1999 23.0409 30.3469 23.3302 30.4892C23.3444 30.4986 23.3587 30.5034 23.3729 30.5129C23.3871 30.5176 23.4013 30.5271 23.4156 30.5366C23.4298 30.5461 23.444 30.5508 23.463 30.5603C23.4772 30.5698 23.4962 30.5745 23.5104 30.584C23.923 30.7832 24.3403 30.9681 24.7623 31.1388C25.1844 31.3095 25.6111 31.466 26.0379 31.6083C26.4647 31.7505 26.901 31.8786 27.3373 31.9877C27.7735 32.1015 28.2145 32.1963 28.6556 32.2769C29.2531 32.386 29.8553 32.4571 30.4575 32.495C30.467 32.495 30.4813 32.495 30.4955 32.495C30.5097 32.495 30.5239 32.4951 30.5476 32.4998C30.5666 32.4998 30.5951 32.4998 30.6235 32.5045C30.6567 32.5045 30.6946 32.5093 30.7421 32.5093C30.7515 32.5093 30.7658 32.5093 30.7753 32.5093C30.7847 32.5093 30.799 32.5093 30.8085 32.5093C30.8227 32.5093 30.8322 32.5093 30.8464 32.5093C30.8606 32.5093 30.8701 32.5093 30.8843 32.5093C31.1546 32.5188 31.4202 32.5188 31.6857 32.5093C31.9465 32.5045 32.2074 32.4856 32.4587 32.4666C32.71 32.4429 32.9614 32.4144 33.2032 32.3765C33.445 32.3386 33.6869 32.2959 33.9193 32.2437C34.6922 32.073 35.4462 31.8027 36.148 31.4328C36.3092 31.3475 36.4705 31.2574 36.627 31.1625C36.7835 31.0677 36.9305 30.9681 37.0775 30.8638C37.2245 30.7595 37.3667 30.6504 37.5042 30.5366C37.6418 30.4228 37.7793 30.3042 37.9073 30.1857C38.4337 29.683 38.8795 29.0997 39.2256 28.4596C39.3062 28.3078 39.3869 28.1561 39.458 27.9996C39.5291 27.8431 39.6002 27.6819 39.6619 27.5159C39.7235 27.3499 39.7852 27.1792 39.8374 27.0037C39.8895 26.8283 39.9417 26.6481 39.9844 26.4679C40.0176 26.3256 40.046 26.1834 40.0745 26.0364C40.0982 25.8894 40.1219 25.7376 40.1408 25.5811C40.1598 25.4246 40.174 25.2681 40.1883 25.1022C40.2025 24.9362 40.2072 24.7655 40.212 24.5853C40.2167 24.3577 40.212 24.1253 40.2025 23.8882C40.193 23.6511 40.174 23.414 40.1456 23.1674C40.1171 22.9256 40.0839 22.6742 40.0413 22.4229C39.9986 22.1716 39.9464 21.9155 39.8848 21.6547C39.8705 21.5978 39.8611 21.5456 39.8468 21.4935C39.8468 21.484 39.8421 21.4792 39.8421 21.4697C39.8421 21.4603 39.8373 21.4508 39.8326 21.4413C39.8279 21.4318 39.8279 21.4176 39.8231 21.3986C39.8184 21.3796 39.8136 21.3607 39.8089 21.337C39.8042 21.3275 39.8042 21.318 39.7994 21.3038C39.7947 21.2943 39.7947 21.2801 39.7899 21.2706C39.7852 21.2563 39.7852 21.2469 39.7804 21.2279C39.7757 21.2089 39.771 21.1947 39.7662 21.1757C39.7615 21.1663 39.7615 21.1568 39.7567 21.1425C39.752 21.1331 39.752 21.1188 39.7473 21.1046C39.7425 21.0904 39.7378 21.0761 39.733 21.0619C39.7283 21.0477 39.7235 21.0287 39.7188 21.0098C39.7141 21.0003 39.7141 20.9908 39.7093 20.9813C39.7046 20.9718 39.7046 20.9623 39.6998 20.9481C39.6951 20.9339 39.6903 20.9197 39.6856 20.9054C39.6809 20.8865 39.6761 20.8675 39.6666 20.8438C39.6666 20.8343 39.6619 20.8296 39.6572 20.8153C39.6524 20.8059 39.6524 20.7916 39.6429 20.7774C39.6382 20.7584 39.6287 20.7395 39.624 20.711C39.6145 20.6826 39.605 20.6494 39.5908 20.6019C39.5908 20.5925 39.586 20.583 39.5813 20.5782C39.5765 20.5688 39.5765 20.5593 39.5718 20.5498C39.5671 20.5403 39.5623 20.5261 39.5576 20.5118C39.5528 20.4976 39.5481 20.4787 39.5386 20.4597C39.5007 20.3459 39.4627 20.2321 39.4248 20.123C39.3869 20.0092 39.3442 19.8954 39.3015 19.7816C39.2588 19.6678 39.2114 19.5492 39.164 19.4306C39.1166 19.3121 39.0644 19.1935 39.0122 19.0703C38.9221 18.8569 38.8225 18.6482 38.723 18.4396C38.6234 18.2309 38.5143 18.0175 38.4052 17.8089C38.2962 17.6002 38.1776 17.3868 38.0591 17.1782C37.9358 16.9648 37.8125 16.7561 37.6797 16.5427C37.5469 16.3341 37.4094 16.1207 37.2671 15.912C37.1249 15.7034 36.9779 15.4947 36.8214 15.2861C36.6697 15.0774 36.5084 14.8688 36.3424 14.6554C36.1765 14.4467 36.0058 14.2333 35.8256 14.0247C35.6643 13.835 35.5031 13.6453 35.3324 13.4604C35.1664 13.2754 34.991 13.0905 34.8155 12.9056C34.64 12.7206 34.4598 12.5357 34.2702 12.3507C34.0852 12.1658 33.8908 11.9809 33.6964 11.7959C33.5019 11.6157 33.3028 11.4403 33.1036 11.2648C32.9044 11.0894 32.6958 10.9186 32.4871 10.7479C32.2785 10.5772 32.0651 10.4112 31.8422 10.2453C31.6241 10.0793 31.4012 9.91806 31.1688 9.75209C30.9602 9.60509 30.7468 9.45808 30.5334 9.31582C30.32 9.17356 30.1019 9.03604 29.8837 8.89852C29.6656 8.761 29.4427 8.62822 29.2151 8.50019C28.9922 8.37215 28.7646 8.24411 28.5323 8.12082C28.4659 8.08762 28.3995 8.04969 28.3331 8.01649C28.2667 7.9833 28.1956 7.94536 28.1197 7.90743C28.0438 7.86949 27.968 7.83155 27.8873 7.78888C27.8067 7.7462 27.7166 7.70352 27.6218 7.66084C27.2424 7.48064 26.8583 7.30518 26.4695 7.14869C26.0806 6.98746 25.6918 6.84046 25.2934 6.70768C24.8998 6.57016 24.4968 6.44686 24.0937 6.3378C23.6906 6.22873 23.2828 6.12915 22.8702 6.04379C22.7564 6.02008 22.6379 5.99637 22.5241 5.9774C22.5146 5.9774 22.5051 5.97266 22.4956 5.97266C22.4861 5.97266 22.4766 5.96792 22.4624 5.96792C22.4482 5.96792 22.434 5.96318 22.4197 5.95844C22.4008 5.95369 22.3818 5.95369 22.3581 5.94895C22.2016 5.9205 22.0451 5.89679 21.8934 5.87782C21.7369 5.85411 21.5804 5.83514 21.4192 5.81617C21.2579 5.7972 21.0967 5.78298 20.926 5.76875C20.7553 5.75452 20.5846 5.74504 20.3996 5.73556C20.3854 5.73556 20.3664 5.73556 20.3522 5.73556C20.338 5.73556 20.319 5.73556 20.3 5.73556C20.2811 5.73556 20.2668 5.73556 20.2479 5.73556C20.2289 5.73556 20.2099 5.73556 20.191 5.73556C19.9681 5.73082 19.7499 5.72607 19.5366 5.73081C19.3232 5.73555 19.1098 5.74504 18.8964 5.75927C18.6877 5.7735 18.4791 5.79246 18.2752 5.82091C18.0713 5.84462 17.8721 5.87782 17.6729 5.91101C17.4738 5.94421 17.2746 5.98688 17.0802 6.0343C16.8857 6.08172 16.6961 6.13389 16.5064 6.19079C16.3167 6.2477 16.1317 6.30935 15.9468 6.38048C15.7619 6.45161 15.5817 6.52274 15.4015 6.60336C15.2355 6.67923 15.0743 6.75985 14.913 6.84046C14.7565 6.92582 14.6001 7.01592 14.4483 7.10602C14.2966 7.20086 14.1448 7.30044 13.9978 7.40476C13.8508 7.50909 13.7038 7.61816 13.5615 7.73197C13.424 7.84578 13.2912 7.96433 13.1585 8.09237C13.0304 8.21566 12.9071 8.34844 12.7838 8.48596C12.6653 8.62348 12.5515 8.76574 12.4377 8.91274C12.3286 9.05975 12.2195 9.21149 12.12 9.37272C12.0251 9.51499 11.9398 9.66199 11.8544 9.81373C11.769 9.96548 11.6932 10.122 11.6173 10.2832C11.5414 10.4444 11.475 10.6104 11.4086 10.7811C11.3423 10.9518 11.2806 11.1273 11.2284 11.3075C11.1763 11.4829 11.1289 11.6679 11.0862 11.8528C11.0435 12.0378 11.0103 12.2274 10.9819 12.4219C10.9534 12.6163 10.9297 12.8155 10.9155 13.0146C10.8965 13.2185 10.887 13.4225 10.8823 13.6358C10.8775 13.8303 10.8775 14.0247 10.887 14.2286C10.8918 14.4278 10.906 14.6364 10.925 14.8451C10.9439 15.0537 10.9676 15.2671 11.0008 15.49C11.034 15.7081 11.072 15.9357 11.1146 16.1681C11.1289 16.2345 11.1431 16.3009 11.1573 16.3673C11.1573 16.3768 11.1621 16.391 11.1668 16.4005C11.1715 16.41 11.1715 16.4242 11.1763 16.4337C11.181 16.4431 11.181 16.4574 11.1858 16.4669C11.1905 16.4763 11.1905 16.4906 11.1953 16.5001C11.1953 16.5095 11.2 16.5143 11.2 16.5238C11.2 16.5332 11.2047 16.5427 11.2095 16.5522C11.2142 16.5664 11.2142 16.5807 11.219 16.5996C11.2237 16.6186 11.2284 16.6423 11.2332 16.666C11.2332 16.6755 11.2379 16.685 11.2379 16.6945C11.2379 16.704 11.2427 16.7134 11.2474 16.7277C11.2522 16.7419 11.2522 16.7561 11.2569 16.7703C11.2616 16.7893 11.2664 16.8083 11.2711 16.832C11.2711 16.8415 11.2759 16.851 11.2806 16.8604C11.2854 16.8699 11.2854 16.8794 11.2901 16.8936C11.2948 16.9079 11.2996 16.9221 11.2996 16.9363C11.3043 16.9553 11.3091 16.9743 11.3138 16.998C11.3138 17.0075 11.3185 17.0169 11.3233 17.0264C11.328 17.0359 11.328 17.0454 11.3328 17.0596C11.3375 17.0738 11.3423 17.0881 11.347 17.1023C11.3517 17.1213 11.3565 17.1402 11.3612 17.1639C11.366 17.1734 11.366 17.1829 11.3707 17.1924C11.3755 17.2019 11.3755 17.2114 11.3802 17.2256C11.3849 17.2398 11.3897 17.254 11.3944 17.273C11.3992 17.292 11.4039 17.3109 11.4134 17.3394C11.4134 17.3489 11.4181 17.3536 11.4229 17.3631C11.4276 17.3726 11.4276 17.3821 11.4324 17.3963C11.4371 17.4105 11.4418 17.4248 11.4466 17.4437C11.4513 17.4627 11.4561 17.4817 11.4656 17.5101C11.4656 17.5196 11.4703 17.5243 11.475 17.5338C11.4798 17.5433 11.4845 17.5575 11.4893 17.5765C11.494 17.5955 11.5035 17.6144 11.513 17.6476C11.5225 17.6761 11.5319 17.714 11.5462 17.7614C11.5509 17.7709 11.5509 17.7804 11.5557 17.7899C11.5604 17.7994 11.5604 17.8089 11.5651 17.8231C11.5699 17.8373 11.5746 17.8468 11.5794 17.8658C11.5841 17.8847 11.5888 17.9037 11.5983 17.9227C11.6031 17.9322 11.6078 17.9416 11.6078 17.9559C11.6126 17.9653 11.6173 17.9796 11.6173 17.9891C11.622 18.0033 11.6268 18.0128 11.6315 18.027C11.6363 18.0412 11.641 18.0554 11.6458 18.0744C11.6505 18.0886 11.6552 18.0981 11.66 18.1124C11.6647 18.1266 11.6695 18.1361 11.6742 18.1503C11.6789 18.1645 11.6837 18.1787 11.6884 18.193C11.6932 18.2072 11.6979 18.2214 11.7027 18.2357C11.7216 18.2831 11.7358 18.3352 11.7548 18.3827C11.7738 18.4301 11.7928 18.4822 11.8117 18.5297C11.8307 18.5771 11.8497 18.6292 11.8686 18.6814C11.8876 18.7336 11.9113 18.781 11.9303 18.8332C12.0204 19.0513 12.1152 19.2742 12.2148 19.4923C12.3144 19.7104 12.4187 19.9333 12.5325 20.1514C12.6416 20.3696 12.7601 20.5925 12.8834 20.8153C13.0067 21.0382 13.1348 21.2611 13.2675 21.484C13.8224 22.3897 14.4483 23.2528 15.1264 24.0731C15.8235 24.9125 16.5775 25.6997 17.3694 26.4489C17.5733 26.6339 17.7772 26.8188 17.9859 26.999C18.1945 27.1792 18.4079 27.3594 18.6261 27.5348C18.8442 27.7103 19.0623 27.881 19.29 28.0517C19.5413 28.1798 19.7689 28.3505 20.0013 28.5117ZM16.7909 32.4144C17.6113 31.3901 18.4554 30.3896 19.3374 29.4175L19.418 29.3274C17.4927 27.9616 15.7382 26.3541 14.2302 24.5379L14.1306 24.6042C13.0447 25.3962 11.9398 26.1644 10.8064 26.8899C12.5847 28.948 14.6001 30.8069 16.7909 32.4144ZM37.2292 32.6515C38.5712 33.9983 39.8943 35.364 41.1983 36.7487C42.7158 35.8524 44.0104 34.5958 44.9208 33.0831C43.4366 31.9023 41.9713 30.6883 40.5202 29.4649L40.3969 29.3605C39.6382 30.712 38.4811 31.8027 37.1107 32.5235L37.2292 32.6515ZM14.3582 5.39413C13.0494 4.08058 11.7596 2.7528 10.4887 1.40131C8.90009 2.16952 7.4917 3.29339 6.43896 4.71601C7.92797 5.90153 9.39327 7.1155 10.8491 8.3437L10.9771 8.44802C11.8307 7.15344 13.0684 6.15286 14.4815 5.51742L14.3582 5.39413ZM39.7567 11.426C38.0638 9.5055 36.1622 7.76991 34.1042 6.2477C33.3644 7.16292 32.5962 8.05443 31.7995 8.91748L31.7284 8.9981C33.5636 10.3069 35.2423 11.8386 36.7028 13.5552L36.7882 13.4936C37.7556 12.7823 38.7419 12.0852 39.7567 11.426Z" fill="#A2000C"/>
<path d="M34.0993 6.24756C33.3595 7.16278 32.5913 8.05428 31.7946 8.91734L31.7235 8.99795C33.5587 10.3068 35.2374 11.8385 36.6979 13.5551L36.7833 13.4934C37.7554 12.7726 38.7417 12.0756 39.7565 11.4164C38.0589 9.5101 36.1573 7.76976 34.0993 6.24756C33.9617 6.41827 34.6161 6.63167 34.0993 6.24756Z" fill="#F6F6F6"/>
<path d="M21.6944 0.500156C21.6754 0.495414 21.6564 0.490673 21.6375 0.485931C21.6185 0.481189 21.5995 0.476447 21.5806 0.471705C21.5616 0.466963 21.5426 0.462219 21.5237 0.462219C21.5047 0.457477 21.4857 0.45274 21.4668 0.45274C21.4573 0.45274 21.4478 0.447993 21.4383 0.447993C21.4288 0.447993 21.4193 0.443254 21.4099 0.443254C21.4004 0.443254 21.3909 0.438514 21.3814 0.438514C21.3719 0.438514 21.3624 0.433768 21.353 0.433768C21.3435 0.433768 21.334 0.429028 21.3245 0.429028C21.315 0.429028 21.3055 0.424289 21.296 0.424289C21.2866 0.424289 21.2771 0.419542 21.2676 0.419542C21.2581 0.419542 21.2486 0.414803 21.2391 0.414803C21.2249 0.414803 21.2154 0.410056 21.2012 0.410056C21.187 0.410056 21.1775 0.405317 21.1633 0.405317C21.149 0.405317 21.1396 0.400577 21.1253 0.400577C21.1111 0.400577 21.1016 0.39583 21.0874 0.39583C21.0827 0.39583 21.0779 0.395833 21.0732 0.391091C21.0684 0.391091 21.0637 0.391093 21.0589 0.386351C21.0542 0.386351 21.0495 0.386347 21.0447 0.381605C21.04 0.381605 21.0352 0.381607 21.0305 0.376865C20.8408 0.343671 20.6511 0.310478 20.4614 0.282025C20.2718 0.253573 20.0821 0.225121 19.8971 0.201411C19.7122 0.177701 19.5225 0.153991 19.3423 0.135022C19.1574 0.116054 18.9724 0.0970855 18.7922 0.0828593C18.778 0.0828593 18.759 0.0781126 18.7448 0.0781126C18.7306 0.0781126 18.7164 0.0781152 18.7021 0.0733731C18.6879 0.0733731 18.6737 0.0733757 18.6642 0.0686337C18.65 0.0686337 18.6405 0.068629 18.6263 0.063887C18.5456 0.0591449 18.465 0.054406 18.3892 0.0449219C18.8681 1.50074 19.3091 2.97077 19.7312 4.44081L19.7691 4.5736C20.0015 4.57834 20.2338 4.59256 20.4709 4.61153C20.708 4.6305 20.9451 4.65421 21.187 4.68266C21.4288 4.71112 21.6754 4.74431 21.922 4.78699C22.1686 4.82967 22.4199 4.87234 22.6712 4.92451C23.6908 5.13316 24.6914 5.42243 25.6682 5.77808L25.6493 5.65004C25.4406 4.25113 25.2557 2.84748 25.1087 1.44383C25.0897 1.43435 25.066 1.4296 25.047 1.42012C25.0281 1.41063 25.0043 1.40589 24.9854 1.39641C24.9664 1.39167 24.9427 1.38218 24.9237 1.37744C24.9048 1.36796 24.881 1.36321 24.8621 1.35847C24.8479 1.35373 24.8336 1.34899 24.8194 1.34424C24.8052 1.3395 24.791 1.33476 24.7767 1.33002C24.7625 1.32528 24.7483 1.32053 24.734 1.31579C24.7198 1.31105 24.7056 1.30631 24.6914 1.30157C24.5017 1.23992 24.3073 1.17827 24.1176 1.12137C23.9279 1.06446 23.7335 1.00756 23.539 0.950659C23.3446 0.898496 23.1549 0.846332 22.9605 0.79417C22.7661 0.742007 22.5764 0.694585 22.382 0.651906C22.3772 0.651906 22.3725 0.651901 22.3678 0.647159C22.363 0.647159 22.3583 0.647162 22.3535 0.64242C22.3488 0.64242 22.344 0.642423 22.3393 0.63768C22.3346 0.63768 22.3298 0.637676 22.3251 0.632934C22.3108 0.628192 22.3014 0.628197 22.2871 0.623455C22.2729 0.618713 22.2634 0.618711 22.2492 0.613969C22.235 0.609227 22.2255 0.609225 22.2113 0.604483C22.197 0.59974 22.1876 0.599746 22.1733 0.595004C22.1638 0.595004 22.1544 0.590257 22.1449 0.590257C22.1354 0.590257 22.1259 0.585517 22.1164 0.585517C22.1069 0.585517 22.0975 0.580771 22.088 0.580771C22.0785 0.580771 22.069 0.576031 22.0595 0.576031C22.05 0.576031 22.0406 0.571292 22.0311 0.571292C22.0216 0.571292 22.0121 0.566545 22.0026 0.566545C21.9931 0.566545 21.9836 0.561806 21.9742 0.561806C21.9647 0.561806 21.9552 0.557066 21.9457 0.557066C21.9267 0.552324 21.9078 0.547583 21.8888 0.542841C21.8698 0.538098 21.8509 0.53335 21.8319 0.528608C21.8129 0.523866 21.794 0.519124 21.775 0.514382C21.7323 0.504898 21.7133 0.500156 21.6944 0.500156Z" fill="#F6F6F6"/>
<path d="M44.987 19.6961C43.4316 19.5397 41.8857 19.3547 40.335 19.1461L40.1928 19.1318C40.2924 19.3595 40.3825 19.5871 40.4726 19.8147C40.5627 20.0423 40.6433 20.2699 40.7239 20.5023C40.7998 20.7299 40.8756 20.9623 40.942 21.1946C41.0084 21.427 41.0701 21.6546 41.1222 21.887C41.3261 22.7548 41.4494 23.6463 41.4731 24.5378L41.6201 24.5805C43.2467 24.9835 44.8637 25.4103 46.4808 25.8561C46.4665 25.6617 46.4523 25.4625 46.4333 25.2633C46.4144 25.0642 46.3907 24.865 46.3622 24.6611C46.3338 24.4572 46.3053 24.2533 46.2674 24.0494C46.2294 23.8454 46.1915 23.6368 46.1488 23.4281C46.1488 23.4234 46.1488 23.4187 46.1488 23.4187C46.1488 23.4139 46.1488 23.4092 46.1488 23.4092C46.1488 23.4044 46.1488 23.3997 46.1488 23.395C46.1488 23.3902 46.1488 23.3855 46.1441 23.3855C46.1441 23.376 46.1393 23.3618 46.1346 23.3523C46.1346 23.338 46.1298 23.3286 46.1251 23.3191C46.1204 23.3096 46.1204 23.2954 46.1156 23.2859C46.1156 23.2717 46.1109 23.2622 46.1061 23.2527C46.1061 23.2432 46.1014 23.2337 46.1014 23.229C46.1014 23.2195 46.0967 23.21 46.0967 23.2053C46.0967 23.1958 46.0919 23.1863 46.0919 23.1816C46.0919 23.1721 46.0872 23.1626 46.0872 23.1578C46.0872 23.1484 46.0824 23.1389 46.0824 23.1341C46.0824 23.1247 46.0777 23.1152 46.0777 23.1104C46.0777 23.1009 46.0729 23.0915 46.0729 23.0867C46.0729 23.0772 46.0682 23.0677 46.0682 23.063C46.0635 23.044 46.0587 23.0251 46.054 23.0108C46.0492 22.9919 46.0445 22.9729 46.0397 22.9587C46.035 22.9397 46.0303 22.9207 46.0255 22.9065C46.0208 22.8876 46.016 22.8686 46.0113 22.8544C46.0066 22.8354 46.0018 22.8164 45.9971 22.7975C45.9923 22.7785 45.9876 22.7595 45.9828 22.7406C45.9781 22.7216 45.9734 22.7026 45.9686 22.6836C45.9639 22.6647 45.9591 22.6457 45.9544 22.6267C45.9544 22.6173 45.9497 22.6125 45.9497 22.603C45.9497 22.5935 45.9449 22.5888 45.9449 22.5793C45.9449 22.5698 45.9402 22.5651 45.9402 22.5556C45.9402 22.5461 45.9354 22.5414 45.9354 22.5319C45.9354 22.5224 45.9307 22.5129 45.9259 22.5034C45.9259 22.494 45.9212 22.4845 45.9165 22.475C45.9165 22.4655 45.9117 22.456 45.907 22.4465C45.9022 22.4371 45.9022 22.4276 45.8975 22.4181C45.8927 22.4086 45.8927 22.3991 45.888 22.3896C45.8833 22.3802 45.8833 22.3707 45.8785 22.3612C45.8785 22.3517 45.8738 22.3422 45.869 22.3327C45.8643 22.3232 45.8643 22.3138 45.8596 22.3043C45.8596 22.2995 45.8548 22.2901 45.8548 22.2853C45.8548 22.2806 45.8501 22.2711 45.8501 22.2663C45.8501 22.2616 45.8453 22.2521 45.8453 22.2474C45.8453 22.2426 45.8406 22.2331 45.8406 22.2284C45.6082 21.3416 45.3237 20.5118 44.987 19.6961C44.7025 19.6677 45.0724 19.9001 44.987 19.6961Z" fill="#F6F6F6"/>
<path d="M10.4887 1.40137C8.9001 2.16958 7.4917 3.29345 6.43896 4.71607C7.92797 5.90159 9.39328 7.11556 10.8491 8.34376L10.9771 8.44808C11.8307 7.1535 13.0684 6.15292 14.4815 5.51748L14.3582 5.39419C13.0494 4.08064 11.7596 2.75286 10.4887 1.40137C10.0761 1.60053 10.7211 1.6527 10.4887 1.40137Z" fill="#F6F6F6"/>
<path d="M40.3919 29.3604C39.6331 30.7118 38.4761 31.8025 37.1056 32.5233L37.2289 32.6513C38.5709 33.9981 39.894 35.3638 41.198 36.7485C42.7155 35.8522 44.0101 34.5956 44.9205 33.0829C43.4363 31.9021 41.971 30.6881 40.5199 29.4647L40.3919 29.3604Z" fill="#F6F6F6"/>
<path d="M4.30499 11.7866C4.30499 11.9668 4.30974 12.1518 4.31448 12.3414C4.31922 12.5264 4.33345 12.7161 4.34767 12.9057C4.3619 13.0954 4.38087 13.2899 4.39984 13.4795C4.4188 13.674 4.44726 13.8684 4.47571 14.0676V14.0723V14.077V14.0818V14.0865C4.47571 14.1008 4.48045 14.1102 4.48045 14.1245C4.48045 14.1387 4.48519 14.1482 4.48519 14.1624C4.48519 14.1766 4.48993 14.1861 4.48993 14.2003C4.48993 14.2146 4.49468 14.224 4.49468 14.2383C4.49468 14.2478 4.49468 14.2525 4.49942 14.262C4.49942 14.2715 4.50416 14.2762 4.50416 14.2857C4.50416 14.2952 4.5089 14.2999 4.5089 14.3094C4.5089 14.3189 4.5089 14.3236 4.51364 14.3331C4.51364 14.3426 4.51839 14.3521 4.51839 14.3616C4.51839 14.3711 4.52313 14.3805 4.52313 14.39C4.52313 14.3995 4.52787 14.409 4.52787 14.4185C4.52787 14.428 4.53261 14.4374 4.53261 14.4469C4.53261 14.4564 4.53735 14.4706 4.53735 14.4801C4.53735 14.4896 4.5421 14.5038 4.5421 14.5133C4.5421 14.5228 4.54684 14.537 4.54684 14.5465C4.54684 14.556 4.55158 14.5702 4.55158 14.5797C4.55158 14.5844 4.55158 14.5939 4.55632 14.5987C4.55632 14.6034 4.55632 14.6129 4.56106 14.6176C4.56106 14.6224 4.56581 14.6319 4.56581 14.6366C4.56581 14.6413 4.56581 14.6508 4.57055 14.6556C4.57529 14.6745 4.57529 14.6935 4.58003 14.7125C4.58478 14.7314 4.58477 14.7504 4.58952 14.7694C4.59426 14.7884 4.59426 14.8073 4.599 14.8263C4.60374 14.8453 4.60848 14.8642 4.60848 14.8832C4.61323 14.9022 4.61797 14.9211 4.61797 14.9401C4.62271 14.9591 4.62745 14.978 4.62745 14.997C4.6322 15.016 4.63694 15.0349 4.63694 15.0539C4.64168 15.0729 4.64642 15.0918 4.64642 15.1108C4.64642 15.1203 4.65117 15.125 4.65117 15.1345C4.65117 15.144 4.6559 15.1487 4.6559 15.1582C4.6559 15.1677 4.66065 15.1725 4.66065 15.1819C4.66065 15.1914 4.66539 15.1962 4.66539 15.2057C4.66539 15.2151 4.67013 15.2246 4.67013 15.2341C4.67013 15.2436 4.67487 15.2531 4.67487 15.2626C4.67487 15.272 4.67962 15.2815 4.67962 15.291C4.67962 15.3005 4.68436 15.31 4.68436 15.3195C4.6891 15.3289 4.6891 15.3432 4.69384 15.3527C4.69858 15.3621 4.69859 15.3764 4.70333 15.3858C4.70807 15.3953 4.70807 15.4096 4.71281 15.419C4.71755 15.4285 4.71755 15.4428 4.7223 15.4522C4.7223 15.457 4.72229 15.4617 4.72704 15.4665C4.72704 15.4712 4.72704 15.476 4.73178 15.4807C4.73178 15.4854 4.73178 15.4902 4.73652 15.4949C4.73652 15.4997 4.73652 15.5044 4.74126 15.5091C4.94043 16.3912 5.20598 17.259 5.51896 18.1078C7.19291 18.2738 8.86686 18.4682 10.5361 18.6863L10.6973 18.7006C10.6025 18.4682 10.5124 18.2311 10.4317 17.994C10.3464 17.7569 10.2705 17.5245 10.1994 17.2874C10.1283 17.0503 10.0619 16.818 10.0002 16.5809C9.93857 16.3437 9.88641 16.1114 9.83899 15.8743C9.66353 14.9875 9.57817 14.0818 9.59714 13.1808L9.43117 13.1334C7.72402 12.7208 6.01214 12.2656 4.30499 11.7866C4.30499 11.9668 4.62745 11.8767 4.30499 11.7866Z" fill="#F6F6F6"/>
<path d="M25.7721 32.6323L25.7958 32.7698C26.0187 34.3015 26.2131 35.8427 26.3696 37.3839C26.6447 37.4692 26.9244 37.5546 27.1995 37.6352C27.4745 37.7158 27.7543 37.7917 28.0341 37.8628C28.3139 37.934 28.5889 38.0003 28.8687 38.062C29.1485 38.1236 29.4235 38.1805 29.7033 38.2327C29.7223 38.2374 29.7412 38.2374 29.7602 38.2422C29.7792 38.2469 29.7981 38.2517 29.8171 38.2517C29.8361 38.2564 29.855 38.2612 29.874 38.2612C29.893 38.2659 29.912 38.2659 29.9309 38.2706C29.9499 38.2754 29.9689 38.2754 29.9878 38.2801C30.0068 38.2849 30.0258 38.2849 30.0447 38.2896C30.0637 38.2944 30.0827 38.2943 30.1016 38.2991C30.1206 38.3038 30.1396 38.3038 30.1585 38.3086C31.2113 38.4793 32.2782 38.5741 33.3452 38.5978C32.8236 37.0282 32.3399 35.4444 31.8799 33.8558L31.842 33.7135C31.6096 33.7135 31.3678 33.7088 31.1307 33.6993C30.8888 33.6898 30.647 33.6708 30.3956 33.6519C30.1491 33.6282 29.8977 33.5997 29.6417 33.5665C29.3856 33.5333 29.1295 33.4906 28.8687 33.448C27.8254 33.263 26.7869 32.988 25.7721 32.6323Z" fill="#F6F6F6"/>
<path d="M14.2286 24.5391L14.1338 24.6055C13.0479 25.3974 11.943 26.1656 10.8096 26.8911C12.5879 28.9492 14.6033 30.8081 16.7941 32.4204C17.6145 31.3961 18.4586 30.3955 19.3406 29.4234L19.4212 29.3333C17.4959 27.9628 15.7366 26.3505 14.2286 24.5391Z" fill="#F6F6F6"/>
<path d="M31.5054 32.2863C31.5196 32.3148 31.5243 32.348 31.5243 32.3717C31.5243 32.4002 31.5196 32.4239 31.5101 32.4428C31.5006 32.4618 31.4817 32.4808 31.4627 32.4903C31.4437 32.4997 31.4153 32.5092 31.3868 32.5092C31.3441 32.5092 31.3062 32.5092 31.2635 32.5092C31.2208 32.5092 31.1829 32.5092 31.1402 32.5092C31.0976 32.5092 31.0596 32.5092 31.0169 32.5092C30.9743 32.5092 30.9316 32.5092 30.8936 32.5045C31.9084 32.5377 32.928 32.4571 33.9143 32.2342H33.8432C33.7436 32.2152 33.6488 32.1488 33.5966 32.0635C33.5397 31.9781 33.5302 31.8311 33.6583 31.7979C34.398 31.6367 35.1188 31.3806 35.7969 31.0344C35.8064 31.0297 35.8112 31.025 35.8207 31.025C35.8301 31.025 35.8396 31.0202 35.8491 31.0202C35.8586 31.0202 35.8681 31.0202 35.8776 31.0202C35.887 31.0202 35.8965 31.0202 35.9108 31.025C35.9297 31.0297 35.9487 31.0344 35.9677 31.0392C35.9866 31.0487 36.0056 31.0581 36.0246 31.0676C36.0435 31.0771 36.0625 31.0913 36.0767 31.1056C36.0957 31.1198 36.1099 31.134 36.1242 31.153C36.1811 31.2241 36.2332 31.3427 36.1573 31.4185C36.7928 31.0866 37.3855 30.6693 37.9024 30.1761L37.7696 30.2046L37.5894 30.1145C37.5183 30.0481 37.4377 29.9058 37.5183 29.8157C38.0162 29.3368 38.4525 28.7867 38.7845 28.1797C38.8224 28.1228 38.8935 28.1133 38.9552 28.1228C38.9647 28.1228 38.9789 28.1275 38.9884 28.1323C38.9978 28.137 39.0121 28.1418 39.0216 28.1465C39.031 28.1513 39.0453 28.156 39.0547 28.1655C39.0642 28.1702 39.0785 28.1797 39.0879 28.1892C39.1638 28.2461 39.2444 28.3504 39.2302 28.45C39.5716 27.8335 39.8182 27.1696 39.9794 26.4868C39.951 26.5484 39.8704 26.5579 39.8087 26.5437L39.7234 26.5152C39.6285 26.4631 39.5052 26.3398 39.5384 26.2212C39.5764 26.0458 39.6143 25.8656 39.6428 25.6806C39.6712 25.5004 39.6949 25.3155 39.7139 25.1258C39.7329 24.9409 39.7471 24.7512 39.7518 24.5615C39.7613 24.3718 39.7613 24.1821 39.7613 23.9877C39.7613 23.964 39.7661 23.945 39.7755 23.9261C39.785 23.9071 39.7993 23.8929 39.8135 23.8834C39.8277 23.8739 39.8467 23.8644 39.8704 23.8597C39.8894 23.8549 39.9178 23.8549 39.9415 23.8597C39.9463 23.8597 39.9463 23.8597 39.951 23.8597C39.9557 23.8597 39.9557 23.8597 39.9605 23.8644C39.9652 23.8644 39.9652 23.8644 39.97 23.8692C39.9747 23.8692 39.9747 23.8692 39.9794 23.8739C40.0933 23.9118 40.2118 24.0257 40.2166 24.1537C40.2166 24.1869 40.2166 24.2248 40.2166 24.258C40.2166 24.2912 40.2166 24.3291 40.2166 24.3623C40.2166 24.3955 40.2166 24.4335 40.2166 24.4667C40.2166 24.4999 40.2166 24.5378 40.2166 24.571C40.2355 23.5941 40.1122 22.6173 39.8941 21.6641C39.9225 21.7827 39.8182 21.8301 39.7139 21.8111C39.6854 21.8064 39.6522 21.7921 39.6238 21.7779C39.5953 21.7589 39.5669 21.74 39.5384 21.7163C39.5147 21.6926 39.491 21.6641 39.4721 21.6357C39.4531 21.6072 39.4436 21.5787 39.4341 21.5503C40.0221 24.0541 39.8609 26.833 38.2676 28.9527C36.6268 31.1388 33.8906 32.0445 31.2351 32.0635C31.3584 32.0919 31.4627 32.182 31.5054 32.2863Z" fill="#6D1627"/>
<path d="M25.7478 31.4994L25.7051 31.4852C25.1503 31.2907 24.6049 31.0726 24.0691 30.8355C25.5202 31.4804 27.0424 31.9783 28.6073 32.2629C28.5741 32.2581 28.5456 32.2439 28.5172 32.2297C28.4887 32.2154 28.4602 32.1917 28.4365 32.168C28.4128 32.1443 28.3891 32.1159 28.3749 32.0922C28.3559 32.0637 28.3464 32.0352 28.337 32.0068C28.3085 31.8835 28.4223 31.8124 28.5314 31.8313C27.2984 31.6085 26.0892 31.2481 24.9274 30.7881C24.9938 30.8118 25.0554 30.8402 25.1218 30.864C25.1882 30.8877 25.2499 30.9161 25.3163 30.9398C25.3826 30.9635 25.449 30.9873 25.5107 31.011C25.5771 31.0347 25.6387 31.0584 25.7051 31.0821C25.8237 31.1248 25.9375 31.2386 25.9375 31.3714C25.9422 31.4757 25.8379 31.5184 25.7478 31.4994Z" fill="#A2000C"/>
<path d="M13.3601 21.1862C13.3364 21.191 13.3174 21.2005 13.2985 21.2147C13.2842 21.2289 13.27 21.2431 13.2653 21.2621C13.2558 21.2811 13.2558 21.3001 13.2558 21.3238C13.2558 21.3475 13.2605 21.3712 13.27 21.3996C13.2748 21.4186 13.2843 21.4328 13.289 21.4471C13.8438 22.348 14.4603 23.2064 15.1337 24.0267L15.1479 24.0362L15.347 24.1548L15.4656 24.1406C15.5889 24.0884 15.5415 23.9319 15.4751 23.8608C15.3897 23.7564 15.3044 23.6474 15.219 23.5431C15.1337 23.434 15.053 23.3297 14.9677 23.2206C14.8871 23.1115 14.8065 23.0072 14.7258 22.8981C14.6452 22.7891 14.5694 22.68 14.4887 22.5709C14.4745 22.552 14.4603 22.5282 14.4461 22.5093C14.4318 22.4903 14.4176 22.4713 14.4034 22.4476C14.3892 22.4287 14.3749 22.405 14.3607 22.386C14.3465 22.367 14.3322 22.3433 14.318 22.3243C14.318 22.3243 14.318 22.3196 14.3133 22.3196C14.3133 22.3196 14.3133 22.3149 14.3085 22.3149C14.3085 22.3149 14.3085 22.3101 14.3038 22.3101C14.3038 22.3101 14.3038 22.3054 14.2991 22.3054C14.2469 22.2295 14.1947 22.1489 14.1426 22.073C14.0904 21.9971 14.0382 21.9165 13.9861 21.8359C13.9339 21.7553 13.8865 21.6794 13.8343 21.5988C13.7869 21.5182 13.7347 21.4423 13.6873 21.3617L13.6826 21.357L13.6778 21.3522L13.6731 21.3475L13.6684 21.3427C13.6541 21.3238 13.6352 21.3048 13.6209 21.2906C13.602 21.2763 13.583 21.2621 13.564 21.2479C13.5451 21.2337 13.5214 21.2242 13.5024 21.2147C13.4834 21.2052 13.4597 21.2005 13.4407 21.1957C13.4313 21.1957 13.4265 21.191 13.417 21.191C13.4075 21.191 13.4028 21.191 13.3933 21.191C13.3838 21.191 13.3791 21.191 13.3696 21.191C13.3743 21.1815 13.3696 21.1862 13.3601 21.1862Z" fill="#FEFEFE"/>
<path d="M22.7848 29.8158C22.7611 29.8111 22.7421 29.8111 22.7184 29.8111C22.6994 29.8111 22.6805 29.8206 22.6615 29.8253C22.6473 29.8348 22.6283 29.8443 22.6188 29.8585C22.6093 29.8728 22.5999 29.887 22.5951 29.9059C22.5904 29.9297 22.5904 29.9581 22.5951 29.9866C22.5999 30.015 22.6141 30.0435 22.6283 30.0719C22.6473 30.1004 22.6662 30.1241 22.6947 30.1478C22.7184 30.1715 22.7516 30.1905 22.78 30.2094C22.8227 30.2332 22.8701 30.2569 22.9128 30.2806C22.9555 30.3043 23.0029 30.328 23.0503 30.3517C23.0978 30.3754 23.1404 30.3991 23.1879 30.4181C23.2353 30.4418 23.278 30.4608 23.3254 30.4845C23.3396 30.494 23.3586 30.4987 23.3728 30.5082C23.387 30.5177 23.4013 30.5224 23.4202 30.5319C23.4345 30.5414 23.4487 30.5461 23.4629 30.5556C23.4771 30.5604 23.4914 30.5698 23.5056 30.5746C24.2216 30.916 24.9567 31.2242 25.7059 31.4851L25.7486 31.4993C25.8387 31.5135 25.943 31.4756 25.9383 31.3665C25.9383 31.3381 25.9335 31.3049 25.9193 31.2764C25.9098 31.248 25.8908 31.2195 25.8719 31.1958C25.8529 31.1721 25.8245 31.1484 25.8007 31.1247C25.7723 31.1057 25.7438 31.0867 25.7106 31.0772C25.6443 31.0535 25.5826 31.0298 25.5162 31.0061C25.4498 30.9824 25.3834 30.9587 25.3218 30.935C25.2554 30.9113 25.1938 30.8876 25.1274 30.8591C25.061 30.8306 24.9946 30.8069 24.9329 30.7832C24.914 30.7737 24.895 30.769 24.876 30.7595C24.8571 30.75 24.8381 30.7453 24.8191 30.7358C24.8002 30.7263 24.7812 30.7216 24.7622 30.7121C24.7433 30.7026 24.7243 30.6979 24.7053 30.6884C24.6958 30.6836 24.6864 30.6789 24.6721 30.6742C24.6627 30.6694 24.6532 30.6647 24.6389 30.6599C24.6295 30.6552 24.62 30.6505 24.6057 30.6457C24.5963 30.641 24.5868 30.6362 24.5726 30.6315C24.5536 30.622 24.5346 30.6173 24.5156 30.6078C24.4967 30.5983 24.4777 30.5935 24.4587 30.5841C24.4398 30.5746 24.4208 30.5698 24.4018 30.5603C24.3829 30.5509 24.3639 30.5461 24.3449 30.5366C24.3307 30.5319 24.3165 30.5272 24.307 30.5177C24.2928 30.5129 24.2785 30.5082 24.2691 30.4987C24.2548 30.494 24.2406 30.4892 24.2311 30.4797C24.2169 30.475 24.2027 30.4703 24.1932 30.4608C24.1932 30.4608 24.1884 30.4608 24.1837 30.456C24.1837 30.456 24.179 30.456 24.179 30.4513C24.179 30.4465 24.1742 30.4513 24.1695 30.4465C24.1695 30.4465 24.1647 30.4465 24.1647 30.4418C24.0557 30.3944 23.9466 30.347 23.8375 30.2948C23.7285 30.2426 23.6194 30.1952 23.5151 30.1431C23.406 30.0909 23.2969 30.0387 23.1926 29.9866C23.0835 29.9344 22.9792 29.8775 22.8702 29.8206C22.8607 29.8158 22.8559 29.8111 22.8464 29.8111C22.837 29.8064 22.8322 29.8064 22.8227 29.8016C22.8132 29.7969 22.8085 29.7969 22.799 29.7969C22.799 29.8158 22.7895 29.8158 22.7848 29.8158Z" fill="#FEFEFE"/>
<path d="M33.6301 12.0993L33.7771 12.0708C33.7913 12.0613 33.8008 12.0424 33.8103 12.0281C33.815 12.0092 33.8198 11.9902 33.815 11.9712C33.815 11.9523 33.8055 11.9286 33.7961 11.9048C33.7866 11.8811 33.7723 11.8574 33.7581 11.8385C33.7534 11.8337 33.7534 11.829 33.7486 11.8242C33.7439 11.8195 33.7391 11.8147 33.7391 11.81C33.7344 11.8053 33.7297 11.8005 33.7249 11.7958C33.7202 11.791 33.7154 11.7863 33.7107 11.7816C33.5163 11.6014 33.3171 11.4259 33.1179 11.2552C32.9188 11.0845 32.7149 10.909 32.5062 10.743C32.2976 10.5771 32.0889 10.4111 31.8755 10.2499C31.6621 10.0886 31.4487 9.9274 31.2306 9.77565C31.2259 9.77091 31.2211 9.77092 31.2211 9.76617C31.2164 9.76617 31.2116 9.76143 31.2116 9.76143C31.2069 9.76143 31.2021 9.75669 31.2021 9.75669C31.1974 9.75669 31.1927 9.75195 31.1927 9.75195C31.1879 9.74721 31.1784 9.7472 31.1737 9.74246C31.169 9.73772 31.1595 9.73772 31.1547 9.73298C31.15 9.72823 31.1405 9.72824 31.1358 9.72824C31.131 9.72824 31.1215 9.7235 31.1168 9.7235C31.0978 9.71875 31.0836 9.71875 31.0646 9.71875C31.0504 9.71875 31.0314 9.7235 31.0172 9.7235C31.003 9.72824 30.9887 9.73298 30.9793 9.74246C30.9698 9.75195 30.9556 9.76143 30.9508 9.77565C30.8844 9.87998 30.9935 10.0128 31.0741 10.0697C31.9135 10.6672 32.7149 11.3121 33.4736 12.0092L33.6301 12.0993Z" fill="#FEFEFE"/>
<path d="M25.753 7.22917C25.7625 7.23391 25.7719 7.23392 25.7814 7.23866C25.7909 7.2434 25.8004 7.2434 25.8099 7.24815C25.8194 7.25289 25.8288 7.25288 25.8383 7.25762C25.8478 7.26237 25.8573 7.26237 25.8668 7.26711C25.8857 7.27185 25.9 7.28133 25.9189 7.28608C25.9379 7.29082 25.9521 7.30031 25.9711 7.30505C25.9901 7.30979 26.0043 7.31927 26.0233 7.32401C26.0422 7.32875 26.0565 7.33824 26.0754 7.34299C26.0802 7.34299 26.0802 7.34772 26.0849 7.34772C26.0897 7.34772 26.0897 7.35247 26.0944 7.35247C26.0991 7.35247 26.0991 7.35721 26.1039 7.35721C26.1086 7.35721 26.1086 7.36195 26.1134 7.36195C26.194 7.39514 26.2746 7.4236 26.3505 7.45679C26.4311 7.48998 26.5117 7.52318 26.5876 7.55638C26.6634 7.58957 26.7488 7.62277 26.8247 7.65596C26.9053 7.68916 26.9859 7.72709 27.0618 7.76028C27.536 7.97368 28.0055 8.2013 28.4654 8.44314L28.5508 8.48108C28.6219 8.4953 28.7168 8.47634 28.731 8.39098C28.7357 8.36727 28.7357 8.34356 28.731 8.31985C28.7262 8.29614 28.7168 8.27243 28.7025 8.24398C28.6883 8.22026 28.6693 8.19656 28.6504 8.17285C28.6267 8.14914 28.603 8.13017 28.5745 8.1112C28.5745 8.1112 28.5698 8.1112 28.5698 8.10646C28.5698 8.10646 28.565 8.10645 28.565 8.10171C28.565 8.10171 28.5603 8.10171 28.5603 8.09697C28.5603 8.09697 28.5555 8.09697 28.5555 8.09223C28.4891 8.05904 28.4228 8.0211 28.3564 7.98791C28.29 7.95471 28.2236 7.92152 28.1572 7.88358C28.0908 7.85039 28.0244 7.81719 27.958 7.78399C27.8916 7.7508 27.8253 7.71761 27.7589 7.68441C27.7589 7.68441 27.7541 7.68441 27.7541 7.67967C27.7541 7.67967 27.7494 7.67967 27.7494 7.67493C27.7494 7.67493 27.7446 7.67493 27.7446 7.67019C27.7446 7.67019 27.7399 7.67018 27.7399 7.66544C27.7304 7.6607 27.7257 7.65596 27.7162 7.65596C27.7067 7.65122 27.702 7.64648 27.6925 7.64648C27.683 7.64174 27.6782 7.64173 27.6688 7.63699C27.6593 7.63225 27.6545 7.6275 27.6451 7.6275C27.4886 7.55163 27.3321 7.4805 27.1756 7.40937C27.0191 7.33824 26.8626 7.27185 26.7061 7.20546C26.5496 7.13907 26.3931 7.07269 26.2367 7.01104C26.0802 6.94939 25.9237 6.88775 25.7625 6.83084C25.7577 6.83084 25.753 6.8261 25.7482 6.8261C25.7435 6.8261 25.7387 6.8261 25.734 6.82135C25.7293 6.82135 25.7245 6.82136 25.7198 6.81662C25.715 6.81187 25.7103 6.81661 25.7103 6.81187C25.6818 6.80713 25.6581 6.80713 25.6392 6.80713C25.6154 6.81187 25.5965 6.81662 25.5823 6.8261C25.5633 6.83559 25.5538 6.84981 25.5443 6.86403C25.5348 6.87826 25.5301 6.90197 25.5301 6.92094C25.5301 6.94939 25.5348 6.9731 25.5491 7.00156C25.5585 7.03001 25.5775 7.05372 25.6012 7.08217C25.6202 7.10588 25.6486 7.12959 25.6771 7.14856C25.6913 7.20072 25.7198 7.21969 25.753 7.22917Z" fill="#FEFEFE"/>
<path d="M37.6324 16.7749C37.6562 16.7701 37.6751 16.7607 37.6893 16.7512C37.7036 16.7369 37.7131 16.7227 37.7225 16.7085C37.7273 16.6895 37.732 16.6706 37.732 16.6516C37.732 16.6279 37.7273 16.6089 37.7131 16.5805C37.7131 16.5757 37.7083 16.571 37.7083 16.571C37.7083 16.5662 37.7036 16.5615 37.7036 16.5615C37.7036 16.5568 37.6988 16.5568 37.6988 16.552C37.6988 16.5473 37.6941 16.5425 37.6941 16.5425C37.5613 16.3339 37.4238 16.1205 37.2815 15.9118C37.1393 15.7032 36.9923 15.4945 36.8453 15.2906C36.6935 15.0867 36.5418 14.8781 36.3805 14.6741C36.2193 14.4702 36.0581 14.2711 35.8921 14.0719C35.8874 14.0672 35.8874 14.0624 35.8826 14.0577C35.8779 14.0529 35.8731 14.0482 35.8731 14.0482C35.8684 14.0435 35.8637 14.0387 35.8589 14.0387C35.8542 14.034 35.8494 14.034 35.8447 14.0292C35.8352 14.0197 35.821 14.0103 35.8068 14.0008C35.7925 13.9913 35.7783 13.9865 35.7688 13.9771C35.7546 13.9723 35.7404 13.9628 35.7261 13.9581C35.7119 13.9534 35.6977 13.9486 35.6835 13.9486C35.6455 13.9391 35.6028 13.9391 35.5649 13.9581C35.4511 14.0103 35.5175 14.162 35.5744 14.2284C36.2098 14.9871 36.7931 15.7838 37.3195 16.6184C37.3669 16.7038 37.457 16.7654 37.5518 16.7844L37.6324 16.7749Z" fill="#FEFEFE"/>
<path d="M22.9887 6.44198C23.0171 6.44672 23.0503 6.44672 23.074 6.44198C23.1025 6.43724 23.1214 6.42776 23.1404 6.41353C23.1594 6.3993 23.1736 6.38033 23.1831 6.36137C23.1926 6.33766 23.1926 6.31395 23.1878 6.2855C23.1641 6.16695 23.0645 6.06736 22.946 6.03891L22.8891 6.02942C22.8606 6.02468 22.8322 6.01994 22.8037 6.01046C22.7753 6.00572 22.7468 6.00097 22.7184 5.99149C22.6899 5.98674 22.6615 5.982 22.633 5.97726C22.6046 5.97252 22.5761 5.96778 22.5476 5.96303C22.5382 5.96303 22.5287 5.95829 22.5239 5.95829C22.5145 5.95829 22.505 5.95355 22.5002 5.95355C22.4907 5.95355 22.4813 5.94881 22.4765 5.94881C22.467 5.94881 22.4575 5.94407 22.4528 5.94407C22.4481 5.94407 22.4433 5.94406 22.4386 5.93932C22.4338 5.93932 22.4291 5.93933 22.4244 5.93458C22.4196 5.93458 22.4149 5.93459 22.4101 5.92984C22.4054 5.92984 22.4006 5.92984 22.3959 5.9251C22.2442 5.89664 22.0877 5.87294 21.9359 5.85397C21.7842 5.83026 21.6324 5.81129 21.4807 5.79706C21.3289 5.77809 21.1772 5.76387 21.0254 5.75438C20.8737 5.74016 20.7267 5.73068 20.5797 5.72119C20.5749 5.72119 20.5702 5.72119 20.5655 5.72119C20.5607 5.72119 20.556 5.72119 20.5512 5.72119C20.5465 5.72119 20.5418 5.72119 20.537 5.72119C20.5323 5.72119 20.5275 5.72119 20.5228 5.72119C20.518 5.72119 20.5086 5.72119 20.5038 5.72119C20.4943 5.72119 20.4896 5.72119 20.4848 5.72119C20.4801 5.72119 20.4706 5.72119 20.4659 5.72119C20.4611 5.72119 20.4517 5.72119 20.4469 5.72119C20.4327 5.72119 20.4137 5.72119 20.3995 5.72119C20.3853 5.72119 20.3663 5.72119 20.3521 5.72119C20.3378 5.72119 20.3189 5.72119 20.3046 5.72119C20.2904 5.72119 20.2715 5.72119 20.2572 5.72119C20.2572 5.72119 20.2572 5.72119 20.2525 5.72119C20.2525 5.72119 20.2525 5.72119 20.2477 5.72119C20.2477 5.72119 20.2477 5.72119 20.243 5.72119C20.243 5.72119 20.243 5.72119 20.2383 5.72119C20.1244 5.72593 20.0818 5.83026 20.1244 5.9251C20.1624 6.02942 20.2715 6.11004 20.3805 6.12901L20.4232 6.13849C20.6176 6.14323 20.812 6.15272 21.0065 6.16695C21.2009 6.18117 21.4001 6.20014 21.5992 6.22385C21.7984 6.24756 21.9976 6.27127 22.2015 6.30446C22.4054 6.33292 22.6093 6.37085 22.8132 6.40879C22.8179 6.40879 22.8179 6.40879 22.8227 6.40879C22.8274 6.40879 22.8274 6.40879 22.8322 6.40879C22.8369 6.40879 22.8369 6.40879 22.8417 6.40879C22.8464 6.40879 22.8464 6.40879 22.8511 6.40879C22.8654 6.41353 22.8796 6.41353 22.8938 6.41828C22.908 6.42302 22.9223 6.42301 22.9365 6.42776C22.9507 6.4325 22.965 6.4325 22.9792 6.43724C22.9602 6.4325 22.9744 6.43724 22.9887 6.44198Z" fill="#FEFEFE"/>
<path d="M39.4387 21.5598C39.4434 21.5882 39.4576 21.6167 39.4766 21.6451C39.4956 21.6736 39.5145 21.702 39.543 21.7257C39.5667 21.7495 39.5952 21.7732 39.6284 21.7874C39.6568 21.8064 39.69 21.8158 39.7185 21.8206C39.8228 21.8396 39.9271 21.7921 39.8987 21.6736C39.8939 21.6499 39.8892 21.6309 39.8844 21.6072C39.8797 21.593 39.8797 21.5787 39.8749 21.5645C39.8702 21.5503 39.8702 21.5361 39.8655 21.5218C39.8607 21.5076 39.8607 21.4934 39.856 21.4792C39.856 21.4697 39.8512 21.4649 39.8512 21.4554C39.8512 21.446 39.8465 21.4412 39.8465 21.4317C39.8465 21.4222 39.8417 21.4175 39.8417 21.408C39.8417 21.3985 39.837 21.3938 39.837 21.3843C39.837 21.3796 39.8323 21.3748 39.8323 21.3653C39.8323 21.3606 39.8275 21.3559 39.8275 21.3464C39.8275 21.3416 39.8228 21.3369 39.8228 21.3274C39.8228 21.3227 39.818 21.3179 39.818 21.3084C39.8133 21.299 39.8133 21.2895 39.8086 21.2752C39.8038 21.2658 39.8038 21.2563 39.7991 21.2421C39.7943 21.2326 39.7943 21.2231 39.7896 21.2089C39.7848 21.1994 39.7848 21.1899 39.7801 21.1757C39.7801 21.1709 39.7801 21.1709 39.7801 21.1662C39.7801 21.1614 39.7801 21.1614 39.7801 21.1567C39.7801 21.1519 39.7801 21.152 39.7801 21.1472C39.7801 21.1425 39.7801 21.1425 39.7801 21.1377C39.7754 21.1282 39.7754 21.1188 39.7706 21.1045C39.7659 21.095 39.7659 21.0856 39.7611 21.0713C39.7564 21.0619 39.7564 21.0524 39.7516 21.0381C39.7469 21.0287 39.7469 21.0192 39.7422 21.0049C39.7422 21.0002 39.7422 21.0002 39.7422 20.9955C39.7422 20.9907 39.7422 20.9907 39.7374 20.986C39.7374 20.9812 39.7374 20.9812 39.7374 20.9765C39.7374 20.9718 39.7374 20.9718 39.7327 20.967C39.7279 20.9575 39.7279 20.948 39.7232 20.9386C39.7232 20.9291 39.7185 20.9196 39.7137 20.9101C39.709 20.9006 39.709 20.8911 39.7042 20.8817C39.6995 20.8722 39.6995 20.8627 39.6947 20.8532C39.6947 20.8485 39.69 20.8437 39.69 20.839C39.69 20.8342 39.69 20.8295 39.6853 20.8247C39.6853 20.82 39.6805 20.8153 39.6805 20.8105C39.6805 20.8058 39.6758 20.801 39.6758 20.7963C39.6758 20.7868 39.671 20.7821 39.6663 20.7726C39.6663 20.7631 39.6616 20.7536 39.6568 20.7489C39.6521 20.7394 39.6521 20.7299 39.6473 20.7252C39.6426 20.7157 39.6426 20.7109 39.6378 20.7015C39.6378 20.6967 39.6331 20.692 39.6331 20.6825C39.6331 20.6777 39.6284 20.673 39.6284 20.6635C39.6284 20.6588 39.6236 20.654 39.6236 20.6446C39.6236 20.6398 39.6189 20.6351 39.6189 20.6256C39.6189 20.6208 39.6141 20.6114 39.6141 20.6066C39.6141 20.6019 39.6094 20.5924 39.6094 20.5876C39.6094 20.5829 39.6046 20.5734 39.6046 20.5687C39.6046 20.5639 39.5999 20.5544 39.5999 20.5497C39.5999 20.5402 39.5952 20.5307 39.5904 20.526C39.5857 20.5165 39.5857 20.507 39.5809 20.5023C39.5762 20.4928 39.5762 20.4833 39.5714 20.4786C39.5667 20.4691 39.5667 20.4596 39.562 20.4549C39.562 20.4501 39.562 20.4454 39.5572 20.4454C39.5572 20.4406 39.5572 20.4359 39.5525 20.4359C39.5525 20.4312 39.5525 20.4264 39.5477 20.4264C39.5477 20.4217 39.5477 20.4169 39.543 20.4169C39.5051 20.3031 39.4671 20.1893 39.4292 20.0802C39.3913 19.9664 39.3486 19.8526 39.3059 19.7436C39.2632 19.6297 39.2205 19.5207 39.1731 19.4069C39.1304 19.2931 39.083 19.184 39.0356 19.0702C39.0356 19.0654 39.0309 19.0654 39.0309 19.0607C39.0309 19.056 39.0261 19.056 39.0261 19.0512C39.0261 19.0465 39.0214 19.0465 39.0214 19.0417C39.0214 19.037 39.0166 19.037 39.0166 19.0322C39.0024 19.0085 38.9882 18.9896 38.9692 18.9706C38.9502 18.9516 38.9313 18.9327 38.9123 18.9184C38.8933 18.9042 38.8696 18.89 38.8507 18.8805C38.8269 18.871 38.808 18.8615 38.7843 18.8568C38.7653 18.852 38.7511 18.8521 38.7321 18.8521C38.7037 18.8521 38.6799 18.8568 38.6562 18.8663C38.6373 18.8758 38.6183 18.89 38.6088 18.909C38.5993 18.9279 38.5898 18.9469 38.5898 18.9753C38.5898 18.9991 38.5946 19.0275 38.6088 19.056C38.6894 19.2456 38.77 19.4401 38.8412 19.6297C38.9123 19.8194 38.9834 20.0139 39.0498 20.2035C39.1162 20.3932 39.1731 20.5876 39.23 20.7773C39.2869 20.967 39.3391 21.1614 39.3865 21.3511C39.3865 21.3511 39.3865 21.3511 39.3865 21.3559C39.3865 21.3559 39.3865 21.3559 39.3865 21.3606C39.3865 21.3606 39.3865 21.3606 39.3865 21.3653C39.3865 21.3653 39.3865 21.3653 39.3865 21.3701C39.3913 21.3843 39.3913 21.3985 39.396 21.408C39.4007 21.4223 39.4007 21.4365 39.4055 21.446C39.4102 21.4602 39.4102 21.4744 39.415 21.4886C39.4339 21.5361 39.4339 21.5455 39.4387 21.5598Z" fill="#FEFEFE"/>
<path d="M17.9513 6.29586C17.9798 6.29112 17.9988 6.28163 18.0177 6.26741C18.0367 6.25318 18.0462 6.23422 18.0509 6.2105C18.0557 6.18679 18.0604 6.16308 18.0509 6.13937C18.0462 6.11092 18.032 6.08721 18.0177 6.05876C18.0035 6.03979 17.9893 6.01608 17.9703 5.99711C17.9513 5.97814 17.9324 5.96392 17.9134 5.94969C17.8944 5.93546 17.8707 5.92124 17.847 5.91175C17.8233 5.90227 17.8043 5.89278 17.7806 5.88804C17.7759 5.88804 17.7664 5.88804 17.7617 5.8833C17.7569 5.8833 17.7474 5.8833 17.7427 5.8833C17.738 5.8833 17.7285 5.8833 17.7237 5.8833C17.719 5.8833 17.7095 5.8833 17.7048 5.8833C16.9365 6.01608 16.1778 6.23896 15.4618 6.55193C15.457 6.55193 15.457 6.55667 15.4523 6.55667C15.4475 6.55667 15.4475 6.56141 15.4428 6.56141C15.438 6.56141 15.438 6.56616 15.4333 6.56616L15.4286 6.5709C15.3479 6.64203 15.3954 6.76059 15.4523 6.82698L15.6609 6.95501L15.7795 6.95027C15.9454 6.87439 16.1162 6.808 16.2916 6.74161C16.4671 6.67523 16.6425 6.61832 16.8275 6.56141C17.0077 6.50451 17.1926 6.45709 17.3823 6.40967C17.572 6.37173 17.7617 6.3338 17.9513 6.29586C17.9798 6.29112 17.7617 6.3338 17.9513 6.29586Z" fill="#FEFEFE"/>
<path d="M39.7661 23.9975C39.7708 24.1919 39.7661 24.3816 39.7566 24.5713C39.7471 24.761 39.7376 24.9507 39.7187 25.1356C39.6997 25.3206 39.676 25.5055 39.6475 25.6904C39.6191 25.8706 39.5859 26.0508 39.5432 26.231C39.5148 26.3543 39.6333 26.4776 39.7281 26.525L39.8135 26.5535C39.8325 26.5582 39.8514 26.5582 39.8704 26.5582C39.8894 26.5582 39.9036 26.5535 39.9178 26.5488C39.9321 26.544 39.9463 26.5345 39.9558 26.5298C39.9653 26.5203 39.9747 26.5108 39.9842 26.4966C39.989 26.4871 39.9937 26.4776 39.9937 26.4681C40.0269 26.3259 40.0554 26.1836 40.0838 26.0366C40.1075 25.8896 40.1312 25.7426 40.1502 25.5956C40.1692 25.4486 40.1834 25.2968 40.1929 25.1451C40.2024 24.9934 40.2118 24.8416 40.2166 24.6851C40.2166 24.6804 40.2166 24.6804 40.2166 24.6756C40.2166 24.6709 40.2166 24.6709 40.2166 24.6662C40.2166 24.6614 40.2166 24.6614 40.2166 24.6567C40.2166 24.6519 40.2166 24.6519 40.2166 24.6472C40.2166 24.6424 40.2166 24.6377 40.2166 24.6282C40.2166 24.6187 40.2166 24.6187 40.2166 24.6092C40.2166 24.6045 40.2166 24.5998 40.2166 24.5903C40.2166 24.5855 40.2166 24.5808 40.2166 24.5713C40.2166 24.5381 40.2166 24.5002 40.2166 24.467C40.2166 24.4338 40.2166 24.3959 40.2166 24.3627C40.2166 24.3295 40.2166 24.2915 40.2166 24.2583C40.2166 24.2251 40.2166 24.1872 40.2166 24.154C40.2118 24.026 40.0933 23.9122 39.9795 23.8742C39.9747 23.8742 39.9747 23.8695 39.97 23.8695C39.9653 23.8695 39.9653 23.8695 39.9605 23.8647C39.9558 23.8647 39.9558 23.8647 39.951 23.86C39.9463 23.86 39.9463 23.86 39.9415 23.86C39.9178 23.8553 39.8941 23.8553 39.8704 23.86C39.8467 23.8647 39.8277 23.8695 39.8135 23.8837C39.7993 23.8932 39.7851 23.9122 39.7756 23.9264C39.7661 23.9501 39.7613 23.9738 39.7661 23.9975C39.7661 24.1872 39.7613 23.9738 39.7661 23.9975Z" fill="#FEFEFE"/>
<path d="M12.6116 9.61069C12.7064 9.46843 12.806 9.32617 12.9103 9.18865C13.0147 9.05113 13.1237 8.91835 13.2375 8.79031C13.3514 8.66228 13.4699 8.53424 13.5979 8.41569C13.7212 8.29713 13.8493 8.17858 13.9868 8.06952C14.0864 7.9889 14.001 7.8419 13.9251 7.78025C13.9109 7.76602 13.8967 7.75654 13.8825 7.74705C13.8682 7.73757 13.854 7.72809 13.835 7.7186C13.8208 7.70912 13.8066 7.70438 13.7876 7.69964C13.7734 7.69489 13.7592 7.69015 13.7402 7.68541C13.7307 7.68541 13.7212 7.68066 13.7118 7.68066C13.7023 7.68066 13.6928 7.68066 13.6833 7.68066C13.6738 7.68066 13.6643 7.68067 13.6548 7.68541C13.6454 7.68541 13.6359 7.69015 13.6311 7.69015C13.6169 7.69489 13.6074 7.69964 13.5932 7.70912C13.4557 7.82293 13.3229 7.94148 13.1901 8.06952C13.0621 8.19281 12.9388 8.32084 12.8202 8.45836C12.7017 8.59114 12.5879 8.72867 12.4788 8.87093C12.3697 9.01319 12.2702 9.15545 12.1706 9.30245C12.1706 9.30719 12.1658 9.31194 12.1658 9.31194C12.1658 9.31668 12.1611 9.32142 12.1611 9.32142C12.1611 9.32617 12.1564 9.33091 12.1564 9.33565C12.1564 9.34039 12.1564 9.34513 12.1516 9.34987C12.1326 9.44946 12.2133 9.54905 12.2891 9.60595L12.4314 9.67234L12.6116 9.61069Z" fill="#FEFEFE"/>
<path d="M38.7842 28.1895C38.4523 28.7965 38.016 29.3466 37.5181 29.8255C37.4375 29.9156 37.5181 30.0579 37.5892 30.1243L37.7694 30.2144L37.9022 30.1859L37.9164 30.1812C38.0444 30.0579 38.1677 29.9298 38.2863 29.7971C38.4048 29.6643 38.5186 29.5268 38.6277 29.3892C38.7368 29.247 38.8411 29.1047 38.9407 28.9577C39.0403 28.8107 39.1304 28.659 39.2157 28.5025C39.2157 28.4977 39.2205 28.4977 39.2205 28.493C39.2205 28.4883 39.2252 28.4883 39.2252 28.4835C39.2252 28.4788 39.2252 28.474 39.23 28.474C39.23 28.4693 39.23 28.4645 39.2347 28.4598C39.2489 28.3555 39.1683 28.2559 39.0924 28.199C39.083 28.1895 39.0687 28.1848 39.0592 28.1753C39.0498 28.1705 39.0355 28.1611 39.026 28.1563C39.0166 28.1516 39.0023 28.1468 38.9928 28.1421C38.9834 28.1373 38.9691 28.1373 38.9597 28.1326C38.8933 28.1231 38.8221 28.1326 38.7842 28.1895C38.6988 28.3412 38.7937 28.1753 38.7842 28.1895Z" fill="#FEFEFE"/>
<path d="M11.2031 13.8597C11.2268 13.8645 11.2505 13.8645 11.2695 13.8645C11.2885 13.8645 11.3074 13.855 11.3264 13.8502C11.3454 13.8408 11.3596 13.8313 11.3691 13.817C11.3786 13.8028 11.3881 13.7886 11.3928 13.7649C11.3928 13.7554 11.3975 13.7507 11.3975 13.7412C11.4023 13.6226 11.407 13.5041 11.4118 13.3903C11.4213 13.2717 11.4307 13.1579 11.4402 13.0441C11.4497 12.9303 11.4639 12.8165 11.4782 12.7027C11.4924 12.5889 11.5114 12.4798 11.5303 12.3707C11.5445 12.2996 11.5588 12.2237 11.573 12.1526C11.5872 12.0814 11.6014 12.0103 11.6204 11.9392C11.6346 11.8681 11.6536 11.7969 11.6726 11.7305C11.6915 11.6594 11.7105 11.593 11.7295 11.5219C11.7674 11.4033 11.6536 11.28 11.5588 11.2279C11.5493 11.2231 11.5398 11.2184 11.5351 11.2184C11.5303 11.2184 11.5208 11.2136 11.5114 11.2089C11.5019 11.2042 11.4971 11.2042 11.4876 11.1994C11.4782 11.1994 11.4734 11.1947 11.4639 11.1947C11.445 11.1899 11.426 11.1899 11.407 11.1899C11.3881 11.1899 11.3738 11.1947 11.3596 11.1994C11.3454 11.2042 11.3312 11.2089 11.3169 11.2184C11.3027 11.2279 11.2932 11.2374 11.2885 11.2468C11.2885 11.2468 11.2837 11.2516 11.2837 11.2563C11.2837 11.2563 11.279 11.2611 11.279 11.2658C11.279 11.2706 11.2742 11.2706 11.2742 11.2753C11.2742 11.28 11.2742 11.28 11.2695 11.2848C11.2173 11.4602 11.1699 11.6452 11.1272 11.8301C11.0846 12.0151 11.0514 12.2047 11.0229 12.3944C10.9945 12.5841 10.9708 12.7785 10.9518 12.9777C10.9328 13.1769 10.9233 13.3713 10.9138 13.5752C10.9138 13.5799 10.9138 13.5799 10.9138 13.5847C10.9138 13.5894 10.9138 13.5942 10.9138 13.5942C10.9138 13.5989 10.9138 13.6037 10.9138 13.6037C10.9138 13.6084 10.9138 13.6131 10.9138 13.6131C10.9376 13.7269 11.0419 13.817 11.1462 13.855L11.2031 13.8597Z" fill="#FEFEFE"/>
<path d="M11.1368 16.0694C11.1368 16.0742 11.1368 16.0742 11.1368 16.0789C11.1415 16.1121 11.151 16.1501 11.1557 16.1833C11.1605 16.1975 11.1605 16.2117 11.1652 16.2259C11.17 16.2402 11.17 16.2544 11.1747 16.2686C11.1795 16.2828 11.1795 16.2971 11.1842 16.3113V16.316V16.3208V16.3255C11.1842 16.3303 11.1842 16.3303 11.1842 16.335C11.1842 16.3445 11.1889 16.3587 11.1937 16.3682C11.1984 16.3777 11.1984 16.3919 11.2032 16.4014C11.2079 16.4109 11.2079 16.4251 11.2127 16.4346C11.2174 16.4441 11.2174 16.4583 11.2221 16.4678C11.2221 16.4773 11.2269 16.482 11.2269 16.4915C11.2269 16.4962 11.2316 16.5057 11.2316 16.5105C11.2316 16.5152 11.2364 16.5247 11.2364 16.5294C11.2364 16.5342 11.2411 16.5437 11.2411 16.5484C11.2411 16.5531 11.2458 16.5626 11.2458 16.5674C11.2458 16.5721 11.2506 16.5816 11.2506 16.5863C11.2506 16.5911 11.2553 16.6006 11.2553 16.6053C11.2553 16.61 11.2601 16.6195 11.2601 16.6243C11.2601 16.6337 11.2648 16.6432 11.2648 16.648C11.2648 16.6575 11.2696 16.6669 11.2696 16.6717C11.2696 16.6812 11.2743 16.6907 11.2743 16.6954C11.2743 16.7049 11.279 16.7144 11.279 16.7191C11.279 16.7238 11.2838 16.7286 11.2838 16.7333C11.2838 16.7381 11.2885 16.7428 11.2885 16.7476C11.2885 16.7523 11.2933 16.757 11.2933 16.7618C11.2933 16.7665 11.2933 16.7713 11.298 16.776C11.298 16.7855 11.3028 16.795 11.3075 16.8045C11.3122 16.8139 11.3122 16.8234 11.317 16.8329C11.3217 16.8424 11.3217 16.8519 11.3265 16.8614C11.3312 16.8708 11.3312 16.8803 11.3359 16.8898C11.3359 16.8946 11.3359 16.8993 11.3407 16.904C11.3407 16.9088 11.3407 16.9135 11.3454 16.9183C11.3454 16.923 11.3454 16.9278 11.3502 16.9325C11.3502 16.9372 11.3502 16.942 11.3549 16.9467C11.3549 16.9562 11.3597 16.9657 11.3644 16.9752C11.3644 16.9847 11.3691 16.9941 11.3739 17.0036C11.3739 17.0131 11.3786 17.0226 11.3834 17.0321C11.3881 17.0416 11.3881 17.051 11.3929 17.0605C11.3929 17.0653 11.3976 17.07 11.3976 17.0748C11.3976 17.0795 11.4023 17.0842 11.4023 17.089C11.4023 17.0937 11.4071 17.0985 11.4071 17.1032C11.4071 17.108 11.4118 17.1127 11.4118 17.1174C11.4166 17.1269 11.4166 17.1364 11.4213 17.1459C11.426 17.1554 11.426 17.1649 11.4308 17.1743C11.4355 17.1838 11.4355 17.1933 11.4403 17.2028C11.445 17.2123 11.445 17.2218 11.4498 17.2312C11.4498 17.236 11.4545 17.2407 11.4545 17.2455C11.4545 17.2502 11.4592 17.255 11.4592 17.2597C11.4592 17.2644 11.464 17.2692 11.464 17.2787C11.464 17.2834 11.4687 17.2882 11.4687 17.2929C11.4687 17.3024 11.4735 17.3071 11.4735 17.3166C11.4782 17.3261 11.4782 17.3308 11.483 17.3403C11.4877 17.3498 11.4877 17.3545 11.4924 17.364C11.4924 17.3735 11.4972 17.3782 11.5019 17.3877C11.5019 17.3925 11.5067 17.402 11.5067 17.4067C11.5067 17.4114 11.5114 17.4209 11.5114 17.4257C11.5114 17.4304 11.5161 17.4399 11.5161 17.4446C11.5161 17.4494 11.5209 17.4589 11.5209 17.4636C11.5209 17.4731 11.5256 17.4778 11.5304 17.4873C11.5304 17.4968 11.5351 17.5015 11.5399 17.511C11.5399 17.5205 11.5446 17.5253 11.5493 17.5347C11.5493 17.5442 11.5541 17.549 11.5588 17.5584C11.5588 17.5632 11.5636 17.5727 11.5636 17.5774C11.5636 17.5822 11.5683 17.5916 11.5683 17.5964C11.5683 17.6011 11.573 17.6106 11.573 17.6154C11.573 17.6201 11.5778 17.6296 11.5778 17.6343C11.5778 17.6391 11.5825 17.6438 11.5825 17.6533C11.5825 17.658 11.5873 17.6628 11.5873 17.6723C11.5873 17.677 11.592 17.6817 11.592 17.6912C11.592 17.696 11.5968 17.7007 11.5968 17.7102C11.6015 17.7197 11.6015 17.7292 11.6062 17.7386C11.611 17.7481 11.611 17.7576 11.6157 17.7671C11.6205 17.7766 11.6205 17.7861 11.6252 17.7956C11.63 17.805 11.63 17.8145 11.6347 17.8193C11.6347 17.824 11.6394 17.8287 11.6394 17.8335C11.6394 17.8382 11.6442 17.843 11.6442 17.8477C11.6442 17.8525 11.6489 17.8572 11.6489 17.8619C11.6489 17.8667 11.6537 17.8714 11.6537 17.8762C11.6584 17.8857 11.6631 17.8951 11.6631 17.9094C11.6679 17.9188 11.6726 17.9283 11.6726 17.9426C11.6774 17.952 11.6821 17.9615 11.6821 17.9758C11.6869 17.9852 11.6916 17.9947 11.6916 18.0089C11.6916 18.0089 11.6916 18.0137 11.6963 18.0184C11.6963 18.0184 11.6963 18.0232 11.7011 18.0232C11.7011 18.0232 11.7011 18.0279 11.7058 18.0327V18.0374C11.7106 18.0516 11.7153 18.0611 11.7201 18.0753C11.7248 18.0896 11.7295 18.099 11.7343 18.1133C11.739 18.1275 11.7438 18.137 11.7485 18.1512C11.7532 18.1654 11.758 18.1749 11.7627 18.1891C11.7627 18.1891 11.7627 18.1891 11.7627 18.1939C11.7627 18.1939 11.7627 18.1939 11.7627 18.1986C11.7627 18.1986 11.7627 18.1986 11.7627 18.2034C11.8339 18.3978 11.905 18.5922 11.9856 18.7866C11.9856 18.7866 11.9856 18.7866 11.9856 18.7914C11.9856 18.7914 11.9856 18.7914 11.9856 18.7961C11.9856 18.7961 11.9856 18.7961 11.9856 18.8009C11.9856 18.8009 11.9856 18.8009 11.9856 18.8056C12.0283 18.9052 12.1374 18.9858 12.2417 19.0048L12.2844 19.0143C12.3176 19.0143 12.346 19.0095 12.3697 19C12.3934 18.9906 12.4077 18.9716 12.4219 18.9526C12.4314 18.9337 12.4408 18.9099 12.4408 18.8815C12.4408 18.853 12.4361 18.8246 12.4219 18.7961V18.7914V18.7866V18.7819V18.7772C12.346 18.5922 12.2749 18.4073 12.2085 18.2223C12.1421 18.0374 12.0805 17.8525 12.0188 17.6675C11.9619 17.4826 11.905 17.2976 11.8576 17.1127C11.8054 16.9278 11.7627 16.7428 11.7201 16.5626C11.7153 16.5484 11.7153 16.5342 11.7106 16.5247C11.7058 16.5105 11.7058 16.501 11.7011 16.4867C11.6963 16.4725 11.6963 16.463 11.6916 16.4488C11.6869 16.4346 11.6869 16.4251 11.6821 16.4109C11.6726 16.3587 11.6584 16.3018 11.6489 16.2496C11.6442 16.2022 11.6252 16.1453 11.6015 16.1026C11.5825 16.0742 11.5636 16.0505 11.5399 16.0268C11.5161 16.0031 11.4877 15.9841 11.4592 15.9699C11.4308 15.9556 11.3976 15.9414 11.3644 15.9367C11.3312 15.9319 11.3028 15.9319 11.2743 15.9367C11.2458 15.9414 11.2269 15.9509 11.2079 15.9651C11.1889 15.9793 11.1795 15.9983 11.17 16.0173C11.1368 16.0173 11.1368 16.041 11.1368 16.0694Z" fill="#FEFEFE"/>
<path d="M28.5276 31.8264C28.4944 31.8216 28.466 31.8216 28.4422 31.8264C28.4138 31.8311 28.3948 31.8453 28.3759 31.8596C28.3569 31.8738 28.3427 31.8975 28.3379 31.9212C28.3284 31.9449 28.3284 31.9734 28.3379 32.0018C28.3664 32.1251 28.4849 32.2389 28.6082 32.2627L28.6272 32.2674C28.7884 32.2958 28.9496 32.3243 29.1109 32.348C29.2626 32.3717 29.4096 32.3907 29.5614 32.4097C29.7084 32.4286 29.8601 32.4428 30.0071 32.4571C30.1541 32.4713 30.3011 32.4808 30.4481 32.4903H30.4529H30.4576H30.4624H30.4671C30.4766 32.4903 30.4908 32.4903 30.5003 32.4903C30.5098 32.4903 30.524 32.4903 30.5335 32.4903C30.543 32.4903 30.5572 32.4903 30.5667 32.4903C30.5762 32.4903 30.5904 32.4903 30.5999 32.4903C30.6046 32.4903 30.6141 32.4903 30.6189 32.4903C30.6236 32.4903 30.6331 32.4903 30.6378 32.4903C30.6426 32.4903 30.6521 32.4903 30.6568 32.4903C30.6615 32.4903 30.671 32.4903 30.6758 32.4903C30.6805 32.4903 30.69 32.4903 30.6947 32.4903C30.6995 32.4903 30.709 32.4903 30.7137 32.4903C30.7184 32.4903 30.7232 32.4903 30.7327 32.4903C30.7374 32.4903 30.7469 32.4903 30.7516 32.4903C30.7611 32.4903 30.7753 32.4903 30.7848 32.4903C30.7943 32.4903 30.8085 32.4903 30.818 32.4903C30.8275 32.4903 30.8417 32.4903 30.8512 32.4903C30.8607 32.4903 30.8749 32.4903 30.8844 32.4903C30.9271 32.4903 30.9698 32.4903 31.0125 32.495C31.0551 32.495 31.0978 32.495 31.1405 32.495C31.1832 32.495 31.2258 32.495 31.2638 32.495C31.3065 32.495 31.3444 32.495 31.3871 32.495C31.4155 32.495 31.444 32.4903 31.4629 32.476C31.4819 32.4666 31.5009 32.4476 31.5104 32.4286C31.5199 32.4096 31.5246 32.3859 31.5246 32.3575C31.5246 32.329 31.5151 32.3006 31.5056 32.2721C31.4961 32.2437 31.4772 32.22 31.4629 32.1963C31.444 32.1726 31.425 32.1488 31.4013 32.1299C31.3776 32.1109 31.3539 32.0919 31.3254 32.0824C31.297 32.0682 31.2733 32.0587 31.2448 32.054H31.2401H31.2353H31.2306H31.2258H31.2211H31.2164H31.2116H31.2069C31.0077 32.054 30.8038 32.0493 30.5999 32.0445C30.396 32.035 30.1873 32.0208 29.9787 32.0066C29.77 31.9876 29.5614 31.9686 29.348 31.9402C29.1346 31.9117 28.9212 31.8833 28.7078 31.8453C28.6936 31.8453 28.6794 31.8406 28.6651 31.8359C28.6509 31.8359 28.6367 31.8311 28.6224 31.8264C28.6082 31.8264 28.594 31.8216 28.5798 31.8169C28.5561 31.8311 28.5418 31.8311 28.5276 31.8264Z" fill="#FEFEFE"/>
<path d="M14.3094 22.3054C14.3284 22.3291 14.3426 22.3528 14.3569 22.3765C14.3711 22.4002 14.39 22.4192 14.4043 22.4429C14.4185 22.4619 14.4327 22.4856 14.447 22.5045C14.4612 22.5235 14.4754 22.5472 14.4896 22.5662C15.0824 23.396 15.7415 24.2022 16.4623 24.9657C17.1831 25.7292 17.9608 26.4547 18.7859 27.1281C19.6111 27.8014 20.4789 28.4226 21.3799 28.9869C22.2809 29.5465 23.215 30.0444 24.1729 30.4665C24.1919 30.476 24.2109 30.4854 24.2298 30.4902C24.2488 30.4997 24.263 30.5044 24.2773 30.5091C24.2915 30.5139 24.3057 30.5234 24.3199 30.5281C24.3342 30.5329 24.3484 30.5376 24.3579 30.5471C24.3768 30.5566 24.3958 30.5613 24.4148 30.5708C24.4338 30.5803 24.4527 30.585 24.4717 30.5945C24.4907 30.604 24.5096 30.6087 24.5286 30.6182C24.5476 30.6277 24.5665 30.6324 24.5855 30.6419C24.595 30.6467 24.6045 30.6514 24.6187 30.6562C24.6282 30.6609 24.6377 30.6656 24.6519 30.6704C24.6614 30.6751 24.6709 30.6799 24.6851 30.6846C24.6946 30.6894 24.704 30.6941 24.7183 30.6988C24.7372 30.7083 24.7562 30.7131 24.7752 30.7225C24.7941 30.732 24.8131 30.7368 24.8321 30.7463C24.8511 30.7557 24.87 30.7605 24.889 30.77C24.908 30.7747 24.9269 30.7842 24.9459 30.7937C25.2399 30.9122 25.5387 31.0213 25.8374 31.1256C26.1362 31.2299 26.4349 31.3248 26.7384 31.4101C27.0371 31.4955 27.3406 31.5761 27.6441 31.6473C27.9476 31.7184 28.2464 31.78 28.5499 31.8369C28.5641 31.8369 28.5783 31.8417 28.5925 31.8464C28.6068 31.8464 28.621 31.8512 28.6352 31.8559C28.6495 31.8606 28.6637 31.8606 28.6779 31.8654C28.6921 31.8701 28.7064 31.8701 28.7206 31.8749C28.934 31.9128 29.1474 31.9413 29.3608 31.9697C29.5742 31.9982 29.7828 32.0171 29.9915 32.0361C30.2001 32.0551 30.4088 32.0693 30.6127 32.074C30.8166 32.0835 31.0205 32.0883 31.2197 32.0835C32.7608 32.074 34.1455 31.7943 35.3215 31.2774C36.4928 30.7652 37.465 30.0207 38.2 29.0865C38.9303 28.1571 39.4234 27.038 39.6463 25.7718C39.8644 24.5104 39.817 23.0973 39.4566 21.5751C39.4519 21.5609 39.4519 21.5466 39.4471 21.5372C39.4424 21.5229 39.4424 21.5087 39.4377 21.4945C39.4329 21.4803 39.4329 21.466 39.4282 21.4565C39.4234 21.4423 39.4234 21.4281 39.4187 21.4186C39.0678 20.015 38.4892 18.6255 37.721 17.2883C36.9576 15.9557 36.0091 14.6706 34.9185 13.4851C33.8325 12.2996 32.6043 11.1994 31.286 10.2368C29.963 9.27417 28.5451 8.43956 27.0798 7.78516C26.9992 7.74722 26.9186 7.71403 26.8427 7.68083C26.7621 7.64764 26.6815 7.61445 26.6056 7.58125C26.5297 7.54806 26.4444 7.51486 26.3685 7.48167C26.2879 7.44847 26.2073 7.41528 26.1314 7.38683C26.103 7.37734 26.0792 7.36786 26.0555 7.35838C26.0318 7.34889 26.0129 7.33941 25.9939 7.33466C25.9749 7.32518 25.956 7.32044 25.937 7.3157C25.918 7.31096 25.9038 7.30147 25.8848 7.29673C25.6477 7.20663 25.4106 7.12601 25.1735 7.0454C24.9364 6.96478 24.6946 6.89365 24.4575 6.82252C24.2156 6.75139 23.9785 6.68974 23.7367 6.62809C23.4948 6.56645 23.253 6.51428 23.0111 6.46686C22.9969 6.46212 22.9827 6.46212 22.9685 6.45738C22.9542 6.45264 22.94 6.45264 22.9258 6.4479C22.9115 6.44316 22.8973 6.44316 22.8831 6.43841C22.8689 6.43367 22.8546 6.43367 22.8404 6.42893C21.3419 6.1444 19.9383 6.08276 18.6721 6.22502C17.4013 6.36728 16.2584 6.71345 15.2768 7.23982C14.2905 7.76619 13.4653 8.4775 12.8394 9.34056C12.2087 10.2084 11.7677 11.2326 11.559 12.3897C11.5401 12.4988 11.5211 12.6126 11.5069 12.7217C11.4926 12.8355 11.4784 12.9493 11.4689 13.0631C11.4594 13.1769 11.45 13.2907 11.4405 13.4093C11.431 13.5231 11.4263 13.6416 11.4263 13.7602C11.4215 13.9593 11.4215 14.1632 11.4263 14.3672C11.431 14.5711 11.4452 14.775 11.4642 14.9836C11.4832 15.1923 11.5069 15.4009 11.5401 15.6096C11.5733 15.823 11.6065 16.0364 11.6539 16.2498C11.6586 16.264 11.6586 16.2782 11.6634 16.2924C11.6681 16.3067 11.6681 16.3209 11.6728 16.3304C11.6776 16.3446 11.6776 16.3588 11.6823 16.3683C11.6871 16.3825 11.6871 16.3968 11.6918 16.411C11.6966 16.4252 11.6966 16.4347 11.7013 16.4489C11.706 16.4631 11.706 16.4726 11.7108 16.4869C11.7155 16.5011 11.7155 16.5106 11.7203 16.5248C11.725 16.539 11.725 16.5485 11.7297 16.5627C11.7724 16.7477 11.8198 16.9326 11.8673 17.1176C11.9194 17.3025 11.9716 17.4874 12.0285 17.6724C12.0854 17.8573 12.1518 18.0423 12.2182 18.2272C12.2846 18.4121 12.3557 18.5971 12.4316 18.782C12.5169 19.0002 12.6118 19.2135 12.7114 19.4317C12.8109 19.6498 12.9105 19.8632 13.0196 20.0766C13.1287 20.29 13.2425 20.5034 13.3563 20.7168C13.4748 20.9302 13.5981 21.1388 13.7262 21.3475C13.7783 21.4328 13.8305 21.5182 13.8826 21.6035C13.9348 21.6842 13.987 21.7695 14.0391 21.8501C14.0913 21.9308 14.1435 22.0114 14.1956 22.0872C14.2051 22.1489 14.2573 22.2295 14.3094 22.3054C14.3284 22.3291 14.2573 22.2295 14.3094 22.3054Z" fill="#A2000C"/>
<path d="M21.4851 29.4839C21.7364 29.6356 21.9925 29.7826 22.2486 29.9249L21.4851 29.4839Z" fill="#6D1627"/>
<path d="M17.4829 26.0648C17.4687 26.0601 17.4544 26.0601 17.4402 26.0601C17.426 26.0601 17.4118 26.0601 17.3975 26.0648C17.3833 26.0695 17.3738 26.0695 17.3596 26.079C17.3501 26.0838 17.3359 26.0933 17.3264 26.098C17.3122 26.1122 17.2979 26.1312 17.2932 26.1502C17.2885 26.1691 17.2837 26.1928 17.2837 26.2165C17.2837 26.2403 17.2932 26.264 17.3027 26.2877C17.3122 26.3114 17.3264 26.3351 17.3454 26.3588C17.3501 26.3635 17.3501 26.3683 17.3549 26.373C17.3596 26.3778 17.3643 26.3825 17.3643 26.3873C17.3691 26.392 17.3738 26.3967 17.3738 26.4015C17.3786 26.4062 17.3833 26.411 17.388 26.4157C18.2037 27.1697 19.0667 27.862 19.9677 28.507L19.9962 28.5164L20.11 28.5591L20.2855 28.5022C20.2949 28.4785 20.3044 28.4548 20.3044 28.4263C20.3044 28.3979 20.2997 28.3694 20.2855 28.341C20.276 28.3125 20.257 28.2841 20.2333 28.2556C20.2096 28.2272 20.1859 28.2035 20.1527 28.1798C19.9345 28.0233 19.7164 27.8668 19.503 27.7056C19.2896 27.5443 19.0762 27.3784 18.8723 27.2076C18.6637 27.0369 18.4598 26.8662 18.2558 26.6908C18.0519 26.5153 17.8528 26.3351 17.6536 26.1549C17.6394 26.1407 17.6251 26.1312 17.6109 26.1217C17.5967 26.1122 17.5825 26.1027 17.5682 26.0932C17.554 26.0838 17.5398 26.079 17.5208 26.0743C17.5113 26.0695 17.4971 26.0648 17.4829 26.0648Z" fill="#FEFEFE"/>
<path d="M25.706 6.84075C25.7107 6.84075 25.7155 6.84075 25.7155 6.84549C25.7155 6.85023 25.725 6.84549 25.7297 6.85023C25.7344 6.85023 25.7392 6.85024 25.7439 6.85498C25.7487 6.85498 25.7534 6.85972 25.7582 6.85972C26.3983 7.09208 27.029 7.36238 27.6408 7.65639C26.147 6.94034 24.5726 6.38077 22.9461 6.04883C22.9793 6.05357 23.0078 6.06779 23.0362 6.08202C23.0647 6.09625 23.0884 6.11521 23.1073 6.13892C23.1263 6.16263 23.1453 6.18635 23.1595 6.21006C23.1737 6.23377 23.1832 6.26222 23.188 6.29067C23.2164 6.41396 23.0884 6.46613 22.9888 6.44716C23.9657 6.64633 24.9283 6.92611 25.8625 7.27702C25.853 7.27228 25.8435 7.27228 25.834 7.26754C25.8245 7.26279 25.8151 7.26279 25.8056 7.25805C25.7961 7.25331 25.7866 7.25331 25.7771 7.24857C25.7676 7.24383 25.7582 7.24383 25.7487 7.23909C25.7155 7.2296 25.687 7.21063 25.6586 7.19166C25.6301 7.17269 25.6064 7.14898 25.5827 7.12527C25.5637 7.10156 25.5448 7.07311 25.5305 7.04466C25.5211 7.01621 25.5116 6.98775 25.5116 6.96404C25.5116 6.94033 25.5163 6.92137 25.5258 6.90714C25.5353 6.89292 25.5495 6.87869 25.5637 6.8692C25.5827 6.85972 25.6017 6.85497 25.6206 6.85023C25.6586 6.83601 25.6823 6.83601 25.706 6.84075Z" fill="#A2000C"/>
<path d="M38.794 18.8901C38.8177 18.8948 38.8366 18.9043 38.8603 18.9138C38.8841 18.9233 38.903 18.9375 38.922 18.9518C38.941 18.966 38.9599 18.9849 38.9789 19.0039C38.9979 19.0229 39.0121 19.0419 39.0263 19.0656C38.6517 18.2025 38.2107 17.3726 37.7128 16.5807C37.746 16.6613 37.727 16.7609 37.6321 16.7799H37.5468C37.452 16.7609 37.3666 16.6993 37.3144 16.6139C36.7881 15.7793 36.2 14.9779 35.5694 14.2239C35.5124 14.1575 35.4461 14.0105 35.5599 13.9536C35.5978 13.9346 35.6405 13.9346 35.6784 13.9441C35.6926 13.9489 35.7069 13.9489 35.7211 13.9536C35.7353 13.9584 35.7495 13.9631 35.7638 13.9726C35.778 13.9773 35.7922 13.9868 35.8017 13.9963C35.8159 14.0058 35.8254 14.0153 35.8396 14.0247C35.19 13.2565 34.4929 12.531 33.7579 11.8481C33.8053 11.9098 33.8527 12.0236 33.7768 12.0805L33.6298 12.109L33.4544 12.0189C32.7004 11.3218 31.8942 10.6721 31.0549 10.0793C30.979 10.0224 30.8652 9.88492 30.9316 9.78533C30.9411 9.77111 30.9506 9.76163 30.9601 9.75214C30.9695 9.74266 30.9838 9.73791 30.998 9.73317C31.0122 9.72843 31.0264 9.72843 31.0454 9.72843C31.0596 9.72843 31.0786 9.72843 31.0976 9.73317C31.1023 9.73317 31.1118 9.73792 31.1165 9.73792C31.1213 9.73792 31.1308 9.74266 31.1355 9.74266C31.1403 9.74266 31.1497 9.7474 31.1545 9.75214C31.1592 9.75688 31.1687 9.75688 31.1735 9.76162C30.3388 9.16886 29.4663 8.62353 28.5606 8.13983C28.6412 8.192 28.7503 8.30581 28.7171 8.41488C28.7028 8.50023 28.608 8.5192 28.5369 8.50498L28.4515 8.46704C27.9915 8.22519 27.5221 7.99757 27.0479 7.78418C32.6293 10.2833 37.874 15.3288 39.382 21.4081C39.1875 20.621 38.9267 19.8527 38.6043 19.1082C38.59 19.0798 38.5853 19.0513 38.5853 19.0276C38.5853 19.0039 38.59 18.9802 38.6043 18.9612C38.6138 18.9423 38.6327 18.928 38.6517 18.9186C38.6707 18.9091 38.6991 18.9043 38.7276 18.9043C38.7608 18.8854 38.775 18.8854 38.794 18.8901Z" fill="#6D1627"/>
<path d="M11.5343 12.3704C11.9468 10.0989 13.36 8.1784 15.4228 7.1304C17.5946 6.03024 20.1506 5.94014 22.5074 6.34795C21.8103 6.22466 21.1038 6.14879 20.3972 6.12982L20.3545 6.12034C20.2455 6.09663 20.1364 6.02075 20.0984 5.91642C20.0558 5.81684 20.0984 5.71726 20.2123 5.71252C19.3729 5.68881 18.5288 5.74097 17.699 5.88797C17.7227 5.88323 17.7511 5.88323 17.7796 5.88797C17.8033 5.89271 17.8223 5.9022 17.846 5.91168C17.8697 5.92117 17.8886 5.9354 17.9124 5.94962C17.9313 5.96385 17.955 5.98282 17.9693 5.99705C17.9882 6.01601 18.0025 6.03498 18.0167 6.05869C18.0356 6.08714 18.0451 6.11559 18.0499 6.1393C18.0546 6.16301 18.0546 6.19147 18.0499 6.21044C18.0451 6.23415 18.0309 6.25311 18.0167 6.26734C17.9977 6.28157 17.9787 6.29105 17.9503 6.29579C17.7559 6.32899 17.5662 6.37166 17.3812 6.41434C17.1963 6.45702 17.0114 6.50919 16.8264 6.56609C16.6462 6.623 16.466 6.6799 16.2906 6.74629C16.1151 6.81267 15.9444 6.87906 15.7784 6.95494L15.6599 6.95968L15.4512 6.83165C15.3943 6.76526 15.3469 6.6467 15.4275 6.57557C14.7826 6.86484 14.1709 7.23472 13.6255 7.68996C13.6587 7.67573 13.7014 7.67574 13.7346 7.68522C13.7488 7.68996 13.763 7.6947 13.782 7.69945C13.7962 7.70419 13.8105 7.71367 13.8294 7.71841C13.8437 7.7279 13.8579 7.73738 13.8768 7.74686C13.8911 7.75635 13.9053 7.77058 13.9195 7.78006C13.9907 7.84171 14.076 7.98871 13.9812 8.06933C13.8484 8.1784 13.7204 8.29694 13.5923 8.4155C13.469 8.53405 13.3505 8.66209 13.2319 8.79012C13.1181 8.91816 13.0091 9.05094 12.9047 9.18846C12.8004 9.32598 12.7008 9.46824 12.606 9.6105L12.4305 9.66266L12.2883 9.59627C12.2124 9.53937 12.1318 9.43978 12.1507 9.3402C11.7714 9.92822 11.4821 10.5684 11.2782 11.2418C11.3161 11.1849 11.392 11.1754 11.4537 11.1896C11.4631 11.1896 11.4679 11.1943 11.4774 11.1943C11.4868 11.1943 11.4916 11.1991 11.5011 11.2038C11.5106 11.2086 11.5153 11.2086 11.5248 11.2133C11.5343 11.2181 11.539 11.2228 11.5485 11.2228C11.6433 11.275 11.7571 11.3983 11.7192 11.5168C11.7002 11.5832 11.6813 11.6543 11.6623 11.7255C11.6433 11.7966 11.6291 11.863 11.6101 11.9341C11.5959 12.0052 11.5769 12.0764 11.5627 12.1475C11.558 12.2234 11.5438 12.2992 11.5343 12.3704C11.7382 11.2323 11.5438 12.2992 11.5343 12.3704Z" fill="#6D1627"/>
<path d="M10.9186 13.6084C10.8997 14.4335 10.9803 15.2586 11.1415 16.0695C11.1368 16.0411 11.1415 16.0174 11.1462 15.9984C11.1557 15.9794 11.1652 15.9605 11.1842 15.9462C11.2031 15.932 11.2221 15.9225 11.2506 15.9178C11.2743 15.913 11.3075 15.913 11.3407 15.9178C11.464 15.9415 11.5873 16.0411 11.611 16.1691L11.6252 16.2308C11.464 15.4199 11.3786 14.5947 11.3976 13.7649C11.3786 13.8502 11.2838 13.8787 11.2079 13.8645L11.1557 13.855C11.0467 13.8123 10.9423 13.7222 10.9186 13.6084C10.9139 13.8028 10.9234 13.6321 10.9186 13.6084Z" fill="#A2000C"/>
<path d="M12.218 18.9905C12.109 18.9715 12.0047 18.8909 11.962 18.7913C12.3271 19.6923 12.7729 20.5648 13.2755 21.3994C13.266 21.3757 13.2613 21.3473 13.2613 21.3236C13.2613 21.2998 13.266 21.2809 13.2708 21.2619C13.2803 21.2429 13.2898 21.2287 13.304 21.2145C13.3182 21.2003 13.3419 21.1908 13.3656 21.186C13.3704 21.186 13.3799 21.186 13.3846 21.1813C13.3893 21.1813 13.3988 21.1813 13.4083 21.1813C13.4178 21.1813 13.4225 21.1813 13.432 21.1813C13.4415 21.1813 13.4462 21.1813 13.4557 21.186C13.5458 21.205 13.6312 21.2619 13.6881 21.333C13.1902 20.5127 12.7539 19.6543 12.3935 18.7676V18.7723V18.7771V18.7818V18.7865C12.4409 18.9004 12.384 19.0047 12.256 19.0047L12.218 18.9905Z" fill="#A2000C"/>
<path d="M22.2523 29.9256C22.5084 30.0679 22.7692 30.2054 23.03 30.3382C22.9494 30.2955 22.864 30.2528 22.7834 30.2101C22.7502 30.1912 22.7218 30.1722 22.6981 30.1485C22.6743 30.1248 22.6506 30.0963 22.6317 30.0726C22.6127 30.0442 22.6032 30.0157 22.5985 29.9873C22.5937 29.9588 22.5937 29.9304 22.5985 29.9066C22.6032 29.8877 22.6127 29.8687 22.6222 29.8592C22.6317 29.845 22.6459 29.8355 22.6649 29.826C22.6791 29.8165 22.6981 29.8118 22.7218 29.8118C22.7407 29.8118 22.7645 29.8118 22.7882 29.8165C22.7976 29.8165 22.8024 29.8213 22.8119 29.8213C22.8214 29.8213 22.8261 29.826 22.8356 29.826C22.8451 29.8308 22.8498 29.8308 22.8593 29.8355C22.8688 29.8403 22.8735 29.845 22.883 29.845C22.9921 29.9019 23.0964 29.9541 23.2055 30.011C23.3145 30.0631 23.4189 30.1153 23.5279 30.1675C23.637 30.2196 23.7461 30.2718 23.8504 30.3192C23.9595 30.3714 24.0685 30.4188 24.1776 30.4662C20.346 28.7685 16.927 25.985 14.499 22.5659C14.812 23.0069 15.1392 23.4385 15.4854 23.8558C15.5518 23.9316 15.5992 24.0881 15.4759 24.1355L15.3573 24.1498L15.1534 24.036C15.8363 24.8563 16.5713 25.634 17.3538 26.3596C17.3016 26.2884 17.2589 26.1699 17.3348 26.0988C17.3443 26.0893 17.3538 26.0845 17.368 26.0798C17.3775 26.0751 17.3917 26.0703 17.4059 26.0656C17.4201 26.0608 17.4344 26.0608 17.4486 26.0608C17.4628 26.0608 17.477 26.0608 17.4913 26.0656C17.5055 26.0703 17.5197 26.0703 17.5387 26.0798C17.5529 26.0845 17.5671 26.094 17.5861 26.0988C17.6003 26.1082 17.6146 26.1177 17.6288 26.1272C17.643 26.1367 17.6572 26.1509 17.6715 26.1604C17.8706 26.3406 18.0698 26.5208 18.2737 26.6963C18.4776 26.8717 18.6815 27.0424 18.8902 27.2131C19.0988 27.3839 19.3075 27.5498 19.5209 27.7111C19.7343 27.8723 19.9524 28.0288 20.1705 28.1853C20.2037 28.209 20.2274 28.2327 20.2512 28.2611C20.2749 28.2896 20.2891 28.318 20.3033 28.3465C20.3128 28.375 20.3223 28.4034 20.3223 28.4319C20.3223 28.4603 20.3175 28.484 20.3033 28.5077L20.1279 28.5646L20.0141 28.522C20.4977 28.8634 20.9909 29.1858 21.4983 29.4941" fill="#6D1627"/>
<g opacity="0.7">
<path opacity="0.7" d="M5.07788 16.77C4.95459 16.3574 4.84552 15.9401 4.74594 15.5228C4.84078 15.9401 4.95459 16.3574 5.07788 16.77ZM29.4284 38.1804C28.3946 37.9765 27.3751 37.7062 26.3698 37.3885C26.2133 35.8473 26.0189 34.3062 25.796 32.7745L25.7723 32.637C26.0283 32.7271 26.2844 32.8124 26.5452 32.8883C26.8013 32.9689 27.0621 33.04 27.3229 33.1112C27.5411 33.1681 27.7592 33.2202 27.9773 33.2677C24.0272 19.8144 18.3794 0.0447246 18.3794 0.0447246C16.5537 -0.0690851 14.7043 0.0494646 12.9307 0.509445C12.0867 0.727581 11.2758 1.03582 10.4981 1.41518C10.4933 1.41044 10.4933 1.41044 10.4886 1.4057C9.62078 1.823 8.80989 2.35411 8.07961 2.97532C8.06538 2.98955 8.04642 3.00377 8.03219 3.018C7.76189 3.25036 7.50582 3.49221 7.25923 3.74828C7.02687 3.99012 6.81348 4.2462 6.60483 4.51175C6.57637 4.54969 6.54318 4.58763 6.51473 4.62557C6.49102 4.65876 6.46256 4.68721 6.43885 4.72041L6.4436 4.72514C6.25866 4.97647 6.07371 5.23254 5.91248 5.50758C4.37131 8.0683 4.04885 11.1554 4.47564 14.0718C4.36657 13.3178 4.30492 12.5543 4.30492 11.7908C6.01207 12.2698 7.72396 12.725 9.44058 13.1518L9.60656 13.1992C9.60181 13.4126 9.60182 13.626 9.6113 13.8441C9.61604 14.0623 9.63027 14.2852 9.64924 14.508C9.66821 14.7309 9.69666 14.9585 9.72985 15.1909C9.76305 15.4233 9.80098 15.6556 9.8484 15.8927C10.0381 16.8601 10.3368 17.8038 10.7067 18.719L10.5455 18.7048C8.87628 18.4866 7.20233 18.2922 5.52838 18.1262C6.14959 19.8239 6.96048 21.4504 7.91838 22.9821C8.7767 24.3573 9.75356 25.6614 10.811 26.8943C10.83 26.918 10.8537 26.9417 10.8727 26.9654C11.1667 27.3069 11.4702 27.6436 11.7784 27.9708C11.8069 27.9992 11.8353 28.0277 11.859 28.0609C12.1768 28.3976 12.4992 28.7248 12.8264 29.0472C12.8596 29.0804 12.8881 29.1136 12.9213 29.1421C13.2437 29.455 13.5709 29.7585 13.9029 30.0573C13.9455 30.0952 13.9882 30.1379 14.0357 30.1758C14.4055 30.5078 14.7849 30.835 15.169 31.148C15.1785 31.1574 15.1927 31.1669 15.2022 31.1764C15.8756 31.7312 16.5584 32.2671 17.2697 32.7697C20.8927 35.3542 25.042 37.3269 29.4284 38.1804ZM5.52363 18.1215C5.51889 18.112 5.51889 18.1025 5.51415 18.093C5.51889 18.1025 5.51889 18.112 5.52363 18.1215Z" fill="url(#paint0_linear)"/>
</g>
<defs>
<linearGradient id="paint0_linear" x1="4.30198" y1="19.0914" x2="29.4272" y2="19.0914" gradientUnits="userSpaceOnUse">
<stop stop-color="white"/>
<stop offset="0.9062"/>
</linearGradient>
</defs>
</svg>
