<svg width="103" height="103" viewBox="0 0 103 103" fill="none" xmlns="http://www.w3.org/2000/svg">
<path d="M69.2031 22.5312C69.8597 22.5312 70.8125 23.785 70.8125 25.75H74.0312C74.0312 22.1402 71.9101 19.3125 69.2031 19.3125C66.4962 19.3125 64.375 22.1402 64.375 25.75H67.5938C67.5938 23.785 68.5465 22.5312 69.2031 22.5312Z" fill="white"/>
<path d="M4.82813 82.0781H12.566L20.3232 85.1826C20.5138 85.258 20.7169 85.2968 20.9219 85.2969H28.9688V90.125C28.9688 90.5518 29.1383 90.9612 29.4401 91.263C29.7419 91.5648 30.1513 91.7344 30.5781 91.7344H37.0156C37.4425 91.7344 37.8518 91.5648 38.1536 91.263C38.4554 90.9612 38.625 90.5518 38.625 90.125V85.2969H40.2344C41.5149 85.2969 42.7429 84.7882 43.6484 83.8827C44.5538 82.9773 45.0625 81.7492 45.0625 80.4688C45.0578 79.637 44.8359 78.821 44.4188 78.1014C45.0149 77.7301 45.522 77.2321 45.9039 76.6427C46.2858 76.0532 46.5331 75.387 46.6284 74.6911C46.7237 73.9953 46.6645 73.287 46.455 72.6167C46.2456 71.9463 45.891 71.3303 45.4166 70.8125C46.1039 70.0699 46.5343 69.126 46.6441 68.1202C46.754 67.1143 46.5374 66.0998 46.0265 65.2264C46.9122 64.6698 47.5928 63.84 47.9653 62.8625C48.3378 61.885 48.3821 60.8128 48.0915 59.8079C47.8009 58.803 47.1911 57.92 46.3543 57.2922C45.5176 56.6644 44.4992 56.326 43.4531 56.3281H38.625V34.0592L41.7617 24.6492C41.8035 24.4823 41.831 24.3122 41.8438 24.1406V12.875H38.625V22.5312H35.4063V12.875H32.1875V22.5312H28.9688V12.875H25.75V24.1406C25.7628 24.3122 25.7902 24.4823 25.8321 24.6492L28.9688 34.0592V49.8906H25.75C25.5002 49.8906 25.2537 49.9488 25.0303 50.0605C24.8068 50.1723 24.6124 50.3345 24.4625 50.5344L19.9048 56.6114L12.566 59.5469H4.82813C4.40129 59.5469 3.99194 59.7164 3.69012 60.0182C3.38831 60.3201 3.21875 60.7294 3.21875 61.1562V80.4688C3.21875 80.8956 3.38831 81.3049 3.69012 81.6068C3.99194 81.9086 4.40129 82.0781 4.82813 82.0781ZM35.4063 88.5156H32.1875V85.2969H35.4063V88.5156ZM38.0022 25.75L35.8553 32.1875H31.7385L29.5916 25.75H38.0022ZM35.4063 35.4062V56.3281H32.1875V35.4062H35.4063ZM6.4375 62.7656H12.875C13.08 62.7655 13.2831 62.7268 13.4737 62.6514L21.5206 59.4326C21.7941 59.3222 22.0323 59.1391 22.2094 58.9031L26.5547 53.1094H28.9688V57.9375C28.9688 58.3643 29.1383 58.7737 29.4401 59.0755C29.7419 59.3773 30.1513 59.5469 30.5781 59.5469H43.4531C43.88 59.5469 44.2893 59.7164 44.5911 60.0182C44.8929 60.3201 45.0625 60.7294 45.0625 61.1562C45.0625 61.5831 44.8929 61.9924 44.5911 62.2943C44.2893 62.5961 43.88 62.7656 43.4531 62.7656H25.75V65.9844H41.8438C42.2706 65.9844 42.6799 66.1539 42.9818 66.4557C43.2836 66.7576 43.4531 67.1669 43.4531 67.5938C43.4531 68.0206 43.2836 68.4299 42.9818 68.7318C42.6799 69.0336 42.2706 69.2031 41.8438 69.2031H25.75V72.4219H41.8438C42.2706 72.4219 42.6799 72.5914 42.9818 72.8932C43.2836 73.1951 43.4531 73.6044 43.4531 74.0312C43.4531 74.4581 43.2836 74.8674 42.9818 75.1693C42.6799 75.4711 42.2706 75.6406 41.8438 75.6406H25.75V78.8594H40.2344C40.6612 78.8594 41.0706 79.0289 41.3724 79.3307C41.6742 79.6326 41.8438 80.0419 41.8438 80.4688C41.8438 80.8956 41.6742 81.3049 41.3724 81.6068C41.0706 81.9086 40.6612 82.0781 40.2344 82.0781H21.2309L13.4737 78.9736C13.2831 78.8982 13.08 78.8595 12.875 78.8594H6.4375V62.7656Z" fill="white"/>
<path d="M98.1715 59.5469H90.4336L83.0949 56.6114L78.5371 50.5344C78.3872 50.3345 78.1928 50.1723 77.9693 50.0605C77.7459 49.9488 77.4994 49.8906 77.2496 49.8906H74.0309V38.0183C76.055 36.6859 77.7076 34.8612 78.8336 32.7153C79.9596 30.5695 80.5221 28.1727 80.4684 25.75C80.4684 18.651 75.4149 12.875 69.2027 12.875C62.9905 12.875 57.9371 18.651 57.9371 25.75C57.8833 28.1727 58.4458 30.5695 59.5718 32.7153C60.6978 34.8612 62.3504 36.6859 64.3746 38.0183V56.3281H59.5465C58.5003 56.3257 57.4817 56.6638 56.6446 57.2915C55.8076 57.9191 55.1975 58.8022 54.9067 59.8072C54.6159 60.8121 54.66 61.8845 55.0325 62.8622C55.405 63.8398 56.0856 64.6697 56.9715 65.2264C56.4608 66.0999 56.2445 67.1146 56.3546 68.1204C56.4648 69.1263 56.8954 70.0701 57.583 70.8125C57.1087 71.3304 56.7542 71.9465 56.5449 72.6169C56.3356 73.2874 56.2765 73.9957 56.3719 74.6915C56.4673 75.3873 56.7149 76.0536 57.0969 76.643C57.479 77.2323 57.9862 77.7302 58.5825 78.1014C58.1648 78.8208 57.9423 79.6369 57.9371 80.4688C57.9371 81.7492 58.4458 82.9773 59.3512 83.8827C60.2567 84.7882 61.4847 85.2969 62.7652 85.2969H64.3746V90.125C64.3746 90.5518 64.5442 90.9612 64.846 91.263C65.1478 91.5648 65.5571 91.7344 65.984 91.7344H72.4215C72.8483 91.7344 73.2577 91.5648 73.5595 91.263C73.8613 90.9612 74.0309 90.5518 74.0309 90.125V85.2969H82.0777C82.2827 85.2968 82.4858 85.258 82.6764 85.1826L90.4336 82.0781H98.1715C98.5983 82.0781 99.0077 81.9086 99.3095 81.6068C99.6113 81.3049 99.7809 80.8956 99.7809 80.4688V61.1562C99.7809 60.7294 99.6113 60.3201 99.3095 60.0182C99.0077 59.7164 98.5983 59.5469 98.1715 59.5469ZM61.1558 25.75C61.1558 20.4246 64.7657 16.0938 69.2027 16.0938C73.6398 16.0938 77.2496 20.4246 77.2496 25.75C77.2496 30.0422 74.9096 34.2459 71.8067 35.5286C71.5124 35.6502 71.2608 35.8565 71.0837 36.1212C70.9067 36.3859 70.8122 36.6972 70.8121 37.0156V56.3281H67.5933V37.0156C67.5933 36.6972 67.4988 36.3859 67.3217 36.1212C67.1447 35.8565 66.8931 35.6502 66.5988 35.5286C63.4959 34.2459 61.1558 30.0422 61.1558 25.75ZM70.8121 88.5156H67.5933V85.2969H70.8121V88.5156ZM96.5621 78.8594H90.1246C89.9196 78.8595 89.7165 78.8982 89.5259 78.9736L81.7687 82.0781H62.7652C62.3384 82.0781 61.929 81.9086 61.6272 81.6068C61.3254 81.3049 61.1558 80.8956 61.1558 80.4688C61.1558 80.0419 61.3254 79.6326 61.6272 79.3307C61.929 79.0289 62.3384 78.8594 62.7652 78.8594H77.2496V75.6406H61.1558C60.729 75.6406 60.3197 75.4711 60.0178 75.1693C59.716 74.8674 59.5465 74.4581 59.5465 74.0312C59.5465 73.6044 59.716 73.1951 60.0178 72.8932C60.3197 72.5914 60.729 72.4219 61.1558 72.4219H77.2496V69.2031H61.1558C60.729 69.2031 60.3197 69.0336 60.0178 68.7318C59.716 68.4299 59.5465 68.0206 59.5465 67.5938C59.5465 67.1669 59.716 66.7576 60.0178 66.4557C60.3197 66.1539 60.729 65.9844 61.1558 65.9844H77.2496V62.7656H59.5465C59.1196 62.7656 58.7103 62.5961 58.4085 62.2943C58.1067 61.9924 57.9371 61.5831 57.9371 61.1562C57.9371 60.7294 58.1067 60.3201 58.4085 60.0182C58.7103 59.7164 59.1196 59.5469 59.5465 59.5469H72.4215C72.8483 59.5469 73.2577 59.3773 73.5595 59.0755C73.8613 58.7737 74.0309 58.3643 74.0309 57.9375V53.1094H76.4449L80.7902 58.9031C80.9673 59.1391 81.2055 59.3222 81.479 59.4326L89.5259 62.6514C89.7165 62.7268 89.9196 62.7655 90.1246 62.7656H96.5621V78.8594Z" fill="white"/>
</svg>
