<svg width="89" height="84" viewBox="0 0 89 84" fill="none" xmlns="http://www.w3.org/2000/svg">
<path d="M8.9875 29.3984C7.41588 31.4909 5.83528 33.5924 4.26366 35.6849C3.32966 36.9243 2.39567 38.1726 1.46168 39.4119C1.28207 39.6454 0.931818 39.9687 0.83303 40.2471C0.743223 40.5076 0.940799 40.9297 1.01264 41.2081C1.22818 42.0792 1.47066 42.9413 1.74008 43.7945C2.96145 47.6113 4.73065 51.2395 6.8501 54.6342C9.75086 59.2593 13.4329 63.6239 17.6718 67.4946C21.9107 71.3742 26.6885 74.742 31.7536 77.3913C36.8097 80.0316 42.1353 81.9355 47.4967 82.8875C50.4155 79.394 53.3342 75.9095 56.2529 72.416C50.7118 71.3922 45.3683 69.4164 40.384 66.7941C35.274 64.1088 30.4424 60.6962 26.1496 56.7806C21.8658 52.865 18.1209 48.4645 15.1752 43.8125C12.2385 39.1694 10.1011 34.2839 8.9875 29.3984Z" fill="#705219"/>
<path d="M12.2385 8.86816C9.67002 12.3437 7.09256 15.8192 4.52408 19.2948C3.55417 20.6059 2.68304 21.971 2.00948 23.4528C1.41676 24.773 0.940783 26.174 0.608497 27.6648C0.276211 29.1556 0.0696552 30.7272 0.015771 32.3707C-0.0381132 34.0231 0.0516935 35.7474 0.303153 37.5435C2.92552 34.0411 5.55686 30.5386 8.17922 27.0361C8.43068 26.6948 8.44864 26.7218 8.43068 26.2997C8.35884 24.6742 8.10738 23.0846 8.15228 21.4501C8.19719 19.7977 8.38579 18.226 8.71807 16.7353C9.04138 15.2445 9.50837 13.8435 10.1011 12.5233C10.6848 11.2211 11.4033 9.99973 12.2385 8.86816Z" fill="#705219"/>
<path d="M57.1422 72.5685C54.2234 76.0531 51.3047 79.5465 48.386 83.0311C51.0892 83.4621 53.8283 83.6507 56.5674 83.516C59.1269 83.3903 61.5068 82.9862 63.7071 82.3396C65.8894 81.6929 67.8831 80.7949 69.6613 79.6723C71.4305 78.5587 72.9841 77.2206 74.2953 75.6849C77.241 72.2452 80.1956 68.8146 83.1413 65.375C81.8121 66.9197 80.2405 68.2578 78.5072 69.3445C76.7291 70.4581 74.7354 71.3472 72.5441 71.9848C70.3438 72.6224 67.9459 73.0086 65.3775 73.1164C62.791 73.2152 60.0429 73.0445 57.1422 72.5685Z" fill="#705219"/>
<path d="M49.9305 70.8086C47.0298 74.3111 44.129 77.8225 41.2192 81.325C41.7401 81.4866 42.261 81.6393 42.7819 81.792C43.3028 81.9357 43.8236 82.0794 44.3445 82.2051C44.8654 82.3398 45.3863 82.4566 45.9161 82.5733C46.437 82.6901 46.9579 82.7888 47.4878 82.8876C47.5237 82.8966 47.5596 82.8966 47.5955 82.9056C47.6315 82.9146 47.6674 82.9146 47.7033 82.9235C47.7392 82.9325 47.7752 82.9325 47.8111 82.9415C47.847 82.9505 47.8829 82.9505 47.9188 82.9595C47.9548 82.9685 47.9907 82.9684 48.0266 82.9774C48.0625 82.9864 48.0985 82.9864 48.1344 82.9954C48.1703 83.0044 48.2062 83.0044 48.2421 83.0134C48.2781 83.0223 48.314 83.0223 48.3499 83.0313C48.8708 83.1121 49.3827 83.184 49.8946 83.2469C50.4065 83.3097 50.9094 83.3546 51.4123 83.3995C51.9152 83.4444 52.4092 83.4714 52.8941 83.4983C53.3881 83.5253 53.873 83.5342 54.349 83.5432C57.2767 80.0677 60.2134 76.5922 63.1411 73.1256C62.6562 73.1166 62.1622 73.0987 61.6773 73.0717C61.1833 73.0448 60.6894 73.0089 60.1865 72.964C59.6836 72.9191 59.1717 72.8652 58.6598 72.8023C58.1479 72.7394 57.627 72.6676 57.1061 72.5778C57.0702 72.5688 57.0342 72.5688 56.9983 72.5598C56.9624 72.5508 56.9265 72.5508 56.8906 72.5419C56.8546 72.5329 56.8187 72.5329 56.7828 72.5239C56.7469 72.5149 56.7109 72.5149 56.675 72.5059C56.6391 72.497 56.6032 72.497 56.5673 72.488C56.5313 72.479 56.4954 72.479 56.4595 72.47C56.4236 72.461 56.3876 72.461 56.3517 72.452C56.3158 72.4431 56.2799 72.4341 56.244 72.4341C55.7141 72.3353 55.1932 72.2275 54.6633 72.1108C54.1335 71.994 53.6126 71.8683 53.0827 71.7336C52.5529 71.5989 52.032 71.4552 51.5021 71.3025C50.9813 71.1319 50.4604 70.9702 49.9305 70.8086Z" fill="#9A95A0"/>
<path d="M8.15233 22.3213C6.7244 24.2342 5.29647 26.1471 3.86854 28.06C2.93454 29.3083 2.00055 30.5656 1.06656 31.8139C0.788157 32.1821 0.464853 32.5503 0.222374 32.9455C-0.0560273 33.4035 -0.00214273 33.6819 0.0158187 34.2836C0.0247994 34.6338 0.0427586 34.9931 0.0697007 35.3523C0.0966428 35.7115 0.123587 36.0707 0.15951 36.4389C0.195433 36.8072 0.240334 37.1754 0.294218 37.5436V37.5526V37.5615V37.5705V37.5795C0.294218 37.6064 0.303201 37.6244 0.303201 37.6513C0.303201 37.6783 0.31218 37.6963 0.31218 37.7232C0.31218 37.7501 0.321163 37.7681 0.321163 37.795C0.321163 37.822 0.330142 37.8399 0.330142 37.8669C0.330142 37.8848 0.330144 37.8938 0.339124 37.9118C0.339124 37.9297 0.339123 37.9387 0.348104 37.9567C0.348104 37.9747 0.348102 37.9836 0.357083 38.0016C0.357083 38.0196 0.357085 38.0285 0.366065 38.0465C0.366065 38.0645 0.375045 38.0824 0.375045 38.1004C0.375045 38.1183 0.384027 38.1363 0.384027 38.1543C0.384027 38.1722 0.393006 38.1902 0.393006 38.2081C0.393006 38.2261 0.401989 38.2441 0.401989 38.262C0.401989 38.28 0.410968 38.3069 0.410968 38.3249C0.410968 38.3429 0.419947 38.3698 0.419947 38.3878C0.419947 38.4057 0.42893 38.4327 0.42893 38.4506C0.42893 38.4686 0.437909 38.4955 0.437909 38.5135C0.437909 38.5225 0.437911 38.5404 0.446892 38.5494C0.446892 38.5584 0.44689 38.5764 0.455871 38.5853C0.455871 38.5943 0.455873 38.6123 0.464854 38.6213C0.464854 38.6302 0.464852 38.6482 0.473833 38.6572C0.482814 38.6931 0.482814 38.729 0.491795 38.7649C0.500775 38.8009 0.500776 38.8368 0.509757 38.8727C0.518737 38.9086 0.518738 38.9446 0.527718 38.9805C0.536699 39.0164 0.536699 39.0523 0.54568 39.0883C0.554661 39.1242 0.554661 39.1601 0.563642 39.196C0.572623 39.232 0.5816 39.2679 0.5816 39.3038C0.590581 39.3397 0.599562 39.3756 0.599562 39.4116C0.608543 39.4475 0.617524 39.4834 0.617524 39.5193C0.617524 39.5373 0.626507 39.5463 0.626507 39.5642C0.626507 39.5822 0.635486 39.5912 0.635486 39.6091C0.635486 39.6271 0.644465 39.6361 0.644465 39.654C0.644465 39.672 0.653448 39.681 0.653448 39.6989C0.653448 39.7169 0.662427 39.7349 0.662427 39.7528C0.662427 39.7708 0.671409 39.7887 0.671409 39.8067C0.671409 39.8247 0.680389 39.8426 0.680389 39.8606C0.680389 39.8786 0.689371 39.8965 0.689371 39.9145C0.689371 39.9324 0.698352 39.9594 0.707333 39.9773C0.716314 39.9953 0.716311 40.0222 0.725291 40.0402C0.734272 40.0582 0.734273 40.0851 0.743253 40.1031C0.743253 40.121 0.752234 40.148 0.761215 40.1659C0.761215 40.1749 0.761217 40.1839 0.770198 40.1929C0.770198 40.2019 0.770196 40.2108 0.779177 40.2198C0.779177 40.2288 0.779179 40.2378 0.788159 40.2468C0.788159 40.2558 0.788158 40.2647 0.797139 40.2737C0.886946 40.6868 0.985732 41.091 1.0935 41.5041C1.20127 41.9172 1.30904 42.3213 1.43477 42.7344C1.55152 43.1475 1.67725 43.5517 1.81196 43.9558C1.94667 44.3599 2.09036 44.773 2.23405 45.1772C3.67994 43.2733 5.11685 41.3693 6.56275 39.4654C7.49674 38.2261 8.43971 36.9868 9.37371 35.7564C9.65211 35.3882 10.0024 35.02 10.2359 34.6248C10.2897 34.535 10.4155 34.4452 10.4424 34.3464C10.5232 34.068 10.1371 33.3765 10.0383 33.0802C9.90357 32.6671 9.76886 32.2629 9.64313 31.8498C9.5174 31.4367 9.40065 31.0326 9.29288 30.6195C9.18512 30.2063 9.08632 29.7932 8.98754 29.3891C8.98754 29.3801 8.98753 29.3711 8.97855 29.3622C8.97855 29.3532 8.97856 29.3442 8.96958 29.3352C8.96958 29.3262 8.96958 29.3173 8.9606 29.3083C8.9606 29.2993 8.96059 29.2903 8.95161 29.2813C8.94263 29.2544 8.94264 29.2364 8.93365 29.2185C8.92467 29.2005 8.92467 29.1736 8.91569 29.1556C8.90671 29.1376 8.90671 29.1107 8.89773 29.0927C8.88875 29.0658 8.88875 29.0478 8.87977 29.0299C8.87977 29.0119 8.87079 28.994 8.87079 28.976C8.87079 28.958 8.86181 28.9401 8.86181 28.9221C8.86181 28.9041 8.85283 28.8862 8.85283 28.8682C8.85283 28.8503 8.84385 28.8323 8.84385 28.8143C8.84385 28.7964 8.83487 28.7874 8.83487 28.7694C8.83487 28.7515 8.82588 28.7425 8.82588 28.7245C8.82588 28.7066 8.8169 28.6976 8.8169 28.6796C8.8169 28.6617 8.80793 28.6527 8.80793 28.6347C8.79894 28.5988 8.78996 28.5629 8.78996 28.527C8.78098 28.491 8.772 28.4551 8.772 28.4192C8.76302 28.3833 8.75404 28.3473 8.75404 28.3114C8.74506 28.2755 8.73608 28.2396 8.73608 28.2036C8.7271 28.1677 8.71812 28.1318 8.71812 28.0959C8.70914 28.06 8.70914 28.024 8.70015 27.9881C8.69117 27.9522 8.6822 27.9163 8.6822 27.8803C8.67321 27.8444 8.67321 27.8085 8.66423 27.7726C8.66423 27.7636 8.66423 27.7456 8.65525 27.7366C8.65525 27.7277 8.64627 27.7097 8.64627 27.7007C8.64627 27.6918 8.64627 27.6738 8.63729 27.6648C8.63729 27.6558 8.63729 27.6379 8.62831 27.6289C8.62831 27.6109 8.61933 27.584 8.61933 27.566C8.61933 27.5481 8.61035 27.5211 8.61035 27.5032C8.61035 27.4852 8.60137 27.4582 8.60137 27.4403C8.60137 27.4223 8.59238 27.3954 8.59238 27.3774C8.59238 27.3595 8.58341 27.3415 8.58341 27.3235C8.58341 27.3056 8.57442 27.2876 8.57442 27.2696C8.57442 27.2517 8.56544 27.2337 8.56544 27.2158C8.56544 27.1978 8.55647 27.1798 8.55647 27.1619C8.55647 27.1439 8.54748 27.1349 8.54748 27.117C8.54748 27.099 8.5385 27.09 8.5385 27.0721C8.5385 27.0541 8.5385 27.0451 8.52952 27.0272C8.52952 27.0092 8.52952 27.0002 8.52054 26.9823C8.52054 26.9553 8.51156 26.9374 8.51156 26.9104C8.51156 26.8835 8.50258 26.8655 8.50258 26.8386C8.50258 26.8116 8.4936 26.7937 8.4936 26.7667C8.4936 26.7398 8.48462 26.7218 8.48462 26.6949V26.6859V26.6769V26.6679V26.659C8.43074 26.2818 8.38583 25.9136 8.34093 25.5454C8.305 25.1771 8.26908 24.8179 8.24214 24.4587C8.21519 24.0995 8.19723 23.7402 8.17927 23.39C8.16131 23.0128 8.15233 22.6626 8.15233 22.3213Z" fill="#9A95A0"/>
<path d="M20.465 50.9248C17.8246 54.3105 15.1753 57.6962 12.535 61.082C12.4452 61.1987 12.077 61.522 12.077 61.6747C12.068 61.9172 12.8224 62.5548 13.002 62.7524C13.5319 63.3451 14.0707 63.9199 14.6185 64.4857C15.4986 65.4017 16.4057 66.2908 17.3487 67.1619C18.2826 68.033 19.2526 68.8682 20.2404 69.6855C21.2283 70.5027 22.2431 71.293 23.2759 72.0474C26.1228 68.4911 28.9697 64.9347 31.8166 61.3873C30.7748 60.624 29.751 59.8247 28.7541 58.9984C27.7573 58.1722 26.7784 57.3191 25.8354 56.4479C24.8835 55.5768 23.9674 54.6698 23.0783 53.7537C22.1533 52.8287 21.2912 51.8857 20.465 50.9248Z" fill="#9A95A0"/>
<path d="M20.2674 35.4424C19.5759 33.7091 19.0101 31.9219 18.6419 30.0899C18.5521 29.6409 18.4802 29.2008 18.4174 28.7607C18.3545 28.3207 18.3096 27.8896 18.2647 27.4675C18.2288 27.0454 18.2018 26.6233 18.1929 26.2102C18.1749 25.7971 18.1749 25.384 18.1839 24.9888L17.8695 24.899C14.6185 24.0818 11.3765 23.2196 8.14345 22.3216C8.14345 23.7675 8.25121 25.2134 8.46675 26.6413C7.65849 21.1182 8.26918 15.2807 11.1879 10.4221C14.1156 5.55461 19.037 2.36646 24.4793 0.956495C27.8381 0.0853671 31.3406 -0.13916 34.7982 0.0763766C35.7052 2.83345 36.5404 5.60849 37.3397 8.40149L37.4115 8.65295C39.2616 8.70683 41.1026 8.94033 42.9077 9.31752C43.3837 9.41631 43.8597 9.52408 44.3446 9.64083C44.8206 9.75758 45.2966 9.88331 45.7726 10.018C46.2486 10.1527 46.7155 10.2964 47.1915 10.4491C47.6585 10.6018 48.1345 10.7634 48.6015 10.9341L48.5656 10.6916C48.1704 8.04226 47.8202 5.38398 47.5418 2.72569C61.2912 7.4675 73.6846 17.3822 81.3541 29.7486C83.6172 33.3858 85.4673 37.3014 86.6707 41.4235C86.2576 40.0225 85.7726 38.6485 85.2158 37.3104C82.2701 37.014 79.3424 36.6637 76.4057 36.2686L76.1363 36.2417C76.8638 37.93 77.4744 39.6633 77.8965 41.4505C78.0043 41.8815 78.0941 42.3126 78.166 42.7437C78.2468 43.1748 78.3097 43.5969 78.3635 44.01C78.4174 44.4321 78.4623 44.8452 78.4893 45.2493C78.5252 45.6624 78.5431 46.0665 78.5521 46.4617L78.8305 46.5425C81.9109 47.3059 84.9733 48.1141 88.0357 48.9583C87.937 47.4137 87.7214 45.8779 87.4071 44.3692C88.7273 50.6736 88.3411 57.5439 84.8206 63.094C81.3361 68.5991 75.346 71.7513 69.0236 72.7392C65.099 73.3589 61.0667 73.1972 57.1511 72.5596C59.1448 72.8829 61.1655 73.0625 63.1861 73.1074C62.1983 70.1348 61.2822 67.1353 60.4111 64.1267L60.3393 63.8573C58.4533 63.8663 56.5674 63.6777 54.7084 63.3454C54.2144 63.2556 53.7205 63.1568 53.2266 63.049C52.7326 62.9413 52.2387 62.8245 51.7537 62.6898C51.2598 62.5641 50.7748 62.4204 50.2809 62.2677C49.7959 62.115 49.302 61.9624 48.817 61.7917L48.8619 62.0522C49.284 64.953 49.6522 67.8717 49.9486 70.7904C52.0231 71.446 54.1246 72.0028 56.262 72.3979C47.7663 70.8353 39.7286 67.0455 32.7146 62.0522C25.7277 57.0769 19.5579 50.7994 15.0047 43.507C12.2925 39.1514 10.1372 34.4006 9.0056 29.3894C9.38279 31.0598 9.88571 32.7033 10.4784 34.3108C13.6486 34.6251 16.8188 34.9933 19.98 35.4065L20.2674 35.4424ZM37.8785 53.9965C38.3815 54.3467 38.8844 54.697 39.4053 55.0293C39.9172 55.3616 40.438 55.6849 40.9679 55.9992C41.4888 56.3135 42.0276 56.6099 42.5575 56.9062C43.0963 57.1936 43.6352 57.472 44.183 57.7415C44.2099 57.7594 44.2369 57.7684 44.2638 57.7864C44.2908 57.7953 44.3177 57.8133 44.3446 57.8313C44.3716 57.8492 44.3985 57.8582 44.4345 57.8762C44.4614 57.8941 44.4973 57.9031 44.5243 57.9211C45.3056 58.2983 46.0959 58.6485 46.8952 58.9718C47.6944 59.2951 48.5027 59.5915 49.311 59.8609C50.1192 60.1303 50.9455 60.3728 51.7717 60.5794C52.5979 60.7949 53.4331 60.9745 54.2683 61.1272C55.3999 61.3337 56.5404 61.4684 57.681 61.5403C57.6989 61.5403 57.7259 61.5403 57.7528 61.5403C57.7798 61.5403 57.8067 61.5403 57.8516 61.5493C57.8875 61.5493 57.9414 61.5493 57.9953 61.5583C58.0582 61.5583 58.13 61.5672 58.2198 61.5672C58.2378 61.5672 58.2647 61.5672 58.2827 61.5672C58.3007 61.5672 58.3276 61.5672 58.3456 61.5672C58.3725 61.5672 58.3905 61.5672 58.4174 61.5672C58.4443 61.5672 58.4623 61.5672 58.4893 61.5672C59.0011 61.5852 59.5041 61.5852 60.007 61.5672C60.5009 61.5582 60.9949 61.5223 61.4708 61.4864C61.9468 61.4415 62.4228 61.3876 62.8808 61.3158C63.3388 61.2439 63.7968 61.1631 64.2369 61.0643C65.7008 60.741 67.1287 60.2291 68.4578 59.5286C68.7632 59.367 69.0685 59.1963 69.3649 59.0167C69.6612 58.8371 69.9396 58.6485 70.218 58.4509C70.4964 58.2533 70.7659 58.0468 71.0263 57.8313C71.2867 57.6157 71.5472 57.3912 71.7897 57.1667C72.7865 56.2147 73.6307 55.1101 74.2863 53.8977C74.439 53.6103 74.5916 53.3229 74.7264 53.0266C74.8611 52.7302 74.9958 52.4249 75.1125 52.1105C75.2293 51.7962 75.346 51.4729 75.4448 51.1406C75.5436 50.8083 75.6424 50.4671 75.7232 50.1258C75.7861 49.8564 75.84 49.587 75.8938 49.3086C75.9388 49.0302 75.9837 48.7428 76.0196 48.4464C76.0555 48.1501 76.0824 47.8537 76.1094 47.5394C76.1363 47.2251 76.1453 46.9017 76.1543 46.5605C76.1633 46.1294 76.1543 45.6894 76.1363 45.2403C76.1184 44.7913 76.0824 44.3422 76.0285 43.8753C75.9747 43.4172 75.9118 42.9413 75.831 42.4653C75.7502 41.9893 75.6514 41.5043 75.5346 41.0104C75.5077 40.9026 75.4897 40.8039 75.4628 40.7051C75.4628 40.6871 75.4538 40.6781 75.4538 40.6602C75.4538 40.6422 75.4448 40.6242 75.4358 40.6063C75.4268 40.5883 75.4268 40.5614 75.4179 40.5255C75.4089 40.4895 75.3999 40.4536 75.3909 40.4087C75.3819 40.3907 75.3819 40.3728 75.373 40.3458C75.364 40.3279 75.364 40.3009 75.355 40.283C75.346 40.256 75.346 40.2381 75.337 40.2021C75.3281 40.1662 75.3191 40.1393 75.3101 40.1034C75.3011 40.0854 75.3011 40.0674 75.2921 40.0405C75.2831 40.0225 75.2832 39.9956 75.2742 39.9687C75.2652 39.9417 75.2562 39.9148 75.2472 39.8878C75.2383 39.8609 75.2293 39.825 75.2203 39.789C75.2113 39.7711 75.2113 39.7531 75.2023 39.7351C75.1934 39.7172 75.1933 39.6992 75.1844 39.6723C75.1754 39.6453 75.1664 39.6184 75.1574 39.5915C75.1484 39.5555 75.1395 39.5196 75.1215 39.4747C75.1215 39.4568 75.1125 39.4478 75.1035 39.4208C75.0946 39.4029 75.0946 39.3759 75.0766 39.349C75.0676 39.3131 75.0497 39.2771 75.0407 39.2233C75.0227 39.1694 75.0048 39.1065 74.9778 39.0167C74.9778 38.9987 74.9688 38.9808 74.9598 38.9718C74.9509 38.9538 74.9509 38.9359 74.9419 38.9179C74.9329 38.8999 74.9239 38.873 74.9149 38.8461C74.906 38.8191 74.897 38.7832 74.879 38.7473C74.8072 38.5317 74.7353 38.3162 74.6635 38.1096C74.5916 37.8941 74.5108 37.6786 74.43 37.463C74.3492 37.2475 74.2593 37.023 74.1695 36.7985C74.0797 36.5739 73.981 36.3494 73.8822 36.1159C73.7115 35.7118 73.5229 35.3166 73.3343 34.9215C73.1458 34.5263 72.9392 34.1222 72.7326 33.7271C72.5261 33.3319 72.3016 32.9278 72.077 32.5326C71.8436 32.1285 71.6101 31.7333 71.3586 31.3292C71.1071 30.9341 70.8467 30.5299 70.5773 30.1348C70.3078 29.7396 70.0294 29.3445 69.7331 28.9493C69.4457 28.5542 69.1404 28.159 68.826 27.7549C68.5117 27.3597 68.1884 26.9556 67.8471 26.5605C67.5418 26.2012 67.2365 25.842 66.9131 25.4918C66.5988 25.1415 66.2665 24.7913 65.9342 24.441C65.602 24.0908 65.2607 23.7405 64.9015 23.3903C64.5512 23.04 64.183 22.6898 63.8148 22.3395C63.4466 21.9983 63.0694 21.666 62.6922 21.3337C62.315 21.0014 61.9199 20.6781 61.5247 20.3548C61.1296 20.0315 60.7254 19.7172 60.3033 19.4028C59.8902 19.0885 59.4681 18.7832 59.0281 18.4689C58.6329 18.1905 58.2288 17.9121 57.8247 17.6426C57.4205 17.3732 57.0074 17.1128 56.5943 16.8523C56.1812 16.5919 55.7591 16.3404 55.328 16.098C54.9059 15.8555 54.4749 15.613 54.0348 15.3795C53.9091 15.3166 53.7834 15.2448 53.6576 15.1819C53.5319 15.1191 53.3972 15.0472 53.2535 14.9754C53.1098 14.9035 52.9661 14.8317 52.8134 14.7508C52.6608 14.67 52.4901 14.5892 52.3105 14.5084C51.5921 14.1671 50.8646 13.8348 50.1282 13.5384C49.3918 13.2331 48.6554 12.9547 47.901 12.7033C47.1556 12.4428 46.3922 12.2093 45.6289 12.0027C44.8655 11.7962 44.0932 11.6076 43.3119 11.4459C43.0963 11.401 42.8718 11.3561 42.6563 11.3202C42.6383 11.3202 42.6203 11.3112 42.6024 11.3112C42.5844 11.3112 42.5665 11.3022 42.5395 11.3022C42.5126 11.3022 42.4856 11.2933 42.4587 11.2843C42.4228 11.2753 42.3869 11.2753 42.3419 11.2663C42.0456 11.2124 41.7492 11.1676 41.4618 11.1316C41.1655 11.0867 40.8691 11.0508 40.5638 11.0149C40.2584 10.979 39.9531 10.952 39.6298 10.9251C39.3065 10.8981 38.9832 10.8802 38.6329 10.8622C38.606 10.8622 38.5701 10.8622 38.5431 10.8622C38.5162 10.8622 38.4803 10.8622 38.4443 10.8622C38.4084 10.8622 38.3815 10.8622 38.3455 10.8622C38.3096 10.8622 38.2737 10.8622 38.2378 10.8622C37.8157 10.8532 37.4026 10.8442 36.9984 10.8532C36.5943 10.8622 36.1902 10.8802 35.786 10.9071C35.3909 10.9341 34.9957 10.97 34.6096 11.0239C34.2234 11.0688 33.8462 11.1316 33.469 11.1945C33.0918 11.2574 32.7146 11.3382 32.3464 11.428C31.9782 11.5178 31.619 11.6166 31.2598 11.7243C30.9005 11.8321 30.5503 11.9489 30.2 12.0836C29.8498 12.2183 29.5085 12.353 29.1673 12.5057C28.8529 12.6494 28.5476 12.802 28.2423 12.9547C27.9459 13.1164 27.6495 13.287 27.3621 13.4576C27.0748 13.6372 26.7874 13.8258 26.509 14.0234C26.2306 14.221 25.9522 14.4275 25.6828 14.6431C25.4223 14.8586 25.1709 15.0831 24.9194 15.3256C24.6769 15.5591 24.4434 15.8106 24.2099 16.071C23.9854 16.3315 23.7699 16.6009 23.5543 16.8793C23.3478 17.1577 23.1412 17.4451 22.9526 17.7504C22.773 18.0198 22.6114 18.2982 22.4497 18.5856C22.288 18.873 22.1444 19.1693 22.0007 19.4747C21.857 19.78 21.7312 20.0944 21.6055 20.4177C21.4798 20.741 21.363 21.0733 21.2642 21.4145C21.1655 21.7468 21.0757 22.0971 20.9948 22.4473C20.914 22.7975 20.8511 23.1568 20.7973 23.525C20.7434 23.8932 20.6985 24.2704 20.6715 24.6476C20.6356 25.0337 20.6176 25.4199 20.6087 25.8241C20.5997 26.1923 20.5997 26.5605 20.6176 26.9466C20.6266 27.3238 20.6536 27.719 20.6895 28.1141C20.7254 28.5093 20.7703 28.9134 20.8332 29.3355C20.896 29.7486 20.9679 30.1797 21.0487 30.6197C21.0757 30.7455 21.1026 30.8712 21.1295 30.9969C21.1295 31.0149 21.1385 31.0418 21.1475 31.0598C21.1565 31.0777 21.1565 31.1047 21.1655 31.1227C21.1744 31.1406 21.1744 31.1676 21.1834 31.1855C21.1924 31.2035 21.1924 31.2304 21.2014 31.2484C21.2014 31.2663 21.2104 31.2753 21.2104 31.2933C21.2104 31.3113 21.2193 31.3292 21.2283 31.3472C21.2373 31.3741 21.2373 31.4011 21.2463 31.437C21.2553 31.4729 21.2642 31.5178 21.2732 31.5627C21.2732 31.5807 21.2822 31.5986 21.2822 31.6166C21.2822 31.6346 21.2912 31.6525 21.3002 31.6795C21.3092 31.7064 21.3092 31.7333 21.3181 31.7603C21.3271 31.7962 21.3361 31.8321 21.3451 31.877C21.3451 31.895 21.3541 31.913 21.363 31.9309C21.372 31.9489 21.372 31.9668 21.381 31.9938C21.39 32.0207 21.399 32.0477 21.399 32.0746C21.4079 32.1105 21.4169 32.1465 21.4259 32.1914C21.4259 32.2093 21.4349 32.2273 21.4439 32.2452C21.4528 32.2632 21.4528 32.2812 21.4618 32.3081C21.4708 32.335 21.4798 32.362 21.4888 32.3889C21.4977 32.4249 21.5067 32.4608 21.5157 32.5057C21.5247 32.5236 21.5247 32.5416 21.5337 32.5596C21.5427 32.5775 21.5426 32.5955 21.5516 32.6224C21.5606 32.6494 21.5696 32.6763 21.5786 32.7122C21.5876 32.7482 21.5965 32.7841 21.6145 32.838C21.6145 32.8559 21.6235 32.8649 21.6325 32.8829C21.6414 32.9008 21.6414 32.9188 21.6504 32.9457C21.6594 32.9727 21.6684 32.9996 21.6774 33.0356C21.6863 33.0715 21.6953 33.1074 21.7133 33.1613C21.7133 33.1792 21.7223 33.1882 21.7312 33.2062C21.7402 33.2241 21.7492 33.2511 21.7582 33.287C21.7672 33.3229 21.7851 33.3589 21.8031 33.4217C21.8211 33.4756 21.839 33.5475 21.866 33.6373C21.8749 33.6552 21.8749 33.6732 21.8839 33.6911C21.8929 33.7091 21.8929 33.7271 21.9019 33.754C21.9109 33.7809 21.9198 33.7989 21.9288 33.8348C21.9378 33.8708 21.9468 33.9067 21.9647 33.9426C21.9737 33.9606 21.9827 33.9785 21.9827 34.0055C21.9917 34.0234 22.0007 34.0504 22.0007 34.0683C22.0096 34.0953 22.0186 34.1132 22.0276 34.1402C22.0366 34.1671 22.0456 34.194 22.0546 34.23C22.0635 34.2569 22.0725 34.2749 22.0815 34.3018C22.0905 34.3288 22.0995 34.3467 22.1084 34.3737C22.1174 34.4006 22.1264 34.4276 22.1354 34.4545C22.1444 34.4814 22.1533 34.5084 22.1623 34.5353C22.1982 34.6251 22.2252 34.7239 22.2611 34.8137C22.297 34.9035 22.333 35.0023 22.3689 35.0921C22.4048 35.1819 22.4407 35.2807 22.4766 35.3795C22.5126 35.4783 22.5575 35.5681 22.5934 35.6669C22.764 36.08 22.9436 36.5021 23.1322 36.9152C23.3208 37.3283 23.5184 37.7504 23.7339 38.1635C23.9405 38.5766 24.165 38.9987 24.3985 39.4208C24.632 39.8429 24.8745 40.265 25.126 40.6871C26.1767 42.4024 27.3621 44.0369 28.6464 45.5906C29.9665 47.1801 31.3945 48.6709 32.8943 50.0899C33.2804 50.4401 33.6666 50.7904 34.0617 51.1317C34.4569 51.4729 34.861 51.8142 35.2741 52.1465C35.6873 52.4788 36.1004 52.8021 36.5314 53.1254C37.0074 53.3679 37.4385 53.6912 37.8785 53.9965ZM31.7986 61.3876C33.3523 59.4478 34.9508 57.5529 36.6212 55.7118L36.7739 55.5412C33.1278 52.9547 29.8049 49.9103 26.949 46.4707L26.7604 46.5964C24.7039 48.0962 22.6114 49.5511 20.465 50.9251C23.8327 54.8227 27.6495 58.3432 31.7986 61.3876ZM70.5054 61.8366C73.047 64.3872 75.5526 66.9736 78.0223 69.596C80.8961 67.8986 83.3478 65.5187 85.0721 62.6539C82.2612 60.4177 79.4861 58.1186 76.738 55.8016L76.5045 55.604C75.0676 58.1635 72.8763 60.2291 70.2809 61.5942L70.5054 61.8366ZM27.1915 10.2156C24.7128 7.72794 22.2701 5.21335 19.8633 2.65385C16.8547 4.10872 14.1875 6.23714 12.1937 8.93135C15.0137 11.1765 17.7887 13.4756 20.5458 15.8016L20.7883 15.9992C22.4048 13.5474 24.7488 11.6525 27.425 10.4491L27.1915 10.2156ZM75.2921 21.639C72.086 18.0019 68.4848 14.7149 64.5871 11.8321C63.1862 13.5654 61.7313 15.2538 60.2225 16.8882L60.0878 17.0409C63.5633 19.5196 66.7425 22.4204 69.5086 25.6714L69.6702 25.5546C71.5023 24.2075 73.3703 22.8874 75.2921 21.639Z" fill="#E39600"/>
<path d="M64.5779 11.832C63.177 13.5653 61.7221 15.2537 60.2133 16.8882L60.0786 17.0408C63.5541 19.5195 66.7333 22.4203 69.4994 25.6713L69.661 25.5545C71.5021 24.1895 73.37 22.8693 75.2919 21.621C72.0768 18.0107 68.4756 14.7148 64.5779 11.832C64.3175 12.1553 65.5568 12.5595 64.5779 11.832Z" fill="#F6F6F6"/>
<path d="M41.0845 0.9471C41.0486 0.93812 41.0127 0.92914 40.9767 0.920159C40.9408 0.911179 40.9049 0.902199 40.869 0.893218C40.833 0.884238 40.7971 0.875253 40.7612 0.875253C40.7253 0.866272 40.6893 0.857302 40.6534 0.857302C40.6355 0.857302 40.6175 0.848312 40.5995 0.848312C40.5816 0.848312 40.5636 0.839336 40.5457 0.839336C40.5277 0.839336 40.5097 0.830361 40.4918 0.830361C40.4738 0.830361 40.4558 0.821371 40.4379 0.821371C40.4199 0.821371 40.402 0.812395 40.384 0.812395C40.366 0.812395 40.3481 0.80342 40.3301 0.80342C40.3122 0.80342 40.2942 0.79443 40.2762 0.79443C40.2583 0.79443 40.2403 0.785454 40.2223 0.785454C40.1954 0.785454 40.1774 0.776465 40.1505 0.776465C40.1236 0.776465 40.1056 0.767489 40.0787 0.767489C40.0517 0.767489 40.0338 0.758513 40.0068 0.758513C39.9799 0.758513 39.9619 0.749524 39.935 0.749524C39.926 0.749524 39.917 0.749529 39.908 0.740548C39.899 0.740548 39.8901 0.740553 39.8811 0.731572C39.8721 0.731572 39.8631 0.731564 39.8541 0.722583C39.8452 0.722583 39.8362 0.722588 39.8272 0.713607C39.468 0.650742 39.1087 0.58788 38.7495 0.533996C38.3903 0.480112 38.0311 0.426229 37.6808 0.381326C37.3306 0.336422 36.9713 0.291519 36.6301 0.255596C36.2798 0.219674 35.9296 0.18375 35.5883 0.156808C35.5614 0.156808 35.5254 0.147819 35.4985 0.147819C35.4716 0.147819 35.4446 0.147824 35.4177 0.138843C35.3907 0.138843 35.3638 0.138848 35.3458 0.129867C35.3189 0.129867 35.3009 0.129858 35.274 0.120878C35.1213 0.111897 34.9686 0.102922 34.825 0.0849609C35.732 2.84204 36.5672 5.62604 37.3665 8.41006L37.4383 8.66153C37.8784 8.67051 38.3184 8.69744 38.7675 8.73337C39.2165 8.76929 39.6655 8.8142 40.1236 8.86808C40.5816 8.92197 41.0486 8.98483 41.5156 9.06566C41.9826 9.14649 42.4585 9.22731 42.9345 9.32609C44.8654 9.72124 46.7603 10.2691 48.6103 10.9426L48.5744 10.7001C48.1792 8.05083 47.829 5.39255 47.5506 2.73426C47.5147 2.7163 47.4698 2.70732 47.4338 2.68936C47.3979 2.6714 47.353 2.66241 47.3171 2.64445C47.2812 2.63547 47.2363 2.61752 47.2004 2.60854C47.1644 2.59057 47.1195 2.58159 47.0836 2.5726C47.0567 2.56362 47.0297 2.55464 47.0028 2.54566C46.9758 2.53668 46.9489 2.5277 46.9219 2.51872C46.895 2.50974 46.8681 2.50076 46.8411 2.49178C46.8142 2.4828 46.7872 2.47382 46.7603 2.46484C46.4011 2.34809 46.0329 2.23134 45.6736 2.12357C45.3144 2.0158 44.9462 1.90805 44.578 1.80028C44.2098 1.70149 43.8506 1.6027 43.4823 1.50391C43.1141 1.40513 42.7549 1.31532 42.3867 1.23449C42.3777 1.23449 42.3687 1.23448 42.3598 1.2255C42.3508 1.2255 42.3418 1.2255 42.3328 1.21652C42.3238 1.21652 42.3148 1.21653 42.3059 1.20755C42.2969 1.20755 42.2879 1.20754 42.2789 1.19856C42.252 1.18958 42.234 1.18959 42.2071 1.18061C42.1801 1.17163 42.1622 1.17162 42.1352 1.16264C42.1083 1.15366 42.0903 1.15366 42.0634 1.14468C42.0365 1.1357 42.0185 1.13571 41.9915 1.12673C41.9736 1.12673 41.9556 1.11774 41.9377 1.11774C41.9197 1.11774 41.9017 1.10876 41.8838 1.10876C41.8658 1.10876 41.8479 1.09977 41.8299 1.09977C41.8119 1.09977 41.794 1.09079 41.776 1.09079C41.758 1.09079 41.7401 1.08182 41.7221 1.08182C41.7042 1.08182 41.6862 1.07283 41.6682 1.07283C41.6503 1.07283 41.6323 1.06385 41.6144 1.06385C41.5964 1.06385 41.5784 1.05488 41.5605 1.05488C41.5246 1.0459 41.4886 1.03692 41.4527 1.02794C41.4168 1.01896 41.3809 1.00996 41.3449 1.00098C41.309 0.992002 41.2731 0.983022 41.2372 0.974041C41.1563 0.95608 41.1204 0.9471 41.0845 0.9471Z" fill="#F6F6F6"/>
<path d="M85.1977 37.3011C82.252 37.0048 79.3243 36.6545 76.3876 36.2594L76.1182 36.2324C76.3068 36.6635 76.4774 37.0946 76.648 37.5256C76.8187 37.9567 76.9713 38.3878 77.124 38.8278C77.2677 39.2589 77.4114 39.699 77.5371 40.139C77.6628 40.5791 77.7796 41.0102 77.8784 41.4502C78.2645 43.0937 78.498 44.782 78.543 46.4704L78.8213 46.5512C81.9017 47.3146 84.9641 48.1229 88.0266 48.967C87.9996 48.5988 87.9727 48.2216 87.9368 47.8445C87.9008 47.4673 87.8559 47.0901 87.802 46.7039C87.7482 46.3177 87.6943 45.9316 87.6224 45.5454C87.5506 45.1592 87.4787 44.7641 87.3979 44.3689C87.3979 44.36 87.3979 44.351 87.3979 44.351C87.3979 44.342 87.3979 44.333 87.3979 44.333C87.3979 44.324 87.3979 44.315 87.3979 44.3061C87.3979 44.2971 87.3979 44.2881 87.3889 44.2881C87.3889 44.2701 87.38 44.2432 87.371 44.2252C87.371 44.1983 87.362 44.1803 87.353 44.1624C87.344 44.1444 87.344 44.1175 87.335 44.0995C87.335 44.0726 87.3261 44.0546 87.3171 44.0367C87.3171 44.0187 87.3081 44.0007 87.3081 43.9917C87.3081 43.9738 87.2991 43.9558 87.2991 43.9468C87.2991 43.9289 87.2901 43.9109 87.2901 43.9019C87.2901 43.884 87.2812 43.866 87.2812 43.857C87.2812 43.8391 87.2722 43.8211 87.2722 43.8121C87.2722 43.7942 87.2632 43.7762 87.2632 43.7672C87.2632 43.7493 87.2542 43.7313 87.2542 43.7223C87.2542 43.7044 87.2452 43.6864 87.2452 43.6774C87.2363 43.6415 87.2273 43.6056 87.2183 43.5786C87.2093 43.5427 87.2003 43.5068 87.1914 43.4798C87.1824 43.4439 87.1734 43.408 87.1644 43.3811C87.1554 43.3451 87.1465 43.3092 87.1375 43.2823C87.1285 43.2463 87.1195 43.2104 87.1105 43.1745C87.1016 43.1386 87.0926 43.1027 87.0836 43.0667C87.0746 43.0308 87.0656 42.9949 87.0566 42.959C87.0477 42.923 87.0387 42.8871 87.0297 42.8512C87.0297 42.8332 87.0207 42.8242 87.0207 42.8063C87.0207 42.7883 87.0117 42.7793 87.0117 42.7614C87.0117 42.7434 87.0028 42.7344 87.0028 42.7165C87.0028 42.6985 86.9938 42.6895 86.9938 42.6716C86.9938 42.6536 86.9848 42.6357 86.9758 42.6177C86.9758 42.5997 86.9668 42.5818 86.9579 42.5638C86.9579 42.5459 86.9489 42.5279 86.9399 42.5099C86.9309 42.492 86.9309 42.474 86.9219 42.456C86.913 42.4381 86.913 42.4201 86.904 42.4022C86.895 42.3842 86.895 42.3662 86.886 42.3483C86.886 42.3303 86.877 42.3124 86.868 42.2944C86.8591 42.2764 86.8591 42.2585 86.8501 42.2405C86.8501 42.2315 86.8411 42.2136 86.8411 42.2046C86.8411 42.1956 86.8321 42.1776 86.8321 42.1687C86.8321 42.1597 86.8232 42.1417 86.8232 42.1327C86.8232 42.1238 86.8142 42.1058 86.8142 42.0968C86.3741 40.4174 85.8353 38.8458 85.1977 37.3011C84.6588 37.2472 85.3593 37.6873 85.1977 37.3011Z" fill="#F6F6F6"/>
<path d="M19.8631 2.6543C16.8546 4.10917 14.1873 6.23759 12.1936 8.9318C15.0135 11.177 17.7886 13.476 20.5457 15.802L20.7881 15.9996C22.4047 13.5479 24.7486 11.653 27.4249 10.4495L27.1914 10.216C24.7127 7.72839 22.2699 5.2138 19.8631 2.6543C19.0818 3.03149 20.3032 3.13027 19.8631 2.6543Z" fill="#F6F6F6"/>
<path d="M76.4956 55.6035C75.0587 58.163 72.8674 60.2286 70.272 61.5936L70.5055 61.8361C73.047 64.3866 75.5526 66.9731 78.0223 69.5954C80.8961 67.8981 83.3479 65.5182 85.0722 62.6534C82.2612 60.4172 79.4862 58.1181 76.7381 55.8011L76.4956 55.6035Z" fill="#F6F6F6"/>
<path d="M8.15234 22.3213C8.15234 22.6626 8.16133 23.0128 8.17031 23.372C8.17929 23.7223 8.20623 24.0815 8.23317 24.4407C8.26012 24.8 8.29604 25.1682 8.33196 25.5274C8.36788 25.8956 8.42177 26.2638 8.47565 26.641V26.65V26.659V26.6679V26.6769C8.47565 26.7039 8.48463 26.7218 8.48463 26.7488C8.48463 26.7757 8.49361 26.7937 8.49361 26.8206C8.49361 26.8476 8.50259 26.8655 8.50259 26.8925C8.50259 26.9194 8.51157 26.9374 8.51157 26.9643C8.51157 26.9823 8.51158 26.9913 8.52056 27.0092C8.52056 27.0272 8.52953 27.0362 8.52953 27.0541C8.52953 27.0721 8.53851 27.0811 8.53851 27.099C8.53851 27.117 8.53852 27.126 8.5475 27.1439C8.5475 27.1619 8.55648 27.1799 8.55648 27.1978C8.55648 27.2158 8.56546 27.2337 8.56546 27.2517C8.56546 27.2697 8.57444 27.2876 8.57444 27.3056C8.57444 27.3235 8.58342 27.3415 8.58342 27.3595C8.58342 27.3774 8.5924 27.4044 8.5924 27.4223C8.5924 27.4403 8.60138 27.4672 8.60138 27.4852C8.60138 27.5032 8.61036 27.5301 8.61036 27.5481C8.61036 27.566 8.61934 27.593 8.61934 27.6109C8.61934 27.6199 8.61934 27.6379 8.62832 27.6469C8.62832 27.6558 8.62832 27.6738 8.6373 27.6828C8.6373 27.6917 8.64628 27.7097 8.64628 27.7187C8.64628 27.7277 8.64628 27.7456 8.65526 27.7546C8.66424 27.7905 8.66425 27.8265 8.67323 27.8624C8.68221 27.8983 8.6822 27.9342 8.69118 27.9702C8.70017 28.0061 8.70017 28.042 8.70915 28.0779C8.71813 28.1138 8.72711 28.1498 8.72711 28.1857C8.73609 28.2216 8.74507 28.2575 8.74507 28.2935C8.75405 28.3294 8.76303 28.3653 8.76303 28.4012C8.77201 28.4371 8.781 28.4731 8.781 28.509C8.78998 28.5449 8.79896 28.5808 8.79896 28.6168C8.79896 28.6347 8.80794 28.6437 8.80794 28.6617C8.80794 28.6796 8.81691 28.6886 8.81691 28.7066C8.81691 28.7245 8.8259 28.7335 8.8259 28.7515C8.8259 28.7694 8.83488 28.7784 8.83488 28.7964C8.83488 28.8143 8.84386 28.8323 8.84386 28.8503C8.84386 28.8682 8.85284 28.8862 8.85284 28.9041C8.85284 28.9221 8.86182 28.9401 8.86182 28.958C8.86182 28.976 8.8708 28.9939 8.8708 29.0119C8.87978 29.0299 8.87978 29.0568 8.88876 29.0748C8.89774 29.0927 8.89775 29.1197 8.90673 29.1376C8.91571 29.1556 8.9157 29.1825 8.92468 29.2005C8.93367 29.2185 8.93367 29.2454 8.94265 29.2634C8.94265 29.2723 8.94264 29.2813 8.95163 29.2903C8.95163 29.2993 8.95163 29.3083 8.96061 29.3173C8.96061 29.3262 8.96061 29.3352 8.96959 29.3442C8.96959 29.3532 8.96959 29.3622 8.97857 29.3711C9.35576 31.0416 9.85867 32.685 10.4514 34.2926C13.6216 34.6069 16.7918 34.9751 19.953 35.3882L20.2583 35.4151C20.0787 34.9751 19.9081 34.5261 19.7554 34.077C19.5938 33.628 19.4501 33.1879 19.3154 32.7389C19.1806 32.2899 19.0549 31.8498 18.9382 31.4008C18.8214 30.9517 18.7226 30.5117 18.6328 30.0626C18.3005 28.3833 18.1389 26.6679 18.1748 24.9616L17.8605 24.8718C14.6274 24.0905 11.3854 23.2283 8.15234 22.3213C8.15234 22.6626 8.76303 22.4919 8.15234 22.3213Z" fill="#F6F6F6"/>
<path d="M48.8079 61.8008L48.8528 62.0612C49.2749 64.962 49.6431 67.8807 49.9394 70.7994C50.4603 70.9611 50.9902 71.1227 51.511 71.2754C52.0319 71.4281 52.5618 71.5718 53.0917 71.7065C53.6215 71.8412 54.1424 71.9669 54.6723 72.0837C55.2021 72.2004 55.723 72.3082 56.2529 72.407C56.2888 72.416 56.3247 72.416 56.3606 72.4249C56.3965 72.4339 56.4325 72.4429 56.4684 72.4429C56.5043 72.4519 56.5402 72.4609 56.5762 72.4609C56.6121 72.4698 56.648 72.4698 56.6839 72.4788C56.7199 72.4878 56.7558 72.4878 56.7917 72.4968C56.8276 72.5058 56.8635 72.5058 56.8995 72.5147C56.9354 72.5237 56.9713 72.5237 57.0072 72.5327C57.0432 72.5417 57.0791 72.5417 57.115 72.5507C59.1087 72.874 61.1294 73.0536 63.15 73.0985C62.1622 70.1259 61.2461 67.1263 60.375 64.1178L60.3032 63.8484C59.8631 63.8484 59.4051 63.8394 58.956 63.8214C58.498 63.8035 58.04 63.7675 57.564 63.7316C57.097 63.6867 56.6211 63.6328 56.1361 63.57C55.6512 63.5071 55.1662 63.4263 54.6723 63.3455C52.6965 62.9952 50.7297 62.4743 48.8079 61.8008Z" fill="#F6F6F6"/>
<path d="M26.9399 46.4707L26.7603 46.5964C24.7037 48.0962 22.6112 49.5511 20.4648 50.9251C23.8326 54.8228 27.6494 58.3432 31.7985 61.3966C33.3521 59.4568 34.9507 57.5619 36.6211 55.7208L36.7738 55.5502C33.1276 52.9548 29.7958 49.9013 26.9399 46.4707Z" fill="#F6F6F6"/>
<path d="M59.6656 61.1448C59.6925 61.1987 59.7015 61.2616 59.7015 61.3065C59.7015 61.3603 59.6925 61.4052 59.6746 61.4412C59.6566 61.4771 59.6207 61.513 59.5848 61.531C59.5488 61.5489 59.495 61.5669 59.4411 61.5669C59.3602 61.5669 59.2884 61.5669 59.2076 61.5669C59.1267 61.5669 59.0549 61.5669 58.9741 61.5669C58.8933 61.5669 58.8214 61.5669 58.7406 61.5669C58.6598 61.5669 58.5789 61.5669 58.5071 61.5579C60.4289 61.6208 62.3598 61.4681 64.2278 61.046H64.0931C63.9045 61.0101 63.7249 60.8844 63.6261 60.7227C63.5183 60.5611 63.5004 60.2827 63.7428 60.2198C65.1438 59.9144 66.5089 59.4295 67.7931 58.7739C67.8111 58.7649 67.8201 58.7559 67.838 58.7559C67.856 58.7559 67.874 58.747 67.8919 58.747C67.9099 58.747 67.9278 58.747 67.9458 58.747C67.9638 58.747 67.9817 58.747 68.0087 58.7559C68.0446 58.7649 68.0805 58.7739 68.1164 58.7829C68.1524 58.8008 68.1883 58.8188 68.2242 58.8368C68.2601 58.8547 68.296 58.8817 68.323 58.9086C68.3589 58.9356 68.3859 58.9625 68.4128 58.9984C68.5206 59.1331 68.6193 59.3577 68.4757 59.5013C69.6791 58.8727 70.8017 58.0824 71.7806 57.1484L71.5291 57.2023L71.1878 57.0317C71.0531 56.9059 70.9005 56.6365 71.0531 56.4659C71.9961 55.5588 72.8223 54.5171 73.451 53.3675C73.5228 53.2598 73.6575 53.2418 73.7743 53.2598C73.7922 53.2598 73.8192 53.2687 73.8371 53.2777C73.8551 53.2867 73.882 53.2957 73.9 53.3047C73.918 53.3136 73.9449 53.3226 73.9629 53.3406C73.9808 53.3496 74.0078 53.3675 74.0257 53.3855C74.1694 53.4932 74.3221 53.6908 74.2951 53.8794C74.9418 52.7119 75.4088 51.4546 75.7141 50.1614C75.6602 50.2782 75.5075 50.2961 75.3908 50.2692L75.2291 50.2153C75.0495 50.1165 74.816 49.883 74.8789 49.6585C74.9507 49.3262 75.0226 48.9849 75.0765 48.6347C75.1304 48.2934 75.1753 47.9432 75.2112 47.584C75.2471 47.2337 75.274 46.8745 75.283 46.5152C75.301 46.156 75.301 45.7968 75.301 45.4286C75.301 45.3837 75.31 45.3478 75.3279 45.3118C75.3459 45.2759 75.3728 45.249 75.3998 45.231C75.4267 45.213 75.4626 45.1951 75.5075 45.1861C75.5435 45.1771 75.5973 45.1771 75.6423 45.1861C75.6512 45.1861 75.6512 45.1861 75.6602 45.1861C75.6692 45.1861 75.6692 45.1861 75.6782 45.1951C75.6872 45.1951 75.6872 45.1951 75.6961 45.2041C75.7051 45.2041 75.7051 45.2041 75.7141 45.2131C75.9296 45.2849 76.1542 45.5004 76.1631 45.7429C76.1631 45.8058 76.1631 45.8776 76.1631 45.9405C76.1631 46.0034 76.1631 46.0752 76.1631 46.1381C76.1631 46.2009 76.1631 46.2728 76.1631 46.3356C76.1631 46.3985 76.1631 46.4704 76.1631 46.5332C76.1991 44.6832 75.9656 42.8332 75.5525 41.028C75.6063 41.2526 75.4088 41.3424 75.2112 41.3064C75.1573 41.2975 75.0944 41.2705 75.0405 41.2436C74.9867 41.2077 74.9328 41.1717 74.8789 41.1268C74.834 41.0819 74.7891 41.028 74.7532 40.9742C74.7172 40.9203 74.6993 40.8664 74.6813 40.8125C75.7949 45.5543 75.4896 50.817 72.4721 54.8314C69.3647 58.9715 64.1829 60.6868 59.1537 60.7227C59.3872 60.7766 59.5848 60.9472 59.6656 61.1448Z" fill="#E39600"/>
<path d="M48.7632 59.6547L48.6823 59.6278C47.6316 59.2596 46.5988 58.8465 45.584 58.3974C48.3321 59.6188 51.2149 60.5618 54.1785 61.1006C54.1156 61.0916 54.0618 61.0647 54.0079 61.0377C53.954 61.0108 53.9001 60.9659 53.8552 60.921C53.8103 60.8761 53.7654 60.8222 53.7385 60.7773C53.7025 60.7234 53.6846 60.6695 53.6666 60.6156C53.6127 60.3822 53.8283 60.2474 54.0348 60.2834C51.6998 59.8613 49.4098 59.1787 47.2095 58.3076C47.3352 58.3525 47.452 58.4064 47.5777 58.4513C47.7034 58.4962 47.8202 58.5501 47.9459 58.595C48.0716 58.6399 48.1974 58.6848 48.3141 58.7297C48.4398 58.7746 48.5566 58.8195 48.6823 58.8644C48.9068 58.9452 49.1224 59.1608 49.1224 59.4122C49.1314 59.6098 48.9338 59.6906 48.7632 59.6547Z" fill="#E39600"/>
<path d="M25.2965 40.1214C25.2515 40.1304 25.2156 40.1483 25.1797 40.1753C25.1528 40.2022 25.1258 40.2291 25.1168 40.2651C25.0989 40.301 25.0989 40.3369 25.0989 40.3818C25.0989 40.4267 25.1079 40.4716 25.1258 40.5255C25.1348 40.5614 25.1528 40.5884 25.1617 40.6153C26.2125 42.3216 27.38 43.9472 28.6552 45.5008L28.6822 45.5188L29.0594 45.7433L29.2839 45.7164C29.5174 45.6176 29.4276 45.3212 29.3018 45.1865C29.1402 44.9889 28.9785 44.7824 28.8169 44.5848C28.6552 44.3782 28.5026 44.1807 28.3409 43.9741C28.1882 43.7675 28.0356 43.57 27.8829 43.3634C27.7302 43.1569 27.5865 42.9503 27.4339 42.7438C27.4069 42.7078 27.38 42.6629 27.353 42.627C27.3261 42.5911 27.2991 42.5551 27.2722 42.5102C27.2453 42.4743 27.2183 42.4294 27.1914 42.3935C27.1644 42.3576 27.1375 42.3127 27.1106 42.2768C27.1106 42.2768 27.1105 42.2678 27.1016 42.2678C27.1016 42.2678 27.1016 42.2588 27.0926 42.2588C27.0926 42.2588 27.0926 42.2498 27.0836 42.2498C27.0836 42.2498 27.0836 42.2408 27.0746 42.2408C26.9758 42.0971 26.8771 41.9445 26.7783 41.8008C26.6795 41.6571 26.5807 41.5044 26.4819 41.3517C26.3831 41.1991 26.2933 41.0554 26.1945 40.9027C26.1047 40.75 26.0059 40.6063 25.9161 40.4537L25.9071 40.4447L25.8982 40.4357L25.8892 40.4267L25.8802 40.4178C25.8533 40.3818 25.8173 40.3459 25.7904 40.319C25.7545 40.292 25.7185 40.2651 25.6826 40.2381C25.6467 40.2112 25.6018 40.1932 25.5659 40.1753C25.5299 40.1573 25.485 40.1483 25.4491 40.1393C25.4312 40.1393 25.4222 40.1304 25.4042 40.1304C25.3863 40.1304 25.3773 40.1304 25.3593 40.1304C25.3414 40.1304 25.3324 40.1304 25.3144 40.1304C25.3234 40.1124 25.3144 40.1214 25.2965 40.1214Z" fill="#FEFEFE"/>
<path d="M43.1501 56.4666C43.1052 56.4576 43.0693 56.4576 43.0244 56.4576C42.9885 56.4576 42.9526 56.4756 42.9166 56.4846C42.8897 56.5025 42.8538 56.5205 42.8358 56.5474C42.8179 56.5744 42.7999 56.6013 42.7909 56.6372C42.7819 56.6821 42.7819 56.736 42.7909 56.7899C42.7999 56.8438 42.8268 56.8977 42.8538 56.9515C42.8897 57.0054 42.9256 57.0503 42.9795 57.0952C43.0244 57.1401 43.0873 57.1761 43.1412 57.212C43.222 57.2569 43.3118 57.3018 43.3926 57.3467C43.4734 57.3916 43.5633 57.4365 43.6531 57.4814C43.7429 57.5263 43.8237 57.5712 43.9135 57.6071C44.0033 57.6521 44.0841 57.688 44.1739 57.7329C44.2009 57.7508 44.2368 57.7598 44.2637 57.7778C44.2907 57.7957 44.3176 57.8047 44.3536 57.8227C44.3805 57.8406 44.4074 57.8496 44.4344 57.8676C44.4613 57.8766 44.4883 57.8945 44.5152 57.9035C45.8713 58.5501 47.2633 59.1339 48.6823 59.6278L48.7631 59.6547C48.9337 59.6817 49.1313 59.6098 49.1223 59.4033C49.1223 59.3494 49.1133 59.2865 49.0864 59.2327C49.0684 59.1788 49.0325 59.1249 48.9966 59.08C48.9607 59.0351 48.9068 58.9902 48.8619 58.9453C48.808 58.9093 48.7541 58.8734 48.6912 58.8555C48.5655 58.8106 48.4488 58.7656 48.323 58.7207C48.1973 58.6758 48.0716 58.6309 47.9548 58.586C47.8291 58.5411 47.7123 58.4962 47.5866 58.4423C47.4609 58.3885 47.3351 58.3436 47.2184 58.2987C47.1825 58.2807 47.1466 58.2717 47.1106 58.2537C47.0747 58.2358 47.0388 58.2268 47.0029 58.2089C46.9669 58.1909 46.931 58.1819 46.8951 58.1639C46.8592 58.146 46.8233 58.137 46.7873 58.119C46.7694 58.1101 46.7514 58.1011 46.7245 58.0921C46.7065 58.0831 46.6885 58.0741 46.6616 58.0652C46.6436 58.0562 46.6257 58.0472 46.5987 58.0382C46.5808 58.0292 46.5628 58.0203 46.5359 58.0113C46.4999 57.9933 46.464 57.9843 46.4281 57.9664C46.3922 57.9484 46.3563 57.9394 46.3203 57.9215C46.2844 57.9035 46.2485 57.8945 46.2126 57.8766C46.1766 57.8586 46.1407 57.8496 46.1048 57.8317C46.0779 57.8227 46.0509 57.8137 46.0329 57.7957C46.006 57.7868 45.9791 57.7778 45.9611 57.7598C45.9342 57.7508 45.9072 57.7418 45.8893 57.7239C45.8623 57.7149 45.8354 57.7059 45.8174 57.688C45.8174 57.688 45.8084 57.688 45.7994 57.679C45.7994 57.679 45.7905 57.679 45.7905 57.67C45.7905 57.661 45.7815 57.67 45.7725 57.661C45.7725 57.661 45.7635 57.661 45.7635 57.652C45.557 57.5622 45.3504 57.4724 45.1439 57.3736C44.9373 57.2749 44.7307 57.1851 44.5332 57.0863C44.3266 56.9875 44.1201 56.8887 43.9225 56.7899C43.7159 56.6911 43.5184 56.5833 43.3118 56.4756C43.2938 56.4666 43.2849 56.4576 43.2669 56.4576C43.2489 56.4486 43.24 56.4486 43.222 56.4397C43.204 56.4307 43.195 56.4307 43.1771 56.4307C43.1771 56.4666 43.1591 56.4666 43.1501 56.4666Z" fill="#FEFEFE"/>
<path d="M63.6889 22.9146L63.9673 22.8607C63.9942 22.8427 64.0122 22.8068 64.0301 22.7798C64.0391 22.7439 64.0481 22.708 64.0391 22.6721C64.0391 22.6362 64.0212 22.5913 64.0032 22.5464C63.9852 22.5014 63.9583 22.4565 63.9314 22.4206C63.9224 22.4116 63.9224 22.4027 63.9134 22.3937C63.9044 22.3847 63.8954 22.3757 63.8954 22.3667C63.8865 22.3578 63.8775 22.3488 63.8685 22.3398C63.8595 22.3308 63.8505 22.3218 63.8415 22.3129C63.4733 21.9716 63.0962 21.6393 62.719 21.316C62.3418 20.9927 61.9556 20.6604 61.5605 20.3461C61.1653 20.0318 60.7701 19.7174 60.366 19.4121C59.9619 19.1067 59.5578 18.8014 59.1446 18.514C59.1357 18.505 59.1267 18.505 59.1267 18.4961C59.1177 18.4961 59.1087 18.4871 59.1087 18.4871C59.0997 18.4871 59.0908 18.4781 59.0908 18.4781C59.0818 18.4781 59.0728 18.4691 59.0728 18.4691C59.0638 18.4601 59.0459 18.4601 59.0369 18.4512C59.0279 18.4422 59.0099 18.4422 59.001 18.4332C58.992 18.4242 58.974 18.4242 58.965 18.4242C58.956 18.4242 58.9381 18.4152 58.9291 18.4152C58.8932 18.4063 58.8662 18.4062 58.8303 18.4062C58.8034 18.4062 58.7675 18.4152 58.7405 18.4152C58.7136 18.4242 58.6866 18.4332 58.6687 18.4512C58.6507 18.4691 58.6238 18.4871 58.6148 18.514C58.4891 18.7116 58.6956 18.9631 58.8483 19.0708C60.4379 20.2024 61.9556 21.4238 63.3925 22.7439L63.6889 22.9146Z" fill="#FEFEFE"/>
<path d="M48.7719 13.6909C48.7899 13.6999 48.8079 13.6999 48.8258 13.7088C48.8438 13.7178 48.8618 13.7178 48.8797 13.7268C48.8977 13.7358 48.9156 13.7358 48.9336 13.7448C48.9516 13.7537 48.9695 13.7537 48.9875 13.7627C49.0234 13.7717 49.0503 13.7897 49.0863 13.7986C49.1222 13.8076 49.1491 13.8256 49.1851 13.8346C49.221 13.8436 49.2479 13.8615 49.2838 13.8705C49.3198 13.8795 49.3467 13.8974 49.3826 13.9064C49.3916 13.9064 49.3916 13.9154 49.4006 13.9154C49.4096 13.9154 49.4096 13.9244 49.4186 13.9244C49.4275 13.9244 49.4275 13.9334 49.4365 13.9334C49.4455 13.9334 49.4455 13.9423 49.4545 13.9423C49.6071 14.0052 49.7598 14.0591 49.9035 14.122C50.0562 14.1848 50.2089 14.2477 50.3525 14.3106C50.4962 14.3734 50.6579 14.4363 50.8016 14.4992C50.9543 14.562 51.1069 14.6339 51.2506 14.6967C52.1487 15.1008 53.0378 15.5319 53.9089 15.9899L54.0706 16.0618C54.2053 16.0887 54.3849 16.0528 54.4118 15.8912C54.4208 15.8462 54.4208 15.8014 54.4118 15.7564C54.4028 15.7115 54.3849 15.6666 54.3579 15.6128C54.331 15.5678 54.2951 15.523 54.2592 15.478C54.2143 15.4331 54.1693 15.3972 54.1155 15.3613C54.1155 15.3613 54.1065 15.3613 54.1065 15.3523C54.1065 15.3523 54.0975 15.3523 54.0975 15.3433C54.0975 15.3433 54.0885 15.3433 54.0885 15.3344C54.0885 15.3344 54.0795 15.3344 54.0795 15.3254C53.9538 15.2625 53.8281 15.1907 53.7023 15.1278C53.5766 15.0649 53.4509 15.0021 53.3252 14.9302C53.1994 14.8674 53.0737 14.8045 52.948 14.7416C52.8222 14.6788 52.6965 14.6159 52.5708 14.553C52.5708 14.553 52.5618 14.553 52.5618 14.544C52.5618 14.544 52.5528 14.5441 52.5528 14.5351C52.5528 14.5351 52.5438 14.5351 52.5438 14.5261C52.5438 14.5261 52.5349 14.5261 52.5349 14.5171C52.5169 14.5081 52.5079 14.4992 52.49 14.4992C52.472 14.4902 52.463 14.4812 52.4451 14.4812C52.4271 14.4722 52.4181 14.4722 52.4002 14.4632C52.3822 14.4542 52.3732 14.4453 52.3552 14.4453C52.0589 14.3016 51.7625 14.1669 51.4662 14.0322C51.1698 13.8974 50.8734 13.7717 50.5771 13.646C50.2807 13.5202 49.9843 13.3945 49.688 13.2778C49.3916 13.161 49.0952 13.0443 48.7899 12.9365C48.7809 12.9365 48.7719 12.9275 48.763 12.9275C48.754 12.9275 48.745 12.9275 48.736 12.9185C48.727 12.9185 48.7181 12.9185 48.7091 12.9096C48.7001 12.9006 48.6911 12.9096 48.6911 12.9006C48.6372 12.8916 48.5923 12.8916 48.5564 12.8916C48.5115 12.9006 48.4756 12.9096 48.4486 12.9275C48.4127 12.9455 48.3948 12.9724 48.3768 12.9994C48.3588 13.0263 48.3499 13.0712 48.3499 13.1071C48.3499 13.161 48.3588 13.2059 48.3858 13.2598C48.4037 13.3137 48.4397 13.3586 48.4846 13.4125C48.5205 13.4574 48.5744 13.5023 48.6283 13.5382C48.6552 13.637 48.7091 13.6729 48.7719 13.6909Z" fill="#FEFEFE"/>
<path d="M71.2688 31.7696C71.3137 31.7606 71.3496 31.7426 71.3765 31.7247C71.4035 31.6977 71.4214 31.6708 71.4394 31.6438C71.4484 31.6079 71.4574 31.572 71.4574 31.5361C71.4574 31.4912 71.4484 31.4552 71.4214 31.4014C71.4214 31.3924 71.4125 31.3834 71.4125 31.3834C71.4125 31.3744 71.4035 31.3654 71.4035 31.3654C71.4035 31.3565 71.3945 31.3565 71.3945 31.3475C71.3945 31.3385 71.3855 31.3295 71.3855 31.3295C71.1341 30.9344 70.8736 30.5302 70.6042 30.1351C70.3348 29.7399 70.0564 29.3448 69.778 28.9586C69.4906 28.5724 69.2032 28.1773 68.8979 27.7911C68.5925 27.4049 68.2872 27.0278 67.9728 26.6506C67.9639 26.6416 67.9639 26.6326 67.9549 26.6236C67.9459 26.6147 67.9369 26.6057 67.9369 26.6057C67.9279 26.5967 67.919 26.5877 67.91 26.5877C67.901 26.5787 67.892 26.5787 67.883 26.5697C67.8651 26.5518 67.8381 26.5338 67.8112 26.5159C67.7843 26.4979 67.7573 26.4889 67.7394 26.471C67.7124 26.462 67.6855 26.444 67.6585 26.435C67.6316 26.4261 67.6046 26.4171 67.5777 26.4171C67.5058 26.3991 67.425 26.3991 67.3532 26.435C67.1376 26.5338 67.2634 26.8212 67.3711 26.9469C68.5746 28.3839 69.6792 29.8926 70.676 31.4732C70.7658 31.6349 70.9365 31.7516 71.1161 31.7875L71.2688 31.7696Z" fill="#FEFEFE"/>
<path d="M43.5364 12.2C43.5903 12.209 43.6531 12.209 43.698 12.2C43.7519 12.191 43.7878 12.1731 43.8238 12.1461C43.8597 12.1192 43.8866 12.0833 43.9046 12.0473C43.9226 12.0024 43.9226 11.9576 43.9136 11.9037C43.8687 11.6791 43.6801 11.4906 43.4556 11.4367L43.3478 11.4187C43.2939 11.4097 43.24 11.4007 43.1861 11.3828C43.1323 11.3738 43.0784 11.3648 43.0245 11.3469C42.9706 11.3379 42.9167 11.3289 42.8628 11.3199C42.809 11.3109 42.7551 11.302 42.7012 11.293C42.6832 11.293 42.6653 11.284 42.6563 11.284C42.6383 11.284 42.6204 11.275 42.6114 11.275C42.5934 11.275 42.5755 11.266 42.5665 11.266C42.5485 11.266 42.5306 11.2571 42.5216 11.2571C42.5126 11.2571 42.5036 11.257 42.4946 11.2481C42.4856 11.2481 42.4767 11.2481 42.4677 11.2391C42.4587 11.2391 42.4497 11.2391 42.4407 11.2301C42.4318 11.2301 42.4228 11.2301 42.4138 11.2211C42.1264 11.1672 41.8301 11.1223 41.5427 11.0864C41.2553 11.0415 40.9679 11.0056 40.6805 10.9786C40.3931 10.9427 40.1058 10.9158 39.8184 10.8978C39.531 10.8709 39.2526 10.8529 38.9742 10.835C38.9652 10.835 38.9562 10.835 38.9472 10.835C38.9383 10.835 38.9293 10.835 38.9203 10.835C38.9113 10.835 38.9023 10.835 38.8934 10.835C38.8844 10.835 38.8754 10.835 38.8664 10.835C38.8574 10.835 38.8395 10.835 38.8305 10.835C38.8125 10.835 38.8036 10.835 38.7946 10.835C38.7856 10.835 38.7676 10.835 38.7587 10.835C38.7497 10.835 38.7317 10.835 38.7227 10.835C38.6958 10.835 38.6599 10.835 38.6329 10.835C38.606 10.835 38.5701 10.835 38.5431 10.835C38.5162 10.835 38.4802 10.835 38.4533 10.835C38.4264 10.835 38.3904 10.835 38.3635 10.835C38.3635 10.835 38.3635 10.835 38.3545 10.835C38.3545 10.835 38.3545 10.835 38.3455 10.835C38.3455 10.835 38.3455 10.835 38.3366 10.835C38.3366 10.835 38.3366 10.835 38.3276 10.835C38.112 10.8439 38.0312 11.0415 38.112 11.2211C38.1839 11.4187 38.3904 11.5714 38.597 11.6073L38.6778 11.6253C39.046 11.6342 39.4142 11.6522 39.7825 11.6791C40.1507 11.7061 40.5279 11.742 40.905 11.7869C41.2822 11.8318 41.6594 11.8767 42.0456 11.9396C42.4318 11.9935 42.8179 12.0653 43.2041 12.1372C43.2131 12.1372 43.2131 12.1372 43.2221 12.1372C43.231 12.1372 43.231 12.1372 43.24 12.1372C43.249 12.1372 43.249 12.1372 43.258 12.1372C43.267 12.1372 43.267 12.1372 43.2759 12.1372C43.3029 12.1461 43.3298 12.1461 43.3568 12.1551C43.3837 12.1641 43.4107 12.1641 43.4376 12.1731C43.4645 12.1821 43.4915 12.1821 43.5184 12.191C43.4825 12.1821 43.5094 12.191 43.5364 12.2Z" fill="#FEFEFE"/>
<path d="M74.6903 40.8311C74.6993 40.885 74.7262 40.9389 74.7622 40.9928C74.7981 41.0466 74.834 41.1005 74.8879 41.1454C74.9328 41.1903 74.9867 41.2352 75.0495 41.2622C75.1034 41.2981 75.1663 41.3161 75.2202 41.325C75.4177 41.361 75.6153 41.2712 75.5614 41.0466C75.5525 41.0017 75.5435 40.9658 75.5345 40.9209C75.5255 40.894 75.5255 40.867 75.5165 40.8401C75.5075 40.8131 75.5076 40.7862 75.4986 40.7592C75.4896 40.7323 75.4896 40.7054 75.4806 40.6784C75.4806 40.6605 75.4716 40.6515 75.4716 40.6335C75.4716 40.6156 75.4626 40.6066 75.4626 40.5886C75.4626 40.5707 75.4537 40.5617 75.4537 40.5437C75.4537 40.5258 75.4447 40.5168 75.4447 40.4988C75.4447 40.4898 75.4357 40.4808 75.4357 40.4629C75.4357 40.4539 75.4267 40.4449 75.4267 40.427C75.4267 40.418 75.4177 40.409 75.4177 40.391C75.4177 40.3821 75.4088 40.3731 75.4088 40.3551C75.3998 40.3372 75.3998 40.3192 75.3908 40.2922C75.3818 40.2743 75.3818 40.2563 75.3728 40.2294C75.3639 40.2114 75.3639 40.1935 75.3549 40.1665C75.3459 40.1486 75.3459 40.1306 75.3369 40.1037C75.3369 40.0947 75.3369 40.0947 75.3369 40.0857C75.3369 40.0767 75.3369 40.0767 75.3369 40.0677C75.3369 40.0588 75.3369 40.0588 75.3369 40.0498C75.3369 40.0408 75.3369 40.0408 75.3369 40.0318C75.3279 40.0139 75.3279 39.9959 75.319 39.969C75.31 39.951 75.31 39.933 75.301 39.9061C75.292 39.8881 75.292 39.8702 75.283 39.8432C75.2741 39.8253 75.274 39.8073 75.2651 39.7804C75.2651 39.7714 75.2651 39.7714 75.2651 39.7624C75.2651 39.7534 75.2651 39.7534 75.2561 39.7444C75.2561 39.7355 75.2561 39.7355 75.2561 39.7265C75.2561 39.7175 75.2561 39.7175 75.2471 39.7085C75.2381 39.6905 75.2381 39.6726 75.2292 39.6546C75.2292 39.6367 75.2202 39.6187 75.2112 39.6007C75.2022 39.5828 75.2022 39.5648 75.1932 39.5469C75.1842 39.5289 75.1842 39.5109 75.1753 39.493C75.1753 39.484 75.1663 39.475 75.1663 39.466C75.1663 39.457 75.1663 39.4481 75.1573 39.4391C75.1573 39.4301 75.1483 39.4211 75.1483 39.4121C75.1483 39.4032 75.1393 39.3942 75.1393 39.3852C75.1393 39.3672 75.1304 39.3583 75.1214 39.3403C75.1214 39.3223 75.1124 39.3044 75.1034 39.2954C75.0944 39.2774 75.0944 39.2595 75.0855 39.2505C75.0765 39.2325 75.0765 39.2236 75.0675 39.2056C75.0675 39.1966 75.0585 39.1876 75.0585 39.1697C75.0585 39.1607 75.0495 39.1517 75.0495 39.1337C75.0495 39.1248 75.0405 39.1158 75.0405 39.0978C75.0405 39.0888 75.0316 39.0799 75.0316 39.0619C75.0316 39.0529 75.0226 39.035 75.0226 39.026C75.0226 39.017 75.0136 38.999 75.0136 38.9901C75.0136 38.9811 75.0046 38.9631 75.0046 38.9541C75.0046 38.9452 74.9957 38.9272 74.9957 38.9182C74.9957 38.9002 74.9867 38.8823 74.9777 38.8733C74.9687 38.8553 74.9687 38.8374 74.9597 38.8284C74.9507 38.8104 74.9507 38.7925 74.9418 38.7835C74.9328 38.7655 74.9328 38.7476 74.9238 38.7386C74.9238 38.7296 74.9238 38.7206 74.9148 38.7206C74.9148 38.7116 74.9148 38.7027 74.9058 38.7027C74.9058 38.6937 74.9058 38.6847 74.8969 38.6847C74.8969 38.6757 74.8969 38.6667 74.8879 38.6667C74.816 38.4512 74.7442 38.2357 74.6724 38.0291C74.6005 37.8136 74.5197 37.598 74.4388 37.3915C74.358 37.176 74.2772 36.9694 74.1874 36.7539C74.1066 36.5383 74.0168 36.3318 73.927 36.1162C73.927 36.1072 73.918 36.1072 73.918 36.0983C73.918 36.0893 73.909 36.0893 73.909 36.0803C73.909 36.0713 73.9 36.0713 73.9 36.0623C73.9 36.0534 73.891 36.0534 73.891 36.0444C73.8641 35.9995 73.8371 35.9636 73.8012 35.9276C73.7653 35.8917 73.7294 35.8558 73.6934 35.8289C73.6575 35.8019 73.6126 35.775 73.5767 35.757C73.5318 35.739 73.4959 35.7211 73.451 35.7121C73.4151 35.7031 73.3881 35.7031 73.3522 35.7031C73.2983 35.7031 73.2534 35.7121 73.2085 35.7301C73.1726 35.748 73.1366 35.775 73.1187 35.8109C73.1007 35.8468 73.0828 35.8827 73.0828 35.9366C73.0828 35.9815 73.0917 36.0354 73.1187 36.0893C73.2714 36.4485 73.424 36.8167 73.5587 37.176C73.6935 37.5352 73.8282 37.9034 73.9539 38.2626C74.0796 38.6218 74.1874 38.9901 74.2951 39.3493C74.4029 39.7085 74.5017 40.0767 74.5915 40.4359C74.5915 40.4359 74.5915 40.436 74.5915 40.4449C74.5915 40.4449 74.5915 40.4449 74.5915 40.4539C74.5915 40.4539 74.5915 40.4539 74.5915 40.4629C74.5915 40.4629 74.5915 40.4629 74.5915 40.4719C74.6005 40.4988 74.6005 40.5258 74.6095 40.5437C74.6185 40.5707 74.6185 40.5976 74.6274 40.6156C74.6364 40.6425 74.6364 40.6694 74.6454 40.6964C74.6813 40.7862 74.6813 40.8042 74.6903 40.8311Z" fill="#FEFEFE"/>
<path d="M33.9899 11.9219C34.0438 11.913 34.0797 11.895 34.1156 11.8681C34.1516 11.8411 34.1695 11.8052 34.1785 11.7603C34.1875 11.7154 34.1965 11.6705 34.1785 11.6256C34.1695 11.5717 34.1426 11.5268 34.1156 11.4729C34.0887 11.437 34.0618 11.3921 34.0258 11.3562C33.9899 11.3202 33.954 11.2933 33.9181 11.2664C33.8821 11.2394 33.8372 11.2125 33.7923 11.1945C33.7474 11.1765 33.7115 11.1586 33.6666 11.1496C33.6576 11.1496 33.6397 11.1496 33.6307 11.1406C33.6217 11.1406 33.6037 11.1406 33.5948 11.1406C33.5858 11.1406 33.5678 11.1406 33.5588 11.1406C33.5499 11.1406 33.5319 11.1406 33.5229 11.1406C32.068 11.3921 30.6311 11.8142 29.2751 12.4069C29.2661 12.4069 29.2661 12.4159 29.2571 12.4159C29.2481 12.4159 29.2481 12.4249 29.2391 12.4249C29.2301 12.4249 29.2301 12.4338 29.2212 12.4338L29.2122 12.4428C29.0595 12.5775 29.1493 12.8021 29.2571 12.9278L29.6522 13.1703L29.8768 13.1613C30.1911 13.0176 30.5144 12.8919 30.8467 12.7661C31.179 12.6404 31.5112 12.5326 31.8615 12.4249C32.2028 12.3171 32.553 12.2273 32.9122 12.1375C33.2715 12.0656 33.6307 11.9938 33.9899 11.9219C34.0438 11.913 33.6307 11.9938 33.9899 11.9219Z" fill="#FEFEFE"/>
<path d="M75.3099 45.4469C75.3189 45.8151 75.3099 46.1743 75.2919 46.5335C75.2739 46.8928 75.256 47.252 75.2201 47.6022C75.1842 47.9525 75.1392 48.3027 75.0854 48.653C75.0315 48.9942 74.9686 49.3355 74.8878 49.6768C74.8339 49.9103 75.0584 50.1438 75.238 50.2336L75.3997 50.2875C75.4356 50.2964 75.4715 50.2964 75.5075 50.2964C75.5434 50.2964 75.5703 50.2875 75.5973 50.2785C75.6242 50.2695 75.6512 50.2515 75.6691 50.2425C75.6871 50.2246 75.705 50.2066 75.723 50.1797C75.732 50.1617 75.7409 50.1438 75.7409 50.1258C75.8038 49.8564 75.8577 49.587 75.9116 49.3086C75.9565 49.0302 76.0014 48.7518 76.0373 48.4733C76.0732 48.1949 76.1002 47.9076 76.1181 47.6202C76.1361 47.3328 76.1541 47.0454 76.163 46.7491C76.163 46.7401 76.163 46.7401 76.163 46.7311C76.163 46.7221 76.163 46.7221 76.163 46.7131C76.163 46.7042 76.163 46.7042 76.163 46.6952C76.163 46.6862 76.163 46.6862 76.163 46.6772C76.163 46.6682 76.163 46.6593 76.163 46.6413C76.163 46.6233 76.163 46.6233 76.163 46.6054C76.163 46.5964 76.163 46.5874 76.163 46.5694C76.163 46.5605 76.163 46.5515 76.163 46.5335C76.163 46.4707 76.163 46.3988 76.163 46.336C76.163 46.2731 76.163 46.2012 76.163 46.1384C76.163 46.0755 76.163 46.0037 76.163 45.9408C76.163 45.8779 76.163 45.8061 76.163 45.7432C76.1541 45.5007 75.9295 45.2852 75.714 45.2134C75.705 45.2134 75.705 45.2044 75.6961 45.2044C75.6871 45.2044 75.6871 45.2044 75.6781 45.1954C75.6691 45.1954 75.6691 45.1954 75.6601 45.1864C75.6511 45.1864 75.6511 45.1864 75.6422 45.1864C75.5973 45.1774 75.5524 45.1774 75.5075 45.1864C75.4625 45.1954 75.4266 45.2044 75.3997 45.2313C75.3727 45.2493 75.3458 45.2852 75.3278 45.3122C75.3099 45.3571 75.3009 45.402 75.3099 45.4469C75.3099 45.8061 75.3009 45.402 75.3099 45.4469Z" fill="#FEFEFE"/>
<path d="M23.8774 18.1991C24.057 17.9297 24.2456 17.6603 24.4432 17.3998C24.6408 17.1394 24.8473 16.8879 25.0629 16.6454C25.2784 16.403 25.5029 16.1605 25.7454 15.936C25.9789 15.7114 26.2214 15.4869 26.4818 15.2804C26.6704 15.1277 26.5088 14.8493 26.3651 14.7325C26.3381 14.7056 26.3112 14.6876 26.2842 14.6697C26.2573 14.6517 26.2304 14.6338 26.1944 14.6158C26.1675 14.5978 26.1406 14.5889 26.1046 14.5799C26.0777 14.5709 26.0507 14.5619 26.0148 14.5529C25.9969 14.5529 25.9789 14.5439 25.9609 14.5439C25.943 14.5439 25.925 14.5439 25.9071 14.5439C25.8891 14.5439 25.8711 14.544 25.8532 14.5529C25.8352 14.5529 25.8173 14.5619 25.8083 14.5619C25.7813 14.5709 25.7634 14.5799 25.7364 14.5978C25.476 14.8134 25.2245 15.0379 24.9731 15.2804C24.7306 15.5139 24.4971 15.7563 24.2726 16.0168C24.0481 16.2682 23.8325 16.5287 23.626 16.7981C23.4194 17.0675 23.2308 17.3369 23.0422 17.6153C23.0422 17.6243 23.0332 17.6333 23.0332 17.6333C23.0332 17.6423 23.0243 17.6513 23.0243 17.6513C23.0243 17.6603 23.0153 17.6692 23.0153 17.6782C23.0153 17.6872 23.0153 17.6962 23.0063 17.7052C22.9704 17.8937 23.123 18.0824 23.2667 18.1901L23.5362 18.3159L23.8774 18.1991Z" fill="#FEFEFE"/>
<path d="M73.451 53.3863C72.8224 54.5358 71.9962 55.5776 71.0532 56.4846C70.9005 56.6553 71.0532 56.9247 71.1879 57.0504L71.5292 57.2211L71.7806 57.1672L71.8076 57.1582C72.0501 56.9247 72.2836 56.6822 72.5081 56.4307C72.7326 56.1793 72.9481 55.9188 73.1547 55.6584C73.3612 55.389 73.5588 55.1196 73.7474 54.8412C73.936 54.5628 74.1066 54.2754 74.2683 53.979C74.2683 53.97 74.2773 53.97 74.2773 53.9611C74.2773 53.9521 74.2862 53.9521 74.2862 53.9431C74.2862 53.9341 74.2862 53.9251 74.2952 53.9251C74.2952 53.9162 74.2952 53.9072 74.3042 53.8982C74.3312 53.7006 74.1785 53.512 74.0348 53.4043C74.0168 53.3863 73.9899 53.3773 73.9719 53.3594C73.954 53.3504 73.927 53.3324 73.9091 53.3234C73.8911 53.3145 73.8641 53.3055 73.8462 53.2965C73.8282 53.2875 73.8013 53.2875 73.7833 53.2785C73.6576 53.2606 73.5229 53.2785 73.451 53.3863C73.2894 53.6737 73.469 53.3594 73.451 53.3863Z" fill="#FEFEFE"/>
<path d="M21.2102 26.2466C21.2551 26.2555 21.3 26.2555 21.3359 26.2555C21.3718 26.2555 21.4078 26.2376 21.4437 26.2286C21.4796 26.2106 21.5065 26.1927 21.5245 26.1657C21.5425 26.1388 21.5604 26.1118 21.5694 26.0669C21.5694 26.049 21.5784 26.04 21.5784 26.022C21.5874 25.7975 21.5963 25.573 21.6053 25.3575C21.6233 25.133 21.6413 24.9174 21.6592 24.7019C21.6772 24.4863 21.7041 24.2708 21.7311 24.0553C21.758 23.8397 21.7939 23.6332 21.8298 23.4266C21.8568 23.2919 21.8837 23.1482 21.9107 23.0135C21.9376 22.8788 21.9646 22.7441 22.0005 22.6094C22.0274 22.4747 22.0633 22.34 22.0993 22.2142C22.1352 22.0795 22.1711 21.9538 22.207 21.8191C22.2789 21.5946 22.0633 21.3611 21.8837 21.2623C21.8658 21.2533 21.8478 21.2443 21.8388 21.2443C21.8298 21.2443 21.8119 21.2353 21.7939 21.2263C21.776 21.2174 21.767 21.2174 21.749 21.2084C21.7311 21.2084 21.7221 21.1994 21.7041 21.1994C21.6682 21.1904 21.6323 21.1904 21.5963 21.1904C21.5604 21.1904 21.5335 21.1994 21.5065 21.2084C21.4796 21.2174 21.4527 21.2264 21.4257 21.2443C21.3988 21.2623 21.3808 21.2802 21.3718 21.2982C21.3718 21.2982 21.3628 21.3072 21.3628 21.3162C21.3628 21.3162 21.3539 21.3251 21.3539 21.3341C21.3539 21.3431 21.3449 21.3431 21.3449 21.3521C21.3449 21.3611 21.3449 21.3611 21.3359 21.37C21.2371 21.7023 21.1473 22.0526 21.0665 22.4028C20.9857 22.7531 20.9228 23.1123 20.8689 23.4715C20.815 23.8307 20.7701 24.199 20.7342 24.5761C20.6983 24.9533 20.6803 25.3216 20.6624 25.7077C20.6624 25.7167 20.6624 25.7167 20.6624 25.7257C20.6624 25.7347 20.6624 25.7436 20.6624 25.7436C20.6624 25.7526 20.6624 25.7616 20.6624 25.7616C20.6624 25.7706 20.6624 25.7796 20.6624 25.7796C20.7073 25.9951 20.9048 26.1657 21.1024 26.2376L21.2102 26.2466Z" fill="#FEFEFE"/>
<path d="M21.0845 30.431C21.0845 30.44 21.0845 30.44 21.0845 30.449C21.0935 30.5119 21.1114 30.5837 21.1204 30.6466C21.1294 30.6735 21.1294 30.7005 21.1384 30.7274C21.1473 30.7544 21.1473 30.7813 21.1563 30.8082C21.1653 30.8352 21.1653 30.8621 21.1743 30.8891V30.898V30.907V30.916C21.1743 30.925 21.1743 30.925 21.1743 30.934C21.1743 30.9519 21.1833 30.9789 21.1922 30.9968C21.2012 31.0148 21.2012 31.0417 21.2102 31.0597C21.2192 31.0777 21.2192 31.1046 21.2282 31.1226C21.2371 31.1405 21.2371 31.1675 21.2461 31.1854C21.2461 31.2034 21.2551 31.2124 21.2551 31.2303C21.2551 31.2393 21.2641 31.2573 21.2641 31.2663C21.2641 31.2752 21.2731 31.2932 21.2731 31.3022C21.2731 31.3112 21.282 31.3291 21.282 31.3381C21.282 31.3471 21.291 31.365 21.291 31.374C21.291 31.383 21.3 31.401 21.3 31.4099C21.3 31.4189 21.309 31.4369 21.309 31.4459C21.309 31.4548 21.318 31.4728 21.318 31.4818C21.318 31.4997 21.3269 31.5177 21.3269 31.5267C21.3269 31.5447 21.3359 31.5626 21.3359 31.5716C21.3359 31.5896 21.3449 31.6075 21.3449 31.6165C21.3449 31.6345 21.3539 31.6524 21.3539 31.6614C21.3539 31.6704 21.3629 31.6794 21.3629 31.6884C21.3629 31.6973 21.3719 31.7063 21.3719 31.7153C21.3719 31.7243 21.3808 31.7333 21.3808 31.7422C21.3808 31.7512 21.3808 31.7602 21.3898 31.7692C21.3898 31.7871 21.3988 31.8051 21.4078 31.8231C21.4168 31.841 21.4168 31.859 21.4257 31.8769C21.4347 31.8949 21.4347 31.9129 21.4437 31.9308C21.4527 31.9488 21.4527 31.9667 21.4617 31.9847C21.4617 31.9937 21.4617 32.0027 21.4706 32.0117C21.4706 32.0206 21.4706 32.0296 21.4796 32.0386C21.4796 32.0476 21.4796 32.0566 21.4886 32.0655C21.4886 32.0745 21.4886 32.0835 21.4976 32.0925C21.4976 32.1104 21.5066 32.1284 21.5155 32.1464C21.5155 32.1643 21.5245 32.1823 21.5335 32.2002C21.5335 32.2182 21.5425 32.2362 21.5515 32.2541C21.5604 32.2721 21.5605 32.29 21.5694 32.308C21.5694 32.317 21.5784 32.326 21.5784 32.335C21.5784 32.3439 21.5874 32.3529 21.5874 32.3619C21.5874 32.3709 21.5964 32.3799 21.5964 32.3888C21.5964 32.3978 21.6054 32.4068 21.6054 32.4158C21.6143 32.4337 21.6143 32.4517 21.6233 32.4697C21.6323 32.4876 21.6323 32.5056 21.6413 32.5236C21.6503 32.5415 21.6503 32.5595 21.6592 32.5774C21.6682 32.5954 21.6682 32.6134 21.6772 32.6313C21.6772 32.6403 21.6862 32.6493 21.6862 32.6583C21.6862 32.6672 21.6952 32.6762 21.6952 32.6852C21.6952 32.6942 21.7041 32.7032 21.7041 32.7211C21.7041 32.7301 21.7131 32.7391 21.7131 32.7481C21.7131 32.766 21.7221 32.775 21.7221 32.793C21.7311 32.8109 21.7311 32.8199 21.7401 32.8379C21.749 32.8558 21.749 32.8648 21.758 32.8828C21.758 32.9007 21.767 32.9097 21.776 32.9277C21.776 32.9367 21.785 32.9546 21.785 32.9636C21.785 32.9726 21.7939 32.9905 21.7939 32.9995C21.7939 33.0085 21.8029 33.0265 21.8029 33.0355C21.8029 33.0444 21.8119 33.0624 21.8119 33.0714C21.8119 33.0893 21.8209 33.0983 21.8299 33.1163C21.8299 33.1342 21.8389 33.1432 21.8478 33.1612C21.8478 33.1791 21.8568 33.1881 21.8658 33.2061C21.8658 33.224 21.8748 33.233 21.8838 33.251C21.8838 33.26 21.8927 33.2779 21.8927 33.2869C21.8927 33.2959 21.9017 33.3139 21.9017 33.3228C21.9017 33.3318 21.9107 33.3498 21.9107 33.3588C21.9107 33.3677 21.9197 33.3857 21.9197 33.3947C21.9197 33.4037 21.9287 33.4126 21.9287 33.4306C21.9287 33.4396 21.9376 33.4486 21.9376 33.4665C21.9376 33.4755 21.9466 33.4845 21.9466 33.5024C21.9466 33.5114 21.9556 33.5204 21.9556 33.5384C21.9646 33.5563 21.9646 33.5743 21.9736 33.5923C21.9825 33.6102 21.9825 33.6282 21.9915 33.6461C22.0005 33.6641 22.0005 33.6821 22.0095 33.7C22.0185 33.718 22.0185 33.7359 22.0274 33.7449C22.0274 33.7539 22.0364 33.7629 22.0364 33.7719C22.0364 33.7808 22.0454 33.7898 22.0454 33.7988C22.0454 33.8078 22.0544 33.8168 22.0544 33.8257C22.0544 33.8347 22.0634 33.8437 22.0634 33.8527C22.0723 33.8707 22.0813 33.8886 22.0813 33.9156C22.0903 33.9335 22.0993 33.9515 22.0993 33.9784C22.1083 33.9964 22.1173 34.0143 22.1173 34.0413C22.1262 34.0593 22.1352 34.0772 22.1352 34.1041C22.1352 34.1041 22.1352 34.1131 22.1442 34.1221C22.1442 34.1221 22.1442 34.1311 22.1532 34.1311C22.1532 34.1311 22.1532 34.1401 22.1622 34.1491V34.158C22.1711 34.185 22.1801 34.2029 22.1891 34.2299C22.1981 34.2568 22.2071 34.2748 22.216 34.3017C22.225 34.3287 22.234 34.3466 22.243 34.3736C22.252 34.4005 22.2609 34.4185 22.2699 34.4454C22.2699 34.4454 22.2699 34.4454 22.2699 34.4544C22.2699 34.4544 22.2699 34.4544 22.2699 34.4634C22.2699 34.4634 22.2699 34.4634 22.2699 34.4724C22.4046 34.8406 22.5393 35.2088 22.692 35.577C22.692 35.577 22.692 35.577 22.692 35.586C22.692 35.586 22.692 35.586 22.692 35.5949C22.692 35.5949 22.692 35.595 22.692 35.6039C22.692 35.6039 22.692 35.6039 22.692 35.6129C22.7728 35.8015 22.9794 35.9542 23.177 35.9901L23.2578 36.0081C23.3207 36.0081 23.3745 35.9991 23.4195 35.9811C23.4644 35.9632 23.4913 35.9272 23.5182 35.8913C23.5362 35.8554 23.5542 35.8105 23.5542 35.7566C23.5542 35.7027 23.5452 35.6488 23.5182 35.5949V35.586V35.577V35.568V35.559C23.3746 35.2088 23.2398 34.8585 23.1141 34.5083C22.9884 34.158 22.8716 33.8078 22.7549 33.4576C22.6471 33.1073 22.5393 32.757 22.4495 32.4068C22.3507 32.0565 22.2699 31.7063 22.1891 31.365C22.1801 31.3381 22.1801 31.3112 22.1711 31.2932C22.1622 31.2663 22.1622 31.2483 22.1532 31.2214C22.1442 31.1944 22.1442 31.1764 22.1352 31.1495C22.1262 31.1226 22.1262 31.1046 22.1173 31.0777C22.0993 30.9789 22.0724 30.8711 22.0544 30.7723C22.0454 30.6825 22.0095 30.5747 21.9646 30.4939C21.9287 30.44 21.8927 30.3951 21.8478 30.3502C21.8029 30.3053 21.749 30.2694 21.6952 30.2425C21.6413 30.2155 21.5784 30.1886 21.5155 30.1796C21.4527 30.1706 21.3988 30.1706 21.3449 30.1796C21.291 30.1886 21.2551 30.2065 21.2192 30.2335C21.1833 30.2604 21.1653 30.2963 21.1473 30.3323C21.0845 30.3323 21.0845 30.3772 21.0845 30.431Z" fill="#FEFEFE"/>
<path d="M54.0258 60.2738C53.9629 60.2648 53.909 60.2648 53.8641 60.2738C53.8102 60.2828 53.7743 60.3097 53.7384 60.3367C53.7025 60.3636 53.6755 60.4085 53.6665 60.4534C53.6486 60.4983 53.6486 60.5522 53.6665 60.6061C53.7204 60.8396 53.9449 61.0551 54.1784 61.1L54.2144 61.109C54.5197 61.1629 54.8251 61.2168 55.1304 61.2617C55.4178 61.3066 55.6962 61.3425 55.9836 61.3784C56.262 61.4144 56.5494 61.4413 56.8278 61.4682C57.1062 61.4952 57.3846 61.5132 57.663 61.5311H57.6719H57.6809H57.6899H57.6989C57.7168 61.5311 57.7438 61.5311 57.7617 61.5311C57.7797 61.5311 57.8066 61.5311 57.8246 61.5311C57.8426 61.5311 57.8695 61.5311 57.8875 61.5311C57.9054 61.5311 57.9324 61.5311 57.9503 61.5311C57.9593 61.5311 57.9773 61.5311 57.9863 61.5311C57.9952 61.5311 58.0132 61.5311 58.0222 61.5311C58.0312 61.5311 58.0491 61.5311 58.0581 61.5311C58.0671 61.5311 58.0851 61.5311 58.094 61.5311C58.103 61.5311 58.121 61.5311 58.13 61.5311C58.1389 61.5311 58.1569 61.5311 58.1659 61.5311C58.1749 61.5311 58.1838 61.5311 58.2018 61.5311C58.2108 61.5311 58.2287 61.5311 58.2377 61.5311C58.2557 61.5311 58.2826 61.5311 58.3006 61.5311C58.3186 61.5311 58.3455 61.5311 58.3635 61.5311C58.3814 61.5311 58.4084 61.5311 58.4263 61.5311C58.4443 61.5311 58.4712 61.5311 58.4892 61.5311C58.57 61.5311 58.6508 61.5311 58.7317 61.5401C58.8125 61.5401 58.8933 61.5401 58.9741 61.5401C59.055 61.5401 59.1358 61.5401 59.2076 61.5401C59.2885 61.5401 59.3603 61.5401 59.4411 61.5401C59.495 61.5401 59.5489 61.5311 59.5848 61.5042C59.6208 61.4862 59.6567 61.4503 59.6746 61.4144C59.6926 61.3784 59.7016 61.3335 59.7016 61.2797C59.7016 61.2258 59.6836 61.1719 59.6657 61.118C59.6477 61.0641 59.6118 61.0192 59.5848 60.9743C59.5489 60.9294 59.513 60.8845 59.4681 60.8486C59.4232 60.8127 59.3783 60.7767 59.3244 60.7588C59.2705 60.7318 59.2256 60.7139 59.1717 60.7049H59.1627H59.1538H59.1448H59.1358H59.1268H59.1178H59.1088H59.0999C58.7227 60.7049 58.3365 60.6959 57.9503 60.6869C57.5642 60.669 57.169 60.642 56.7739 60.6151C56.3787 60.5792 55.9836 60.5432 55.5794 60.4894C55.1753 60.4355 54.7712 60.3816 54.367 60.3097C54.3401 60.3097 54.3132 60.3008 54.2862 60.2918C54.2593 60.2918 54.2323 60.2828 54.2054 60.2738C54.1784 60.2738 54.1515 60.2648 54.1246 60.2559C54.0797 60.2828 54.0527 60.2828 54.0258 60.2738Z" fill="#FEFEFE"/>
<path d="M27.0927 42.2405C27.1287 42.2854 27.1556 42.3303 27.1825 42.3752C27.2095 42.4201 27.2454 42.456 27.2723 42.5009C27.2993 42.5369 27.3262 42.5818 27.3532 42.6177C27.3801 42.6536 27.4071 42.6985 27.434 42.7344C28.5566 44.3061 29.8049 45.8328 31.17 47.2787C32.535 48.7246 34.0079 50.0986 35.5705 51.3739C37.1332 52.6491 38.7766 53.8256 40.483 54.8943C42.1893 55.954 43.9585 56.897 45.7726 57.6963C45.8085 57.7142 45.8444 57.7322 45.8804 57.7412C45.9163 57.7591 45.9432 57.7681 45.9702 57.7771C45.9971 57.7861 46.024 57.8041 46.051 57.813C46.0779 57.822 46.1049 57.831 46.1228 57.8489C46.1588 57.8669 46.1947 57.8759 46.2306 57.8939C46.2665 57.9118 46.3025 57.9208 46.3384 57.9388C46.3743 57.9567 46.4102 57.9657 46.4461 57.9837C46.4821 58.0016 46.518 58.0106 46.5539 58.0286C46.5719 58.0375 46.5898 58.0465 46.6168 58.0555C46.6347 58.0645 46.6527 58.0735 46.6796 58.0825C46.6976 58.0914 46.7156 58.1004 46.7425 58.1094C46.7605 58.1184 46.7784 58.1274 46.8054 58.1363C46.8413 58.1543 46.8772 58.1633 46.9131 58.1812C46.9491 58.1992 46.985 58.2082 47.0209 58.2261C47.0568 58.2441 47.0928 58.2531 47.1287 58.271C47.1646 58.28 47.2005 58.298 47.2364 58.3159C47.7932 58.5405 48.359 58.747 48.9248 58.9446C49.4906 59.1422 50.0564 59.3218 50.6311 59.4834C51.1969 59.6451 51.7717 59.7978 52.3465 59.9325C52.9212 60.0672 53.487 60.1839 54.0618 60.2917C54.0887 60.2917 54.1157 60.3007 54.1426 60.3097C54.1695 60.3097 54.1965 60.3186 54.2234 60.3276C54.2504 60.3366 54.2773 60.3366 54.3043 60.3456C54.3312 60.3546 54.3581 60.3546 54.3851 60.3635C54.7892 60.4354 55.1933 60.4893 55.5975 60.5432C56.0016 60.597 56.3968 60.633 56.7919 60.6689C57.1871 60.7048 57.5822 60.7318 57.9684 60.7407C58.3545 60.7587 58.7407 60.7677 59.1179 60.7587C62.0366 60.7407 64.659 60.2109 66.8862 59.232C69.1044 58.2621 70.9455 56.8521 72.3375 55.0829C73.7205 53.3227 74.6545 51.2032 75.0766 48.8054C75.4897 46.4165 75.3999 43.7403 74.7174 40.8575C74.7084 40.8305 74.7084 40.8036 74.6994 40.7856C74.6904 40.7587 74.6904 40.7317 74.6815 40.7048C74.6725 40.6779 74.6725 40.6509 74.6635 40.6329C74.6545 40.606 74.6545 40.5791 74.6455 40.5611C73.981 37.9028 72.8853 35.2715 71.4305 32.7389C69.9846 30.2153 68.1884 27.7816 66.1229 25.5364C64.0663 23.2912 61.7403 21.2077 59.2436 19.3846C56.738 17.5615 54.0528 15.9809 51.2778 14.7416C51.1251 14.6697 50.9724 14.6069 50.8287 14.544C50.6761 14.4812 50.5234 14.4183 50.3797 14.3554C50.236 14.2926 50.0743 14.2297 49.9307 14.1668C49.778 14.104 49.6253 14.0411 49.4816 13.9872C49.4277 13.9693 49.3828 13.9513 49.3379 13.9333C49.293 13.9154 49.2571 13.8974 49.2212 13.8884C49.1853 13.8705 49.1493 13.8615 49.1134 13.8525C49.0775 13.8435 49.0505 13.8256 49.0146 13.8166C48.5656 13.6459 48.1165 13.4933 47.6675 13.3406C47.2185 13.1879 46.7605 13.0532 46.3114 12.9185C45.8534 12.7838 45.4044 12.6671 44.9464 12.5503C44.4883 12.4336 44.0303 12.3348 43.5723 12.245C43.5454 12.236 43.5184 12.236 43.4915 12.227C43.4645 12.218 43.4376 12.218 43.4107 12.209C43.3837 12.2001 43.3568 12.2001 43.3298 12.1911C43.3029 12.1821 43.276 12.1821 43.249 12.1731C40.4111 11.6343 37.7528 11.5175 35.355 11.7869C32.9481 12.0564 30.7838 12.712 28.9248 13.7088C27.0568 14.7057 25.4942 16.0528 24.3087 17.6873C23.1143 19.3307 22.2791 21.2706 21.8839 23.4619C21.848 23.6684 21.8121 23.8839 21.7851 24.0905C21.7582 24.306 21.7313 24.5216 21.7133 24.7371C21.6953 24.9527 21.6774 25.1682 21.6594 25.3927C21.6414 25.6082 21.6325 25.8328 21.6325 26.0573C21.6235 26.4345 21.6235 26.8206 21.6325 27.2068C21.6414 27.593 21.6684 27.9792 21.7043 28.3743C21.7402 28.7695 21.7851 29.1646 21.848 29.5597C21.9109 29.9639 21.9737 30.368 22.0635 30.7721C22.0725 30.7991 22.0725 30.826 22.0815 30.853C22.0905 30.8799 22.0905 30.9069 22.0995 30.9248C22.1084 30.9518 22.1084 30.9787 22.1174 30.9967C22.1264 31.0236 22.1264 31.0505 22.1354 31.0775C22.1444 31.1044 22.1444 31.1224 22.1534 31.1493C22.1623 31.1763 22.1623 31.1942 22.1713 31.2212C22.1803 31.2481 22.1803 31.2661 22.1893 31.293C22.1983 31.32 22.1983 31.3379 22.2072 31.3649C22.2881 31.7151 22.3779 32.0654 22.4677 32.4156C22.5665 32.7659 22.6652 33.1161 22.773 33.4664C22.8808 33.8166 23.0065 34.1669 23.1322 34.5171C23.258 34.8673 23.3927 35.2176 23.5364 35.5678C23.698 35.9809 23.8776 36.3851 24.0662 36.7982C24.2548 37.2113 24.4434 37.6154 24.65 38.0196C24.8565 38.4237 25.0721 38.8278 25.2876 39.232C25.5121 39.6361 25.7456 40.0312 25.9881 40.4264C26.0869 40.5881 26.1857 40.7497 26.2845 40.9114C26.3833 41.064 26.482 41.2257 26.5808 41.3783C26.6796 41.531 26.7784 41.6837 26.8772 41.8274C26.8952 41.9441 26.9939 42.0968 27.0927 42.2405C27.1287 42.2854 26.9939 42.0968 27.0927 42.2405Z" fill="#E39600"/>
<path d="M40.6895 55.8379C41.1654 56.1253 41.6504 56.4037 42.1353 56.6731L40.6895 55.8379Z" fill="#E39600"/>
<path d="M33.1096 49.3625C33.0827 49.3535 33.0557 49.3535 33.0288 49.3535C33.0018 49.3535 32.9749 49.3535 32.948 49.3625C32.921 49.3715 32.9031 49.3715 32.8761 49.3894C32.8581 49.3984 32.8312 49.4164 32.8132 49.4254C32.7863 49.4523 32.7594 49.4882 32.7504 49.5242C32.7414 49.5601 32.7324 49.605 32.7324 49.6499C32.7324 49.6948 32.7504 49.7397 32.7683 49.7846C32.7863 49.8295 32.8132 49.8744 32.8492 49.9193C32.8581 49.9283 32.8582 49.9373 32.8671 49.9462C32.8761 49.9552 32.8851 49.9642 32.8851 49.9732C32.8941 49.9822 32.9031 49.9911 32.9031 50.0001C32.912 50.0091 32.921 50.0181 32.93 50.0271C34.4747 51.455 36.1092 52.7662 37.8155 53.9875L37.8694 54.0055L38.0849 54.0863L38.4172 53.9786C38.4352 53.9337 38.4531 53.8888 38.4531 53.8349C38.4531 53.781 38.4441 53.7271 38.4172 53.6732C38.3992 53.6193 38.3633 53.5655 38.3184 53.5116C38.2735 53.4577 38.2286 53.4128 38.1657 53.3679C37.7526 53.0715 37.3395 52.7752 36.9354 52.4698C36.5313 52.1645 36.1271 51.8501 35.741 51.5268C35.3458 51.2035 34.9596 50.8802 34.5735 50.548C34.1873 50.2157 33.8101 49.8744 33.4329 49.5331C33.406 49.5062 33.379 49.4882 33.3521 49.4703C33.3251 49.4523 33.2982 49.4343 33.2713 49.4164C33.2443 49.3984 33.2174 49.3894 33.1815 49.3805C33.1635 49.3715 33.1366 49.3625 33.1096 49.3625Z" fill="#FEFEFE"/>
<path d="M48.6823 12.9549C48.6913 12.9549 48.7003 12.9548 48.7003 12.9638C48.7003 12.9728 48.7183 12.9638 48.7272 12.9728C48.7362 12.9728 48.7452 12.9728 48.7542 12.9818C48.7632 12.9818 48.7721 12.9908 48.7811 12.9908C49.9935 13.4308 51.188 13.9427 52.3465 14.4995C49.5175 13.1434 46.5359 12.0837 43.4556 11.4551C43.5184 11.4641 43.5723 11.491 43.6262 11.5179C43.6801 11.5449 43.725 11.5808 43.7609 11.6257C43.7968 11.6706 43.8328 11.7155 43.8597 11.7604C43.8866 11.8053 43.9046 11.8592 43.9136 11.9131C43.9675 12.1466 43.725 12.2454 43.5364 12.2095C45.3864 12.5866 47.2095 13.1165 48.9787 13.7811C48.9607 13.7721 48.9428 13.7721 48.9248 13.7631C48.9069 13.7541 48.8889 13.7541 48.8709 13.7451C48.853 13.7362 48.835 13.7362 48.817 13.7272C48.7991 13.7182 48.7811 13.7182 48.7632 13.7092C48.7003 13.6913 48.6464 13.6553 48.5925 13.6194C48.5386 13.5835 48.4937 13.5386 48.4488 13.4937C48.4129 13.4488 48.377 13.3949 48.3501 13.341C48.3321 13.2871 48.3141 13.2333 48.3141 13.1883C48.3141 13.1434 48.3231 13.1075 48.3411 13.0806C48.359 13.0536 48.386 13.0267 48.4129 13.0087C48.4488 12.9908 48.4848 12.9818 48.5207 12.9728C48.5925 12.9459 48.6374 12.9459 48.6823 12.9549Z" fill="#E39600"/>
<path d="M73.4691 35.775C73.514 35.784 73.5499 35.8019 73.5948 35.8199C73.6397 35.8379 73.6756 35.8648 73.7115 35.8917C73.7475 35.9187 73.7834 35.9546 73.8193 35.9905C73.8552 36.0264 73.8822 36.0624 73.9091 36.1073C73.1996 34.4728 72.3644 32.9012 71.4215 31.4014C71.4843 31.5541 71.4484 31.7427 71.2688 31.7786H71.1072C70.9275 31.7427 70.7659 31.6259 70.6671 31.4643C69.6702 29.8837 68.5566 28.3659 67.3622 26.938C67.2544 26.8122 67.1287 26.5339 67.3442 26.4261C67.4161 26.3902 67.4969 26.3902 67.5688 26.4081C67.5957 26.4171 67.6226 26.4171 67.6496 26.4261C67.6765 26.4351 67.7035 26.444 67.7304 26.462C67.7573 26.471 67.7843 26.4889 67.8022 26.5069C67.8292 26.5249 67.8472 26.5428 67.8741 26.5608C66.6437 25.1059 65.3236 23.7319 63.9316 22.4387C64.0214 22.5554 64.1112 22.7709 63.9675 22.8787L63.6891 22.9326L63.3568 22.762C61.9289 21.4418 60.4022 20.2114 58.8126 19.0889C58.6689 18.9811 58.4533 18.7206 58.5791 18.532C58.597 18.5051 58.615 18.4871 58.633 18.4692C58.6509 18.4512 58.6779 18.4422 58.7048 18.4333C58.7317 18.4243 58.7587 18.4243 58.7946 18.4243C58.8215 18.4243 58.8575 18.4243 58.8934 18.4333C58.9024 18.4333 58.9203 18.4422 58.9293 18.4422C58.9383 18.4422 58.9563 18.4512 58.9652 18.4512C58.9742 18.4512 58.9922 18.4602 59.0012 18.4692C59.0101 18.4782 59.0281 18.4782 59.0371 18.4871C57.4565 17.3646 55.804 16.3318 54.0887 15.4157C54.2414 15.5145 54.448 15.7301 54.3851 15.9366C54.3581 16.0983 54.1785 16.1342 54.0438 16.1073L53.8822 16.0354C53.011 15.5774 52.1219 15.1463 51.2239 14.7422C61.7942 19.475 71.7268 29.0305 74.5827 40.5437C74.2145 39.0529 73.7205 37.5981 73.1098 36.1881C73.0829 36.1342 73.0739 36.0803 73.0739 36.0354C73.0739 35.9905 73.0829 35.9456 73.1098 35.9097C73.1278 35.8738 73.1637 35.8468 73.1997 35.8289C73.2356 35.8109 73.2895 35.8019 73.3433 35.8019C73.4062 35.766 73.4331 35.766 73.4691 35.775Z" fill="#E39600"/>
<path d="M21.839 23.4259C22.6203 19.1242 25.2965 15.487 29.2031 13.5023C33.3163 11.4187 38.1569 11.2481 42.6203 12.0204C41.3001 11.7869 39.962 11.6433 38.6239 11.6073L38.5431 11.5894C38.3365 11.5445 38.1299 11.4008 38.0581 11.2032C37.9773 11.0146 38.0581 10.826 38.2736 10.817C36.6841 10.7721 35.0855 10.8709 33.5139 11.1493C33.5588 11.1403 33.6127 11.1403 33.6665 11.1493C33.7114 11.1583 33.7474 11.1763 33.7923 11.1942C33.8372 11.2122 33.8731 11.2391 33.918 11.2661C33.9539 11.293 33.9988 11.3289 34.0258 11.3559C34.0617 11.3918 34.0886 11.4277 34.1156 11.4726C34.1515 11.5265 34.1695 11.5804 34.1784 11.6253C34.1874 11.6702 34.1874 11.7241 34.1784 11.76C34.1695 11.8049 34.1425 11.8408 34.1156 11.8678C34.0797 11.8947 34.0437 11.9127 33.9898 11.9217C33.6216 11.9845 33.2624 12.0653 32.9122 12.1462C32.5619 12.227 32.2117 12.3258 31.8614 12.4336C31.5202 12.5413 31.1789 12.6491 30.8466 12.7748C30.5143 12.9005 30.191 13.0263 29.8767 13.17L29.6522 13.179L29.257 12.9365C29.1492 12.8107 29.0594 12.5862 29.2121 12.4515C27.9907 12.9993 26.8322 13.6998 25.7994 14.562C25.8623 14.535 25.9431 14.535 26.006 14.553C26.0329 14.562 26.0599 14.571 26.0958 14.5799C26.1228 14.5889 26.1497 14.6069 26.1856 14.6159C26.2126 14.6338 26.2395 14.6518 26.2754 14.6697C26.3024 14.6877 26.3293 14.7147 26.3563 14.7326C26.491 14.8494 26.6526 15.1278 26.473 15.2804C26.2215 15.487 25.9791 15.7115 25.7366 15.936C25.5031 16.1605 25.2786 16.403 25.054 16.6455C24.8385 16.888 24.632 17.1394 24.4344 17.3999C24.2368 17.6603 24.0482 17.9297 23.8686 18.1992L23.5363 18.298L23.2669 18.1722C23.1232 18.0645 22.9705 17.8759 23.0064 17.6873C22.288 18.8009 21.7402 20.0133 21.354 21.2885C21.4258 21.1808 21.5695 21.1628 21.6863 21.1897C21.7042 21.1897 21.7132 21.1987 21.7312 21.1987C21.7492 21.1987 21.7581 21.2077 21.7761 21.2167C21.7941 21.2257 21.803 21.2257 21.821 21.2346C21.839 21.2436 21.8479 21.2526 21.8659 21.2526C22.0455 21.3514 22.2611 21.5849 22.1892 21.8094C22.1533 21.9351 22.1174 22.0698 22.0814 22.2046C22.0455 22.3393 22.0186 22.465 21.9827 22.5997C21.9557 22.7344 21.9198 22.8691 21.8928 23.0038C21.8839 23.1475 21.8569 23.2912 21.839 23.4259C22.2251 21.2706 21.8569 23.2912 21.839 23.4259Z" fill="#E39600"/>
<path d="M20.6714 25.7705C20.6355 27.3331 20.7882 28.8958 21.0935 30.4315C21.0845 30.3776 21.0935 30.3327 21.1025 30.2968C21.1205 30.2609 21.1384 30.2249 21.1743 30.198C21.2103 30.1711 21.2462 30.1531 21.3001 30.1441C21.345 30.1351 21.4078 30.1351 21.4707 30.1441C21.7042 30.189 21.9377 30.3776 21.9826 30.6201L22.0095 30.7368C21.7042 29.2011 21.5426 27.6385 21.5785 26.0669C21.5426 26.2285 21.3629 26.2824 21.2192 26.2555L21.1205 26.2375C20.9139 26.1567 20.7163 25.986 20.6714 25.7705C20.6624 26.1387 20.6804 25.8154 20.6714 25.7705Z" fill="#E39600"/>
<path d="M23.1322 35.9631C22.9256 35.9272 22.728 35.7745 22.6472 35.5859C23.3387 37.2923 24.1829 38.9447 25.1349 40.5253C25.1169 40.4804 25.1079 40.4265 25.1079 40.3816C25.1079 40.3367 25.1169 40.3008 25.1259 40.2649C25.1439 40.2289 25.1618 40.202 25.1888 40.1751C25.2157 40.1481 25.2606 40.1302 25.3055 40.1212C25.3145 40.1212 25.3324 40.1212 25.3414 40.1122C25.3504 40.1122 25.3684 40.1122 25.3863 40.1122C25.4043 40.1122 25.4133 40.1122 25.4312 40.1122C25.4492 40.1122 25.4582 40.1122 25.4761 40.1212C25.6468 40.1571 25.8084 40.2649 25.9162 40.3996C24.9732 38.8459 24.147 37.2204 23.4645 35.541V35.55V35.559V35.568V35.5769C23.5543 35.7925 23.4465 35.9901 23.204 35.9901L23.1322 35.9631Z" fill="#E39600"/>
<path d="M42.1354 56.6724C42.6203 56.9418 43.1142 57.2023 43.6082 57.4537C43.4555 57.3729 43.2939 57.2921 43.1412 57.2113C43.0783 57.1753 43.0244 57.1394 42.9795 57.0945C42.9346 57.0496 42.8897 56.9957 42.8538 56.9508C42.8179 56.8969 42.7999 56.8431 42.7909 56.7892C42.782 56.7353 42.782 56.6814 42.7909 56.6365C42.7999 56.6006 42.8179 56.5647 42.8358 56.5467C42.8538 56.5198 42.8807 56.5018 42.9167 56.4838C42.9436 56.4659 42.9795 56.4569 43.0244 56.4569C43.0604 56.4569 43.1053 56.4569 43.1502 56.4659C43.1681 56.4659 43.1771 56.4748 43.1951 56.4748C43.213 56.4748 43.222 56.4838 43.24 56.4838C43.2579 56.4928 43.2669 56.4928 43.2849 56.5018C43.3028 56.5108 43.3118 56.5198 43.3298 56.5198C43.5363 56.6275 43.7339 56.7263 43.9405 56.8341C44.147 56.9329 44.3446 57.0316 44.5512 57.1304C44.7577 57.2292 44.9643 57.328 45.1618 57.4178C45.3684 57.5166 45.575 57.6064 45.7815 57.6962C38.5251 54.4811 32.05 49.2095 27.4519 42.7344C28.0446 43.5696 28.6643 44.3868 29.3199 45.1771C29.4456 45.3208 29.5354 45.6172 29.3019 45.707L29.0774 45.7339L28.6912 45.5184C29.9845 47.0721 31.3765 48.5449 32.8583 49.9189C32.7595 49.7842 32.6787 49.5597 32.8224 49.425C32.8403 49.407 32.8583 49.3981 32.8852 49.3891C32.9032 49.3801 32.9301 49.3711 32.9571 49.3621C32.984 49.3532 33.011 49.3532 33.0379 49.3532C33.0648 49.3532 33.0918 49.3532 33.1187 49.3621C33.1457 49.3711 33.1726 49.3711 33.2085 49.3891C33.2355 49.3981 33.2624 49.416 33.2983 49.425C33.3253 49.443 33.3522 49.4609 33.3792 49.4789C33.4061 49.4969 33.4331 49.5238 33.46 49.5417C33.8372 49.883 34.2144 50.2243 34.6005 50.5566C34.9867 50.8889 35.3729 51.2122 35.768 51.5355C36.1632 51.8588 36.5583 52.1731 36.9625 52.4784C37.3666 52.7838 37.7797 53.0801 38.1928 53.3765C38.2557 53.4214 38.3006 53.4663 38.3455 53.5202C38.3904 53.5741 38.4173 53.628 38.4443 53.6819C38.4622 53.7357 38.4802 53.7896 38.4802 53.8435C38.4802 53.8974 38.4712 53.9423 38.4443 53.9872L38.112 54.095L37.8965 54.0141C38.8125 54.6608 39.7465 55.2714 40.7074 55.8552" fill="#E39600"/>
<g opacity="0.7">
<path opacity="0.7" d="M9.61609 31.7601C9.3826 30.9788 9.17604 30.1885 8.98744 29.3982C9.16705 30.1885 9.3826 30.9788 9.61609 31.7601ZM55.732 72.3079C53.7742 71.9218 51.8433 71.4099 49.9394 70.8082C49.6431 67.8895 49.2749 64.9707 48.8528 62.0699L48.8079 61.8095C49.2928 61.9801 49.7778 62.1418 50.2717 62.2855C50.7567 62.4382 51.2506 62.5729 51.7446 62.7076C52.1577 62.8154 52.5708 62.9141 52.9839 63.0039C45.503 37.5257 34.807 0.0851675 34.807 0.0851675C31.3494 -0.130369 27.8469 0.0941444 24.4881 0.965272C22.8896 1.37838 21.3539 1.96213 19.881 2.68059C19.872 2.67161 19.8721 2.6716 19.8631 2.66262C18.2196 3.45293 16.6839 4.45876 15.3009 5.63523C15.2739 5.66218 15.238 5.68911 15.2111 5.71606C14.6992 6.15611 14.2142 6.61413 13.7472 7.09909C13.3072 7.55711 12.903 8.04207 12.5079 8.54499C12.454 8.61683 12.3911 8.68868 12.3372 8.76053C12.2923 8.82339 12.2385 8.87727 12.1936 8.94014L12.2025 8.94911C11.8523 9.42509 11.502 9.91004 11.1967 10.4309C8.27796 15.2805 7.66728 21.1269 8.47554 26.6501C8.26899 25.2221 8.15224 23.7762 8.15224 22.3304C11.3853 23.2374 14.6273 24.0996 17.8783 24.9078L18.1927 24.9976C18.1837 25.4018 18.1837 25.8059 18.2016 26.219C18.2106 26.6321 18.2376 27.0542 18.2735 27.4763C18.3094 27.8984 18.3633 28.3295 18.4262 28.7695C18.489 29.2096 18.5609 29.6496 18.6507 30.0987C19.0099 31.9307 19.5757 33.7179 20.2762 35.4512L19.9708 35.4242C16.8096 35.0111 13.6394 34.6429 10.4693 34.3286C11.6457 37.5437 13.1814 40.624 14.9955 43.5248C16.621 46.1292 18.4711 48.5989 20.4738 50.9339C20.5097 50.9788 20.5546 51.0237 20.5905 51.0686C21.1473 51.7152 21.7221 52.3528 22.3058 52.9725C22.3597 53.0264 22.4136 53.0803 22.4585 53.1431C23.0602 53.7808 23.6709 54.4004 24.2906 55.0111C24.3534 55.074 24.4073 55.1369 24.4702 55.1907C25.0809 55.7835 25.7005 56.3582 26.3292 56.924C26.41 56.9959 26.4908 57.0767 26.5806 57.1485C27.2811 57.7772 27.9996 58.3968 28.727 58.9896C28.745 59.0075 28.7719 59.0255 28.7899 59.0435C30.0651 60.0942 31.3584 61.109 32.7055 62.061C39.5667 66.9555 47.4248 70.6914 55.732 72.3079ZM10.4603 34.3196C10.4513 34.3016 10.4513 34.2837 10.4423 34.2657C10.4513 34.2837 10.4513 34.3016 10.4603 34.3196Z" fill="url(#paint0_linear)"/>
</g>
<defs>
<linearGradient id="paint0_linear" x1="8.14667" y1="36.1565" x2="55.7297" y2="36.1565" gradientUnits="userSpaceOnUse">
<stop stop-color="white"/>
<stop offset="0.9062"/>
</linearGradient>
</defs>
</svg>
