<svg width="140" height="140" viewBox="0 0 140 140" fill="none" xmlns="http://www.w3.org/2000/svg">
<path fill-rule="evenodd" clip-rule="evenodd" d="M11.7273 69.7457C11.7273 37.7972 37.7144 11.8679 69.6051 11.8679L71.2243 11.8902C102.425 12.7486 127.483 38.3387 127.483 69.7457C127.483 101.636 101.554 127.624 69.6051 127.624C37.7144 127.624 11.7273 101.636 11.7273 69.7457ZM81.0639 92.8968C82.7423 91.1605 82.7423 88.4402 81.006 86.7618L63.932 69.7457L81.006 52.7296C82.7423 51.0512 82.7423 48.273 81.0639 46.5946C79.3275 44.8582 76.6073 44.8582 74.9288 46.5946L54.7295 66.6782C53.9192 67.4885 53.4562 68.5882 53.4562 69.7457C53.4562 70.9033 53.9192 72.0029 54.7295 72.8132L74.9288 92.8968C75.7391 93.765 76.8388 94.1701 77.9385 94.1701C79.096 94.1701 80.1957 93.765 81.0639 92.8968Z" fill="white"/>
</svg>
