<svg width="140" height="140" viewBox="0 0 140 140" fill="none" xmlns="http://www.w3.org/2000/svg">
<path fill-rule="evenodd" clip-rule="evenodd" d="M128.219 69.746C128.219 101.695 102.231 127.624 70.3407 127.624L68.7215 127.602C37.5206 126.743 12.4629 101.153 12.4629 69.746C12.4629 37.8553 38.3921 11.8682 70.3407 11.8682C102.231 11.8682 128.219 37.8553 128.219 69.746ZM58.8825 46.5949C57.2041 48.3312 57.2041 51.0515 58.9404 52.7299L76.0144 69.746L58.9404 86.7621C57.2041 88.4405 57.2041 91.2187 58.8825 92.8971C60.6189 94.6335 63.3391 94.6335 65.0176 92.8971L85.2169 72.8135C86.0272 72.0032 86.4902 70.9035 86.4902 69.746C86.4902 68.5884 86.0272 67.4888 85.2169 66.6785L65.0176 46.5949C64.2073 45.7267 63.1076 45.3216 62.0079 45.3216C60.8504 45.3216 59.7507 45.7267 58.8825 46.5949Z" fill="white"/>
</svg>
