<svg width="22" height="24" viewBox="0 0 22 24" fill="none" xmlns="http://www.w3.org/2000/svg">
<path fill-rule="evenodd" clip-rule="evenodd" d="M11 21.9806C12.3506 21.9806 12.9062 22.7083 13.6301 22.8701C14.3541 23.0319 14.9618 23.0768 15.5842 22.8026C16.8166 22.2595 17.568 21.6126 18.4797 20.6463C20.1692 18.8556 21 16.3935 21 13.0963C21 9.79911 20.1109 8.09514 18.7408 6.98056C17.3707 5.86597 16.5761 5.65245 14.9194 5.86597C13.2626 6.07949 12.3605 7.85958 11.0046 7.85958C9.64878 7.85958 7.99628 6.1044 6.55862 5.86597C5.12097 5.62754 4.33333 5.86597 3.08871 6.98056C1.84408 8.09514 1 9.83075 1 13.0963C1 16.3618 1.86197 18.7832 3.55151 20.5739C4.46318 21.5401 5.18336 22.2595 6.41582 22.8026C7.03822 23.0768 7.68152 23.0319 8.38025 22.8701C9.07899 22.7083 9.63454 21.9806 11 21.9806Z" />
<path d="M11.0044 7.85991C11.4404 3.56268 13.2928 1.41406 16.5614 1.41406C16.8611 2.31843 16.9385 3.19371 16.7937 4.03989C16.7248 4.44188 16.5113 5.01511 16.1531 5.75958"  stroke-linecap="round"/>
<path d="M5.57153 13.636C5.41789 14.3836 5.41789 15.1534 5.57153 15.9452C5.72517 16.7371 6.05236 17.3481 6.5531 17.7784"  stroke-linecap="round"/>
</svg>
