<svg width="32" height="32" viewBox="0 0 32 32" fill="none" xmlns="http://www.w3.org/2000/svg">
<path d="M25.6561 31.9999C25.5359 31.9999 25.4139 31.9844 25.2925 31.9519L12.6786 28.5719C12.3157 28.4747 12.0125 28.242 11.8247 27.9167C11.6369 27.5914 11.587 27.2124 11.6842 26.8496L13.0131 21.8904H8.65874C7.88337 21.8904 7.25249 21.2596 7.25249 20.4841V17.9578C5.37699 16.5934 4.79887 15.6087 4.51768 14.5592C4.08562 12.9467 5.04599 11.2833 6.65849 10.8512C6.85518 10.7986 7.0538 10.7652 7.25249 10.7516V7.92737C7.25249 7.6685 7.4623 7.45862 7.72124 7.45862C7.98018 7.45862 8.18999 7.6685 8.18999 7.92737V20.4841C8.18999 20.7426 8.40024 20.9529 8.65874 20.9529H13.2642L15.0112 14.4329C15.0782 14.1828 15.3352 14.0344 15.5854 14.1014C15.8354 14.1684 15.9838 14.4254 15.9168 14.6755L12.5898 27.0922C12.5574 27.2132 12.5741 27.3396 12.6366 27.4479C12.6992 27.5564 12.8003 27.6339 12.9213 27.6663L25.5352 31.0462C25.7849 31.1133 26.0424 30.9644 26.1094 30.7147L26.5835 28.9454C26.6504 28.6954 26.9075 28.547 27.1576 28.614C27.4077 28.681 27.5561 28.9381 27.4891 29.1881L27.0149 30.9574C26.8466 31.585 26.2769 31.9999 25.6561 31.9999ZM7.25243 11.6923C7.13524 11.704 7.01787 11.7255 6.90112 11.7568C5.78787 12.0551 5.12493 13.2034 5.42318 14.3166C5.58862 14.9341 5.88799 15.6759 7.25249 16.7778V11.6923H7.25243ZM27.5399 27.6567C27.4997 27.6567 27.4589 27.6515 27.4182 27.6406C27.1682 27.5736 27.0198 27.3166 27.0868 27.0665L31.0469 12.287C31.1137 12.0373 30.9651 11.7797 30.7154 11.7129L18.1014 8.333C17.8519 8.26606 17.5943 8.41475 17.5273 8.66444L16.4122 12.8259C16.3453 13.076 16.0882 13.2244 15.8381 13.1574C15.5881 13.0904 15.4397 12.8334 15.5067 12.5833L16.6217 8.42181C16.8224 7.67287 17.5947 7.22656 18.3441 7.42744L30.9581 10.8073C31.7069 11.008 32.1531 11.7806 31.9524 12.5296L27.9922 27.3091C27.9362 27.5186 27.7469 27.6566 27.5399 27.6567ZM6.34518 27.6249C5.7243 27.6249 5.15468 27.2101 4.98655 26.5825L0.0488045 8.15462C-0.151883 7.40562 0.294242 6.633 1.04312 6.43231L7.25243 4.76856V1.40625C7.25243 0.630812 7.8833 0 8.65868 0H21.7176C22.493 0 23.1239 0.630812 23.1239 1.40625V7.06012C23.1239 7.319 22.9141 7.52887 22.6551 7.52887C22.3962 7.52887 22.1864 7.319 22.1864 7.06012V1.40625C22.1864 1.14775 21.9761 0.9375 21.7176 0.9375H8.65868C8.40018 0.9375 8.18993 1.14775 8.18993 1.40625V6.05237C8.18993 6.31125 7.98012 6.52112 7.72118 6.52112C7.46224 6.52112 7.25243 6.31125 7.25243 6.05237V5.73912L1.2858 7.33787C1.03618 7.40475 0.887492 7.66231 0.954305 7.912L5.89205 26.3399C5.95899 26.5895 6.21637 26.7383 6.46618 26.6713L10.4574 25.6019C10.7076 25.5349 10.9646 25.6832 11.0316 25.9334C11.0986 26.1834 10.9502 26.4404 10.7001 26.5075L6.70887 27.5769C6.58737 27.6094 6.4653 27.6249 6.34518 27.6249ZM22.7269 26.1104C22.6867 26.1104 22.6459 26.1052 22.6052 26.0944L17.9957 24.8592C17.7457 24.7922 17.5973 24.5352 17.6643 24.2851C17.7312 24.0351 17.9883 23.8867 18.2384 23.9536L18.6703 24.0694C19.4149 23.6851 19.9759 23.2161 20.3626 22.6517C19.9426 22.765 19.4382 22.8006 18.873 22.6492C18.1416 22.4532 17.5303 21.9841 17.1517 21.3283C16.7731 20.6726 16.6725 19.9086 16.8686 19.1772C17.0318 18.5679 17.3336 17.8196 18.3339 16.8901C19.3024 15.9903 20.8182 14.9997 23.1042 13.7727C23.3224 13.6556 23.5941 13.7285 23.7244 13.9389C25.0907 16.1446 25.9081 17.7604 26.2969 19.0238C26.6986 20.329 26.5857 21.1279 26.4225 21.7372C26.2265 22.4686 25.7574 23.0799 25.1017 23.4586C24.4459 23.8372 23.6821 23.9377 22.9506 23.7417C22.3853 23.5903 21.9662 23.3072 21.6592 22.9991C21.7119 23.6812 21.9632 24.3679 22.4159 25.073L22.8479 25.1887C23.0979 25.2557 23.2463 25.5128 23.1793 25.7629C23.1232 25.9723 22.9338 26.1104 22.7269 26.1104ZM19.9182 24.4037L21.168 24.7386C20.9982 24.3624 20.8758 23.9855 20.8009 23.6088C20.5477 23.8976 20.2533 24.1628 19.9182 24.4037ZM21.3424 21.1196C21.3828 21.1196 21.4236 21.1248 21.4637 21.1356C21.6269 21.1793 21.754 21.3075 21.7962 21.4711C21.8074 21.5121 22.0995 22.5432 23.1932 22.8362C23.6825 22.9674 24.194 22.9 24.6329 22.6467C25.0717 22.3932 25.3857 21.9841 25.5169 21.4946C25.7821 20.5047 25.8128 19.1689 23.1588 14.8094C18.6806 17.2579 18.0393 18.4301 17.7741 19.4199C17.6429 19.9095 17.7102 20.4208 17.9636 20.8597C18.217 21.2986 18.6261 21.6126 19.1157 21.7437C20.2251 22.0411 21.0003 21.2679 21.008 21.26C21.0972 21.169 21.2183 21.1196 21.3424 21.1196ZM11.3597 20.0154C11.2106 20.0154 11.0702 19.9444 10.9819 19.8241L9.68668 18.0606C9.56543 17.8954 9.56543 17.6707 9.68668 17.5056L10.9819 15.7421C11.0702 15.6218 11.2105 15.5507 11.3597 15.5507C11.5089 15.5507 11.6492 15.6217 11.7376 15.742L13.0329 17.5056C13.1541 17.6707 13.1541 17.8954 13.0329 18.0606L11.7376 19.8241C11.6492 19.9444 11.5089 20.0154 11.3597 20.0154ZM10.6461 17.7831L11.3597 18.7548L12.0734 17.7831L11.3597 16.8114L10.6461 17.7831ZM11.3597 13.1775C11.2106 13.1775 11.0702 13.1065 10.9819 12.9862L9.68668 11.2226C9.56543 11.0575 9.56543 10.8328 9.68668 10.6677L10.9819 8.90412C11.0702 8.78387 11.2105 8.71281 11.3597 8.71281C11.5089 8.71281 11.6492 8.78381 11.7376 8.90406L13.0329 10.6677C13.1541 10.8328 13.1541 11.0575 13.0329 11.2226L11.7376 12.9862C11.6492 13.1065 11.5089 13.1775 11.3597 13.1775ZM10.6461 10.9452L11.3597 11.9169L12.0734 10.9452L11.3597 9.97356L10.6461 10.9452ZM19.0166 6.33962C18.8674 6.33962 18.7271 6.26862 18.6387 6.14837L17.3434 4.38481C17.2222 4.21969 17.2222 3.99494 17.3434 3.82987L18.6387 2.06625C18.7271 1.94606 18.8674 1.875 19.0166 1.875C19.1658 1.875 19.3061 1.946 19.3944 2.06631L20.6896 3.82987C20.8109 3.995 20.8109 4.21969 20.6896 4.38481L19.3944 6.14837C19.3061 6.26862 19.1657 6.33962 19.0166 6.33962ZM18.3029 4.10731L19.0166 5.079L19.7302 4.10731L19.0166 3.13562L18.3029 4.10731ZM11.3597 6.33962C11.2106 6.33962 11.0702 6.26862 10.9819 6.14831L9.68668 4.38475C9.56543 4.21962 9.56543 3.99494 9.68668 3.82981L10.9819 2.06631C11.0702 1.94606 11.2105 1.875 11.3597 1.875C11.5089 1.875 11.6492 1.946 11.7376 2.06625L13.0329 3.82987C13.1541 3.995 13.1541 4.21969 13.0329 4.38481L11.7376 6.14837C11.6492 6.26862 11.5089 6.33962 11.3597 6.33962ZM10.6461 4.10731L11.3597 5.079L12.0734 4.10731L11.3597 3.13562L10.6461 4.10731Z" />
</svg>
