<svg width="98" height="90" viewBox="0 0 98 90" fill="none" xmlns="http://www.w3.org/2000/svg">
<path fill-rule="evenodd" clip-rule="evenodd" d="M48.9779 0C37.5942 0 28.8646 0.512338 22.1945 1.69355C15.5513 2.87001 10.5772 4.77066 7.04532 7.84165C3.40261 11.009 1.70485 15.0562 0.903085 19.5883C0.139302 23.9056 0.139471 28.9957 0.139654 34.5279L0.13966 34.7855C0.13966 36.7871 1.73958 38.4097 3.71319 38.4097C5.92833 38.4097 7.33732 39.2277 8.23497 40.2685C9.19386 41.3803 9.7551 42.9748 9.7551 44.6957C9.7551 46.4167 9.19386 48.0112 8.23497 49.123C7.33732 50.1638 5.92833 50.9818 3.71319 50.9818C1.73958 50.9818 0.13966 52.6044 0.13966 54.606L0.139654 54.8636C0.139471 60.3969 0.139303 65.4878 0.903068 69.8058C1.70479 74.3383 3.40248 78.386 7.04517 81.5537C10.5771 84.6251 15.5512 86.5259 22.1945 87.7024C28.8646 88.8837 37.5943 89.3961 48.9779 89.3961C60.3615 89.3961 69.0912 88.8837 75.7613 87.7024C82.4046 86.5259 87.3787 84.6251 90.9106 81.5537C94.5533 78.386 96.251 74.3383 97.0527 69.8058C97.8165 65.4879 97.8163 60.3971 97.8161 54.8638V54.8637V54.606C97.8161 52.6044 96.2162 50.9818 94.2426 50.9818C92.0275 50.9818 90.6185 50.1638 89.7208 49.123C88.7619 48.0112 88.2007 46.4167 88.2007 44.6957C88.2007 42.9748 88.7619 41.3803 89.7208 40.2685C90.6185 39.2277 92.0275 38.4097 94.2426 38.4097C96.2162 38.4097 97.8161 36.7871 97.8161 34.7855V34.5279V34.5277C97.8163 28.9956 97.8165 23.9056 97.0527 19.5883C96.2509 15.0562 94.5532 11.009 90.9105 7.84165C87.3786 4.77066 82.4045 2.87001 75.7612 1.69355C69.0912 0.512338 60.3615 0 48.9779 0ZM13.6146 35.4965C12.0048 33.63 9.86403 32.2579 7.29225 31.5988C7.31397 27.2728 7.42028 23.7937 7.93782 20.8683C8.55058 17.4046 9.68186 15.0968 11.6972 13.3444C13.8234 11.4957 17.3365 9.91188 23.4239 8.83384C29.4846 7.76056 37.7292 7.24833 48.9779 7.24833C49.9686 7.24833 50.9361 7.2523 51.8808 7.26028V16.938C51.8808 18.9396 53.4807 20.5622 55.4543 20.5622C57.4279 20.5622 59.0279 18.9396 59.0279 16.938V7.41254C65.3583 7.64085 70.4423 8.10961 74.5319 8.83384C80.6193 9.91188 84.1323 11.4957 86.2586 13.3444C88.2739 15.0968 89.4052 17.4046 90.018 20.8683C90.5355 23.7937 90.6418 27.2728 90.6635 31.5988C88.0918 32.2579 85.951 33.63 84.3412 35.4965C82.095 38.101 81.0536 41.4616 81.0536 44.6957C81.0536 47.9299 82.095 51.2905 84.3412 53.895C85.951 55.7615 88.0918 57.1336 90.6635 57.7927C90.6418 62.1198 90.5355 65.5998 90.018 68.5259C89.4052 71.9904 88.2738 74.2986 86.2584 76.0512C84.1322 77.9002 80.6192 79.4841 74.5318 80.5622C70.4423 81.2864 65.3583 81.7552 59.0279 81.9835V71.4876C59.0279 69.486 57.4279 67.8634 55.4543 67.8634C53.4807 67.8634 51.8808 69.486 51.8808 71.4876V82.1358C50.9361 82.1438 49.9686 82.1477 48.9779 82.1477C37.7292 82.1477 29.4846 81.6355 23.424 80.5622C17.3366 79.4841 13.8236 77.9002 11.6974 76.0512C9.68199 74.2986 8.55063 71.9904 7.93783 68.5259C7.42025 65.5998 7.31396 62.1198 7.29225 57.7927C9.86403 57.1336 12.0048 55.7615 13.6146 53.895C15.8608 51.2905 16.9022 47.9299 16.9022 44.6957C16.9022 41.4616 15.8608 38.101 13.6146 35.4965ZM55.4543 27.8107C57.4279 27.8107 59.0279 29.4333 59.0279 31.4348V56.9908C59.0279 58.9923 57.4279 60.6149 55.4543 60.6149C53.4807 60.6149 51.8808 58.9923 51.8808 56.9908V31.4348C51.8808 29.4333 53.4807 27.8107 55.4543 27.8107Z" fill="white"/>
</svg>
