<svg width="103" height="124" viewBox="0 0 103 124" fill="none" xmlns="http://www.w3.org/2000/svg">
<path fill-rule="evenodd" clip-rule="evenodd" d="M94.1869 0.63916H37.8909C33.5508 0.63916 30.0198 4.17013 30.0198 8.5102V10.089H28.1448C23.8047 10.089 20.2738 13.62 20.2738 17.9601V19.7315H18.5888C14.2487 19.7315 10.7177 23.2625 10.7177 27.6026V29.395H8.81268C4.47237 29.395 0.941406 32.9259 0.941406 37.2663V115.768C0.941406 120.108 4.47237 123.639 8.81268 123.639H65.1099C69.4502 123.639 72.9812 120.108 72.9812 115.768V113.975H74.8846C79.2258 113.975 82.758 110.444 82.758 106.104V104.334H84.443C88.7833 104.334 92.314 100.803 92.314 96.4634V94.8819H94.1869C98.5272 94.8819 102.058 91.3509 102.058 87.0109V8.5102C102.058 4.17013 98.527 0.63916 94.1869 0.63916ZM77.9439 106.104C77.9439 107.789 76.5715 109.161 74.8846 109.161H72.9812V86.0889C72.9812 84.7594 71.9035 83.6817 70.574 83.6817C69.2448 83.6817 68.1669 84.7594 68.1669 86.0889V115.768C68.1669 117.454 66.7956 118.825 65.1097 118.825H8.81268C7.12696 118.825 5.75546 117.454 5.75546 115.768V37.2665C5.75546 35.5808 7.12672 34.2093 8.81268 34.2093H65.1102C66.7959 34.2093 68.1671 35.5808 68.1671 37.2665V64.4262C68.1671 65.7557 69.2448 66.8333 70.5743 66.8333C71.9035 66.8333 72.9814 65.7557 72.9814 64.4262V37.2665C72.9814 32.9262 69.4505 29.3952 65.1104 29.3952H15.5318V27.6028C15.5318 25.9171 16.9031 24.5458 18.5888 24.5458H74.887C76.5727 24.5458 77.9439 25.9171 77.9439 27.6028V106.104ZM87.5 96.4636C87.5 98.1491 86.1287 99.5206 84.443 99.5206H82.758V27.6028C82.758 23.2628 79.227 19.7318 74.887 19.7318H25.0876V17.9603C25.0876 16.2746 26.4589 14.9033 28.1446 14.9033H84.443C86.1287 14.9033 87.5 16.2746 87.5 17.9603V96.4636ZM97.2439 87.0111C97.2439 88.6966 95.8726 90.0681 94.1869 90.0681H92.314V17.9603C92.314 13.6202 88.7831 10.0893 84.443 10.0893H34.8339V8.51044C34.8339 6.82472 36.2052 5.45346 37.8909 5.45346H94.1869C95.8726 5.45346 97.2439 6.82472 97.2439 8.51044V87.0111ZM70.5743 77.6855C71.9038 77.6855 72.9815 76.6078 72.9815 75.2784C72.9815 73.9489 71.9038 72.8712 70.5743 72.8712C69.2449 72.8712 68.1672 73.9489 68.1672 75.2784C68.1672 76.6078 69.2449 77.6855 70.5743 77.6855ZM31.0783 43.6501C31.7543 46.1731 30.8688 48.8932 28.6488 51.1132L22.5339 57.2279C21.607 58.1547 20.0566 58.1547 19.1297 57.2279L13.1023 51.2004C9.4728 47.571 9.96816 43.2775 12.3333 40.9124C13.6046 39.6408 15.385 38.967 17.2218 39.0655C18.4984 39.1335 19.7496 39.5546 20.9176 40.3005C22.7498 39.1227 24.7709 38.7402 26.6801 39.2519C28.8196 39.8253 30.5051 41.5106 31.0783 43.6501ZM15.2937 45.5451C15.3319 46.2627 15.7513 47.0413 16.5066 47.7963L20.8316 52.1217L25.2444 47.7089C25.9971 46.9562 26.4355 46.1519 26.4792 45.4439C26.5081 44.9774 26.3615 44.558 26.0668 44.2632C25.4138 43.6105 24.0952 43.6112 22.6213 45.0855C21.6813 46.0256 20.1572 46.0256 19.2172 45.0855C18.4619 44.3302 17.6835 43.9108 16.966 43.8726C16.9321 43.8709 16.8984 43.8699 16.8653 43.8699C16.4247 43.8699 16.0271 44.0268 15.7374 44.3165C15.4256 44.6281 15.268 45.0646 15.2937 45.5451ZM54.518 95.7801C53.5777 94.8401 52.0539 94.8401 51.1138 95.7801L44.9989 101.895C42.7789 104.115 41.8934 106.835 42.5694 109.358C43.1426 111.498 44.8281 113.183 46.9676 113.756C47.5226 113.905 48.0871 113.978 48.6538 113.978C50.0349 113.978 51.4285 113.544 52.7275 112.71C55.9236 114.762 59.3106 114.1 61.3149 112.096C63.6798 109.731 64.1754 105.437 60.5457 101.808L54.518 95.7801ZM58.3 108.012C58.1585 108.54 57.7589 108.94 57.2309 109.081C56.4074 109.302 55.3874 108.879 54.4305 107.923C53.4902 106.983 51.9664 106.983 51.0264 107.923C49.5523 109.397 48.2337 109.398 47.5809 108.745C46.9282 108.092 46.929 106.774 48.4033 105.3L52.8161 100.887L57.1415 105.212C58.0979 106.169 58.5205 107.189 58.3 108.012ZM49.8517 66.9854C51.6023 68.736 52.5161 71.2037 52.3588 73.7554C52.1904 76.4821 50.8621 79.1629 48.5169 81.5076L38.5912 91.4333C37.6644 92.3602 36.1139 92.3602 35.1871 91.4333L25.4035 81.6496C20.2084 76.4547 20.8431 70.3838 24.1553 67.0716C25.9186 65.3083 28.3961 64.375 30.95 64.511C33.0519 64.6232 35.1217 65.421 37.0292 66.841C38.933 65.4162 40.994 64.6073 43.0816 64.4786C45.6348 64.3202 48.1011 65.2348 49.8517 66.9854ZM45.1131 78.1037C46.615 76.6018 47.4592 74.9955 47.5538 73.459C47.6271 72.2665 47.2343 71.1763 46.4476 70.3895C44.8598 68.8018 41.8586 68.5988 38.7334 71.7243C37.7934 72.6643 36.2693 72.6643 35.3293 71.7243C33.8374 70.2322 32.2346 69.4002 30.6942 69.3183C30.6118 69.314 30.5296 69.3118 30.4482 69.3118C29.3335 69.3118 28.3152 69.7202 27.5596 70.4758C25.9366 72.0988 25.6932 75.1308 28.8081 78.2457L36.8896 86.3274L45.1131 78.1037Z" fill="white"/>
</svg>
