<svg width="151" height="78" viewBox="0 0 151 78" fill="none" xmlns="http://www.w3.org/2000/svg">
<path d="M43.1399 64.2763C43.1399 65.8535 43.104 67.395 43.0321 68.9006C43.0321 70.3345 42.9243 71.5533 42.7087 72.557C44.0742 72.4853 45.4755 72.4136 46.9128 72.3419C48.4219 72.2702 49.7514 72.2344 50.9012 72.2344V77.9341H22.6588V73.2022H23.4133C26.6472 72.9872 28.8391 71.9476 29.9889 70.0835C31.2106 68.1478 31.8214 65.1366 31.8214 61.05V57.6087H0.237305V50.726L38.6125 0.934082H43.1399V50.0807L53.9195 50.1883V57.6087H43.1399V64.2763ZM31.6058 18.6785L8.32197 49.6506L31.8214 49.8656V18.6785H31.6058Z" fill="white"/>
<path d="M62.106 35.6701H82.9106V15.2372H89.3783V35.6701H110.183V42.0151H89.3783V63.2008H82.9106V42.0151H62.106V35.6701Z" fill="white"/>
<path d="M121.564 77.9341V73.2022C124.869 73.0588 127.169 72.1268 128.463 70.4062C129.756 68.6855 130.403 65.8535 130.403 61.9103L130.187 13.7316L117.575 21.5821L114.88 17.2805L137.086 0.934082H141.721L141.829 64.2763C141.829 65.8535 141.793 67.3591 141.721 68.793C141.721 70.2269 141.65 71.4457 141.506 72.4494C142.871 72.3777 144.344 72.3061 145.925 72.2344C147.506 72.091 148.944 72.0193 150.237 72.0193V77.9341H121.564Z" fill="white"/>
</svg>
