<svg width="110" height="105" viewBox="0 0 110 105" fill="none" xmlns="http://www.w3.org/2000/svg">
<path d="M11.2104 36.667C9.25014 39.277 7.27867 41.8981 5.31839 44.5081C4.15343 46.0539 2.98847 47.6109 1.82351 49.1567C1.59947 49.448 1.16261 49.8512 1.03939 50.1985C0.927379 50.5233 1.17381 51.0498 1.26343 51.397C1.53226 52.4836 1.8347 53.559 2.17075 54.6231C3.69416 59.3838 5.90088 63.9092 8.54445 68.1434C12.1626 73.9122 16.7552 79.3562 22.0423 84.184C27.3295 89.0231 33.2887 93.2237 39.6064 96.5282C45.9129 99.8214 52.5554 102.196 59.2427 103.384C62.8832 99.0261 66.5237 94.6799 70.1643 90.3225C63.2529 89.0455 56.588 86.5812 50.3711 83.3103C43.9974 79.9611 37.971 75.7044 32.6166 70.8206C27.2735 65.9367 22.6024 60.4479 18.9283 54.6455C15.2654 48.8543 12.5994 42.7606 11.2104 36.667Z" fill="#961C2E"/>
<path d="M15.2651 11.063C12.0614 15.398 8.84657 19.733 5.64292 24.068C4.43315 25.7034 3.3466 27.4061 2.50648 29.2543C1.76718 30.901 1.1735 32.6484 0.759037 34.5079C0.344579 36.3673 0.0869435 38.3276 0.0197341 40.3775C-0.0474753 42.4386 0.06454 44.5893 0.378184 46.8296C3.64904 42.461 6.9311 38.0924 10.202 33.7238C10.5156 33.2981 10.538 33.3317 10.5156 32.8052C10.426 30.7778 10.1123 28.7951 10.1684 26.7564C10.2244 24.6953 10.4596 22.735 10.8741 20.8756C11.2773 19.0161 11.8598 17.2686 12.5991 15.622C13.3272 13.9978 14.2233 12.4744 15.2651 11.063Z" fill="#961C2E"/>
<path d="M71.2741 90.5135C67.6336 94.8597 63.993 99.2171 60.3525 103.563C63.7242 104.101 67.1407 104.336 70.5572 104.168C73.7496 104.011 76.718 103.507 79.4624 102.701C82.1844 101.894 84.6711 100.774 86.889 99.3739C89.0958 97.9849 91.0336 96.3159 92.669 94.4004C96.3432 90.1102 100.028 85.8312 103.703 81.541C102.045 83.4677 100.084 85.1367 97.9226 86.4921C95.7047 87.8811 93.2179 88.9901 90.4847 89.7854C87.7404 90.5807 84.7495 91.0624 81.5459 91.1968C78.3198 91.32 74.8922 91.1072 71.2741 90.5135Z" fill="#961C2E"/>
<path d="M62.2786 88.3188C58.6605 92.6875 55.0424 97.0673 51.4131 101.436C52.0628 101.638 52.7125 101.828 53.3622 102.018C54.0118 102.198 54.6615 102.377 55.3112 102.534C55.9609 102.702 56.6106 102.847 57.2715 102.993C57.9212 103.139 58.5709 103.262 59.2318 103.385C59.2766 103.396 59.3214 103.396 59.3662 103.407C59.411 103.419 59.4558 103.419 59.5006 103.43C59.5454 103.441 59.5902 103.441 59.635 103.452C59.6798 103.463 59.7246 103.463 59.7695 103.475C59.8143 103.486 59.8591 103.486 59.9039 103.497C59.9487 103.508 59.9935 103.508 60.0383 103.519C60.0831 103.531 60.1279 103.531 60.1727 103.542C60.2175 103.553 60.2623 103.553 60.3071 103.564C60.9568 103.665 61.5953 103.755 62.2338 103.833C62.8723 103.911 63.4996 103.967 64.1269 104.023C64.7541 104.079 65.3702 104.113 65.9751 104.147C66.5912 104.18 67.1961 104.191 67.7898 104.203C71.4415 99.8677 75.1044 95.5326 78.7561 91.2088C78.1512 91.1976 77.5351 91.1752 76.9303 91.1416C76.3142 91.108 75.6981 91.0632 75.0708 91.0072C74.4435 90.9512 73.805 90.884 73.1665 90.8056C72.528 90.7272 71.8784 90.6376 71.2287 90.5256C71.1839 90.5144 71.139 90.5143 71.0942 90.5031C71.0494 90.4919 71.0046 90.4919 70.9598 90.4807C70.915 90.4695 70.8702 90.4696 70.8254 90.4584C70.7806 90.4471 70.7358 90.4471 70.691 90.4359C70.6462 90.4247 70.6014 90.4247 70.5566 90.4135C70.5118 90.4023 70.467 90.4023 70.4221 90.3911C70.3773 90.3799 70.3325 90.3799 70.2877 90.3687C70.2429 90.3575 70.1981 90.3463 70.1533 90.3463C69.4924 90.2231 68.8427 90.0887 68.1818 89.9431C67.5209 89.7974 66.8712 89.6406 66.2104 89.4726C65.5495 89.3046 64.8998 89.1253 64.2389 88.9349C63.5892 88.7221 62.9395 88.5205 62.2786 88.3188Z" fill="#9A95A0"/>
<path d="M10.169 27.8403C8.38791 30.2263 6.60686 32.6122 4.82581 34.9981C3.66085 36.5552 2.49588 38.1234 1.33092 39.6804C0.983672 40.1397 0.580417 40.5989 0.277975 41.0918C-0.0692735 41.6631 -0.00206358 42.0103 0.0203396 42.7608C0.0315411 43.1977 0.0539415 43.6457 0.0875462 44.0938C0.121151 44.5419 0.154758 44.9899 0.199564 45.4492C0.244371 45.9085 0.300376 46.3677 0.367585 46.827V46.8382V46.8494V46.8606V46.8718C0.367585 46.9054 0.378789 46.9278 0.378789 46.9614C0.378789 46.995 0.389989 47.0174 0.389989 47.051C0.389989 47.0846 0.401193 47.107 0.401193 47.1406C0.401193 47.1742 0.412393 47.1966 0.412393 47.2302C0.412393 47.2526 0.412395 47.2639 0.423597 47.2863C0.423597 47.3087 0.423595 47.3199 0.434796 47.3423C0.434796 47.3647 0.434794 47.3759 0.445996 47.3983C0.445996 47.4207 0.445998 47.4319 0.4572 47.4543C0.4572 47.4767 0.4684 47.4991 0.4684 47.5215C0.4684 47.5439 0.479604 47.5663 0.479604 47.5887C0.479604 47.6111 0.490803 47.6335 0.490803 47.6559C0.490803 47.6783 0.502007 47.7007 0.502007 47.7231C0.502007 47.7455 0.513207 47.7791 0.513207 47.8015C0.513207 47.8239 0.524407 47.8575 0.524407 47.8799C0.524407 47.9023 0.535611 47.936 0.535611 47.9584C0.535611 47.9808 0.54681 48.0144 0.54681 48.0368C0.54681 48.048 0.546813 48.0704 0.558014 48.0816C0.558014 48.0928 0.558012 48.1152 0.569214 48.1264C0.569214 48.1376 0.569216 48.16 0.580418 48.1712C0.580418 48.1824 0.580416 48.2048 0.591618 48.216C0.602819 48.2608 0.60282 48.3056 0.614021 48.3504C0.625223 48.3952 0.625223 48.44 0.636425 48.4848C0.647627 48.5296 0.647627 48.5744 0.658829 48.6192C0.67003 48.664 0.670031 48.7089 0.681232 48.7537C0.692434 48.7985 0.692434 48.8433 0.703636 48.8881C0.714837 48.9329 0.726035 48.9777 0.726035 49.0225C0.737237 49.0673 0.748439 49.1121 0.748439 49.1569C0.75964 49.2017 0.770843 49.2465 0.770843 49.2913C0.770843 49.3137 0.782046 49.3249 0.782046 49.3473C0.782046 49.3697 0.793246 49.3809 0.793246 49.4033C0.793246 49.4258 0.804446 49.437 0.804446 49.4594C0.804446 49.4818 0.81565 49.493 0.81565 49.5154C0.81565 49.5378 0.82685 49.5602 0.82685 49.5826C0.82685 49.605 0.838053 49.6274 0.838053 49.6498C0.838053 49.6722 0.849253 49.6946 0.849253 49.717C0.849253 49.7394 0.860457 49.7618 0.860457 49.7842C0.860457 49.8066 0.871659 49.8402 0.882861 49.8626C0.894062 49.885 0.894059 49.9186 0.90526 49.941C0.916462 49.9634 0.916462 49.997 0.927664 50.0194C0.927664 50.0418 0.938866 50.0754 0.950067 50.0978C0.950067 50.109 0.95007 50.1203 0.961271 50.1315C0.961271 50.1427 0.96127 50.1539 0.972471 50.1651C0.972471 50.1763 0.972474 50.1875 0.983675 50.1987C0.983675 50.2099 0.983673 50.2211 0.994875 50.2323C1.10689 50.7475 1.23011 51.2516 1.36452 51.7669C1.49894 52.2822 1.63336 52.7862 1.79018 53.3015C1.93581 53.8168 2.09263 54.3208 2.26065 54.8249C2.42868 55.329 2.6079 55.8442 2.78712 56.3483C4.59058 53.9736 6.38283 51.5989 8.18628 49.2241C9.35124 47.6783 10.5274 46.1325 11.6924 44.5979C12.0396 44.1386 12.4765 43.6793 12.7677 43.1865C12.8349 43.0745 12.9918 42.9624 13.0254 42.8392C13.1262 42.492 12.6445 41.6295 12.5213 41.2598C12.3533 40.7445 12.1852 40.2405 12.0284 39.7252C11.8716 39.2099 11.726 38.7059 11.5916 38.1906C11.4571 37.6753 11.3339 37.16 11.2107 36.656C11.2107 36.6448 11.2107 36.6336 11.1995 36.6224C11.1995 36.6112 11.1995 36.6 11.1883 36.5888C11.1883 36.5776 11.1883 36.5664 11.1771 36.5552C11.1771 36.5439 11.1771 36.5327 11.1659 36.5215C11.1547 36.4879 11.1547 36.4655 11.1435 36.4431C11.1323 36.4207 11.1323 36.3871 11.1211 36.3647C11.1099 36.3423 11.1099 36.3087 11.0987 36.2863C11.0875 36.2527 11.0875 36.2303 11.0763 36.2079C11.0763 36.1855 11.0651 36.1631 11.0651 36.1407C11.0651 36.1183 11.0539 36.0959 11.0539 36.0735C11.0539 36.0511 11.0427 36.0287 11.0427 36.0063C11.0427 35.9839 11.0315 35.9615 11.0315 35.9391C11.0315 35.9167 11.0203 35.9055 11.0203 35.8831C11.0203 35.8607 11.0091 35.8495 11.0091 35.8271C11.0091 35.8047 10.9979 35.7934 10.9979 35.771C10.9979 35.7486 10.9867 35.7374 10.9867 35.715C10.9755 35.6702 10.9643 35.6254 10.9643 35.5806C10.9531 35.5358 10.9419 35.491 10.9419 35.4462C10.9307 35.4014 10.9195 35.3566 10.9195 35.3118C10.9083 35.267 10.8971 35.2222 10.8971 35.1774C10.8859 35.1326 10.8747 35.0878 10.8747 35.0429C10.8635 34.9981 10.8635 34.9533 10.8523 34.9085C10.8411 34.8637 10.8299 34.8189 10.8299 34.7741C10.8187 34.7293 10.8186 34.6845 10.8074 34.6397C10.8074 34.6285 10.8074 34.6061 10.7962 34.5949C10.7962 34.5837 10.785 34.5613 10.785 34.5501C10.785 34.5389 10.785 34.5165 10.7738 34.5053C10.7738 34.4941 10.7738 34.4717 10.7626 34.4605C10.7626 34.4381 10.7514 34.4044 10.7514 34.382C10.7514 34.3596 10.7402 34.326 10.7402 34.3036C10.7402 34.2812 10.729 34.2476 10.729 34.2252C10.729 34.2028 10.7178 34.1692 10.7178 34.1468C10.7178 34.1244 10.7066 34.102 10.7066 34.0796C10.7066 34.0572 10.6954 34.0348 10.6954 34.0124C10.6954 33.99 10.6842 33.9676 10.6842 33.9452C10.6842 33.9228 10.673 33.9004 10.673 33.878C10.673 33.8556 10.6618 33.8444 10.6618 33.822C10.6618 33.7996 10.6506 33.7884 10.6506 33.766C10.6506 33.7436 10.6506 33.7324 10.6394 33.71C10.6394 33.6876 10.6394 33.6764 10.6282 33.6539C10.6282 33.6203 10.617 33.5979 10.617 33.5643C10.617 33.5307 10.6058 33.5083 10.6058 33.4747C10.6058 33.4411 10.5946 33.4187 10.5946 33.3851C10.5946 33.3515 10.5834 33.3291 10.5834 33.2955V33.2843V33.2731V33.2619V33.2507C10.5162 32.7802 10.4602 32.321 10.4042 31.8617C10.3594 31.4024 10.3146 30.9544 10.281 30.5063C10.2474 30.0582 10.225 29.6102 10.2026 29.1733C10.1802 28.7029 10.169 28.266 10.169 27.8403Z" fill="#9A95A0"/>
<path d="M25.5258 63.5193C22.2326 67.7423 18.9281 71.9653 15.6349 76.1883C15.5228 76.3339 15.0636 76.7371 15.0636 76.9276C15.0524 77.23 15.9933 78.0253 16.2173 78.2717C16.8782 79.0111 17.5503 79.7279 18.2336 80.4336C19.3314 81.5762 20.4627 82.6852 21.6389 83.7717C22.8039 84.8583 24.0136 85.9 25.2458 86.9194C26.478 87.9387 27.7438 88.9244 29.0319 89.8654C32.5828 85.4296 36.1337 80.9937 39.6846 76.5691C38.3852 75.617 37.1083 74.62 35.8649 73.5895C34.6215 72.5589 33.4005 71.4948 32.2244 70.4082C31.037 69.3217 29.8945 68.1903 28.7855 67.0478C27.6317 65.894 26.5564 64.7179 25.5258 63.5193Z" fill="#9A95A0"/>
<path d="M25.2802 44.207C24.4177 42.0451 23.712 39.816 23.2527 37.5309C23.1407 36.9708 23.0511 36.4219 22.9727 35.8731C22.8942 35.3242 22.8382 34.7865 22.7822 34.26C22.7374 33.7336 22.7038 33.2071 22.6926 32.6918C22.6702 32.1766 22.6702 31.6613 22.6814 31.1684L22.2894 31.0564C18.2344 30.0371 14.1906 28.9617 10.1581 27.8415C10.1581 29.645 10.2925 31.4485 10.5613 33.2295C9.55317 26.3405 10.3149 19.0595 13.9554 12.9995C17.6071 6.92822 23.7456 2.95168 30.5337 1.19303C34.7231 0.106478 39.0917 -0.173574 43.4043 0.095264C44.5357 3.53414 45.5774 6.99543 46.5743 10.4791L46.664 10.7928C48.9715 10.86 51.2678 11.1512 53.5193 11.6217C54.113 11.7449 54.7067 11.8793 55.3116 12.0249C55.9053 12.1706 56.4989 12.3274 57.0926 12.4954C57.6863 12.6634 58.2688 12.8426 58.8625 13.0331C59.445 13.2235 60.0386 13.4251 60.6211 13.638L60.5763 13.3355C60.0834 10.0311 59.6466 6.7154 59.2993 3.39974C76.4489 9.31417 91.9071 21.6807 101.473 37.1052C104.296 41.6419 106.604 46.5258 108.105 51.6673C107.589 49.9198 106.984 48.206 106.29 46.537C102.616 46.1673 98.9641 45.7304 95.3012 45.2376L94.9651 45.204C95.8724 47.3099 96.6342 49.4718 97.1606 51.7009C97.295 52.2386 97.4071 52.7762 97.4967 53.3139C97.5975 53.8516 97.6759 54.3781 97.7431 54.8933C97.8103 55.4198 97.8663 55.9351 97.8999 56.4391C97.9447 56.9544 97.9671 57.4585 97.9783 57.9514L98.3256 58.0522C102.168 59.0043 105.987 60.0125 109.807 61.0654C109.684 59.1387 109.415 57.2233 109.023 55.3414C110.67 63.2049 110.188 71.7741 105.797 78.6967C101.451 85.5632 93.9794 89.495 86.0935 90.7271C81.1984 91.5001 76.1689 91.2984 71.285 90.5031C73.7718 90.9064 76.2921 91.1304 78.8125 91.1864C77.5803 87.4787 76.4377 83.7374 75.3512 79.9848L75.2616 79.6488C72.9092 79.66 70.5569 79.4248 68.2382 79.0103C67.6221 78.8983 67.006 78.7751 66.3899 78.6406C65.7738 78.5062 65.1578 78.3606 64.5529 78.1926C63.9368 78.0358 63.3319 77.8565 62.7158 77.6661C62.1109 77.4757 61.4948 77.2853 60.8899 77.0724L60.946 77.3973C61.4724 81.0154 61.9317 84.6559 62.3013 88.2964C64.8889 89.1141 67.5101 89.8086 70.176 90.3015C59.5794 88.3524 49.554 83.6254 40.8055 77.3973C32.0907 71.1916 24.3953 63.3617 18.7161 54.266C15.3332 48.8333 12.6448 42.9076 11.2334 36.6572C11.7039 38.7407 12.3312 40.7906 13.0705 42.7956C17.0246 43.1877 20.9788 43.647 24.9217 44.1622L25.2802 44.207ZM47.2464 67.3495C47.8737 67.7863 48.501 68.2232 49.1507 68.6376C49.7892 69.0521 50.4389 69.4554 51.0998 69.8474C51.7495 70.2395 52.4216 70.6091 53.0825 70.9788C53.7546 71.3372 54.4267 71.6845 55.1099 72.0205C55.1436 72.0429 55.1772 72.0541 55.2108 72.0765C55.2444 72.0877 55.278 72.1101 55.3116 72.1326C55.3452 72.155 55.3788 72.1661 55.4236 72.1885C55.4572 72.211 55.502 72.2222 55.5356 72.2446C56.5101 72.715 57.4959 73.1519 58.4928 73.5551C59.4898 73.9584 60.4979 74.3281 61.506 74.6641C62.5142 75.0001 63.5447 75.3026 64.5753 75.5602C65.6058 75.8291 66.6476 76.0531 67.6893 76.2435C69.1007 76.5012 70.5233 76.6692 71.9459 76.7588C71.9683 76.7588 72.0019 76.7588 72.0355 76.7588C72.0691 76.7588 72.1027 76.7588 72.1587 76.77C72.2035 76.77 72.2707 76.77 72.338 76.7812C72.4164 76.7812 72.506 76.7924 72.618 76.7924C72.6404 76.7924 72.674 76.7924 72.6964 76.7924C72.7188 76.7924 72.7524 76.7924 72.7748 76.7924C72.8084 76.7924 72.8308 76.7924 72.8644 76.7924C72.898 76.7924 72.9204 76.7924 72.954 76.7924C73.5925 76.8148 74.2198 76.8148 74.8471 76.7924C75.4632 76.7812 76.0793 76.7364 76.673 76.6916C77.2666 76.6356 77.8603 76.5684 78.4316 76.4787C79.0029 76.3891 79.5742 76.2883 80.123 76.1651C81.9489 75.7618 83.7299 75.1234 85.3878 74.2496C85.7686 74.048 86.1495 73.8352 86.5191 73.6112C86.8888 73.3871 87.236 73.1519 87.5833 72.9054C87.9305 72.659 88.2666 72.4014 88.5914 72.1326C88.9163 71.8637 89.2411 71.5837 89.5436 71.3036C90.7869 70.1163 91.8399 68.7385 92.6576 67.2263C92.848 66.8678 93.0385 66.5094 93.2065 66.1397C93.3745 65.7701 93.5425 65.3892 93.6881 64.9971C93.8338 64.6051 93.9794 64.2018 94.1026 63.7874C94.2258 63.3729 94.349 62.9473 94.4499 62.5216C94.5283 62.1856 94.5955 61.8495 94.6627 61.5023C94.7187 61.155 94.7747 60.7966 94.8195 60.4269C94.8643 60.0573 94.8979 59.6876 94.9315 59.2955C94.9651 58.9035 94.9763 58.5002 94.9875 58.0746C94.9987 57.5369 94.9875 56.988 94.9651 56.428C94.9427 55.8679 94.8979 55.3078 94.8307 54.7253C94.7635 54.154 94.6851 53.5604 94.5843 52.9667C94.4835 52.373 94.3602 51.7681 94.2146 51.152C94.181 51.0176 94.1586 50.8944 94.125 50.7712C94.125 50.7488 94.1138 50.7375 94.1138 50.7151C94.1138 50.6927 94.1026 50.6703 94.0914 50.6479C94.0802 50.6255 94.0802 50.5919 94.069 50.5471C94.0578 50.5023 94.0466 50.4575 94.0354 50.4015C94.0242 50.3791 94.0242 50.3567 94.013 50.3231C94.0018 50.3007 94.0018 50.2671 93.9906 50.2447C93.9794 50.2111 93.9794 50.1887 93.9682 50.1439C93.957 50.0991 93.9458 50.0655 93.9346 50.0207C93.9234 49.9982 93.9234 49.9758 93.9122 49.9422C93.901 49.9198 93.901 49.8862 93.8898 49.8526C93.8786 49.819 93.8674 49.7854 93.8562 49.7518C93.845 49.7182 93.8338 49.6734 93.8226 49.6286C93.8114 49.6062 93.8114 49.5838 93.8002 49.5614C93.789 49.539 93.7889 49.5166 93.7777 49.483C93.7665 49.4494 93.7553 49.4158 93.7441 49.3822C93.7329 49.3373 93.7217 49.2926 93.6993 49.2365C93.6993 49.2141 93.6881 49.2029 93.6769 49.1693C93.6657 49.1469 93.6657 49.1133 93.6433 49.0797C93.6321 49.0349 93.6097 48.9901 93.5985 48.9229C93.5761 48.8557 93.5537 48.7773 93.5201 48.6653C93.5201 48.6429 93.5089 48.6205 93.4977 48.6093C93.4865 48.5869 93.4865 48.5644 93.4753 48.542C93.4641 48.5196 93.4529 48.486 93.4417 48.4524C93.4305 48.4188 93.4193 48.374 93.3969 48.3292C93.3073 48.0604 93.2177 47.7915 93.1281 47.5339C93.0384 47.2651 92.9376 46.9962 92.8368 46.7274C92.736 46.4586 92.624 46.1785 92.512 45.8985C92.4 45.6184 92.2767 45.3384 92.1535 45.0472C91.9407 44.5431 91.7055 44.0502 91.4702 43.5573C91.235 43.0645 90.9774 42.5604 90.7197 42.0675C90.4621 41.5747 90.1821 41.0706 89.902 40.5777C89.6108 40.0737 89.3195 39.5808 89.0059 39.0767C88.6922 38.5839 88.3674 38.0798 88.0313 37.5869C87.6953 37.094 87.3481 36.6012 86.9784 36.1083C86.62 35.6154 86.2391 35.1226 85.847 34.6185C85.455 34.1256 85.0517 33.6216 84.6261 33.1287C84.2452 32.6806 83.8644 32.2326 83.4611 31.7957C83.0691 31.3588 82.6546 30.922 82.2401 30.4851C81.8257 30.0483 81.4 29.6114 80.952 29.1745C80.5151 28.7377 80.0558 28.3008 79.5966 27.864C79.1373 27.4383 78.6668 27.0238 78.1964 26.6094C77.7259 26.1949 77.233 25.7917 76.7402 25.3884C76.2473 24.9851 75.7432 24.5931 75.2168 24.201C74.7015 23.809 74.175 23.4281 73.6261 23.0361C73.1333 22.6888 72.6292 22.3416 72.1251 22.0055C71.621 21.6695 71.1058 21.3446 70.5905 21.0198C70.0752 20.695 69.5488 20.3813 69.0111 20.0789C68.4846 19.7764 67.9469 19.474 67.3981 19.1827C67.2412 19.1043 67.0844 19.0147 66.9276 18.9363C66.7708 18.8579 66.6028 18.7683 66.4235 18.6787C66.2443 18.5891 66.0651 18.4995 65.8747 18.3986C65.6842 18.2978 65.4714 18.197 65.2474 18.0962C64.3512 17.6705 63.4439 17.2561 62.5254 16.8864C61.6068 16.5056 60.6883 16.1583 59.7474 15.8447C58.8177 15.5198 57.8655 15.2286 56.9134 14.9709C55.9613 14.7133 54.9979 14.4781 54.0234 14.2765C53.7546 14.2204 53.4745 14.1644 53.2057 14.1196C53.1833 14.1196 53.1609 14.1084 53.1385 14.1084C53.1161 14.1084 53.0937 14.0972 53.0601 14.0972C53.0265 14.0972 52.9929 14.086 52.9592 14.0748C52.9144 14.0636 52.8696 14.0636 52.8136 14.0524C52.444 13.9852 52.0743 13.9292 51.7159 13.8844C51.3462 13.8284 50.9766 13.7836 50.5957 13.7388C50.2149 13.694 49.834 13.6604 49.4308 13.6268C49.0275 13.5932 48.6242 13.5708 48.1874 13.5484C48.1538 13.5484 48.109 13.5484 48.0754 13.5484C48.0418 13.5484 47.997 13.5484 47.9521 13.5484C47.9073 13.5484 47.8737 13.5484 47.8289 13.5484C47.7841 13.5484 47.7393 13.5484 47.6945 13.5484C47.168 13.5372 46.6528 13.5259 46.1487 13.5371C45.6446 13.5483 45.1406 13.5708 44.6365 13.6044C44.1436 13.638 43.6507 13.6828 43.1691 13.75C42.6874 13.806 42.2169 13.8844 41.7465 13.9628C41.276 14.0412 40.8055 14.142 40.3463 14.254C39.887 14.3661 39.439 14.4893 38.9909 14.6237C38.5428 14.7581 38.106 14.9037 37.6691 15.0718C37.2322 15.2398 36.8066 15.4078 36.3809 15.5982C35.9889 15.7775 35.608 15.9679 35.2272 16.1583C34.8575 16.36 34.4879 16.5728 34.1294 16.7856C33.771 17.0096 33.4125 17.2449 33.0653 17.4913C32.718 17.7377 32.3708 17.9954 32.0347 18.2642C31.7099 18.533 31.3962 18.8131 31.0826 19.1155C30.7801 19.4068 30.4889 19.7204 30.1977 20.0453C29.9176 20.3701 29.6488 20.7062 29.3799 21.0534C29.1223 21.4007 28.8647 21.7591 28.6294 22.14C28.4054 22.476 28.2038 22.8232 28.0022 23.1817C27.8005 23.5401 27.6213 23.9098 27.4421 24.2907C27.2628 24.6715 27.106 25.0636 26.9492 25.4668C26.7924 25.8701 26.6468 26.2845 26.5235 26.7102C26.4003 27.1247 26.2883 27.5615 26.1875 27.9984C26.0867 28.4352 26.0083 28.8833 25.9411 29.3426C25.8739 29.8018 25.8179 30.2723 25.7842 30.7428C25.7394 31.2244 25.717 31.7061 25.7058 32.2102C25.6946 32.6694 25.6946 33.1287 25.717 33.6104C25.7282 34.0808 25.7618 34.5737 25.8066 35.0666C25.8515 35.5594 25.9075 36.0635 25.9859 36.59C26.0643 37.1052 26.1539 37.6429 26.2547 38.1918C26.2883 38.3486 26.3219 38.5054 26.3555 38.6623C26.3555 38.6847 26.3667 38.7183 26.3779 38.7407C26.3891 38.7631 26.3891 38.7967 26.4003 38.8191C26.4115 38.8415 26.4115 38.8751 26.4227 38.8975C26.4339 38.9199 26.4339 38.9535 26.4451 38.9759C26.4451 38.9983 26.4563 39.0095 26.4563 39.0319C26.4563 39.0543 26.4675 39.0767 26.4787 39.0991C26.4899 39.1327 26.4899 39.1663 26.5011 39.2111C26.5123 39.256 26.5235 39.312 26.5347 39.368C26.5347 39.3904 26.546 39.4128 26.546 39.4352C26.546 39.4576 26.5572 39.48 26.5684 39.5136C26.5796 39.5472 26.5796 39.5808 26.5908 39.6144C26.602 39.6592 26.6132 39.704 26.6244 39.76C26.6244 39.7824 26.6356 39.8048 26.6468 39.8272C26.658 39.8496 26.658 39.872 26.6692 39.9056C26.6804 39.9392 26.6916 39.9728 26.6916 40.0065C26.7028 40.0513 26.714 40.0961 26.7252 40.1521C26.7252 40.1745 26.7364 40.1969 26.7476 40.2193C26.7588 40.2417 26.7588 40.2641 26.77 40.2977C26.7812 40.3313 26.7924 40.3649 26.8036 40.3985C26.8148 40.4433 26.826 40.4881 26.8372 40.5441C26.8484 40.5665 26.8484 40.5889 26.8596 40.6113C26.8708 40.6337 26.8708 40.6561 26.882 40.6897C26.8932 40.7234 26.9044 40.757 26.9156 40.8018C26.9268 40.8466 26.938 40.8914 26.9604 40.9586C26.9604 40.981 26.9716 40.9922 26.9828 41.0146C26.994 41.037 26.994 41.0594 27.0052 41.093C27.0164 41.1266 27.0276 41.1602 27.0388 41.205C27.05 41.2498 27.0612 41.2946 27.0836 41.3618C27.0836 41.3843 27.0948 41.3954 27.106 41.4178C27.1172 41.4402 27.1284 41.4739 27.1396 41.5187C27.1508 41.5635 27.1732 41.6083 27.1956 41.6867C27.2181 41.7539 27.2405 41.8435 27.2741 41.9555C27.2853 41.9779 27.2853 42.0003 27.2965 42.0227C27.3077 42.0451 27.3077 42.0675 27.3189 42.1011C27.3301 42.1347 27.3413 42.1572 27.3525 42.202C27.3637 42.2468 27.3749 42.2916 27.3973 42.3364C27.4085 42.3588 27.4197 42.3812 27.4197 42.4148C27.4309 42.4372 27.4421 42.4708 27.4421 42.4932C27.4533 42.5268 27.4645 42.5492 27.4757 42.5828C27.4869 42.6164 27.4981 42.65 27.5093 42.6948C27.5205 42.7284 27.5317 42.7508 27.5429 42.7844C27.5541 42.818 27.5653 42.8404 27.5765 42.8741C27.5877 42.9077 27.5989 42.9413 27.6101 42.9749C27.6213 43.0085 27.6325 43.0421 27.6437 43.0757C27.6885 43.1877 27.7221 43.3109 27.7669 43.4229C27.8117 43.5349 27.8565 43.6582 27.9013 43.7702C27.9461 43.8822 27.991 44.0054 28.0358 44.1286C28.0806 44.2519 28.1366 44.3639 28.1814 44.4871C28.3942 45.0023 28.6182 45.5288 28.8535 46.0441C29.0887 46.5594 29.3351 47.0858 29.604 47.6011C29.8616 48.1164 30.1417 48.6429 30.4329 49.1693C30.7241 49.6958 31.0266 50.2223 31.3402 50.7487C32.6508 52.8882 34.1294 54.9269 35.7312 56.8648C37.3779 58.8475 39.1589 60.7069 41.0296 62.4768C41.5112 62.9137 41.9929 63.3505 42.4858 63.7762C42.9786 64.2018 43.4827 64.6275 43.998 65.042C44.5133 65.4564 45.0285 65.8597 45.5662 66.2629C46.1599 66.5654 46.6976 66.9686 47.2464 67.3495ZM39.663 76.5684C41.6009 74.1488 43.5947 71.7853 45.6782 69.489L45.8687 69.2761C41.3208 66.0501 37.1762 62.2528 33.6141 57.9626L33.3789 58.1194C30.8137 59.99 28.2038 61.8047 25.5266 63.5185C29.7272 68.38 34.4879 72.771 39.663 76.5684ZM87.9417 77.1284C91.1118 80.3097 94.237 83.5357 97.3175 86.8066C100.902 84.6895 103.96 81.7211 106.111 78.1478C102.605 75.3586 99.1433 72.491 95.7156 69.601L95.4244 69.3546C93.6321 72.547 90.899 75.1234 87.6617 76.826L87.9417 77.1284ZM33.9166 12.7418C30.825 9.63901 27.7781 6.50257 24.7761 3.31013C21.0236 5.12478 17.6967 7.77954 15.21 11.14C18.7273 13.9404 22.1885 16.808 25.6274 19.7092L25.9299 19.9557C27.9461 16.8976 30.8698 14.5341 34.2078 13.0331L33.9166 12.7418ZM93.9122 26.9902C89.9132 22.4536 85.4214 18.3538 80.5599 14.7581C78.8125 16.92 76.9978 19.0259 75.1159 21.0646L74.9479 21.255C79.2829 24.3467 83.2483 27.9648 86.6984 32.0197L86.9 31.8741C89.1851 30.1939 91.515 28.5473 93.9122 26.9902Z" fill="#ED0E1C"/>
<path d="M80.5485 14.7563C78.8011 16.9183 76.9864 19.0241 75.1045 21.0628L74.9365 21.2532C79.2715 24.3449 83.2369 27.963 86.687 32.018L86.8886 31.8723C89.1849 30.1697 91.5148 28.5231 93.912 26.966C89.9018 22.463 85.41 18.3521 80.5485 14.7563C80.2237 15.1596 81.7695 15.6637 80.5485 14.7563Z" fill="#F6F6F6"/>
<path d="M51.246 1.18179C51.2012 1.17058 51.1564 1.15938 51.1115 1.14818C51.0667 1.13698 51.0219 1.12578 50.9771 1.11458C50.9323 1.10338 50.8875 1.09217 50.8427 1.09217C50.7979 1.08097 50.7531 1.06978 50.7083 1.06978C50.6859 1.06978 50.6635 1.05857 50.6411 1.05857C50.6187 1.05857 50.5963 1.04737 50.5739 1.04737C50.5515 1.04737 50.5291 1.03618 50.5067 1.03618C50.4843 1.03618 50.4619 1.02496 50.4395 1.02496C50.4171 1.02496 50.3946 1.01377 50.3722 1.01377C50.3498 1.01377 50.3274 1.00257 50.305 1.00257C50.2826 1.00257 50.2602 0.991362 50.2378 0.991362C50.2154 0.991362 50.193 0.980166 50.1706 0.980166C50.137 0.980166 50.1146 0.968954 50.081 0.968954C50.0474 0.968954 50.025 0.957758 49.9914 0.957758C49.9578 0.957758 49.9354 0.946563 49.9018 0.946563C49.8682 0.946563 49.8458 0.93535 49.8122 0.93535C49.801 0.93535 49.7898 0.935356 49.7786 0.924155C49.7674 0.924155 49.7562 0.924161 49.745 0.912959C49.7338 0.912959 49.7226 0.912949 49.7114 0.901747C49.7002 0.901747 49.689 0.901753 49.6777 0.890552C49.2297 0.812141 48.7816 0.733733 48.3336 0.666524C47.8855 0.599314 47.4374 0.532107 47.0006 0.476099C46.5637 0.420091 46.1156 0.364084 45.69 0.319278C45.2531 0.274472 44.8163 0.229665 44.3906 0.19606C44.357 0.19606 44.3122 0.184847 44.2786 0.184847C44.245 0.184847 44.2114 0.184854 44.1778 0.173652C44.1442 0.173652 44.1106 0.173658 44.0882 0.162457C44.0546 0.162457 44.0322 0.162446 43.9986 0.151244C43.8081 0.140042 43.6177 0.128848 43.4385 0.106445C44.5698 3.54533 45.6116 7.0178 46.6085 10.4903L46.6981 10.8039C47.247 10.8151 47.7959 10.8487 48.356 10.8935C48.916 10.9383 49.4761 10.9944 50.0474 11.0616C50.6187 11.1288 51.2012 11.2072 51.7836 11.308C52.3661 11.4088 52.9598 11.5096 53.5535 11.6328C55.9618 12.1257 58.3254 12.809 60.6329 13.6491L60.5881 13.3467C60.0952 10.0422 59.6583 6.72657 59.3111 3.4109C59.2663 3.3885 59.2103 3.3773 59.1655 3.35489C59.1207 3.33249 59.0647 3.32128 59.0199 3.29888C58.975 3.28768 58.919 3.26528 58.8742 3.25408C58.8294 3.23168 58.7734 3.22047 58.7286 3.20927C58.695 3.19807 58.6614 3.18687 58.6278 3.17566C58.5942 3.16446 58.5606 3.15326 58.527 3.14206C58.4934 3.13086 58.4598 3.11966 58.4262 3.10846C58.3926 3.09726 58.359 3.08606 58.3254 3.07485C57.8773 2.92923 57.418 2.78361 56.97 2.64919C56.5219 2.51477 56.0626 2.38037 55.6034 2.24595C55.1441 2.12273 54.696 1.99951 54.2368 1.87629C53.7775 1.75308 53.3295 1.64106 52.8702 1.54024C52.859 1.54024 52.8478 1.54023 52.8366 1.52903C52.8254 1.52903 52.8142 1.52904 52.803 1.51784C52.7918 1.51784 52.7806 1.51784 52.7694 1.50664C52.7582 1.50664 52.747 1.50663 52.7358 1.49543C52.7022 1.48423 52.6798 1.48424 52.6462 1.47304C52.6126 1.46184 52.5902 1.46183 52.5566 1.45063C52.5229 1.43943 52.5005 1.43942 52.4669 1.42822C52.4333 1.41702 52.4109 1.41703 52.3773 1.40583C52.3549 1.40583 52.3325 1.39462 52.3101 1.39462C52.2877 1.39462 52.2653 1.38342 52.2429 1.38342C52.2205 1.38342 52.1981 1.37221 52.1757 1.37221C52.1533 1.37221 52.1309 1.36102 52.1085 1.36102C52.0861 1.36102 52.0637 1.34982 52.0413 1.34982C52.0189 1.34982 51.9965 1.33861 51.9741 1.33861C51.9517 1.33861 51.9293 1.32741 51.9069 1.32741C51.8845 1.32741 51.8621 1.31622 51.8397 1.31622C51.7948 1.30501 51.75 1.29381 51.7052 1.28261C51.6604 1.27141 51.6156 1.26019 51.5708 1.24899C51.526 1.23779 51.4812 1.22659 51.4364 1.21539C51.3356 1.19299 51.2908 1.18179 51.246 1.18179Z" fill="#F6F6F6"/>
<path d="M106.267 46.5254C102.593 46.1557 98.9413 45.7189 95.2784 45.226L94.9424 45.1924C95.1776 45.7301 95.3904 46.2677 95.6033 46.8054C95.8161 47.3431 96.0065 47.8808 96.197 48.4296C96.3762 48.9673 96.5554 49.5162 96.7122 50.0651C96.869 50.6139 97.0147 51.1516 97.1379 51.7005C97.6195 53.7504 97.9108 55.8563 97.9668 57.9622L98.314 58.063C102.156 59.0151 105.976 60.0232 109.796 61.0762C109.762 60.6169 109.728 60.1465 109.684 59.676C109.639 59.2055 109.583 58.7351 109.516 58.2534C109.448 57.7717 109.381 57.2901 109.292 56.8084C109.202 56.3267 109.112 55.8339 109.012 55.341C109.012 55.3298 109.012 55.3186 109.012 55.3186C109.012 55.3074 109.012 55.2962 109.012 55.2962C109.012 55.285 109.012 55.2738 109.012 55.2626C109.012 55.2514 109.012 55.2402 109 55.2402C109 55.2178 108.989 55.1842 108.978 55.1618C108.978 55.1282 108.967 55.1058 108.956 55.0834C108.944 55.061 108.944 55.0274 108.933 55.0049C108.933 54.9713 108.922 54.9489 108.911 54.9265C108.911 54.9041 108.9 54.8817 108.9 54.8705C108.9 54.8481 108.888 54.8257 108.888 54.8145C108.888 54.7921 108.877 54.7697 108.877 54.7585C108.877 54.7361 108.866 54.7137 108.866 54.7025C108.866 54.6801 108.855 54.6577 108.855 54.6465C108.855 54.6241 108.844 54.6017 108.844 54.5905C108.844 54.5681 108.832 54.5457 108.832 54.5345C108.832 54.5121 108.821 54.4897 108.821 54.4785C108.81 54.4337 108.799 54.3889 108.788 54.3553C108.776 54.3104 108.765 54.2656 108.754 54.232C108.743 54.1872 108.731 54.1424 108.72 54.1088C108.709 54.064 108.698 54.0192 108.687 53.9856C108.675 53.9408 108.664 53.896 108.653 53.8512C108.642 53.8064 108.631 53.7616 108.619 53.7168C108.608 53.672 108.597 53.6272 108.586 53.5823C108.575 53.5375 108.563 53.4927 108.552 53.4479C108.552 53.4255 108.541 53.4143 108.541 53.3919C108.541 53.3695 108.53 53.3583 108.53 53.3359C108.53 53.3135 108.519 53.3023 108.519 53.2799C108.519 53.2575 108.507 53.2463 108.507 53.2239C108.507 53.2015 108.496 53.1791 108.485 53.1567C108.485 53.1343 108.474 53.1119 108.463 53.0895C108.463 53.0671 108.451 53.0447 108.44 53.0223C108.429 52.9999 108.429 52.9775 108.418 52.9551C108.407 52.9327 108.407 52.9103 108.395 52.8879C108.384 52.8655 108.384 52.8431 108.373 52.8206C108.373 52.7982 108.362 52.7758 108.351 52.7534C108.339 52.731 108.339 52.7086 108.328 52.6862C108.328 52.675 108.317 52.6526 108.317 52.6414C108.317 52.6302 108.306 52.6078 108.306 52.5966C108.306 52.5854 108.295 52.563 108.295 52.5518C108.295 52.5406 108.283 52.5182 108.283 52.507C107.735 50.4123 107.062 48.452 106.267 46.5254C105.595 46.4582 106.469 47.007 106.267 46.5254Z" fill="#F6F6F6"/>
<path d="M24.7751 3.31055C21.0226 5.1252 17.6957 7.77996 15.209 11.1404C18.7263 13.9408 22.1876 16.8084 25.6264 19.7096L25.9289 19.9561C27.9452 16.898 30.8688 14.5345 34.2068 13.0335L33.9156 12.7423C30.824 9.63943 27.7771 6.50299 24.7751 3.31055C23.8006 3.78101 25.324 3.90423 24.7751 3.31055Z" fill="#F6F6F6"/>
<path d="M95.4121 69.355C93.6199 72.5474 90.8867 75.1238 87.6494 76.8264L87.9407 77.1289C91.1107 80.3101 94.2359 83.5362 97.3164 86.807C100.901 84.6899 103.959 81.7215 106.11 78.1482C102.604 75.359 99.1422 72.4914 95.7145 69.6014L95.4121 69.355Z" fill="#F6F6F6"/>
<path d="M10.1689 27.8403C10.1689 28.266 10.1802 28.7029 10.1914 29.1509C10.2026 29.5878 10.2362 30.0358 10.2698 30.4839C10.3034 30.932 10.3482 31.3912 10.393 31.8393C10.4378 32.2986 10.505 32.7578 10.5722 33.2283V33.2395V33.2507V33.2619V33.2731C10.5722 33.3067 10.5834 33.3291 10.5834 33.3627C10.5834 33.3963 10.5946 33.4187 10.5946 33.4523C10.5946 33.4859 10.6058 33.5083 10.6058 33.5419C10.6058 33.5755 10.617 33.5979 10.617 33.6315C10.617 33.6539 10.617 33.6651 10.6282 33.6876C10.6282 33.71 10.6394 33.7212 10.6394 33.7436C10.6394 33.766 10.6506 33.7772 10.6506 33.7996C10.6506 33.822 10.6506 33.8332 10.6618 33.8556C10.6618 33.878 10.673 33.9004 10.673 33.9228C10.673 33.9452 10.6842 33.9676 10.6842 33.99C10.6842 34.0124 10.6954 34.0348 10.6954 34.0572C10.6954 34.0796 10.7066 34.102 10.7066 34.1244C10.7066 34.1468 10.7178 34.1804 10.7178 34.2028C10.7178 34.2252 10.729 34.2588 10.729 34.2812C10.729 34.3036 10.7402 34.3372 10.7402 34.3597C10.7402 34.3821 10.7514 34.4157 10.7514 34.4381C10.7514 34.4493 10.7514 34.4717 10.7626 34.4829C10.7626 34.4941 10.7626 34.5165 10.7738 34.5277C10.7738 34.5389 10.785 34.5613 10.785 34.5725C10.785 34.5837 10.785 34.6061 10.7962 34.6173C10.8074 34.6621 10.8074 34.7069 10.8186 34.7517C10.8298 34.7965 10.8298 34.8413 10.841 34.8861C10.8522 34.9309 10.8522 34.9757 10.8634 35.0205C10.8746 35.0653 10.8858 35.1101 10.8858 35.155C10.897 35.1998 10.9083 35.2446 10.9083 35.2894C10.9195 35.3342 10.9307 35.379 10.9307 35.4238C10.9419 35.4686 10.9531 35.5134 10.9531 35.5582C10.9643 35.603 10.9755 35.6478 10.9755 35.6926C10.9755 35.715 10.9867 35.7262 10.9867 35.7486C10.9867 35.771 10.9979 35.7822 10.9979 35.8046C10.9979 35.827 11.0091 35.8383 11.0091 35.8607C11.0091 35.8831 11.0203 35.8943 11.0203 35.9167C11.0203 35.9391 11.0315 35.9615 11.0315 35.9839C11.0315 36.0063 11.0427 36.0287 11.0427 36.0511C11.0427 36.0735 11.0539 36.0959 11.0539 36.1183C11.0539 36.1407 11.0651 36.1631 11.0651 36.1855C11.0763 36.2079 11.0763 36.2415 11.0875 36.2639C11.0987 36.2863 11.0987 36.3199 11.1099 36.3423C11.1211 36.3647 11.1211 36.3983 11.1323 36.4207C11.1435 36.4431 11.1435 36.4767 11.1547 36.4991C11.1547 36.5103 11.1547 36.5215 11.1659 36.5327C11.1659 36.5439 11.1659 36.5552 11.1771 36.5664C11.1771 36.5776 11.1771 36.5888 11.1883 36.6C11.1883 36.6112 11.1883 36.6224 11.1995 36.6336C11.67 38.7171 12.2972 40.7669 13.0365 42.772C16.9907 43.1641 20.9449 43.6233 24.8878 44.1386L25.2687 44.1722C25.0446 43.6233 24.8318 43.0633 24.6414 42.5032C24.4397 41.9431 24.2605 41.3942 24.0925 40.8342C23.9245 40.2741 23.7677 39.7252 23.622 39.1651C23.4764 38.605 23.3532 38.0562 23.2412 37.4961C22.8267 35.4014 22.6251 33.2619 22.6699 31.1336L22.2778 31.0216C18.2453 30.047 14.2015 28.9717 10.1689 27.8403C10.1689 28.266 10.9307 28.0532 10.1689 27.8403Z" fill="#F6F6F6"/>
<path d="M60.8779 77.0842L60.9339 77.4091C61.4604 81.0272 61.9197 84.6677 62.2893 88.3082C62.939 88.5098 63.5999 88.7114 64.2496 88.9019C64.8993 89.0923 65.5602 89.2715 66.2211 89.4396C66.882 89.6076 67.5317 89.7644 68.1926 89.91C68.8534 90.0556 69.5031 90.1901 70.164 90.3133C70.2088 90.3245 70.2536 90.3245 70.2984 90.3357C70.3433 90.3469 70.3881 90.3581 70.4329 90.3581C70.4777 90.3693 70.5225 90.3805 70.5673 90.3805C70.6121 90.3917 70.6569 90.3917 70.7017 90.4029C70.7465 90.4141 70.7913 90.4141 70.8361 90.4253C70.8809 90.4365 70.9257 90.4365 70.9705 90.4477C71.0153 90.4589 71.0602 90.4589 71.105 90.4701C71.1498 90.4813 71.1946 90.4813 71.2394 90.4925C73.7261 90.8958 76.2465 91.1198 78.7668 91.1758C77.5347 87.4681 76.3921 83.7267 75.3055 79.9742L75.2159 79.6382C74.6671 79.6382 74.0958 79.627 73.5357 79.6046C72.9644 79.5822 72.3931 79.5374 71.7995 79.4926C71.217 79.4366 70.6233 79.3693 70.0184 79.2909C69.4135 79.2125 68.8086 79.1117 68.1926 79.0109C65.7282 78.574 63.2751 77.9243 60.8779 77.0842Z" fill="#F6F6F6"/>
<path d="M33.6027 57.9629L33.3787 58.1197C30.8135 59.9904 28.2035 61.805 25.5264 63.5189C29.727 68.3804 34.4876 72.7714 39.6627 76.5799C41.6006 74.1604 43.5945 71.7968 45.678 69.5005L45.8684 69.2877C41.3206 66.0504 37.1648 62.2419 33.6027 57.9629Z" fill="#F6F6F6"/>
<path d="M74.4216 76.2656C74.4552 76.3328 74.4664 76.4113 74.4664 76.4673C74.4664 76.5345 74.4552 76.5905 74.4328 76.6353C74.4104 76.6801 74.3656 76.7249 74.3208 76.7473C74.2759 76.7697 74.2087 76.7921 74.1415 76.7921C74.0407 76.7921 73.9511 76.7921 73.8503 76.7921C73.7495 76.7921 73.6599 76.7921 73.559 76.7921C73.4582 76.7921 73.3686 76.7921 73.2678 76.7921C73.167 76.7921 73.0662 76.7921 72.9766 76.7809C75.3737 76.8593 77.782 76.6689 80.112 76.1424H79.9439C79.7087 76.0976 79.4847 75.9408 79.3615 75.7391C79.227 75.5375 79.2046 75.1903 79.5071 75.1119C81.2545 74.731 82.9572 74.1261 84.559 73.3084C84.5814 73.2972 84.5926 73.286 84.615 73.286C84.6374 73.286 84.6598 73.2748 84.6822 73.2748C84.7046 73.2748 84.727 73.2748 84.7494 73.2748C84.7718 73.2748 84.7942 73.2748 84.8278 73.286C84.8726 73.2972 84.9174 73.3084 84.9622 73.3196C85.007 73.342 85.0519 73.3644 85.0967 73.3868C85.1415 73.4092 85.1863 73.4428 85.2199 73.4764C85.2647 73.51 85.2983 73.5436 85.3319 73.5884C85.4663 73.7565 85.5895 74.0365 85.4103 74.2157C86.9113 73.4316 88.3115 72.4459 89.5325 71.2809L89.2188 71.3481L88.7932 71.1353C88.6252 70.9785 88.4347 70.6424 88.6252 70.4296C89.8013 69.2983 90.8319 67.9989 91.616 66.5651C91.7056 66.4307 91.8736 66.4082 92.0192 66.4306C92.0416 66.4306 92.0752 66.4419 92.0976 66.4531C92.12 66.4643 92.1537 66.4755 92.1761 66.4867C92.1985 66.4979 92.2321 66.5091 92.2545 66.5315C92.2769 66.5427 92.3105 66.5651 92.3329 66.5875C92.5121 66.7219 92.7025 66.9683 92.6689 67.2036C93.4754 65.7474 94.0579 64.1791 94.4388 62.5661C94.3715 62.7117 94.1811 62.7341 94.0355 62.7005L93.8339 62.6333C93.6099 62.5101 93.3186 62.2189 93.397 61.9388C93.4866 61.5244 93.5762 61.0987 93.6435 60.6618C93.7107 60.2362 93.7667 59.7993 93.8115 59.3513C93.8563 58.9144 93.8899 58.4663 93.9011 58.0183C93.9235 57.5702 93.9235 57.1221 93.9235 56.6629C93.9235 56.6069 93.9347 56.5621 93.9571 56.5173C93.9795 56.4725 94.0131 56.4388 94.0467 56.4164C94.0803 56.394 94.1251 56.3717 94.1811 56.3604C94.2259 56.3492 94.2931 56.3492 94.3491 56.3604C94.3603 56.3604 94.3604 56.3604 94.3716 56.3604C94.3828 56.3604 94.3828 56.3604 94.394 56.3716C94.4052 56.3716 94.4052 56.3716 94.4164 56.3828C94.4276 56.3828 94.4276 56.3829 94.4388 56.3941C94.7076 56.4837 94.9876 56.7525 94.9988 57.0549C94.9988 57.1334 94.9988 57.223 94.9988 57.3014C94.9988 57.3798 94.9988 57.4694 94.9988 57.5478C94.9988 57.6262 94.9988 57.7158 94.9988 57.7942C94.9988 57.8727 94.9988 57.9623 94.9988 58.0407C95.0436 55.7332 94.7524 53.4256 94.2371 51.1741C94.3043 51.4542 94.0579 51.5662 93.8115 51.5214C93.7443 51.5102 93.6659 51.4766 93.5986 51.443C93.5314 51.3982 93.4642 51.3533 93.397 51.2973C93.341 51.2413 93.285 51.1741 93.2402 51.1069C93.1954 51.0397 93.173 50.9725 93.1506 50.9053C94.5396 56.8197 94.1587 63.3838 90.395 68.3909C86.5193 73.5548 80.056 75.6943 73.7831 75.7391C74.0743 75.8064 74.3208 76.0192 74.4216 76.2656Z" fill="#6D1627"/>
<path d="M60.8228 74.4073L60.722 74.3737C59.4114 73.9144 58.1232 73.3991 56.8574 72.8391C60.2851 74.3625 63.8808 75.5386 67.5773 76.2107C67.4989 76.1995 67.4317 76.1659 67.3645 76.1323C67.2973 76.0987 67.2301 76.0427 67.1741 75.9867C67.1181 75.9307 67.0621 75.8635 67.0284 75.8075C66.9836 75.7403 66.9612 75.6731 66.9388 75.6058C66.8716 75.3146 67.1405 75.1466 67.3981 75.1914C64.4857 74.6649 61.6293 73.8136 58.8849 72.7271C59.0417 72.7831 59.1873 72.8503 59.3442 72.9063C59.501 72.9623 59.6466 73.0295 59.8034 73.0855C59.9603 73.1415 60.1171 73.1975 60.2627 73.2535C60.4195 73.3095 60.5651 73.3655 60.722 73.4215C61.002 73.5224 61.2708 73.7912 61.2708 74.1048C61.282 74.3513 61.0356 74.4521 60.8228 74.4073Z" fill="#A2000C"/>
<path d="M31.5521 50.0438C31.4961 50.055 31.4513 50.0774 31.4065 50.111C31.3729 50.1446 31.3393 50.1782 31.3281 50.223C31.3057 50.2678 31.3057 50.3126 31.3057 50.3687C31.3057 50.4247 31.3169 50.4807 31.3393 50.5479C31.3505 50.5927 31.3729 50.6263 31.3841 50.6599C32.6947 52.7882 34.1509 54.8157 35.7415 56.7535L35.7751 56.776L36.2456 57.056L36.5256 57.0224C36.8168 56.8992 36.7048 56.5295 36.548 56.3615C36.3464 56.1151 36.1447 55.8574 35.9431 55.611C35.7415 55.3534 35.5511 55.1069 35.3494 54.8493C35.159 54.5916 34.9686 54.3452 34.7781 54.0876C34.5877 53.8299 34.4085 53.5723 34.2181 53.3147C34.1845 53.2699 34.1509 53.2139 34.1173 53.169C34.0837 53.1242 34.05 53.0794 34.0164 53.0234C33.9828 52.9786 33.9492 52.9226 33.9156 52.8778C33.882 52.833 33.8484 52.777 33.8148 52.7322C33.8148 52.7322 33.8148 52.721 33.8036 52.721C33.8036 52.721 33.8036 52.7098 33.7924 52.7098C33.7924 52.7098 33.7924 52.6986 33.7812 52.6986C33.7812 52.6986 33.7812 52.6874 33.77 52.6874C33.6468 52.5082 33.5236 52.3177 33.4004 52.1385C33.2771 51.9593 33.1539 51.7689 33.0307 51.5784C32.9075 51.388 32.7955 51.2088 32.6723 51.0183C32.5602 50.8279 32.437 50.6487 32.325 50.4583L32.3138 50.4471L32.3026 50.4359L32.2914 50.4247L32.2802 50.4135C32.2466 50.3687 32.2018 50.3239 32.1682 50.2903C32.1234 50.2567 32.0786 50.223 32.0338 50.1894C31.989 50.1558 31.9329 50.1334 31.8881 50.111C31.8433 50.0886 31.7873 50.0774 31.7425 50.0662C31.7201 50.0662 31.7089 50.055 31.6865 50.055C31.6641 50.055 31.6529 50.055 31.6305 50.055C31.6081 50.055 31.5969 50.055 31.5745 50.055C31.5857 50.0326 31.5745 50.0438 31.5521 50.0438Z" fill="#FEFEFE"/>
<path d="M53.8217 70.4288C53.7657 70.4176 53.7209 70.4176 53.6649 70.4176C53.6201 70.4176 53.5753 70.4401 53.5305 70.4513C53.4969 70.4737 53.452 70.4961 53.4296 70.5297C53.4072 70.5633 53.3848 70.5969 53.3736 70.6417C53.3624 70.6977 53.3624 70.7649 53.3736 70.8321C53.3848 70.8993 53.4184 70.9665 53.452 71.0337C53.4969 71.1009 53.5417 71.1569 53.6089 71.213C53.6649 71.269 53.7433 71.3138 53.8105 71.3586C53.9113 71.4146 54.0233 71.4706 54.1241 71.5266C54.225 71.5826 54.337 71.6386 54.449 71.6946C54.561 71.7506 54.6618 71.8066 54.7738 71.8515C54.8858 71.9075 54.9867 71.9523 55.0987 72.0083C55.1323 72.0307 55.1771 72.0419 55.2107 72.0643C55.2443 72.0867 55.2779 72.0979 55.3227 72.1203C55.3563 72.1427 55.3899 72.1539 55.4235 72.1763C55.4571 72.1875 55.4907 72.2099 55.5243 72.2211C57.2158 73.0276 58.952 73.7557 60.7219 74.3718L60.8227 74.4054C61.0355 74.439 61.2819 74.3494 61.2707 74.0918C61.2707 74.0246 61.2595 73.9461 61.2259 73.8789C61.2035 73.8117 61.1587 73.7445 61.1139 73.6885C61.0691 73.6325 61.0019 73.5765 60.9459 73.5205C60.8787 73.4757 60.8115 73.4309 60.7331 73.4085C60.5762 73.3525 60.4306 73.2964 60.2738 73.2404C60.117 73.1844 59.9602 73.1284 59.8145 73.0724C59.6577 73.0164 59.5121 72.9604 59.3553 72.8932C59.1985 72.826 59.0416 72.77 58.896 72.714C58.8512 72.6916 58.8064 72.6804 58.7616 72.6579C58.7168 72.6355 58.672 72.6244 58.6272 72.602C58.5824 72.5796 58.5376 72.5683 58.4928 72.5459C58.4479 72.5235 58.4031 72.5123 58.3583 72.4899C58.3359 72.4787 58.3135 72.4675 58.2799 72.4563C58.2575 72.4451 58.2351 72.4339 58.2015 72.4227C58.1791 72.4115 58.1567 72.4003 58.1231 72.3891C58.1007 72.3779 58.0783 72.3667 58.0447 72.3555C57.9999 72.3331 57.9551 72.3219 57.9103 72.2995C57.8655 72.2771 57.8207 72.2659 57.7759 72.2435C57.731 72.2211 57.6862 72.2099 57.6414 72.1875C57.5966 72.1651 57.5518 72.1539 57.507 72.1315C57.4734 72.1203 57.4398 72.1091 57.4174 72.0867C57.3838 72.0755 57.3502 72.0643 57.3278 72.0419C57.2942 72.0307 57.2606 72.0195 57.2382 71.9971C57.2046 71.9859 57.171 71.9747 57.1486 71.9523C57.1486 71.9523 57.1374 71.9523 57.1262 71.9411C57.1262 71.9411 57.115 71.9411 57.115 71.9299C57.115 71.9187 57.1038 71.9299 57.0926 71.9187C57.0926 71.9187 57.0814 71.9186 57.0814 71.9074C56.8237 71.7954 56.5661 71.6834 56.3084 71.5602C56.0508 71.437 55.7932 71.325 55.5467 71.2018C55.2891 71.0785 55.0315 70.9553 54.785 70.8321C54.5274 70.7089 54.281 70.5745 54.0233 70.44C54.0009 70.4288 53.9897 70.4176 53.9673 70.4176C53.9449 70.4064 53.9337 70.4064 53.9113 70.3952C53.8889 70.384 53.8777 70.384 53.8553 70.384C53.8553 70.4288 53.8329 70.4288 53.8217 70.4288Z" fill="#FEFEFE"/>
<path d="M79.4399 28.5802L79.7871 28.513C79.8207 28.4906 79.8431 28.4458 79.8655 28.4122C79.8767 28.3674 79.8879 28.3226 79.8767 28.2778C79.8767 28.233 79.8543 28.177 79.8319 28.121C79.8095 28.0649 79.7759 28.0089 79.7423 27.9641C79.7311 27.9529 79.7311 27.9417 79.7199 27.9305C79.7087 27.9193 79.6975 27.9081 79.6975 27.8969C79.6863 27.8857 79.6751 27.8745 79.6639 27.8633C79.6527 27.8521 79.6415 27.8409 79.6303 27.8297C79.171 27.4041 78.7005 26.9896 78.2301 26.5863C77.7596 26.1831 77.2779 25.7686 76.7851 25.3766C76.2922 24.9845 75.7993 24.5925 75.2953 24.2116C74.7912 23.8307 74.2871 23.4499 73.7719 23.0914C73.7607 23.0802 73.7495 23.0803 73.7495 23.0691C73.7383 23.0691 73.727 23.0578 73.727 23.0578C73.7158 23.0578 73.7046 23.0466 73.7046 23.0466C73.6934 23.0466 73.6822 23.0355 73.6822 23.0355C73.671 23.0242 73.6486 23.0242 73.6374 23.013C73.6262 23.0018 73.6038 23.0018 73.5926 22.9906C73.5814 22.9794 73.559 22.9794 73.5478 22.9794C73.5366 22.9794 73.5142 22.9682 73.503 22.9682C73.4582 22.957 73.4246 22.957 73.3798 22.957C73.3462 22.957 73.3014 22.9682 73.2678 22.9682C73.2342 22.9794 73.2006 22.9906 73.1782 23.013C73.1558 23.0354 73.1222 23.0578 73.111 23.0914C72.9541 23.3379 73.2118 23.6515 73.4022 23.786C75.3849 25.1974 77.2779 26.7208 79.0702 28.3674L79.4399 28.5802Z" fill="#FEFEFE"/>
<path d="M60.8331 17.078C60.8555 17.0892 60.8779 17.0892 60.9003 17.1004C60.9227 17.1116 60.9451 17.1116 60.9675 17.1228C60.9899 17.134 61.0123 17.134 61.0347 17.1452C61.0571 17.1564 61.0795 17.1564 61.102 17.1676C61.1468 17.1788 61.1804 17.2012 61.2252 17.2124C61.27 17.2236 61.3036 17.246 61.3484 17.2572C61.3932 17.2684 61.4268 17.2908 61.4716 17.302C61.5164 17.3132 61.55 17.3356 61.5948 17.3468C61.606 17.3468 61.606 17.358 61.6172 17.358C61.6284 17.358 61.6284 17.3692 61.6396 17.3692C61.6508 17.3692 61.6508 17.3804 61.662 17.3804C61.6732 17.3804 61.6732 17.3916 61.6844 17.3916C61.8749 17.47 62.0653 17.5373 62.2445 17.6157C62.4349 17.6941 62.6254 17.7725 62.8046 17.8509C62.9838 17.9293 63.1854 18.0077 63.3647 18.0861C63.5551 18.1646 63.7455 18.2542 63.9247 18.3326C65.0449 18.8366 66.1539 19.3743 67.2404 19.9456L67.442 20.0352C67.6101 20.0688 67.8341 20.024 67.8677 19.8224C67.8789 19.7664 67.8789 19.7104 67.8677 19.6544C67.8565 19.5983 67.8341 19.5423 67.8005 19.4751C67.7669 19.4191 67.7221 19.3631 67.6773 19.3071C67.6213 19.2511 67.5653 19.2063 67.498 19.1615C67.498 19.1615 67.4868 19.1615 67.4868 19.1503C67.4868 19.1503 67.4756 19.1503 67.4756 19.1391C67.4756 19.1391 67.4644 19.1391 67.4644 19.1279C67.4644 19.1279 67.4532 19.1279 67.4532 19.1167C67.2964 19.0383 67.1396 18.9487 66.9828 18.8703C66.826 18.7918 66.6691 18.7134 66.5123 18.6238C66.3555 18.5454 66.1987 18.467 66.0418 18.3886C65.885 18.3102 65.7282 18.2318 65.5714 18.1534C65.5714 18.1534 65.5602 18.1533 65.5602 18.1421C65.5602 18.1421 65.549 18.1421 65.549 18.1309C65.549 18.1309 65.5378 18.1309 65.5378 18.1197C65.5378 18.1197 65.5266 18.1197 65.5266 18.1085C65.5042 18.0973 65.493 18.0861 65.4706 18.0861C65.4482 18.0749 65.437 18.0637 65.4146 18.0637C65.3921 18.0525 65.381 18.0525 65.3586 18.0413C65.3361 18.0301 65.3249 18.0189 65.3025 18.0189C64.9329 17.8397 64.5632 17.6717 64.1936 17.5037C63.8239 17.3356 63.4543 17.1788 63.0846 17.022C62.715 16.8652 62.3453 16.7084 61.9757 16.5627C61.606 16.4171 61.2364 16.2715 60.8555 16.1371C60.8443 16.1371 60.8331 16.1259 60.8219 16.1259C60.8107 16.1259 60.7995 16.1259 60.7883 16.1147C60.7771 16.1147 60.7659 16.1147 60.7547 16.1035C60.7435 16.0923 60.7323 16.1035 60.7323 16.0923C60.6651 16.081 60.6091 16.0811 60.5643 16.0811C60.5083 16.0923 60.4635 16.1035 60.4299 16.1259C60.3851 16.1483 60.3626 16.1819 60.3402 16.2155C60.3178 16.2491 60.3066 16.3051 60.3066 16.3499C60.3066 16.4171 60.3178 16.4731 60.3514 16.5403C60.3739 16.6075 60.4187 16.6635 60.4747 16.7307C60.5195 16.7868 60.5867 16.8428 60.6539 16.8876C60.6875 17.0108 60.7547 17.0556 60.8331 17.078Z" fill="#FEFEFE"/>
<path d="M88.8941 39.6245C88.9501 39.6132 88.9949 39.5908 89.0285 39.5684C89.0621 39.5348 89.0846 39.5012 89.107 39.4676C89.1182 39.4228 89.1294 39.378 89.1294 39.3332C89.1294 39.2772 89.1182 39.2324 89.0846 39.1652C89.0846 39.154 89.0734 39.1428 89.0734 39.1428C89.0734 39.1316 89.0622 39.1204 89.0622 39.1204C89.0622 39.1092 89.0509 39.1092 89.0509 39.098C89.0509 39.0868 89.0398 39.0756 89.0398 39.0756C88.7261 38.5827 88.4013 38.0786 88.0652 37.5858C87.7292 37.0929 87.3819 36.6 87.0347 36.1184C86.6762 35.6367 86.3178 35.1438 85.9369 34.6621C85.5561 34.1805 85.1752 33.71 84.7832 33.2396C84.772 33.2284 84.7719 33.2172 84.7607 33.206C84.7495 33.1948 84.7384 33.1835 84.7384 33.1835C84.7272 33.1723 84.716 33.1611 84.7048 33.1611C84.6936 33.1499 84.6823 33.1499 84.6711 33.1387C84.6487 33.1163 84.6151 33.0939 84.5815 33.0715C84.5479 33.0491 84.5143 33.0379 84.4919 33.0155C84.4583 33.0043 84.4247 32.9819 84.3911 32.9707C84.3575 32.9595 84.3239 32.9483 84.2903 32.9483C84.2007 32.9259 84.0999 32.9259 84.0102 32.9707C83.7414 33.0939 83.8982 33.4524 84.0327 33.6092C85.5337 35.4015 86.9114 37.2833 88.1548 39.2548C88.2668 39.4564 88.4797 39.6021 88.7037 39.6469L88.8941 39.6245Z" fill="#FEFEFE"/>
<path d="M54.3031 15.2178C54.3703 15.229 54.4487 15.229 54.5047 15.2178C54.572 15.2066 54.6168 15.1842 54.6616 15.1506C54.7064 15.117 54.74 15.0721 54.7624 15.0273C54.7848 14.9713 54.7848 14.9153 54.7736 14.8481C54.7176 14.5681 54.4823 14.3328 54.2023 14.2656L54.0679 14.2432C54.0007 14.232 53.9335 14.2208 53.8663 14.1984C53.799 14.1872 53.7318 14.176 53.6646 14.1536C53.5974 14.1424 53.5302 14.1312 53.463 14.12C53.3958 14.1088 53.3286 14.0976 53.2614 14.0864C53.239 14.0864 53.2166 14.0752 53.2054 14.0752C53.183 14.0752 53.1606 14.064 53.1494 14.064C53.127 14.064 53.1045 14.0528 53.0933 14.0528C53.0709 14.0528 53.0485 14.0416 53.0373 14.0416C53.0261 14.0416 53.0149 14.0416 53.0037 14.0304C52.9925 14.0304 52.9813 14.0304 52.9701 14.0192C52.9589 14.0192 52.9477 14.0192 52.9365 14.008C52.9253 14.008 52.9141 14.008 52.9029 13.9968C52.5445 13.9296 52.1748 13.8736 51.8164 13.8288C51.4579 13.7728 51.0995 13.728 50.741 13.6943C50.3826 13.6495 50.0241 13.6159 49.6657 13.5935C49.3072 13.5599 48.96 13.5375 48.6127 13.5151C48.6015 13.5151 48.5903 13.5151 48.5791 13.5151C48.5679 13.5151 48.5567 13.5151 48.5455 13.5151C48.5343 13.5151 48.5231 13.5151 48.5119 13.5151C48.5007 13.5151 48.4895 13.5151 48.4783 13.5151C48.4671 13.5151 48.4447 13.5151 48.4335 13.5151C48.4111 13.5151 48.3999 13.5151 48.3887 13.5151C48.3775 13.5151 48.3551 13.5151 48.3439 13.5151C48.3327 13.5151 48.3103 13.5151 48.2991 13.5151C48.2655 13.5151 48.2207 13.5151 48.1871 13.5151C48.1535 13.5151 48.1087 13.5151 48.0751 13.5151C48.0414 13.5151 47.9966 13.5151 47.963 13.5151C47.9294 13.5151 47.8846 13.5151 47.851 13.5151C47.851 13.5151 47.851 13.5151 47.8398 13.5151C47.8398 13.5151 47.8398 13.5151 47.8286 13.5151C47.8286 13.5151 47.8286 13.5151 47.8174 13.5151C47.8174 13.5151 47.8174 13.5151 47.8062 13.5151C47.5374 13.5263 47.4366 13.7728 47.5374 13.9968C47.627 14.2432 47.8846 14.4337 48.1423 14.4785L48.2431 14.5009C48.7023 14.5121 49.1616 14.5345 49.6209 14.5681C50.0801 14.6017 50.5506 14.6465 51.0211 14.7025C51.4915 14.7585 51.962 14.8145 52.4437 14.8929C52.9253 14.9601 53.407 15.0497 53.8887 15.1394C53.8999 15.1394 53.8999 15.1394 53.9111 15.1394C53.9223 15.1394 53.9223 15.1394 53.9335 15.1394C53.9447 15.1394 53.9447 15.1394 53.9559 15.1394C53.9671 15.1394 53.9671 15.1394 53.9783 15.1394C54.0119 15.1506 54.0455 15.1506 54.0791 15.1618C54.1127 15.173 54.1463 15.173 54.1799 15.1842C54.2135 15.1954 54.2471 15.1954 54.2807 15.2066C54.2359 15.1954 54.2695 15.2066 54.3031 15.2178Z" fill="#FEFEFE"/>
<path d="M93.1623 50.9283C93.1735 50.9955 93.2071 51.0627 93.2519 51.1299C93.2967 51.1972 93.3415 51.2644 93.4087 51.3204C93.4647 51.3764 93.532 51.4324 93.6104 51.466C93.6776 51.5108 93.756 51.5332 93.8232 51.5444C94.0696 51.5892 94.3161 51.4772 94.2489 51.1972C94.2377 51.1411 94.2265 51.0963 94.2152 51.0403C94.204 51.0067 94.204 50.9731 94.1928 50.9395C94.1816 50.9059 94.1817 50.8723 94.1705 50.8387C94.1592 50.8051 94.1592 50.7715 94.148 50.7379C94.148 50.7155 94.1368 50.7043 94.1368 50.6819C94.1368 50.6595 94.1256 50.6483 94.1256 50.6259C94.1256 50.6035 94.1144 50.5923 94.1144 50.5699C94.1144 50.5475 94.1032 50.5363 94.1032 50.5139C94.1032 50.5027 94.092 50.4914 94.092 50.469C94.092 50.4578 94.0808 50.4466 94.0808 50.4242C94.0808 50.413 94.0696 50.4018 94.0696 50.3794C94.0696 50.3682 94.0584 50.357 94.0584 50.3346C94.0472 50.3122 94.0472 50.2898 94.036 50.2562C94.0248 50.2338 94.0248 50.2114 94.0136 50.1778C94.0024 50.1554 94.0024 50.133 93.9912 50.0994C93.98 50.077 93.98 50.0546 93.9688 50.021C93.9688 50.0098 93.9688 50.0098 93.9688 49.9986C93.9688 49.9874 93.9688 49.9874 93.9688 49.9762C93.9688 49.965 93.9688 49.965 93.9688 49.9538C93.9688 49.9426 93.9688 49.9426 93.9688 49.9314C93.9576 49.909 93.9576 49.8866 93.9464 49.853C93.9352 49.8306 93.9352 49.8082 93.924 49.7746C93.9128 49.7521 93.9128 49.7297 93.9016 49.6961C93.8904 49.6737 93.8904 49.6513 93.8792 49.6177C93.8792 49.6065 93.8792 49.6065 93.8792 49.5953C93.8792 49.5841 93.8792 49.5841 93.868 49.5729C93.868 49.5617 93.868 49.5617 93.868 49.5505C93.868 49.5393 93.868 49.5393 93.8568 49.5281C93.8456 49.5057 93.8456 49.4833 93.8344 49.4609C93.8344 49.4385 93.8232 49.4161 93.812 49.3937C93.8008 49.3713 93.8008 49.3489 93.7896 49.3265C93.7784 49.3041 93.7784 49.2817 93.7672 49.2593C93.7672 49.2481 93.756 49.2369 93.756 49.2257C93.756 49.2145 93.756 49.2033 93.7448 49.1921C93.7448 49.1809 93.7336 49.1697 93.7336 49.1585C93.7336 49.1473 93.7224 49.1361 93.7224 49.1249C93.7224 49.1025 93.7112 49.0913 93.7 49.0688C93.7 49.0464 93.6888 49.0241 93.6776 49.0129C93.6664 48.9904 93.6664 48.968 93.6552 48.9568C93.644 48.9344 93.644 48.9232 93.6328 48.9008C93.6328 48.8896 93.6216 48.8784 93.6216 48.856C93.6216 48.8448 93.6104 48.8336 93.6104 48.8112C93.6104 48.8 93.5992 48.7888 93.5992 48.7664C93.5992 48.7552 93.588 48.744 93.588 48.7216C93.588 48.7104 93.5768 48.688 93.5768 48.6768C93.5768 48.6656 93.5656 48.6432 93.5656 48.632C93.5656 48.6208 93.5544 48.5984 93.5544 48.5872C93.5544 48.576 93.5432 48.5536 93.5432 48.5424C93.5432 48.52 93.532 48.4976 93.5208 48.4864C93.5096 48.464 93.5096 48.4416 93.4984 48.4304C93.4871 48.408 93.4871 48.3856 93.4759 48.3744C93.4647 48.352 93.4648 48.3295 93.4536 48.3183C93.4536 48.3071 93.4535 48.2959 93.4423 48.2959C93.4423 48.2847 93.4423 48.2735 93.4311 48.2735C93.4311 48.2623 93.4311 48.2511 93.4199 48.2511C93.4199 48.2399 93.4199 48.2287 93.4087 48.2287C93.3191 47.9599 93.2295 47.6911 93.1399 47.4334C93.0503 47.1646 92.9495 46.8957 92.8487 46.6381C92.7478 46.3693 92.647 46.1116 92.535 45.8428C92.4342 45.574 92.3222 45.3163 92.2102 45.0475C92.2102 45.0363 92.199 45.0363 92.199 45.0251C92.199 45.0139 92.1878 45.0139 92.1878 45.0027C92.1878 44.9915 92.1766 44.9915 92.1766 44.9803C92.1766 44.9691 92.1654 44.9691 92.1654 44.9579C92.1318 44.9019 92.0982 44.8571 92.0534 44.8123C92.0085 44.7675 91.9637 44.7227 91.9189 44.689C91.8741 44.6554 91.8181 44.6218 91.7733 44.5994C91.7173 44.577 91.6725 44.5546 91.6165 44.5434C91.5717 44.5322 91.5381 44.5322 91.4933 44.5322C91.4261 44.5322 91.3701 44.5434 91.314 44.5658C91.2692 44.5882 91.2244 44.6218 91.202 44.6666C91.1796 44.7114 91.1572 44.7563 91.1572 44.8235C91.1572 44.8795 91.1684 44.9467 91.202 45.0139C91.3925 45.4619 91.5829 45.9212 91.7509 46.3693C91.9189 46.8173 92.087 47.2766 92.2438 47.7247C92.4006 48.1727 92.535 48.632 92.6694 49.0801C92.8038 49.5281 92.9271 49.9874 93.0391 50.4354C93.0391 50.4354 93.0391 50.4355 93.0391 50.4467C93.0391 50.4467 93.0391 50.4466 93.0391 50.4578C93.0391 50.4578 93.0391 50.4578 93.0391 50.469C93.0391 50.469 93.0391 50.4691 93.0391 50.4803C93.0503 50.5139 93.0503 50.5475 93.0615 50.5699C93.0727 50.6035 93.0727 50.6371 93.0839 50.6595C93.0951 50.6931 93.0951 50.7267 93.1063 50.7603C93.1511 50.8723 93.1511 50.8947 93.1623 50.9283Z" fill="#FEFEFE"/>
<path d="M42.3956 14.8686C42.4628 14.8574 42.5076 14.835 42.5525 14.8014C42.5973 14.7678 42.6197 14.723 42.6309 14.667C42.6421 14.6109 42.6533 14.5549 42.6309 14.4989C42.6197 14.4317 42.5861 14.3757 42.5525 14.3085C42.5189 14.2637 42.4852 14.2077 42.4404 14.1629C42.3956 14.1181 42.3508 14.0845 42.306 14.0509C42.2612 14.0173 42.2052 13.9837 42.1492 13.9612C42.0932 13.9388 42.0484 13.9164 41.9924 13.9052C41.9812 13.9052 41.9588 13.9052 41.9476 13.894C41.9364 13.894 41.914 13.894 41.9028 13.894C41.8916 13.894 41.8692 13.894 41.858 13.894C41.8468 13.894 41.8244 13.894 41.8131 13.894C39.9985 14.2077 38.2062 14.7342 36.5148 15.4735C36.5036 15.4735 36.5036 15.4847 36.4924 15.4847C36.4812 15.4847 36.4812 15.4959 36.47 15.4959C36.4588 15.4959 36.4588 15.5071 36.4476 15.5071L36.4364 15.5183C36.246 15.6863 36.358 15.9663 36.4924 16.1232L36.9853 16.4256L37.2653 16.4144C37.6574 16.2352 38.0606 16.0783 38.4751 15.9215C38.8895 15.7647 39.304 15.6303 39.7409 15.4959C40.1665 15.3614 40.6034 15.2494 41.0514 15.1374C41.4995 15.0478 41.9476 14.9582 42.3956 14.8686C42.4628 14.8574 41.9476 14.9582 42.3956 14.8686Z" fill="#FEFEFE"/>
<path d="M93.9351 56.6863C93.9463 57.1455 93.9351 57.5936 93.9127 58.0417C93.8903 58.4897 93.8679 58.9378 93.8231 59.3747C93.7783 59.8115 93.7222 60.2484 93.655 60.6852C93.5878 61.1109 93.5094 61.5366 93.4086 61.9622C93.3414 62.2535 93.6214 62.5447 93.8455 62.6567L94.0471 62.7239C94.0919 62.7351 94.1367 62.7351 94.1815 62.7351C94.2263 62.7351 94.2599 62.7239 94.2935 62.7127C94.3271 62.7015 94.3607 62.6791 94.3831 62.6679C94.4055 62.6455 94.4279 62.6231 94.4503 62.5895C94.4616 62.5671 94.4727 62.5447 94.4727 62.5223C94.5512 62.1862 94.6184 61.8502 94.6856 61.5029C94.7416 61.1557 94.7976 60.8084 94.8424 60.4612C94.8872 60.1139 94.9208 59.7555 94.9432 59.397C94.9656 59.0386 94.988 58.6801 94.9992 58.3105C94.9992 58.2993 94.9992 58.2993 94.9992 58.2881C94.9992 58.2769 94.9992 58.2769 94.9992 58.2657C94.9992 58.2545 94.9992 58.2545 94.9992 58.2433C94.9992 58.2321 94.9992 58.2321 94.9992 58.2209C94.9992 58.2097 94.9992 58.1985 94.9992 58.1761C94.9992 58.1537 94.9992 58.1537 94.9992 58.1313C94.9992 58.1201 94.9992 58.1089 94.9992 58.0865C94.9992 58.0753 94.9992 58.0641 94.9992 58.0417C94.9992 57.9633 94.9992 57.8736 94.9992 57.7952C94.9992 57.7168 94.9992 57.6272 94.9992 57.5488C94.9992 57.4704 94.9992 57.3808 94.9992 57.3024C94.9992 57.2239 94.9992 57.1343 94.9992 57.0559C94.988 56.7535 94.708 56.4846 94.4391 56.395C94.4279 56.395 94.4279 56.3838 94.4167 56.3838C94.4055 56.3838 94.4055 56.3838 94.3943 56.3726C94.3831 56.3726 94.3831 56.3726 94.3719 56.3614C94.3607 56.3614 94.3607 56.3614 94.3495 56.3614C94.2935 56.3502 94.2375 56.3502 94.1815 56.3614C94.1255 56.3726 94.0807 56.3838 94.0471 56.4174C94.0135 56.4398 93.9799 56.4846 93.9575 56.5182C93.9351 56.5743 93.9239 56.6303 93.9351 56.6863C93.9351 57.1343 93.9239 56.6303 93.9351 56.6863Z" fill="#FEFEFE"/>
<path d="M29.7826 22.7016C30.0067 22.3656 30.2419 22.0295 30.4883 21.7047C30.7348 21.3798 30.9924 21.0662 31.2612 20.7638C31.5301 20.4613 31.8101 20.1589 32.1126 19.8788C32.4038 19.5988 32.7062 19.3188 33.0311 19.0611C33.2663 18.8707 33.0647 18.5234 32.8855 18.3778C32.8519 18.3442 32.8183 18.3218 32.7847 18.2994C32.7511 18.277 32.7175 18.2546 32.6726 18.2322C32.639 18.2098 32.6054 18.1986 32.5606 18.1874C32.527 18.1762 32.4934 18.165 32.4486 18.1538C32.4262 18.1538 32.4038 18.1426 32.3814 18.1426C32.359 18.1426 32.3366 18.1426 32.3142 18.1426C32.2918 18.1426 32.2694 18.1426 32.247 18.1538C32.2246 18.1538 32.2022 18.165 32.191 18.165C32.1574 18.1762 32.135 18.1874 32.1014 18.2098C31.7765 18.4786 31.4629 18.7587 31.1492 19.0611C30.8468 19.3524 30.5555 19.6548 30.2755 19.9796C29.9955 20.2933 29.7266 20.6181 29.469 20.9542C29.2114 21.2902 28.9761 21.6263 28.7409 21.9735C28.7409 21.9847 28.7297 21.9959 28.7297 21.9959C28.7297 22.0071 28.7185 22.0183 28.7185 22.0183C28.7185 22.0295 28.7073 22.0407 28.7073 22.0519C28.7073 22.0631 28.7073 22.0743 28.6961 22.0855C28.6513 22.3208 28.8417 22.556 29.0209 22.6904L29.357 22.8472L29.7826 22.7016Z" fill="#FEFEFE"/>
<path d="M91.6162 66.5873C90.8321 68.0211 89.8015 69.3205 88.6254 70.4518C88.4349 70.6647 88.6253 71.0007 88.7934 71.1575L89.219 71.3704L89.5327 71.3032L89.5663 71.292C89.8687 71.0007 90.16 70.6983 90.44 70.3846C90.72 70.071 90.9889 69.7461 91.2465 69.4213C91.5041 69.0852 91.7506 68.7492 91.9858 68.402C92.2211 68.0547 92.4339 67.6963 92.6355 67.3266C92.6355 67.3154 92.6467 67.3154 92.6467 67.3042C92.6467 67.293 92.6579 67.293 92.6579 67.2818C92.6579 67.2706 92.6579 67.2594 92.6691 67.2594C92.6691 67.2482 92.6691 67.237 92.6803 67.2258C92.7139 66.9794 92.5235 66.7441 92.3443 66.6097C92.3219 66.5873 92.2883 66.5761 92.2659 66.5537C92.2435 66.5425 92.2098 66.5201 92.1874 66.5089C92.165 66.4977 92.1314 66.4865 92.109 66.4753C92.0866 66.4641 92.053 66.4641 92.0306 66.4529C91.8738 66.4305 91.7058 66.4529 91.6162 66.5873C91.4145 66.9457 91.6386 66.5537 91.6162 66.5873Z" fill="#FEFEFE"/>
<path d="M26.4567 32.7366C26.5127 32.7478 26.5687 32.7479 26.6136 32.7479C26.6584 32.7479 26.7032 32.7255 26.748 32.7143C26.7928 32.6919 26.8264 32.6694 26.8488 32.6358C26.8712 32.6022 26.8936 32.5686 26.9048 32.5126C26.9048 32.4902 26.916 32.479 26.916 32.4566C26.9272 32.1766 26.9384 31.8965 26.9496 31.6277C26.972 31.3477 26.9944 31.0788 27.0168 30.81C27.0392 30.5412 27.0728 30.2723 27.1064 30.0035C27.14 29.7346 27.1848 29.477 27.2296 29.2194C27.2632 29.0513 27.2968 28.8721 27.3305 28.7041C27.3641 28.5361 27.3977 28.368 27.4425 28.2C27.4761 28.032 27.5209 27.864 27.5657 27.7072C27.6105 27.5391 27.6553 27.3823 27.7001 27.2143C27.7897 26.9342 27.5209 26.643 27.2969 26.5198C27.2744 26.5086 27.252 26.4974 27.2408 26.4974C27.2296 26.4974 27.2072 26.4862 27.1848 26.475C27.1624 26.4638 27.1512 26.4638 27.1288 26.4526C27.1064 26.4526 27.0952 26.4414 27.0728 26.4414C27.028 26.4302 26.9832 26.4302 26.9384 26.4302C26.8936 26.4302 26.86 26.4414 26.8264 26.4526C26.7928 26.4638 26.7592 26.475 26.7256 26.4974C26.692 26.5198 26.6696 26.5422 26.6584 26.5646C26.6584 26.5646 26.6472 26.5758 26.6472 26.587C26.6472 26.587 26.636 26.5982 26.636 26.6094C26.636 26.6206 26.6248 26.6206 26.6248 26.6318C26.6248 26.643 26.6248 26.643 26.6136 26.6542C26.4903 27.0687 26.3783 27.5055 26.2775 27.9424C26.1767 28.3792 26.0983 28.8273 26.0311 29.2754C25.9639 29.7234 25.9079 30.1827 25.8631 30.6532C25.8182 31.1236 25.7958 31.5829 25.7734 32.0646C25.7734 32.0758 25.7734 32.0758 25.7734 32.087C25.7734 32.0982 25.7734 32.1094 25.7734 32.1094C25.7734 32.1206 25.7734 32.1318 25.7734 32.1318C25.7734 32.143 25.7734 32.1542 25.7734 32.1542C25.8294 32.423 26.0759 32.6358 26.3223 32.7255L26.4567 32.7366Z" fill="#FEFEFE"/>
<path d="M26.2988 37.9568C26.2988 37.968 26.2988 37.968 26.2988 37.9792C26.31 38.0576 26.3324 38.1472 26.3436 38.2257C26.3548 38.2593 26.3548 38.2929 26.366 38.3265C26.3772 38.3601 26.3772 38.3937 26.3884 38.4273C26.3996 38.4609 26.3996 38.4945 26.4108 38.5281V38.5393V38.5505V38.5617C26.4108 38.5729 26.4108 38.5729 26.4108 38.5841C26.4108 38.6065 26.422 38.6401 26.4333 38.6625C26.4445 38.6849 26.4444 38.7185 26.4556 38.7409C26.4669 38.7633 26.4668 38.7969 26.478 38.8193C26.4893 38.8417 26.4893 38.8753 26.5005 38.8977C26.5005 38.9201 26.5117 38.9313 26.5117 38.9537C26.5117 38.9649 26.5229 38.9874 26.5229 38.9986C26.5229 39.0098 26.5341 39.0322 26.5341 39.0434C26.5341 39.0546 26.5453 39.077 26.5453 39.0882C26.5453 39.0994 26.5565 39.1218 26.5565 39.133C26.5565 39.1442 26.5677 39.1666 26.5677 39.1778C26.5677 39.189 26.5789 39.2114 26.5789 39.2226C26.5789 39.2338 26.5901 39.2562 26.5901 39.2674C26.5901 39.2898 26.6013 39.3122 26.6013 39.3234C26.6013 39.3458 26.6125 39.3682 26.6125 39.3794C26.6125 39.4018 26.6237 39.4242 26.6237 39.4354C26.6237 39.4578 26.6349 39.4802 26.6349 39.4914C26.6349 39.5026 26.6461 39.5138 26.6461 39.525C26.6461 39.5362 26.6573 39.5474 26.6573 39.5586C26.6573 39.5698 26.6685 39.581 26.6685 39.5922C26.6685 39.6034 26.6685 39.6146 26.6797 39.6258C26.6797 39.6483 26.6909 39.6707 26.7021 39.6931C26.7133 39.7155 26.7133 39.7379 26.7245 39.7603C26.7357 39.7827 26.7357 39.8051 26.7469 39.8275C26.7581 39.8499 26.7581 39.8723 26.7693 39.8947C26.7693 39.9059 26.7693 39.9171 26.7805 39.9283C26.7805 39.9395 26.7805 39.9507 26.7917 39.9619C26.7917 39.9731 26.7917 39.9843 26.8029 39.9955C26.8029 40.0067 26.8029 40.0179 26.8141 40.0291C26.8141 40.0515 26.8253 40.0739 26.8365 40.0963C26.8365 40.1187 26.8477 40.1411 26.8589 40.1635C26.8589 40.1859 26.8701 40.2083 26.8813 40.2307C26.8925 40.2531 26.8925 40.2755 26.9037 40.2979C26.9037 40.3091 26.9149 40.3204 26.9149 40.3316C26.9149 40.3428 26.9261 40.354 26.9261 40.3652C26.9261 40.3764 26.9373 40.3876 26.9373 40.3988C26.9373 40.41 26.9485 40.4212 26.9485 40.4324C26.9597 40.4548 26.9597 40.4772 26.9709 40.4996C26.9821 40.522 26.9821 40.5444 26.9933 40.5668C27.0045 40.5892 27.0045 40.6116 27.0157 40.634C27.0269 40.6564 27.0269 40.6788 27.0381 40.7012C27.0381 40.7124 27.0493 40.7236 27.0493 40.7348C27.0493 40.746 27.0605 40.7572 27.0605 40.7684C27.0605 40.7796 27.0717 40.7908 27.0717 40.8132C27.0717 40.8244 27.0829 40.8356 27.0829 40.8468C27.0829 40.8692 27.0941 40.8804 27.0941 40.9028C27.1053 40.9252 27.1053 40.9364 27.1165 40.9588C27.1277 40.9812 27.1277 40.9924 27.1389 41.0148C27.1389 41.0372 27.1501 41.0484 27.1613 41.0708C27.1613 41.082 27.1725 41.1045 27.1725 41.1157C27.1725 41.1269 27.1838 41.1493 27.1838 41.1605C27.1838 41.1717 27.195 41.1941 27.195 41.2053C27.195 41.2165 27.2062 41.2389 27.2062 41.2501C27.2062 41.2725 27.2174 41.2837 27.2286 41.3061C27.2286 41.3285 27.2398 41.3397 27.251 41.3621C27.251 41.3845 27.2622 41.3957 27.2734 41.4181C27.2734 41.4405 27.2846 41.4517 27.2958 41.4741C27.2958 41.4853 27.307 41.5077 27.307 41.5189C27.307 41.5301 27.3182 41.5525 27.3182 41.5637C27.3182 41.5749 27.3294 41.5973 27.3294 41.6085C27.3294 41.6197 27.3406 41.6421 27.3406 41.6533C27.3406 41.6645 27.3518 41.6757 27.3518 41.6981C27.3518 41.7093 27.363 41.7205 27.363 41.7429C27.363 41.7541 27.3742 41.7653 27.3742 41.7877C27.3742 41.7989 27.3854 41.8102 27.3854 41.8326C27.3966 41.855 27.3966 41.8774 27.4078 41.8998C27.419 41.9222 27.419 41.9446 27.4302 41.967C27.4414 41.9894 27.4414 42.0118 27.4526 42.0342C27.4638 42.0566 27.4638 42.079 27.475 42.0902C27.475 42.1014 27.4862 42.1126 27.4862 42.1238C27.4862 42.135 27.4974 42.1462 27.4974 42.1574C27.4974 42.1686 27.5086 42.1798 27.5086 42.191C27.5086 42.2022 27.5198 42.2134 27.5198 42.2246C27.531 42.247 27.5422 42.2694 27.5422 42.303C27.5534 42.3254 27.5646 42.3478 27.5646 42.3814C27.5758 42.4038 27.587 42.4262 27.587 42.4598C27.5982 42.4822 27.6094 42.5046 27.6094 42.5382C27.6094 42.5382 27.6094 42.5495 27.6206 42.5607C27.6206 42.5607 27.6206 42.5719 27.6318 42.5719C27.6318 42.5719 27.6318 42.5831 27.643 42.5943V42.6055C27.6542 42.6391 27.6654 42.6615 27.6766 42.6951C27.6878 42.7287 27.699 42.7511 27.7102 42.7847C27.7214 42.8183 27.7326 42.8407 27.7438 42.8743C27.755 42.9079 27.7662 42.9303 27.7774 42.9639C27.7774 42.9639 27.7774 42.9639 27.7774 42.9751C27.7774 42.9751 27.7774 42.9751 27.7774 42.9863C27.7774 42.9863 27.7774 42.9863 27.7774 42.9975C27.9455 43.4568 28.1135 43.916 28.3039 44.3753C28.3039 44.3753 28.3039 44.3753 28.3039 44.3865C28.3039 44.3865 28.3039 44.3865 28.3039 44.3977C28.3039 44.3977 28.3039 44.3977 28.3039 44.4089C28.3039 44.4089 28.3039 44.4089 28.3039 44.4201C28.4047 44.6554 28.6624 44.8458 28.9088 44.8906L29.0096 44.913C29.088 44.913 29.1552 44.9018 29.2112 44.8794C29.2672 44.857 29.3008 44.8122 29.3345 44.7674C29.3569 44.7226 29.3793 44.6666 29.3793 44.5993C29.3793 44.5321 29.3681 44.4649 29.3345 44.3977V44.3865V44.3753V44.3641V44.3529C29.1552 43.9161 28.9872 43.4792 28.8304 43.0423C28.6736 42.6055 28.5279 42.1686 28.3823 41.7317C28.2479 41.2949 28.1135 40.858 28.0015 40.4212C27.8782 39.9843 27.7774 39.5474 27.6766 39.1218C27.6654 39.0882 27.6654 39.0546 27.6542 39.0322C27.643 38.9986 27.643 38.9762 27.6318 38.9426C27.6206 38.9089 27.6206 38.8865 27.6094 38.8529C27.5982 38.8193 27.5982 38.7969 27.587 38.7633C27.5646 38.6401 27.531 38.5057 27.5086 38.3825C27.4974 38.2705 27.4526 38.136 27.3966 38.0352C27.3518 37.968 27.307 37.912 27.251 37.856C27.195 37.8 27.1277 37.7552 27.0605 37.7216C26.9933 37.688 26.9149 37.6544 26.8365 37.6432C26.7581 37.632 26.6909 37.632 26.6237 37.6432C26.5565 37.6544 26.5117 37.6768 26.4669 37.7104C26.422 37.744 26.3996 37.7888 26.3772 37.8336C26.2988 37.8336 26.2988 37.8896 26.2988 37.9568Z" fill="#FEFEFE"/>
<path d="M67.3867 75.1796C67.3083 75.1684 67.2411 75.1684 67.1851 75.1796C67.1179 75.1908 67.0731 75.2244 67.0283 75.258C66.9835 75.2916 66.9499 75.3477 66.9387 75.4037C66.9163 75.4597 66.9163 75.5269 66.9387 75.5941C67.0059 75.8853 67.2859 76.1542 67.5772 76.2102L67.622 76.2214C68.0028 76.2886 68.3837 76.3558 68.7645 76.4118C69.123 76.4678 69.4702 76.5126 69.8287 76.5574C70.1759 76.6022 70.5344 76.6358 70.8816 76.6694C71.2289 76.703 71.5761 76.7254 71.9234 76.7478H71.9346H71.9458H71.957H71.9682C71.9906 76.7478 72.0242 76.7478 72.0466 76.7478C72.069 76.7478 72.1026 76.7478 72.125 76.7478C72.1474 76.7478 72.181 76.7478 72.2034 76.7478C72.2258 76.7478 72.2594 76.7478 72.2818 76.7478C72.293 76.7478 72.3154 76.7478 72.3266 76.7478C72.3378 76.7478 72.3602 76.7478 72.3714 76.7478C72.3826 76.7478 72.405 76.7478 72.4162 76.7478C72.4274 76.7478 72.4498 76.7478 72.4611 76.7478C72.4723 76.7478 72.4947 76.7478 72.5059 76.7478C72.5171 76.7478 72.5395 76.7478 72.5507 76.7478C72.5619 76.7478 72.5731 76.7478 72.5955 76.7478C72.6067 76.7478 72.6291 76.7478 72.6403 76.7478C72.6627 76.7478 72.6963 76.7478 72.7187 76.7478C72.7411 76.7478 72.7747 76.7478 72.7971 76.7478C72.8195 76.7478 72.8531 76.7478 72.8755 76.7478C72.8979 76.7478 72.9315 76.7478 72.9539 76.7478C73.0547 76.7478 73.1555 76.7478 73.2564 76.759C73.3572 76.759 73.458 76.759 73.5588 76.759C73.6596 76.759 73.7604 76.759 73.85 76.759C73.9509 76.759 74.0405 76.759 74.1413 76.759C74.2085 76.759 74.2757 76.7478 74.3205 76.7142C74.3653 76.6918 74.4101 76.647 74.4325 76.6022C74.4549 76.5574 74.4661 76.5014 74.4661 76.4342C74.4661 76.367 74.4437 76.2998 74.4213 76.2326C74.3989 76.1654 74.3541 76.1094 74.3205 76.0534C74.2757 75.9973 74.2309 75.9413 74.1749 75.8965C74.1189 75.8517 74.0629 75.8069 73.9957 75.7845C73.9285 75.7509 73.8724 75.7285 73.8052 75.7173H73.794H73.7828H73.7716H73.7604H73.7492H73.738H73.7268H73.7156C73.2452 75.7173 72.7635 75.7061 72.2818 75.6949C71.8002 75.6725 71.3073 75.6389 70.8144 75.6053C70.3215 75.5605 69.8287 75.5157 69.3246 75.4485C68.8205 75.3813 68.3165 75.314 67.8124 75.2244C67.7788 75.2244 67.7452 75.2132 67.7116 75.202C67.678 75.202 67.6444 75.1908 67.6108 75.1796C67.5772 75.1796 67.5436 75.1684 67.51 75.1572C67.454 75.1908 67.4203 75.1908 67.3867 75.1796Z" fill="#FEFEFE"/>
<path d="M33.7926 52.6863C33.8374 52.7423 33.871 52.7983 33.9046 52.8544C33.9382 52.9104 33.983 52.9552 34.0166 53.0112C34.0502 53.056 34.0838 53.112 34.1174 53.1568C34.151 53.2016 34.1846 53.2576 34.2182 53.3024C35.6184 55.2627 37.1755 57.167 38.8781 58.9704C40.5807 60.7739 42.4178 62.4877 44.3669 64.0783C46.3159 65.6689 48.3658 67.1364 50.4941 68.4693C52.6224 69.7911 54.8291 70.9673 57.0918 71.9642C57.1366 71.9866 57.1815 72.009 57.2263 72.0202C57.2711 72.0426 57.3047 72.0538 57.3383 72.065C57.3719 72.0762 57.4055 72.0986 57.4391 72.1098C57.4727 72.121 57.5063 72.1322 57.5287 72.1546C57.5735 72.1771 57.6183 72.1883 57.6631 72.2107C57.7079 72.2331 57.7527 72.2443 57.7975 72.2667C57.8424 72.2891 57.8872 72.3003 57.932 72.3227C57.9768 72.3451 58.0216 72.3563 58.0664 72.3787C58.0888 72.3899 58.1112 72.4011 58.1448 72.4123C58.1672 72.4235 58.1896 72.4347 58.2232 72.4459C58.2456 72.4571 58.268 72.4683 58.3016 72.4795C58.324 72.4907 58.3464 72.5019 58.38 72.5131C58.4248 72.5355 58.4696 72.5467 58.5144 72.5691C58.5593 72.5915 58.6041 72.6027 58.6489 72.6251C58.6937 72.6475 58.7385 72.6587 58.7833 72.6811C58.8281 72.6923 58.8729 72.7147 58.9177 72.7371C59.6122 73.0172 60.3179 73.2748 61.0236 73.5212C61.7293 73.7677 62.435 73.9917 63.1519 74.1933C63.8576 74.395 64.5745 74.5854 65.2914 74.7534C66.0083 74.9214 66.714 75.0671 67.4309 75.2015C67.4645 75.2015 67.4981 75.2127 67.5317 75.2239C67.5653 75.2239 67.5989 75.2351 67.6325 75.2463C67.6661 75.2575 67.6997 75.2575 67.7333 75.2687C67.7669 75.2799 67.8005 75.2799 67.8341 75.2911C68.3382 75.3807 68.8423 75.4479 69.3464 75.5151C69.8504 75.5823 70.3433 75.6271 70.8362 75.6719C71.329 75.7167 71.8219 75.7504 72.3036 75.7616C72.7852 75.784 73.2669 75.7952 73.7374 75.784C77.3779 75.7616 80.6487 75.1007 83.4267 73.8797C86.1935 72.6699 88.4898 70.9113 90.2261 68.7046C91.9511 66.5091 93.1161 63.8655 93.6426 60.8747C94.1578 57.8951 94.0458 54.557 93.1945 50.9613C93.1833 50.9277 93.1833 50.8941 93.1721 50.8717C93.1609 50.8381 93.1609 50.8045 93.1497 50.7709C93.1385 50.7373 93.1385 50.7036 93.1273 50.6812C93.1161 50.6476 93.1161 50.614 93.1049 50.5916C92.276 47.276 90.9094 43.9939 89.0947 40.8351C87.2913 37.6874 85.051 34.6518 82.4746 31.8514C79.9094 29.051 77.0082 26.4523 73.8942 24.1783C70.769 21.9044 67.4197 19.9329 63.9584 18.3871C63.768 18.2975 63.5776 18.2191 63.3983 18.1407C63.2079 18.0623 63.0175 17.9839 62.8382 17.9055C62.659 17.8271 62.4574 17.7486 62.2782 17.6702C62.0877 17.5918 61.8973 17.5134 61.7181 17.4462C61.6509 17.4238 61.5949 17.4014 61.5389 17.379C61.4829 17.3566 61.4381 17.3342 61.3932 17.323C61.3484 17.3006 61.3036 17.2894 61.2588 17.2782C61.214 17.267 61.1804 17.2446 61.1356 17.2334C60.5755 17.0205 60.0154 16.8301 59.4554 16.6397C58.8953 16.4493 58.324 16.2812 57.7639 16.1132C57.1927 15.9452 56.6326 15.7996 56.0613 15.6539C55.49 15.5083 54.9187 15.3851 54.3475 15.2731C54.3139 15.2619 54.2802 15.2619 54.2466 15.2507C54.213 15.2395 54.1794 15.2395 54.1458 15.2283C54.1122 15.2171 54.0786 15.2171 54.045 15.2059C54.0114 15.1947 53.9778 15.1947 53.9442 15.1835C50.4045 14.5114 47.0888 14.3658 44.098 14.7018C41.096 15.0379 38.3964 15.8556 36.0777 17.099C33.7478 18.3423 31.7987 20.0226 30.3201 22.0612C28.8303 24.1111 27.7885 26.5307 27.2957 29.2639C27.2509 29.5215 27.2061 29.7903 27.1725 30.048C27.1389 30.3168 27.1052 30.5856 27.0828 30.8545C27.0604 31.1233 27.038 31.3921 27.0156 31.6722C26.9932 31.941 26.982 32.2211 26.982 32.5011C26.9708 32.9716 26.9708 33.4532 26.982 33.9349C26.9932 34.4166 27.0268 34.8982 27.0716 35.3911C27.1165 35.884 27.1725 36.3768 27.2509 36.8697C27.3293 37.3738 27.4077 37.8779 27.5197 38.3819C27.5309 38.4155 27.5309 38.4491 27.5421 38.4827C27.5533 38.5163 27.5533 38.55 27.5645 38.5724C27.5757 38.606 27.5757 38.6396 27.5869 38.662C27.5981 38.6956 27.5981 38.7292 27.6093 38.7628C27.6205 38.7964 27.6205 38.8188 27.6317 38.8524C27.6429 38.886 27.6429 38.9084 27.6541 38.942C27.6653 38.9756 27.6653 38.998 27.6765 39.0316C27.6877 39.0652 27.6877 39.0876 27.6989 39.1212C27.7997 39.5581 27.9118 39.995 28.0238 40.4318C28.147 40.8687 28.2702 41.3055 28.4046 41.7424C28.539 42.1793 28.6959 42.6161 28.8527 43.053C29.0095 43.4898 29.1775 43.9267 29.3568 44.3636C29.5584 44.8788 29.7824 45.3829 30.0177 45.8982C30.2529 46.4134 30.4881 46.9175 30.7458 47.4216C31.0034 47.9257 31.2722 48.4297 31.5411 48.9338C31.8211 49.4379 32.1123 49.9307 32.4148 50.4236C32.538 50.6252 32.6612 50.8269 32.7844 51.0285C32.9077 51.2189 33.0309 51.4205 33.1541 51.611C33.2773 51.8014 33.4005 51.9918 33.5237 52.1711C33.5461 52.3167 33.6694 52.5071 33.7926 52.6863C33.8374 52.7423 33.6694 52.5071 33.7926 52.6863Z" fill="#ED0E1C"/>
<path d="M50.7529 69.6458C51.3466 70.0042 51.9515 70.3514 52.5564 70.6875L50.7529 69.6458Z" fill="#6D1627"/>
<path d="M41.2986 61.5683C41.265 61.5571 41.2314 61.5571 41.1978 61.5571C41.1642 61.5571 41.1306 61.5571 41.097 61.5683C41.0634 61.5795 41.041 61.5795 41.0073 61.6019C40.9849 61.6131 40.9513 61.6355 40.9289 61.6467C40.8953 61.6803 40.8617 61.7252 40.8505 61.77C40.8393 61.8148 40.8281 61.8708 40.8281 61.9268C40.8281 61.9828 40.8505 62.0388 40.8729 62.0948C40.8953 62.1508 40.9289 62.2068 40.9737 62.2628C40.9849 62.274 40.9849 62.2852 40.9962 62.2964C41.0074 62.3076 41.0185 62.3188 41.0185 62.33C41.0298 62.3412 41.0409 62.3524 41.0409 62.3636C41.0522 62.3748 41.0634 62.386 41.0746 62.3972C43.0012 64.1783 45.0399 65.8137 47.1682 67.3371L47.2354 67.3595L47.5043 67.4603L47.9187 67.3259C47.9411 67.2699 47.9635 67.2139 47.9635 67.1467C47.9635 67.0795 47.9523 67.0123 47.9187 66.9451C47.8963 66.8779 47.8515 66.8107 47.7955 66.7434C47.7395 66.6762 47.6835 66.6202 47.6051 66.5642C47.0898 66.1946 46.5745 65.8249 46.0705 65.4441C45.5664 65.0632 45.0623 64.6712 44.5806 64.2679C44.0878 63.8646 43.6061 63.4614 43.1244 63.0469C42.6428 62.6325 42.1723 62.2068 41.7018 61.7812C41.6682 61.7476 41.6346 61.7251 41.601 61.7027C41.5674 61.6803 41.5338 61.6579 41.5002 61.6355C41.4666 61.6131 41.433 61.6019 41.3882 61.5907C41.3658 61.5795 41.3322 61.5683 41.2986 61.5683Z" fill="#FEFEFE"/>
<path d="M60.7215 16.1587C60.7327 16.1587 60.7439 16.1587 60.7439 16.1699C60.7439 16.1811 60.7663 16.1699 60.7775 16.1811C60.7887 16.1811 60.7999 16.1811 60.8111 16.1923C60.8223 16.1923 60.8335 16.2035 60.8447 16.2035C62.3569 16.7524 63.8467 17.3909 65.2917 18.0854C61.7632 16.394 58.0443 15.0722 54.2021 14.2881C54.2806 14.2993 54.3478 14.3329 54.415 14.3665C54.4822 14.4001 54.5382 14.4449 54.583 14.5009C54.6278 14.5569 54.6726 14.6129 54.7062 14.6689C54.7398 14.7249 54.7622 14.7922 54.7734 14.8594C54.8406 15.1506 54.5382 15.2738 54.303 15.229C56.6105 15.6995 58.8844 16.3604 61.0911 17.1893C61.0687 17.1781 61.0463 17.1781 61.0239 17.1669C61.0015 17.1557 60.9791 17.1557 60.9567 17.1445C60.9343 17.1333 60.9119 17.1333 60.8895 17.1221C60.8671 17.1109 60.8447 17.1109 60.8223 17.0997C60.7439 17.0773 60.6767 17.0325 60.6094 16.9877C60.5422 16.9428 60.4862 16.8868 60.4302 16.8308C60.3854 16.7748 60.3406 16.7076 60.307 16.6404C60.2846 16.5732 60.2622 16.506 60.2622 16.45C60.2622 16.394 60.2734 16.3492 60.2958 16.3156C60.3182 16.282 60.3518 16.2484 60.3854 16.226C60.4302 16.2035 60.475 16.1923 60.5198 16.1811C60.6095 16.1475 60.6655 16.1475 60.7215 16.1587Z" fill="#A2000C"/>
<path d="M91.6379 44.6198C91.6939 44.631 91.7387 44.6534 91.7947 44.6758C91.8507 44.6982 91.8955 44.7318 91.9403 44.7654C91.9851 44.799 92.0299 44.8438 92.0747 44.8887C92.1195 44.9335 92.1532 44.9783 92.1868 45.0343C91.3018 42.9956 90.2601 41.0353 89.0839 39.1647C89.1623 39.3551 89.1175 39.5903 88.8935 39.6351H88.6919C88.4678 39.5903 88.2662 39.4447 88.143 39.2431C86.8996 37.2716 85.5106 35.3785 84.0208 33.5975C83.8864 33.4406 83.7296 33.0934 83.9984 32.959C84.088 32.9142 84.1888 32.9142 84.2785 32.9366C84.3121 32.9478 84.3457 32.9478 84.3793 32.959C84.4129 32.9702 84.4465 32.9814 84.4801 33.0038C84.5137 33.015 84.5473 33.0374 84.5697 33.0598C84.6033 33.0822 84.6257 33.1046 84.6593 33.127C83.1247 31.3124 81.4781 29.5985 79.7418 27.9855C79.8538 28.1311 79.9659 28.3999 79.7866 28.5344L79.4394 28.6016L79.0249 28.3888C77.2439 26.7421 75.3396 25.2075 73.3569 23.8073C73.1777 23.6729 72.9089 23.348 73.0657 23.1128C73.0881 23.0792 73.1105 23.0568 73.1329 23.0344C73.1553 23.012 73.1889 23.0008 73.2225 22.9896C73.2561 22.9784 73.2897 22.9784 73.3345 22.9784C73.3681 22.9784 73.4129 22.9784 73.4577 22.9896C73.4689 22.9896 73.4913 23.0008 73.5025 23.0008C73.5137 23.0008 73.5362 23.012 73.5474 23.012C73.5586 23.012 73.581 23.0232 73.5922 23.0344C73.6034 23.0456 73.6258 23.0456 73.637 23.0568C71.6655 21.6566 69.6044 20.3684 67.4649 19.2259C67.6553 19.3491 67.913 19.6179 67.8346 19.8756C67.801 20.0772 67.5769 20.122 67.4089 20.0884L67.2073 19.9988C66.1207 19.4275 65.0118 18.8898 63.8916 18.3857C77.0758 24.289 89.4648 36.2074 93.0269 50.5679C92.5676 48.7084 91.9515 46.8937 91.1898 45.1351C91.1562 45.0679 91.145 45.0007 91.145 44.9447C91.145 44.8887 91.1562 44.8326 91.1898 44.7878C91.2122 44.743 91.257 44.7094 91.3018 44.687C91.3467 44.6646 91.4138 44.6534 91.4811 44.6534C91.5595 44.6086 91.5931 44.6086 91.6379 44.6198Z" fill="#6D1627"/>
<path d="M27.2406 29.218C28.2152 23.8524 31.5532 19.3158 36.4259 16.8403C41.5562 14.2415 47.5939 14.0287 53.1611 14.992C51.5144 14.7008 49.8454 14.5215 48.1763 14.4767L48.0755 14.4543C47.8179 14.3983 47.5603 14.2191 47.4707 13.9726C47.3698 13.7374 47.4707 13.5022 47.7395 13.491C45.7568 13.435 43.7629 13.5582 41.8027 13.9054C41.8587 13.8942 41.9259 13.8942 41.9931 13.9054C42.0491 13.9166 42.0939 13.939 42.1499 13.9615C42.2059 13.9839 42.2507 14.0175 42.3067 14.0511C42.3515 14.0847 42.4075 14.1295 42.4411 14.1631C42.486 14.2079 42.5196 14.2527 42.5532 14.3087C42.598 14.3759 42.6204 14.4431 42.6316 14.4991C42.6428 14.5551 42.6428 14.6224 42.6316 14.6672C42.6204 14.7232 42.5868 14.768 42.5532 14.8016C42.5084 14.8352 42.4636 14.8576 42.3963 14.8688C41.9371 14.9472 41.489 15.048 41.0522 15.1488C40.6153 15.2496 40.1784 15.3729 39.7416 15.5073C39.3159 15.6417 38.8903 15.7761 38.4758 15.9329C38.0613 16.0897 37.6581 16.2466 37.266 16.4258L36.986 16.437L36.4931 16.1346C36.3587 15.9777 36.2467 15.6977 36.4371 15.5297C34.9137 16.213 33.4687 17.0867 32.1805 18.162C32.2589 18.1284 32.3597 18.1284 32.4382 18.1508C32.4718 18.162 32.5054 18.1732 32.5502 18.1844C32.5838 18.1957 32.6174 18.218 32.6622 18.2292C32.6958 18.2517 32.7294 18.2741 32.7742 18.2965C32.8078 18.3189 32.8414 18.3525 32.875 18.3749C33.043 18.5205 33.2447 18.8677 33.0206 19.0582C32.707 19.3158 32.4045 19.5958 32.1021 19.8759C31.8109 20.1559 31.5308 20.4584 31.2508 20.7608C30.9819 21.0633 30.7243 21.3769 30.4779 21.7017C30.2314 22.0266 29.9962 22.3626 29.7722 22.6987L29.3577 22.8219L29.0217 22.6651C28.8424 22.5307 28.652 22.2954 28.6968 22.0602C27.8007 23.4492 27.1174 24.9614 26.6357 26.552C26.7254 26.4176 26.9046 26.3952 27.0502 26.4288C27.0726 26.4288 27.0838 26.44 27.1062 26.44C27.1286 26.44 27.1398 26.4512 27.1622 26.4624C27.1846 26.4736 27.1958 26.4736 27.2182 26.4848C27.2406 26.496 27.2518 26.5072 27.2742 26.5072C27.4983 26.6304 27.7671 26.9217 27.6775 27.2017C27.6327 27.3585 27.5879 27.5265 27.5431 27.6946C27.4983 27.8626 27.4647 28.0194 27.4198 28.1874C27.3862 28.3555 27.3414 28.5235 27.3078 28.6915C27.2966 28.8707 27.263 29.05 27.2406 29.218C27.7223 26.5296 27.263 29.05 27.2406 29.218Z" fill="#6D1627"/>
<path d="M25.7838 32.1431C25.739 34.0921 25.9294 36.0412 26.3103 37.9567C26.2991 37.8895 26.3103 37.8335 26.3215 37.7887C26.3439 37.7439 26.3663 37.6991 26.4111 37.6654C26.4559 37.6318 26.5007 37.6094 26.5679 37.5982C26.6239 37.587 26.7023 37.587 26.7807 37.5982C27.072 37.6542 27.3632 37.8895 27.4192 38.1919L27.4528 38.3375C27.072 36.4221 26.8703 34.473 26.9151 32.5127C26.8703 32.7143 26.6463 32.7816 26.4671 32.748L26.3439 32.7256C26.0862 32.6247 25.8398 32.4119 25.7838 32.1431C25.7726 32.6023 25.795 32.1991 25.7838 32.1431Z" fill="#A2000C"/>
<path d="M28.8529 44.857C28.5953 44.8122 28.3489 44.6218 28.248 44.3866C29.1106 46.5149 30.1635 48.576 31.3509 50.5474C31.3285 50.4914 31.3173 50.4242 31.3173 50.3682C31.3173 50.3122 31.3285 50.2674 31.3397 50.2226C31.3621 50.1778 31.3845 50.1442 31.4181 50.1106C31.4517 50.077 31.5077 50.0546 31.5637 50.0434C31.5749 50.0434 31.5973 50.0434 31.6085 50.0322C31.6197 50.0322 31.6421 50.0322 31.6645 50.0322C31.6869 50.0322 31.6981 50.0322 31.7205 50.0322C31.7429 50.0322 31.7541 50.0322 31.7765 50.0434C31.9894 50.0882 32.191 50.2226 32.3254 50.3906C31.1493 48.4527 30.1187 46.4253 29.2674 44.3306V44.3418V44.353V44.3642V44.3754C29.3794 44.6442 29.245 44.8906 28.9425 44.8906L28.8529 44.857Z" fill="#A2000C"/>
<path d="M52.5558 70.6866C53.1607 71.0226 53.7767 71.3475 54.3928 71.6611C54.2024 71.5603 54.0008 71.4595 53.8103 71.3587C53.7319 71.3139 53.6647 71.2691 53.6087 71.2131C53.5527 71.1571 53.4967 71.0898 53.4519 71.0338C53.4071 70.9666 53.3847 70.8994 53.3735 70.8322C53.3623 70.765 53.3623 70.6978 53.3735 70.6418C53.3847 70.597 53.4071 70.5522 53.4295 70.5298C53.4519 70.4962 53.4855 70.4738 53.5303 70.4514C53.5639 70.429 53.6087 70.4177 53.6647 70.4177C53.7095 70.4177 53.7655 70.4178 53.8216 70.429C53.844 70.429 53.8552 70.4402 53.8776 70.4402C53.9 70.4402 53.9112 70.4514 53.9336 70.4514C53.956 70.4626 53.9672 70.4626 53.9896 70.4738C54.012 70.485 54.0232 70.4962 54.0456 70.4962C54.3032 70.6306 54.5497 70.7538 54.8073 70.8882C55.0649 71.0114 55.3114 71.1347 55.569 71.2579C55.8266 71.3811 56.0843 71.5043 56.3307 71.6163C56.5883 71.7395 56.846 71.8516 57.1036 71.9636C48.0527 67.9534 39.9764 61.3781 34.2412 53.3018C34.9805 54.3435 35.7534 55.3628 36.5711 56.3486C36.728 56.5278 36.84 56.8975 36.5487 57.0095L36.2687 57.0431L35.787 56.7743C37.4001 58.7121 39.1363 60.5492 40.9846 62.263C40.8613 62.095 40.7605 61.815 40.9398 61.6469C40.9622 61.6245 40.9846 61.6133 41.0182 61.6021C41.0406 61.5909 41.0742 61.5797 41.1078 61.5685C41.1414 61.5573 41.175 61.5573 41.2086 61.5573C41.2422 61.5573 41.2758 61.5573 41.3094 61.5685C41.343 61.5797 41.3766 61.5797 41.4214 61.6021C41.455 61.6133 41.4886 61.6357 41.5334 61.6469C41.567 61.6693 41.6006 61.6917 41.6343 61.7141C41.6679 61.7365 41.7015 61.7701 41.7351 61.7925C42.2055 62.2182 42.676 62.6439 43.1577 63.0583C43.6393 63.4728 44.121 63.876 44.6139 64.2793C45.1067 64.6826 45.5996 65.0746 46.1037 65.4555C46.6077 65.8363 47.123 66.206 47.6383 66.5756C47.7167 66.6316 47.7727 66.6876 47.8287 66.7549C47.8847 66.8221 47.9183 66.8893 47.9519 66.9565C47.9743 67.0237 47.9967 67.0909 47.9967 67.1581C47.9967 67.2253 47.9855 67.2813 47.9519 67.3373L47.5375 67.4717L47.2686 67.3709C48.4112 68.1775 49.5762 68.9391 50.7747 69.6672" fill="#6D1627"/>
<g opacity="0.7">
<path opacity="0.7" d="M11.9947 39.6134C11.7034 38.6389 11.4458 37.6532 11.2105 36.6674C11.4346 37.6532 11.7034 38.6389 11.9947 39.6134ZM69.5147 90.1885C67.0728 89.7068 64.6644 89.0684 62.2897 88.3179C61.92 84.6774 61.4608 81.0368 60.9343 77.4187L60.8783 77.0939C61.4832 77.3067 62.0881 77.5083 62.7042 77.6876C63.309 77.878 63.9251 78.046 64.5412 78.2141C65.0565 78.3485 65.5718 78.4717 66.087 78.5837C56.7561 46.8048 43.4151 0.10552 43.4151 0.10552C39.1024 -0.163317 34.7338 0.116717 30.5445 1.20327C28.5506 1.71854 26.6351 2.44665 24.798 3.34277C24.7868 3.33157 24.7868 3.33157 24.7756 3.32036C22.7258 4.3061 20.8103 5.56068 19.0852 7.02808C19.0516 7.06169 19.0068 7.09529 18.9732 7.12889C18.3347 7.67777 17.7299 8.24906 17.1474 8.85394C16.5985 9.42522 16.0944 10.0301 15.6016 10.6574C15.5343 10.747 15.4559 10.8366 15.3887 10.9262C15.3327 11.0047 15.2655 11.0719 15.2095 11.1503L15.2207 11.1615C14.7838 11.7551 14.347 12.36 13.9661 13.0097C10.3256 19.0586 9.56392 26.3508 10.5721 33.2398C10.3144 31.4587 10.1688 29.6552 10.1688 27.8518C14.2014 28.9831 18.2451 30.0585 22.3001 31.0667L22.6922 31.1787C22.681 31.6827 22.681 32.1868 22.7034 32.7021C22.7146 33.2173 22.7482 33.7438 22.793 34.2703C22.8378 34.7968 22.905 35.3345 22.9834 35.8833C23.0618 36.4322 23.1514 36.9811 23.2634 37.5412C23.7115 39.8263 24.4172 42.0554 25.2909 44.2173L24.9101 44.1837C20.9671 43.6684 17.013 43.2091 13.0588 42.8171C14.5262 46.8272 16.4417 50.6694 18.7044 54.2875C20.7319 57.536 23.0394 60.6164 25.5374 63.5288C25.5822 63.5848 25.6382 63.6408 25.683 63.6968C26.3775 64.5033 27.0944 65.2986 27.8225 66.0716C27.8897 66.1388 27.9569 66.206 28.0129 66.2844C28.7634 67.0797 29.5251 67.8526 30.298 68.6143C30.3764 68.6927 30.4436 68.7711 30.522 68.8383C31.2838 69.5776 32.0567 70.2945 32.8408 71.0002C32.9416 71.0899 33.0424 71.1907 33.1544 71.2803C34.0281 72.0644 34.9243 72.8373 35.8316 73.5766C35.854 73.599 35.8876 73.6214 35.91 73.6438C37.5006 74.9544 39.1137 76.2202 40.7939 77.4075C49.3519 83.5124 59.1533 88.1722 69.5147 90.1885ZM13.0476 42.8059C13.0364 42.7835 13.0364 42.7611 13.0252 42.7387C13.0364 42.7611 13.0364 42.7835 13.0476 42.8059Z" fill="url(#paint0_linear)"/>
</g>
<defs>
<linearGradient id="paint0_linear" x1="10.1619" y1="45.0971" x2="69.5118" y2="45.0971" gradientUnits="userSpaceOnUse">
<stop stop-color="white"/>
<stop offset="0.9062"/>
</linearGradient>
</defs>
</svg>
