<svg width="35" height="40" viewBox="0 0 35 40" fill="none" xmlns="http://www.w3.org/2000/svg">
<path d="M3.54819 13.7389C3.58344 13.2817 3.78281 12.8552 4.10661 12.5441C4.4304 12.2331 4.85486 12.0605 5.29545 12.0605H29.6624C30.103 12.0605 30.5275 12.2331 30.8513 12.5441C31.1751 12.8552 31.3745 13.2817 31.4097 13.7389L32.9467 33.6603C32.9854 34.1623 32.9238 34.6673 32.7659 35.1433C32.6079 35.6194 32.357 36.0563 32.0289 36.4264C31.7008 36.7966 31.3026 37.092 30.8595 37.2941C30.4163 37.4962 29.9377 37.6007 29.4539 37.6008H5.504C5.02017 37.6007 4.54161 37.4962 4.09844 37.2941C3.65528 37.092 3.25712 36.7966 2.92902 36.4264C2.60092 36.0563 2.35 35.6194 2.19204 35.1433C2.03409 34.6673 1.97253 34.1623 2.01123 33.6603L3.54644 13.7389H3.54819Z" stroke="#323232" stroke-width="3.30792" stroke-linecap="round" stroke-linejoin="round"/>
<path d="M24.4447 18.2529V9.22351C24.4447 7.30772 23.7516 5.47039 22.5179 4.11572C21.2842 2.76105 19.6109 2 17.8662 2C16.1214 2 14.4481 2.76105 13.2144 4.11572C11.9807 5.47039 11.2876 7.30772 11.2876 9.22351V18.2529" stroke="#323232" stroke-width="3.30792" stroke-linecap="round" stroke-linejoin="round"/>
</svg>
