<svg width="21" height="24" viewBox="0 0 21 24" fill="none" xmlns="http://www.w3.org/2000/svg">
<path d="M1.93605 8.09874C1.95736 7.82233 2.0779 7.56442 2.27367 7.37637C2.46944 7.18832 2.72607 7.08393 2.99246 7.08398H17.725C17.9913 7.08393 18.248 7.18832 18.4437 7.37637C18.6395 7.56442 18.7601 7.82233 18.7814 8.09874L19.7106 20.1434C19.734 20.4469 19.6968 20.7522 19.6013 21.04C19.5058 21.3279 19.3541 21.592 19.1557 21.8158C18.9573 22.0396 18.7166 22.2182 18.4487 22.3404C18.1807 22.4626 17.8914 22.5258 17.5989 22.5258H3.11855C2.82602 22.5258 2.53668 22.4626 2.26874 22.3404C2.0008 22.2182 1.76006 22.0396 1.56169 21.8158C1.36332 21.592 1.21161 21.3279 1.11611 21.04C1.02061 20.7522 0.98339 20.4469 1.00679 20.1434L1.93499 8.09874H1.93605Z" stroke="#323232" stroke-width="2" stroke-linecap="round" stroke-linejoin="round"/>
<path d="M14.5701 10.8266V5.3674C14.5701 4.20909 14.1511 3.09823 13.4052 2.27918C12.6593 1.46014 11.6476 1 10.5927 1C9.5378 1 8.52612 1.46014 7.7802 2.27918C7.03429 3.09823 6.61523 4.20909 6.61523 5.3674V10.8266" stroke="#323232" stroke-width="2" stroke-linecap="round" stroke-linejoin="round"/>
</svg>
