<svg width="174" height="58" viewBox="0 0 174 58" fill="none" xmlns="http://www.w3.org/2000/svg">
<path d="M93.3105 57.3008C92.0836 57.3008 90.9482 57.0261 89.9043 56.4768C88.8788 55.9091 88.0547 55.1033 87.4321 54.0594C86.8278 52.9973 86.5256 51.7245 86.5256 50.2412C86.5256 49.2889 86.6996 48.3641 87.0475 47.4668C87.3955 46.5694 87.8808 45.7637 88.5034 45.0495C89.1444 44.317 89.9043 43.7401 90.7834 43.3189C91.6624 42.8977 92.633 42.6871 93.6951 42.6871C94.7206 42.6871 95.6088 42.8428 96.3597 43.1541C97.1288 43.4654 97.724 43.8774 98.1452 44.3902C98.5664 44.903 98.777 45.4615 98.777 46.0658C98.777 46.4687 98.6671 46.8167 98.4473 47.1097C98.2276 47.3844 97.9071 47.5217 97.4859 47.5217C97.0281 47.54 96.6984 47.4027 96.497 47.1097C96.3139 46.7984 96.2223 46.5237 96.2223 46.2856C96.2223 46.1025 96.2498 45.9193 96.3047 45.7362C96.3597 45.5348 96.4695 45.3516 96.6343 45.1868C96.4878 44.7473 96.2315 44.4268 95.8652 44.2254C95.4989 44.0056 95.1144 43.8683 94.7115 43.8133C94.3269 43.7401 94.0064 43.7035 93.7501 43.7035C92.5048 43.7035 91.4518 44.2071 90.5911 45.2143C89.7487 46.2032 89.3275 47.6499 89.3275 49.5545C89.3275 50.7814 89.5198 51.871 89.9043 52.8233C90.3072 53.7756 90.8658 54.5264 91.58 55.0758C92.2942 55.6069 93.1183 55.8724 94.0522 55.8724C94.9129 55.8724 95.737 55.6435 96.5245 55.1857C97.3119 54.7279 97.9254 54.1693 98.3649 53.5101L99.0791 54.0594C98.603 54.8286 98.0261 55.4512 97.3486 55.9274C96.6893 56.4035 96.0026 56.7515 95.2883 56.9712C94.5925 57.191 93.9332 57.3008 93.3105 57.3008ZM109.525 56.8613C109.47 56.55 109.433 56.2753 109.415 56.0372C109.397 55.7992 109.369 55.552 109.333 55.2956C108.71 55.9182 108.033 56.4127 107.3 56.7789C106.586 57.1269 105.826 57.3008 105.02 57.3008C103.628 57.3008 102.594 56.9895 101.916 56.3669C101.238 55.7259 100.9 54.9476 100.9 54.032C100.9 53.1896 101.156 52.4662 101.669 51.8619C102.2 51.2393 102.877 50.7356 103.702 50.3511C104.544 49.9482 105.45 49.6552 106.421 49.4721C107.41 49.2706 108.362 49.179 109.278 49.1974V47.4943C109.278 46.8533 109.223 46.249 109.113 45.6813C109.003 45.1136 108.765 44.6466 108.399 44.2803C108.033 43.9141 107.447 43.7218 106.641 43.7035C106.11 43.6852 105.56 43.7859 104.993 44.0056C104.443 44.2254 104.04 44.6008 103.784 45.1319C103.93 45.2784 104.022 45.4524 104.059 45.6538C104.114 45.8369 104.141 46.0109 104.141 46.1757C104.141 46.3955 104.049 46.6519 103.866 46.9449C103.683 47.2196 103.363 47.3477 102.905 47.3294C102.52 47.3294 102.227 47.2012 102.026 46.9449C101.824 46.6702 101.724 46.3497 101.724 45.9834C101.724 45.3608 101.953 44.8022 102.41 44.3078C102.887 43.8133 103.537 43.4196 104.361 43.1266C105.185 42.8336 106.119 42.6871 107.163 42.6871C108.701 42.6871 109.836 43.0991 110.569 43.9232C111.301 44.729 111.658 46.0109 111.64 47.7689C111.64 48.7945 111.631 49.8292 111.613 50.873C111.613 51.8985 111.613 52.924 111.613 53.9496C111.613 54.2426 111.604 54.5356 111.585 54.8286C111.567 55.1216 111.539 55.4512 111.503 55.8175C111.832 55.7992 112.153 55.7809 112.464 55.7626C112.794 55.7442 113.124 55.7259 113.453 55.7076V56.8613H109.525ZM109.278 50.1313C108.655 50.1496 107.996 50.232 107.3 50.3785C106.622 50.5067 105.991 50.7082 105.405 50.9829C104.837 51.2576 104.37 51.6238 104.004 52.0816C103.656 52.5212 103.491 53.0614 103.509 53.7023C103.546 54.3799 103.766 54.8927 104.168 55.2406C104.59 55.5703 105.084 55.7351 105.652 55.7351C106.403 55.7351 107.053 55.5977 107.602 55.323C108.17 55.03 108.728 54.6271 109.278 54.1144C109.259 53.9129 109.25 53.6932 109.25 53.4551C109.25 53.2171 109.25 52.9698 109.25 52.7134C109.25 52.6219 109.25 52.3289 109.25 51.8344C109.269 51.34 109.278 50.7723 109.278 50.1313ZM120.969 57.3008C120.054 57.3008 119.239 57.1726 118.525 56.9163C117.81 56.6782 117.224 56.4035 116.767 56.0922L116.877 57.0536H115.723L115.558 52.3289H116.41C116.446 53.0797 116.657 53.7573 117.041 54.3616C117.426 54.9476 117.92 55.4054 118.525 55.7351C119.129 56.0647 119.779 56.2295 120.475 56.2295C120.951 56.2295 121.418 56.1563 121.876 56.0098C122.334 55.845 122.718 55.6069 123.03 55.2956C123.341 54.9659 123.497 54.5539 123.497 54.0594C123.497 53.5467 123.341 53.1255 123.03 52.7959C122.737 52.4479 122.343 52.1457 121.848 51.8894C121.354 51.633 120.823 51.3949 120.255 51.1752C119.523 50.8821 118.79 50.5708 118.058 50.2412C117.344 49.8932 116.748 49.4446 116.272 48.8952C115.796 48.3275 115.558 47.5858 115.558 46.6702C115.558 46.2856 115.631 45.8644 115.778 45.4066C115.924 44.9488 116.171 44.5184 116.519 44.1155C116.867 43.6943 117.344 43.3555 117.948 43.0991C118.552 42.8244 119.321 42.6871 120.255 42.6871C120.75 42.6871 121.299 42.7695 121.903 42.9343C122.508 43.0991 123.094 43.4105 123.661 43.8683L123.607 42.8244H124.76V47.6316H123.881C123.845 46.9906 123.698 46.3772 123.442 45.7911C123.185 45.1868 122.81 44.6924 122.315 44.3078C121.821 43.9049 121.18 43.7035 120.393 43.7035C119.55 43.7035 118.891 43.9141 118.415 44.3353C117.939 44.7565 117.701 45.2418 117.701 45.7911C117.701 46.3589 117.875 46.835 118.223 47.2196C118.589 47.5858 119.056 47.9063 119.623 48.181C120.191 48.4557 120.795 48.7212 121.436 48.9776C122.132 49.2706 122.81 49.5911 123.469 49.939C124.128 50.287 124.669 50.7265 125.09 51.2576C125.511 51.7703 125.722 52.4387 125.722 53.2628C125.722 54.1785 125.484 54.9385 125.007 55.5428C124.55 56.1471 123.954 56.5866 123.222 56.8613C122.508 57.1543 121.757 57.3008 120.969 57.3008ZM128.054 56.0372C128.621 56.0372 129.015 55.8999 129.235 55.6252C129.455 55.3322 129.583 54.9385 129.619 54.444C129.656 53.9313 129.674 53.3452 129.674 52.686V46.4229C129.674 46.1299 129.683 45.8552 129.702 45.5989C129.72 45.3242 129.748 45.0037 129.784 44.6374C129.455 44.6557 129.125 44.6741 128.795 44.6924C128.484 44.7107 128.163 44.729 127.834 44.7473V43.5936C128.64 43.5936 129.262 43.557 129.702 43.4837C130.141 43.4105 130.471 43.3189 130.691 43.209C130.929 43.0991 131.112 42.9801 131.24 42.8519H132.037V53.9496C132.037 54.3158 132.027 54.6455 132.009 54.9385C132.009 55.2132 131.982 55.5062 131.927 55.8175C132.22 55.7992 132.504 55.79 132.778 55.79C133.071 55.7717 133.364 55.7534 133.657 55.7351V56.8613H128.054V56.0372ZM130.718 40.1324C130.334 40.1324 129.995 39.9768 129.702 39.6655C129.409 39.3541 129.262 38.9696 129.262 38.5117C129.262 38.0539 129.409 37.6694 129.702 37.358C130.013 37.0284 130.361 36.8636 130.746 36.8636C131.167 36.8636 131.515 37.0284 131.789 37.358C132.082 37.6694 132.229 38.0539 132.229 38.5117C132.229 38.9696 132.073 39.3541 131.762 39.6655C131.469 39.9768 131.121 40.1324 130.718 40.1324ZM135.779 56.8613V56.0372C136.347 56.0372 136.741 55.8999 136.961 55.6252C137.18 55.3322 137.308 54.9385 137.345 54.444C137.382 53.9313 137.4 53.3452 137.4 52.686L137.428 46.4229C137.428 46.1299 137.428 45.8369 137.428 45.5439C137.446 45.2509 137.482 44.9488 137.537 44.6374C137.208 44.6557 136.878 44.6741 136.549 44.6924C136.237 44.7107 135.917 44.729 135.587 44.7473V43.5936C136.393 43.5936 136.997 43.557 137.4 43.4837C137.821 43.4105 138.133 43.3189 138.334 43.209C138.535 43.0991 138.7 42.9801 138.828 42.8519H139.625C139.662 43.0534 139.68 43.2914 139.68 43.5661C139.698 43.8225 139.717 44.143 139.735 44.5276C140.321 43.9965 141.017 43.557 141.823 43.209C142.628 42.8611 143.425 42.6871 144.212 42.6871C145.806 42.6871 146.969 43.1907 147.701 44.1979C148.434 45.1868 148.8 46.7343 148.8 48.8403V53.9496C148.8 54.3158 148.791 54.6455 148.772 54.9385C148.772 55.2132 148.745 55.5062 148.69 55.8175C148.983 55.7992 149.267 55.79 149.542 55.79C149.835 55.7717 150.128 55.7534 150.421 55.7351V56.8613H144.817V56.0372C145.384 56.0372 145.778 55.8999 145.998 55.6252C146.218 55.3322 146.346 54.9385 146.383 54.444C146.419 53.9313 146.437 53.3452 146.437 52.686V48.8403C146.419 47.2653 146.154 46.075 145.641 45.2692C145.146 44.4635 144.359 44.0697 143.279 44.088C142.619 44.1064 141.969 44.2803 141.328 44.61C140.706 44.9396 140.184 45.3608 139.762 45.8736C139.781 46.0201 139.79 46.1849 139.79 46.368C139.79 46.5511 139.79 46.7434 139.79 46.9449L139.762 53.9496C139.762 54.3158 139.753 54.6455 139.735 54.9385C139.735 55.2132 139.707 55.5062 139.653 55.8175C139.946 55.7992 140.229 55.79 140.504 55.79C140.797 55.7717 141.09 55.7534 141.383 55.7351V56.8613H135.779ZM159.277 57.3008C157.995 57.3008 156.833 57.0078 155.789 56.4218C154.745 55.8175 153.912 54.9934 153.289 53.9496C152.685 52.8874 152.382 51.6788 152.382 50.3236C152.382 48.8769 152.685 47.5767 153.289 46.4229C153.893 45.2692 154.717 44.3627 155.761 43.7035C156.805 43.0259 157.977 42.6871 159.277 42.6871C160.559 42.6871 161.722 42.9984 162.766 43.6211C163.81 44.2254 164.643 45.0495 165.266 46.0933C165.888 47.1372 166.2 48.3275 166.2 49.6643C166.2 51.0744 165.888 52.3655 165.266 53.5375C164.661 54.6912 163.837 55.6069 162.793 56.2845C161.75 56.962 160.578 57.3008 159.277 57.3008ZM159.497 56.2021C160.468 56.2021 161.237 55.9274 161.804 55.378C162.372 54.8286 162.775 54.1144 163.013 53.2354C163.27 52.3563 163.398 51.4315 163.398 50.461C163.398 49.6369 163.315 48.8311 163.15 48.0436C163.004 47.2379 162.766 46.5145 162.436 45.8736C162.107 45.2143 161.676 44.6924 161.145 44.3078C160.632 43.9232 160.01 43.7309 159.277 43.7309C158.325 43.7309 157.547 44.0056 156.942 44.555C156.338 45.1044 155.889 45.8186 155.596 46.6976C155.322 47.5767 155.184 48.5198 155.184 49.527C155.184 50.6624 155.34 51.7429 155.651 52.7684C155.963 53.7756 156.439 54.5997 157.08 55.2406C157.721 55.8816 158.526 56.2021 159.497 56.2021Z" />
<path d="M89.0011 12.9725C89.0011 10.086 89.5212 7.81062 90.5613 6.14634C91.6275 4.48206 93.4478 3.64992 96.0223 3.64992C96.5944 3.64992 97.1925 3.75393 97.8166 3.96197C98.4667 4.144 99.0258 4.45605 99.4938 4.89813C99.9619 5.3142 100.196 5.86029 100.196 6.5364C100.196 7.03049 100.053 7.44656 99.7669 7.78461C99.5068 8.12267 99.1168 8.2917 98.5967 8.2917C97.9726 8.3177 97.5305 8.13567 97.2705 7.74561C97.0364 7.32954 96.9194 6.97848 96.9194 6.69243C96.9194 6.5364 96.9324 6.38038 96.9584 6.22435C96.9844 6.06832 97.0364 5.8993 97.1144 5.71727C96.9324 5.48323 96.6724 5.3142 96.3343 5.21018C96.0223 5.10616 95.7232 5.05415 95.4372 5.05415C94.631 5.05415 94.0069 5.28819 93.5648 5.75627C93.1228 6.22435 92.8107 6.80945 92.6287 7.51157C92.4467 8.21369 92.3556 8.94181 92.3556 9.69594V13.7916H97.6215V15.3129L92.3556 15.4299L92.3946 29.1602C92.3946 29.6803 92.3816 30.1484 92.3556 30.5645C92.3556 30.9545 92.3166 31.3706 92.2386 31.8127C92.6547 31.7867 93.0578 31.7737 93.4478 31.7737C93.8639 31.7477 94.28 31.7217 94.696 31.6957V33.2949H86.7387V32.1247C87.5448 32.1247 88.1039 31.9297 88.416 31.5396C88.728 31.1236 88.9101 30.5645 88.9621 29.8623C89.0141 29.1342 89.0401 28.3021 89.0401 27.3659L89.0011 15.4689L85.8025 15.5469V13.7916H89.0011V12.9725ZM109.207 33.919C107.386 33.919 105.735 33.503 104.253 32.6708C102.771 31.8127 101.588 30.6425 100.703 29.1602C99.8452 27.652 99.4161 25.9357 99.4161 24.0114C99.4161 21.957 99.8452 20.1107 100.703 18.4724C101.562 16.8341 102.732 15.5469 104.214 14.6108C105.696 13.6486 107.36 13.1675 109.207 13.1675C111.027 13.1675 112.678 13.6096 114.161 14.4937C115.643 15.3519 116.826 16.5221 117.71 18.0043C118.594 19.4866 119.036 21.1769 119.036 23.0752C119.036 25.0775 118.594 26.9108 117.71 28.5751C116.852 30.2134 115.682 31.5136 114.2 32.4758C112.717 33.4379 111.053 33.919 109.207 33.919ZM109.519 32.3588C110.897 32.3588 111.989 31.9687 112.795 31.1886C113.602 30.4084 114.174 29.3943 114.512 28.1461C114.876 26.8978 115.058 25.5846 115.058 24.2064C115.058 23.0362 114.941 21.892 114.707 20.7738C114.499 19.6296 114.161 18.6024 113.693 17.6923C113.224 16.7561 112.613 16.015 111.859 15.4689C111.131 14.9228 110.247 14.6498 109.207 14.6498C107.855 14.6498 106.749 15.0398 105.891 15.82C105.033 16.6001 104.396 17.6143 103.98 18.8625C103.59 20.1107 103.395 21.4499 103.395 22.8802C103.395 24.4924 103.616 26.0267 104.058 27.4829C104.5 28.9132 105.176 30.0834 106.086 30.9935C106.996 31.9037 108.141 32.3588 109.519 32.3588ZM132.024 33.919C130.204 33.919 128.553 33.503 127.07 32.6708C125.588 31.8127 124.405 30.6425 123.521 29.1602C122.663 27.652 122.233 25.9357 122.233 24.0114C122.233 21.957 122.663 20.1107 123.521 18.4724C124.379 16.8341 125.549 15.5469 127.031 14.6108C128.514 13.6486 130.178 13.1675 132.024 13.1675C133.844 13.1675 135.496 13.6096 136.978 14.4937C138.46 15.3519 139.643 16.5221 140.528 18.0043C141.412 19.4866 141.854 21.1769 141.854 23.0752C141.854 25.0775 141.412 26.9108 140.528 28.5751C139.669 30.2134 138.499 31.5136 137.017 32.4758C135.535 33.4379 133.87 33.919 132.024 33.919ZM132.336 32.3588C133.714 32.3588 134.807 31.9687 135.613 31.1886C136.419 30.4084 136.991 29.3943 137.329 28.1461C137.693 26.8978 137.875 25.5846 137.875 24.2064C137.875 23.0362 137.758 21.892 137.524 20.7738C137.316 19.6296 136.978 18.6024 136.51 17.6923C136.042 16.7561 135.431 16.015 134.677 15.4689C133.948 14.9228 133.064 14.6498 132.024 14.6498C130.672 14.6498 129.567 15.0398 128.709 15.82C127.85 16.6001 127.213 17.6143 126.797 18.8625C126.407 20.1107 126.212 21.4499 126.212 22.8802C126.212 24.4924 126.433 26.0267 126.875 27.4829C127.317 28.9132 127.993 30.0834 128.904 30.9935C129.814 31.9037 130.958 32.3588 132.336 32.3588ZM153.515 33.919C151.929 33.919 150.499 33.529 149.224 32.7488C147.95 31.9427 146.936 30.7985 146.182 29.3163C145.454 27.834 145.09 26.0917 145.09 24.0894C145.09 21.957 145.519 20.0717 146.377 18.4334C147.235 16.7951 148.418 15.5079 149.927 14.5718C151.461 13.6356 153.19 13.1675 155.114 13.1675C155.973 13.1675 156.818 13.2845 157.65 13.5186C158.508 13.7266 159.184 13.9737 159.678 14.2597V8.91581C159.678 8.49974 159.678 8.10967 159.678 7.74561C159.704 7.35554 159.743 6.90047 159.795 6.38038C159.327 6.40638 158.859 6.43239 158.391 6.45839C157.949 6.4844 157.494 6.5104 157.026 6.5364V4.89813C158.17 4.89813 159.054 4.84612 159.678 4.7421C160.302 4.63808 160.77 4.50806 161.082 4.35203C161.421 4.19601 161.681 4.02698 161.863 3.84495H162.994V29.1602C162.994 29.5763 162.981 29.9924 162.955 30.4084C162.929 30.8245 162.89 31.2926 162.838 31.8127C163.306 31.7867 163.761 31.7607 164.203 31.7347C164.671 31.7087 165.139 31.6826 165.607 31.6566V33.2949H160.029C159.899 32.5928 159.808 31.9167 159.756 31.2666C159.028 32.0727 158.131 32.7228 157.065 33.2169C155.999 33.685 154.815 33.919 153.515 33.919ZM154.919 32.0077C155.778 32.0077 156.636 31.7607 157.494 31.2666C158.378 30.7725 159.106 30.1614 159.678 29.4333C159.652 29.1212 159.639 28.7962 159.639 28.4581C159.639 28.094 159.639 27.704 159.639 27.2879L159.678 16.054C159.054 15.5859 158.365 15.2479 157.611 15.0398C156.883 14.8058 156.129 14.6888 155.349 14.6888C154.048 14.6888 152.917 15.0658 151.955 15.82C150.993 16.5741 150.265 17.6273 149.771 18.9795C149.277 20.3317 149.055 21.918 149.107 23.7383C149.159 25.3246 149.407 26.7418 149.849 27.99C150.317 29.2382 150.967 30.2264 151.799 30.9545C152.657 31.6566 153.697 32.0077 154.919 32.0077Z" />
<mask id="path-3-inside-1" fill="white">
<path fill-rule="evenodd" clip-rule="evenodd" d="M0.200195 32.3828L25.6081 17.7136L40.2773 43.1214L21.2269 54.1202C21.1502 53.7972 21.0251 53.4779 20.8492 53.1731C19.9369 51.5929 18.0016 51.0022 16.5268 51.8537C15.9319 52.1972 15.5027 52.7228 15.2623 53.3315C14.932 53.2437 14.5909 53.2097 14.2527 53.2337C14.2037 52.7644 14.0556 52.2927 13.8009 51.8515C13.0839 50.6097 11.7353 49.9789 10.4748 50.179L0.200195 32.3828ZM22.7948 36.2761C23.7071 37.8563 23.2511 39.8277 21.7763 40.6792C20.3014 41.5307 18.3662 40.94 17.4538 39.3597C16.5415 37.7795 16.9975 35.8082 18.4724 34.9567C19.9472 34.1052 21.8825 34.6959 22.7948 36.2761Z"/>
</mask>
<path fill-rule="evenodd" clip-rule="evenodd" d="M0.200195 32.3828L25.6081 17.7136L40.2773 43.1214L21.2269 54.1202C21.1502 53.7972 21.0251 53.4779 20.8492 53.1731C19.9369 51.5929 18.0016 51.0022 16.5268 51.8537C15.9319 52.1972 15.5027 52.7228 15.2623 53.3315C14.932 53.2437 14.5909 53.2097 14.2527 53.2337C14.2037 52.7644 14.0556 52.2927 13.8009 51.8515C13.0839 50.6097 11.7353 49.9789 10.4748 50.179L0.200195 32.3828ZM22.7948 36.2761C23.7071 37.8563 23.2511 39.8277 21.7763 40.6792C20.3014 41.5307 18.3662 40.94 17.4538 39.3597C16.5415 37.7795 16.9975 35.8082 18.4724 34.9567C19.9472 34.1052 21.8825 34.6959 22.7948 36.2761Z" />
<path d="M25.6081 17.7136L27.1764 16.8081L26.2709 15.2397L24.7026 16.1452L25.6081 17.7136ZM0.200195 32.3828L-0.705313 30.8144L-2.2737 31.7199L-1.36819 33.2883L0.200195 32.3828ZM40.2773 43.1214L41.1828 44.6898L42.7512 43.7843L41.8457 42.2159L40.2773 43.1214ZM21.2269 54.1202L19.4648 54.5385L20.0264 56.9045L22.1324 55.6886L21.2269 54.1202ZM15.2623 53.3315L14.797 55.0817L16.3546 55.4958L16.9467 53.9968L15.2623 53.3315ZM14.2527 53.2337L12.4515 53.4217L12.6334 55.164L14.3807 55.0401L14.2527 53.2337ZM10.4748 50.179L8.90642 51.0845L9.52895 52.1627L10.7586 51.9676L10.4748 50.179ZM24.7026 16.1452L-0.705313 30.8144L1.1057 33.9512L26.5136 19.282L24.7026 16.1452ZM41.8457 42.2159L27.1764 16.8081L24.0397 18.6191L38.7089 44.0269L41.8457 42.2159ZM22.1324 55.6886L41.1828 44.6898L39.3718 41.5531L20.3214 52.5518L22.1324 55.6886ZM19.2808 54.0787C19.3684 54.2304 19.4285 54.3854 19.4648 54.5385L22.9889 53.702C22.8719 53.209 22.6819 52.7254 22.4176 52.2676L19.2808 54.0787ZM17.4323 53.4221C17.9408 53.1285 18.8087 53.261 19.2808 54.0787L22.4176 52.2676C21.065 49.9249 18.0625 48.8759 15.6213 50.2853L17.4323 53.4221ZM16.9467 53.9968C17.0463 53.7446 17.2131 53.5486 17.4323 53.4221L15.6213 50.2853C14.6506 50.8457 13.9592 51.7011 13.5779 52.6661L16.9467 53.9968ZM14.3807 55.0401C14.5128 55.0308 14.6535 55.0436 14.797 55.0817L15.7276 51.5813C15.2105 51.4438 14.6691 51.3886 14.1246 51.4272L14.3807 55.0401ZM12.2325 52.757C12.359 52.9761 12.4286 53.2031 12.4515 53.4217L16.0539 53.0456C15.9787 52.3256 15.7522 51.6092 15.3693 50.946L12.2325 52.757ZM10.7586 51.9676C11.2415 51.891 11.8715 52.1317 12.2325 52.757L15.3693 50.946C14.2964 49.0877 12.2291 48.0669 10.191 48.3903L10.7586 51.9676ZM-1.36819 33.2883L8.90642 51.0845L12.0432 49.2734L1.76858 31.4773L-1.36819 33.2883ZM22.6818 42.2476C25.123 40.8381 25.7158 37.7134 24.3632 35.3706L21.2264 37.1816C21.6985 37.9993 21.3793 38.8172 20.8707 39.1108L22.6818 42.2476ZM15.8854 40.2653C17.238 42.608 20.2405 43.657 22.6818 42.2476L20.8707 39.1108C20.3622 39.4044 19.4943 39.2719 19.0222 38.4542L15.8854 40.2653ZM17.5669 33.3883C15.1256 34.7977 14.5328 37.9225 15.8854 40.2653L19.0222 38.4542C18.5501 37.6365 18.8694 36.8187 19.3779 36.5251L17.5669 33.3883ZM24.3632 35.3706C23.0106 33.0279 20.0081 31.9789 17.5669 33.3883L19.3779 36.5251C19.8864 36.2315 20.7543 36.3639 21.2264 37.1816L24.3632 35.3706Z"  mask="url(#path-3-inside-1)"/>
<mask id="path-5-inside-2" fill="white">
<path fill-rule="evenodd" clip-rule="evenodd" d="M52.1143 0C51.9731 0.88612 51.4717 1.68431 50.6668 2.149C49.9645 2.55443 49.158 2.63291 48.4071 2.4333C48.1667 3.04197 47.7375 3.56761 47.1426 3.91107C45.6678 4.76259 43.7325 4.17186 42.8202 2.59164C42.5655 2.15042 42.4174 1.67872 42.3684 1.20941C42.1114 1.22762 41.8528 1.21238 41.5985 1.16549L35.001 25.7879L63.3398 33.3813L70.9331 5.04249L52.1143 0ZM49.8951 14.4552C51.5401 14.896 53.2564 13.8245 53.7287 12.062C54.201 10.2995 53.2503 8.5134 51.6053 8.07263C49.9603 7.63185 48.2439 8.70332 47.7716 10.4658C47.2993 12.2283 48.25 14.0145 49.8951 14.4552ZM60.4146 21.1505C59.9424 22.913 58.226 23.9845 56.581 23.5437C54.936 23.1029 53.9853 21.3168 54.4575 19.5543C54.9298 17.7918 56.6462 16.7203 58.2912 17.1611C59.9362 17.6019 60.8869 19.388 60.4146 21.1505Z"/>
</mask>
<path fill-rule="evenodd" clip-rule="evenodd" d="M52.1143 0C51.9731 0.88612 51.4717 1.68431 50.6668 2.149C49.9645 2.55443 49.158 2.63291 48.4071 2.4333C48.1667 3.04197 47.7375 3.56761 47.1426 3.91107C45.6678 4.76259 43.7325 4.17186 42.8202 2.59164C42.5655 2.15042 42.4174 1.67872 42.3684 1.20941C42.1114 1.22762 41.8528 1.21238 41.5985 1.16549L35.001 25.7879L63.3398 33.3813L70.9331 5.04249L52.1143 0ZM49.8951 14.4552C51.5401 14.896 53.2564 13.8245 53.7287 12.062C54.201 10.2995 53.2503 8.5134 51.6053 8.07263C49.9603 7.63185 48.2439 8.70332 47.7716 10.4658C47.2993 12.2283 48.25 14.0145 49.8951 14.4552ZM60.4146 21.1505C59.9424 22.913 58.226 23.9845 56.581 23.5437C54.936 23.1029 53.9853 21.3168 54.4575 19.5543C54.9298 17.7918 56.6462 16.7203 58.2912 17.1611C59.9362 17.6019 60.8869 19.388 60.4146 21.1505Z" />
<path d="M52.1143 0L52.583 -1.74931L50.6421 -2.26938L50.3259 -0.285008L52.1143 0ZM50.6668 2.149L49.7613 0.580612L50.6668 2.149ZM48.4071 2.4333L48.8724 0.683071L47.3148 0.269002L46.7227 1.76794L48.4071 2.4333ZM47.1426 3.91107L48.0481 5.47946L48.0481 5.47946L47.1426 3.91107ZM42.8202 2.59164L44.3886 1.68613V1.68613L42.8202 2.59164ZM42.3684 1.20941L44.1696 1.02138L43.9878 -0.720931L42.2404 -0.597075L42.3684 1.20941ZM41.5985 1.16549L41.9269 -0.615501L40.2821 -0.918777L39.8492 0.696769L41.5985 1.16549ZM35.001 25.7879L33.2517 25.3192L32.7829 27.0685L34.5323 27.5372L35.001 25.7879ZM63.3398 33.3813L62.871 35.1306L64.6204 35.5993L65.0891 33.85L63.3398 33.3813ZM70.9331 5.04249L72.6824 5.51121L73.1512 3.7619L71.4019 3.29318L70.9331 5.04249ZM49.8951 14.4552L50.3638 12.7059L49.8951 14.4552ZM51.6053 8.07263L52.074 6.32332L51.6053 8.07263ZM47.7716 10.4658L49.5209 10.9346L49.5209 10.9346L47.7716 10.4658ZM56.581 23.5437L57.0497 21.7944L56.581 23.5437ZM60.4146 21.1505L58.6653 20.6818L58.6653 20.6818L60.4146 21.1505ZM54.4575 19.5543L52.7082 19.0856V19.0856L54.4575 19.5543ZM50.3259 -0.285008C50.2627 0.111489 50.0518 0.412858 49.7613 0.580612L51.5723 3.71739C52.8915 2.95575 53.6835 1.66075 53.9028 0.285008L50.3259 -0.285008ZM49.7613 0.580612C49.5053 0.72838 49.1965 0.769236 48.8724 0.683071L47.9418 4.18352C49.1194 4.49658 50.4238 4.38049 51.5723 3.71739L49.7613 0.580612ZM48.0481 5.47946C49.0188 4.91905 49.7102 4.06372 50.0915 3.09865L46.7227 1.76794C46.6231 2.02022 46.4563 2.21617 46.2371 2.34268L48.0481 5.47946ZM41.2518 3.49714C42.6044 5.83989 45.6069 6.8889 48.0481 5.47946L46.2371 2.34268C45.7286 2.63628 44.8607 2.50383 44.3886 1.68613L41.2518 3.49714ZM40.5672 1.39744C40.6423 2.11743 40.8689 2.83388 41.2518 3.49714L44.3886 1.68613C44.262 1.46696 44.1925 1.24001 44.1696 1.02138L40.5672 1.39744ZM41.2702 2.94649C41.6709 3.02037 42.0828 3.04521 42.4965 3.0159L42.2404 -0.597075C42.14 -0.589963 42.0348 -0.595615 41.9269 -0.615501L41.2702 2.94649ZM36.7503 26.2566L43.3478 1.63422L39.8492 0.696769L33.2517 25.3192L36.7503 26.2566ZM63.8085 31.632L35.4697 24.0386L34.5323 27.5372L62.871 35.1306L63.8085 31.632ZM69.1838 4.57376L61.5905 32.9126L65.0891 33.85L72.6824 5.51121L69.1838 4.57376ZM51.6456 1.74931L70.4644 6.7918L71.4019 3.29318L52.583 -1.74931L51.6456 1.74931ZM51.9794 11.5933C51.735 12.5053 50.931 12.8579 50.3638 12.7059L49.4263 16.2045C52.1492 16.9341 54.7779 15.1437 55.478 12.5308L51.9794 11.5933ZM51.1365 9.82193C51.7037 9.97391 52.2238 10.6813 51.9794 11.5933L55.478 12.5308C56.1782 9.91777 54.7968 7.0529 52.074 6.32332L51.1365 9.82193ZM49.5209 10.9346C49.7653 10.0225 50.5694 9.66996 51.1365 9.82193L52.074 6.32332C49.3512 5.59373 46.7224 7.38411 46.0223 9.9971L49.5209 10.9346ZM50.3638 12.7059C49.7966 12.554 49.2765 11.8466 49.5209 10.9346L46.0223 9.9971C45.3222 12.6101 46.7035 15.475 49.4263 16.2045L50.3638 12.7059ZM56.1123 25.293C58.8351 26.0226 61.4638 24.2322 62.1639 21.6192L58.6653 20.6818C58.421 21.5938 57.6169 21.9464 57.0497 21.7944L56.1123 25.293ZM52.7082 19.0856C52.0081 21.6986 53.3894 24.5634 56.1123 25.293L57.0497 21.7944C56.4825 21.6424 55.9625 20.9351 56.2068 20.023L52.7082 19.0856ZM58.7599 15.4118C56.0371 14.6822 53.4084 16.4726 52.7082 19.0856L56.2068 20.023C56.4512 19.111 57.2553 18.7584 57.8225 18.9104L58.7599 15.4118ZM62.1639 21.6192C62.8641 19.0062 61.4828 16.1414 58.7599 15.4118L57.8225 18.9104C58.3896 19.0624 58.9097 19.7698 58.6653 20.6818L62.1639 21.6192Z"  mask="url(#path-5-inside-2)"/>
</svg>
