<svg width="99" height="33" viewBox="0 0 99 33" fill="none" xmlns="http://www.w3.org/2000/svg">
<path d="M53.1598 32.1552C52.4593 32.1552 51.8111 31.9984 51.2151 31.6847C50.6296 31.3606 50.1591 30.9006 49.8036 30.3046C49.4586 29.6982 49.2861 28.9715 49.2861 28.1246C49.2861 27.581 49.3854 27.053 49.584 26.5406C49.7827 26.0283 50.0598 25.5683 50.4152 25.1605C50.7812 24.7423 51.2151 24.4129 51.717 24.1725C52.2188 23.932 52.773 23.8118 53.3794 23.8118C53.9649 23.8118 54.472 23.9006 54.9006 24.0784C55.3398 24.2561 55.6796 24.4914 55.9201 24.7841C56.1605 25.0769 56.2808 25.3958 56.2808 25.7408C56.2808 25.9708 56.218 26.1695 56.0926 26.3368C55.9671 26.4936 55.7841 26.572 55.5437 26.572C55.2823 26.5825 55.0941 26.504 54.9791 26.3368C54.8745 26.159 54.8222 26.0022 54.8222 25.8663C54.8222 25.7617 54.8379 25.6571 54.8693 25.5526C54.9006 25.4376 54.9634 25.333 55.0575 25.2389C54.9738 24.988 54.8275 24.805 54.6183 24.69C54.4092 24.5645 54.1897 24.4861 53.9597 24.4548C53.7401 24.4129 53.5571 24.392 53.4107 24.392C52.6998 24.392 52.0986 24.6796 51.6072 25.2546C51.1262 25.8192 50.8857 26.6452 50.8857 27.7326C50.8857 28.4331 50.9955 29.0552 51.2151 29.5989C51.4451 30.1425 51.764 30.5712 52.1718 30.8849C52.5795 31.1881 53.05 31.3397 53.5833 31.3397C54.0747 31.3397 54.5452 31.209 54.9947 30.9476C55.4443 30.6862 55.7946 30.3673 56.0455 29.9909L56.4533 30.3046C56.1814 30.7437 55.8521 31.0992 55.4652 31.3711C55.0888 31.6429 54.6968 31.8416 54.289 31.967C53.8917 32.0925 53.5153 32.1552 53.1598 32.1552ZM62.4172 31.9043C62.3858 31.7266 62.3649 31.5697 62.3545 31.4338C62.344 31.2979 62.3283 31.1567 62.3074 31.0104C61.9519 31.3658 61.5651 31.6481 61.1469 31.8572C60.7391 32.0559 60.3052 32.1552 59.8451 32.1552C59.0505 32.1552 58.4598 31.9775 58.0729 31.622C57.6861 31.2561 57.4927 30.8117 57.4927 30.2889C57.4927 29.808 57.639 29.395 57.9318 29.05C58.235 28.6945 58.6219 28.4069 59.0924 28.1874C59.5733 27.9574 60.0909 27.7901 60.645 27.6855C61.2096 27.5705 61.7533 27.5182 62.276 27.5287V26.5563C62.276 26.1904 62.2447 25.8453 62.1819 25.5212C62.1192 25.1971 61.9833 24.9305 61.7742 24.7214C61.5651 24.5123 61.2305 24.4025 60.7705 24.392C60.4672 24.3816 60.1536 24.4391 59.8295 24.5645C59.5158 24.69 59.2858 24.9044 59.1394 25.2076C59.223 25.2912 59.2753 25.3905 59.2962 25.5055C59.3276 25.6101 59.3433 25.7094 59.3433 25.8035C59.3433 25.929 59.291 26.0754 59.1865 26.2427C59.0819 26.3995 58.8989 26.4727 58.6375 26.4622C58.418 26.4622 58.2507 26.389 58.1357 26.2427C58.0207 26.0858 57.9632 25.9029 57.9632 25.6937C57.9632 25.3383 58.0939 25.0194 58.3552 24.7371C58.6271 24.4548 58.9983 24.23 59.4688 24.0627C59.9392 23.8954 60.4725 23.8118 61.0684 23.8118C61.9467 23.8118 62.5949 24.047 63.0132 24.5175C63.4314 24.9775 63.6353 25.7094 63.6248 26.7132C63.6248 27.2987 63.6196 27.8894 63.6091 28.4854C63.6091 29.0709 63.6091 29.6564 63.6091 30.2419C63.6091 30.4092 63.6039 30.5765 63.5934 30.7437C63.583 30.911 63.5673 31.0992 63.5464 31.3083C63.7346 31.2979 63.9176 31.2874 64.0953 31.277C64.2835 31.2665 64.4717 31.2561 64.6599 31.2456V31.9043H62.4172ZM62.276 28.0619C61.9206 28.0724 61.5442 28.1194 61.1469 28.2031C60.76 28.2762 60.3993 28.3913 60.0647 28.5481C59.7406 28.7049 59.474 28.914 59.2649 29.1754C59.0662 29.4263 58.9721 29.7348 58.9826 30.1007C59.0035 30.4876 59.1289 30.7803 59.359 30.979C59.5994 31.1672 59.8817 31.2613 60.2059 31.2613C60.6345 31.2613 61.0057 31.1829 61.3194 31.026C61.6435 30.8587 61.9624 30.6287 62.276 30.336C62.2656 30.221 62.2604 30.0955 62.2604 29.9596C62.2604 29.8237 62.2604 29.6825 62.2604 29.5361C62.2604 29.4839 62.2604 29.3166 62.2604 29.0343C62.2708 28.752 62.276 28.4278 62.276 28.0619ZM68.9512 32.1552C68.4284 32.1552 67.9632 32.082 67.5554 31.9357C67.1476 31.7997 66.8131 31.6429 66.5517 31.4652L66.6144 32.0141H65.9557L65.8616 29.3166H66.3478C66.3687 29.7452 66.489 30.1321 66.7085 30.4771C66.9281 30.8117 67.2104 31.0731 67.5554 31.2613C67.9004 31.4495 68.2716 31.5436 68.6689 31.5436C68.9408 31.5436 69.2074 31.5018 69.4688 31.4181C69.7302 31.324 69.9497 31.1881 70.1275 31.0104C70.3052 30.8222 70.3941 30.5869 70.3941 30.3046C70.3941 30.0119 70.3052 29.7714 70.1275 29.5832C69.9602 29.3845 69.7354 29.212 69.4531 29.0656C69.1708 28.9193 68.8676 28.7833 68.5435 28.6579C68.1252 28.4906 67.707 28.3128 67.2888 28.1246C66.881 27.926 66.5412 27.6698 66.2694 27.3562C65.9975 27.032 65.8616 26.6086 65.8616 26.0858C65.8616 25.8663 65.9034 25.6258 65.9871 25.3644C66.0707 25.103 66.2119 24.8573 66.4105 24.6273C66.6092 24.3868 66.881 24.1934 67.2261 24.047C67.5711 23.8902 68.0102 23.8118 68.5435 23.8118C68.8258 23.8118 69.1394 23.8588 69.4844 23.9529C69.8295 24.047 70.1641 24.2247 70.4882 24.4861L70.4568 23.8902H71.1155V26.6347H70.6136C70.5927 26.2688 70.5091 25.9185 70.3627 25.584C70.2163 25.2389 70.002 24.9566 69.7197 24.7371C69.4374 24.507 69.0715 24.392 68.6219 24.392C68.1409 24.392 67.7645 24.5123 67.4927 24.7527C67.2208 24.9932 67.0849 25.2703 67.0849 25.584C67.0849 25.9081 67.1842 26.1799 67.3829 26.3995C67.592 26.6086 67.8586 26.7916 68.1827 26.9484C68.5069 27.1052 68.8519 27.2568 69.2178 27.4032C69.6151 27.5705 70.002 27.7535 70.3784 27.9521C70.7548 28.1508 71.0632 28.4017 71.3037 28.7049C71.5442 28.9977 71.6644 29.3793 71.6644 29.8498C71.6644 30.3726 71.5285 30.8065 71.2567 31.1515C70.9953 31.4965 70.6555 31.7475 70.2372 31.9043C69.8295 32.0716 69.4008 32.1552 68.9512 32.1552ZM72.9958 31.4338C73.3199 31.4338 73.5447 31.3554 73.6702 31.1986C73.7956 31.0313 73.8688 30.8065 73.8897 30.5242C73.9106 30.2314 73.9211 29.8968 73.9211 29.5204V25.9447C73.9211 25.7774 73.9263 25.6206 73.9368 25.4742C73.9472 25.3173 73.9629 25.1344 73.9838 24.9253C73.7956 24.9357 73.6074 24.9462 73.4192 24.9566C73.2415 24.9671 73.0585 24.9775 72.8703 24.988V24.3293C73.3303 24.3293 73.6858 24.3084 73.9368 24.2666C74.1877 24.2247 74.3759 24.1725 74.5014 24.1097C74.6373 24.047 74.7418 23.979 74.815 23.9059H75.2698V30.2419C75.2698 30.451 75.2646 30.6392 75.2542 30.8065C75.2542 30.9633 75.2385 31.1306 75.2071 31.3083C75.3744 31.2979 75.5365 31.2927 75.6933 31.2927C75.8606 31.2822 76.0279 31.2717 76.1952 31.2613V31.9043H72.9958V31.4338ZM74.517 22.3532C74.2975 22.3532 74.1041 22.2643 73.9368 22.0866C73.7695 21.9089 73.6858 21.6893 73.6858 21.4279C73.6858 21.1665 73.7695 20.947 73.9368 20.7692C74.1145 20.581 74.3132 20.4869 74.5327 20.4869C74.7732 20.4869 74.9719 20.581 75.1287 20.7692C75.296 20.947 75.3796 21.1665 75.3796 21.4279C75.3796 21.6893 75.2908 21.9089 75.113 22.0866C74.9457 22.2643 74.7471 22.3532 74.517 22.3532ZM77.4067 31.9043V31.4338C77.7308 31.4338 77.9556 31.3554 78.0811 31.1986C78.2065 31.0313 78.2797 30.8065 78.3006 30.5242C78.3215 30.2314 78.332 29.8968 78.332 29.5204L78.3477 25.9447C78.3477 25.7774 78.3477 25.6101 78.3477 25.4428C78.3581 25.2755 78.379 25.103 78.4104 24.9253C78.2222 24.9357 78.034 24.9462 77.8458 24.9566C77.6681 24.9671 77.4851 24.9775 77.2969 24.988V24.3293C77.7569 24.3293 78.102 24.3084 78.332 24.2666C78.5725 24.2247 78.7502 24.1725 78.8652 24.1097C78.9802 24.047 79.0743 23.979 79.1475 23.9059H79.6023C79.6232 24.0209 79.6337 24.1568 79.6337 24.3136C79.6442 24.46 79.6546 24.643 79.6651 24.8625C79.9996 24.5593 80.3969 24.3084 80.857 24.1097C81.317 23.9111 81.7718 23.8118 82.2214 23.8118C83.1311 23.8118 83.795 24.0993 84.2132 24.6743C84.6314 25.2389 84.8405 26.1224 84.8405 27.3248V30.2419C84.8405 30.451 84.8353 30.6392 84.8248 30.8065C84.8248 30.9633 84.8092 31.1306 84.7778 31.3083C84.9451 31.2979 85.1071 31.2927 85.264 31.2927C85.4313 31.2822 85.5985 31.2717 85.7658 31.2613V31.9043H82.5665V31.4338C82.8906 31.4338 83.1154 31.3554 83.2408 31.1986C83.3663 31.0313 83.4395 30.8065 83.4604 30.5242C83.4813 30.2314 83.4918 29.8968 83.4918 29.5204V27.3248C83.4813 26.4256 83.3297 25.746 83.037 25.286C82.7547 24.8259 82.3051 24.6011 81.6882 24.6116C81.3118 24.6221 80.9406 24.7214 80.5747 24.9096C80.2192 25.0978 79.9212 25.3383 79.6807 25.631C79.6912 25.7147 79.6964 25.8088 79.6964 25.9133C79.6964 26.0179 79.6964 26.1276 79.6964 26.2427L79.6807 30.2419C79.6807 30.451 79.6755 30.6392 79.6651 30.8065C79.6651 30.9633 79.6494 31.1306 79.618 31.3083C79.7853 31.2979 79.9474 31.2927 80.1042 31.2927C80.2715 31.2822 80.4388 31.2717 80.6061 31.2613V31.9043H77.4067ZM90.8224 32.1552C90.0906 32.1552 89.4266 31.9879 88.8307 31.6534C88.2347 31.3083 87.759 30.8378 87.4035 30.2419C87.0585 29.6355 86.886 28.9454 86.886 28.1717C86.886 27.3457 87.0585 26.6034 87.4035 25.9447C87.7485 25.286 88.219 24.7684 88.815 24.392C89.411 24.0052 90.0801 23.8118 90.8224 23.8118C91.5543 23.8118 92.2183 23.9895 92.8142 24.345C93.4102 24.69 93.8859 25.1605 94.2414 25.7565C94.5969 26.3524 94.7746 27.032 94.7746 27.7953C94.7746 28.6004 94.5969 29.3375 94.2414 30.0066C93.8964 30.6653 93.4259 31.1881 92.8299 31.5749C92.2339 31.9618 91.5648 32.1552 90.8224 32.1552ZM90.9479 31.5279C91.5021 31.5279 91.9412 31.3711 92.2653 31.0574C92.5894 30.7437 92.8194 30.336 92.9554 29.8341C93.1017 29.3322 93.1749 28.8042 93.1749 28.2501C93.1749 27.7796 93.1279 27.3196 93.0338 26.87C92.9501 26.4099 92.8142 25.997 92.626 25.631C92.4378 25.2546 92.1921 24.9566 91.8889 24.7371C91.5962 24.5175 91.2407 24.4077 90.8224 24.4077C90.2788 24.4077 89.8344 24.5645 89.4894 24.8782C89.1443 25.1919 88.8882 25.5996 88.7209 26.1015C88.5641 26.6034 88.4856 27.1418 88.4856 27.7169C88.4856 28.3651 88.5745 28.982 88.7523 29.5675C88.93 30.1425 89.2018 30.613 89.5678 30.979C89.9337 31.3449 90.3938 31.5279 90.9479 31.5279Z" fill="#A2000C"/>
<path d="M50.6992 7.70779C50.6992 6.05979 50.9962 4.7607 51.5901 3.81051C52.1988 2.86031 53.238 2.38521 54.7079 2.38521C55.0345 2.38521 55.376 2.4446 55.7323 2.56338C56.1035 2.6673 56.4227 2.84546 56.6899 3.09786C56.9572 3.33541 57.0908 3.64719 57.0908 4.03321C57.0908 4.3153 57.0091 4.55285 56.8458 4.74585C56.6973 4.93886 56.4746 5.03537 56.1777 5.03537C55.8214 5.05021 55.569 4.94628 55.4205 4.72358C55.2869 4.48604 55.2201 4.2856 55.2201 4.12229C55.2201 4.03321 55.2275 3.94413 55.2424 3.85505C55.2572 3.76597 55.2869 3.66946 55.3314 3.56553C55.2275 3.43191 55.079 3.33541 54.886 3.27602C54.7079 3.21664 54.5371 3.18694 54.3738 3.18694C53.9136 3.18694 53.5572 3.32056 53.3049 3.5878C53.0525 3.85505 52.8743 4.1891 52.7704 4.58996C52.6664 4.99083 52.6145 5.40654 52.6145 5.83709V8.17546H55.621V9.044L52.6145 9.11081L52.6367 16.9499C52.6367 17.2468 52.6293 17.5141 52.6145 17.7516C52.6145 17.9743 52.5922 18.2119 52.5477 18.4643C52.7852 18.4494 53.0153 18.442 53.238 18.442C53.4756 18.4272 53.7131 18.4123 53.9507 18.3975V19.3105H49.4076V18.6424C49.8678 18.6424 50.187 18.5311 50.3652 18.3084C50.5434 18.0708 50.6473 17.7516 50.677 17.3508C50.7067 16.9351 50.7215 16.46 50.7215 15.9255L50.6992 9.13308L48.8731 9.17762V8.17546H50.6992V7.70779ZM62.2354 19.6669C61.1961 19.6669 60.2533 19.4293 59.4071 18.9542C58.5608 18.4643 57.8853 17.7962 57.3805 16.9499C56.8905 16.0888 56.6456 15.1089 56.6456 14.0102C56.6456 12.8374 56.8905 11.7832 57.3805 10.8479C57.8704 9.91253 58.5385 9.17762 59.3848 8.64313C60.2311 8.0938 61.1812 7.81914 62.2354 7.81914C63.2746 7.81914 64.2174 8.07153 65.0637 8.57632C65.9099 9.06627 66.5855 9.73437 67.0903 10.5806C67.5951 11.4269 67.8475 12.3919 67.8475 13.4758C67.8475 14.619 67.5951 15.6657 67.0903 16.6159C66.6003 17.5512 65.9322 18.2935 65.0859 18.8429C64.2397 19.3922 63.2895 19.6669 62.2354 19.6669ZM62.4135 18.7761C63.2004 18.7761 63.824 18.5534 64.2842 18.108C64.7445 17.6626 65.0711 17.0835 65.2641 16.3709C65.472 15.6582 65.5759 14.9085 65.5759 14.1216C65.5759 13.4535 65.5091 12.8002 65.3755 12.1618C65.2567 11.5086 65.0637 10.9221 64.7964 10.4025C64.5292 9.86799 64.1803 9.44486 63.7497 9.13308C63.334 8.8213 62.8292 8.6654 62.2354 8.6654C61.4633 8.6654 60.8323 8.88811 60.3424 9.33351C59.8525 9.77891 59.4887 10.3579 59.2512 11.0706C59.0285 11.7832 58.9171 12.5478 58.9171 13.3644C58.9171 14.2849 59.0433 15.1609 59.2957 15.9923C59.5481 16.8089 59.9341 17.477 60.4538 17.9966C60.9734 18.5162 61.6266 18.7761 62.4135 18.7761ZM75.2625 19.6669C74.2233 19.6669 73.2805 19.4293 72.4342 18.9542C71.588 18.4643 70.9124 17.7962 70.4076 16.9499C69.9177 16.0888 69.6727 15.1089 69.6727 14.0102C69.6727 12.8374 69.9177 11.7832 70.4076 10.8479C70.8976 9.91253 71.5657 9.17762 72.412 8.64313C73.2582 8.0938 74.2084 7.81914 75.2625 7.81914C76.3018 7.81914 77.2446 8.07153 78.0909 8.57632C78.9371 9.06627 79.6127 9.73437 80.1174 10.5806C80.6222 11.4269 80.8746 12.3919 80.8746 13.4758C80.8746 14.619 80.6222 15.6657 80.1174 16.6159C79.6275 17.5512 78.9594 18.2935 78.1131 18.8429C77.2669 19.3922 76.3167 19.6669 75.2625 19.6669ZM75.4407 18.7761C76.2276 18.7761 76.8512 18.5534 77.3114 18.108C77.7717 17.6626 78.0983 17.0835 78.2913 16.3709C78.4991 15.6582 78.6031 14.9085 78.6031 14.1216C78.6031 13.4535 78.5363 12.8002 78.4026 12.1618C78.2839 11.5086 78.0909 10.9221 77.8236 10.4025C77.5564 9.86799 77.2075 9.44486 76.7769 9.13308C76.3612 8.8213 75.8564 8.6654 75.2625 8.6654C74.4905 8.6654 73.8595 8.88811 73.3696 9.33351C72.8796 9.77891 72.5159 10.3579 72.2783 11.0706C72.0556 11.7832 71.9443 12.5478 71.9443 13.3644C71.9443 14.2849 72.0705 15.1609 72.3229 15.9923C72.5753 16.8089 72.9613 17.477 73.4809 17.9966C74.0006 18.5162 74.6538 18.7761 75.4407 18.7761ZM87.5325 19.6669C86.6269 19.6669 85.8103 19.4442 85.0828 18.9988C84.3553 18.5385 83.7763 17.8853 83.3458 17.039C82.93 16.1927 82.7222 15.198 82.7222 14.0548C82.7222 12.8373 82.9672 11.761 83.4571 10.8256C83.947 9.89026 84.6226 9.15535 85.4837 8.62086C86.3597 8.08638 87.347 7.81914 88.4456 7.81914C88.9356 7.81914 89.4181 7.88595 89.8932 8.01957C90.3831 8.13834 90.7691 8.27939 91.0512 8.4427V5.39169C91.0512 5.15414 91.0512 4.93144 91.0512 4.72358C91.0661 4.50088 91.0884 4.24106 91.118 3.94413C90.8508 3.95897 90.5836 3.97382 90.3163 3.98867C90.0639 4.00351 89.8041 4.01836 89.5369 4.03321V3.09786C90.1901 3.09786 90.6949 3.06817 91.0512 3.00878C91.4076 2.94939 91.6748 2.87516 91.853 2.78608C92.046 2.697 92.1944 2.60049 92.2984 2.49657H92.9442V16.9499C92.9442 17.1875 92.9368 17.425 92.9219 17.6626C92.9071 17.9001 92.8848 18.1673 92.8551 18.4643C93.1224 18.4494 93.3822 18.4346 93.6346 18.4197C93.9018 18.4049 94.1691 18.39 94.4363 18.3752V19.3105H91.2517C91.1774 18.9097 91.1255 18.5237 91.0958 18.1525C90.6801 18.6127 90.1679 18.9839 89.5591 19.266C88.9504 19.5332 88.2749 19.6669 87.5325 19.6669ZM88.3343 18.5756C88.8242 18.5756 89.3142 18.4346 89.8041 18.1525C90.3089 17.8704 90.7246 17.5215 91.0512 17.1058C91.0364 16.9276 91.029 16.7421 91.029 16.549C91.029 16.3412 91.029 16.1185 91.029 15.8809L91.0512 9.46713C90.6949 9.19989 90.3015 9.00688 89.8709 8.88811C89.4552 8.75448 89.0246 8.68767 88.5792 8.68767C87.8369 8.68767 87.1911 8.90295 86.6417 9.33351C86.0924 9.76407 85.6767 10.3654 85.3946 11.1374C85.1125 11.9094 84.9863 12.8151 85.016 13.8544C85.0457 14.76 85.1868 15.5692 85.4392 16.2818C85.7064 16.9944 86.0776 17.5586 86.5527 17.9743C87.0426 18.3752 87.6365 18.5756 88.3343 18.5756Z" fill="#A2000C"/>
<mask id="path-3-inside-1" fill="white">
<path fill-rule="evenodd" clip-rule="evenodd" d="M0 18.4883L14.5062 10.1131L22.8814 24.6193L12.005 30.8988C11.9612 30.7143 11.8898 30.532 11.7893 30.358C11.2684 29.4558 10.1636 29.1185 9.32151 29.6047C8.98187 29.8007 8.73686 30.1009 8.59959 30.4484C8.41097 30.3982 8.21618 30.3788 8.02303 30.3925C7.99504 30.1246 7.91051 29.8553 7.7651 29.6035C7.35575 28.8945 6.58574 28.5344 5.86606 28.6486L0 18.4883ZM12.9001 20.711C13.421 21.6132 13.1606 22.7387 12.3186 23.2248C11.4765 23.711 10.3716 23.3737 9.85075 22.4715C9.32986 21.5693 9.59022 20.4438 10.4323 19.9577C11.2743 19.4715 12.3792 19.8088 12.9001 20.711Z"/>
</mask>
<path fill-rule="evenodd" clip-rule="evenodd" d="M0 18.4883L14.5062 10.1131L22.8814 24.6193L12.005 30.8988C11.9612 30.7143 11.8898 30.532 11.7893 30.358C11.2684 29.4558 10.1636 29.1185 9.32151 29.6047C8.98187 29.8007 8.73686 30.1009 8.59959 30.4484C8.41097 30.3982 8.21618 30.3788 8.02303 30.3925C7.99504 30.1246 7.91051 29.8553 7.7651 29.6035C7.35575 28.8945 6.58574 28.5344 5.86606 28.6486L0 18.4883ZM12.9001 20.711C13.421 21.6132 13.1606 22.7387 12.3186 23.2248C11.4765 23.711 10.3716 23.3737 9.85075 22.4715C9.32986 21.5693 9.59022 20.4438 10.4323 19.9577C11.2743 19.4715 12.3792 19.8088 12.9001 20.711Z" fill="#A2000C"/>
<path d="M14.5062 10.1131L15.4017 9.59613L14.8847 8.70069L13.9892 9.21767L14.5062 10.1131ZM0 18.4883L-0.516985 17.5928L-1.41243 18.1098L-0.895445 19.0053L0 18.4883ZM22.8814 24.6193L23.3984 25.5148L24.2938 24.9978L23.7768 24.1023L22.8814 24.6193ZM12.005 30.8988L10.999 31.1375L11.3195 32.4885L12.522 31.7942L12.005 30.8988ZM8.59959 30.4484L8.33394 31.4476L9.22319 31.684L9.56125 30.8282L8.59959 30.4484ZM8.02303 30.3925L6.99465 30.4999L7.09855 31.4947L8.09622 31.4239L8.02303 30.3925ZM5.86606 28.6486L4.97061 29.1656L5.32605 29.7812L6.02815 29.6698L5.86606 28.6486ZM13.9892 9.21767L-0.516985 17.5928L0.516985 19.3837L15.0232 11.0086L13.9892 9.21767ZM23.7768 24.1023L15.4017 9.59613L13.6108 10.6301L21.9859 25.1363L23.7768 24.1023ZM12.522 31.7942L23.3984 25.5148L22.3644 23.7239L11.488 30.0034L12.522 31.7942ZM10.8939 30.8749C10.9439 30.9616 10.9782 31.0501 10.999 31.1375L13.011 30.6601C12.9442 30.3786 12.8357 30.1024 12.6848 29.841L10.8939 30.8749ZM9.83849 30.5001C10.1288 30.3325 10.6244 30.4081 10.8939 30.8749L12.6848 29.841C11.9125 28.5034 10.1983 27.9045 8.80452 28.7092L9.83849 30.5001ZM9.56125 30.8282C9.61815 30.6842 9.71339 30.5723 9.83849 30.5001L8.80452 28.7092C8.25035 29.0292 7.85558 29.5175 7.63793 30.0685L9.56125 30.8282ZM8.09622 31.4239C8.17162 31.4185 8.25196 31.4258 8.33394 31.4476L8.86524 29.4491C8.56997 29.3706 8.26075 29.3391 7.94984 29.3611L8.09622 31.4239ZM6.86965 30.1205C6.94189 30.2456 6.98161 30.3751 6.99465 30.4999L9.0514 30.2851C9.00847 29.8741 8.87914 29.4651 8.66054 29.0865L6.86965 30.1205ZM6.02815 29.6698C6.30383 29.626 6.66353 29.7634 6.86965 30.1205L8.66054 29.0865C8.04798 28.0255 6.86765 27.4427 5.70396 27.6274L6.02815 29.6698ZM-0.895445 19.0053L4.97061 29.1656L6.7615 28.1316L0.895445 17.9713L-0.895445 19.0053ZM12.8356 24.1203C14.2293 23.3156 14.5678 21.5315 13.7955 20.194L12.0047 21.228C12.2742 21.6948 12.0919 22.1618 11.8016 22.3294L12.8356 24.1203ZM8.9553 22.9885C9.72754 24.3261 11.4418 24.925 12.8356 24.1203L11.8016 22.3294C11.5113 22.497 11.0157 22.4214 10.7462 21.9545L8.9553 22.9885ZM9.91529 19.0622C8.52151 19.8669 8.18307 21.651 8.9553 22.9885L10.7462 21.9545C10.4767 21.4877 10.6589 21.0207 10.9493 20.8531L9.91529 19.0622ZM13.7955 20.194C13.0233 18.8564 11.3091 18.2575 9.91529 19.0622L10.9493 20.8531C11.2396 20.6855 11.7351 20.7611 12.0047 21.228L13.7955 20.194Z" fill="#A2000C" mask="url(#path-3-inside-1)"/>
<mask id="path-5-inside-2" fill="white">
<path fill-rule="evenodd" clip-rule="evenodd" d="M29.6393 0C29.5587 0.505873 29.2724 0.961538 28.8129 1.22683C28.412 1.4583 27.9515 1.50311 27.5228 1.38914C27.3855 1.73666 27.1405 2.03676 26.8008 2.23285C25.9588 2.71901 24.8539 2.38175 24.333 1.47954C24.1876 1.22766 24.1031 0.958378 24.0751 0.69046C23.9283 0.700872 23.7806 0.692172 23.6354 0.665397L19.8687 14.7232L36.0482 19.0585L40.3835 2.8789L29.6393 0ZM28.3723 8.25296C29.3115 8.50461 30.2914 7.89287 30.5611 6.8866C30.8307 5.88032 30.2879 4.86057 29.3487 4.60891C28.4095 4.35725 27.4296 4.969 27.16 5.97527C26.8903 6.98155 27.4331 8.0013 28.3723 8.25296ZM34.3781 12.0755C34.1085 13.0818 33.1285 13.6935 32.1894 13.4419C31.2502 13.1902 30.7074 12.1705 30.977 11.1642C31.2466 10.1579 32.2266 9.54617 33.1658 9.79783C34.105 10.0495 34.6478 11.0692 34.3781 12.0755Z"/>
</mask>
<path fill-rule="evenodd" clip-rule="evenodd" d="M29.6393 0C29.5587 0.505873 29.2724 0.961538 28.8129 1.22683C28.412 1.4583 27.9515 1.50311 27.5228 1.38914C27.3855 1.73666 27.1405 2.03676 26.8008 2.23285C25.9588 2.71901 24.8539 2.38175 24.333 1.47954C24.1876 1.22766 24.1031 0.958378 24.0751 0.69046C23.9283 0.700872 23.7806 0.692172 23.6354 0.665397L19.8687 14.7232L36.0482 19.0585L40.3835 2.8789L29.6393 0ZM28.3723 8.25296C29.3115 8.50461 30.2914 7.89287 30.5611 6.8866C30.8307 5.88032 30.2879 4.86057 29.3487 4.60891C28.4095 4.35725 27.4296 4.969 27.16 5.97527C26.8903 6.98155 27.4331 8.0013 28.3723 8.25296ZM34.3781 12.0755C34.1085 13.0818 33.1285 13.6935 32.1894 13.4419C31.2502 13.1902 30.7074 12.1705 30.977 11.1642C31.2466 10.1579 32.2266 9.54617 33.1658 9.79783C34.105 10.0495 34.6478 11.0692 34.3781 12.0755Z" fill="#A2000C"/>
<path d="M29.6393 0L29.9069 -0.998739L28.7988 -1.29565L28.6182 -0.162781L29.6393 0ZM28.8129 1.22683L28.2959 0.331384V0.331384L28.8129 1.22683ZM27.5228 1.38914L27.7884 0.389881L26.8992 0.153475L26.5611 1.00927L27.5228 1.38914ZM26.8008 2.23285L26.2839 1.33741L26.2839 1.33741L26.8008 2.23285ZM24.333 1.47954L25.2285 0.962559L25.2285 0.962559L24.333 1.47954ZM24.0751 0.69046L25.1035 0.583065L24.9996 -0.411701L24.0019 -0.340918L24.0751 0.69046ZM23.6354 0.665397L23.8229 -0.351434L22.8838 -0.524584L22.6367 0.397785L23.6354 0.665397ZM19.8687 14.7232L18.8699 14.4556L18.6023 15.4543L19.601 15.7219L19.8687 14.7232ZM36.0482 19.0585L35.7806 20.0572L36.7794 20.3248L37.047 19.3261L36.0482 19.0585ZM40.3835 2.8789L41.3823 3.14651L41.6499 2.14777L40.6511 1.88016L40.3835 2.8789ZM29.3487 4.60891L29.0811 5.60765H29.0811L29.3487 4.60891ZM34.3781 12.0755L35.3769 12.3431V12.3431L34.3781 12.0755ZM30.977 11.1642L31.9757 11.4318V11.4318L30.977 11.1642ZM28.6182 -0.162781C28.5822 0.0635692 28.4618 0.235613 28.2959 0.331384L29.3299 2.12227C30.083 1.68746 30.5352 0.948177 30.6604 0.162781L28.6182 -0.162781ZM28.2959 0.331384C28.1498 0.415749 27.9735 0.439075 27.7884 0.389881L27.2571 2.38841C27.9294 2.56714 28.6741 2.50086 29.3299 2.12227L28.2959 0.331384ZM27.3178 3.1283C27.872 2.80834 28.2668 2.32001 28.4844 1.76902L26.5611 1.00927C26.5042 1.15331 26.409 1.26518 26.2839 1.33741L27.3178 3.1283ZM23.4376 1.99653C24.2098 3.33408 25.924 3.933 27.3178 3.1283L26.2839 1.33741C25.9935 1.50503 25.498 1.42941 25.2285 0.962559L23.4376 1.99653ZM23.0467 0.797854C23.0896 1.20888 23.219 1.61788 23.4376 1.99653L25.2285 0.962559C25.1562 0.837442 25.1165 0.707878 25.1035 0.583065L23.0467 0.797854ZM23.4479 1.68223C23.6768 1.72442 23.9121 1.7386 24.1483 1.72184L24.0019 -0.340918C23.9446 -0.336853 23.8845 -0.340079 23.8229 -0.351434L23.4479 1.68223ZM20.8674 14.9908L24.6342 0.933008L22.6367 0.397785L18.8699 14.4556L20.8674 14.9908ZM36.3158 18.0597L20.1363 13.7244L19.601 15.7219L35.7806 20.0572L36.3158 18.0597ZM39.3848 2.61129L35.0495 18.7909L37.047 19.3261L41.3823 3.14651L39.3848 2.61129ZM29.3717 0.998739L40.1159 3.87764L40.6511 1.88016L29.9069 -0.998739L29.3717 0.998739ZM29.5623 6.61899C29.4228 7.13969 28.9637 7.34099 28.6399 7.25422L28.1047 9.2517C29.6593 9.66824 31.1601 8.64605 31.5598 7.15421L29.5623 6.61899ZM29.0811 5.60765C29.4049 5.69442 29.7019 6.09828 29.5623 6.61899L31.5598 7.15421C31.9595 5.66236 31.1709 4.02671 29.6163 3.61017L29.0811 5.60765ZM28.1587 6.24288C28.2982 5.72218 28.7573 5.52088 29.0811 5.60765L29.6163 3.61017C28.0618 3.19363 26.561 4.21582 26.1612 5.70766L28.1587 6.24288ZM28.6399 7.25422C28.3161 7.16745 28.0192 6.76359 28.1587 6.24288L26.1612 5.70766C25.7615 7.19951 26.5501 8.83515 28.1047 9.2517L28.6399 7.25422ZM31.9217 14.4406C33.4763 14.8572 34.9771 13.835 35.3769 12.3431L33.3794 11.8079C33.2399 12.3286 32.7808 12.5299 32.457 12.4431L31.9217 14.4406ZM29.9783 10.8966C29.5785 12.3884 30.3672 14.0241 31.9217 14.4406L32.457 12.4431C32.1331 12.3564 31.8362 11.9525 31.9757 11.4318L29.9783 10.8966ZM33.4334 8.79909C31.8788 8.38254 30.378 9.40473 29.9783 10.8966L31.9757 11.4318C32.1153 10.9111 32.5743 10.7098 32.8982 10.7966L33.4334 8.79909ZM35.3769 12.3431C35.7766 10.8513 34.9879 9.21563 33.4334 8.79909L32.8982 10.7966C33.222 10.8833 33.5189 11.2872 33.3794 11.8079L35.3769 12.3431Z" fill="#A2000C" mask="url(#path-5-inside-2)"/>
</svg>
