<svg width="90" height="97" viewBox="0 0 90 97" fill="none" xmlns="http://www.w3.org/2000/svg">
<path d="M11.1036 95.7416C9.87834 95.7416 8.75367 95.4673 7.72957 94.9187C6.70548 94.3518 5.88255 93.5471 5.26077 92.5048C4.65729 91.4624 4.35555 90.2006 4.35555 88.7193C4.35555 87.7318 4.52014 86.79 4.84931 85.8939C5.19677 84.9795 5.69053 84.1657 6.33059 83.4525C6.97065 82.7393 7.72043 82.1815 8.57994 81.7792C9.45773 81.3586 10.427 81.1483 11.4876 81.1483C12.5666 81.1483 13.481 81.3129 14.2307 81.6421C14.9988 81.9712 15.5932 82.401 16.0138 82.9313C16.4344 83.4616 16.6447 84.0377 16.6447 84.6595C16.6447 85.0984 16.5167 85.4824 16.2606 85.8116C16.0046 86.1408 15.6389 86.3053 15.1634 86.3053C14.6148 86.3236 14.2307 86.1682 14.0113 85.839C13.8101 85.4915 13.7095 85.1715 13.7095 84.8789C13.7095 84.7143 13.737 84.5315 13.7918 84.3303C13.8467 84.1291 13.9473 83.9371 14.0936 83.7542C13.9473 83.3702 13.7095 83.0868 13.3804 82.9039C13.0512 82.721 12.7129 82.6021 12.3654 82.5473C12.018 82.4924 11.7254 82.465 11.4876 82.465C10.3721 82.4833 9.4303 82.9679 8.66223 83.9188C7.91245 84.8515 7.53756 86.2048 7.53756 87.9786C7.53756 89.1125 7.70214 90.1274 8.03131 91.0235C8.37878 91.9196 8.87253 92.6328 9.51259 93.1631C10.1709 93.6934 10.9664 93.9678 11.8991 93.986C12.722 93.986 13.5175 93.7757 14.2856 93.3551C15.0537 92.9162 15.6754 92.3676 16.1509 91.7093L17.0287 92.4773C16.2241 93.6843 15.2731 94.5347 14.1759 95.0284C13.0969 95.5039 12.0728 95.7416 11.1036 95.7416ZM26.9969 95.3027C26.9603 95.0101 26.9329 94.7541 26.9146 94.5347C26.8963 94.3152 26.8689 94.0866 26.8323 93.8489C25.5705 95.1107 24.1624 95.7416 22.6079 95.7416C21.2912 95.7416 20.2946 95.4216 19.6179 94.7815C18.9596 94.1232 18.6304 93.3094 18.6304 92.3402C18.6304 91.499 18.8773 90.7675 19.3711 90.1457C19.8648 89.5239 20.514 89.021 21.3187 88.637C22.1233 88.2347 23.0011 87.9421 23.9521 87.7592C24.903 87.558 25.8357 87.4574 26.75 87.4574V85.839C26.75 85.2538 26.6952 84.7143 26.5854 84.2206C26.4757 83.7085 26.2471 83.2971 25.8997 82.9862C25.5522 82.657 25.031 82.4924 24.3361 82.4924C23.8606 82.4741 23.3852 82.5656 22.9097 82.7667C22.4342 82.9496 22.0685 83.2605 21.8124 83.6994C21.9587 83.8457 22.0502 84.0194 22.0867 84.2206C22.1416 84.4034 22.169 84.5772 22.169 84.7418C22.169 84.9978 22.0593 85.2904 21.8399 85.6196C21.6204 85.9304 21.2455 86.0767 20.7152 86.0585C20.2763 86.0585 19.938 85.9122 19.7002 85.6196C19.4808 85.3087 19.3711 84.9521 19.3711 84.5497C19.3711 83.8914 19.6088 83.3062 20.0843 82.7942C20.578 82.2821 21.2364 81.8798 22.0593 81.5872C22.9005 81.2946 23.8515 81.1483 24.9121 81.1483C26.4849 81.1483 27.6553 81.5598 28.4233 82.3827C29.2097 83.2056 29.6029 84.504 29.6029 86.2779C29.6029 87.2837 29.5937 88.2255 29.5754 89.1033C29.5754 89.9628 29.5754 90.8955 29.5754 91.9013C29.5754 92.1756 29.5663 92.4865 29.548 92.8339C29.5297 93.1814 29.5023 93.5471 29.4657 93.9312C29.7766 93.9129 30.0966 93.8946 30.4258 93.8763C30.755 93.858 31.0659 93.8489 31.3585 93.8489V95.3027H26.9969ZM26.75 88.7193C25.9637 88.7558 25.1682 88.893 24.3635 89.1307C23.5772 89.3502 22.9188 89.6976 22.3885 90.1731C21.8764 90.6303 21.6296 91.2338 21.6478 91.9836C21.6844 92.6053 21.8947 93.0625 22.2788 93.3551C22.6628 93.6477 23.1017 93.794 23.5955 93.794C24.2355 93.794 24.8024 93.6752 25.2962 93.4374C25.7899 93.1814 26.2746 92.8339 26.75 92.395C26.7317 92.1939 26.7226 91.9927 26.7226 91.7916C26.7226 91.5721 26.7226 91.3435 26.7226 91.1058C26.7226 90.9412 26.7226 90.6394 26.7226 90.2006C26.7409 89.7617 26.75 89.2679 26.75 88.7193ZM38.9721 95.7416C38.0943 95.7416 37.2896 95.6228 36.5581 95.385C35.8449 95.1656 35.2689 94.9004 34.83 94.5895L34.9123 95.4948H33.4584L33.3213 90.7766H34.4734C34.51 91.4715 34.7203 92.0933 35.1043 92.6419C35.4883 93.1723 35.9821 93.5929 36.5856 93.9037C37.2073 94.2146 37.8748 94.3701 38.588 94.3701C39.0087 94.3701 39.4201 94.3061 39.8224 94.1781C40.2248 94.0318 40.5631 93.8215 40.8374 93.5471C41.1117 93.2545 41.2489 92.8979 41.2489 92.4773C41.2306 91.7824 40.9105 91.2612 40.2888 90.9138C39.6853 90.548 38.9264 90.1823 38.012 89.8165C37.2805 89.5422 36.549 89.2313 35.8175 88.8839C35.086 88.5364 34.4734 88.0884 33.9796 87.5397C33.5041 86.9728 33.2664 86.2139 33.2664 85.263C33.2664 84.696 33.4127 84.0926 33.7053 83.4525C33.9979 82.8124 34.5008 82.273 35.214 81.8341C35.9272 81.3769 36.8873 81.1483 38.0943 81.1483C38.588 81.1483 39.1458 81.2306 39.7676 81.3952C40.3894 81.5598 40.9563 81.8432 41.4683 82.2455L41.4409 81.2854H42.8947V86.1133H41.7152C41.6603 85.4733 41.4866 84.8789 41.194 84.3303C40.9197 83.7817 40.5265 83.3336 40.0145 82.9862C39.5024 82.6387 38.8806 82.465 38.1491 82.465C37.4177 82.465 36.8325 82.6479 36.3936 83.0136C35.9547 83.3611 35.7352 83.8 35.7352 84.3303C35.7352 84.8606 35.8998 85.2904 36.229 85.6196C36.5764 85.9487 37.0245 86.2322 37.5731 86.4699C38.1217 86.7077 38.7161 86.9454 39.3561 87.1831C40.1242 87.494 40.8465 87.8323 41.5232 88.1981C42.1998 88.5638 42.7484 89.021 43.169 89.5696C43.5896 90.1183 43.7999 90.8132 43.7999 91.6544C43.7999 92.5871 43.5622 93.3551 43.0867 93.9586C42.6296 94.5621 42.0261 95.0101 41.2763 95.3027C40.5448 95.5953 39.7767 95.7416 38.9721 95.7416ZM46.0144 94.1506C46.563 94.1506 46.947 94.0226 47.1665 93.7666C47.3859 93.5106 47.5139 93.154 47.5505 92.6968C47.6054 92.2396 47.6328 91.7093 47.6328 91.1058V85.4275C47.6328 85.1167 47.6419 84.8058 47.6602 84.4949C47.6785 84.184 47.706 83.8365 47.7425 83.4525C47.4316 83.4525 47.1025 83.4708 46.755 83.5074C46.4075 83.5257 46.0875 83.5348 45.7949 83.5348V82.081C47.0202 82.081 47.8888 81.9987 48.4009 81.8341C48.9129 81.6695 49.2695 81.4958 49.4707 81.3129H50.5131V91.9013C50.5131 92.2305 50.5039 92.5688 50.4856 92.9162C50.4673 93.2454 50.4399 93.5837 50.4033 93.9312C50.6777 93.9129 50.9703 93.9037 51.2811 93.9037C51.592 93.8855 51.8755 93.8672 52.1315 93.8489V95.3027H46.0144V94.1506ZM48.9495 78.7892C48.474 78.7892 48.0717 78.6155 47.7425 78.268C47.4134 77.9023 47.2488 77.4634 47.2488 76.9513C47.2488 76.4393 47.4225 76.0095 47.77 75.6621C48.1174 75.2963 48.5106 75.1135 48.9495 75.1135C49.425 75.1135 49.8181 75.2963 50.129 75.6621C50.4582 76.0095 50.6228 76.4393 50.6228 76.9513C50.6228 77.4634 50.4582 77.9023 50.129 78.268C49.7999 78.6155 49.4067 78.7892 48.9495 78.7892ZM54.1312 95.3027V94.1506C54.6798 94.1506 55.0638 94.0226 55.2833 93.7666C55.5027 93.5106 55.6307 93.154 55.6673 92.6968C55.7222 92.2396 55.7496 91.7093 55.7496 91.1058L55.777 85.4001C55.777 85.1075 55.777 84.7966 55.777 84.4675C55.7953 84.1383 55.8319 83.8 55.8868 83.4525C55.5576 83.4525 55.2193 83.4708 54.8718 83.5074C54.5244 83.5257 54.2135 83.5348 53.9392 83.5348V82.081C54.7621 82.081 55.4022 82.0444 55.8593 81.9712C56.3348 81.8981 56.6914 81.8066 56.9292 81.6969C57.1852 81.5689 57.3772 81.4409 57.5052 81.3129H58.4927C58.5293 81.5689 58.5476 81.8066 58.5476 82.0261C58.5476 82.2272 58.5659 82.5107 58.6024 82.8765C59.1876 82.401 59.8734 81.9987 60.6598 81.6695C61.4461 81.322 62.1959 81.1483 62.9091 81.1483C64.5367 81.1483 65.7071 81.6421 66.4203 82.6296C67.1518 83.6171 67.5176 85.1624 67.5176 87.2654V91.9013C67.5176 92.2305 67.5084 92.5688 67.4901 92.9162C67.4718 93.2454 67.4444 93.5837 67.4078 93.9312C67.7004 93.9129 67.993 93.9037 68.2856 93.9037C68.5965 93.8855 68.88 93.8672 69.136 93.8489V95.3027H63.0189V94.1506C63.5675 94.1506 63.9515 94.0226 64.171 93.7666C64.3904 93.5106 64.5184 93.154 64.555 92.6968C64.6099 92.2396 64.6373 91.7093 64.6373 91.1058V87.2654C64.619 85.8207 64.3904 84.7326 63.9515 84.0011C63.5126 83.2696 62.7903 82.913 61.7845 82.9313C61.1993 82.9313 60.6141 83.0776 60.0289 83.3702C59.462 83.6628 58.9956 84.0194 58.6299 84.44C58.6299 84.6412 58.6299 84.8515 58.6299 85.0709C58.6299 85.2721 58.6299 85.4733 58.6299 85.6744V91.9013C58.6299 92.2305 58.6207 92.5688 58.6024 92.9162C58.5842 93.2454 58.5567 93.5837 58.5202 93.9312C58.7945 93.9129 59.0871 93.9037 59.398 93.9037C59.7088 93.8855 59.9923 93.8672 60.2483 93.8489V95.3027H54.1312ZM77.8368 95.7416C76.5384 95.7416 75.368 95.449 74.3256 94.8638C73.2832 94.2786 72.4512 93.4649 71.8294 92.4225C71.2259 91.3618 70.9242 90.1457 70.9242 88.7741C70.9242 87.2929 71.2259 85.9853 71.8294 84.8515C72.4512 83.6994 73.2832 82.7942 74.3256 82.1358C75.368 81.4775 76.5292 81.1483 77.8094 81.1483C79.1078 81.1483 80.2782 81.45 81.3205 82.0535C82.3629 82.6387 83.1859 83.4616 83.7893 84.5223C84.4111 85.5647 84.722 86.7717 84.722 88.1432C84.722 89.6062 84.4203 90.9138 83.8168 92.0659C83.2133 93.1997 82.3904 94.0958 81.348 94.7541C80.3239 95.4125 79.1535 95.7416 77.8368 95.7416ZM78.0288 94.3701C78.9066 94.3701 79.5924 94.1049 80.0861 93.5746C80.5982 93.026 80.9639 92.3402 81.1834 91.5172C81.4028 90.676 81.5126 89.8074 81.5126 88.9113C81.5126 88.1249 81.4394 87.3569 81.2931 86.6071C81.1651 85.839 80.9548 85.1441 80.6622 84.5223C80.3696 83.9005 79.9856 83.4068 79.5101 83.041C79.0346 82.657 78.4586 82.4741 77.7819 82.4924C76.9041 82.4924 76.1909 82.7576 75.6423 83.2879C75.112 83.8183 74.7279 84.504 74.4902 85.3453C74.2525 86.1682 74.1336 87.046 74.1336 87.9786C74.1336 89.0576 74.2707 90.0817 74.5451 91.0509C74.8194 92.0201 75.24 92.8156 75.8069 93.4374C76.3921 94.0592 77.1327 94.3701 78.0288 94.3701Z" />
<path d="M7.24924 51.3703C7.24924 48.41 7.82054 46.1507 8.96314 44.5927C10.1317 43.0346 11.9625 42.2555 14.4554 42.2555C15.624 42.2555 16.6497 42.5282 17.5326 43.0735C18.4415 43.6189 18.8959 44.3589 18.8959 45.2938C18.8959 45.8651 18.7271 46.3455 18.3896 46.735C18.0779 47.1245 17.6235 47.3323 17.0262 47.3583C16.3511 47.3583 15.8577 47.1635 15.546 46.774C15.2604 46.3585 15.1176 45.943 15.1176 45.5275C15.1176 45.3977 15.1176 45.2548 15.1176 45.099C15.1435 44.9432 15.1955 44.7874 15.2734 44.6316C15.0916 44.4239 14.8579 44.281 14.5722 44.2031C14.3126 44.1252 14.0659 44.0863 13.8322 44.0863C13.157 44.0863 12.6376 44.281 12.2741 44.6706C11.9105 45.0601 11.6508 45.5535 11.495 46.1507C11.3392 46.748 11.2613 47.3583 11.2613 47.9815V52.3052H16.2472V54.3307L11.3003 54.4475L11.3392 66.9122C11.3392 67.3797 11.3262 67.8601 11.3003 68.3535C11.2743 68.8469 11.2353 69.3402 11.1834 69.8336C11.5989 69.8077 12.0274 69.7947 12.4688 69.7947C12.9363 69.7687 13.3517 69.7428 13.7153 69.7168V71.7812H4.95107V70.1453C5.73011 70.1453 6.27544 69.9635 6.58706 69.5999C6.89867 69.2364 7.08045 68.73 7.13239 68.0808C7.21029 67.4316 7.24924 66.6785 7.24924 65.8216V54.4865L4.17202 54.5644V52.3052H7.24924V51.3703ZM27.7682 72.4045C25.9245 72.4045 24.2625 71.989 22.7823 71.158C21.3021 70.327 20.1206 69.1715 19.2377 67.6913C18.3807 66.1851 17.9523 64.4582 17.9523 62.5106C17.9523 60.4072 18.3807 58.5505 19.2377 56.9405C20.1206 55.3045 21.3021 54.0191 22.7823 53.0842C24.2625 52.1494 25.9115 51.6819 27.7292 51.6819C29.573 51.6819 31.2349 52.1104 32.7151 52.9674C34.1953 53.7983 35.3639 54.9669 36.2208 56.4731C37.1037 57.9532 37.5452 59.6671 37.5452 61.6147C37.5452 63.6922 37.1167 65.5489 36.2598 67.1849C35.4028 68.7949 34.2343 70.0674 32.7541 71.0022C31.2999 71.9371 29.6379 72.4045 27.7682 72.4045ZM28.0409 70.4569C29.2873 70.4569 30.2611 70.0803 30.9623 69.3273C31.6894 68.5482 32.2087 67.5744 32.5204 66.4059C32.832 65.2113 32.9878 63.9778 32.9878 62.7054C32.9878 61.5888 32.8839 60.4981 32.6762 59.4334C32.4944 58.3428 32.1958 57.356 31.7803 56.4731C31.3648 55.5901 30.8194 54.889 30.1443 54.3696C29.4691 53.8243 28.6511 53.5646 27.6903 53.5906C26.4438 53.5906 25.4311 53.9671 24.652 54.7202C23.8989 55.4733 23.3536 56.4471 23.016 57.6416C22.6784 58.8102 22.5097 60.0567 22.5097 61.381C22.5097 62.9131 22.7044 64.3674 23.0939 65.7437C23.4835 67.12 24.0807 68.2496 24.8857 69.1325C25.7167 70.0154 26.7684 70.4569 28.0409 70.4569ZM50.3254 72.4045C48.4817 72.4045 46.8197 71.989 45.3396 71.158C43.8594 70.327 42.6778 69.1715 41.7949 67.6913C40.938 66.1851 40.5095 64.4582 40.5095 62.5106C40.5095 60.4072 40.938 58.5505 41.7949 56.9405C42.6778 55.3045 43.8594 54.0191 45.3396 53.0842C46.8197 52.1494 48.4687 51.6819 50.2865 51.6819C52.1302 51.6819 53.7922 52.1104 55.2724 52.9674C56.7525 53.7983 57.9211 54.9669 58.7781 56.4731C59.661 57.9532 60.1024 59.6671 60.1024 61.6147C60.1024 63.6922 59.674 65.5489 58.817 67.1849C57.9601 68.7949 56.7915 70.0674 55.3113 71.0022C53.8571 71.9371 52.1951 72.4045 50.3254 72.4045ZM50.5981 70.4569C51.8446 70.4569 52.8184 70.0803 53.5195 69.3273C54.2466 68.5482 54.766 67.5744 55.0776 66.4059C55.3892 65.2113 55.545 63.9778 55.545 62.7054C55.545 61.5888 55.4412 60.4981 55.2334 59.4334C55.0516 58.3428 54.753 57.356 54.3375 56.4731C53.922 55.5901 53.3767 54.889 52.7015 54.3696C52.0264 53.8243 51.2084 53.5646 50.2475 53.5906C49.0011 53.5906 47.9883 53.9671 47.2093 54.7202C46.4562 55.4733 45.9109 56.4471 45.5733 57.6416C45.2357 58.8102 45.0669 60.0567 45.0669 61.381C45.0669 62.9131 45.2617 64.3674 45.6512 65.7437C46.0407 67.12 46.638 68.2496 47.443 69.1325C48.274 70.0154 49.3257 70.4569 50.5981 70.4569ZM71.3246 72.4045C69.7405 72.4045 68.3253 72.002 67.0788 71.197C65.8583 70.392 64.8845 69.2623 64.1574 67.8081C63.4563 66.3279 63.1057 64.5881 63.1057 62.5885C63.1057 60.4592 63.5212 58.5765 64.3522 56.9405C65.2091 55.3045 66.3777 54.0191 67.8579 53.0842C69.338 52.1494 71.0519 51.6819 72.9995 51.6819C73.8046 51.6819 74.5706 51.7858 75.2977 51.9936C76.0508 52.1753 76.674 52.3961 77.1674 52.6557V48.2152C77.1674 47.8257 77.1674 47.3972 77.1674 46.9298C77.1934 46.4624 77.2453 45.956 77.3232 45.4106C76.8558 45.4366 76.3754 45.4626 75.882 45.4886C75.3886 45.5145 74.9471 45.5275 74.5576 45.5275V43.463C76.2975 43.463 77.531 43.3462 78.2581 43.1125C78.9852 42.8788 79.4916 42.6321 79.7772 42.3724H81.2184V66.9512C81.2184 67.3407 81.2055 67.7822 81.1795 68.2756C81.1535 68.769 81.1146 69.2883 81.0626 69.8336C81.5301 69.8077 81.9975 69.7817 82.4649 69.7557C82.9323 69.7298 83.3608 69.7168 83.7503 69.7168V71.7812H77.5569C77.505 71.4177 77.4531 71.0801 77.4011 70.7685C77.3752 70.4569 77.3492 70.1453 77.3232 69.8336C75.7132 71.5475 73.7137 72.4045 71.3246 72.4045ZM72.9216 69.9505C73.7266 69.9505 74.5057 69.7298 75.2588 69.2883C76.0378 68.8469 76.674 68.2885 77.1674 67.6134C77.1674 67.2758 77.1674 66.9252 77.1674 66.5617C77.1674 66.1981 77.1674 65.8086 77.1674 65.3931V54.7981C76.1287 54.045 74.8692 53.6685 73.3891 53.6685C72.1166 53.6685 71.0519 54.045 70.195 54.7981C69.338 55.5252 68.6888 56.538 68.2474 57.8364C67.8319 59.1088 67.6371 60.55 67.6631 62.1601C67.715 63.5883 67.9358 64.8997 68.3253 66.0942C68.7148 67.2628 69.2861 68.1977 70.0392 68.8988C70.8182 69.5999 71.779 69.9505 72.9216 69.9505Z" />
<mask id="path-3-inside-1" fill="white">
<path fill-rule="evenodd" clip-rule="evenodd" d="M18.6641 20.7891L34.9749 11.372L44.392 27.6828L32.1632 34.7431C32.114 34.5353 32.0336 34.3298 31.9204 34.1337C31.3347 33.1192 30.0924 32.74 29.1456 33.2867C28.7637 33.5071 28.4882 33.8446 28.3338 34.2353C28.1217 34.1789 27.9027 34.1571 27.6855 34.1725C27.6539 33.8716 27.5589 33.5691 27.3956 33.2861C26.9351 32.4886 26.0689 32.0837 25.2594 32.2126L18.6641 20.7891ZM33.1694 23.2878C33.7551 24.3022 33.4623 25.5677 32.5155 26.1144C31.5687 26.661 30.3264 26.2818 29.7407 25.2673C29.155 24.2529 29.4477 22.9874 30.3945 22.4408C31.3413 21.8941 32.5837 22.2733 33.1694 23.2878Z"/>
</mask>
<path fill-rule="evenodd" clip-rule="evenodd" d="M18.6641 20.7891L34.9749 11.372L44.392 27.6828L32.1632 34.7431C32.114 34.5353 32.0336 34.3298 31.9204 34.1337C31.3347 33.1192 30.0924 32.74 29.1456 33.2867C28.7637 33.5071 28.4882 33.8446 28.3338 34.2353C28.1217 34.1789 27.9027 34.1571 27.6855 34.1725C27.6539 33.8716 27.5589 33.5691 27.3956 33.2861C26.9351 32.4886 26.0689 32.0837 25.2594 32.2126L18.6641 20.7891ZM33.1694 23.2878C33.7551 24.3022 33.4623 25.5677 32.5155 26.1144C31.5687 26.661 30.3264 26.2818 29.7407 25.2673C29.155 24.2529 29.4477 22.9874 30.3945 22.4408C31.3413 21.8941 32.5837 22.2733 33.1694 23.2878Z" />
<path d="M34.9749 11.372L35.9817 10.7907L35.4004 9.78386L34.3936 10.3652L34.9749 11.372ZM18.6641 20.7891L18.0828 19.7822L17.0759 20.3635L17.6572 21.3704L18.6641 20.7891ZM44.392 27.6828L44.9733 28.6897L45.9801 28.1084L45.3988 27.1015L44.392 27.6828ZM32.1632 34.7431L31.0318 35.0108L31.3916 36.5311L32.7445 35.75L32.1632 34.7431ZM28.3338 34.2353L28.0351 35.3589L29.035 35.6247L29.4151 34.6625L28.3338 34.2353ZM27.6855 34.1725L26.5292 34.2937L26.6464 35.4118L27.7678 35.3322L27.6855 34.1725ZM25.2594 32.2126L24.2526 32.7939L24.6524 33.4864L25.4422 33.3607L25.2594 32.2126ZM34.3936 10.3652L18.0828 19.7822L19.2454 21.7959L35.5562 12.3788L34.3936 10.3652ZM45.3988 27.1015L35.9817 10.7907L33.9681 11.9533L43.3851 28.2641L45.3988 27.1015ZM32.7445 35.75L44.9733 28.6897L43.8107 26.676L31.5819 33.7363L32.7445 35.75ZM30.9135 34.715C30.9699 34.8126 31.0085 34.9124 31.0318 35.0108L33.2945 34.4754C33.2195 34.1581 33.0973 33.847 32.9272 33.5524L30.9135 34.715ZM29.7269 34.2935C30.0533 34.105 30.6105 34.1901 30.9135 34.715L32.9272 33.5524C32.0589 32.0484 30.1314 31.375 28.5643 32.2798L29.7269 34.2935ZM29.4151 34.6625C29.4791 34.5005 29.5862 34.3747 29.7269 34.2935L28.5643 32.2798C27.9411 32.6396 27.4973 33.1887 27.2525 33.8082L29.4151 34.6625ZM27.7678 35.3322C27.8526 35.3262 27.9429 35.3344 28.0351 35.3589L28.6325 33.1118C28.3005 33.0235 27.9528 32.988 27.6032 33.0129L27.7678 35.3322ZM26.3887 33.8674C26.4699 34.008 26.5145 34.1535 26.5292 34.2937L28.8418 34.0514C28.7934 33.5896 28.648 33.1302 28.4024 32.7048L26.3887 33.8674ZM25.4422 33.3607C25.7522 33.3114 26.1569 33.4658 26.3887 33.8674L28.4024 32.7048C27.7134 31.5114 26.3855 30.8561 25.0767 31.0644L25.4422 33.3607ZM17.6572 21.3704L24.2526 32.7939L26.2663 31.6313L19.6709 20.2078L17.6572 21.3704ZM33.0968 27.1212C34.664 26.2164 35.0445 24.2104 34.1762 22.7065L32.1625 23.8691C32.4656 24.394 32.2606 24.919 31.9342 25.1075L33.0968 27.1212ZM28.7338 25.8486C29.6021 27.3526 31.5296 28.026 33.0968 27.1212L31.9342 25.1075C31.6078 25.296 31.0506 25.211 30.7475 24.686L28.7338 25.8486ZM29.8132 21.4339C28.2461 22.3387 27.8655 24.3447 28.7338 25.8486L30.7475 24.686C30.4444 24.1611 30.6494 23.6361 30.9758 23.4476L29.8132 21.4339ZM34.1762 22.7065C33.3079 21.2025 31.3804 20.5291 29.8132 21.4339L30.9758 23.4476C31.3023 23.2591 31.8595 23.3441 32.1625 23.8691L34.1762 22.7065Z"  mask="url(#path-3-inside-1)"/>
<mask id="path-5-inside-2" fill="white">
<path fill-rule="evenodd" clip-rule="evenodd" d="M51.9916 0C51.9008 0.568528 51.579 1.08058 51.0625 1.37876C50.6117 1.63903 50.0939 1.68941 49.6119 1.56126C49.4575 1.95201 49.1821 2.28945 48.8002 2.50994C47.8533 3.05658 46.611 2.67735 46.0253 1.66291C45.8619 1.37991 45.7669 1.07736 45.7354 0.77634C45.5704 0.788024 45.4045 0.778236 45.2413 0.748148L41.0059 16.5549L59.1982 21.4295L64.0729 3.23715L51.9916 0ZM50.5674 9.2799C51.6234 9.56286 52.7253 8.87502 53.0285 7.74356C53.3316 6.6121 52.7213 5.46548 51.6653 5.18252C50.6093 4.89956 49.5074 5.5874 49.2042 6.71886C48.9011 7.85032 49.5114 8.99694 50.5674 9.2799ZM57.3204 13.5779C57.0172 14.7093 55.9153 15.3972 54.8593 15.1142C53.8033 14.8312 53.193 13.6846 53.4961 12.5532C53.7993 11.4217 54.9012 10.7339 55.9572 11.0168C57.0132 11.2998 57.6235 12.4464 57.3204 13.5779Z"/>
</mask>
<path fill-rule="evenodd" clip-rule="evenodd" d="M51.9916 0C51.9008 0.568528 51.579 1.08058 51.0625 1.37876C50.6117 1.63903 50.0939 1.68941 49.6119 1.56126C49.4575 1.95201 49.1821 2.28945 48.8002 2.50994C47.8533 3.05658 46.611 2.67735 46.0253 1.66291C45.8619 1.37991 45.7669 1.07736 45.7354 0.77634C45.5704 0.788024 45.4045 0.778236 45.2413 0.748148L41.0059 16.5549L59.1982 21.4295L64.0729 3.23715L51.9916 0ZM50.5674 9.2799C51.6234 9.56286 52.7253 8.87502 53.0285 7.74356C53.3316 6.6121 52.7213 5.46548 51.6653 5.18252C50.6093 4.89956 49.5074 5.5874 49.2042 6.71886C48.9011 7.85032 49.5114 8.99694 50.5674 9.2799ZM57.3204 13.5779C57.0172 14.7093 55.9153 15.3972 54.8593 15.1142C53.8033 14.8312 53.193 13.6846 53.4961 12.5532C53.7993 11.4217 54.9012 10.7339 55.9572 11.0168C57.0132 11.2998 57.6235 12.4464 57.3204 13.5779Z" />
<path d="M51.9916 0L52.2925 -1.12299L51.047 -1.45672L50.8436 -0.183415L51.9916 0ZM51.0625 1.37876L50.4812 0.371915V0.371915L51.0625 1.37876ZM49.6119 1.56126L49.9106 0.43769L48.9107 0.171874L48.5306 1.13413L49.6119 1.56126ZM48.8002 2.50994L48.2189 1.50309L48.2189 1.50309L48.8002 2.50994ZM46.0253 1.66291L45.0185 2.24421L45.0185 2.24421L46.0253 1.66291ZM45.7354 0.77634L46.8917 0.655224L46.7745 -0.462786L45.6532 -0.383354L45.7354 0.77634ZM45.2413 0.748148L45.4521 -0.395184L44.3962 -0.589852L44.1183 0.447244L45.2413 0.748148ZM41.0059 16.5549L39.8829 16.254L39.582 17.377L40.705 17.6779L41.0059 16.5549ZM59.1982 21.4295L58.8973 22.5525L60.0203 22.8534L60.3212 21.7304L59.1982 21.4295ZM64.0729 3.23715L65.1958 3.53806L65.4967 2.41507L64.3738 2.11417L64.0729 3.23715ZM53.0285 7.74356L51.9055 7.44265V7.44265L53.0285 7.74356ZM50.5674 9.2799L50.8683 8.15691H50.8683L50.5674 9.2799ZM51.6653 5.18252L51.3644 6.3055L51.6653 5.18252ZM49.2042 6.71886L50.3272 7.01976V7.01976L49.2042 6.71886ZM54.8593 15.1142L55.1602 13.9912H55.1602L54.8593 15.1142ZM57.3204 13.5779L58.4433 13.8788V13.8788L57.3204 13.5779ZM53.4961 12.5532L54.6191 12.8541V12.8541L53.4961 12.5532ZM55.9572 11.0168L56.2581 9.89383H56.2581L55.9572 11.0168ZM50.8436 -0.183415C50.803 0.0709424 50.6677 0.264272 50.4812 0.371915L51.6438 2.3856C52.4903 1.8969 52.9987 1.06611 53.1397 0.183415L50.8436 -0.183415ZM50.4812 0.371915C50.3169 0.466776 50.1187 0.493004 49.9106 0.43769L49.3132 2.68484C50.0692 2.88581 50.9065 2.81128 51.6438 2.3856L50.4812 0.371915ZM49.3815 3.51678C50.0046 3.15702 50.4485 2.60793 50.6932 1.9884L48.5306 1.13413C48.4666 1.29609 48.3595 1.42188 48.2189 1.50309L49.3815 3.51678ZM45.0185 2.24421C45.8868 3.74816 47.8143 4.42158 49.3815 3.51678L48.2189 1.50309C47.8924 1.69157 47.3352 1.60654 47.0322 1.08161L45.0185 2.24421ZM44.5791 0.897457C44.6275 1.35926 44.7729 1.81878 45.0185 2.24421L47.0322 1.08161C46.951 0.941033 46.9063 0.795464 46.8917 0.655224L44.5791 0.897457ZM45.0305 1.89148C45.2876 1.93889 45.5521 1.95484 45.8175 1.93603L45.6532 -0.383354C45.5888 -0.378793 45.5213 -0.382421 45.4521 -0.395184L45.0305 1.89148ZM42.1288 16.8558L46.3642 1.04905L44.1183 0.447244L39.8829 16.254L42.1288 16.8558ZM59.4991 20.3065L41.3068 15.4319L40.705 17.6779L58.8973 22.5525L59.4991 20.3065ZM62.9499 2.93625L58.0752 21.1286L60.3212 21.7304L65.1958 3.53806L62.9499 2.93625ZM51.6907 1.12299L63.772 4.36014L64.3738 2.11417L52.2925 -1.12299L51.6907 1.12299ZM51.9055 7.44265C51.7486 8.02814 51.2324 8.25447 50.8683 8.15691L50.2665 10.4029C52.0144 10.8712 53.702 9.72189 54.1514 8.04446L51.9055 7.44265ZM51.3644 6.3055C51.7285 6.40306 52.0623 6.85717 51.9055 7.44265L54.1514 8.04446C54.6009 6.36702 53.7141 4.52789 51.9662 4.05953L51.3644 6.3055ZM50.3272 7.01976C50.4841 6.43428 51.0003 6.20794 51.3644 6.3055L51.9662 4.05953C50.2182 3.59117 48.5307 4.74052 48.0812 6.41796L50.3272 7.01976ZM50.8683 8.15691C50.5042 8.05935 50.1703 7.60525 50.3272 7.01976L48.0812 6.41796C47.6318 8.09539 48.5185 9.93452 50.2665 10.4029L50.8683 8.15691ZM54.5584 16.2372C56.3064 16.7055 57.9939 15.5562 58.4433 13.8788L56.1974 13.2769C56.0405 13.8624 55.5243 14.0888 55.1602 13.9912L54.5584 16.2372ZM52.3732 12.2523C51.9237 13.9297 52.8104 15.7688 54.5584 16.2372L55.1602 13.9912C54.7961 13.8936 54.4622 13.4395 54.6191 12.8541L52.3732 12.2523ZM56.2581 9.89383C54.5101 9.42547 52.8226 10.5748 52.3732 12.2523L54.6191 12.8541C54.776 12.2686 55.2922 12.0422 55.6563 12.1398L56.2581 9.89383ZM58.4433 13.8788C58.8928 12.2013 58.0061 10.3622 56.2581 9.89383L55.6563 12.1398C56.0204 12.2374 56.3543 12.6915 56.1974 13.277L58.4433 13.8788Z"  mask="url(#path-5-inside-2)"/>
</svg>
