<svg width="21" height="23" viewBox="0 0 21 23" fill="none" xmlns="http://www.w3.org/2000/svg">
<path d="M16.2539 0.545914C12.4424 -0.181971 8.48429 -0.181971 4.67277 0.545914C2.98691 0.909856 0.861257 2.94793 0.494764 4.54928C-0.164922 7.67919 -0.164922 10.8819 0.494764 14.0118C0.934555 15.6131 3.06021 17.6512 4.67277 18.0152C4.74607 18.0152 4.81937 18.0879 4.81937 18.1607V22.7464C4.81937 22.9648 5.11257 23.1103 5.25916 22.892L7.45812 20.6355C7.45812 20.6355 9.21728 18.8158 9.51047 18.5247C9.51047 18.5247 9.58377 18.4519 9.65707 18.4519C11.856 18.5247 14.1283 18.3063 16.3272 17.9424C18.0131 17.5784 20.1387 15.5403 20.5052 13.939C21.1649 10.8091 21.1649 7.6064 20.5052 4.47649C20.0654 2.94793 17.9398 0.909856 16.2539 0.545914ZM16.3272 14.2302C15.9607 14.958 15.5209 15.5403 14.788 15.9043C14.5681 15.9771 14.3482 16.0499 14.1283 16.1227C13.8351 16.0499 13.6152 15.9771 13.3953 15.9043C11.0497 14.958 8.85079 13.6478 7.09162 11.7553C6.13874 10.6635 5.33246 9.42611 4.67277 8.11592C4.37958 7.46082 4.08639 6.87851 3.86649 6.22342C3.6466 5.64111 4.01309 5.0588 4.37958 4.62207C4.74607 4.18534 5.18586 3.89418 5.69895 3.67582C6.06544 3.45745 6.43194 3.60303 6.72513 3.89418C7.31152 4.62207 7.8979 5.34995 8.3377 6.15063C8.63089 6.66015 8.55759 7.24245 8.0445 7.6064C7.8979 7.67919 7.82461 7.75198 7.67801 7.89755C7.60471 7.97034 7.45811 8.04313 7.38481 8.1887C7.23822 8.40707 7.23822 8.62544 7.31152 8.8438C7.8979 10.5179 8.99738 11.8281 10.6832 12.556C10.9764 12.7016 11.1963 12.7744 11.5628 12.7744C12.0759 12.7016 12.2958 12.1193 12.6623 11.8281C13.0288 11.537 13.4686 11.537 13.9084 11.7553C14.2749 11.9737 14.6414 12.2649 15.0811 12.556C15.4476 12.8472 15.8141 13.0655 16.1806 13.3567C16.4005 13.5023 16.4738 13.8662 16.3272 14.2302ZM13.2487 8.77101C13.1021 8.77101 13.1754 8.77101 13.2487 8.77101C12.9555 8.77101 12.8822 8.62544 12.8089 8.40707C12.8089 8.26149 12.8089 8.04313 12.7356 7.89755C12.6623 7.6064 12.5157 7.31524 12.2225 7.09688C12.0759 7.02409 11.9293 6.9513 11.7827 6.87851C11.5628 6.80572 11.4162 6.80572 11.1963 6.80572C10.9764 6.73294 10.9031 6.58736 10.9031 6.36899C10.9031 6.22342 11.123 6.07784 11.2696 6.07784C12.4424 6.15063 13.322 6.80572 13.4686 8.1887C13.4686 8.26149 13.4686 8.40707 13.4686 8.47986C13.4686 8.62544 13.3953 8.77101 13.2487 8.77101ZM12.5157 5.56832C12.1492 5.42274 11.7827 5.27717 11.3429 5.20438C11.1963 5.20438 10.9764 5.13159 10.8298 5.13159C10.6099 5.13159 10.4634 4.98601 10.5366 4.76765C10.5366 4.54928 10.6832 4.4037 10.9031 4.47649C11.6361 4.54928 12.2958 4.69486 12.9555 4.98601C14.2749 5.64111 15.0079 6.73293 15.2277 8.1887C15.2277 8.26149 15.2277 8.33428 15.2277 8.40707C15.2277 8.55265 15.2277 8.69822 15.2277 8.91659C15.2277 8.98938 15.2277 9.06217 15.2277 9.13496C15.1545 9.42611 14.6414 9.4989 14.5681 9.13496C14.5681 9.06217 14.4948 8.91659 14.4948 8.8438C14.4948 8.18871 14.3482 7.53361 14.055 6.9513C13.6152 6.2962 13.1021 5.85947 12.5157 5.56832ZM16.4738 9.93563C16.2539 9.93563 16.1073 9.71727 16.1073 9.4989C16.1073 9.06217 16.034 8.62543 15.9607 8.1887C15.6675 5.85947 13.7618 3.96697 11.4895 3.60303C11.123 3.53024 10.7565 3.53024 10.4634 3.45745C10.2435 3.45745 9.95026 3.45745 9.87696 3.1663C9.80366 2.94793 10.0236 2.72957 10.2435 2.72957C10.3168 2.72957 10.3901 2.72957 10.3901 2.72957C13.3953 2.80236 10.5367 2.72957 10.3901 2.72957C13.4686 2.80236 16.034 4.84044 16.5471 7.89755C16.6204 8.40707 16.6937 8.91659 16.6937 9.4989C16.8403 9.71727 16.6937 9.93563 16.4738 9.93563Z" fill="#7C509A"/>
</svg>
