<svg width="139" height="93" viewBox="0 0 139 93" fill="none" xmlns="http://www.w3.org/2000/svg">
<path d="M18.258 104.868H120.607C130.674 104.868 138.867 96.7387 138.867 86.7558V33.097C138.867 23.1197 130.693 15.0048 120.646 14.9851L120.786 14.9823V12.1678C120.885 10.62 119.885 9.36445 118.331 9.36445H108.5C106.947 9.36445 105.691 10.62 105.691 12.1734V14.9823H102.059C100.559 6.48531 93.082 -0.000488281 84.0907 -0.000488281H54.774C45.7854 -0.000488281 38.3109 6.48531 36.8081 14.9823H18.258C8.19081 14.9823 0 23.1085 0 33.097V86.7558C0 96.7387 8.19081 104.868 18.258 104.868ZM6.03637 33.097C6.03637 26.4371 11.5194 21.0215 18.258 21.0215H36.516H42.5523L43.0214 14.9823C44.4287 9.84759 49.1393 6.03869 54.774 6.03869H84.0907C89.7282 6.03869 94.4387 9.84478 95.846 14.9823L96.3151 21.0215H102.351H120.607C127.348 21.0215 132.831 26.4371 132.831 33.097V86.7558C132.831 93.413 127.348 98.8314 120.607 98.8314H18.258C11.5222 98.8314 6.03637 93.413 6.03637 86.7558V33.097ZM51.2291 19.662H87.217C88.4782 19.662 89.4978 18.6423 89.4978 17.3811C89.4978 16.1199 88.4782 15.1003 87.217 15.1003H51.2291C49.9707 15.1003 48.9483 16.1199 48.9483 17.3811C48.9483 18.6423 49.9707 19.662 51.2291 19.662ZM69.4365 93.6096C88.2254 93.6096 103.514 78.3235 103.514 59.5318C103.514 40.7429 88.2282 25.454 69.4365 25.454C50.6448 25.454 35.3587 40.7401 35.3587 59.5318C35.3587 78.3235 50.6448 93.6096 69.4365 93.6096ZM69.4365 31.1589C85.0822 31.1589 97.8094 43.8861 97.8094 59.5346C97.8094 75.1803 85.0822 87.9103 69.4365 87.9103C53.7908 87.9103 41.0608 75.1831 41.0608 59.5346C41.0608 43.8861 53.788 31.1589 69.4365 31.1589ZM51.4763 61.4334C51.4763 50.1331 60.6671 40.9423 71.9674 40.9423C73.0179 40.9423 73.869 40.0912 73.869 39.0407C73.869 37.9902 73.0179 37.1391 71.9674 37.1391C58.5744 37.1391 47.6758 48.0377 47.6758 61.4306C47.6758 62.4812 48.5269 63.3323 49.5774 63.3323C50.6252 63.3351 51.4763 62.484 51.4763 61.4334Z" fill="white"/>
</svg>
