<svg width="57" height="56" viewBox="0 0 57 56" fill="none" xmlns="http://www.w3.org/2000/svg">
<path d="M50.3866 18.501C51.5047 19.7862 52.6229 21.0657 53.7352 22.3452C54.3865 23.0945 55.0378 23.8379 55.6833 24.5872C55.7985 24.7198 56.0464 24.9099 56.1098 25.0771C56.1789 25.2558 56.0406 25.6823 56.006 25.8782C55.908 26.4315 55.787 26.9848 55.6544 27.5323C55.0493 29.976 54.0983 32.3333 52.9168 34.558C51.2742 37.653 49.1129 40.6154 46.577 43.2896C44.0411 45.9639 41.1363 48.3442 38.0182 50.2692C34.906 52.1884 31.5805 53.6581 28.1973 54.5111C26.1686 52.4132 24.1398 50.3095 22.1111 48.2116C25.6095 47.3068 28.9408 45.791 32.007 43.8833C35.1596 41.9295 38.0932 39.5203 40.6579 36.8173C43.2227 34.1142 45.4128 31.1287 47.0842 28.0107C48.7556 24.9099 49.9025 21.6882 50.3866 18.501Z" fill="#961C2E"/>
<path d="M47.3667 5.51611C49.1707 7.61978 50.9804 9.72921 52.7844 11.8329C53.4645 12.6282 54.0869 13.4582 54.5883 14.3803C55.0321 15.193 55.3952 16.0748 55.6776 17.0085C55.96 17.9479 56.1618 18.945 56.2713 19.9939C56.3808 21.0486 56.4038 22.1552 56.3231 23.3137C54.4788 21.1927 52.6403 19.0718 50.8017 16.9508C50.6231 16.7433 50.6115 16.7606 50.6058 16.4897C50.577 15.4466 50.6634 14.4207 50.5597 13.3717C50.4559 12.317 50.26 11.3199 49.9833 10.3805C49.7067 9.44103 49.3436 8.56499 48.9056 7.75234C48.4675 6.95122 47.9546 6.20197 47.3667 5.51611Z" fill="#961C2E"/>
<path d="M21.5524 48.3499C23.5811 50.4478 25.6099 52.5457 27.6386 54.6436C25.9269 55.0412 24.1806 55.2891 22.4227 55.3294C20.7801 55.364 19.2355 55.2199 17.8004 54.9029C16.3711 54.5859 15.057 54.1018 13.8697 53.4678C12.6882 52.8338 11.6335 52.05 10.7171 51.1279C8.67107 49.0645 6.62504 47.0012 4.57901 44.9321C5.50116 45.86 6.56741 46.6439 7.72587 47.2548C8.91314 47.883 10.233 48.3614 11.6623 48.6669C13.1032 48.9723 14.6535 49.1106 16.3019 49.0645C17.9618 49.0242 19.7139 48.7879 21.5524 48.3499Z" fill="#961C2E"/>
<path d="M26.0821 46.8916C28.0993 49.001 30.1223 51.1105 32.1395 53.2199C31.8167 53.3467 31.4882 53.4677 31.1597 53.5887C30.8312 53.7098 30.5027 53.8193 30.1741 53.9288C29.8456 54.0383 29.5171 54.1363 29.1886 54.2342C28.8601 54.3322 28.5315 54.4187 28.1973 54.5051C28.1742 54.5109 28.1512 54.5167 28.1281 54.5224C28.1051 54.5282 28.082 54.5339 28.0589 54.5397C28.0359 54.5455 28.0128 54.5512 27.9898 54.557C27.9667 54.5628 27.9437 54.5685 27.9206 54.5743C27.8976 54.5801 27.8745 54.5858 27.8515 54.5916C27.8284 54.5974 27.8053 54.6031 27.7823 54.6089C27.7592 54.6146 27.7362 54.6204 27.7131 54.6262C27.6901 54.6319 27.667 54.6377 27.644 54.6435C27.3155 54.7184 26.9869 54.7875 26.6642 54.8509C26.3414 54.9143 26.0187 54.9662 25.7017 55.0181C25.3847 55.07 25.0677 55.1103 24.7565 55.1506C24.4452 55.191 24.134 55.2198 23.8286 55.2486C21.7941 53.1622 19.7538 51.0701 17.7193 48.9837C18.0305 48.9549 18.3417 48.9203 18.653 48.88C18.97 48.8397 19.2869 48.7935 19.6039 48.7417C19.9209 48.6898 20.2495 48.6322 20.5722 48.5688C20.895 48.5054 21.2235 48.4304 21.5578 48.3555C21.5808 48.3498 21.6039 48.344 21.6269 48.3382C21.65 48.3325 21.673 48.3267 21.6961 48.3209C21.7191 48.3152 21.7422 48.3094 21.7652 48.3036C21.7883 48.2979 21.8114 48.2921 21.8344 48.2864C21.8575 48.2806 21.8805 48.2748 21.9036 48.2691C21.9266 48.2633 21.9497 48.2575 21.9727 48.2518C21.9958 48.246 22.0188 48.2403 22.0419 48.2345C22.0649 48.2287 22.088 48.223 22.111 48.2172C22.4453 48.1307 22.7738 48.0385 23.1081 47.9405C23.4424 47.8426 23.7709 47.7388 24.0994 47.6236C24.428 47.514 24.7622 47.3988 25.0908 47.2778C25.425 47.151 25.7536 47.0242 26.0821 46.8916Z" fill="#9A95A0"/>
<path d="M50.6011 13.9365C51.6039 15.095 52.6068 16.2534 53.6039 17.4119C54.2609 18.1669 54.9122 18.9277 55.5692 19.6827C55.7652 19.9075 55.9899 20.1265 56.1628 20.3686C56.3588 20.651 56.3415 20.8296 56.3588 21.2158C56.3703 21.4406 56.3761 21.6711 56.3761 21.9016C56.3761 22.1322 56.3761 22.3685 56.3646 22.6048C56.3588 22.8411 56.3473 23.0774 56.33 23.3194V23.3252V23.331V23.3367V23.3425C56.33 23.3598 56.33 23.3713 56.3242 23.3886C56.3242 23.4059 56.3242 23.4174 56.3242 23.4347C56.3242 23.452 56.3242 23.4635 56.3185 23.4808C56.3185 23.4981 56.3185 23.5096 56.3127 23.5269C56.3127 23.5385 56.3127 23.5442 56.3127 23.5557C56.3127 23.5673 56.3127 23.573 56.3127 23.5846C56.3127 23.5961 56.3127 23.6019 56.3127 23.6134C56.3127 23.6249 56.3127 23.6307 56.3127 23.6422C56.3127 23.6537 56.3127 23.6653 56.3127 23.6768C56.3127 23.6883 56.3127 23.6998 56.3127 23.7114C56.3127 23.7229 56.3127 23.7344 56.3127 23.7459C56.3127 23.7575 56.3127 23.769 56.3069 23.7805C56.3069 23.792 56.3069 23.8093 56.3012 23.8209C56.3012 23.8324 56.3012 23.8497 56.2954 23.8612C56.2954 23.8727 56.2954 23.89 56.2896 23.9016C56.2896 23.9131 56.2896 23.9304 56.2839 23.9419C56.2839 23.9477 56.2839 23.9592 56.2839 23.965C56.2839 23.9707 56.2839 23.9822 56.2839 23.988C56.2839 23.9938 56.2839 24.0053 56.2839 24.0111C56.2839 24.0168 56.2839 24.0283 56.2839 24.0341C56.2839 24.0572 56.2781 24.0802 56.2781 24.1033C56.2781 24.1263 56.2724 24.1494 56.2724 24.1724C56.2724 24.1955 56.2666 24.2185 56.2666 24.2416C56.2666 24.2647 56.2608 24.2877 56.2608 24.3108C56.2608 24.3338 56.2551 24.3569 56.2551 24.3799C56.2551 24.403 56.2493 24.426 56.2493 24.4491C56.2493 24.4721 56.2435 24.4952 56.2435 24.5182C56.2435 24.5413 56.2378 24.5644 56.2378 24.5874C56.2378 24.5989 56.2378 24.6047 56.232 24.6162C56.232 24.6277 56.232 24.6335 56.2262 24.645C56.2262 24.6566 56.2262 24.6623 56.2205 24.6739C56.2205 24.6854 56.2205 24.6911 56.2147 24.7027C56.2147 24.7142 56.209 24.7257 56.209 24.7373C56.209 24.7488 56.2032 24.7603 56.2032 24.7718C56.2032 24.7834 56.1974 24.7949 56.1974 24.8064C56.1974 24.8179 56.1917 24.8295 56.1917 24.841C56.1917 24.8525 56.1859 24.8698 56.1859 24.8813C56.1859 24.8986 56.1801 24.9102 56.1801 24.9217C56.1801 24.9332 56.1744 24.9505 56.1744 24.962C56.1744 24.9736 56.1686 24.9908 56.1686 25.0024C56.1686 25.0081 56.1686 25.0139 56.1686 25.0197C56.1686 25.0254 56.1686 25.0312 56.1686 25.037C56.1686 25.0427 56.1686 25.0485 56.1686 25.0542C56.1686 25.06 56.1686 25.0658 56.1686 25.0715C56.1283 25.3367 56.0879 25.6075 56.036 25.8727C55.9899 26.1378 55.9323 26.4087 55.8747 26.6738C55.817 26.9389 55.7536 27.2098 55.6845 27.4749C55.6153 27.74 55.5462 28.0109 55.4712 28.276C54.4626 27.1233 53.4483 25.9706 52.4396 24.8179C51.7826 24.0687 51.1256 23.3194 50.4685 22.5702C50.2726 22.3454 50.0363 22.1264 49.8691 21.8843C49.8346 21.8325 49.7423 21.7748 49.7193 21.7172C49.6559 21.5443 49.8691 21.0832 49.921 20.8873C49.9902 20.6164 50.0536 20.3513 50.117 20.0804C50.1746 19.8095 50.2322 19.5444 50.2841 19.2735C50.336 19.0026 50.3821 18.7375 50.4224 18.4724C50.4224 18.4666 50.4224 18.4608 50.4224 18.4551C50.4224 18.4493 50.4224 18.4436 50.4224 18.4378C50.4224 18.432 50.4224 18.4263 50.4224 18.4205C50.4224 18.4147 50.4224 18.409 50.4224 18.4032C50.4224 18.3917 50.4282 18.3744 50.4282 18.3629C50.4282 18.3513 50.434 18.334 50.434 18.3225C50.434 18.311 50.4397 18.2937 50.4397 18.2822C50.4397 18.2706 50.4455 18.2534 50.4455 18.2418C50.4455 18.2303 50.4513 18.2188 50.4513 18.2073C50.4513 18.1957 50.457 18.1842 50.457 18.1727C50.457 18.1611 50.4628 18.1496 50.4628 18.1381C50.4628 18.1266 50.4685 18.115 50.4685 18.1035C50.4685 18.092 50.4685 18.0862 50.4743 18.0747C50.4743 18.0632 50.4743 18.0574 50.4801 18.0459C50.4801 18.0343 50.4801 18.0286 50.4858 18.0171C50.4858 18.0055 50.4858 17.9998 50.4916 17.9882C50.4916 17.9652 50.4974 17.9421 50.5031 17.9191C50.5031 17.896 50.5089 17.873 50.5089 17.8499C50.5147 17.8269 50.5147 17.8038 50.5204 17.7808C50.5204 17.7577 50.5262 17.7346 50.5262 17.7116C50.5262 17.6885 50.5319 17.6655 50.5319 17.6424C50.5319 17.6194 50.5377 17.5963 50.5377 17.5733C50.5377 17.5502 50.5435 17.5272 50.5435 17.5041C50.5435 17.4811 50.5492 17.458 50.5492 17.4349C50.5492 17.4292 50.5492 17.4177 50.5492 17.4119C50.5492 17.4061 50.5492 17.3946 50.5492 17.3888C50.5492 17.3831 50.5492 17.3716 50.5492 17.3658C50.5492 17.36 50.5492 17.3485 50.5492 17.3427C50.5492 17.3312 50.5492 17.3139 50.555 17.3024C50.555 17.2909 50.555 17.2736 50.5608 17.262C50.5608 17.2505 50.5608 17.2332 50.5665 17.2217C50.5665 17.2102 50.5665 17.1929 50.5723 17.1814C50.5723 17.1698 50.5723 17.1583 50.5723 17.1468C50.5723 17.1352 50.5723 17.1237 50.578 17.1122C50.578 17.1007 50.578 17.0891 50.5838 17.0776C50.5838 17.0661 50.5838 17.0546 50.5838 17.043C50.5838 17.0315 50.5838 17.0257 50.5838 17.0142C50.5838 17.0027 50.5838 16.9969 50.5838 16.9854C50.5838 16.9739 50.5838 16.9681 50.5838 16.9566C50.5838 16.9451 50.5838 16.9393 50.5838 16.9278C50.5838 16.9105 50.5838 16.8989 50.5896 16.8817C50.5896 16.8644 50.5896 16.8528 50.5953 16.8355C50.5953 16.8183 50.5953 16.8067 50.6011 16.7894C50.6011 16.7722 50.6011 16.7606 50.6069 16.7433V16.7376V16.7318V16.726V16.7203C50.6242 16.4782 50.6357 16.2419 50.6472 15.9998C50.6587 15.7635 50.6587 15.5272 50.6587 15.2967C50.6587 15.0662 50.653 14.8356 50.6472 14.6109C50.6299 14.3803 50.6184 14.1555 50.6011 13.9365Z" fill="#9A95A0"/>
<path d="M44.0295 32.812C45.8796 34.858 47.7239 36.9041 49.5739 38.9501C49.6373 39.0193 49.8852 39.2152 49.8967 39.3074C49.914 39.4573 49.4587 39.9068 49.3549 40.0394C49.0437 40.4428 48.7267 40.8348 48.404 41.2267C47.8795 41.8491 47.3435 42.4658 46.7787 43.0652C46.2196 43.6646 45.6433 44.2467 45.0439 44.8173C44.4502 45.3821 43.8393 45.9354 43.2111 46.4714C41.2227 44.3274 39.2401 42.1834 37.2517 40.0394C37.8856 39.4976 38.5023 38.9443 39.1075 38.368C39.7069 37.7916 40.2948 37.2038 40.8596 36.5986C41.4244 35.9934 41.9719 35.3768 42.5022 34.7428C43.0382 34.1088 43.5454 33.4633 44.0295 32.812Z" fill="#9A95A0"/>
<path d="M43.6383 22.8579C45.644 22.4487 47.6554 22.0683 49.6726 21.7225C49.9781 20.6677 50.2259 19.59 50.3931 18.5064C49.5401 24.0912 46.814 29.3014 43.3559 33.7105C39.9554 38.0504 35.7135 41.7678 30.9414 44.5342C28.1749 46.1365 25.2125 47.416 22.1175 48.2171C23.4662 47.8655 24.786 47.416 26.0828 46.903C26.1347 45.0184 26.2384 43.1395 26.3767 41.2606L26.3882 41.0877C26.0828 41.2203 25.7773 41.3413 25.4719 41.4623C25.1664 41.5834 24.8552 41.6929 24.5497 41.7966C24.2385 41.9003 23.933 42.0041 23.6218 42.0963C23.3106 42.1885 22.9993 42.275 22.6881 42.3557C21.5124 42.6554 20.3136 42.8571 19.109 42.9378L19.0744 43.1164C18.6537 45.0818 18.2041 47.0471 17.7142 48.9952C19.0052 48.8741 20.2905 48.6667 21.5527 48.367C17.3396 49.3756 12.7173 49.5024 8.68288 47.7387C4.97697 46.1192 2.29121 42.932 1.24226 39.0359C0.602512 36.6556 0.556399 34.1485 0.884916 31.7105C0.752356 32.6961 0.683194 33.6874 0.694721 34.6787C2.61395 33.9929 4.53895 33.3358 6.47547 32.7076L6.65415 32.6442C6.64262 32.3849 6.63685 32.1255 6.63685 31.8662C6.63685 31.601 6.64838 31.3359 6.65991 31.065C6.6772 30.7942 6.70025 30.5233 6.72907 30.2409C6.75789 29.9642 6.79823 29.6818 6.84434 29.3994C7.03453 28.2352 7.34 27.094 7.73191 25.9817L7.56477 26.0105C5.70893 26.3966 3.84157 26.754 1.97421 27.0825C1.68027 27.9701 1.43245 28.8692 1.23073 29.7855C3.24218 20.5179 9.87593 12.4029 17.5413 7.08903C19.7257 5.57324 22.0541 4.26493 24.4978 3.21598C24.446 4.93349 24.3422 6.651 24.2097 8.36275L24.1981 8.51837C24.4863 8.38581 24.7802 8.26477 25.0742 8.14374C25.3681 8.02271 25.6621 7.90744 25.9618 7.8037C26.2615 7.69419 26.5554 7.59045 26.8551 7.49823C27.1548 7.40025 27.4545 7.30804 27.76 7.22735C28.9011 6.90459 30.0711 6.67406 31.2526 6.55302L31.2872 6.38588C31.6676 4.56463 32.0768 2.74338 32.5321 0.939412C36.2611 0.437991 40.2148 0.749218 43.5922 2.52436C46.716 4.16695 48.9868 7.00834 49.9954 10.3857C50.6063 12.4375 50.7677 14.6046 50.6063 16.7313C50.6755 15.8034 50.6812 14.8755 50.6121 13.9533C48.5833 14.6795 46.5488 15.3827 44.5028 16.0512L44.3069 16.1204C44.3299 16.3797 44.3472 16.6391 44.3587 16.9042C44.3703 17.1693 44.3703 17.4402 44.3703 17.7111C44.3645 17.9877 44.353 18.2644 44.3357 18.5468C44.3184 18.8292 44.2896 19.1174 44.2492 19.4056C44.0994 20.5928 43.8227 21.7628 43.4539 22.904L43.6383 22.8579ZM33.022 35.5778C33.2929 35.3588 33.5522 35.134 33.8116 34.9093C34.0709 34.6845 34.3245 34.4539 34.5724 34.2234C34.8202 33.9929 35.0623 33.7566 35.3043 33.5203C35.5406 33.284 35.7769 33.0419 36.0075 32.7998C36.9066 31.8258 37.7538 30.8057 38.5203 29.7221C39.2696 28.6732 39.9554 27.5724 40.5491 26.4254C40.6932 26.143 40.8257 25.8606 40.9583 25.5782C41.0851 25.2958 41.2119 25.0192 41.3271 24.7425C41.4424 24.4659 41.5519 24.1892 41.6557 23.9126C41.7594 23.6359 41.8516 23.365 41.9438 23.0884C41.9669 23.025 41.9842 22.9616 42.0072 22.8982C42.0245 22.8348 42.0476 22.7714 42.0649 22.7138C42.0822 22.6504 42.0995 22.5927 42.1167 22.5293C42.134 22.4659 42.1513 22.4083 42.1686 22.3449C42.1744 22.3276 42.1801 22.3103 42.1859 22.293C42.1917 22.2758 42.1974 22.2585 42.1974 22.2412C42.2032 22.2239 42.209 22.2066 42.209 22.1951C42.2147 22.1778 42.2147 22.1662 42.2205 22.149C42.2262 22.1259 42.232 22.1086 42.2378 22.0913C42.2435 22.074 42.2493 22.0567 42.2493 22.0395C42.2551 22.0222 42.2551 22.0106 42.2608 21.9991C42.2666 21.9876 42.2666 21.9703 42.2724 21.9588C42.2781 21.9299 42.2839 21.9069 42.2896 21.8838C42.2954 21.8608 42.3012 21.8435 42.3012 21.832C42.3069 21.8147 42.3069 21.8032 42.3127 21.7916C42.3127 21.7801 42.3185 21.7686 42.3185 21.757C42.33 21.6994 42.3415 21.6533 42.353 21.6187C42.3588 21.5841 42.3703 21.5553 42.3761 21.5323C42.3819 21.5092 42.3819 21.4977 42.3876 21.4804C42.3876 21.4689 42.3934 21.4573 42.3934 21.4516C42.3992 21.417 42.4049 21.3939 42.4107 21.3709C42.4164 21.3478 42.4222 21.3305 42.4222 21.3133C42.428 21.296 42.428 21.2844 42.4337 21.2729C42.4337 21.2614 42.4395 21.2499 42.4395 21.2441C42.4453 21.2153 42.451 21.1865 42.4568 21.1634C42.4625 21.1404 42.4626 21.1231 42.4683 21.1058C42.4741 21.0885 42.4741 21.077 42.4741 21.0654C42.4741 21.0539 42.4798 21.0424 42.4798 21.0308C42.4856 21.002 42.4914 20.979 42.4971 20.9559C42.5029 20.9329 42.5029 20.9156 42.5087 20.8983C42.5144 20.881 42.5144 20.8695 42.5144 20.8579C42.5144 20.8464 42.5202 20.8349 42.5202 20.8234C42.5259 20.7945 42.5317 20.7715 42.5317 20.7484C42.5375 20.7254 42.5375 20.7081 42.5432 20.6966C42.5432 20.6793 42.549 20.6677 42.549 20.6562C42.549 20.6447 42.5548 20.6332 42.5548 20.6216C42.5605 20.5928 42.5663 20.5698 42.5663 20.5467C42.5721 20.5237 42.572 20.5064 42.5778 20.4948C42.5778 20.4776 42.5836 20.466 42.5836 20.4545C42.5836 20.443 42.5893 20.4314 42.5893 20.4199C42.5951 20.3853 42.6009 20.3565 42.6009 20.3335C42.6066 20.3104 42.6066 20.2931 42.6124 20.2758C42.6124 20.2585 42.6182 20.247 42.6182 20.2413C42.6182 20.2297 42.6182 20.224 42.6239 20.2124C42.6239 20.2009 42.6297 20.1836 42.6297 20.1721C42.6297 20.1606 42.6355 20.1433 42.6355 20.1317C42.6355 20.1202 42.6412 20.1029 42.6412 20.0914C42.6412 20.0799 42.647 20.0626 42.647 20.0511C42.6585 19.9704 42.67 19.8897 42.6816 19.809C42.7161 19.5208 42.745 19.2442 42.7622 18.9733C42.7795 18.7024 42.7911 18.4431 42.7968 18.1837C42.8026 17.9301 42.7968 17.6765 42.7911 17.4344C42.7795 17.1924 42.768 16.9503 42.745 16.714C42.7219 16.4604 42.6873 16.2068 42.6527 15.9648C42.6124 15.7227 42.5721 15.4806 42.5202 15.2501C42.4683 15.0196 42.4107 14.789 42.3415 14.57C42.2781 14.351 42.2032 14.132 42.1225 13.9245C42.0361 13.7112 41.9496 13.5038 41.8574 13.302C41.7652 13.1003 41.6672 12.9044 41.5634 12.7199C41.4597 12.5297 41.3502 12.3511 41.2349 12.1724C41.1197 11.9937 40.9986 11.8266 40.8776 11.6595C40.7393 11.475 40.601 11.2964 40.4511 11.1292C40.307 10.9621 40.1514 10.8007 39.9958 10.6451C39.8402 10.4895 39.6788 10.3454 39.5117 10.2013C39.3445 10.063 39.1716 9.92465 38.9929 9.79785C38.8085 9.67106 38.6241 9.55003 38.4397 9.44052C38.2495 9.32525 38.0593 9.22151 37.8691 9.11776C37.6789 9.01979 37.4829 8.92181 37.2812 8.83536C37.0795 8.7489 36.8777 8.66245 36.6703 8.58753C36.4455 8.50684 36.2207 8.43191 35.9902 8.36275C35.7596 8.29359 35.5291 8.23596 35.2986 8.18409C35.0623 8.13222 34.826 8.0861 34.5897 8.04576C34.3476 8.00542 34.1055 7.9766 33.8635 7.94778C33.6214 7.92473 33.3736 7.90168 33.1257 7.89015C32.8779 7.87862 32.6243 7.87286 32.3707 7.87286C32.1171 7.87286 31.8578 7.87862 31.5927 7.89591C31.3333 7.90744 31.0682 7.93049 30.7973 7.95931C30.7742 7.95931 30.7512 7.96507 30.7281 7.96507C30.7051 7.96507 30.6878 7.97084 30.6647 7.97084C30.6417 7.97084 30.6244 7.9766 30.6013 7.9766C30.584 7.9766 30.561 7.98237 30.5437 7.98237C30.3247 8.01118 30.1114 8.04 29.9097 8.06881C29.708 8.09763 29.512 8.13222 29.3161 8.1668C29.1259 8.20138 28.9357 8.24172 28.7455 8.28206C28.5553 8.32241 28.3709 8.36852 28.1865 8.40886C28.1576 8.41462 28.1346 8.42039 28.1115 8.42615C28.0885 8.43191 28.0712 8.43768 28.0597 8.43768C28.0424 8.44344 28.0308 8.44344 28.0193 8.4492C28.0078 8.4492 27.9963 8.45497 27.9905 8.45497C27.8522 8.48955 27.7138 8.52989 27.5755 8.56447C27.0799 8.7028 26.5957 8.85841 26.1174 9.02555C25.639 9.19269 25.1664 9.37712 24.6938 9.57884C24.2269 9.78056 23.7659 9.99381 23.3106 10.2186C22.8552 10.4434 22.4057 10.6854 21.9619 10.939C21.8524 11.0024 21.7487 11.0658 21.6507 11.1177C21.5527 11.1753 21.4662 11.2272 21.3798 11.2791C21.2933 11.3309 21.2127 11.3828 21.132 11.4289C21.0513 11.475 20.9764 11.5269 20.8957 11.573C20.6248 11.7459 20.3597 11.9188 20.1003 12.0975C19.8409 12.2761 19.5816 12.4548 19.328 12.6392C19.0744 12.8237 18.8208 13.0139 18.573 13.2041C18.3252 13.3943 18.0831 13.5902 17.841 13.7919C17.5759 14.0109 17.3223 14.2242 17.0687 14.4432C16.8151 14.6622 16.5731 14.887 16.331 15.106C16.0889 15.3308 15.8584 15.5556 15.6279 15.7861C15.3973 16.0166 15.1725 16.2472 14.9535 16.4777C14.7288 16.7198 14.5155 16.9561 14.3023 17.1981C14.0948 17.4402 13.8873 17.6765 13.6913 17.9186C13.4954 18.1606 13.2994 18.3969 13.115 18.639C12.9248 18.8811 12.7461 19.1231 12.5675 19.3652C12.3715 19.6361 12.1813 19.907 11.9969 20.1779C11.8124 20.4487 11.6395 20.7139 11.4724 20.979C11.3053 21.2441 11.1439 21.515 10.9883 21.7801C10.8327 22.0452 10.6886 22.3103 10.5445 22.5812C10.4004 22.8521 10.2678 23.1172 10.141 23.3881C10.0142 23.6532 9.88745 23.9183 9.77218 24.1835C9.65691 24.4486 9.54741 24.7137 9.44366 24.9731C9.33992 25.2382 9.24194 25.4975 9.14972 25.7626C9.09785 25.9125 9.04598 26.0623 8.99988 26.2122C8.95377 26.3563 8.90766 26.5061 8.86155 26.6445C8.8212 26.7885 8.7751 26.9269 8.74052 27.071C8.70018 27.2093 8.66559 27.3534 8.63101 27.4917C8.62525 27.5147 8.61949 27.5378 8.61372 27.5551C8.60796 27.5724 8.60796 27.5897 8.60219 27.6012C8.59643 27.6127 8.59644 27.63 8.59067 27.6358C8.59067 27.6473 8.5849 27.6588 8.5849 27.6704C8.57338 27.728 8.56185 27.7683 8.55609 27.8029C8.55032 27.8375 8.5388 27.8663 8.5388 27.8894C8.53303 27.9124 8.53304 27.9239 8.52728 27.9412C8.52728 27.9528 8.52151 27.9643 8.52151 27.9758C8.51574 28.0046 8.50998 28.0277 8.50422 28.0507C8.49845 28.0738 8.49845 28.0911 8.49269 28.1026C8.48692 28.1199 8.48693 28.1314 8.48117 28.143C8.48117 28.1545 8.4754 28.166 8.4754 28.1775C8.46963 28.2006 8.46388 28.2237 8.46388 28.2409C8.45811 28.2582 8.45811 28.2755 8.45235 28.2928C8.44658 28.3101 8.44658 28.3216 8.44082 28.3389C8.44082 28.3504 8.43506 28.3677 8.43506 28.3793C8.42929 28.4023 8.42929 28.4254 8.42353 28.4427C8.41776 28.4599 8.41776 28.4772 8.412 28.4945C8.412 28.5118 8.40624 28.5233 8.40624 28.5406C8.40624 28.5522 8.40048 28.5695 8.40048 28.581C8.39471 28.6098 8.38895 28.6386 8.38895 28.6559C8.38319 28.679 8.38318 28.6963 8.37742 28.7078C8.37742 28.7251 8.37166 28.7366 8.37166 28.7424C8.37166 28.7539 8.36589 28.7597 8.36589 28.7712C8.35436 28.8403 8.34284 28.9037 8.33131 28.9729C8.27944 29.2956 8.2391 29.6126 8.21028 29.9181C8.18147 30.2293 8.15841 30.5348 8.14688 30.8287C8.13536 31.1284 8.13535 31.4224 8.14112 31.7048C8.14688 31.993 8.16418 32.2754 8.19299 32.552C8.21605 32.771 8.23909 32.9785 8.26791 33.1802C8.29673 33.3819 8.33131 33.5721 8.36589 33.7566C8.40047 33.941 8.44082 34.1254 8.48693 34.2983C8.53303 34.477 8.57914 34.6441 8.63101 34.817C8.70018 35.0361 8.7751 35.2493 8.85579 35.4568C8.93648 35.6643 9.02293 35.866 9.11514 36.062C9.20736 36.2579 9.30534 36.4481 9.40332 36.6325C9.50706 36.817 9.61656 36.9956 9.72607 37.1743C10.2044 37.9178 10.7923 38.5864 11.4724 39.1512C11.6395 39.2895 11.8124 39.4163 11.9911 39.5431C12.1698 39.6699 12.3484 39.7852 12.5386 39.9004C12.7231 40.0157 12.919 40.1194 13.115 40.2232C13.3109 40.3269 13.5127 40.4191 13.7144 40.5114C14.5962 40.9033 15.5356 41.1569 16.4866 41.3009C16.7748 41.3413 17.0687 41.3759 17.3684 41.4047C17.6681 41.4277 17.9678 41.445 18.2791 41.4508C18.5903 41.4566 18.9015 41.4508 19.2185 41.4393C19.5355 41.4277 19.8582 41.3989 20.1868 41.3701C20.2041 41.3701 20.2156 41.3643 20.2329 41.3643C20.2502 41.3643 20.2617 41.3586 20.279 41.3586C20.2905 41.3586 20.3078 41.3528 20.3193 41.3528C20.3308 41.3528 20.3481 41.3471 20.3597 41.3471C20.4173 41.3413 20.4634 41.3355 20.5038 41.3298C20.5441 41.324 20.5729 41.324 20.596 41.3182C20.619 41.3125 20.6421 41.3125 20.6594 41.3125C20.6767 41.3125 20.6882 41.3067 20.7055 41.3067C21.4374 41.2087 22.1579 41.0647 22.8725 40.886C23.4028 40.7477 23.9272 40.5978 24.446 40.4191C24.9647 40.2462 25.4776 40.056 25.9848 39.8428C26.492 39.6353 26.9934 39.4048 27.4891 39.1627C27.9847 38.9206 28.4746 38.6613 28.9588 38.3846C28.976 38.3731 28.9991 38.3616 29.0164 38.3501C29.0337 38.3385 29.051 38.327 29.0683 38.3212C29.0856 38.3097 29.1028 38.2982 29.1201 38.2924C29.1374 38.2809 29.1547 38.2751 29.172 38.2636C29.5063 38.0676 29.8406 37.8659 30.1691 37.6527C30.4976 37.4394 30.8261 37.2262 31.1489 37.0014C31.4716 36.7766 31.7886 36.5461 32.1056 36.3098C32.4111 36.0735 32.7223 35.8314 33.022 35.5778ZM37.2581 40.033C39.7768 37.889 42.0591 35.4626 44.0302 32.8114C42.5951 32.0333 41.1888 31.1918 39.7998 30.3273L39.6788 30.2582C38.0074 32.5866 36.019 34.696 33.8058 36.5173L33.9096 36.621C35.0623 37.7218 36.1746 38.863 37.2581 40.033ZM12.5041 42.0963L12.6424 41.9349C10.9191 41.1799 9.42061 39.9581 8.38319 38.3904L8.2391 38.5287C6.58499 40.1367 4.91934 41.7332 3.21912 43.3009C4.4525 45.053 6.12967 46.465 8.04891 47.416C9.50706 45.6178 10.994 43.8484 12.5041 42.0963ZM37.8575 7.06021L37.7192 7.22159C39.4828 7.87286 41.0736 8.97368 42.2205 10.4722L42.3646 10.3339C44.0244 8.72009 45.6958 7.11785 47.3961 5.55018C45.9955 3.91912 44.1916 2.67421 42.1974 1.88462C40.7739 3.63095 39.3272 5.35999 37.8575 7.06021ZM7.59359 16.5872C8.87884 17.2961 10.1353 18.0569 11.3802 18.8465L11.4897 18.9099C13.1092 16.6967 15.0112 14.6968 17.1206 12.9505L17.0226 12.8583C15.9794 11.8785 14.9766 10.8641 13.9968 9.82091C11.6338 11.8439 9.47824 14.1147 7.59359 16.5872Z" fill="#A2000C"/>
<path d="M13.9971 9.82129C14.9712 10.8645 15.9798 11.8788 17.0229 12.8586L17.1209 12.9508C15.0115 14.6972 13.1038 16.6971 11.49 18.9103L11.3805 18.8469C10.1414 18.0573 8.88493 17.2965 7.59392 16.5876C9.47857 14.1151 11.6341 11.8443 13.9971 9.82129C14.1758 10.0115 13.4035 10.3285 13.9971 9.82129Z" fill="#F6F6F6"/>
<path d="M28.5375 1.76413C28.5606 1.75836 28.5837 1.7526 28.6067 1.74684C28.6298 1.74107 28.6528 1.73531 28.6759 1.72954C28.6989 1.72378 28.722 1.71802 28.745 1.71225C28.7681 1.70649 28.7911 1.70073 28.8142 1.69496C28.8257 1.6892 28.8372 1.6892 28.8488 1.68344C28.8603 1.67768 28.8718 1.67767 28.8834 1.67191C28.8949 1.66615 28.9064 1.66615 28.9179 1.66038C28.9295 1.65462 28.941 1.65462 28.9525 1.64886C28.964 1.64309 28.9756 1.64309 28.9871 1.63733C28.9986 1.63157 29.0102 1.63156 29.0217 1.6258C29.0332 1.6258 29.0447 1.62004 29.0563 1.61428C29.0678 1.60851 29.0793 1.60851 29.0908 1.60275C29.1081 1.59699 29.1197 1.59699 29.1369 1.59122C29.1542 1.58546 29.1658 1.58546 29.1831 1.5797C29.2003 1.57393 29.2119 1.57393 29.2292 1.56817C29.2465 1.5624 29.258 1.56241 29.2753 1.55664C29.281 1.55664 29.2868 1.55664 29.2926 1.55088C29.2983 1.55088 29.3041 1.54511 29.3099 1.54511C29.3156 1.54511 29.3214 1.53935 29.3271 1.53935C29.3329 1.53935 29.3387 1.53935 29.3444 1.53359C29.575 1.47595 29.7997 1.41832 30.0303 1.36645C30.2551 1.31458 30.4798 1.2627 30.7046 1.2166C30.9294 1.17049 31.1542 1.13014 31.3732 1.0898C31.5979 1.04945 31.817 1.01488 32.036 0.980296C32.0533 0.974532 32.0763 0.97453 32.0936 0.968767C32.1109 0.968767 32.1282 0.963006 32.1455 0.963006C32.1628 0.963006 32.1801 0.957242 32.1916 0.957242C32.2089 0.957242 32.2204 0.951477 32.2377 0.951477C32.3357 0.93995 32.4279 0.92266 32.5259 0.911133C32.0763 2.72086 31.6613 4.53635 31.281 6.35761L31.2464 6.52475C30.9697 6.55356 30.6873 6.58814 30.3991 6.62849C30.111 6.66883 29.8228 6.7207 29.5346 6.77834C29.2465 6.83597 28.9525 6.89937 28.6528 6.96853C28.3589 7.0377 28.0592 7.11839 27.7537 7.19907C26.5376 7.53912 25.3446 7.97714 24.1919 8.49585L24.2034 8.34024C24.336 6.62849 24.4397 4.91098 24.4916 3.19346C24.5147 3.18194 24.5435 3.17041 24.5665 3.15888C24.5896 3.14736 24.6184 3.13583 24.6414 3.13007C24.6645 3.11854 24.6876 3.10701 24.7164 3.10125C24.7394 3.08972 24.7682 3.0782 24.7913 3.07243C24.8086 3.06667 24.8259 3.0609 24.8432 3.04938C24.8605 3.04361 24.8777 3.03785 24.895 3.02632C24.9123 3.02056 24.9296 3.0148 24.9469 3.00327C24.9642 2.99751 24.9815 2.99175 24.9988 2.98022C25.2236 2.888 25.4541 2.79579 25.6789 2.70934C25.9036 2.62288 26.1342 2.53643 26.3647 2.45574C26.5953 2.37505 26.82 2.29437 27.0506 2.21368C27.2811 2.13875 27.5117 2.06383 27.7422 1.9889C27.748 1.9889 27.7537 1.98314 27.7595 1.98314C27.7652 1.98314 27.771 1.97737 27.7768 1.97737C27.7825 1.97737 27.7883 1.97161 27.7941 1.97161C27.7998 1.97161 27.8056 1.96585 27.8113 1.96585C27.8286 1.96008 27.8402 1.95432 27.8575 1.95432C27.8747 1.94855 27.8863 1.94279 27.9036 1.94279C27.9209 1.93703 27.9324 1.93127 27.9497 1.93127C27.967 1.9255 27.9785 1.91974 27.9958 1.91974C28.0073 1.91398 28.0188 1.91398 28.0304 1.90821C28.0419 1.90245 28.0534 1.90245 28.0649 1.89668C28.0765 1.89092 28.088 1.89092 28.0995 1.88516C28.111 1.8794 28.1226 1.87939 28.1341 1.87363C28.1456 1.86787 28.1572 1.86787 28.1687 1.86211C28.1802 1.85634 28.1917 1.85634 28.2033 1.85058C28.2148 1.84481 28.2263 1.84481 28.2378 1.83905C28.2494 1.83329 28.2609 1.83329 28.2724 1.82753C28.2955 1.82176 28.3185 1.816 28.3416 1.80447C28.3646 1.79871 28.3877 1.79294 28.4108 1.78142C28.4338 1.77565 28.4569 1.76989 28.4799 1.75836C28.4914 1.78142 28.5145 1.77565 28.5375 1.76413Z" fill="#F6F6F6"/>
<path d="M1.9673 27.0657C3.83466 26.7372 5.70203 26.3798 7.55786 25.9937L7.72501 25.9648C7.62703 26.2473 7.53481 26.5297 7.44835 26.8121C7.3619 27.0945 7.28121 27.3827 7.20629 27.6651C7.13136 27.9475 7.06221 28.2357 7.00457 28.5181C6.94117 28.8062 6.8893 29.0886 6.84319 29.3768C6.67028 30.4488 6.60112 31.5381 6.64723 32.6216L6.46857 32.685C4.53204 33.3133 2.60705 33.9703 0.687813 34.6561C0.687813 34.4198 0.68781 34.1778 0.693573 33.9357C0.699337 33.6936 0.710862 33.4458 0.728152 33.198C0.745443 32.9502 0.762734 32.7023 0.791551 32.4487C0.814605 32.1951 0.849188 31.9416 0.883768 31.688C0.883768 31.6822 0.883768 31.6764 0.883768 31.6764C0.883768 31.6707 0.883768 31.6649 0.883768 31.6591C0.883768 31.6534 0.883768 31.6476 0.883768 31.6476C0.883768 31.6419 0.883768 31.6361 0.883768 31.6361C0.883768 31.6246 0.889538 31.6073 0.889538 31.5958C0.889538 31.5842 0.895298 31.5669 0.895298 31.5554C0.895298 31.5439 0.901058 31.5266 0.901058 31.5151C0.901058 31.5035 0.906827 31.4862 0.906827 31.4747C0.906827 31.4632 0.906824 31.4517 0.912588 31.4401C0.912588 31.4286 0.918348 31.4171 0.918348 31.4056C0.918348 31.394 0.918353 31.3825 0.924117 31.371C0.924117 31.3594 0.929877 31.3479 0.929877 31.3364C0.929877 31.3249 0.929874 31.3133 0.935638 31.3076C0.935638 31.2961 0.941407 31.2845 0.941407 31.2788C0.941407 31.2672 0.941403 31.2557 0.947167 31.2499C0.947167 31.2384 0.952936 31.2269 0.952936 31.2211C0.958699 31.1981 0.958693 31.175 0.964457 31.152C0.97022 31.1289 0.970223 31.1059 0.975986 31.0828C0.981749 31.0597 0.981752 31.0367 0.987515 31.0136C0.993279 30.9906 0.993273 30.9675 0.999036 30.9445C1.0048 30.9214 1.0048 30.8984 1.01057 30.8753C1.01633 30.8523 1.01633 30.8292 1.02209 30.8062C1.02786 30.7831 1.02786 30.7601 1.03362 30.737C1.03939 30.7139 1.03938 30.6909 1.04514 30.6678C1.04514 30.6563 1.05091 30.6505 1.05091 30.639C1.05091 30.6275 1.05667 30.6217 1.05667 30.6102C1.05667 30.5987 1.06243 30.5929 1.06243 30.5814C1.06243 30.5699 1.0682 30.5641 1.0682 30.5526C1.0682 30.541 1.07396 30.5295 1.07396 30.518C1.07396 30.5065 1.07972 30.4949 1.07972 30.4834C1.07972 30.4719 1.08549 30.4603 1.08549 30.4431C1.08549 30.4315 1.09125 30.42 1.09125 30.4027C1.09125 30.3912 1.09702 30.3797 1.09702 30.3681C1.09702 30.3566 1.10278 30.3451 1.10278 30.3336C1.10278 30.322 1.10854 30.3105 1.10854 30.299C1.10854 30.2874 1.11431 30.2759 1.11431 30.2644C1.11431 30.2586 1.12007 30.2471 1.12007 30.2413C1.12007 30.2356 1.12583 30.224 1.12583 30.2183C1.12583 30.2125 1.1316 30.201 1.1316 30.1952C1.1316 30.1895 1.13736 30.1779 1.13736 30.1722C1.35637 29.1175 1.63302 28.08 1.9673 27.0657C2.31311 27.008 1.88661 27.325 1.9673 27.0657Z" fill="#F6F6F6"/>
<path d="M42.2026 1.89062C44.1968 2.68022 46.0007 3.92512 47.4012 5.55618C45.6953 7.12385 44.0238 8.72609 42.3697 10.3399L42.2256 10.4782C41.073 8.97968 39.488 7.87886 37.7244 7.22759L37.8627 7.06621C39.3266 5.36023 40.7733 3.63119 42.2026 1.89062C42.7155 2.09235 41.9375 2.21338 42.2026 1.89062Z" fill="#F6F6F6"/>
<path d="M8.38271 38.3848C9.42013 39.9582 10.9186 41.1743 12.6419 41.9293L12.5036 42.0907C10.9936 43.8428 9.51235 45.6122 8.04843 47.4046C6.12919 46.4479 4.45202 45.0416 3.21864 43.2895C4.91886 41.7276 6.58451 40.1311 8.23862 38.5173L8.38271 38.3848Z" fill="#F6F6F6"/>
<path d="M50.5993 13.9365C50.6166 14.1555 50.6281 14.3803 50.6339 14.6109C50.6397 14.8356 50.6454 15.0662 50.6454 15.2967C50.6454 15.5272 50.6397 15.7635 50.6339 15.9998C50.6224 16.2361 50.6109 16.4782 50.5936 16.7203V16.726V16.7318V16.7376V16.7433C50.5936 16.7606 50.5936 16.7722 50.5878 16.7894C50.5878 16.8067 50.5878 16.8183 50.582 16.8355C50.582 16.8528 50.582 16.8644 50.5763 16.8817C50.5763 16.8989 50.5763 16.9105 50.5705 16.9278C50.5705 16.9393 50.5705 16.9451 50.5705 16.9566C50.5705 16.9681 50.5705 16.9739 50.5705 16.9854C50.5705 16.9969 50.5705 17.0027 50.5705 17.0142C50.5705 17.0257 50.5705 17.0315 50.5705 17.043C50.5705 17.0546 50.5705 17.0661 50.5705 17.0776C50.5705 17.0891 50.5705 17.1007 50.5647 17.1122C50.5647 17.1237 50.5647 17.1352 50.559 17.1468C50.559 17.1583 50.559 17.1698 50.559 17.1814C50.559 17.1929 50.559 17.2102 50.5532 17.2217C50.5532 17.2332 50.5532 17.2505 50.5475 17.262C50.5475 17.2736 50.5475 17.2909 50.5417 17.3024C50.5417 17.3139 50.5417 17.3312 50.5359 17.3427C50.5359 17.3485 50.5359 17.36 50.5359 17.3658C50.5359 17.3716 50.5359 17.3831 50.5359 17.3888C50.5359 17.3946 50.5359 17.4061 50.5359 17.4119C50.5359 17.4177 50.5359 17.4292 50.5359 17.4349C50.5359 17.458 50.5302 17.4811 50.5302 17.5041C50.5302 17.5272 50.5244 17.5502 50.5244 17.5733C50.5244 17.5963 50.5186 17.6194 50.5186 17.6424C50.5186 17.6655 50.5129 17.6885 50.5129 17.7116C50.5129 17.7346 50.5071 17.7577 50.5071 17.7808C50.5071 17.8038 50.5013 17.8269 50.4956 17.8499C50.4956 17.873 50.4898 17.896 50.4898 17.9191C50.4841 17.9421 50.4841 17.9652 50.4783 17.9882C50.4783 17.9998 50.4783 18.0055 50.4725 18.0171C50.4725 18.0286 50.4725 18.0343 50.4668 18.0459C50.4668 18.0574 50.4668 18.0632 50.461 18.0747C50.461 18.0862 50.461 18.092 50.4552 18.1035C50.4552 18.115 50.4495 18.1266 50.4495 18.1381C50.4495 18.1496 50.4437 18.1611 50.4437 18.1727C50.4437 18.1842 50.4379 18.1957 50.4379 18.2073C50.4379 18.2188 50.4322 18.2303 50.4322 18.2418C50.4322 18.2534 50.4264 18.2706 50.4264 18.2822C50.4264 18.2937 50.4207 18.311 50.4207 18.3225C50.4207 18.334 50.4149 18.3513 50.4149 18.3629C50.4149 18.3744 50.4091 18.3917 50.4091 18.4032C50.4091 18.409 50.4091 18.4147 50.4091 18.4205C50.4091 18.4263 50.4091 18.432 50.4091 18.4378C50.4091 18.4436 50.4091 18.4493 50.4091 18.4551C50.4091 18.4608 50.4091 18.4666 50.4091 18.4724C50.242 19.5617 49.9999 20.6337 49.6887 21.6884C47.6715 22.0342 45.66 22.4146 43.6544 22.8238L43.4642 22.8584C43.5564 22.5644 43.6428 22.2763 43.7235 21.9823C43.8042 21.6884 43.8791 21.3944 43.9425 21.1063C44.0117 20.8123 44.0693 20.5242 44.1212 20.2302C44.1731 19.9421 44.2192 19.6481 44.2538 19.3599C44.3921 18.2706 44.4151 17.1641 44.3114 16.0748L44.5073 16.0056C46.5361 15.3659 48.5706 14.6627 50.5993 13.9365C50.6166 14.1555 50.2189 14.0748 50.5993 13.9365Z" fill="#F6F6F6"/>
<path d="M26.388 41.0767L26.3764 41.2496C26.2381 43.1285 26.1401 45.0131 26.0825 46.892C25.754 47.0246 25.4255 47.1456 25.097 47.2666C24.7684 47.3877 24.4399 47.5029 24.1056 47.6124C23.7771 47.7219 23.4428 47.8257 23.1143 47.9294C22.78 48.0274 22.4515 48.1196 22.1172 48.2061C22.0942 48.2118 22.0711 48.2176 22.0481 48.2234C22.025 48.2291 22.002 48.2349 21.9789 48.2406C21.9559 48.2464 21.9328 48.2522 21.9098 48.2579C21.8867 48.2637 21.8636 48.2695 21.8406 48.2752C21.8175 48.281 21.7945 48.2868 21.7714 48.2925C21.7484 48.2983 21.7253 48.304 21.7023 48.3098C21.6792 48.3156 21.6562 48.3213 21.6331 48.3271C21.6101 48.3329 21.587 48.3386 21.5639 48.3444C20.3017 48.6441 19.0165 48.8516 17.7255 48.9726C18.2154 47.0246 18.6707 45.0592 19.0857 43.0939L19.1202 42.9152C19.4026 42.8979 19.6908 42.8691 19.9848 42.8345C20.2787 42.7999 20.5726 42.7596 20.8723 42.7135C21.172 42.6674 21.4717 42.6097 21.7772 42.5463C22.0827 42.4829 22.3939 42.4138 22.7051 42.3331C23.9558 42.0219 25.1892 41.5954 26.388 41.0767Z" fill="#F6F6F6"/>
<path d="M39.6834 30.2583L39.8045 30.3275C41.1935 31.192 42.5998 32.0277 44.0349 32.8115C42.0638 35.4627 39.7814 37.8891 37.2628 40.0331C36.1793 38.8631 35.0669 37.722 33.9142 36.6212L33.8105 36.5174C36.0236 34.6962 38.012 32.5867 39.6834 30.2583Z" fill="#F6F6F6"/>
<path d="M19.4079 41.1571C19.3963 41.1975 19.3906 41.2321 19.3906 41.2609C19.3906 41.2955 19.4021 41.3243 19.4136 41.3473C19.4309 41.3704 19.4482 41.3877 19.477 41.405C19.5001 41.4165 19.5347 41.4223 19.5692 41.4223C19.6211 41.4165 19.6672 41.4165 19.7191 41.4107C19.771 41.405 19.8171 41.405 19.8689 41.3992C19.9208 41.3935 19.9669 41.3877 20.0188 41.3877C20.0707 41.3819 20.1168 41.3762 20.1686 41.3704C18.941 41.4972 17.7019 41.4914 16.48 41.307L16.5665 41.3012C16.6818 41.2724 16.797 41.1802 16.8489 41.0707C16.9065 40.9612 16.9123 40.7825 16.7509 40.7537C15.8403 40.6211 14.9412 40.3733 14.094 40.016C14.0824 40.0102 14.0709 40.0102 14.0651 40.0045C14.0536 40.0045 14.0421 39.9987 14.0306 39.9987C14.019 39.9987 14.0075 39.9987 13.996 39.9987C13.9844 39.9987 13.9729 40.0045 13.9556 40.0045C13.9326 40.0102 13.9095 40.016 13.8865 40.0275C13.8634 40.039 13.8404 40.0506 13.8231 40.0679C13.8 40.0851 13.7827 40.1024 13.7597 40.1197C13.7424 40.137 13.7251 40.1601 13.7078 40.1831C13.6444 40.2696 13.5868 40.4252 13.6905 40.5116C12.8952 40.1658 12.1401 39.7105 11.4658 39.1572L11.633 39.1803L11.8404 39.0535C11.9154 38.967 12.0076 38.7884 11.8981 38.6846C11.2526 38.1486 10.6762 37.5204 10.2209 36.8115C10.169 36.7481 10.0826 36.7423 10.0077 36.7596C9.99613 36.7654 9.98461 36.7654 9.96732 36.7712C9.95579 36.7769 9.9385 36.7827 9.92697 36.7885C9.91544 36.7942 9.89816 36.8057 9.88663 36.8115C9.8751 36.823 9.85781 36.8288 9.84628 36.8403C9.75983 36.9152 9.66762 37.0478 9.69644 37.1688C9.22959 36.4542 8.87226 35.6703 8.6129 34.8577C8.65325 34.9326 8.75122 34.9326 8.82615 34.9153L8.92412 34.8692C9.03363 34.8001 9.17196 34.6387 9.12585 34.4946C9.06245 34.2813 9.00481 34.0681 8.95294 33.8491C8.90107 33.6301 8.85497 33.4111 8.82039 33.1863C8.78004 32.9615 8.75123 32.7367 8.72241 32.5062C8.69935 32.2757 8.6763 32.0451 8.66477 31.8088C8.66477 31.78 8.65325 31.7569 8.64172 31.7339C8.63019 31.7108 8.61291 31.6935 8.58985 31.682C8.5668 31.6705 8.54374 31.6647 8.52068 31.659C8.49187 31.659 8.46305 31.659 8.43424 31.6647C8.42847 31.6647 8.42847 31.6647 8.42271 31.6705C8.41694 31.6705 8.41694 31.6705 8.41118 31.6763C8.40541 31.6763 8.40542 31.682 8.39966 31.682C8.39389 31.682 8.39389 31.6878 8.38813 31.6878C8.2498 31.7454 8.11724 31.8953 8.123 32.0509C8.123 32.0912 8.12877 32.1373 8.12877 32.1777C8.12877 32.218 8.13453 32.2641 8.13453 32.3045C8.13453 32.3448 8.1403 32.3909 8.14606 32.4313C8.15183 32.4716 8.15183 32.5177 8.15759 32.5581C8.04809 31.3766 8.11148 30.1778 8.29591 29.0078C8.27286 29.1576 8.40542 29.2037 8.52645 29.1692C8.56103 29.1576 8.60137 29.1403 8.63595 29.1173C8.67053 29.0942 8.70512 29.0654 8.73394 29.0366C8.76276 29.0078 8.7858 28.9732 8.80886 28.9328C8.82615 28.8983 8.84344 28.8637 8.84921 28.8291C8.34202 31.9702 8.81462 35.3937 11.0163 37.8316C13.2006 40.2465 16.5377 41.0649 19.696 40.8632C19.5692 40.9093 19.454 41.0246 19.4079 41.1571Z" fill="#6D1627"/>
<path d="M26.3191 39.699L26.371 39.676C27.028 39.3936 27.6677 39.0823 28.3017 38.748C26.6015 39.6587 24.7975 40.3906 22.9244 40.869C22.9648 40.8575 22.9993 40.8402 23.0339 40.8171C23.0685 40.7941 23.0973 40.7653 23.1261 40.7364C23.1549 40.7076 23.178 40.673 23.1953 40.6385C23.2126 40.6039 23.2241 40.5693 23.2299 40.529C23.2529 40.3791 23.1088 40.2984 22.9763 40.333C24.4517 39.9584 25.8868 39.4166 27.2528 38.7538C27.1778 38.7884 27.0972 38.8287 27.0222 38.8633C26.9473 38.8979 26.8666 38.9382 26.7917 38.9728C26.7168 39.0074 26.6361 39.042 26.5612 39.0766C26.4862 39.1111 26.4055 39.1457 26.3306 39.1803C26.1865 39.2437 26.0655 39.3878 26.0713 39.5549C26.0828 39.6933 26.2096 39.7278 26.3191 39.699Z" fill="#A2000C"/>
<path d="M40.4395 26.1201C40.4683 26.1259 40.4914 26.1316 40.5144 26.1489C40.5375 26.1604 40.549 26.1835 40.5605 26.2065C40.5721 26.2296 40.5778 26.2526 40.5778 26.2815C40.5778 26.3103 40.5778 26.3391 40.5663 26.3737C40.5605 26.3967 40.5548 26.414 40.5433 26.4371C39.9496 27.5782 39.2753 28.6733 38.5318 29.7223L38.5145 29.7338L38.284 29.8952L38.1399 29.8894C37.9843 29.8375 38.0304 29.6416 38.1053 29.5493C38.2033 29.411 38.2955 29.2785 38.3877 29.1401C38.4799 29.0018 38.5722 28.8635 38.6644 28.7309C38.7566 28.5926 38.843 28.4543 38.9295 28.316C39.0159 28.1776 39.1024 28.0393 39.1888 27.901C39.2061 27.8779 39.2177 27.8491 39.235 27.8261C39.2522 27.803 39.2638 27.7742 39.2811 27.7512C39.2984 27.7281 39.3099 27.6993 39.3272 27.6762C39.3445 27.6532 39.356 27.6244 39.3733 27.6013C39.3733 27.6013 39.3733 27.5955 39.379 27.5955C39.379 27.5955 39.379 27.5898 39.3848 27.5898C39.3848 27.5898 39.3848 27.584 39.3906 27.584C39.3906 27.584 39.3906 27.5782 39.3963 27.5782C39.454 27.4803 39.5116 27.3823 39.5692 27.2786C39.6269 27.1806 39.6787 27.0768 39.7364 26.9788C39.7882 26.8809 39.8459 26.7771 39.8977 26.6791C39.9496 26.5812 40.0015 26.4774 40.0534 26.3794C40.0534 26.3794 40.0534 26.3737 40.0591 26.3679C40.0591 26.3622 40.0649 26.3622 40.0649 26.3564C40.0649 26.3564 40.0707 26.3506 40.0707 26.3449L40.0764 26.3391C40.0937 26.3161 40.111 26.293 40.1283 26.2699C40.1513 26.2469 40.1686 26.2296 40.1917 26.2123C40.2147 26.195 40.2378 26.1777 40.2666 26.1662C40.2897 26.1547 40.3185 26.1431 40.3415 26.1374C40.3531 26.1374 40.3588 26.1316 40.3704 26.1316C40.3819 26.1316 40.3876 26.1316 40.3992 26.1259C40.4107 26.1259 40.4165 26.1259 40.428 26.1259C40.4222 26.1143 40.4338 26.1201 40.4395 26.1201Z" fill="#FEFEFE"/>
<path d="M29.7655 37.3992C29.7943 37.3935 29.8173 37.3877 29.8462 37.3877C29.8692 37.3877 29.8923 37.3935 29.9153 37.3992C29.9384 37.4108 29.9557 37.4223 29.9672 37.4338C29.9845 37.4511 29.996 37.4684 30.0018 37.4914C30.0133 37.5203 30.0133 37.5548 30.0075 37.5894C30.0018 37.624 29.9902 37.6586 29.9729 37.6932C29.9557 37.7277 29.9326 37.7623 29.9038 37.7911C29.875 37.82 29.8404 37.8488 29.8058 37.8718C29.7539 37.9064 29.7021 37.9352 29.6502 37.9698C29.5983 38.0044 29.5465 38.0332 29.4946 38.0678C29.4427 38.0966 29.3908 38.1312 29.339 38.16C29.2871 38.1888 29.2352 38.2234 29.1834 38.2522C29.1661 38.2637 29.1488 38.2753 29.1315 38.281C29.1142 38.2926 29.0969 38.3041 29.0796 38.3099C29.0623 38.3214 29.045 38.3271 29.0277 38.3387C29.0104 38.3502 28.9932 38.356 28.9759 38.3675C28.1344 38.8458 27.2756 39.2781 26.3881 39.6585L26.3362 39.6816C26.2267 39.7104 26.0941 39.67 26.0941 39.5375C26.0941 39.5029 26.0999 39.4625 26.1114 39.428C26.123 39.3934 26.1402 39.3588 26.1633 39.3242C26.1864 39.2896 26.2152 39.2608 26.244 39.232C26.2786 39.2032 26.3131 39.1801 26.3535 39.1686C26.4284 39.134 26.5091 39.0994 26.584 39.0649C26.659 39.0303 26.7396 38.9957 26.8146 38.9611C26.8895 38.9265 26.9702 38.892 27.0451 38.8516C27.12 38.817 27.2007 38.7767 27.2757 38.7421C27.2987 38.7306 27.316 38.7191 27.339 38.7133C27.3621 38.7018 27.3794 38.6902 27.4024 38.6845C27.4255 38.6729 27.4428 38.6614 27.4658 38.6557C27.4889 38.6441 27.5119 38.6326 27.5292 38.6211C27.5408 38.6153 27.5523 38.6095 27.5638 38.6038C27.5754 38.598 27.5869 38.5923 27.5984 38.5865C27.6099 38.5807 27.6215 38.575 27.633 38.5692C27.6445 38.5634 27.656 38.5577 27.6676 38.5519C27.6906 38.5404 27.7137 38.5289 27.731 38.5173C27.754 38.5058 27.7713 38.4943 27.7944 38.4827C27.8174 38.4712 27.8405 38.4597 27.8578 38.4482C27.8808 38.4366 27.8981 38.4251 27.9212 38.4136C27.9384 38.4078 27.95 38.3963 27.9673 38.3905C27.9846 38.3848 27.9961 38.3732 28.0134 38.3675C28.0307 38.3617 28.0422 38.3502 28.0595 38.3444C28.0768 38.3387 28.0883 38.3271 28.1056 38.3214C28.1056 38.3214 28.1114 38.3214 28.1114 38.3156C28.1114 38.3156 28.1171 38.3156 28.1171 38.3099C28.1171 38.3099 28.1229 38.3098 28.1229 38.3041C28.1229 38.3041 28.1286 38.3041 28.1286 38.2983C28.2554 38.2292 28.3822 38.16 28.509 38.0908C28.6358 38.0217 28.7626 37.9525 28.8894 37.8776C29.0162 37.8084 29.143 37.7335 29.2698 37.6586C29.3966 37.5837 29.5234 37.5087 29.6444 37.4338C29.656 37.428 29.6617 37.4223 29.6732 37.4165C29.6848 37.4108 29.6905 37.405 29.7021 37.405C29.7136 37.3992 29.7194 37.3992 29.7309 37.3935C29.7482 37.405 29.7597 37.3992 29.7655 37.3992Z" fill="#FEFEFE"/>
<path d="M15.0732 16.87L14.8946 16.8527C14.8773 16.8412 14.86 16.8239 14.8542 16.8008C14.8427 16.7778 14.8427 16.7547 14.8427 16.7317C14.8427 16.7086 14.8485 16.6798 14.86 16.651C14.8715 16.6222 14.883 16.5933 14.9003 16.5645C14.9061 16.5588 14.9061 16.553 14.9119 16.5472C14.9176 16.5415 14.9176 16.5357 14.9234 16.5299C14.9291 16.5242 14.9349 16.5184 14.9349 16.5127C14.9407 16.5069 14.9464 16.5011 14.9522 16.4954C15.1712 16.2648 15.396 16.0285 15.6265 15.8037C15.8571 15.579 16.0876 15.3484 16.3239 15.1294C16.5602 14.9104 16.8023 14.6914 17.0443 14.4724C17.2864 14.2591 17.5342 14.0459 17.7878 13.8384C17.7936 13.8326 17.7936 13.8326 17.7994 13.8269C17.8051 13.8211 17.8051 13.8211 17.8109 13.8154C17.8166 13.8154 17.8166 13.8096 17.8224 13.8096C17.8282 13.8096 17.8282 13.8038 17.8339 13.8038C17.8397 13.7981 17.8512 13.7923 17.857 13.7923C17.8627 13.7865 17.8743 13.7865 17.88 13.7808C17.8858 13.775 17.8973 13.775 17.9031 13.7692C17.9089 13.7635 17.9204 13.7635 17.9262 13.7635C17.9492 13.7577 17.9665 13.752 17.9896 13.752C18.0126 13.752 18.0299 13.752 18.0472 13.7577C18.0645 13.7635 18.0818 13.7692 18.0933 13.775C18.1106 13.7865 18.1221 13.7981 18.1336 13.8096C18.2259 13.9306 18.0991 14.1035 18.0126 14.1785C17.0501 14.9738 16.1279 15.8268 15.275 16.7374L15.0732 16.87Z" fill="#FEFEFE"/>
<path d="M24.1978 10.2826C24.1862 10.2883 24.1747 10.2941 24.169 10.2999C24.1574 10.3056 24.1459 10.3114 24.1401 10.3172C24.1286 10.3229 24.1171 10.3287 24.1113 10.3344C24.0998 10.3402 24.0883 10.346 24.0825 10.3517C24.0595 10.3633 24.0422 10.369 24.0191 10.3806C23.9961 10.3921 23.9788 10.3978 23.9615 10.4094C23.9384 10.4209 23.9211 10.4267 23.8981 10.4382C23.8808 10.4497 23.8577 10.4555 23.8404 10.467C23.8347 10.467 23.8347 10.4728 23.8289 10.4728C23.8232 10.4728 23.8232 10.4785 23.8174 10.4785C23.8116 10.4785 23.8116 10.4843 23.8059 10.4843C23.8001 10.4843 23.8001 10.4901 23.7943 10.4901C23.7021 10.5362 23.6041 10.5823 23.5119 10.6284C23.4197 10.6745 23.3217 10.7206 23.2295 10.7667C23.1373 10.8128 23.0393 10.8647 22.9471 10.9108C22.8549 10.9569 22.7627 11.0088 22.6647 11.0606C22.1056 11.3603 21.5581 11.6773 21.0221 12.0116L20.9241 12.0635C20.8377 12.0865 20.7224 12.0693 20.6994 11.9713C20.6878 11.9482 20.6878 11.9194 20.6936 11.8848C20.6994 11.856 20.7051 11.8214 20.7224 11.7926C20.7397 11.7638 20.757 11.7292 20.78 11.7004C20.8031 11.6716 20.8319 11.6428 20.8665 11.6197L20.8723 11.6139L20.878 11.6082L20.8838 11.6024L20.8896 11.5966C20.9645 11.5505 21.0452 11.4987 21.1201 11.4526C21.195 11.4065 21.2757 11.3603 21.3506 11.3085C21.4256 11.2624 21.5062 11.2163 21.5812 11.1702C21.6561 11.124 21.7368 11.0779 21.8117 11.0318L21.8175 11.0261L21.8232 11.0203L21.829 11.0145L21.8348 11.0088C21.8463 11.003 21.852 10.9972 21.8578 10.9915C21.8636 10.9857 21.8751 10.98 21.8809 10.9742C21.8866 10.9684 21.8982 10.9627 21.9039 10.9569C21.9097 10.9511 21.9212 10.9454 21.927 10.9396C22.1114 10.8359 22.2901 10.7321 22.4745 10.6341C22.6589 10.5362 22.8434 10.4382 23.0278 10.346C23.2122 10.2538 23.3967 10.1615 23.5811 10.0693C23.7655 9.98288 23.95 9.89643 24.1401 9.80997C24.1459 9.80997 24.1517 9.80421 24.1574 9.80421C24.1632 9.80421 24.169 9.79845 24.169 9.79845C24.1747 9.79845 24.1805 9.79268 24.1805 9.79268C24.1863 9.79268 24.192 9.79268 24.192 9.78692C24.2208 9.77539 24.2554 9.77539 24.2785 9.77539C24.3073 9.77539 24.3303 9.78116 24.3534 9.79268C24.3764 9.80421 24.3937 9.81574 24.4053 9.83879C24.4168 9.85608 24.4283 9.87913 24.4283 9.90795C24.4283 9.93677 24.4226 9.97135 24.411 10.0059C24.3995 10.0405 24.3822 10.0751 24.3592 10.1039C24.3361 10.1385 24.3073 10.1673 24.2727 10.1961C24.2727 10.2422 24.2381 10.2653 24.1978 10.2826Z" fill="#FEFEFE"/>
<path d="M10.6299 22.8869C10.6011 22.8811 10.578 22.8754 10.5608 22.8581C10.5435 22.8466 10.5262 22.8293 10.5146 22.8062C10.5031 22.7832 10.4974 22.7601 10.4974 22.7371C10.4974 22.7082 10.5031 22.6794 10.5146 22.6506C10.5146 22.6448 10.5204 22.6391 10.5204 22.6391C10.5204 22.6333 10.5262 22.6275 10.5262 22.6275C10.5262 22.6218 10.5319 22.616 10.5319 22.616C10.5319 22.6103 10.5377 22.6045 10.5377 22.6045C10.6818 22.3394 10.8259 22.0685 10.9815 21.8034C11.1371 21.5383 11.2927 21.2731 11.4599 21.008C11.627 20.7429 11.7941 20.4835 11.967 20.2242C12.1399 19.9648 12.3244 19.7055 12.5088 19.4461C12.5146 19.4404 12.5146 19.4346 12.5203 19.4288C12.5261 19.4231 12.5319 19.4173 12.5319 19.4115C12.5376 19.4058 12.5434 19.4 12.5434 19.3942C12.5491 19.3885 12.5549 19.3827 12.5607 19.3827C12.5722 19.3712 12.5895 19.3597 12.601 19.3481C12.6183 19.3366 12.6298 19.3251 12.6471 19.3193C12.6644 19.3078 12.6817 19.302 12.6932 19.2963C12.7105 19.2905 12.7278 19.2847 12.7393 19.279C12.7854 19.2675 12.8373 19.2617 12.8834 19.279C13.0275 19.3366 12.9583 19.521 12.8949 19.6075C12.1918 20.5815 11.5521 21.6017 10.9872 22.6564C10.9354 22.7601 10.8374 22.8466 10.7221 22.8754L10.6299 22.8869Z" fill="#FEFEFE"/>
<path d="M27.4833 9.08374C27.4487 9.09527 27.4141 9.09527 27.3795 9.09527C27.345 9.0895 27.3162 9.08374 27.2931 9.06645C27.27 9.04916 27.2527 9.03187 27.2412 9.00305C27.2297 8.98 27.2239 8.94541 27.2297 8.9166C27.2528 8.77251 27.3623 8.63995 27.5006 8.59961L27.564 8.58232C27.5986 8.57079 27.6331 8.56503 27.6677 8.5535C27.7023 8.54197 27.7369 8.53621 27.7715 8.52468C27.806 8.51315 27.8406 8.50739 27.8752 8.49587C27.9098 8.48434 27.9444 8.47857 27.979 8.46705C27.9905 8.46705 28.002 8.46128 28.0078 8.46128C28.0193 8.46128 28.0308 8.45552 28.0366 8.45552C28.0481 8.45552 28.0596 8.44976 28.0654 8.44976C28.0769 8.44976 28.0885 8.44399 28.0942 8.44399C28.1 8.44399 28.1057 8.43823 28.1115 8.43823C28.1173 8.43823 28.123 8.43247 28.1288 8.43247C28.1346 8.43247 28.1403 8.4267 28.1461 8.4267C28.1519 8.4267 28.1576 8.42094 28.1634 8.42094C28.3478 8.37483 28.5322 8.33449 28.7167 8.29414C28.9011 8.2538 29.0855 8.21922 29.2642 8.18464C29.4429 8.15006 29.6273 8.12124 29.8117 8.09242C29.9904 8.0636 30.1748 8.04055 30.3535 8.0175C30.3593 8.0175 30.365 8.0175 30.3708 8.0175C30.3766 8.0175 30.3823 8.0175 30.3881 8.0175C30.3938 8.0175 30.3996 8.0175 30.4054 8.0175C30.4111 8.0175 30.4169 8.0175 30.4227 8.0175C30.4284 8.0175 30.44 8.0175 30.4457 8.01173C30.4515 8.01173 30.463 8.01173 30.4688 8.00597C30.4745 8.00597 30.4861 8.00597 30.4918 8.00021C30.4976 8.00021 30.5091 8.00021 30.5149 7.99444C30.5322 7.99444 30.5552 7.98868 30.5725 7.98868C30.5898 7.98868 30.6129 7.98292 30.6301 7.98292C30.6474 7.98292 30.6705 7.97715 30.6878 7.97715C30.7051 7.97715 30.7281 7.97139 30.7454 7.97139C30.7454 7.97139 30.7454 7.97139 30.7512 7.97139C30.7512 7.97139 30.7512 7.97139 30.7569 7.97139C30.7569 7.97139 30.7569 7.97139 30.7627 7.97139C30.7627 7.97139 30.7627 7.97139 30.7685 7.97139C30.9068 7.96563 30.9702 8.08666 30.9241 8.20769C30.8837 8.34025 30.7569 8.44399 30.6301 8.47857L30.584 8.4901C30.3477 8.51316 30.1172 8.54197 29.8751 8.57655C29.6388 8.61114 29.3968 8.65148 29.1605 8.69759C28.9184 8.74369 28.6821 8.7898 28.44 8.84744C28.198 8.90507 27.9559 8.96271 27.7081 9.0261C27.7023 9.0261 27.7023 9.0261 27.6965 9.0261C27.6908 9.0261 27.6908 9.0261 27.685 9.0261C27.685 9.0261 27.6792 9.0261 27.6735 9.0261C27.6677 9.0261 27.6677 9.0261 27.662 9.0261C27.6447 9.03187 27.6274 9.03763 27.6101 9.03763C27.5928 9.04339 27.5755 9.04916 27.5582 9.04916C27.5409 9.05492 27.5236 9.06068 27.5063 9.06068C27.5179 9.07221 27.5006 9.07797 27.4833 9.08374Z" fill="#FEFEFE"/>
<path d="M8.85583 28.8466C8.85006 28.8812 8.83854 28.9158 8.81549 28.9504C8.7982 28.9849 8.76938 29.0195 8.74056 29.0541C8.71174 29.0829 8.67716 29.1117 8.64258 29.1348C8.608 29.1578 8.57342 29.1751 8.53307 29.1867C8.41204 29.2212 8.27948 29.1694 8.30254 29.0253C8.3083 28.9965 8.30829 28.9676 8.31406 28.9446C8.31406 28.9273 8.31983 28.91 8.31983 28.8927C8.31983 28.8754 8.32559 28.8581 8.32559 28.8408C8.32559 28.8236 8.33135 28.8063 8.33135 28.789C8.33135 28.7775 8.33712 28.7717 8.33712 28.7602C8.33712 28.7486 8.34288 28.7429 8.34288 28.7313C8.34288 28.7198 8.34864 28.714 8.34864 28.7025C8.34864 28.691 8.35441 28.6852 8.35441 28.6737C8.35441 28.6679 8.3544 28.6622 8.36017 28.6507C8.36017 28.6449 8.36016 28.6391 8.36593 28.6276C8.36593 28.6218 8.36593 28.6161 8.3717 28.6045C8.3717 28.5988 8.37169 28.593 8.37746 28.5815C8.37746 28.57 8.38323 28.5584 8.38323 28.5411C8.38323 28.5296 8.38899 28.5181 8.38899 28.5008C8.38899 28.4893 8.39475 28.4777 8.39475 28.4605C8.39475 28.4489 8.40052 28.4374 8.40052 28.4201C8.40052 28.4144 8.40052 28.4144 8.40052 28.4086C8.40052 28.4028 8.40052 28.4028 8.40052 28.3971C8.40052 28.3913 8.40052 28.3913 8.40052 28.3855C8.40052 28.3798 8.40052 28.3798 8.40052 28.374C8.40052 28.3625 8.40628 28.351 8.40628 28.3337C8.40628 28.3221 8.41204 28.3048 8.41204 28.2933C8.41204 28.2818 8.41781 28.2703 8.41781 28.253C8.41781 28.2414 8.42357 28.2299 8.42357 28.2126C8.42357 28.2069 8.42357 28.2069 8.42357 28.2011C8.42357 28.1953 8.42357 28.1953 8.42357 28.1896C8.42357 28.1838 8.42357 28.1838 8.42357 28.1781C8.42357 28.1723 8.42357 28.1723 8.42357 28.1665C8.42357 28.155 8.42933 28.1435 8.42933 28.1319C8.42933 28.1204 8.4351 28.1089 8.4351 28.0974C8.4351 28.0858 8.44086 28.0743 8.44086 28.0628C8.44086 28.0513 8.44662 28.0397 8.44662 28.0282C8.44662 28.0224 8.44662 28.0167 8.45238 28.0109C8.45238 28.0051 8.45238 27.9994 8.45815 27.9936C8.45815 27.9879 8.45815 27.9821 8.46391 27.9763C8.46391 27.9706 8.46391 27.9648 8.46967 27.959C8.46967 27.9475 8.47543 27.936 8.47543 27.9302C8.47543 27.9187 8.4812 27.9072 8.4812 27.9014C8.4812 27.8899 8.48696 27.8784 8.48696 27.8726C8.48696 27.8611 8.49272 27.8495 8.49272 27.8438C8.49272 27.838 8.49849 27.8322 8.49849 27.8207C8.49849 27.8149 8.50425 27.8092 8.50425 27.7977C8.50425 27.7919 8.51001 27.7861 8.51001 27.7746C8.51001 27.7688 8.51578 27.7573 8.51578 27.7516C8.51578 27.7458 8.52154 27.7343 8.52154 27.7285C8.52154 27.7227 8.52731 27.7112 8.52731 27.7054C8.52731 27.6997 8.53307 27.6882 8.53307 27.6824C8.53307 27.6766 8.53883 27.6651 8.53883 27.6593C8.53883 27.6478 8.5446 27.6363 8.5446 27.6305C8.5446 27.619 8.55036 27.6075 8.55036 27.6017C8.55036 27.5902 8.55612 27.5787 8.55612 27.5729C8.55612 27.5614 8.56189 27.5498 8.56189 27.5441C8.56189 27.5383 8.56189 27.5325 8.56765 27.5325C8.56765 27.5268 8.56765 27.521 8.57341 27.521C8.57341 27.5153 8.57342 27.5095 8.57918 27.5095C8.57918 27.5037 8.57918 27.498 8.58494 27.498C8.61952 27.3596 8.6541 27.2156 8.69445 27.0772C8.73479 26.9389 8.77514 26.7948 8.81549 26.6565C8.85583 26.5182 8.90193 26.3741 8.94227 26.2358C8.98838 26.0974 9.03449 25.9534 9.0806 25.815C9.0806 25.8093 9.08636 25.8093 9.08636 25.8035C9.08636 25.7977 9.08637 25.792 9.09213 25.792C9.09213 25.7862 9.09789 25.7862 9.09789 25.7804C9.09789 25.7747 9.10366 25.7747 9.10366 25.7689C9.11519 25.7401 9.13247 25.7171 9.15553 25.694C9.17282 25.6709 9.19587 25.6479 9.21893 25.6248C9.24198 25.6075 9.26503 25.5903 9.29385 25.573C9.3169 25.5614 9.34572 25.5499 9.37453 25.5384C9.39759 25.5326 9.41488 25.5269 9.43793 25.5269C9.47251 25.5269 9.50133 25.5269 9.53015 25.5384C9.5532 25.5499 9.57626 25.5672 9.59355 25.5845C9.61084 25.6075 9.61661 25.6306 9.61661 25.6594C9.61661 25.6882 9.61661 25.7228 9.59932 25.7574C9.51863 25.9937 9.43793 26.2358 9.36877 26.4721C9.29385 26.7084 9.23046 26.9504 9.16706 27.1867C9.10366 27.423 9.04602 27.6651 8.99991 27.9014C8.94804 28.1377 8.90193 28.374 8.86159 28.6103C8.86159 28.6103 8.86159 28.6103 8.86159 28.6161C8.86159 28.6161 8.86159 28.6161 8.86159 28.6218C8.86159 28.6218 8.86159 28.6218 8.86159 28.6276C8.86159 28.6276 8.86159 28.6276 8.86159 28.6334C8.86159 28.6507 8.85583 28.6679 8.85583 28.6852C8.85583 28.7025 8.85007 28.7198 8.85007 28.7371C8.85007 28.7544 8.8443 28.7717 8.8443 28.789C8.86159 28.812 8.86159 28.8293 8.85583 28.8466Z" fill="#FEFEFE"/>
<path d="M33.5804 8.46695C33.5458 8.46119 33.5228 8.44966 33.4997 8.43814C33.4767 8.42085 33.4594 8.3978 33.4536 8.37474C33.4421 8.35169 33.4421 8.31711 33.4478 8.28829C33.4536 8.25371 33.4651 8.21913 33.4824 8.18455C33.4997 8.15573 33.517 8.13267 33.5343 8.10962C33.5574 8.08656 33.5746 8.06351 33.6035 8.04622C33.6265 8.02893 33.6496 8.01164 33.6784 7.99435C33.7014 7.98282 33.7303 7.9713 33.7591 7.95977C33.7648 7.95977 33.7764 7.95401 33.7821 7.95401C33.7879 7.95401 33.7994 7.95401 33.8052 7.94824C33.8109 7.94824 33.8225 7.94824 33.8282 7.94824C33.834 7.94824 33.8455 7.94824 33.8513 7.94824C34.7965 8.04622 35.7302 8.24794 36.6293 8.56493C36.635 8.56493 36.635 8.5707 36.6408 8.5707C36.6466 8.5707 36.6466 8.57646 36.6523 8.57646C36.6581 8.57646 36.6581 8.58222 36.6639 8.58222C36.6696 8.58222 36.6696 8.58799 36.6754 8.58799C36.7791 8.66868 36.733 8.81276 36.6696 8.89921L36.4276 9.07212L36.2835 9.07788C36.076 9.00296 35.8627 8.93379 35.6437 8.8704C35.4247 8.807 35.2057 8.74937 34.9809 8.69749C34.7562 8.64562 34.5314 8.59951 34.3008 8.56493C34.053 8.52459 33.8167 8.49577 33.5804 8.46695C33.5458 8.46695 33.8167 8.49577 33.5804 8.46695Z" fill="#FEFEFE"/>
<path d="M8.67654 31.8263C8.68806 32.0626 8.71112 32.2931 8.73418 32.5236C8.75723 32.7542 8.79181 32.979 8.83215 33.2037C8.8725 33.4285 8.91284 33.6475 8.96471 33.8665C9.01658 34.0855 9.07422 34.2988 9.13762 34.512C9.18372 34.6561 9.05116 34.8175 8.93589 34.8867L8.83791 34.9328C8.81486 34.9385 8.79181 34.9443 8.76875 34.9443C8.7457 34.9443 8.72841 34.9443 8.71112 34.9385C8.69383 34.9328 8.67654 34.927 8.65925 34.9155C8.64196 34.904 8.63043 34.8924 8.62467 34.8751C8.6189 34.8636 8.61314 34.8521 8.60738 34.8406C8.55551 34.6734 8.5094 34.5005 8.46329 34.3218C8.41718 34.1489 8.37684 33.9703 8.34226 33.7916C8.30767 33.6129 8.27309 33.4343 8.25004 33.2498C8.22122 33.0654 8.19817 32.881 8.18088 32.6965C8.18088 32.6908 8.18088 32.6908 8.18088 32.685C8.18088 32.6793 8.18088 32.6793 8.18088 32.6735C8.18088 32.6677 8.18088 32.6677 8.18088 32.662C8.18088 32.6562 8.18088 32.6562 8.18088 32.6504C8.18088 32.6447 8.18088 32.6389 8.18088 32.6274C8.18088 32.6216 8.18088 32.6159 8.18088 32.6043C8.18088 32.5986 8.18088 32.5928 8.18088 32.5813C8.18088 32.5755 8.18088 32.5698 8.18088 32.5582C8.17512 32.5179 8.17511 32.4718 8.16935 32.4314C8.16359 32.3911 8.16359 32.345 8.15783 32.3046C8.15783 32.2643 8.15206 32.2182 8.15206 32.1778C8.15206 32.1375 8.1463 32.0914 8.1463 32.051C8.14054 31.8954 8.27309 31.7456 8.41141 31.6879C8.41718 31.6879 8.41718 31.6822 8.42294 31.6822C8.42871 31.6822 8.42871 31.6764 8.43447 31.6764C8.44024 31.6764 8.44024 31.6764 8.446 31.6707C8.45177 31.6707 8.45176 31.6707 8.45752 31.6649C8.48634 31.6591 8.51516 31.6534 8.54398 31.6591C8.5728 31.6591 8.59585 31.6707 8.61314 31.6822C8.63619 31.6937 8.65348 31.711 8.66501 31.7341C8.66501 31.7686 8.67077 31.7975 8.67654 31.8263C8.68806 32.0568 8.67077 31.7975 8.67654 31.8263Z" fill="#FEFEFE"/>
<path d="M40.3469 12.023C40.2201 11.8559 40.0875 11.6945 39.9492 11.5331C39.8109 11.3775 39.6668 11.2219 39.5169 11.0778C39.3671 10.9337 39.2115 10.7897 39.0501 10.6571C38.8887 10.5245 38.7216 10.392 38.5487 10.2709C38.4219 10.1787 38.5141 9.99431 38.5948 9.91362C38.6121 9.89633 38.6294 9.87904 38.6466 9.86751C38.6639 9.85598 38.6812 9.83869 38.6985 9.82717C38.7158 9.81564 38.7331 9.80411 38.7504 9.79835C38.7677 9.79258 38.785 9.78106 38.8023 9.78106C38.8138 9.77529 38.8253 9.77529 38.8368 9.77529C38.8484 9.77529 38.8599 9.77529 38.8714 9.76953C38.8829 9.76953 38.8945 9.76953 38.906 9.76953C38.9175 9.76953 38.9291 9.77529 38.9348 9.77529C38.9521 9.78106 38.9694 9.78682 38.9809 9.79259C39.1596 9.91938 39.3325 10.0519 39.4996 10.1903C39.6668 10.3286 39.8281 10.4784 39.9838 10.6283C40.1394 10.7781 40.2892 10.9337 40.4333 11.0951C40.5774 11.2565 40.7157 11.4236 40.8425 11.5908C40.8483 11.5965 40.8483 11.5965 40.854 11.6023C40.854 11.6081 40.8598 11.6138 40.8598 11.6138C40.8598 11.6196 40.8656 11.6254 40.8656 11.6254C40.8656 11.6311 40.8713 11.6369 40.8713 11.6427C40.9002 11.7637 40.8137 11.8905 40.7273 11.9654L40.5601 12.0576L40.3469 12.023Z" fill="#FEFEFE"/>
<path d="M10.2277 36.8232C10.683 37.5321 11.2594 38.1545 11.9049 38.6963C12.0144 38.8001 11.9279 38.9787 11.8473 39.0652L11.6398 39.192L11.4726 39.1689H11.4553C11.2882 39.0306 11.1268 38.8865 10.9712 38.7367C10.8156 38.5868 10.6657 38.4312 10.5217 38.2698C10.3776 38.1084 10.2393 37.9413 10.1067 37.7742C9.97413 37.6013 9.84734 37.4283 9.73207 37.2439C9.73207 37.2382 9.7263 37.2382 9.7263 37.2324C9.7263 37.2266 9.72054 37.2266 9.72054 37.2209C9.72054 37.2151 9.71478 37.2093 9.71478 37.2093C9.71478 37.2036 9.71477 37.1978 9.70901 37.1978C9.68019 37.0768 9.77241 36.9442 9.85887 36.8693C9.87039 36.8578 9.88768 36.8462 9.89921 36.8405C9.91073 36.8289 9.92803 36.8232 9.93955 36.8174C9.95108 36.8117 9.96837 36.8059 9.97989 36.8001C9.99142 36.7944 10.0087 36.7886 10.0202 36.7886C10.0894 36.754 10.1759 36.7598 10.2277 36.8232C10.343 37.0019 10.2162 36.8117 10.2277 36.8232Z" fill="#FEFEFE"/>
<path d="M42.4214 17.0544C42.3926 17.0602 42.3696 17.0659 42.3408 17.0659C42.3177 17.0659 42.2946 17.0602 42.2716 17.0486C42.2485 17.0371 42.2312 17.0256 42.214 17.014C42.1967 16.9968 42.1851 16.9795 42.1794 16.9564C42.1794 16.9449 42.1736 16.9391 42.1736 16.9276C42.1621 16.7835 42.1448 16.6452 42.1217 16.5069C42.1045 16.3685 42.0814 16.2302 42.0583 16.0919C42.0353 15.9536 42.0065 15.821 41.9777 15.6827C41.9488 15.5444 41.92 15.4118 41.8854 15.285C41.8624 15.1986 41.8393 15.1121 41.8163 15.0257C41.7932 14.9392 41.7702 14.8528 41.7413 14.7721C41.7183 14.6856 41.6895 14.6049 41.6607 14.5185C41.6318 14.4378 41.603 14.3513 41.5742 14.2706C41.5166 14.1266 41.6434 13.9709 41.7586 13.9018C41.7702 13.896 41.7759 13.8903 41.7875 13.8845C41.799 13.8787 41.8048 13.873 41.8163 13.873C41.8278 13.8672 41.8336 13.8672 41.8451 13.8614C41.8566 13.8557 41.8624 13.8557 41.8739 13.8499C41.897 13.8441 41.92 13.8384 41.9431 13.8384C41.9661 13.8384 41.9834 13.8384 42.0007 13.8441C42.018 13.8499 42.0353 13.8557 42.0526 13.8614C42.0699 13.873 42.0814 13.8845 42.0929 13.896C42.0929 13.896 42.0987 13.9018 42.0987 13.9075C42.0987 13.9133 42.1045 13.9133 42.1045 13.9191C42.1045 13.9248 42.1102 13.9248 42.1102 13.9306C42.1102 13.9364 42.116 13.9364 42.116 13.9421C42.1967 14.1496 42.2716 14.3686 42.335 14.5876C42.3984 14.8066 42.4618 15.0314 42.5137 15.262C42.5655 15.4925 42.6116 15.723 42.652 15.9593C42.6923 16.1956 42.7211 16.4377 42.75 16.6798C42.75 16.6855 42.75 16.6855 42.75 16.6913C42.75 16.6971 42.75 16.6971 42.75 16.7028C42.75 16.7086 42.75 16.7143 42.75 16.7143C42.75 16.7201 42.75 16.7259 42.75 16.7259C42.7327 16.8642 42.6116 16.9852 42.4906 17.0429L42.4214 17.0544Z" fill="#FEFEFE"/>
<path d="M42.6929 19.7229C42.6929 19.7286 42.6929 19.7286 42.6929 19.7344C42.6872 19.7748 42.6814 19.8209 42.6757 19.8612C42.6757 19.8785 42.6699 19.8958 42.6699 19.9131C42.6699 19.9304 42.6641 19.9477 42.6641 19.9649C42.6641 19.9822 42.6584 19.9995 42.6584 20.0168V20.0226C42.6584 20.0283 42.6584 20.0283 42.6584 20.0341C42.6584 20.0399 42.6584 20.0399 42.6584 20.0456C42.6584 20.0456 42.6584 20.0514 42.6584 20.0572C42.6584 20.0687 42.6526 20.086 42.6526 20.0975C42.6526 20.109 42.6468 20.1263 42.6468 20.1379C42.6468 20.1494 42.6411 20.1667 42.6411 20.1782C42.6411 20.1897 42.6353 20.207 42.6353 20.2185C42.6353 20.2301 42.6353 20.2358 42.6295 20.2474C42.6295 20.2589 42.6295 20.2646 42.6238 20.2762C42.6238 20.2877 42.6238 20.2935 42.618 20.305C42.618 20.3165 42.618 20.3223 42.6123 20.3338C42.6123 20.3396 42.6123 20.3511 42.6065 20.3569C42.6065 20.3626 42.6065 20.3742 42.6007 20.3799C42.6007 20.3857 42.6007 20.3972 42.595 20.403C42.595 20.4087 42.595 20.4203 42.5892 20.426C42.5892 20.4376 42.5834 20.4491 42.5834 20.4548C42.5834 20.4664 42.5777 20.4779 42.5777 20.4837C42.5777 20.4952 42.5719 20.5067 42.5719 20.5125C42.5719 20.524 42.5662 20.5355 42.5662 20.5413C42.5662 20.5471 42.5661 20.5528 42.5604 20.5586C42.5604 20.5644 42.5604 20.5701 42.5604 20.5759C42.5604 20.5816 42.5604 20.5874 42.5546 20.5932C42.5546 20.5989 42.5546 20.6047 42.5489 20.6105C42.5489 20.622 42.5431 20.6335 42.5431 20.645C42.5431 20.6566 42.5373 20.6681 42.5373 20.6796C42.5373 20.6911 42.5316 20.7027 42.5316 20.7142C42.5316 20.7257 42.5258 20.7373 42.5258 20.7488C42.5258 20.7545 42.5258 20.7603 42.52 20.7661C42.52 20.7718 42.52 20.7776 42.52 20.7834C42.52 20.7891 42.52 20.7949 42.5143 20.8007C42.5143 20.8064 42.5143 20.8122 42.5143 20.8179C42.5143 20.8295 42.5085 20.841 42.5085 20.8525C42.5085 20.864 42.5028 20.8756 42.5028 20.8871C42.5028 20.8986 42.497 20.9102 42.497 20.9217C42.497 20.9332 42.4912 20.9447 42.4912 20.9563C42.4912 20.962 42.4912 20.9678 42.4855 20.9736C42.4855 20.9793 42.4855 20.9851 42.4797 20.9908C42.4797 20.9966 42.4797 21.0024 42.4739 21.0081C42.4739 21.0139 42.4739 21.0197 42.4682 21.0254C42.4682 21.037 42.4624 21.0485 42.4624 21.06C42.4624 21.0715 42.4566 21.0831 42.4566 21.0946C42.4566 21.1061 42.4509 21.1176 42.4509 21.1292C42.4509 21.1407 42.4451 21.1522 42.4451 21.1637C42.4451 21.1695 42.4451 21.1753 42.4394 21.1868C42.4394 21.1926 42.4393 21.1983 42.4336 21.2099C42.4336 21.2156 42.4336 21.2214 42.4278 21.2329C42.4278 21.2387 42.4278 21.2444 42.4221 21.256C42.4221 21.2675 42.4163 21.279 42.4163 21.2848C42.4163 21.2963 42.4105 21.3078 42.4105 21.3136C42.4105 21.3251 42.4048 21.3367 42.4048 21.3424C42.4048 21.3539 42.399 21.3655 42.399 21.3712C42.399 21.377 42.3932 21.3828 42.3932 21.3943C42.3932 21.4001 42.3932 21.4058 42.3875 21.4173C42.3875 21.4231 42.3817 21.4346 42.3817 21.4404C42.3817 21.4462 42.376 21.4577 42.376 21.4635C42.376 21.475 42.3702 21.4807 42.3702 21.4923C42.3702 21.5038 42.3644 21.5096 42.3644 21.5211C42.3644 21.5326 42.3587 21.5384 42.3587 21.5499C42.3587 21.5614 42.3529 21.5672 42.3529 21.5787C42.3529 21.5902 42.3471 21.596 42.3471 21.6075C42.3471 21.6191 42.3414 21.6248 42.3414 21.6364C42.3414 21.6479 42.3356 21.6536 42.3356 21.6652C42.3356 21.6709 42.3298 21.6825 42.3298 21.6882C42.3298 21.694 42.3241 21.7055 42.3241 21.7113C42.3241 21.717 42.3183 21.7228 42.3183 21.7343C42.3183 21.7401 42.3126 21.7459 42.3126 21.7574C42.3126 21.7631 42.3068 21.7747 42.3068 21.7804C42.3068 21.792 42.301 21.8035 42.301 21.815C42.301 21.8266 42.2953 21.8381 42.2953 21.8496C42.2953 21.8611 42.2895 21.8727 42.2895 21.8842C42.2895 21.8957 42.2837 21.9072 42.2837 21.9188C42.2837 21.9245 42.2837 21.9303 42.278 21.9361C42.278 21.9418 42.278 21.9476 42.2722 21.9533C42.2722 21.9591 42.2722 21.9649 42.2664 21.9706C42.2664 21.9764 42.2665 21.9822 42.2607 21.9879C42.2549 21.9995 42.2549 22.011 42.2492 22.0283C42.2434 22.0398 42.2434 22.0571 42.2376 22.0686C42.2319 22.0801 42.2319 22.0974 42.2261 22.109C42.2203 22.1205 42.2203 22.1378 42.2146 22.1493C42.2146 22.1493 42.2146 22.1551 42.2146 22.1608C42.2146 22.1666 42.2146 22.1666 42.2146 22.1724C42.2146 22.1781 42.2146 22.1781 42.2146 22.1839C42.2146 22.1839 42.2146 22.1896 42.2146 22.1954C42.2088 22.2127 42.2088 22.2242 42.203 22.2415C42.1973 22.2588 42.1973 22.2703 42.1915 22.2876C42.1858 22.3049 42.1858 22.3164 42.18 22.3337C42.1742 22.351 42.1742 22.3626 42.1685 22.3798C42.1685 22.3798 42.1685 22.3798 42.1685 22.3856C42.1685 22.3856 42.1685 22.3856 42.1685 22.3914C42.1685 22.3914 42.1685 22.3914 42.1685 22.3971C42.1685 22.3971 42.1685 22.3971 42.1685 22.4029C42.0993 22.645 42.0244 22.887 41.9495 23.1291C41.9495 23.1291 41.9495 23.1291 41.9495 23.1349C41.9495 23.1349 41.9495 23.1349 41.9495 23.1406C41.9495 23.1406 41.9495 23.1406 41.9495 23.1464C41.9495 23.1464 41.9495 23.1464 41.9495 23.1521C41.9033 23.2789 41.7823 23.3827 41.6555 23.4173L41.6037 23.4288C41.5633 23.4346 41.5287 23.4288 41.4999 23.4173C41.4711 23.4057 41.448 23.3884 41.4307 23.3654C41.4135 23.3423 41.4077 23.3135 41.4019 23.2847C41.4019 23.2501 41.4019 23.2155 41.4135 23.181V23.1752V23.1694V23.1637V23.1579C41.4884 22.9274 41.5575 22.6968 41.6209 22.4663C41.6843 22.2358 41.7477 22.0052 41.7996 21.7747C41.8515 21.5441 41.9033 21.3136 41.9495 21.0888C41.9956 20.8583 42.0359 20.6335 42.0705 20.4087C42.0705 20.3914 42.0763 20.3742 42.0763 20.3626C42.0763 20.3453 42.082 20.328 42.082 20.3165C42.082 20.2992 42.0878 20.2877 42.0878 20.2704C42.0878 20.2531 42.0935 20.2416 42.0935 20.2243C42.1051 20.1609 42.1108 20.0917 42.1224 20.0283C42.1281 19.9707 42.1397 19.9016 42.1685 19.8497C42.1858 19.8151 42.2088 19.7805 42.2376 19.7517C42.2664 19.7229 42.2953 19.6941 42.3298 19.6768C42.3644 19.6537 42.399 19.6364 42.4394 19.6307C42.4797 19.6191 42.5143 19.6191 42.5489 19.6191C42.5834 19.6249 42.6065 19.6307 42.6295 19.648C42.6526 19.6653 42.6699 19.6825 42.6814 19.7114C42.6872 19.6595 42.6929 19.6883 42.6929 19.7229Z" fill="#FEFEFE"/>
<path d="M22.9756 40.3386C23.016 40.3271 23.0506 40.3271 23.0794 40.3329C23.114 40.3387 23.1428 40.3502 23.1658 40.3675C23.1889 40.3848 23.2062 40.4078 23.2177 40.4366C23.2292 40.4654 23.235 40.5 23.2292 40.5346C23.2062 40.6902 23.0679 40.8343 22.9238 40.8747L22.9007 40.8804C22.7105 40.9265 22.5146 40.9784 22.3244 41.0187C22.1457 41.0591 21.967 41.0994 21.7884 41.134C21.6097 41.1686 21.431 41.2032 21.2524 41.232C21.0737 41.2608 20.895 41.2896 20.7164 41.3127H20.7106H20.7048H20.6991H20.6933C20.6818 41.3127 20.6645 41.3184 20.653 41.3184C20.6414 41.3184 20.6241 41.3242 20.6126 41.3242C20.6011 41.3242 20.5838 41.33 20.5723 41.33C20.5607 41.33 20.5435 41.3357 20.5319 41.3357C20.5262 41.3357 20.5146 41.3357 20.5089 41.3357C20.5031 41.3357 20.4916 41.3357 20.4858 41.3357C20.4801 41.3357 20.4685 41.3357 20.4628 41.3357C20.457 41.3357 20.4455 41.3357 20.4397 41.3357C20.434 41.3357 20.4224 41.3357 20.4167 41.3357C20.4109 41.3357 20.4051 41.3357 20.3936 41.3357C20.3878 41.3357 20.3763 41.3357 20.3705 41.3357C20.3648 41.3357 20.359 41.3357 20.3475 41.3357C20.336 41.3357 20.3187 41.3415 20.3071 41.3415C20.2956 41.3415 20.2783 41.3473 20.2668 41.3473C20.2553 41.3473 20.238 41.353 20.2265 41.353C20.2149 41.353 20.1976 41.3588 20.1861 41.3588C20.1343 41.3645 20.0824 41.3703 20.0305 41.3761C19.9786 41.3818 19.9268 41.3876 19.8749 41.3876C19.823 41.3934 19.7769 41.3934 19.725 41.3991C19.6732 41.4049 19.6271 41.4049 19.5752 41.4107C19.5406 41.4107 19.506 41.4049 19.483 41.3934C19.4542 41.3818 19.4369 41.3646 19.4196 41.3357C19.4023 41.3127 19.3965 41.2839 19.3965 41.2493C19.3965 41.2147 19.4023 41.1801 19.4138 41.1455C19.4253 41.111 19.4426 41.0821 19.4599 41.0476C19.4772 41.0187 19.506 40.9899 19.5291 40.9611C19.5579 40.9381 19.5867 40.915 19.6155 40.8977C19.6444 40.8804 19.6789 40.8689 19.7078 40.8574C19.7078 40.8574 19.7078 40.8574 19.7135 40.8574H19.7193C19.7193 40.8574 19.7193 40.8574 19.725 40.8574H19.7308H19.7366H19.7423H19.7481H19.7539C19.9959 40.8401 20.2438 40.817 20.4916 40.7882C20.7394 40.7594 20.9872 40.7248 21.2408 40.6845C21.4944 40.6441 21.748 40.598 22.0016 40.5461C22.2552 40.4943 22.5088 40.4366 22.7682 40.379C22.7854 40.3732 22.8027 40.3732 22.82 40.3675C22.8373 40.3617 22.8546 40.3559 22.8719 40.3559C22.8892 40.3502 22.9065 40.3444 22.9238 40.3444C22.9411 40.3502 22.9583 40.3444 22.9756 40.3386Z" fill="#FEFEFE"/>
<path d="M39.3903 27.5615C39.373 27.596 39.3557 27.6249 39.3384 27.6537C39.3212 27.6825 39.3039 27.7113 39.2866 27.7401C39.2693 27.7689 39.252 27.792 39.2405 27.8208C39.2232 27.8496 39.2117 27.8727 39.1944 27.8957C38.5489 28.9562 37.8169 29.9879 37.01 30.9792C36.2031 31.9705 35.3213 32.9157 34.3819 33.8033C33.4424 34.6909 32.4396 35.5208 31.3964 36.2816C30.3532 37.0366 29.2639 37.7225 28.14 38.3161C28.117 38.3276 28.0939 38.3391 28.0766 38.3507C28.0536 38.3622 28.0363 38.3737 28.019 38.3795C28.0017 38.391 27.9844 38.3968 27.9671 38.4083C27.9498 38.4141 27.9383 38.4256 27.921 38.4314C27.898 38.4429 27.8749 38.4544 27.8576 38.4659C27.8346 38.4775 27.8173 38.489 27.7942 38.5005C27.7712 38.512 27.7539 38.5236 27.7308 38.5351C27.7078 38.5466 27.6847 38.5582 27.6674 38.5697C27.6559 38.5754 27.6444 38.5812 27.6329 38.587C27.6213 38.5927 27.6098 38.5985 27.5983 38.6043C27.5868 38.61 27.5752 38.6158 27.5637 38.6216C27.5522 38.6273 27.5406 38.6331 27.5291 38.6388C27.5061 38.6504 27.483 38.6619 27.4657 38.6734C27.4427 38.6849 27.4254 38.6965 27.4023 38.7022C27.3793 38.7138 27.362 38.7253 27.3389 38.7311C27.3159 38.7426 27.2928 38.7541 27.2755 38.7599C26.924 38.927 26.5781 39.0884 26.2208 39.2382C25.8692 39.3881 25.5119 39.5322 25.1546 39.6647C24.7972 39.7973 24.4399 39.9183 24.0768 40.0336C23.7195 40.1489 23.3564 40.2468 22.9933 40.3391C22.976 40.3448 22.9587 40.3506 22.9414 40.3506C22.9241 40.3564 22.9068 40.3621 22.8895 40.3621C22.8722 40.3679 22.8549 40.3736 22.8376 40.3736C22.8204 40.3794 22.8031 40.3794 22.7858 40.3852C22.5322 40.4486 22.2728 40.5062 22.0192 40.5523C21.7656 40.6042 21.5121 40.6503 21.2585 40.6906C21.0049 40.731 20.757 40.7656 20.5092 40.7944C20.2614 40.8232 20.0136 40.8462 19.7715 40.8635C17.8984 40.9846 16.1981 40.7656 14.7285 40.2469C13.2645 39.7281 12.0196 38.9097 11.0456 37.8435C10.0773 36.783 9.38573 35.4689 9.00534 33.9531C8.63071 32.4431 8.56732 30.7256 8.86702 28.8467C8.86702 28.8294 8.87278 28.8121 8.87278 28.7948C8.87278 28.7776 8.87855 28.7603 8.87855 28.743C8.87855 28.7257 8.88431 28.7084 8.88431 28.6911C8.88431 28.6738 8.89007 28.6565 8.89007 28.6392C9.18977 26.9102 9.77765 25.1696 10.5845 23.4867C11.3972 21.8038 12.4346 20.1669 13.6507 18.6281C14.8668 17.095 16.2558 15.6599 17.7716 14.3747C19.2874 13.0894 20.9357 11.9598 22.659 11.0376C22.7512 10.9857 22.8434 10.9396 22.9414 10.8878C23.0336 10.8417 23.1258 10.7898 23.2238 10.7437C23.316 10.6976 23.414 10.6515 23.5062 10.6054C23.5984 10.5592 23.6964 10.5131 23.7886 10.467C23.8174 10.4497 23.852 10.4382 23.8751 10.4267C23.9039 10.4152 23.9269 10.4036 23.95 10.3921C23.9731 10.3806 23.9961 10.3691 24.0134 10.3633C24.0365 10.3518 24.0537 10.346 24.0768 10.3345C24.3534 10.2077 24.6358 10.0866 24.9183 9.96561C25.2007 9.85034 25.4831 9.73507 25.7655 9.63133C26.0479 9.52758 26.3361 9.42961 26.6242 9.33163C26.9124 9.23941 27.2006 9.15296 27.4888 9.07227C27.5061 9.06651 27.5233 9.06074 27.5406 9.06074C27.5579 9.05498 27.5752 9.04922 27.5925 9.04922C27.6098 9.04346 27.6271 9.03769 27.6444 9.03769C27.6617 9.03193 27.679 9.02617 27.6963 9.02617C29.4887 8.5478 31.1832 8.3576 32.7335 8.421C34.2897 8.4844 35.7075 8.80715 36.9408 9.35468C38.18 9.90798 39.2405 10.6976 40.0819 11.6889C40.9234 12.686 41.5459 13.8905 41.9032 15.2738C41.9378 15.4063 41.9666 15.5389 41.9954 15.6714C42.0242 15.804 42.0473 15.9423 42.0761 16.0806C42.0991 16.219 42.1222 16.3573 42.1395 16.4956C42.1568 16.6339 42.1741 16.778 42.1914 16.9163C42.2144 17.1584 42.2317 17.4062 42.2432 17.6483C42.2548 17.8961 42.2548 18.144 42.2548 18.3976C42.249 18.6512 42.2375 18.9047 42.2202 19.1641C42.2029 19.4235 42.1741 19.6828 42.1395 19.9537C42.1395 19.971 42.1337 19.9883 42.1337 20.0056C42.1337 20.0229 42.128 20.0401 42.128 20.0574C42.128 20.0747 42.1222 20.092 42.1222 20.1093C42.1222 20.1266 42.1164 20.1439 42.1164 20.1612C42.1164 20.1785 42.1107 20.19 42.1107 20.2073C42.1107 20.2246 42.1049 20.2361 42.1049 20.2534C42.1049 20.2707 42.0992 20.2822 42.0992 20.2995C42.0992 20.3168 42.0934 20.3283 42.0934 20.3456C42.0588 20.5704 42.0185 20.8009 41.9724 21.0257C41.9262 21.2562 41.8744 21.481 41.8225 21.7116C41.7706 21.9421 41.7072 22.1726 41.6438 22.4032C41.5804 22.6337 41.5113 22.8642 41.4363 23.0948C41.3499 23.3657 41.2577 23.6365 41.1539 23.9074C41.056 24.1783 40.9465 24.4492 40.837 24.7143C40.7274 24.9852 40.6064 25.2503 40.4796 25.5212C40.3528 25.7863 40.226 26.0572 40.0877 26.3223C40.0301 26.4318 39.9724 26.5413 39.9206 26.6451C39.8629 26.7488 39.8111 26.8526 39.7534 26.9563C39.6958 27.06 39.6382 27.158 39.5863 27.2618C39.5056 27.3597 39.448 27.4577 39.3903 27.5615C39.3673 27.5903 39.448 27.4577 39.3903 27.5615Z" fill="#A2000C"/>
<path d="M31.3106 36.8867C31.0166 37.0942 30.7227 37.2959 30.423 37.4919L31.3106 36.8867Z" fill="#6D1627"/>
<path d="M35.868 32.3909C35.8853 32.3852 35.9026 32.3852 35.9199 32.3794C35.9372 32.3794 35.9544 32.3794 35.9717 32.3794C35.989 32.3794 36.0006 32.3852 36.0178 32.3909C36.0294 32.3967 36.0467 32.4024 36.0582 32.414C36.0812 32.4313 36.0928 32.4486 36.1043 32.4716C36.1158 32.4947 36.1216 32.5235 36.1216 32.5523C36.1216 32.5811 36.1158 32.6099 36.1043 32.6387C36.0928 32.6676 36.0812 32.7021 36.0582 32.731C36.0524 32.7367 36.0524 32.7425 36.0467 32.7483C36.0409 32.754 36.0409 32.7598 36.0351 32.7655C36.0294 32.7713 36.0294 32.7771 36.0236 32.7828C36.0178 32.7886 36.0121 32.7944 36.0063 32.8001C35.0842 33.7799 34.0986 34.7021 33.0612 35.5608L33.0266 35.5781L32.8941 35.6415L32.675 35.5839C32.6577 35.5608 32.652 35.5262 32.6462 35.4974C32.6462 35.4628 32.652 35.4283 32.6635 35.3937C32.675 35.3591 32.6923 35.3245 32.7154 35.2899C32.7384 35.2554 32.7672 35.2208 32.8076 35.192C33.0612 34.9845 33.309 34.777 33.5511 34.5638C33.7932 34.3505 34.0352 34.1315 34.2773 33.9067C34.5136 33.6819 34.7499 33.4572 34.9804 33.2266C35.211 32.9961 35.4357 32.7598 35.6605 32.5235C35.6778 32.5062 35.6951 32.4889 35.7124 32.4774C35.7297 32.4658 35.747 32.4486 35.7643 32.4428C35.7815 32.4313 35.7988 32.4197 35.8161 32.414C35.8276 32.4024 35.8507 32.3967 35.868 32.3909Z" fill="#FEFEFE"/>
<path d="M24.2213 9.80417C24.2155 9.80417 24.2098 9.80417 24.2098 9.80994C24.204 9.80994 24.1982 9.8157 24.1982 9.8157C24.1925 9.8157 24.1867 9.82146 24.1867 9.82146C24.181 9.82146 24.1752 9.82723 24.1694 9.82723C23.4144 10.1673 22.6767 10.5477 21.9563 10.9569C23.7026 9.95978 25.5642 9.14714 27.5065 8.59961C27.4661 8.61114 27.4316 8.62842 27.4027 8.65148C27.3739 8.67453 27.3451 8.69758 27.3221 8.7264C27.299 8.75522 27.2817 8.78404 27.2644 8.81862C27.2471 8.8532 27.2414 8.88202 27.2356 8.9166C27.2125 9.06645 27.3739 9.11832 27.4892 9.0895C26.3192 9.41802 25.1838 9.84452 24.0772 10.3459C24.0887 10.3402 24.1003 10.3344 24.106 10.3286C24.1176 10.3229 24.1291 10.3171 24.1348 10.3114C24.1464 10.3056 24.1579 10.2998 24.1637 10.2941C24.1752 10.2883 24.1867 10.2825 24.1925 10.2768C24.2328 10.2595 24.2674 10.2364 24.2962 10.2134C24.3308 10.1846 24.3539 10.1557 24.3827 10.1212C24.4057 10.0866 24.423 10.052 24.4346 10.0232C24.4461 9.9886 24.4518 9.95402 24.4518 9.9252C24.4518 9.89639 24.4403 9.87334 24.4288 9.85604C24.4173 9.83875 24.4 9.82146 24.3769 9.80994C24.3539 9.79841 24.3308 9.79265 24.302 9.79265C24.2847 9.79265 24.2559 9.79841 24.2213 9.80417Z" fill="#A2000C"/>
<path d="M9.4084 25.5497C9.37958 25.5555 9.35653 25.567 9.32771 25.5843C9.30466 25.5958 9.27584 25.6131 9.25279 25.6362C9.22973 25.6534 9.20668 25.6765 9.18939 25.7053C9.1721 25.7284 9.15481 25.7572 9.13752 25.7802C9.51214 24.7025 9.97898 23.6593 10.5092 22.6507C10.4746 22.7487 10.5092 22.8697 10.6245 22.887L10.7282 22.8755C10.8435 22.8466 10.9415 22.7602 10.9934 22.6564C11.5582 21.596 12.1979 20.5758 12.9011 19.6076C12.9645 19.5211 13.0279 19.3367 12.8895 19.2791C12.8434 19.2618 12.7916 19.2618 12.7454 19.2791C12.7282 19.2848 12.7109 19.2906 12.6993 19.2963C12.682 19.3021 12.6648 19.3136 12.6532 19.3194C12.6359 19.3309 12.6244 19.3367 12.6071 19.3482C12.5898 19.3597 12.5783 19.3713 12.5668 19.3828C13.2872 18.3972 14.0653 17.4578 14.901 16.5645C14.8491 16.6394 14.803 16.7835 14.901 16.8526L15.0796 16.8699L15.2814 16.7431C16.1344 15.8325 17.0565 14.9795 18.019 14.1841C18.1055 14.1092 18.2323 13.9363 18.14 13.8153C18.1285 13.798 18.117 13.7865 18.0997 13.7807C18.0824 13.7692 18.0709 13.7634 18.0536 13.7634C18.0363 13.7577 18.019 13.7577 17.996 13.7577C17.9787 13.7577 17.9556 13.7634 17.9326 13.7692C17.9268 13.7692 17.9153 13.7749 17.9095 13.7749C17.9037 13.7807 17.8922 13.7807 17.8865 13.7865C17.8807 13.7922 17.8692 13.7922 17.8634 13.798C17.8576 13.8038 17.8461 13.8095 17.8403 13.8095C18.8028 13.0142 19.8114 12.2822 20.8662 11.6136C20.7682 11.6828 20.6529 11.8269 20.699 11.9595C20.7278 12.0574 20.8431 12.0747 20.9238 12.0517L21.0218 11.9998C21.5578 11.6655 22.1053 11.3485 22.6644 11.0488C16.1113 14.5645 10.198 21.1407 8.89545 28.6389C9.06259 27.6707 9.31042 26.7139 9.63894 25.786C9.65046 25.7514 9.65623 25.7168 9.65623 25.688C9.65623 25.6592 9.6447 25.6304 9.63318 25.6131C9.61589 25.59 9.5986 25.5728 9.56978 25.567C9.54672 25.5555 9.51214 25.5555 9.47756 25.5555C9.44874 25.5439 9.42569 25.5439 9.4084 25.5497Z" fill="#6D1627"/>
<path d="M41.8921 15.2734C41.1947 12.553 39.3158 10.3514 36.7223 9.26208C33.9962 8.11515 30.8896 8.23042 28.0655 8.93357C28.9012 8.72608 29.7485 8.57047 30.6072 8.48402L30.6533 8.47249C30.7801 8.43791 30.9069 8.3284 30.9473 8.20161C30.9876 8.08057 30.93 7.95954 30.7917 7.9653C31.806 7.86156 32.8377 7.85004 33.8521 7.95954C33.8175 7.95378 33.7887 7.95954 33.7598 7.97107C33.731 7.97683 33.708 7.98836 33.6792 8.00565C33.6503 8.01717 33.6273 8.03447 33.6042 8.05752C33.5812 8.07481 33.5581 8.09787 33.5351 8.12092C33.512 8.14397 33.4947 8.17279 33.4832 8.19584C33.4659 8.23042 33.4544 8.265 33.4486 8.29959C33.4429 8.33417 33.4486 8.36298 33.4544 8.38604C33.4659 8.40909 33.4774 8.43215 33.5005 8.44944C33.5235 8.46673 33.5466 8.47825 33.5812 8.47825C33.8175 8.50131 34.048 8.53589 34.2786 8.57623C34.5091 8.61658 34.7339 8.65692 34.9587 8.70879C35.1834 8.76066 35.4024 8.8183 35.6214 8.8817C35.8405 8.94509 36.0537 9.01426 36.2612 9.08918L36.4053 9.08342L36.6473 8.91051C36.7107 8.82406 36.7626 8.67998 36.6531 8.59929C37.46 8.89322 38.2323 9.2909 38.9354 9.79233C38.8893 9.7808 38.8432 9.78656 38.8029 9.79809C38.7856 9.80385 38.7683 9.80962 38.751 9.81538C38.7337 9.82114 38.7164 9.83267 38.6991 9.84419C38.6818 9.85572 38.6646 9.86725 38.6473 9.88454C38.63 9.89606 38.6127 9.91336 38.5954 9.93065C38.5147 10.0113 38.4225 10.1958 38.5493 10.288C38.7222 10.409 38.8893 10.5416 39.0507 10.6741C39.2121 10.8067 39.3677 10.9508 39.5175 11.0949C39.6674 11.239 39.8115 11.3946 39.9498 11.5502C40.0881 11.7058 40.2207 11.8729 40.3475 12.0401L40.5665 12.0862L40.7336 11.994C40.8201 11.919 40.9065 11.7922 40.8777 11.6712C41.3907 12.3513 41.7999 13.1063 42.0996 13.8959C42.0477 13.8325 41.9555 13.8267 41.8806 13.8498C41.869 13.8498 41.8633 13.8556 41.8517 13.8613C41.8402 13.8671 41.8345 13.8671 41.8229 13.8729C41.8114 13.8786 41.8056 13.8844 41.7941 13.8844C41.7826 13.8844 41.7768 13.8959 41.7653 13.9017C41.6558 13.9708 41.5232 14.1322 41.5809 14.2705C41.6097 14.3512 41.6385 14.4319 41.6673 14.5184C41.6961 14.5991 41.725 14.6855 41.748 14.772C41.7711 14.8584 41.7999 14.9391 41.8229 15.0255C41.846 15.1005 41.869 15.1869 41.8921 15.2734C41.5405 13.9132 41.869 15.1869 41.8921 15.2734Z" fill="#6D1627"/>
<path d="M42.7448 16.7202C42.8428 17.7173 42.814 18.7259 42.693 19.723C42.693 19.6884 42.693 19.6596 42.6814 19.6365C42.6699 19.6135 42.6526 19.5904 42.6296 19.5731C42.6065 19.5558 42.5777 19.5501 42.5489 19.5443C42.5143 19.5385 42.4797 19.5443 42.4394 19.5558C42.2953 19.5962 42.1512 19.7287 42.1339 19.8844L42.1224 19.9593C42.2492 18.9622 42.278 17.9536 42.1858 16.9508C42.2203 17.0545 42.3356 17.0776 42.4278 17.0545L42.4912 17.0372C42.6065 16.9796 42.7275 16.8585 42.7448 16.7202C42.7679 16.9565 42.7391 16.749 42.7448 16.7202Z" fill="#A2000C"/>
<path d="M41.6383 23.3598C41.7651 23.3253 41.8919 23.2215 41.9322 23.0947C41.5691 24.2186 41.1023 25.3137 40.5663 26.3684C40.5778 26.3338 40.5778 26.305 40.5778 26.2762C40.5778 26.2473 40.5721 26.2243 40.5605 26.2012C40.549 26.1782 40.5317 26.1609 40.5144 26.1436C40.4914 26.1321 40.4683 26.1205 40.4395 26.1148C40.4337 26.1148 40.4222 26.1148 40.4164 26.1148C40.4049 26.1148 40.3992 26.1148 40.3876 26.1148C40.3761 26.1148 40.3703 26.1148 40.3588 26.1205C40.3473 26.1205 40.3415 26.1263 40.33 26.1263C40.2205 26.1551 40.1225 26.2301 40.0591 26.3223C40.5893 25.2848 41.0447 24.2071 41.402 23.0947V23.1005V23.1063V23.112V23.1178C41.3559 23.2561 41.4308 23.3829 41.5864 23.3714L41.6383 23.3598Z" fill="#A2000C"/>
<path d="M30.4218 37.4919C30.1221 37.6878 29.8224 37.878 29.5169 38.0624C29.6149 38.0048 29.7071 37.9472 29.8051 37.8895C29.8454 37.8665 29.8742 37.8377 29.9031 37.8089C29.9319 37.78 29.9549 37.7455 29.9722 37.7109C29.9895 37.6763 30.001 37.6417 30.0068 37.6071C30.0126 37.5726 30.0068 37.538 30.001 37.5092C29.9953 37.4861 29.978 37.4688 29.9665 37.4515C29.9492 37.4342 29.9319 37.4227 29.9146 37.4169C29.8915 37.4112 29.8685 37.4054 29.8454 37.4054C29.8224 37.4054 29.7935 37.4054 29.7647 37.4169C29.7532 37.4169 29.7474 37.4227 29.7359 37.4227C29.7244 37.4285 29.7186 37.4285 29.7071 37.4342C29.6956 37.44 29.6898 37.44 29.6783 37.4458C29.6668 37.4515 29.661 37.4573 29.6495 37.4631C29.5227 37.538 29.3959 37.6129 29.2748 37.6878C29.148 37.7628 29.0212 37.8377 28.8944 37.9068C28.7677 37.9818 28.6409 38.0509 28.5141 38.1201C28.3873 38.1892 28.2605 38.2584 28.1337 38.3276C32.6292 35.9357 36.5368 32.2644 39.1822 27.9072C38.8422 28.472 38.4791 29.0196 38.0987 29.5556C38.0238 29.6536 37.9777 29.8437 38.1333 29.8956L38.2774 29.9014L38.5079 29.74C37.7529 30.7947 36.9287 31.8033 36.0411 32.7485C36.0988 32.6621 36.1391 32.5065 36.0411 32.4315C36.0296 32.42 36.0181 32.4143 36.0008 32.4085C35.9835 32.4027 35.972 32.397 35.9547 32.397C35.9374 32.397 35.9201 32.397 35.9028 32.397C35.8855 32.397 35.8682 32.4027 35.8509 32.4085C35.8337 32.4143 35.8164 32.42 35.7991 32.4258C35.7818 32.4315 35.7645 32.4431 35.7472 32.4546C35.7299 32.4661 35.7126 32.4777 35.6953 32.4892C35.678 32.5007 35.6608 32.518 35.6435 32.5353C35.4187 32.7716 35.1939 33.0079 34.9634 33.2384C34.7328 33.469 34.4965 33.6937 34.2602 33.9185C34.0239 34.1433 33.7819 34.3623 33.534 34.5755C33.292 34.7888 33.0441 35.0021 32.7905 35.2038C32.756 35.2326 32.7214 35.2672 32.6983 35.3018C32.6753 35.3363 32.658 35.3709 32.6465 35.4055C32.6349 35.4401 32.6292 35.4747 32.6292 35.5092C32.6292 35.5438 32.6407 35.5726 32.658 35.5957L32.877 35.6533L33.0096 35.5899C32.4563 36.0452 31.8799 36.4833 31.2921 36.8982" fill="#6D1627"/>
<path opacity="0.7" d="M3.21889 43.2897C3.98544 44.379 4.92488 45.33 5.97959 46.1253L45.4939 3.76387C45.2979 3.61402 45.0962 3.45841 44.8945 3.32008C44.7562 3.22211 44.6121 3.12989 44.468 3.03768C44.3009 2.93393 44.1337 2.83595 43.9608 2.73797C43.834 2.66305 43.713 2.58236 43.5804 2.5132C40.203 0.738051 36.2493 0.421061 32.5203 0.928245C32.0708 2.73797 31.6558 4.55347 31.2754 6.37472L31.2409 6.54186C30.0593 6.6629 28.8951 6.8992 27.7482 7.21619C27.4485 7.30264 27.143 7.38909 26.8433 7.48707C26.5436 7.58505 26.2439 7.68879 25.95 7.79253C25.6561 7.90204 25.3564 8.01731 25.0624 8.13258C24.7685 8.25361 24.4746 8.38041 24.1864 8.5072L24.1979 8.35159C24.3305 6.63984 24.4342 4.92233 24.4861 3.20482C22.0424 4.248 19.7139 5.56207 17.5296 7.07786C10.2618 12.1094 3.93356 19.671 1.5763 28.3335C1.69157 27.907 1.81837 27.4863 1.95669 27.0713C3.82406 26.7428 5.69142 26.3855 7.54725 25.9993L7.7144 25.9705C7.32825 27.0828 7.01701 28.224 6.82682 29.3882C6.78071 29.6706 6.74037 29.9531 6.71155 30.2297C6.68273 30.5063 6.65968 30.783 6.64239 31.0539C6.6251 31.3248 6.61933 31.5899 6.61933 31.855C6.61933 32.1201 6.6251 32.3795 6.63662 32.6331L6.45796 32.6965C4.52143 33.3247 2.59644 33.9817 0.677205 34.6676C0.671442 34.1892 0.688736 33.7051 0.717554 33.2267C0.584994 35.1747 0.717548 37.1401 1.22473 39.0247C1.6397 40.5751 2.31979 42.0102 3.21889 43.2839C3.23042 43.2782 3.22466 43.2839 3.21889 43.2897Z" fill="url(#paint0_linear)"/>
<defs>
<linearGradient id="paint0_linear" x1="26.0624" y1="25.2098" x2="-0.988897" y2="3.62111" gradientUnits="userSpaceOnUse">
<stop stop-color="white"/>
<stop offset="0.0848" stop-color="#F6F6F6"/>
<stop offset="0.2247" stop-color="#DDDDDD"/>
<stop offset="0.4024" stop-color="#B4B4B4"/>
<stop offset="0.6108" stop-color="#7C7C7C"/>
<stop offset="0.8422" stop-color="#353535"/>
<stop offset="1"/>
</linearGradient>
</defs>
</svg>
