<svg width="110" height="110" viewBox="0 0 110 110" fill="none" xmlns="http://www.w3.org/2000/svg">
<g clip-path="url(#clip0)">
<path d="M110 33.3844C110 30.6337 108.929 28.0478 106.983 26.1024C103.064 22.1856 96.7461 22.0945 92.7128 25.827C90.5124 24.5781 87.6599 24.889 85.7862 26.7627C83.9152 28.6337 83.6026 31.4811 84.8454 33.68L68.724 49.8014V25.6887H79.044C79.9341 25.6887 80.6553 24.9674 80.6553 24.0773C80.6553 23.1872 79.9341 22.466 79.044 22.466H68.724V14.2334C68.724 13.3433 68.0028 12.6221 67.1127 12.6221C66.2226 12.6221 65.5014 13.3433 65.5014 14.2334V22.466H27.2886C26.3987 22.466 25.6773 23.1872 25.6773 24.0773C25.6773 24.9674 26.3987 25.6887 27.2886 25.6887H34.3202L15.2096 36.7119C15.1903 36.723 15.1723 36.7357 15.1531 36.7471V25.6887H20.8431C21.7329 25.6887 22.4544 24.9674 22.4544 24.0773C22.4544 23.1872 21.7329 22.466 20.8431 22.466H15.1534V14.234C15.1534 13.3439 14.4319 12.6227 13.542 12.6227C12.6521 12.6227 11.9307 13.3439 11.9307 14.234V22.466H1.61133C0.721445 22.466 0 23.1872 0 24.0773C0 24.9674 0.721445 25.6887 1.61133 25.6887H11.9307V84.3109H1.61133C0.721445 84.3109 0 85.0321 0 85.9222C0 86.8123 0.721445 87.5336 1.61133 87.5336H11.9307V95.7655C11.9307 96.6556 12.6521 97.3768 13.542 97.3768C14.4319 97.3768 15.1534 96.6556 15.1534 95.7655V87.5336H55.1822C56.0721 87.5336 56.7935 86.8123 56.7935 85.9222C56.7935 85.0321 56.0723 84.3109 55.1822 84.3109H46.3351L53.1311 80.39C53.8297 80.9873 54.696 81.305 55.5867 81.305C56.0181 81.305 56.4547 81.2311 56.8803 81.0794L65.5014 78.0076V84.3109H61.6275C60.7374 84.3109 60.0162 85.0321 60.0162 85.9222C60.0162 86.8123 60.7374 87.5336 61.6275 87.5336H65.5014V95.7662C65.5014 96.6563 66.2226 97.3775 67.1127 97.3775C68.0028 97.3775 68.724 96.6563 68.724 95.7662V87.5336H79.044C79.9341 87.5336 80.6553 86.8123 80.6553 85.9222C80.6553 85.0321 79.9341 84.3109 79.044 84.3109H68.724V76.8593L71.5905 75.8379C71.5911 75.8377 71.5917 75.8373 71.5926 75.837C71.6448 75.8184 71.6959 75.7966 71.7458 75.7728C71.7576 75.767 71.7692 75.7606 71.7808 75.7545C71.8171 75.7361 71.8528 75.7163 71.8876 75.695C71.903 75.6858 71.9181 75.6761 71.9331 75.6662C71.9658 75.6448 71.9974 75.6222 72.0283 75.5984C72.0406 75.5889 72.0532 75.5801 72.0655 75.5702C72.1069 75.5365 72.1471 75.5008 72.1851 75.463C72.1864 75.4617 72.1877 75.4608 72.189 75.4596L99.4069 48.2417C100.285 48.7377 101.265 48.9872 102.246 48.9872C103.723 48.9872 105.2 48.4251 106.324 47.3006C108.198 45.4268 108.509 42.5743 107.26 40.3739C109.029 38.4665 110 36.0007 110 33.3844ZM104.705 28.3815C106.042 29.7178 106.777 31.4944 106.777 33.3841C106.777 35.0694 106.191 36.6631 105.116 37.9358L95.1513 27.9712C97.9279 25.6347 102.092 25.7703 104.705 28.3815ZM61.8787 75.8772L57.2099 71.2084L59.9582 63.4949C61.3798 63.3473 62.3893 63.5327 62.9013 64.0445C63.5166 64.6598 63.6621 65.9916 63.322 67.8953C63.3203 67.9044 63.3203 67.9134 63.3187 67.9226C63.3112 67.9699 63.3054 68.0176 63.302 68.0653C63.3007 68.0844 63.2998 68.1035 63.2992 68.1226C63.2977 68.1645 63.2981 68.2064 63.2998 68.2483C63.3437 69.2428 64.2535 69.9331 65.1911 69.7649C67.0957 69.4246 68.4273 69.5705 69.0424 70.1858C69.5544 70.698 69.7398 71.7075 69.5922 73.1287L61.8787 75.8772ZM71.3215 67.9072C70.6623 67.248 69.8186 66.8007 68.8009 66.5652L83.1718 52.1944C83.8011 51.5649 83.8011 50.5448 83.1718 49.9155C82.5423 49.2864 81.5222 49.2864 80.893 49.9155L66.5225 64.286C66.287 63.2676 65.8397 62.4252 65.1804 61.7659C64.5208 61.1065 63.6763 60.6611 62.6577 60.4259L86.9752 36.1081L90.8377 39.9706L86.1536 44.6546C85.5244 45.2841 85.5244 46.3042 86.1536 46.9335C86.7833 47.5628 87.8032 47.5625 88.4325 46.9335L93.1165 42.2495L96.979 46.1119L72.6612 70.4296C72.426 69.4111 71.9808 68.5665 71.3215 67.9072ZM65.5014 25.6887V36.7585C65.4863 36.7497 65.4721 36.7396 65.4569 36.7308L46.3487 25.6887H65.5014ZM15.1594 42.3734C15.1609 41.1946 15.7985 40.0941 16.8218 39.5025L38.6822 26.8933C39.7044 26.3035 40.9737 26.3044 41.9951 26.895L63.844 39.5209C64.8665 40.1124 65.5016 41.2128 65.5016 42.393V53.0243L58.3971 60.1287V48.3484C58.398 46.0197 57.1476 43.85 55.1336 42.686L43.6038 36.0237C41.5886 34.8586 39.0835 34.858 37.067 36.0209L25.532 42.6748C23.514 43.8389 22.26 46.0075 22.2589 48.3351V61.6511C22.258 63.9798 23.5084 66.1495 25.5224 67.3133L37.0522 73.9759C38.0606 74.5589 39.1916 74.8503 40.3227 74.8503C41.452 74.8503 42.5816 74.5594 43.589 73.9784L55.124 67.3247C55.1454 67.3125 55.1654 67.2983 55.1867 67.2858L52.0083 76.2066C51.8631 76.6143 51.7913 77.0322 51.7853 77.4462L41.9757 83.1056C40.9518 83.6952 39.6812 83.6954 38.6598 83.1046L16.8104 70.4788C15.7906 69.8889 15.1581 68.7893 15.1594 67.6068V42.3734ZM55.1742 48.3478V61.6638C55.1738 62.8431 54.5374 63.9424 53.5135 64.533L41.9785 71.187C40.9561 71.7765 39.6864 71.7763 38.6646 71.1855L27.1348 64.5229C26.1143 63.9332 25.4809 62.8332 25.4813 61.6516V48.3355C25.4818 47.1563 26.1181 46.0569 27.1421 45.4663L38.677 38.8124C39.1879 38.5178 39.7603 38.3704 40.333 38.3704C40.9065 38.3704 41.4799 38.5183 41.9912 38.8137L53.521 45.476C54.5411 46.0659 55.1747 47.1659 55.1742 48.3478ZM15.1534 84.3109V73.2415C15.1684 73.2503 15.1824 73.2602 15.1974 73.269L34.3054 84.3111H15.1534V84.3109ZM55.7988 78.0437C55.4933 78.1524 55.281 78.0035 55.1822 77.9049C55.0836 77.8061 54.9343 77.5949 55.0434 77.2885L56.0123 74.5688L58.5181 77.0745L55.7988 78.0437ZM104.045 45.022C103.053 46.0144 101.439 46.0144 100.447 45.022L100.397 44.9726L88.1147 32.69L88.0653 32.6406C87.0732 31.6484 87.0732 30.0341 88.0653 29.0419C88.5614 28.5456 89.213 28.2977 89.8646 28.2977C90.5163 28.2977 91.1679 28.5456 91.6639 29.0419L104.046 41.4236C105.038 42.4155 105.038 44.0296 104.045 45.022Z" fill="white"/>
</g>
<defs>
<clipPath id="clip0">
<rect width="110" height="110" fill="white"/>
</clipPath>
</defs>
</svg>
