<svg width="16" height="18" viewBox="0 0 16 18" fill="none" xmlns="http://www.w3.org/2000/svg">
<path d="M1.92513 6.35689C1.9405 6.15753 2.02744 5.97151 2.16864 5.83588C2.30984 5.70025 2.49494 5.62496 2.68707 5.625H13.3129C13.5051 5.62496 13.6902 5.70025 13.8314 5.83588C13.9726 5.97151 14.0595 6.15753 14.0749 6.35689L14.7451 15.0441C14.762 15.2631 14.7351 15.4833 14.6663 15.6909C14.5974 15.8985 14.488 16.089 14.3449 16.2504C14.2018 16.4118 14.0282 16.5406 13.8349 16.6288C13.6417 16.7169 13.433 16.7624 13.222 16.7625H2.77801C2.56702 16.7624 2.35833 16.7169 2.16508 16.6288C1.97183 16.5406 1.7982 16.4118 1.65512 16.2504C1.51205 16.089 1.40263 15.8985 1.33375 15.6909C1.26487 15.4833 1.23802 15.2631 1.2549 15.0441L1.92437 6.35689H1.92513Z" stroke="#323232" stroke-width="2" stroke-linecap="round" stroke-linejoin="round"/>
<path d="M11.0373 8.32578V4.38828C11.0373 3.55285 10.7351 2.75163 10.1971 2.1609C9.65907 1.57016 8.92939 1.23828 8.16855 1.23828C7.40771 1.23828 6.67804 1.57016 6.14004 2.1609C5.60205 2.75163 5.2998 3.55285 5.2998 4.38828V8.32578" stroke="#323232" stroke-width="2" stroke-linecap="round" stroke-linejoin="round"/>
</svg>
