<svg width="87" height="83" viewBox="0 0 87 83" fill="none" xmlns="http://www.w3.org/2000/svg">
<path d="M9.67737 29.6489C8.14142 31.6939 6.5967 33.7477 5.06075 35.7927C4.14796 37.0039 3.23517 38.2239 2.32238 39.4351C2.14684 39.6633 1.80454 39.9793 1.708 40.2514C1.62023 40.5059 1.81332 40.9184 1.88353 41.1905C2.09418 42.0418 2.33115 42.8844 2.59446 43.7182C3.78811 47.4484 5.51715 50.9942 7.58848 54.3119C10.4234 58.8319 14.0219 63.0975 18.1646 66.8803C22.3072 70.6719 26.9765 73.9632 31.9267 76.5524C36.868 79.1328 42.0727 80.9935 47.3125 81.9238C50.165 78.5096 53.0174 75.1042 55.8699 71.69C50.4546 70.6895 45.2324 68.7586 40.3612 66.1957C35.3672 63.5714 30.6453 60.2362 26.4499 56.4095C22.2634 52.5828 18.6034 48.2822 15.7246 43.7358C12.8546 39.1981 10.7657 34.4235 9.67737 29.6489Z" fill="#961C2E"/>
<path d="M12.8545 9.58496C10.3443 12.9816 7.82538 16.3782 5.31521 19.7749C4.36731 21.0563 3.51595 22.3904 2.85769 23.8386C2.27841 25.1287 1.81324 26.4979 1.4885 27.9549C1.16376 29.4118 0.96189 30.9478 0.909228 32.554C0.856567 34.1689 0.944336 35.8541 1.19009 37.6094C3.75293 34.1865 6.32454 30.7635 8.88738 27.3405C9.13313 27.007 9.15068 27.0333 9.13313 26.6208C9.06291 25.0322 8.81716 23.4787 8.86105 21.8813C8.90493 20.2664 9.08925 18.7304 9.41399 17.2735C9.72996 15.8165 10.1864 14.4473 10.7656 13.1571C11.3361 11.8845 12.0383 10.6908 12.8545 9.58496Z" fill="#961C2E"/>
<path d="M56.7391 71.8393C53.8866 75.2448 51.0341 78.6589 48.1816 82.0644C50.8235 82.4857 53.5004 82.67 56.1773 82.5383C58.6787 82.4154 61.0046 82.0205 63.1549 81.3886C65.2877 80.7566 67.2362 79.8789 68.974 78.7818C70.703 77.6935 72.2214 76.3858 73.5028 74.8849C76.3816 71.5234 79.2692 68.1706 82.148 64.8091C80.8491 66.3187 79.3131 67.6265 77.6192 68.6885C75.8814 69.7768 73.9329 70.6457 71.7913 71.2689C69.641 71.892 67.2976 72.2694 64.7874 72.3747C62.2597 72.4713 59.574 72.3045 56.7391 71.8393Z" fill="#961C2E"/>
<path d="M49.6913 70.1191C46.8564 73.5421 44.0214 76.9738 41.1777 80.3968C41.6868 80.5548 42.1958 80.704 42.7049 80.8532C43.214 80.9937 43.723 81.1341 44.2321 81.257C44.7411 81.3886 45.2502 81.5027 45.768 81.6168C46.2771 81.7309 46.7861 81.8274 47.304 81.924C47.3391 81.9328 47.3742 81.9328 47.4093 81.9416C47.4444 81.9503 47.4795 81.9503 47.5146 81.9591C47.5497 81.9679 47.5848 81.9679 47.6199 81.9767C47.655 81.9854 47.6902 81.9854 47.7253 81.9942C47.7604 82.003 47.7955 82.003 47.8306 82.0118C47.8657 82.0205 47.9008 82.0205 47.9359 82.0293C47.971 82.0381 48.0061 82.0381 48.0412 82.0469C48.0763 82.0556 48.1114 82.0556 48.1466 82.0644C48.6556 82.1434 49.1559 82.2136 49.6562 82.2751C50.1565 82.3365 50.6479 82.3804 51.1395 82.4243C51.631 82.4682 52.1137 82.4945 52.5876 82.5208C53.0704 82.5472 53.5443 82.5559 54.0095 82.5647C56.8707 79.1681 59.7408 75.7714 62.602 72.3836C62.1281 72.3748 61.6453 72.3572 61.1714 72.3309C60.6887 72.3046 60.2059 72.2695 59.7144 72.2256C59.2229 72.1817 58.7226 72.129 58.2224 72.0676C57.7221 72.0062 57.213 71.9359 56.704 71.8482C56.6689 71.8394 56.6338 71.8394 56.5987 71.8306C56.5635 71.8218 56.5284 71.8218 56.4933 71.8131C56.4582 71.8043 56.4231 71.8043 56.388 71.7955C56.3529 71.7867 56.3178 71.7867 56.2827 71.778C56.2476 71.7692 56.2125 71.7692 56.1774 71.7604C56.1423 71.7516 56.1071 71.7516 56.072 71.7429C56.0369 71.7341 56.0018 71.7341 55.9667 71.7253C55.9316 71.7165 55.8965 71.7077 55.8614 71.7077C55.3436 71.6112 54.8345 71.5059 54.3167 71.3918C53.7988 71.2777 53.2898 71.1548 52.7719 71.0232C52.2541 70.8915 51.7451 70.7511 51.2272 70.6019C50.7182 70.4351 50.2091 70.2771 49.6913 70.1191Z" fill="#9A95A0"/>
<path d="M8.86131 22.7329C7.46579 24.6024 6.07027 26.4718 4.67476 28.3413C3.76196 29.5613 2.84917 30.7901 1.93638 32.01C1.6643 32.3699 1.34833 32.7297 1.11136 33.1159C0.839276 33.5635 0.891938 33.8356 0.909491 34.4237C0.918268 34.766 0.93582 35.117 0.96215 35.4681C0.988481 35.8192 1.01481 36.1703 1.04992 36.5301C1.08503 36.89 1.12891 37.2498 1.18157 37.6097V37.6184V37.6272V37.636V37.6448C1.18157 37.6711 1.19035 37.6887 1.19035 37.715C1.19035 37.7413 1.19913 37.7589 1.19913 37.7852C1.19913 37.8115 1.2079 37.8291 1.2079 37.8554C1.2079 37.8817 1.21668 37.8993 1.21668 37.9256C1.21668 37.9432 1.21668 37.952 1.22546 37.9695C1.22546 37.9871 1.22546 37.9958 1.23423 38.0134C1.23423 38.031 1.23423 38.0397 1.24301 38.0573C1.24301 38.0748 1.24301 38.0836 1.25179 38.1012C1.25179 38.1187 1.26056 38.1363 1.26056 38.1538C1.26056 38.1714 1.26934 38.1889 1.26934 38.2065C1.26934 38.224 1.27812 38.2416 1.27812 38.2592C1.27812 38.2767 1.2869 38.2943 1.2869 38.3118C1.2869 38.3294 1.29567 38.3557 1.29567 38.3733C1.29567 38.3908 1.30445 38.4171 1.30445 38.4347C1.30445 38.4522 1.31323 38.4786 1.31323 38.4961C1.31323 38.5137 1.322 38.54 1.322 38.5576C1.322 38.5663 1.322 38.5839 1.33078 38.5927C1.33078 38.6015 1.33078 38.619 1.33956 38.6278C1.33956 38.6366 1.33956 38.6541 1.34833 38.6629C1.34833 38.6717 1.34833 38.6892 1.35711 38.698C1.36589 38.7331 1.36589 38.7682 1.37466 38.8033C1.38344 38.8384 1.38344 38.8735 1.39222 38.9086C1.40099 38.9438 1.40099 38.9789 1.40977 39.014C1.41855 39.0491 1.41855 39.0842 1.42733 39.1193C1.4361 39.1544 1.4361 39.1895 1.44488 39.2246C1.45366 39.2597 1.46243 39.2948 1.46243 39.3299C1.47121 39.365 1.47998 39.4001 1.47998 39.4352C1.48876 39.4704 1.49754 39.5055 1.49754 39.5406C1.49754 39.5581 1.50632 39.5669 1.50632 39.5844C1.50632 39.602 1.51509 39.6108 1.51509 39.6283C1.51509 39.6459 1.52387 39.6547 1.52387 39.6722C1.52387 39.6898 1.53265 39.6986 1.53265 39.7161C1.53265 39.7337 1.54142 39.7512 1.54142 39.7688C1.54142 39.7863 1.5502 39.8039 1.5502 39.8214C1.5502 39.839 1.55898 39.8565 1.55898 39.8741C1.55898 39.8916 1.56775 39.9092 1.56775 39.9267C1.56775 39.9443 1.57653 39.9706 1.58531 39.9882C1.59409 40.0057 1.59408 40.0321 1.60286 40.0496C1.61164 40.0672 1.61164 40.0935 1.62041 40.1111C1.62041 40.1286 1.62919 40.1549 1.63797 40.1725C1.63797 40.1813 1.63797 40.1901 1.64675 40.1988C1.64675 40.2076 1.64675 40.2164 1.65552 40.2252C1.65552 40.2339 1.65552 40.2427 1.6643 40.2515C1.6643 40.2603 1.6643 40.2691 1.67308 40.2778C1.76084 40.6816 1.85739 41.0765 1.96271 41.4803C2.06803 41.884 2.17336 42.2789 2.29623 42.6827C2.41033 43.0864 2.53321 43.4814 2.66486 43.8763C2.79651 44.2713 2.93694 44.675 3.07737 45.07C4.49044 43.2093 5.89474 41.3486 7.30781 39.4879C8.2206 38.2767 9.14217 37.0655 10.055 35.8631C10.327 35.5032 10.6693 35.1434 10.8975 34.7572C10.9502 34.6694 11.0731 34.5817 11.0994 34.4851C11.1784 34.213 10.801 33.5372 10.7044 33.2476C10.5728 32.8438 10.4411 32.4489 10.3183 32.0451C10.1954 31.6414 10.0813 31.2465 9.97598 30.8427C9.87065 30.439 9.77411 30.0352 9.67756 29.6403C9.67756 29.6315 9.67756 29.6227 9.66878 29.614C9.66878 29.6052 9.66879 29.5964 9.66001 29.5876C9.66001 29.5788 9.66001 29.5701 9.65123 29.5613C9.65123 29.5525 9.65123 29.5437 9.64245 29.535C9.63367 29.5086 9.63368 29.4911 9.6249 29.4735C9.61612 29.456 9.61612 29.4296 9.60734 29.4121C9.59857 29.3945 9.59857 29.3682 9.58979 29.3507C9.58102 29.3243 9.58101 29.3068 9.57224 29.2892C9.57224 29.2717 9.56346 29.2541 9.56346 29.2366C9.56346 29.219 9.55468 29.2015 9.55468 29.1839C9.55468 29.1663 9.54591 29.1488 9.54591 29.1312C9.54591 29.1137 9.53713 29.0961 9.53713 29.0786C9.53713 29.061 9.52835 29.0522 9.52835 29.0347C9.52835 29.0171 9.51958 29.0084 9.51958 28.9908C9.51958 28.9733 9.5108 28.9645 9.5108 28.9469C9.5108 28.9294 9.50203 28.9206 9.50203 28.903C9.49325 28.8679 9.48447 28.8328 9.48447 28.7977C9.47569 28.7626 9.46692 28.7275 9.46692 28.6924C9.45814 28.6573 9.44936 28.6222 9.44936 28.5871C9.44058 28.552 9.43181 28.5169 9.43181 28.4817C9.42303 28.4466 9.41426 28.4115 9.41426 28.3764C9.40548 28.3413 9.40548 28.3062 9.3967 28.2711C9.38792 28.236 9.37915 28.2009 9.37915 28.1658C9.37037 28.1307 9.37037 28.0956 9.36159 28.0605C9.36159 28.0517 9.36159 28.0341 9.35281 28.0253C9.35281 28.0166 9.34404 27.999 9.34404 27.9902C9.34404 27.9815 9.34404 27.9639 9.33526 27.9551C9.33526 27.9464 9.33526 27.9288 9.32648 27.92C9.32648 27.9025 9.31771 27.8761 9.31771 27.8586C9.31771 27.841 9.30893 27.8147 9.30893 27.7972C9.30893 27.7796 9.30015 27.7533 9.30015 27.7357C9.30015 27.7182 9.29138 27.6918 9.29138 27.6743C9.29138 27.6567 9.2826 27.6392 9.2826 27.6216C9.2826 27.6041 9.27383 27.5865 9.27383 27.5689C9.27383 27.5514 9.26505 27.5338 9.26505 27.5163C9.26505 27.4987 9.25627 27.4812 9.25627 27.4636C9.25627 27.4461 9.2475 27.4373 9.2475 27.4197C9.2475 27.4022 9.23872 27.3934 9.23872 27.3759C9.23872 27.3583 9.23872 27.3495 9.22994 27.332C9.22994 27.3144 9.22994 27.3056 9.22117 27.2881C9.22117 27.2618 9.21239 27.2442 9.21239 27.2179C9.21239 27.1915 9.20361 27.174 9.20361 27.1477C9.20361 27.1213 9.19484 27.1038 9.19484 27.0774C9.19484 27.0511 9.18606 27.0336 9.18606 27.0072V26.9985V26.9897V26.9809V26.9721C9.1334 26.6035 9.08951 26.2436 9.04563 25.8838C9.01052 25.5239 8.97541 25.1729 8.94908 24.8218C8.92275 24.4707 8.9052 24.1197 8.88764 23.7774C8.87009 23.4087 8.86131 23.0664 8.86131 22.7329Z" fill="#9A95A0"/>
<path d="M20.8939 50.687C18.3135 53.9959 15.7244 57.3048 13.144 60.6136C13.0562 60.7277 12.6964 61.0437 12.6964 61.1929C12.6876 61.4299 13.4248 62.053 13.6004 62.2461C14.1182 62.8254 14.6448 63.3871 15.1802 63.94C16.0403 64.8353 16.9268 65.7042 17.8484 66.5555C18.7612 67.4069 19.7091 68.2231 20.6745 69.0218C21.64 69.8205 22.6318 70.5929 23.6411 71.3302C26.4234 67.8545 29.2056 64.3789 31.9879 60.912C30.9698 60.166 29.9692 59.3849 28.995 58.5774C28.0207 57.7699 27.0641 56.9361 26.1425 56.0848C25.2121 55.2334 24.3169 54.347 23.448 53.4517C22.544 52.5477 21.7014 51.6261 20.8939 50.687Z" fill="#9A95A0"/>
<path d="M20.7011 35.5558C20.0253 33.8619 19.4723 32.1153 19.1125 30.3248C19.0247 29.886 18.9545 29.4559 18.8931 29.0259C18.8316 28.5958 18.7877 28.1745 18.7439 27.762C18.7087 27.3495 18.6824 26.937 18.6736 26.5332C18.6561 26.1295 18.6561 25.7258 18.6649 25.3396L18.3577 25.2518C15.1805 24.4531 12.012 23.6105 8.85234 22.7329C8.85234 24.1459 8.95767 25.559 9.16831 26.9545C8.37839 21.5568 8.97523 15.8518 11.8277 11.1035C14.689 6.34649 19.4987 3.23072 24.8174 1.85275C28.1 1.0014 31.5229 0.781967 34.902 0.992612C35.7885 3.6871 36.6047 6.39915 37.3859 9.12875L37.4561 9.3745C39.2641 9.42716 41.0634 9.65536 42.8275 10.024C43.2927 10.1205 43.7579 10.2259 44.2318 10.34C44.697 10.4541 45.1622 10.5769 45.6273 10.7086C46.0925 10.8402 46.5489 10.9807 47.0141 11.1299C47.4705 11.2791 47.9356 11.4371 48.392 11.6038L48.3569 11.3668C47.9707 8.77768 47.6284 6.17974 47.3564 3.58179C60.7937 8.21597 72.9058 17.9056 80.4012 29.9913C82.6129 33.5459 84.421 37.3726 85.5971 41.4012C85.1934 40.032 84.7194 38.6892 84.1752 37.3814C81.2964 37.0918 78.4352 36.7495 75.5651 36.3633L75.3018 36.337C76.0128 37.987 76.6096 39.681 77.0221 41.4275C77.1274 41.8488 77.2152 42.2701 77.2854 42.6914C77.3644 43.1127 77.4258 43.5252 77.4785 43.9289C77.5312 44.3415 77.5751 44.7452 77.6014 45.1401C77.6365 45.5439 77.654 45.9388 77.6628 46.325L77.9349 46.404C80.9454 47.15 83.9383 47.94 86.9312 48.765C86.8346 47.2554 86.624 45.7545 86.3168 44.28C87.607 50.4414 87.2296 57.1557 83.789 62.5797C80.3836 67.9599 74.5295 71.0406 68.3506 72.0061C64.5151 72.6117 60.5743 72.4537 56.7476 71.8305C58.696 72.1465 60.6708 72.322 62.6456 72.3659C61.6802 69.4608 60.7849 66.5293 59.9336 63.5891L59.8634 63.3258C58.0202 63.3346 56.1771 63.1502 54.3603 62.8255C53.8776 62.7377 53.3948 62.6412 52.9121 62.5358C52.4294 62.4305 51.9467 62.3164 51.4727 62.1848C50.99 62.0619 50.516 61.9215 50.0333 61.7723C49.5594 61.6231 49.0766 61.4739 48.6027 61.3071L48.6466 61.5616C49.0591 64.3965 49.4189 67.249 49.7086 70.1015C51.736 70.7422 53.7898 71.2864 55.8787 71.6725C47.5758 70.1454 39.7205 66.4416 32.8658 61.5616C26.0374 56.6993 20.0077 50.5642 15.5579 43.4374C12.9073 39.1807 10.8008 34.5377 9.69493 29.6402C10.0636 31.2727 10.5551 32.8789 11.1343 34.45C14.2326 34.7571 17.3308 35.117 20.4202 35.5207L20.7011 35.5558ZM37.9125 53.6888C38.404 54.0311 38.8955 54.3734 39.4045 54.6981C39.9048 55.0229 40.4139 55.3388 40.9317 55.646C41.4408 55.9532 41.9674 56.2428 42.4852 56.5325C43.0118 56.8133 43.5384 57.0854 44.0738 57.3487C44.1002 57.3663 44.1265 57.3751 44.1528 57.3926C44.1791 57.4014 44.2055 57.419 44.2318 57.4365C44.2581 57.4541 44.2845 57.4628 44.3196 57.4804C44.3459 57.4979 44.381 57.5067 44.4073 57.5243C45.1709 57.8929 45.9433 58.2352 46.7244 58.5512C47.5056 58.8671 48.2955 59.1568 49.0854 59.4201C49.8753 59.6834 50.6828 59.9204 51.4903 60.1222C52.2977 60.3329 53.114 60.5084 53.9302 60.6576C55.0361 60.8595 56.1508 60.9911 57.2654 61.0613C57.283 61.0613 57.3093 61.0613 57.3356 61.0613C57.362 61.0613 57.3883 61.0613 57.4322 61.0701C57.4673 61.0701 57.52 61.0701 57.5726 61.0789C57.6341 61.0789 57.7043 61.0877 57.792 61.0877C57.8096 61.0877 57.8359 61.0877 57.8535 61.0877C57.871 61.0877 57.8974 61.0877 57.9149 61.0877C57.9412 61.0877 57.9588 61.0877 57.9851 61.0877C58.0115 61.0877 58.029 61.0877 58.0553 61.0877C58.5556 61.1052 59.0471 61.1052 59.5386 61.0877C60.0214 61.0789 60.5041 61.0438 60.9693 61.0087C61.4344 60.9648 61.8996 60.9121 62.3472 60.8419C62.7948 60.7717 63.2425 60.6927 63.6725 60.5962C65.1031 60.2802 66.4987 59.7799 67.7976 59.0953C68.096 58.9374 68.3945 58.7706 68.6841 58.595C68.9737 58.4195 69.2458 58.2352 69.5179 58.0421C69.79 57.849 70.0533 57.6472 70.3078 57.4365C70.5623 57.2259 70.8169 57.0064 71.0538 56.787C72.0281 55.8567 72.8531 54.7771 73.4938 53.5922C73.643 53.3114 73.7922 53.0305 73.9239 52.7409C74.0555 52.4513 74.1872 52.1528 74.3013 51.8457C74.4154 51.5385 74.5295 51.2225 74.626 50.8978C74.7226 50.573 74.8191 50.2395 74.8981 49.906C74.9595 49.6427 75.0122 49.3794 75.0649 49.1073C75.1088 48.8352 75.1526 48.5543 75.1877 48.2647C75.2229 47.9751 75.2492 47.6854 75.2755 47.3782C75.3018 47.0711 75.3106 46.7551 75.3194 46.4216C75.3282 46.0003 75.3194 45.5702 75.3018 45.1314C75.2843 44.6925 75.2492 44.2537 75.1965 43.7973C75.1439 43.3497 75.0824 42.8845 75.0034 42.4193C74.9244 41.9542 74.8279 41.4802 74.7138 40.9975C74.6875 40.8922 74.6699 40.7956 74.6436 40.6991C74.6436 40.6815 74.6348 40.6727 74.6348 40.6552C74.6348 40.6376 74.626 40.6201 74.6172 40.6025C74.6085 40.585 74.6085 40.5586 74.5997 40.5235C74.5909 40.4884 74.5821 40.4533 74.5734 40.4094C74.5646 40.3919 74.5646 40.3743 74.5558 40.348C74.547 40.3304 74.547 40.3041 74.5383 40.2865C74.5295 40.2602 74.5295 40.2427 74.5207 40.2076C74.5119 40.1725 74.5031 40.1461 74.4944 40.111C74.4856 40.0935 74.4856 40.0759 74.4768 40.0496C74.468 40.032 74.468 40.0057 74.4593 39.9794C74.4505 39.953 74.4417 39.9267 74.4329 39.9004C74.4242 39.874 74.4154 39.8389 74.4066 39.8038C74.3978 39.7863 74.3978 39.7687 74.3891 39.7512C74.3803 39.7336 74.3803 39.7161 74.3715 39.6897C74.3627 39.6634 74.3539 39.6371 74.3452 39.6107C74.3364 39.5756 74.3276 39.5405 74.3101 39.4966C74.3101 39.4791 74.3013 39.4703 74.2925 39.444C74.2837 39.4264 74.2837 39.4001 74.2662 39.3738C74.2574 39.3387 74.2398 39.3035 74.2311 39.2509C74.2135 39.1982 74.196 39.1368 74.1696 39.049C74.1696 39.0315 74.1609 39.0139 74.1521 39.0051C74.1433 38.9876 74.1433 38.97 74.1345 38.9525C74.1257 38.9349 74.117 38.9086 74.1082 38.8823C74.0994 38.8559 74.0906 38.8208 74.0731 38.7857C74.0029 38.5751 73.9326 38.3644 73.8624 38.1626C73.7922 37.9519 73.7132 37.7413 73.6342 37.5306C73.5553 37.32 73.4675 37.1006 73.3797 36.8811C73.2919 36.6617 73.1954 36.4423 73.0989 36.2141C72.9321 35.8191 72.7478 35.433 72.5635 35.0468C72.3792 34.6606 72.1773 34.2656 71.9754 33.8794C71.7736 33.4933 71.5541 33.0983 71.3347 32.7121C71.1065 32.3172 70.8783 31.931 70.6326 31.536C70.3868 31.1499 70.1323 30.7549 69.869 30.3687C69.6057 29.9825 69.3336 29.5964 69.044 29.2102C68.7631 28.824 68.4647 28.4378 68.1575 28.0429C67.8503 27.6567 67.5343 27.2617 67.2008 26.8755C66.9024 26.5245 66.604 26.1734 66.288 25.8311C65.9808 25.4888 65.6561 25.1465 65.3313 24.8042C65.0066 24.4619 64.6731 24.1196 64.322 23.7773C63.9797 23.435 63.6199 23.0927 63.26 22.7504C62.9002 22.4169 62.5315 22.0922 62.1629 21.7674C61.7943 21.4427 61.4081 21.1267 61.0219 20.8107C60.6357 20.4948 60.2408 20.1876 59.8283 19.8804C59.4245 19.5732 59.012 19.2748 58.582 18.9676C58.1958 18.6955 57.8008 18.4234 57.4058 18.1601C57.0109 17.8968 56.6072 17.6423 56.2034 17.3878C55.7997 17.1332 55.3872 16.8875 54.9659 16.6505C54.5534 16.4135 54.1321 16.1766 53.702 15.9484C53.5792 15.8869 53.4563 15.8167 53.3334 15.7553C53.2105 15.6938 53.0789 15.6236 52.9384 15.5534C52.798 15.4832 52.6576 15.413 52.5084 15.334C52.3592 15.255 52.1924 15.176 52.0169 15.097C51.3147 14.7635 50.6038 14.4387 49.8841 14.1491C49.1644 13.8507 48.4447 13.5786 47.7074 13.3329C46.979 13.0783 46.2329 12.8501 45.4869 12.6483C44.7409 12.4464 43.9861 12.2621 43.2225 12.1041C43.0118 12.0602 42.7924 12.0163 42.5818 11.9812C42.5642 11.9812 42.5467 11.9725 42.5291 11.9725C42.5115 11.9725 42.494 11.9637 42.4677 11.9637C42.4413 11.9637 42.415 11.9549 42.3887 11.9461C42.3536 11.9373 42.3185 11.9373 42.2746 11.9286C41.9849 11.8759 41.6953 11.832 41.4144 11.7969C41.1248 11.753 40.8352 11.7179 40.5368 11.6828C40.2383 11.6477 39.9399 11.6214 39.624 11.595C39.308 11.5687 38.992 11.5512 38.6497 11.5336C38.6234 11.5336 38.5883 11.5336 38.562 11.5336C38.5356 11.5336 38.5005 11.5336 38.4654 11.5336C38.4303 11.5336 38.404 11.5336 38.3689 11.5336C38.3338 11.5336 38.2987 11.5336 38.2636 11.5336C37.851 11.5248 37.4473 11.516 37.0524 11.5248C36.6574 11.5336 36.2624 11.5512 35.8675 11.5775C35.4813 11.6038 35.0951 11.6389 34.7177 11.6916C34.3403 11.7355 33.9717 11.7969 33.6031 11.8583C33.2344 11.9198 32.8658 11.9988 32.5059 12.0865C32.1461 12.1743 31.795 12.2709 31.4439 12.3762C31.0929 12.4815 30.7506 12.5956 30.4083 12.7273C30.066 12.8589 29.7325 12.9906 29.3989 13.1398C29.0918 13.2802 28.7933 13.4294 28.4949 13.5786C28.2053 13.7366 27.9157 13.9034 27.6348 14.0701C27.3539 14.2457 27.0731 14.43 26.801 14.623C26.5289 14.8161 26.2568 15.018 25.9935 15.2287C25.739 15.4393 25.4932 15.6587 25.2475 15.8957C25.0105 16.1239 24.7823 16.3697 24.5541 16.6242C24.3347 16.8787 24.1241 17.142 23.9134 17.4141C23.7115 17.6862 23.5097 17.967 23.3254 18.2654C23.1498 18.5288 22.9918 18.8008 22.8339 19.0817C22.6759 19.3625 22.5354 19.6522 22.395 19.9506C22.2546 20.249 22.1317 20.5562 22.0088 20.8722C21.886 21.1881 21.7719 21.5129 21.6753 21.8464C21.5788 22.1711 21.491 22.5134 21.412 22.8557C21.333 23.198 21.2716 23.5491 21.2189 23.909C21.1663 24.2688 21.1224 24.6374 21.096 25.0061C21.0609 25.3835 21.0434 25.7609 21.0346 26.1558C21.0258 26.5157 21.0258 26.8755 21.0434 27.2529C21.0522 27.6216 21.0785 28.0077 21.1136 28.3939C21.1487 28.7801 21.1926 29.1751 21.254 29.5876C21.3155 29.9913 21.3857 30.4126 21.4647 30.8427C21.491 30.9655 21.5173 31.0884 21.5437 31.2113C21.5437 31.2288 21.5524 31.2552 21.5612 31.2727C21.57 31.2903 21.57 31.3166 21.5788 31.3342C21.5875 31.3517 21.5875 31.378 21.5963 31.3956C21.6051 31.4132 21.6051 31.4395 21.6139 31.457C21.6139 31.4746 21.6227 31.4834 21.6227 31.5009C21.6227 31.5185 21.6314 31.536 21.6402 31.5536C21.649 31.5799 21.649 31.6063 21.6578 31.6414C21.6665 31.6765 21.6753 31.7204 21.6841 31.7642C21.6841 31.7818 21.6929 31.7993 21.6929 31.8169C21.6929 31.8345 21.7016 31.852 21.7104 31.8783C21.7192 31.9047 21.7192 31.931 21.728 31.9573C21.7368 31.9924 21.7455 32.0275 21.7543 32.0714C21.7543 32.089 21.7631 32.1065 21.7719 32.1241C21.7806 32.1416 21.7806 32.1592 21.7894 32.1855C21.7982 32.2119 21.807 32.2382 21.807 32.2645C21.8157 32.2996 21.8245 32.3347 21.8333 32.3786C21.8333 32.3962 21.8421 32.4137 21.8509 32.4313C21.8596 32.4488 21.8596 32.4664 21.8684 32.4927C21.8772 32.519 21.886 32.5454 21.8947 32.5717C21.9035 32.6068 21.9123 32.6419 21.9211 32.6858C21.9298 32.7034 21.9298 32.7209 21.9386 32.7385C21.9474 32.756 21.9474 32.7736 21.9562 32.7999C21.965 32.8262 21.9737 32.8526 21.9825 32.8877C21.9913 32.9228 22.0001 32.9579 22.0176 33.0106C22.0176 33.0281 22.0264 33.0369 22.0352 33.0544C22.0439 33.072 22.0439 33.0895 22.0527 33.1159C22.0615 33.1422 22.0703 33.1685 22.079 33.2036C22.0878 33.2388 22.0966 33.2739 22.1142 33.3265C22.1142 33.3441 22.1229 33.3528 22.1317 33.3704C22.1405 33.3879 22.1493 33.4143 22.158 33.4494C22.1668 33.4845 22.1844 33.5196 22.2019 33.581C22.2195 33.6337 22.237 33.7039 22.2634 33.7917C22.2721 33.8092 22.2721 33.8268 22.2809 33.8443C22.2897 33.8619 22.2897 33.8794 22.2985 33.9058C22.3072 33.9321 22.316 33.9497 22.3248 33.9848C22.3336 34.0199 22.3424 34.055 22.3599 34.0901C22.3687 34.1077 22.3775 34.1252 22.3775 34.1515C22.3862 34.1691 22.395 34.1954 22.395 34.213C22.4038 34.2393 22.4126 34.2569 22.4214 34.2832C22.4301 34.3095 22.4389 34.3358 22.4477 34.371C22.4565 34.3973 22.4652 34.4148 22.474 34.4412C22.4828 34.4675 22.4916 34.4851 22.5003 34.5114C22.5091 34.5377 22.5179 34.564 22.5267 34.5904C22.5354 34.6167 22.5442 34.643 22.553 34.6694C22.5881 34.7571 22.6144 34.8537 22.6495 34.9415C22.6847 35.0292 22.7198 35.1258 22.7549 35.2135C22.79 35.3013 22.8251 35.3979 22.8602 35.4944C22.8953 35.5909 22.9392 35.6787 22.9743 35.7752C23.1411 36.179 23.3166 36.5915 23.5009 36.9952C23.6852 37.399 23.8783 37.8115 24.0889 38.2152C24.2908 38.6189 24.5102 39.0315 24.7384 39.444C24.9666 39.8565 25.2036 40.269 25.4494 40.6815C26.4763 42.3579 27.6348 43.9553 28.8899 45.4737C30.1801 47.0272 31.5756 48.4841 33.0413 49.8709C33.4187 50.2132 33.7961 50.5555 34.1823 50.889C34.5685 51.2225 34.9635 51.556 35.3672 51.8808C35.7709 52.2055 36.1747 52.5215 36.596 52.8374C37.0611 53.0744 37.4824 53.3904 37.9125 53.6888ZM31.9706 60.9121C33.489 59.0163 35.0512 57.1644 36.6837 55.3652L36.8329 55.1984C33.2695 52.6707 30.0221 49.6953 27.2311 46.3338L27.0467 46.4567C25.0368 47.9224 22.9918 49.3443 20.8942 50.6871C24.1855 54.4963 27.9157 57.9368 31.9706 60.9121ZM69.7988 61.351C72.2826 63.8436 74.7313 66.3713 77.145 68.9342C79.9536 67.2753 82.3496 64.9495 84.0348 62.1497C81.2876 59.9642 78.5756 57.7174 75.8899 55.4529L75.6617 55.2598C74.2574 57.7612 72.1159 59.7799 69.5793 61.114L69.7988 61.351ZM27.468 10.9017C25.0456 8.47049 22.6583 6.01298 20.3061 3.51158C17.3659 4.93342 14.7592 7.01353 12.8107 9.64658C15.5666 11.8408 18.2787 14.0877 20.9732 16.3609L21.2101 16.554C22.79 14.1579 25.0807 12.306 27.6962 11.1299L27.468 10.9017ZM74.4768 22.0658C71.3435 18.5112 67.824 15.2989 64.0148 12.4815C62.6456 14.1754 61.2238 15.8255 59.7493 17.4229L59.6176 17.5721C63.0143 19.9945 66.1213 22.8294 68.8245 26.0066L68.9825 25.8925C70.773 24.576 72.5986 23.2858 74.4768 22.0658Z" fill="#ED0E1C"/>
<path d="M64.0066 12.4814C62.6374 14.1754 61.2155 15.8254 59.741 17.4228L59.6094 17.572C63.006 19.9944 66.113 22.8293 68.8163 26.0066L68.9743 25.8925C70.7735 24.5584 72.5991 23.2682 74.4773 22.0482C71.3352 18.5199 67.8157 15.2988 64.0066 12.4814C63.752 12.7974 64.9633 13.1924 64.0066 12.4814Z" fill="#F6F6F6"/>
<path d="M41.0462 1.84403C41.0111 1.83526 40.976 1.82648 40.9408 1.8177C40.9057 1.80893 40.8706 1.80015 40.8355 1.79138C40.8004 1.7826 40.7653 1.77382 40.7302 1.77382C40.6951 1.76504 40.66 1.75627 40.6249 1.75627C40.6073 1.75627 40.5898 1.74749 40.5722 1.74749C40.5547 1.74749 40.5371 1.73872 40.5196 1.73872C40.502 1.73872 40.4845 1.72994 40.4669 1.72994C40.4493 1.72994 40.4318 1.72116 40.4142 1.72116C40.3967 1.72116 40.3791 1.71239 40.3616 1.71239C40.344 1.71239 40.3265 1.70362 40.3089 1.70362C40.2914 1.70362 40.2738 1.69483 40.2563 1.69483C40.2387 1.69483 40.2211 1.68606 40.2036 1.68606C40.1773 1.68606 40.1597 1.67727 40.1334 1.67727C40.107 1.67727 40.0895 1.6685 40.0632 1.6685C40.0368 1.6685 40.0193 1.65973 39.9929 1.65973C39.9666 1.65973 39.9491 1.65094 39.9227 1.65094C39.914 1.65094 39.9052 1.65095 39.8964 1.64217C39.8876 1.64217 39.8788 1.64218 39.8701 1.6334C39.8613 1.6334 39.8525 1.63339 39.8437 1.62461C39.835 1.62461 39.8262 1.62462 39.8174 1.61584C39.4663 1.5544 39.1153 1.49297 38.7642 1.44031C38.4131 1.38765 38.062 1.33499 37.7197 1.2911C37.3775 1.24722 37.0264 1.20333 36.6929 1.16823C36.3506 1.13312 36.0083 1.09801 35.6747 1.07168C35.6484 1.07168 35.6133 1.0629 35.587 1.0629C35.5606 1.0629 35.5343 1.0629 35.508 1.05412C35.4816 1.05412 35.4553 1.05413 35.4378 1.04535C35.4114 1.04535 35.3939 1.04534 35.3676 1.03657C35.2183 1.02779 35.0691 1.01902 34.9287 1.00146C35.8152 3.69596 36.6314 6.41677 37.4126 9.13759L37.4828 9.38335C37.9128 9.39213 38.3429 9.41845 38.7817 9.45356C39.2206 9.48866 39.6594 9.53256 40.107 9.58522C40.5547 9.63788 41.0111 9.69932 41.4675 9.77831C41.9239 9.8573 42.389 9.93629 42.8542 10.0328C44.7412 10.419 46.5931 10.9544 48.4012 11.6127L48.3661 11.3757C47.9799 8.78652 47.6376 6.18858 47.3655 3.59063C47.3304 3.57308 47.2865 3.5643 47.2514 3.54674C47.2163 3.52919 47.1724 3.52041 47.1373 3.50286C47.1022 3.49408 47.0583 3.47653 47.0232 3.46776C46.9881 3.4502 46.9442 3.44142 46.9091 3.43264C46.8828 3.42386 46.8564 3.41509 46.8301 3.40631C46.8038 3.39753 46.7774 3.38876 46.7511 3.37998C46.7248 3.37121 46.6985 3.36243 46.6721 3.35365C46.6458 3.34488 46.6195 3.3361 46.5931 3.32732C46.2421 3.21322 45.8822 3.09912 45.5311 2.9938C45.1801 2.88848 44.8202 2.78317 44.4604 2.67785C44.1005 2.5813 43.7494 2.48475 43.3896 2.38821C43.0297 2.29166 42.6787 2.20389 42.3188 2.1249C42.31 2.1249 42.3013 2.12489 42.2925 2.11611C42.2837 2.11611 42.2749 2.11612 42.2661 2.10734C42.2574 2.10734 42.2486 2.10735 42.2398 2.09857C42.231 2.09857 42.2223 2.09856 42.2135 2.08978C42.1872 2.08101 42.1696 2.08102 42.1433 2.07224C42.1169 2.06346 42.0994 2.06346 42.0731 2.05468C42.0467 2.04591 42.0292 2.0459 42.0028 2.03713C41.9765 2.02835 41.959 2.02836 41.9326 2.01958C41.9151 2.01958 41.8975 2.0108 41.88 2.0108C41.8624 2.0108 41.8449 2.00202 41.8273 2.00202C41.8098 2.00202 41.7922 1.99324 41.7746 1.99324C41.7571 1.99324 41.7395 1.98447 41.722 1.98447C41.7044 1.98447 41.6869 1.9757 41.6693 1.9757C41.6518 1.9757 41.6342 1.96691 41.6167 1.96691C41.5991 1.96691 41.5816 1.95814 41.564 1.95814C41.5464 1.95814 41.5289 1.94937 41.5113 1.94937C41.4762 1.94059 41.4411 1.93181 41.406 1.92304C41.3709 1.91426 41.3358 1.90547 41.3007 1.89669C41.2656 1.88792 41.2305 1.87914 41.1954 1.87036C41.1164 1.85281 41.0813 1.84403 41.0462 1.84403Z" fill="#F6F6F6"/>
<path d="M84.1576 37.3726C81.2788 37.0829 78.4175 36.7406 75.5475 36.3545L75.2842 36.3281C75.4685 36.7494 75.6353 37.1707 75.802 37.592C75.9688 38.0133 76.118 38.4346 76.2672 38.8646C76.4076 39.2859 76.548 39.716 76.6709 40.146C76.7938 40.5761 76.9079 40.9974 77.0044 41.4275C77.3818 43.0336 77.61 44.6837 77.6539 46.3337L77.926 46.4127C80.9365 47.1587 83.9294 47.9487 86.9223 48.7737C86.8959 48.4138 86.8696 48.0452 86.8345 47.6766C86.7994 47.308 86.7555 46.9393 86.7029 46.5619C86.6502 46.1845 86.5975 45.8071 86.5273 45.4297C86.4571 45.0523 86.3869 44.6661 86.3079 44.2799C86.3079 44.2712 86.3079 44.2624 86.3079 44.2624C86.3079 44.2536 86.3079 44.2448 86.3079 44.2448C86.3079 44.2361 86.3079 44.2273 86.3079 44.2185C86.3079 44.2097 86.3079 44.201 86.2991 44.201C86.2991 44.1834 86.2903 44.1571 86.2816 44.1395C86.2816 44.1132 86.2728 44.0956 86.264 44.0781C86.2552 44.0605 86.2552 44.0342 86.2465 44.0166C86.2465 43.9903 86.2377 43.9728 86.2289 43.9552C86.2289 43.9377 86.2201 43.9201 86.2201 43.9113C86.2201 43.8938 86.2113 43.8762 86.2113 43.8674C86.2113 43.8499 86.2026 43.8323 86.2026 43.8235C86.2026 43.806 86.1938 43.7884 86.1938 43.7797C86.1938 43.7621 86.185 43.7446 86.185 43.7358C86.185 43.7182 86.1762 43.7007 86.1762 43.6919C86.1762 43.6743 86.1675 43.6568 86.1675 43.648C86.1675 43.6305 86.1587 43.6129 86.1587 43.6041C86.1499 43.569 86.1411 43.5339 86.1324 43.5076C86.1236 43.4725 86.1148 43.4374 86.106 43.411C86.0972 43.3759 86.0885 43.3408 86.0797 43.3145C86.0709 43.2794 86.0621 43.2443 86.0534 43.2179C86.0446 43.1828 86.0358 43.1477 86.027 43.1126C86.0183 43.0775 86.0095 43.0424 86.0007 43.0073C85.9919 42.9722 85.9831 42.9371 85.9744 42.902C85.9656 42.8669 85.9568 42.8318 85.948 42.7967C85.948 42.7791 85.9393 42.7703 85.9393 42.7528C85.9393 42.7352 85.9305 42.7264 85.9305 42.7089C85.9305 42.6913 85.9217 42.6826 85.9217 42.665C85.9217 42.6475 85.9129 42.6387 85.9129 42.6211C85.9129 42.6036 85.9042 42.586 85.8954 42.5685C85.8954 42.5509 85.8866 42.5334 85.8778 42.5158C85.8778 42.4982 85.869 42.4807 85.8603 42.4631C85.8515 42.4456 85.8515 42.428 85.8427 42.4105C85.8339 42.3929 85.8339 42.3754 85.8252 42.3578C85.8164 42.3403 85.8164 42.3227 85.8076 42.3052C85.8076 42.2876 85.7988 42.27 85.7901 42.2525C85.7813 42.2349 85.7813 42.2174 85.7725 42.1998C85.7725 42.1911 85.7637 42.1735 85.7637 42.1647C85.7637 42.1559 85.7549 42.1384 85.7549 42.1296C85.7549 42.1208 85.7462 42.1033 85.7462 42.0945C85.7462 42.0857 85.7374 42.0682 85.7374 42.0594C85.3073 40.4181 84.7807 38.8822 84.1576 37.3726C83.631 37.3199 84.3156 37.75 84.1576 37.3726Z" fill="#F6F6F6"/>
<path d="M20.306 3.51172C17.3657 4.93357 14.759 7.01367 12.8105 9.64673C15.5665 11.8409 18.2785 14.0878 20.973 16.361L21.21 16.5541C22.7898 14.158 25.0806 12.3061 27.6961 11.13L27.4679 10.9018C25.0455 8.47063 22.6582 6.01312 20.306 3.51172C19.5424 3.88035 20.736 3.97689 20.306 3.51172Z" fill="#F6F6F6"/>
<path d="M75.6527 55.2598C74.2484 57.7612 72.1068 59.7798 69.5703 61.1139L69.7985 61.3509C72.2824 63.8435 74.7311 66.3713 77.1447 68.9341C79.9533 67.2753 82.3494 64.9494 84.0345 62.1496C81.2874 59.9641 78.5754 57.7173 75.8896 55.4529L75.6527 55.2598Z" fill="#F6F6F6"/>
<path d="M8.86133 22.7329C8.86133 23.0664 8.87011 23.4087 8.87889 23.7598C8.88766 24.1021 8.91399 24.4532 8.94032 24.8042C8.96665 25.1553 9.00176 25.5152 9.03687 25.8663C9.07198 26.2261 9.12463 26.5859 9.1773 26.9546V26.9634V26.9721V26.9809V26.9897C9.1773 27.016 9.18607 27.0336 9.18607 27.0599C9.18607 27.0862 9.19485 27.1038 9.19485 27.1301C9.19485 27.1564 9.20362 27.174 9.20362 27.2003C9.20362 27.2267 9.2124 27.2442 9.2124 27.2705C9.2124 27.2881 9.21241 27.2969 9.22118 27.3144C9.22118 27.332 9.22995 27.3408 9.22995 27.3583C9.22995 27.3759 9.23873 27.3846 9.23873 27.4022C9.23873 27.4198 9.23873 27.4285 9.24751 27.4461C9.24751 27.4636 9.25629 27.4812 9.25629 27.4987C9.25629 27.5163 9.26506 27.5338 9.26506 27.5514C9.26506 27.569 9.27384 27.5865 9.27384 27.6041C9.27384 27.6216 9.28262 27.6392 9.28262 27.6567C9.28262 27.6743 9.29139 27.7006 9.29139 27.7182C9.29139 27.7357 9.30017 27.762 9.30017 27.7796C9.30017 27.7971 9.30895 27.8235 9.30895 27.841C9.30895 27.8586 9.31773 27.8849 9.31773 27.9025C9.31773 27.9112 9.31772 27.9288 9.3265 27.9376C9.3265 27.9464 9.3265 27.9639 9.33528 27.9727C9.33528 27.9815 9.34406 27.999 9.34406 28.0078C9.34406 28.0166 9.34405 28.0341 9.35283 28.0429C9.36161 28.078 9.36161 28.1131 9.37039 28.1482C9.37916 28.1833 9.37916 28.2184 9.38794 28.2536C9.39671 28.2887 9.39672 28.3238 9.40549 28.3589C9.41427 28.394 9.42305 28.4291 9.42305 28.4642C9.43182 28.4993 9.4406 28.5344 9.4406 28.5695C9.44938 28.6046 9.45815 28.6397 9.45815 28.6748C9.46693 28.7099 9.47571 28.745 9.47571 28.7802C9.48449 28.8153 9.49326 28.8504 9.49326 28.8855C9.49326 28.903 9.50204 28.9118 9.50204 28.9294C9.50204 28.9469 9.51081 28.9557 9.51081 28.9732C9.51081 28.9908 9.51959 28.9996 9.51959 29.0171C9.51959 29.0347 9.52837 29.0435 9.52837 29.061C9.52837 29.0786 9.53715 29.0961 9.53715 29.1137C9.53715 29.1312 9.54592 29.1488 9.54592 29.1663C9.54592 29.1839 9.5547 29.2014 9.5547 29.219C9.5547 29.2366 9.56348 29.2541 9.56348 29.2717C9.57226 29.2892 9.57225 29.3155 9.58103 29.3331C9.58981 29.3507 9.58981 29.377 9.59859 29.3945C9.60736 29.4121 9.60736 29.4384 9.61614 29.456C9.62491 29.4735 9.62492 29.4999 9.63369 29.5174C9.63369 29.5262 9.63369 29.535 9.64247 29.5437C9.64247 29.5525 9.64247 29.5613 9.65125 29.5701C9.65125 29.5789 9.65125 29.5876 9.66002 29.5964C9.66002 29.6052 9.66002 29.614 9.6688 29.6227C10.0374 31.2552 10.5289 32.8614 11.1082 34.4324C14.2064 34.7396 17.3047 35.0995 20.3941 35.5032L20.6925 35.5296C20.517 35.0995 20.3502 34.6606 20.201 34.2218C20.043 33.783 19.9026 33.3529 19.7709 32.9141C19.6393 32.4752 19.5164 32.0451 19.4023 31.6063C19.2882 31.1675 19.1917 30.7374 19.1039 30.2985C18.7792 28.6573 18.6212 26.9809 18.6563 25.3133L18.3491 25.2255C15.1894 24.4619 12.021 23.6194 8.86133 22.7329C8.86133 23.0664 9.45815 22.8997 8.86133 22.7329Z" fill="#F6F6F6"/>
<path d="M48.5938 61.3159L48.6376 61.5704C49.0501 64.4054 49.41 67.2578 49.6996 70.1103C50.2087 70.2683 50.7265 70.4263 51.2356 70.5755C51.7446 70.7247 52.2625 70.8651 52.7803 70.9968C53.2981 71.1284 53.8072 71.2513 54.325 71.3654C54.8429 71.4795 55.3519 71.5848 55.8697 71.6814C55.9049 71.6901 55.94 71.6901 55.9751 71.6989C56.0102 71.7077 56.0453 71.7165 56.0804 71.7165C56.1155 71.7253 56.1506 71.734 56.1857 71.734C56.2208 71.7428 56.2559 71.7428 56.291 71.7516C56.3261 71.7603 56.3613 71.7604 56.3964 71.7691C56.4315 71.7779 56.4666 71.7779 56.5017 71.7867C56.5368 71.7955 56.5719 71.7955 56.607 71.8042C56.6421 71.813 56.6772 71.813 56.7123 71.8218C58.6608 72.1378 60.6356 72.3133 62.6104 72.3572C61.6449 69.452 60.7497 66.5206 59.8983 63.5803L59.8281 63.317C59.398 63.317 58.9504 63.3083 58.5116 63.2907C58.064 63.2732 57.6163 63.238 57.1512 63.2029C56.6948 63.159 56.2296 63.1064 55.7557 63.045C55.2817 62.9835 54.8078 62.9045 54.325 62.8255C52.3941 62.4832 50.472 61.9742 48.5938 61.3159Z" fill="#F6F6F6"/>
<path d="M27.2226 46.334L27.0471 46.4569C25.0372 47.9226 22.9922 49.3444 20.8945 50.6873C24.1858 54.4965 27.916 57.937 31.9709 60.9211C33.4893 59.0253 35.0516 57.1734 36.6841 55.3741L36.8333 55.2074C33.2699 52.6709 30.0137 49.6867 27.2226 46.334Z" fill="#F6F6F6"/>
<path d="M59.2055 60.675C59.2318 60.7276 59.2406 60.7891 59.2406 60.833C59.2406 60.8856 59.2318 60.9295 59.2142 60.9646C59.1967 60.9997 59.1616 61.0348 59.1265 61.0524C59.0914 61.0699 59.0387 61.0875 58.986 61.0875C58.907 61.0875 58.8368 61.0875 58.7578 61.0875C58.6788 61.0875 58.6086 61.0875 58.5296 61.0875C58.4507 61.0875 58.3804 61.0875 58.3014 61.0875C58.2225 61.0875 58.1435 61.0875 58.0732 61.0787C59.9515 61.1402 61.8385 60.9909 63.6641 60.5784H63.5324C63.3481 60.5433 63.1726 60.4204 63.076 60.2625C62.9707 60.1045 62.9532 59.8324 63.1901 59.771C64.5593 59.4725 65.8934 58.9986 67.1485 58.3579C67.1661 58.3491 67.1748 58.3403 67.1924 58.3403C67.2099 58.3403 67.2275 58.3316 67.245 58.3316C67.2626 58.3316 67.2802 58.3316 67.2977 58.3316C67.3153 58.3316 67.3328 58.3316 67.3591 58.3403C67.3942 58.3491 67.4294 58.3579 67.4645 58.3667C67.4996 58.3842 67.5347 58.4018 67.5698 58.4193C67.6049 58.4369 67.64 58.4632 67.6663 58.4896C67.7014 58.5159 67.7278 58.5422 67.7541 58.5773C67.8594 58.709 67.956 58.9284 67.8155 59.0688C68.9916 58.4544 70.0887 57.6821 71.0454 56.7693L70.7997 56.8219L70.4662 56.6552C70.3345 56.5323 70.1853 56.269 70.3345 56.1022C71.2561 55.2158 72.0635 54.1977 72.6779 53.0742C72.7481 52.9689 72.8798 52.9514 72.9939 52.9689C73.0114 52.9689 73.0378 52.9777 73.0553 52.9865C73.0729 52.9952 73.0992 53.004 73.1168 53.0128C73.1343 53.0216 73.1606 53.0304 73.1782 53.0479C73.1957 53.0567 73.2221 53.0742 73.2396 53.0918C73.3801 53.1971 73.5293 53.3902 73.5029 53.5745C74.1349 52.4335 74.5913 51.2048 74.8897 49.9409C74.837 50.055 74.6878 50.0725 74.5737 50.0462L74.4157 49.9936C74.2402 49.897 74.012 49.6688 74.0734 49.4494C74.1436 49.1247 74.2139 48.7911 74.2665 48.4488C74.3192 48.1153 74.3631 47.773 74.3982 47.4219C74.4333 47.0797 74.4596 46.7286 74.4684 46.3775C74.4859 46.0264 74.4859 45.6753 74.4859 45.3155C74.4859 45.2716 74.4947 45.2365 74.5123 45.2014C74.5298 45.1663 74.5562 45.14 74.5825 45.1224C74.6088 45.1049 74.6439 45.0873 74.6878 45.0785C74.7229 45.0698 74.7756 45.0698 74.8195 45.0785C74.8282 45.0785 74.8282 45.0785 74.837 45.0785C74.8458 45.0785 74.8458 45.0785 74.8546 45.0873C74.8633 45.0873 74.8634 45.0873 74.8721 45.0961C74.8809 45.0961 74.8809 45.0961 74.8897 45.1049C75.1003 45.1751 75.3197 45.3857 75.3285 45.6227C75.3285 45.6841 75.3285 45.7543 75.3285 45.8158C75.3285 45.8772 75.3285 45.9474 75.3285 46.0089C75.3285 46.0703 75.3285 46.1405 75.3285 46.202C75.3285 46.2634 75.3285 46.3336 75.3285 46.3951C75.3636 44.587 75.1354 42.779 74.7317 41.0148C74.7844 41.2343 74.5913 41.322 74.3982 41.2869C74.3455 41.2782 74.2841 41.2518 74.2314 41.2255C74.1787 41.1904 74.1261 41.1553 74.0734 41.1114C74.0295 41.0675 73.9857 41.0149 73.9506 40.9622C73.9155 40.9095 73.8979 40.8569 73.8803 40.8042C74.9687 45.4384 74.6703 50.5816 71.7212 54.5049C68.6844 58.551 63.6202 60.2274 58.7052 60.2625C58.9334 60.3151 59.1265 60.4819 59.2055 60.675Z" fill="#6D1627"/>
<path d="M48.5504 59.2184L48.4714 59.1921C47.4445 58.8322 46.4351 58.4285 45.4434 57.9896C48.1291 59.1833 50.9464 60.1048 53.8428 60.6315C53.7814 60.6227 53.7287 60.5963 53.676 60.57C53.6234 60.5437 53.5707 60.4998 53.5268 60.4559C53.4829 60.412 53.4391 60.3594 53.4127 60.3155C53.3776 60.2628 53.3601 60.2102 53.3425 60.1575C53.2899 59.9293 53.5005 59.7977 53.7024 59.8328C51.4204 59.4202 49.1823 58.7532 47.032 57.9019C47.1548 57.9457 47.2689 57.9984 47.3918 58.0423C47.5147 58.0862 47.6288 58.1388 47.7517 58.1827C47.8745 58.2266 47.9974 58.2705 48.1115 58.3144C48.2344 58.3583 48.3485 58.4021 48.4714 58.446C48.6908 58.525 48.9014 58.7357 48.9014 58.9814C48.9102 59.1745 48.7171 59.2535 48.5504 59.2184Z" fill="#A2000C"/>
<path d="M25.6159 40.1287C25.5721 40.1374 25.5369 40.155 25.5018 40.1813C25.4755 40.2077 25.4492 40.234 25.4404 40.2691C25.4228 40.3042 25.4229 40.3393 25.4229 40.3832C25.4229 40.4271 25.4316 40.471 25.4492 40.5236C25.458 40.5587 25.4755 40.585 25.4843 40.6114C26.5112 42.279 27.6522 43.8676 28.8985 45.386L28.9248 45.4035L29.2934 45.623L29.5129 45.5966C29.7411 45.5001 29.6533 45.2105 29.5304 45.0788C29.3724 44.8857 29.2144 44.6838 29.0565 44.4908C28.8985 44.2889 28.7493 44.0958 28.5913 43.8939C28.4421 43.6921 28.2929 43.499 28.1437 43.2971C27.9945 43.0952 27.854 42.8934 27.7048 42.6915C27.6785 42.6564 27.6522 42.6125 27.6258 42.5774C27.5995 42.5423 27.5732 42.5072 27.5468 42.4633C27.5205 42.4282 27.4942 42.3843 27.4679 42.3492C27.4415 42.3141 27.4152 42.2702 27.3889 42.2351C27.3889 42.2351 27.3889 42.2263 27.3801 42.2263C27.3801 42.2263 27.3801 42.2175 27.3713 42.2175C27.3713 42.2175 27.3713 42.2088 27.3625 42.2088C27.3625 42.2088 27.3625 42.2 27.3538 42.2C27.2572 42.0596 27.1607 41.9104 27.0641 41.7699C26.9676 41.6295 26.871 41.4803 26.7745 41.3311C26.6779 41.1819 26.5902 41.0414 26.4936 40.8922C26.4059 40.743 26.3093 40.6026 26.2215 40.4534L26.2128 40.4446L26.204 40.4358L26.1952 40.4271L26.1864 40.4183C26.1601 40.3832 26.125 40.3481 26.0987 40.3218C26.0636 40.2954 26.0285 40.2691 25.9933 40.2428C25.9582 40.2164 25.9144 40.1989 25.8792 40.1813C25.8441 40.1638 25.8003 40.155 25.7651 40.1462C25.7476 40.1462 25.7388 40.1374 25.7213 40.1374C25.7037 40.1374 25.6949 40.1374 25.6774 40.1374C25.6598 40.1374 25.651 40.1374 25.6335 40.1374C25.6423 40.1199 25.6335 40.1287 25.6159 40.1287Z" fill="#FEFEFE"/>
<path d="M43.0647 56.1025C43.0208 56.0937 42.9857 56.0937 42.9418 56.0937C42.9067 56.0937 42.8716 56.1113 42.8365 56.1201C42.8102 56.1376 42.7751 56.1552 42.7575 56.1815C42.7399 56.2078 42.7224 56.2342 42.7136 56.2693C42.7048 56.3131 42.7048 56.3658 42.7136 56.4185C42.7224 56.4711 42.7487 56.5238 42.7751 56.5764C42.8102 56.6291 42.8453 56.673 42.8979 56.7169C42.9418 56.7608 43.0032 56.7959 43.0559 56.831C43.1349 56.8749 43.2227 56.9187 43.3017 56.9626C43.3807 57.0065 43.4684 57.0504 43.5562 57.0943C43.644 57.1382 43.723 57.1821 43.8107 57.2172C43.8985 57.261 43.9775 57.2962 44.0652 57.34C44.0916 57.3576 44.1267 57.3664 44.153 57.3839C44.1793 57.4015 44.2057 57.4102 44.2408 57.4278C44.2671 57.4454 44.2934 57.4541 44.3198 57.4717C44.3461 57.4805 44.3724 57.498 44.3988 57.5068C45.7241 58.1387 47.0845 58.7092 48.4712 59.192L48.5502 59.2183C48.717 59.2446 48.9101 59.1744 48.9013 58.9725C48.9013 58.9199 48.8925 58.8584 48.8662 58.8058C48.8486 58.7531 48.8135 58.7004 48.7784 58.6566C48.7433 58.6127 48.6906 58.5688 48.6468 58.5249C48.5941 58.4898 48.5414 58.4547 48.48 58.4371C48.3571 58.3933 48.243 58.3494 48.1202 58.3055C47.9973 58.2616 47.8744 58.2177 47.7603 58.1738C47.6374 58.1299 47.5233 58.0861 47.4005 58.0334C47.2776 57.9807 47.1547 57.9369 47.0406 57.893C47.0055 57.8754 46.9704 57.8666 46.9353 57.8491C46.9002 57.8315 46.8651 57.8228 46.83 57.8052C46.7948 57.7877 46.7597 57.7789 46.7246 57.7613C46.6895 57.7438 46.6544 57.735 46.6193 57.7174C46.6018 57.7087 46.5842 57.6999 46.5579 57.6911C46.5403 57.6823 46.5228 57.6736 46.4964 57.6648C46.4789 57.656 46.4613 57.6472 46.435 57.6384C46.4174 57.6297 46.3999 57.6209 46.3736 57.6121C46.3384 57.5946 46.3033 57.5858 46.2682 57.5682C46.2331 57.5507 46.198 57.5419 46.1629 57.5243C46.1278 57.5068 46.0927 57.498 46.0576 57.4805C46.0225 57.4629 45.9874 57.4541 45.9523 57.4366C45.9259 57.4278 45.8996 57.419 45.8821 57.4015C45.8557 57.3927 45.8294 57.3839 45.8118 57.3664C45.7855 57.3576 45.7592 57.3488 45.7416 57.3313C45.7153 57.3225 45.689 57.3137 45.6714 57.2961C45.6714 57.2961 45.6626 57.2961 45.6539 57.2874C45.6539 57.2874 45.6451 57.2874 45.6451 57.2786C45.6451 57.2698 45.6363 57.2786 45.6275 57.2698C45.6275 57.2698 45.6188 57.2698 45.6188 57.261C45.4169 57.1733 45.215 57.0855 45.0131 56.989C44.8113 56.8924 44.6094 56.8046 44.4163 56.7081C44.2145 56.6116 44.0126 56.515 43.8195 56.4185C43.6176 56.3219 43.4245 56.2166 43.2227 56.1113C43.2051 56.1025 43.1963 56.0937 43.1788 56.0937C43.1612 56.0849 43.1525 56.0849 43.1349 56.0762C43.1174 56.0674 43.1086 56.0674 43.091 56.0674C43.091 56.1025 43.0735 56.1025 43.0647 56.1025Z" fill="#FEFEFE"/>
<path d="M63.1375 23.3122L63.4096 23.2596C63.4359 23.242 63.4535 23.2069 63.471 23.1806C63.4798 23.1455 63.4886 23.1104 63.4798 23.0753C63.4798 23.0401 63.4623 22.9963 63.4447 22.9524C63.4272 22.9085 63.4008 22.8646 63.3745 22.8295C63.3657 22.8207 63.3657 22.8119 63.3569 22.8032C63.3482 22.7944 63.3394 22.7856 63.3394 22.7768C63.3306 22.7681 63.3218 22.7593 63.3131 22.7505C63.3043 22.7417 63.2955 22.733 63.2867 22.7242C62.9269 22.3907 62.5582 22.0659 62.1896 21.75C61.821 21.434 61.4436 21.1092 61.0574 20.8021C60.6712 20.4949 60.285 20.1877 59.8901 19.8893C59.4951 19.5908 59.1002 19.2924 58.6964 19.0116C58.6877 19.0028 58.6789 19.0028 58.6789 18.994C58.6701 18.994 58.6613 18.9852 58.6613 18.9852C58.6525 18.9852 58.6438 18.9765 58.6438 18.9765C58.635 18.9765 58.6262 18.9677 58.6262 18.9677C58.6174 18.9589 58.5999 18.9589 58.5911 18.9501C58.5823 18.9414 58.5648 18.9414 58.556 18.9326C58.5472 18.9238 58.5297 18.9238 58.5209 18.9238C58.5121 18.9238 58.4946 18.915 58.4858 18.915C58.4507 18.9063 58.4243 18.9062 58.3892 18.9062C58.3629 18.9062 58.3278 18.915 58.3015 18.915C58.2751 18.9238 58.2488 18.9326 58.2313 18.9501C58.2137 18.9677 58.1874 18.9852 58.1786 19.0116C58.0557 19.2047 58.2576 19.4504 58.4068 19.5557C59.9603 20.6616 61.4436 21.8553 62.8479 23.1455L63.1375 23.3122Z" fill="#FEFEFE"/>
<path d="M48.559 14.2982C48.5766 14.307 48.5941 14.307 48.6117 14.3158C48.6292 14.3246 48.6468 14.3246 48.6643 14.3333C48.6819 14.3421 48.6994 14.3421 48.717 14.3509C48.7345 14.3597 48.7521 14.3597 48.7696 14.3684C48.8047 14.3772 48.8311 14.3948 48.8662 14.4035C48.9013 14.4123 48.9276 14.4299 48.9627 14.4387C48.9978 14.4474 49.0242 14.465 49.0593 14.4738C49.0944 14.4825 49.1207 14.5001 49.1558 14.5089C49.1646 14.5089 49.1646 14.5176 49.1734 14.5176C49.1822 14.5176 49.1822 14.5264 49.1909 14.5264C49.1997 14.5264 49.1997 14.5352 49.2085 14.5352C49.2173 14.5352 49.2173 14.544 49.226 14.544C49.3752 14.6054 49.5244 14.6581 49.6649 14.7195C49.8141 14.781 49.9633 14.8424 50.1037 14.9038C50.2441 14.9653 50.4021 15.0267 50.5426 15.0882C50.6918 15.1496 50.841 15.2198 50.9814 15.2812C51.8591 15.6762 52.728 16.0975 53.5794 16.5451L53.7373 16.6153C53.869 16.6416 54.0445 16.6065 54.0709 16.4486C54.0796 16.4047 54.0796 16.3608 54.0709 16.3169C54.0621 16.273 54.0445 16.2291 54.0182 16.1765C53.9919 16.1326 53.9568 16.0887 53.9217 16.0448C53.8778 16.0009 53.8339 15.9658 53.7812 15.9307C53.7812 15.9307 53.7724 15.9307 53.7724 15.922C53.7724 15.922 53.7637 15.9219 53.7637 15.9132C53.7637 15.9132 53.7549 15.9132 53.7549 15.9044C53.7549 15.9044 53.7461 15.9044 53.7461 15.8956C53.6232 15.8342 53.5004 15.764 53.3775 15.7025C53.2546 15.6411 53.1317 15.5797 53.0089 15.5094C52.886 15.448 52.7631 15.3866 52.6402 15.3251C52.5174 15.2637 52.3945 15.2022 52.2716 15.1408C52.2716 15.1408 52.2628 15.1408 52.2628 15.132C52.2628 15.132 52.254 15.132 52.254 15.1233C52.254 15.1233 52.2453 15.1233 52.2453 15.1145C52.2453 15.1145 52.2365 15.1145 52.2365 15.1057C52.2189 15.0969 52.2102 15.0882 52.1926 15.0882C52.1751 15.0794 52.1663 15.0706 52.1487 15.0706C52.1312 15.0618 52.1224 15.0618 52.1048 15.053C52.0873 15.0443 52.0785 15.0355 52.061 15.0355C51.7713 14.8951 51.4817 14.7634 51.1921 14.6318C50.9024 14.5001 50.6128 14.3772 50.3231 14.2543C50.0335 14.1315 49.7439 14.0086 49.4542 13.8945C49.1646 13.7804 48.875 13.6663 48.5765 13.561C48.5678 13.561 48.559 13.5522 48.5502 13.5522C48.5414 13.5522 48.5327 13.5522 48.5239 13.5434C48.5151 13.5434 48.5063 13.5434 48.4976 13.5346C48.4888 13.5259 48.48 13.5346 48.48 13.5259C48.4273 13.5171 48.3835 13.5171 48.3483 13.5171C48.3045 13.5259 48.2694 13.5347 48.243 13.5522C48.2079 13.5698 48.1904 13.5961 48.1728 13.6224C48.1553 13.6487 48.1465 13.6926 48.1465 13.7277C48.1465 13.7804 48.1553 13.8243 48.1816 13.8769C48.1991 13.9296 48.2343 13.9735 48.2781 14.0261C48.3132 14.07 48.3659 14.1139 48.4186 14.149C48.4449 14.2456 48.4976 14.2807 48.559 14.2982Z" fill="#FEFEFE"/>
<path d="M70.5454 31.9662C70.5893 31.9574 70.6244 31.9398 70.6507 31.9223C70.677 31.896 70.6946 31.8696 70.7121 31.8433C70.7209 31.8082 70.7297 31.7731 70.7297 31.738C70.7297 31.6941 70.7209 31.659 70.6946 31.6063C70.6946 31.5975 70.6858 31.5888 70.6858 31.5888C70.6858 31.58 70.677 31.5712 70.677 31.5712C70.677 31.5624 70.6682 31.5624 70.6682 31.5537C70.6682 31.5449 70.6595 31.5361 70.6595 31.5361C70.4137 31.1499 70.1592 30.755 69.8959 30.3688C69.6326 29.9826 69.3605 29.5964 69.0884 29.219C68.8076 28.8416 68.5267 28.4554 68.2283 28.078C67.9299 27.7006 67.6315 27.332 67.3243 26.9634C67.3155 26.9546 67.3155 26.9458 67.3067 26.937C67.2979 26.9283 67.2892 26.9195 67.2892 26.9195C67.2804 26.9107 67.2716 26.9019 67.2628 26.9019C67.2541 26.8931 67.2453 26.8931 67.2365 26.8844C67.2189 26.8668 67.1926 26.8493 67.1663 26.8317C67.14 26.8142 67.1136 26.8054 67.0961 26.7878C67.0697 26.779 67.0434 26.7615 67.0171 26.7527C66.9907 26.7439 66.9644 26.7352 66.9381 26.7352C66.8679 26.7176 66.7889 26.7176 66.7187 26.7527C66.508 26.8493 66.6309 27.1301 66.7362 27.253C67.9123 28.6573 68.9919 30.1318 69.9661 31.6765C70.0539 31.8345 70.2206 31.9486 70.3962 31.9837L70.5454 31.9662Z" fill="#FEFEFE"/>
<path d="M43.4416 12.8409C43.4943 12.8497 43.5557 12.8497 43.5996 12.8409C43.6523 12.8321 43.6874 12.8146 43.7225 12.7882C43.7576 12.7619 43.7839 12.7268 43.8015 12.6917C43.819 12.6478 43.819 12.6039 43.8102 12.5513C43.7664 12.3319 43.582 12.1475 43.3626 12.0949L43.2573 12.0773C43.2046 12.0685 43.152 12.0598 43.0993 12.0422C43.0467 12.0334 42.994 12.0247 42.9413 12.0071C42.8887 11.9983 42.836 11.9896 42.7834 11.9808C42.7307 11.972 42.678 11.9632 42.6254 11.9545C42.6078 11.9545 42.5903 11.9457 42.5815 11.9457C42.5639 11.9457 42.5464 11.9369 42.5376 11.9369C42.52 11.9369 42.5025 11.9281 42.4937 11.9281C42.4762 11.9281 42.4586 11.9193 42.4498 11.9193C42.4411 11.9193 42.4323 11.9193 42.4235 11.9106C42.4147 11.9106 42.4059 11.9106 42.3972 11.9018C42.3884 11.9018 42.3796 11.9018 42.3708 11.893C42.3621 11.893 42.3533 11.893 42.3445 11.8842C42.0636 11.8316 41.774 11.7877 41.4932 11.7526C41.2123 11.7087 40.9314 11.6736 40.6506 11.6473C40.3697 11.6121 40.0889 11.5858 39.808 11.5683C39.5271 11.5419 39.2551 11.5244 38.983 11.5068C38.9742 11.5068 38.9654 11.5068 38.9566 11.5068C38.9479 11.5068 38.9391 11.5068 38.9303 11.5068C38.9215 11.5068 38.9128 11.5068 38.904 11.5068C38.8952 11.5068 38.8864 11.5068 38.8777 11.5068C38.8689 11.5068 38.8513 11.5068 38.8425 11.5068C38.825 11.5068 38.8162 11.5068 38.8074 11.5068C38.7987 11.5068 38.7811 11.5068 38.7723 11.5068C38.7636 11.5068 38.746 11.5068 38.7372 11.5068C38.7109 11.5068 38.6758 11.5068 38.6495 11.5068C38.6231 11.5068 38.588 11.5068 38.5617 11.5068C38.5354 11.5068 38.5002 11.5068 38.4739 11.5068C38.4476 11.5068 38.4125 11.5068 38.3861 11.5068C38.3861 11.5068 38.3862 11.5068 38.3774 11.5068C38.3774 11.5068 38.3774 11.5068 38.3686 11.5068C38.3686 11.5068 38.3686 11.5068 38.3598 11.5068C38.3598 11.5068 38.3598 11.5068 38.351 11.5068C38.1404 11.5156 38.0614 11.7087 38.1404 11.8842C38.2106 12.0773 38.4125 12.2265 38.6143 12.2616L38.6933 12.2792C39.0532 12.288 39.413 12.3055 39.7729 12.3319C40.1327 12.3582 40.5014 12.3933 40.87 12.4372C41.2386 12.4811 41.6073 12.5249 41.9847 12.5864C42.3621 12.639 42.7395 12.7093 43.1169 12.7795C43.1256 12.7795 43.1256 12.7795 43.1344 12.7795C43.1432 12.7795 43.1432 12.7795 43.152 12.7795C43.1608 12.7795 43.1608 12.7795 43.1695 12.7795C43.1783 12.7795 43.1783 12.7795 43.1871 12.7795C43.2134 12.7883 43.2397 12.7883 43.2661 12.797C43.2924 12.8058 43.3187 12.8058 43.3451 12.8146C43.3714 12.8234 43.3977 12.8234 43.4241 12.8321C43.389 12.8234 43.4153 12.8321 43.4416 12.8409Z" fill="#FEFEFE"/>
<path d="M73.8894 40.8221C73.8982 40.8748 73.9245 40.9274 73.9596 40.9801C73.9947 41.0328 74.0298 41.0854 74.0825 41.1293C74.1264 41.1732 74.1791 41.2171 74.2405 41.2434C74.2932 41.2785 74.3546 41.2961 74.4073 41.3048C74.6003 41.34 74.7934 41.2522 74.7408 41.0328C74.732 40.9889 74.7232 40.9538 74.7144 40.9099C74.7057 40.8836 74.7057 40.8572 74.6969 40.8309C74.6881 40.8046 74.6881 40.7782 74.6793 40.7519C74.6706 40.7256 74.6706 40.6992 74.6618 40.6729C74.6618 40.6554 74.653 40.6466 74.653 40.629C74.653 40.6115 74.6442 40.6027 74.6442 40.5851C74.6442 40.5676 74.6354 40.5588 74.6354 40.5413C74.6354 40.5237 74.6267 40.5149 74.6267 40.4974C74.6267 40.4886 74.6179 40.4798 74.6179 40.4623C74.6179 40.4535 74.6091 40.4447 74.6091 40.4272C74.6091 40.4184 74.6003 40.4096 74.6003 40.392C74.6003 40.3833 74.5916 40.3745 74.5916 40.3569C74.5828 40.3394 74.5828 40.3218 74.574 40.2955C74.5652 40.2779 74.5652 40.2604 74.5565 40.2341C74.5477 40.2165 74.5477 40.199 74.5389 40.1726C74.5301 40.1551 74.5301 40.1375 74.5213 40.1112C74.5213 40.1024 74.5213 40.1024 74.5213 40.0936C74.5213 40.0849 74.5213 40.0849 74.5213 40.0761C74.5213 40.0673 74.5213 40.0673 74.5213 40.0585C74.5213 40.0498 74.5213 40.0498 74.5213 40.041C74.5126 40.0234 74.5126 40.0059 74.5038 39.9795C74.495 39.962 74.495 39.9444 74.4862 39.9181C74.4775 39.9005 74.4775 39.883 74.4687 39.8567C74.4599 39.8391 74.4599 39.8216 74.4511 39.7952C74.4511 39.7865 74.4511 39.7864 74.4511 39.7777C74.4511 39.7689 74.4511 39.7689 74.4424 39.7601C74.4424 39.7514 74.4424 39.7513 74.4424 39.7426C74.4424 39.7338 74.4424 39.7338 74.4336 39.725C74.4248 39.7075 74.4248 39.6899 74.416 39.6724C74.416 39.6548 74.4072 39.6372 74.3985 39.6197C74.3897 39.6021 74.3897 39.5846 74.3809 39.567C74.3721 39.5495 74.3721 39.5319 74.3634 39.5144C74.3634 39.5056 74.3546 39.4968 74.3546 39.488C74.3546 39.4793 74.3546 39.4705 74.3458 39.4617C74.3458 39.4529 74.337 39.4442 74.337 39.4354C74.337 39.4266 74.3283 39.4178 74.3283 39.409C74.3283 39.3915 74.3195 39.3827 74.3107 39.3652C74.3107 39.3476 74.3019 39.3301 74.2931 39.3213C74.2844 39.3037 74.2844 39.2862 74.2756 39.2774C74.2668 39.2598 74.2668 39.2511 74.258 39.2335C74.258 39.2247 74.2493 39.2159 74.2493 39.1984C74.2493 39.1896 74.2405 39.1808 74.2405 39.1633C74.2405 39.1545 74.2317 39.1457 74.2317 39.1282C74.2317 39.1194 74.2229 39.1106 74.2229 39.0931C74.2229 39.0843 74.2142 39.0668 74.2142 39.058C74.2142 39.0492 74.2054 39.0316 74.2054 39.0229C74.2054 39.0141 74.1966 38.9965 74.1966 38.9878C74.1966 38.979 74.1878 38.9614 74.1878 38.9526C74.1878 38.9351 74.1791 38.9175 74.1703 38.9088C74.1615 38.8912 74.1615 38.8737 74.1527 38.8649C74.1439 38.8473 74.1439 38.8298 74.1352 38.821C74.1264 38.8034 74.1264 38.7859 74.1176 38.7771C74.1176 38.7683 74.1176 38.7596 74.1088 38.7596C74.1088 38.7508 74.1088 38.742 74.1001 38.742C74.1001 38.7332 74.1001 38.7245 74.0913 38.7245C74.0913 38.7157 74.0913 38.7069 74.0825 38.7069C74.0123 38.4963 73.9421 38.2856 73.8719 38.0837C73.8017 37.8731 73.7226 37.6625 73.6437 37.4606C73.5647 37.2499 73.4857 37.0481 73.3979 36.8374C73.3189 36.6268 73.2312 36.4249 73.1434 36.2143C73.1434 36.2055 73.1346 36.2055 73.1346 36.1967C73.1346 36.1879 73.1258 36.1879 73.1258 36.1792C73.1258 36.1704 73.1171 36.1704 73.1171 36.1616C73.1171 36.1528 73.1083 36.1528 73.1083 36.1441C73.0819 36.1002 73.0556 36.0651 73.0205 36.03C72.9854 35.9949 72.9503 35.9598 72.9152 35.9334C72.8801 35.9071 72.8362 35.8808 72.8011 35.8632C72.7572 35.8457 72.7221 35.8281 72.6782 35.8193C72.6431 35.8105 72.6168 35.8105 72.5817 35.8105C72.529 35.8105 72.4851 35.8193 72.4412 35.8369C72.4061 35.8544 72.371 35.8808 72.3535 35.9159C72.3359 35.951 72.3184 35.9861 72.3184 36.0387C72.3184 36.0826 72.3271 36.1353 72.3535 36.1879C72.5027 36.539 72.6519 36.8989 72.7835 37.2499C72.9152 37.601 73.0468 37.9609 73.1697 38.3119C73.2926 38.663 73.3979 39.0229 73.5032 39.3739C73.6085 39.725 73.7051 40.0849 73.7929 40.4359C73.7929 40.4359 73.7929 40.4359 73.7929 40.4447C73.7929 40.4447 73.7929 40.4447 73.7929 40.4535C73.7929 40.4535 73.7929 40.4535 73.7929 40.4623C73.7929 40.4623 73.7929 40.4623 73.7929 40.471C73.8016 40.4974 73.8016 40.5237 73.8104 40.5413C73.8192 40.5676 73.8192 40.5939 73.828 40.6115C73.8368 40.6378 73.8368 40.6641 73.8455 40.6905C73.8806 40.7782 73.8806 40.7958 73.8894 40.8221Z" fill="#FEFEFE"/>
<path d="M34.112 12.5692C34.1647 12.5605 34.1998 12.5429 34.2349 12.5166C34.27 12.4903 34.2876 12.4552 34.2964 12.4113C34.3051 12.3674 34.3139 12.3235 34.2964 12.2796C34.2876 12.2269 34.2613 12.1831 34.2349 12.1304C34.2086 12.0953 34.1823 12.0514 34.1471 12.0163C34.112 11.9812 34.0769 11.9549 34.0418 11.9285C34.0067 11.9022 33.9628 11.8759 33.919 11.8583C33.8751 11.8408 33.84 11.8232 33.7961 11.8144C33.7873 11.8144 33.7697 11.8144 33.761 11.8057C33.7522 11.8057 33.7346 11.8057 33.7259 11.8057C33.7171 11.8057 33.6995 11.8057 33.6908 11.8057C33.682 11.8057 33.6644 11.8057 33.6556 11.8057C32.2338 12.0514 30.8295 12.4639 29.5042 13.0432C29.4954 13.0432 29.4954 13.052 29.4866 13.052C29.4779 13.052 29.4779 13.0607 29.4691 13.0607C29.4603 13.0607 29.4603 13.0695 29.4515 13.0695L29.4428 13.0783C29.2936 13.21 29.3813 13.4294 29.4866 13.5523L29.8728 13.7892L30.0922 13.7805C30.3994 13.64 30.7154 13.5171 31.0401 13.3943C31.3649 13.2714 31.6896 13.1661 32.0319 13.0607C32.3655 12.9554 32.7077 12.8677 33.0588 12.7799C33.4099 12.7097 33.761 12.6395 34.112 12.5692C34.1647 12.5605 33.761 12.6395 34.112 12.5692Z" fill="#FEFEFE"/>
<path d="M74.4947 45.3334C74.5035 45.6932 74.4947 46.0443 74.4771 46.3954C74.4596 46.7464 74.442 47.0975 74.4069 47.4398C74.3718 47.7821 74.3279 48.1244 74.2753 48.4667C74.2226 48.8002 74.1612 49.1338 74.0822 49.4673C74.0295 49.6955 74.2489 49.9237 74.4245 50.0114L74.5825 50.0641C74.6176 50.0729 74.6527 50.0729 74.6878 50.0729C74.7229 50.0729 74.7492 50.0641 74.7756 50.0553C74.8019 50.0465 74.8282 50.029 74.8458 50.0202C74.8633 50.0026 74.8809 49.9851 74.8984 49.9588C74.9072 49.9412 74.916 49.9237 74.916 49.9061C74.9774 49.6428 75.0301 49.3795 75.0827 49.1074C75.1266 48.8353 75.1705 48.5632 75.2056 48.2912C75.2407 48.0191 75.2671 47.7382 75.2846 47.4574C75.3022 47.1765 75.3197 46.8956 75.3285 46.606C75.3285 46.5972 75.3285 46.5972 75.3285 46.5885C75.3285 46.5797 75.3285 46.5797 75.3285 46.5709C75.3285 46.5621 75.3285 46.5621 75.3285 46.5534C75.3285 46.5446 75.3285 46.5446 75.3285 46.5358C75.3285 46.527 75.3285 46.5182 75.3285 46.5007C75.3285 46.4831 75.3285 46.4831 75.3285 46.4656C75.3285 46.4568 75.3285 46.448 75.3285 46.4305C75.3285 46.4217 75.3285 46.4129 75.3285 46.3954C75.3285 46.3339 75.3285 46.2637 75.3285 46.2023C75.3285 46.1408 75.3285 46.0706 75.3285 46.0092C75.3285 45.9478 75.3285 45.8775 75.3285 45.8161C75.3285 45.7547 75.3285 45.6844 75.3285 45.623C75.3197 45.386 75.1003 45.1754 74.8896 45.1052C74.8809 45.1052 74.8809 45.0964 74.8721 45.0964C74.8633 45.0964 74.8633 45.0964 74.8545 45.0876C74.8458 45.0876 74.8458 45.0876 74.837 45.0788C74.8282 45.0788 74.8282 45.0788 74.8194 45.0788C74.7755 45.0701 74.7317 45.0701 74.6878 45.0788C74.6439 45.0876 74.6088 45.0964 74.5825 45.1227C74.5561 45.1403 74.5298 45.1754 74.5122 45.2017C74.4947 45.2456 74.4859 45.2895 74.4947 45.3334C74.4947 45.6844 74.4859 45.2895 74.4947 45.3334Z" fill="#FEFEFE"/>
<path d="M24.2296 18.7045C24.4051 18.4412 24.5894 18.1779 24.7825 17.9234C24.9756 17.6688 25.1775 17.4231 25.3881 17.1861C25.5988 16.9491 25.8182 16.7122 26.0552 16.4927C26.2834 16.2733 26.5204 16.0539 26.7749 15.852C26.9592 15.7028 26.8012 15.4307 26.6608 15.3166C26.6345 15.2903 26.6081 15.2728 26.5818 15.2552C26.5555 15.2376 26.5291 15.2201 26.494 15.2025C26.4677 15.185 26.4414 15.1762 26.4063 15.1674C26.3799 15.1587 26.3536 15.1499 26.3185 15.1411C26.3009 15.1411 26.2834 15.1323 26.2658 15.1323C26.2483 15.1323 26.2307 15.1323 26.2132 15.1323C26.1956 15.1323 26.1781 15.1323 26.1605 15.1411C26.1429 15.1411 26.1254 15.1499 26.1166 15.1499C26.0903 15.1587 26.0727 15.1674 26.0464 15.185C25.7919 15.3956 25.5461 15.6151 25.3004 15.852C25.0634 16.0802 24.8352 16.3172 24.6158 16.5717C24.3964 16.8175 24.1857 17.072 23.9838 17.3353C23.782 17.5986 23.5977 17.8619 23.4134 18.134C23.4134 18.1428 23.4046 18.1516 23.4046 18.1516C23.4046 18.1603 23.3958 18.1691 23.3958 18.1691C23.3958 18.1779 23.387 18.1867 23.387 18.1954C23.387 18.2042 23.387 18.213 23.3782 18.2218C23.3431 18.4061 23.4923 18.5904 23.6328 18.6957L23.8961 18.8186L24.2296 18.7045Z" fill="#FEFEFE"/>
<path d="M72.6781 53.0922C72.0638 54.2156 71.2563 55.2338 70.3347 56.1202C70.1855 56.287 70.3347 56.5503 70.4664 56.6732L70.7999 56.8399L71.0456 56.7873L71.072 56.7785C71.3089 56.5503 71.5371 56.3133 71.7566 56.0676C71.976 55.8218 72.1866 55.5673 72.3885 55.3127C72.5904 55.0494 72.7835 54.7861 72.9678 54.5141C73.1521 54.242 73.3188 53.9611 73.4768 53.6715C73.4768 53.6627 73.4856 53.6627 73.4856 53.6539C73.4856 53.6451 73.4944 53.6452 73.4944 53.6364C73.4944 53.6276 73.4944 53.6188 73.5031 53.6188C73.5031 53.61 73.5032 53.6013 73.5119 53.5925C73.5383 53.3994 73.3891 53.2151 73.2486 53.1098C73.2311 53.0922 73.2047 53.0834 73.1872 53.0659C73.1696 53.0571 73.1433 53.0396 73.1257 53.0308C73.1082 53.022 73.0819 53.0132 73.0643 53.0044C73.0467 52.9957 73.0204 52.9957 73.0029 52.9869C72.88 52.9693 72.7483 52.9869 72.6781 53.0922C72.5201 53.3731 72.6957 53.0659 72.6781 53.0922Z" fill="#FEFEFE"/>
<path d="M21.6233 26.5683C21.6672 26.5771 21.711 26.5771 21.7462 26.5771C21.7813 26.5771 21.8164 26.5595 21.8515 26.5508C21.8866 26.5332 21.9129 26.5157 21.9305 26.4893C21.948 26.463 21.9656 26.4367 21.9744 26.3928C21.9744 26.3752 21.9831 26.3664 21.9831 26.3489C21.9919 26.1295 22.0007 25.9101 22.0095 25.6994C22.027 25.48 22.0446 25.2693 22.0621 25.0587C22.0797 24.8481 22.106 24.6374 22.1323 24.4268C22.1587 24.2161 22.1938 24.0142 22.2289 23.8124C22.2552 23.6807 22.2815 23.5403 22.3079 23.4087C22.3342 23.277 22.3605 23.1453 22.3956 23.0137C22.422 22.882 22.4571 22.7504 22.4922 22.6275C22.5273 22.4959 22.5624 22.373 22.5975 22.2413C22.6677 22.0219 22.4571 21.7937 22.2815 21.6972C22.264 21.6884 22.2464 21.6796 22.2377 21.6796C22.2289 21.6796 22.2113 21.6708 22.1938 21.6621C22.1762 21.6533 22.1674 21.6533 22.1499 21.6445C22.1323 21.6445 22.1236 21.6357 22.106 21.6357C22.0709 21.6269 22.0358 21.627 22.0007 21.627C21.9656 21.627 21.9392 21.6357 21.9129 21.6445C21.8866 21.6533 21.8603 21.6621 21.8339 21.6796C21.8076 21.6972 21.79 21.7147 21.7813 21.7323C21.7813 21.7323 21.7725 21.7411 21.7725 21.7498C21.7725 21.7498 21.7637 21.7586 21.7637 21.7674C21.7637 21.7762 21.7549 21.7762 21.7549 21.7849C21.7549 21.7937 21.7549 21.7937 21.7462 21.8025C21.6496 22.1272 21.5618 22.4695 21.4829 22.8118C21.4039 23.1541 21.3424 23.5052 21.2898 23.8563C21.2371 24.2073 21.1932 24.5672 21.1581 24.9358C21.123 25.3044 21.1054 25.6643 21.0879 26.0417C21.0879 26.0505 21.0879 26.0505 21.0879 26.0593C21.0879 26.068 21.0879 26.0768 21.0879 26.0768C21.0879 26.0856 21.0879 26.0944 21.0879 26.0944C21.0879 26.1031 21.0879 26.1119 21.0879 26.1119C21.1318 26.3226 21.3249 26.4893 21.518 26.5595L21.6233 26.5683Z" fill="#FEFEFE"/>
<path d="M21.5 30.6581C21.5 30.6669 21.5 30.6669 21.5 30.6757C21.5088 30.7371 21.5263 30.8073 21.5351 30.8687C21.5439 30.8951 21.5439 30.9214 21.5527 30.9477C21.5614 30.9741 21.5614 31.0004 21.5702 31.0267C21.579 31.0531 21.579 31.0794 21.5878 31.1057V31.1145V31.1233V31.1321C21.5878 31.1408 21.5878 31.1408 21.5878 31.1496C21.5878 31.1671 21.5965 31.1935 21.6053 31.211C21.6141 31.2286 21.6141 31.2549 21.6229 31.2725C21.6317 31.29 21.6316 31.3164 21.6404 31.3339C21.6492 31.3515 21.6492 31.3778 21.658 31.3953C21.658 31.4129 21.6668 31.4217 21.6668 31.4392C21.6668 31.448 21.6755 31.4656 21.6755 31.4743C21.6755 31.4831 21.6843 31.5007 21.6843 31.5095C21.6843 31.5182 21.6931 31.5358 21.6931 31.5446C21.6931 31.5533 21.7019 31.5709 21.7019 31.5797C21.7019 31.5884 21.7106 31.606 21.7106 31.6148C21.7106 31.6235 21.7194 31.6411 21.7194 31.6499C21.7194 31.6587 21.7282 31.6762 21.7282 31.685C21.7282 31.7025 21.737 31.7201 21.737 31.7289C21.737 31.7464 21.7458 31.764 21.7458 31.7728C21.7458 31.7903 21.7545 31.8079 21.7545 31.8166C21.7545 31.8342 21.7633 31.8518 21.7633 31.8605C21.7633 31.8693 21.7721 31.8781 21.7721 31.8869C21.7721 31.8956 21.7809 31.9044 21.7809 31.9132C21.7809 31.922 21.7896 31.9307 21.7896 31.9395C21.7896 31.9483 21.7896 31.9571 21.7984 31.9658C21.7984 31.9834 21.8072 32.001 21.816 32.0185C21.8247 32.0361 21.8247 32.0536 21.8335 32.0712C21.8423 32.0887 21.8423 32.1063 21.8511 32.1238C21.8599 32.1414 21.8598 32.1589 21.8686 32.1765C21.8686 32.1853 21.8686 32.1941 21.8774 32.2028C21.8774 32.2116 21.8774 32.2204 21.8862 32.2292C21.8862 32.2379 21.8862 32.2467 21.895 32.2555C21.895 32.2643 21.895 32.273 21.9037 32.2818C21.9037 32.2994 21.9125 32.3169 21.9213 32.3345C21.9213 32.352 21.9301 32.3696 21.9388 32.3871C21.9388 32.4047 21.9476 32.4222 21.9564 32.4398C21.9652 32.4573 21.9652 32.4749 21.974 32.4925C21.974 32.5012 21.9827 32.51 21.9827 32.5188C21.9827 32.5276 21.9915 32.5363 21.9915 32.5451C21.9915 32.5539 22.0003 32.5627 22.0003 32.5715C22.0003 32.5802 22.0091 32.589 22.0091 32.5978C22.0178 32.6153 22.0178 32.6329 22.0266 32.6504C22.0354 32.668 22.0354 32.6855 22.0442 32.7031C22.0529 32.7207 22.0529 32.7382 22.0617 32.7558C22.0705 32.7733 22.0705 32.7909 22.0793 32.8084C22.0793 32.8172 22.088 32.826 22.088 32.8347C22.088 32.8435 22.0968 32.8523 22.0968 32.8611C22.0968 32.8699 22.1056 32.8786 22.1056 32.8962C22.1056 32.905 22.1144 32.9137 22.1144 32.9225C22.1144 32.9401 22.1232 32.9489 22.1232 32.9664C22.1319 32.984 22.1319 32.9927 22.1407 33.0103C22.1495 33.0279 22.1495 33.0366 22.1583 33.0542C22.1583 33.0717 22.167 33.0805 22.1758 33.0981C22.1758 33.1068 22.1846 33.1244 22.1846 33.1332C22.1846 33.1419 22.1934 33.1595 22.1934 33.1683C22.1934 33.1771 22.2022 33.1946 22.2022 33.2034C22.2022 33.2122 22.2109 33.2297 22.2109 33.2385C22.2109 33.256 22.2197 33.2648 22.2285 33.2824C22.2285 33.2999 22.2373 33.3087 22.246 33.3263C22.246 33.3438 22.2548 33.3526 22.2636 33.3701C22.2636 33.3877 22.2724 33.3965 22.2811 33.414C22.2811 33.4228 22.2899 33.4404 22.2899 33.4491C22.2899 33.4579 22.2987 33.4755 22.2987 33.4842C22.2987 33.493 22.3075 33.5106 22.3075 33.5194C22.3075 33.5281 22.3162 33.5457 22.3162 33.5545C22.3162 33.5632 22.325 33.572 22.325 33.5896C22.325 33.5983 22.3338 33.6071 22.3338 33.6247C22.3338 33.6334 22.3426 33.6422 22.3426 33.6598C22.3426 33.6686 22.3514 33.6773 22.3514 33.6949C22.3601 33.7124 22.3601 33.73 22.3689 33.7475C22.3777 33.7651 22.3777 33.7827 22.3865 33.8002C22.3952 33.8178 22.3952 33.8353 22.404 33.8529C22.4128 33.8704 22.4128 33.888 22.4216 33.8968C22.4216 33.9055 22.4303 33.9143 22.4303 33.9231C22.4303 33.9319 22.4391 33.9406 22.4391 33.9494C22.4391 33.9582 22.4479 33.967 22.4479 33.9757C22.4479 33.9845 22.4567 33.9933 22.4567 34.0021C22.4654 34.0196 22.4742 34.0372 22.4742 34.0635C22.483 34.0811 22.4918 34.0986 22.4918 34.1249C22.5006 34.1425 22.5093 34.1601 22.5093 34.1864C22.5181 34.2039 22.5269 34.2215 22.5269 34.2478C22.5269 34.2478 22.5269 34.2566 22.5357 34.2654C22.5357 34.2654 22.5357 34.2742 22.5444 34.2742C22.5444 34.2742 22.5444 34.2829 22.5532 34.2917V34.3005C22.562 34.3268 22.5708 34.3444 22.5796 34.3707C22.5883 34.397 22.5971 34.4146 22.6059 34.4409C22.6147 34.4672 22.6234 34.4848 22.6322 34.5111C22.641 34.5375 22.6498 34.555 22.6585 34.5813C22.6585 34.5813 22.6585 34.5813 22.6585 34.5901C22.6585 34.5901 22.6585 34.5901 22.6585 34.5989C22.6585 34.5989 22.6585 34.5989 22.6585 34.6077C22.7902 34.9675 22.9218 35.3274 23.0711 35.6872C23.0711 35.6872 23.0711 35.6872 23.0711 35.696C23.0711 35.696 23.0711 35.696 23.0711 35.7048C23.0711 35.7048 23.0711 35.7048 23.0711 35.7136C23.0711 35.7136 23.0711 35.7136 23.0711 35.7223C23.15 35.9067 23.3519 36.0559 23.545 36.091L23.624 36.1085C23.6854 36.1085 23.7381 36.0997 23.782 36.0822C23.8259 36.0646 23.8522 36.0295 23.8785 35.9944C23.8961 35.9593 23.9136 35.9154 23.9136 35.8628C23.9136 35.8101 23.9049 35.7574 23.8785 35.7048V35.696V35.6872V35.6785V35.6697C23.7381 35.3274 23.6064 34.9851 23.4836 34.6428C23.3607 34.3005 23.2466 33.9582 23.1325 33.6159C23.0272 33.2736 22.9218 32.9313 22.8341 32.589C22.7375 32.2467 22.6585 31.9044 22.5796 31.5709C22.5708 31.5446 22.5708 31.5182 22.562 31.5007C22.5532 31.4743 22.5532 31.4568 22.5444 31.4305C22.5357 31.4041 22.5357 31.3866 22.5269 31.3602C22.5181 31.3339 22.5181 31.3164 22.5093 31.29C22.4918 31.1935 22.4655 31.0882 22.4479 30.9916C22.4391 30.9039 22.404 30.7985 22.3601 30.7195C22.325 30.6669 22.2899 30.623 22.246 30.5791C22.2021 30.5352 22.1495 30.5001 22.0968 30.4738C22.0442 30.4475 21.9827 30.4211 21.9213 30.4123C21.8599 30.4036 21.8072 30.4036 21.7545 30.4123C21.7019 30.4211 21.6668 30.4387 21.6317 30.465C21.5965 30.4913 21.579 30.5264 21.5614 30.5615C21.5 30.5615 21.5 30.6054 21.5 30.6581Z" fill="#FEFEFE"/>
<path d="M53.6933 59.8237C53.6319 59.8149 53.5792 59.8149 53.5354 59.8237C53.4827 59.8325 53.4476 59.8588 53.4125 59.8851C53.3774 59.9115 53.351 59.9554 53.3423 59.9992C53.3247 60.0431 53.3247 60.0958 53.3423 60.1484C53.3949 60.3766 53.6143 60.5873 53.8425 60.6312L53.8777 60.6399C54.1761 60.6926 54.4745 60.7453 54.7729 60.7892C55.0537 60.833 55.3258 60.8682 55.6067 60.9033C55.8788 60.9384 56.1596 60.9647 56.4317 60.991C56.7038 61.0173 56.9759 61.0349 57.248 61.0525H57.2567H57.2655H57.2743H57.2831C57.3006 61.0525 57.327 61.0525 57.3445 61.0525C57.3621 61.0525 57.3884 61.0525 57.4059 61.0525C57.4235 61.0525 57.4498 61.0525 57.4674 61.0525C57.4849 61.0525 57.5113 61.0525 57.5288 61.0525C57.5376 61.0525 57.5552 61.0525 57.5639 61.0525C57.5727 61.0525 57.5903 61.0525 57.599 61.0525C57.6078 61.0525 57.6254 61.0525 57.6341 61.0525C57.6429 61.0525 57.6605 61.0525 57.6693 61.0525C57.678 61.0525 57.6956 61.0525 57.7044 61.0525C57.7131 61.0525 57.7307 61.0525 57.7395 61.0525C57.7482 61.0525 57.757 61.0525 57.7746 61.0525C57.7834 61.0525 57.8009 61.0525 57.8097 61.0525C57.8272 61.0525 57.8536 61.0525 57.8711 61.0525C57.8887 61.0525 57.915 61.0525 57.9326 61.0525C57.9501 61.0525 57.9764 61.0525 57.994 61.0525C58.0116 61.0525 58.0379 61.0525 58.0554 61.0525C58.1344 61.0525 58.2134 61.0525 58.2924 61.0612C58.3714 61.0612 58.4504 61.0612 58.5294 61.0612C58.6084 61.0612 58.6874 61.0612 58.7576 61.0612C58.8366 61.0612 58.9068 61.0612 58.9858 61.0612C59.0384 61.0612 59.0911 61.0525 59.1262 61.0261C59.1613 61.0086 59.1964 60.9735 59.214 60.9384C59.2315 60.9033 59.2403 60.8594 59.2403 60.8067C59.2403 60.7541 59.2228 60.7014 59.2052 60.6487C59.1876 60.5961 59.1525 60.5522 59.1262 60.5083C59.0911 60.4644 59.056 60.4205 59.0121 60.3854C58.9682 60.3503 58.9243 60.3152 58.8717 60.2977C58.819 60.2713 58.7751 60.2538 58.7225 60.245H58.7137H58.7049H58.6961H58.6874H58.6786H58.6698H58.661H58.6523C58.2836 60.245 57.9062 60.2362 57.5288 60.2274C57.1514 60.2099 56.7652 60.1836 56.3791 60.1572C55.9929 60.1221 55.6067 60.087 55.2117 60.0343C54.8168 59.9817 54.4218 59.929 54.0269 59.8588C54.0005 59.8588 53.9742 59.85 53.9479 59.8413C53.9215 59.8413 53.8952 59.8325 53.8689 59.8237C53.8425 59.8237 53.8162 59.8149 53.7899 59.8062C53.746 59.8325 53.7197 59.8325 53.6933 59.8237Z" fill="#FEFEFE"/>
<path d="M27.3712 42.1999C27.4063 42.2438 27.4327 42.2876 27.459 42.3315C27.4853 42.3754 27.5204 42.4105 27.5468 42.4544C27.5731 42.4895 27.5994 42.5334 27.6258 42.5685C27.6521 42.6036 27.6784 42.6475 27.7047 42.6826C28.8018 44.2185 30.0218 45.7106 31.3559 47.1237C32.69 48.5368 34.1294 49.8796 35.6566 51.1259C37.1837 52.3722 38.7899 53.522 40.4575 54.5664C42.1251 55.6021 43.8541 56.5237 45.6271 57.3048C45.6622 57.3224 45.6973 57.3399 45.7324 57.3487C45.7675 57.3663 45.7938 57.375 45.8202 57.3838C45.8465 57.3926 45.8728 57.4101 45.8991 57.4189C45.9255 57.4277 45.9518 57.4365 45.9694 57.454C46.0045 57.4716 46.0396 57.4804 46.0747 57.4979C46.1098 57.5155 46.1449 57.5242 46.18 57.5418C46.2151 57.5594 46.2502 57.5681 46.2853 57.5857C46.3204 57.6032 46.3555 57.612 46.3906 57.6296C46.4082 57.6383 46.4258 57.6471 46.4521 57.6559C46.4696 57.6647 46.4872 57.6735 46.5135 57.6822C46.5311 57.691 46.5486 57.6998 46.575 57.7086C46.5925 57.7173 46.6101 57.7261 46.6364 57.7349C46.6715 57.7524 46.7066 57.7612 46.7417 57.7788C46.7768 57.7963 46.8119 57.8051 46.847 57.8227C46.8821 57.8402 46.9173 57.849 46.9524 57.8665C46.9875 57.8753 47.0226 57.8929 47.0577 57.9104C47.6019 58.1298 48.1548 58.3317 48.7077 58.5248C49.2607 58.7179 49.8136 58.8934 50.3753 59.0514C50.9283 59.2094 51.49 59.3586 52.0517 59.4903C52.6134 59.6219 53.1664 59.736 53.7281 59.8413C53.7544 59.8413 53.7808 59.8501 53.8071 59.8589C53.8334 59.8589 53.8597 59.8677 53.8861 59.8764C53.9124 59.8852 53.9387 59.8852 53.9651 59.894C53.9914 59.9028 54.0177 59.9028 54.0441 59.9115C54.439 59.9818 54.834 60.0344 55.2289 60.0871C55.6239 60.1397 56.0101 60.1748 56.3963 60.21C56.7824 60.2451 57.1686 60.2714 57.546 60.2802C57.9234 60.2977 58.3008 60.3065 58.6695 60.2977C61.5219 60.2802 64.0848 59.7623 66.2614 58.8057C68.4293 57.8578 70.2286 56.4798 71.589 54.7508C72.9406 53.0305 73.8534 50.9592 74.2659 48.6157C74.6696 46.2811 74.5819 43.6656 73.9148 40.8482C73.9061 40.8219 73.9061 40.7956 73.8973 40.778C73.8885 40.7517 73.8885 40.7254 73.8797 40.699C73.871 40.6727 73.8709 40.6464 73.8622 40.6288C73.8534 40.6025 73.8534 40.5762 73.8446 40.5586C73.1951 37.9607 72.1244 35.389 70.7025 32.914C69.2894 30.4477 67.5341 28.0692 65.5154 25.8749C63.5055 23.6807 61.2323 21.6445 58.7923 19.8628C56.3436 18.0811 53.7193 16.5364 51.0073 15.3252C50.8581 15.255 50.7089 15.1935 50.5684 15.1321C50.4192 15.0706 50.27 15.0092 50.1296 14.9478C49.9892 14.8863 49.8312 14.8249 49.6907 14.7635C49.5415 14.702 49.3923 14.6406 49.2519 14.5879C49.1992 14.5704 49.1554 14.5528 49.1115 14.5353C49.0676 14.5177 49.0325 14.5001 48.9974 14.4914C48.9623 14.4738 48.9272 14.465 48.892 14.4563C48.8569 14.4475 48.8306 14.4299 48.7955 14.4212C48.3567 14.2544 47.9178 14.1052 47.479 13.956C47.0401 13.8068 46.5925 13.6751 46.1537 13.5435C45.7061 13.4118 45.2672 13.2977 44.8196 13.1836C44.372 13.0695 43.9244 12.973 43.4767 12.8852C43.4504 12.8764 43.4241 12.8764 43.3977 12.8676C43.3714 12.8589 43.3451 12.8589 43.3188 12.8501C43.2924 12.8413 43.2661 12.8413 43.2398 12.8325C43.2134 12.8238 43.1871 12.8238 43.1608 12.815C40.3873 12.2884 37.7893 12.1743 35.4459 12.4376C33.0937 12.7009 30.9785 13.3416 29.1617 14.3158C27.3361 15.2901 25.8089 16.6066 24.6504 18.204C23.4831 19.8101 22.6668 21.7059 22.2807 23.8475C22.2455 24.0494 22.2104 24.26 22.1841 24.4619C22.1578 24.6725 22.1314 24.8832 22.1139 25.0938C22.0963 25.3044 22.0788 25.5151 22.0612 25.7345C22.0437 25.9452 22.0349 26.1646 22.0349 26.384C22.0261 26.7526 22.0261 27.13 22.0349 27.5074C22.0437 27.8848 22.07 28.2622 22.1051 28.6484C22.1402 29.0346 22.1841 29.4208 22.2455 29.807C22.307 30.2019 22.3684 30.5969 22.4562 30.9918C22.465 31.0182 22.465 31.0445 22.4737 31.0708C22.4825 31.0972 22.4825 31.1235 22.4913 31.141C22.5001 31.1674 22.5001 31.1937 22.5089 31.2113C22.5176 31.2376 22.5176 31.2639 22.5264 31.2903C22.5352 31.3166 22.5352 31.3341 22.544 31.3605C22.5527 31.3868 22.5527 31.4044 22.5615 31.4307C22.5703 31.457 22.5703 31.4746 22.5791 31.5009C22.5878 31.5272 22.5878 31.5448 22.5966 31.5711C22.6756 31.9134 22.7634 32.2557 22.8511 32.598C22.9477 32.9403 23.0442 33.2826 23.1496 33.6249C23.2549 33.9672 23.3778 34.3095 23.5006 34.6518C23.6235 34.9941 23.7552 35.3364 23.8956 35.6787C24.0536 36.0824 24.2291 36.4774 24.4134 36.8811C24.5977 37.2848 24.7821 37.6798 24.9839 38.0748C25.1858 38.4697 25.3964 38.8647 25.6071 39.2596C25.8265 39.6546 26.0547 40.0408 26.2917 40.427C26.3882 40.5849 26.4848 40.7429 26.5813 40.9009C26.6779 41.0501 26.7744 41.2081 26.8709 41.3573C26.9675 41.5065 27.064 41.6557 27.1606 41.7961C27.1781 41.9102 27.2747 42.0594 27.3712 42.1999C27.4063 42.2438 27.2747 42.0594 27.3712 42.1999Z" fill="#ED0E1C"/>
<path d="M40.6602 55.4878C41.1253 55.7687 41.5993 56.0407 42.0732 56.304L40.6602 55.4878Z" fill="#6D1627"/>
<path d="M33.2524 49.1597C33.2261 49.1509 33.1998 49.1509 33.1734 49.1509C33.1471 49.1509 33.1208 49.1509 33.0944 49.1597C33.0681 49.1684 33.0505 49.1684 33.0242 49.186C33.0067 49.1948 32.9803 49.2123 32.9628 49.2211C32.9364 49.2474 32.9101 49.2825 32.9013 49.3176C32.8926 49.3527 32.8838 49.3966 32.8838 49.4405C32.8838 49.4844 32.9013 49.5283 32.9189 49.5722C32.9365 49.616 32.9628 49.6599 32.9979 49.7038C33.0067 49.7126 33.0067 49.7214 33.0154 49.7301C33.0242 49.7389 33.033 49.7477 33.033 49.7565C33.0418 49.7653 33.0505 49.774 33.0505 49.7828C33.0593 49.7916 33.0681 49.8004 33.0769 49.8091C34.5865 51.2047 36.1839 52.4861 37.8515 53.6797L37.9041 53.6973L38.1148 53.7763L38.4395 53.6709C38.4571 53.6271 38.4746 53.5832 38.4746 53.5305C38.4746 53.4779 38.4659 53.4252 38.4395 53.3725C38.422 53.3199 38.3869 53.2672 38.343 53.2145C38.2991 53.1619 38.2552 53.118 38.1938 53.0741C37.79 52.7845 37.3863 52.4949 36.9914 52.1964C36.5964 51.898 36.2014 51.5908 35.824 51.2749C35.4378 50.9589 35.0604 50.6429 34.683 50.3182C34.3056 49.9935 33.937 49.6599 33.5684 49.3264C33.5421 49.3001 33.5157 49.2825 33.4894 49.265C33.4631 49.2474 33.4367 49.2299 33.4104 49.2123C33.3841 49.1948 33.3577 49.186 33.3226 49.1772C33.3051 49.1684 33.2787 49.1597 33.2524 49.1597Z" fill="#FEFEFE"/>
<path d="M48.4714 13.5785C48.4802 13.5785 48.489 13.5785 48.489 13.5873C48.489 13.5961 48.5065 13.5873 48.5153 13.5961C48.5241 13.5961 48.5328 13.5961 48.5416 13.6049C48.5504 13.6049 48.5592 13.6136 48.568 13.6136C49.7528 14.0437 50.9201 14.544 52.0524 15.0881C49.2877 13.7628 46.3737 12.7272 43.3633 12.1128C43.4247 12.1216 43.4774 12.1479 43.53 12.1742C43.5827 12.2006 43.6266 12.2357 43.6617 12.2795C43.6968 12.3234 43.7319 12.3673 43.7582 12.4112C43.7846 12.4551 43.8021 12.5077 43.8109 12.5604C43.8636 12.7886 43.6266 12.8852 43.4423 12.85C45.2503 13.2187 47.032 13.7365 48.761 14.386C48.7435 14.3772 48.7259 14.3772 48.7084 14.3684C48.6908 14.3597 48.6733 14.3597 48.6557 14.3509C48.6382 14.3421 48.6206 14.3421 48.6031 14.3333C48.5855 14.3246 48.568 14.3246 48.5504 14.3158C48.489 14.2982 48.4363 14.2631 48.3836 14.228C48.331 14.1929 48.2871 14.149 48.2432 14.1051C48.2081 14.0612 48.173 14.0086 48.1467 13.9559C48.1291 13.9033 48.1116 13.8506 48.1116 13.8067C48.1116 13.7628 48.1203 13.7277 48.1379 13.7014C48.1554 13.6751 48.1818 13.6487 48.2081 13.6312C48.2432 13.6136 48.2783 13.6048 48.3134 13.5961C48.3836 13.5697 48.4275 13.5697 48.4714 13.5785Z" fill="#A2000C"/>
<path d="M72.6953 35.8806C72.7392 35.8893 72.7743 35.9069 72.8182 35.9245C72.8621 35.942 72.8972 35.9683 72.9323 35.9947C72.9674 36.021 73.0025 36.0561 73.0376 36.0912C73.0727 36.1263 73.0991 36.1614 73.1254 36.2053C72.432 34.6079 71.6158 33.072 70.6942 31.6062C70.7556 31.7555 70.7205 31.9398 70.545 31.9749H70.387C70.2115 31.9398 70.0535 31.8257 69.9569 31.6677C68.9827 30.123 67.8944 28.6397 66.7271 27.2442C66.6218 27.1213 66.4989 26.8492 66.7095 26.7439C66.7797 26.7088 66.8587 26.7088 66.9289 26.7263C66.9553 26.7351 66.9816 26.7351 67.0079 26.7439C67.0343 26.7527 67.0606 26.7614 67.0869 26.779C67.1132 26.7878 67.1396 26.8053 67.1571 26.8229C67.1835 26.8404 67.201 26.858 67.2273 26.8755C66.0249 25.4537 64.7347 24.1108 63.3743 22.847C63.4621 22.9611 63.5499 23.1717 63.4094 23.277L63.1373 23.3297L62.8126 23.1629C61.4171 21.8727 59.925 20.6703 58.3715 19.5732C58.2311 19.4679 58.0204 19.2133 58.1433 19.029C58.1609 19.0027 58.1784 18.9851 58.196 18.9676C58.2135 18.95 58.2399 18.9413 58.2662 18.9325C58.2925 18.9237 58.3189 18.9237 58.354 18.9237C58.3803 18.9237 58.4154 18.9237 58.4505 18.9325C58.4593 18.9325 58.4768 18.9413 58.4856 18.9413C58.4944 18.9413 58.5119 18.95 58.5207 18.95C58.5295 18.95 58.5471 18.9588 58.5558 18.9676C58.5646 18.9764 58.5822 18.9764 58.5909 18.9851C57.0462 17.888 55.4313 16.8787 53.7549 15.9835C53.9041 16.08 54.106 16.2906 54.0445 16.4925C54.0182 16.6505 53.8427 16.6856 53.711 16.6593L53.553 16.5891C52.7017 16.1414 51.8328 15.7202 50.9551 15.3252C61.2854 19.9506 70.9926 29.2892 73.7837 40.5411C73.4238 39.0841 72.9411 37.6623 72.3443 36.2843C72.3179 36.2316 72.3091 36.179 72.3091 36.1351C72.3091 36.0912 72.3179 36.0473 72.3443 36.0122C72.3618 35.9771 72.3969 35.9508 72.432 35.9332C72.4671 35.9157 72.5198 35.9069 72.5724 35.9069C72.6339 35.8718 72.6602 35.8718 72.6953 35.8806Z" fill="#6D1627"/>
<path d="M22.2376 23.8123C23.0012 19.6082 25.6167 16.0536 29.4346 14.1139C33.4544 12.0777 38.1852 11.9109 42.5472 12.6657C41.257 12.4375 39.9493 12.2971 38.6415 12.262L38.5626 12.2445C38.3607 12.2006 38.1588 12.0601 38.0886 11.867C38.0096 11.6827 38.0886 11.4984 38.2992 11.4896C36.7457 11.4458 35.1835 11.5423 33.6475 11.8144C33.6914 11.8056 33.7441 11.8056 33.7967 11.8144C33.8406 11.8232 33.8757 11.8407 33.9196 11.8583C33.9635 11.8758 33.9986 11.9022 34.0425 11.9285C34.0776 11.9548 34.1215 11.9899 34.1478 12.0163C34.1829 12.0514 34.2092 12.0865 34.2356 12.1304C34.2707 12.183 34.2882 12.2357 34.297 12.2796C34.3058 12.3234 34.3058 12.3761 34.297 12.4112C34.2882 12.4551 34.2619 12.4902 34.2356 12.5165C34.2005 12.5429 34.1654 12.5604 34.1127 12.5692C33.7528 12.6306 33.4018 12.7096 33.0595 12.7886C32.7172 12.8676 32.3749 12.9642 32.0326 13.0695C31.6991 13.1748 31.3655 13.2801 31.0408 13.403C30.7161 13.5259 30.4001 13.6487 30.0929 13.7892L29.8735 13.798L29.4873 13.561C29.382 13.4381 29.2942 13.2187 29.4434 13.087C28.2498 13.6224 27.1175 14.307 26.1082 15.1496C26.1696 15.1233 26.2486 15.1233 26.3101 15.1408C26.3364 15.1496 26.3627 15.1584 26.3978 15.1671C26.4242 15.1759 26.4505 15.1935 26.4856 15.2023C26.5119 15.2198 26.5383 15.2374 26.5734 15.2549C26.5997 15.2725 26.626 15.2988 26.6524 15.3164C26.784 15.4305 26.942 15.7025 26.7665 15.8517C26.5207 16.0536 26.2837 16.273 26.0468 16.4924C25.8186 16.7119 25.5991 16.9489 25.3797 17.1858C25.1691 17.4228 24.9672 17.6685 24.7741 17.9231C24.581 18.1776 24.3967 18.4409 24.2212 18.7042L23.8964 18.8008L23.6331 18.6779C23.4927 18.5726 23.3435 18.3882 23.3786 18.2039C22.6765 19.2923 22.1411 20.4771 21.7637 21.7235C21.8339 21.6181 21.9743 21.6006 22.0884 21.6269C22.106 21.6269 22.1147 21.6357 22.1323 21.6357C22.1499 21.6357 22.1586 21.6445 22.1762 21.6532C22.1937 21.662 22.2025 21.662 22.2201 21.6708C22.2376 21.6796 22.2464 21.6883 22.264 21.6883C22.4395 21.7849 22.6501 22.0131 22.5799 22.2325C22.5448 22.3554 22.5097 22.487 22.4746 22.6187C22.4395 22.7503 22.4132 22.8732 22.378 23.0049C22.3517 23.1365 22.3166 23.2682 22.2903 23.3998C22.2815 23.5403 22.2552 23.6807 22.2376 23.8123C22.615 21.7059 22.2552 23.6807 22.2376 23.8123Z" fill="#6D1627"/>
<path d="M21.0959 26.103C21.0608 27.6302 21.21 29.1574 21.5084 30.6582C21.4996 30.6056 21.5084 30.5617 21.5172 30.5266C21.5347 30.4915 21.5523 30.4563 21.5874 30.43C21.6225 30.4037 21.6576 30.3861 21.7102 30.3774C21.7541 30.3686 21.8156 30.3686 21.877 30.3774C22.1052 30.4212 22.3334 30.6056 22.3773 30.8425L22.4036 30.9566C22.1052 29.4558 21.9472 27.9286 21.9823 26.3927C21.9472 26.5506 21.7717 26.6033 21.6313 26.577L21.5347 26.5594C21.3328 26.4804 21.1398 26.3137 21.0959 26.103C21.0871 26.4629 21.1046 26.1469 21.0959 26.103Z" fill="#A2000C"/>
<path d="M23.5013 36.0649C23.2994 36.0297 23.1063 35.8805 23.0273 35.6962C23.7032 37.3638 24.5282 38.9788 25.4585 40.5235C25.441 40.4796 25.4322 40.4269 25.4322 40.3831C25.4322 40.3392 25.441 40.3041 25.4498 40.269C25.4673 40.2339 25.4849 40.2075 25.5112 40.1812C25.5375 40.1549 25.5814 40.1373 25.6253 40.1285C25.6341 40.1285 25.6516 40.1285 25.6604 40.1198C25.6692 40.1198 25.6867 40.1198 25.7043 40.1198C25.7218 40.1198 25.7306 40.1198 25.7482 40.1198C25.7657 40.1198 25.7745 40.1198 25.7921 40.1285C25.9588 40.1636 26.1168 40.269 26.2221 40.4006C25.3005 38.8822 24.4931 37.2936 23.826 35.6523V35.6611V35.6699V35.6787V35.6874C23.9138 35.8981 23.8085 36.0912 23.5715 36.0912L23.5013 36.0649Z" fill="#A2000C"/>
<path d="M42.0728 56.3043C42.5468 56.5676 43.0295 56.8221 43.5122 57.0679C43.363 56.9889 43.205 56.9099 43.0558 56.8309C42.9944 56.7958 42.9417 56.7607 42.8978 56.7168C42.8539 56.6729 42.8101 56.6202 42.7749 56.5764C42.7398 56.5237 42.7223 56.471 42.7135 56.4184C42.7047 56.3657 42.7047 56.3131 42.7135 56.2692C42.7223 56.2341 42.7398 56.199 42.7574 56.1814C42.7749 56.1551 42.8013 56.1375 42.8364 56.12C42.8627 56.1024 42.8978 56.0936 42.9417 56.0936C42.9768 56.0936 43.0207 56.0936 43.0646 56.1024C43.0821 56.1024 43.0909 56.1112 43.1085 56.1112C43.126 56.1112 43.1348 56.12 43.1524 56.12C43.1699 56.1288 43.1787 56.1287 43.1962 56.1375C43.2138 56.1463 43.2226 56.1551 43.2401 56.1551C43.442 56.2604 43.6351 56.357 43.8369 56.4623C44.0388 56.5588 44.2319 56.6554 44.4338 56.7519C44.6356 56.8484 44.8375 56.945 45.0306 57.0328C45.2325 57.1293 45.4343 57.2171 45.6362 57.3048C38.5445 54.1627 32.2164 49.0107 27.7227 42.6826C28.3019 43.4989 28.9075 44.2976 29.5482 45.0699C29.6711 45.2103 29.7589 45.5 29.5307 45.5878L29.3113 45.6141L28.9339 45.4034C30.1977 46.9218 31.5581 48.3612 33.0063 49.7041C32.9098 49.5724 32.8308 49.353 32.9712 49.2214C32.9888 49.2038 33.0063 49.195 33.0326 49.1863C33.0502 49.1775 33.0765 49.1687 33.1029 49.1599C33.1292 49.1512 33.1555 49.1512 33.1819 49.1512C33.2082 49.1512 33.2345 49.1512 33.2608 49.1599C33.2872 49.1687 33.3135 49.1687 33.3486 49.1863C33.3749 49.195 33.4013 49.2126 33.4364 49.2214C33.4627 49.2389 33.489 49.2565 33.5154 49.274C33.5417 49.2916 33.568 49.3179 33.5944 49.3355C33.963 49.669 34.3316 50.0025 34.709 50.3273C35.0864 50.652 35.4638 50.968 35.85 51.2839C36.2362 51.5999 36.6224 51.9071 37.0173 52.2055C37.4123 52.5039 37.816 52.7935 38.2198 53.0832C38.2812 53.1271 38.3251 53.171 38.369 53.2236C38.4129 53.2763 38.4392 53.3289 38.4655 53.3816C38.4831 53.4343 38.5006 53.4869 38.5006 53.5396C38.5006 53.5922 38.4918 53.6361 38.4655 53.68L38.1408 53.7853L37.9301 53.7063C38.8254 54.3383 39.7382 54.9351 40.6773 55.5056" fill="#6D1627"/>
<g opacity="0.7">
<path opacity="0.7" d="M10.2918 31.9573C10.0636 31.1937 9.86169 30.4214 9.67738 29.649C9.85292 30.4214 10.0636 31.1937 10.2918 31.9573ZM55.3609 71.5848C53.4475 71.2074 51.5605 70.7071 49.6998 70.1191C49.4102 67.2666 49.0503 64.4141 48.6378 61.5792L48.5939 61.3247C49.0679 61.4914 49.5418 61.6494 50.0245 61.7898C50.4985 61.939 50.9812 62.0707 51.4639 62.2024C51.8677 62.3077 52.2714 62.4042 52.6751 62.492C45.364 37.5921 34.9108 1.0014 34.9108 1.0014C31.5317 0.790758 28.1088 1.01018 24.8262 1.86153C23.2639 2.26526 21.7631 2.83576 20.3237 3.53791C20.3149 3.52913 20.3149 3.52913 20.3061 3.52035C18.7 4.29272 17.1991 5.27572 15.8475 6.42549C15.8212 6.45182 15.7861 6.47814 15.7597 6.50447C15.2595 6.93454 14.7855 7.38217 14.3291 7.85612C13.899 8.30374 13.5041 8.77769 13.1179 9.26919C13.0652 9.3394 13.0038 9.40962 12.9511 9.47984C12.9073 9.54128 12.8546 9.59394 12.8107 9.65537L12.8195 9.66414C12.4772 10.1293 12.1349 10.6033 11.8365 11.1123C8.98401 15.8518 8.38718 21.5656 9.1771 26.9633C8.97523 25.5678 8.86113 24.1547 8.86113 22.7416C12.0208 23.6281 15.1892 24.4707 18.3665 25.2606L18.6736 25.3484C18.6649 25.7433 18.6649 26.1383 18.6824 26.542C18.6912 26.9457 18.7175 27.3583 18.7526 27.7708C18.7878 28.1833 18.8404 28.6046 18.9018 29.0347C18.9633 29.4647 19.0335 29.8948 19.1213 30.3336C19.4723 32.1241 20.0253 33.8707 20.7099 35.5646L20.4115 35.5383C17.322 35.1345 14.2238 34.7747 11.1256 34.4675C12.2753 37.6096 13.7762 40.6201 15.5491 43.455C17.1377 46.0003 18.9457 48.4139 20.903 50.6959C20.9381 50.7398 20.982 50.7837 21.0171 50.8275C21.5612 51.4595 22.123 52.0826 22.6934 52.6882C22.7461 52.7409 22.7988 52.7936 22.8426 52.855C23.4307 53.4782 24.0275 54.0838 24.6331 54.6806C24.6946 54.742 24.7472 54.8035 24.8087 54.8561C25.4055 55.4354 26.0111 55.9971 26.6255 56.5501C26.7045 56.6203 26.7835 56.6993 26.8712 56.7695C27.5558 57.3839 28.258 57.9895 28.9689 58.5687C28.9864 58.5863 29.0128 58.6038 29.0303 58.6214C30.2766 59.6483 31.5405 60.6401 32.857 61.5704C39.5625 66.3538 47.2423 70.0049 55.3609 71.5848ZM11.1168 34.4587C11.108 34.4412 11.108 34.4236 11.0992 34.4061C11.108 34.4236 11.108 34.4412 11.1168 34.4587Z" fill="url(#paint0_linear)"/>
</g>
<defs>
<linearGradient id="paint0_linear" x1="8.85569" y1="36.2539" x2="55.3586" y2="36.2539" gradientUnits="userSpaceOnUse">
<stop stop-color="white"/>
<stop offset="0.9062"/>
</linearGradient>
</defs>
</svg>
