<svg width="66" height="64" viewBox="0 0 66 64" fill="none" xmlns="http://www.w3.org/2000/svg">
<path d="M58.0485 20.772C59.354 22.2726 60.6594 23.7665 61.9582 25.2603C62.7186 26.1351 63.479 27.0032 64.2326 27.878C64.3672 28.0328 64.6566 28.2548 64.7306 28.45C64.8113 28.6586 64.6498 29.1565 64.6095 29.3853C64.4951 30.0313 64.3538 30.6773 64.199 31.3166C63.4924 34.1698 62.3821 36.922 61.0026 39.5195C59.0848 43.133 56.5614 46.5918 53.6005 49.7142C50.6397 52.8365 47.2482 55.6157 43.6077 57.8632C39.9739 60.104 36.0912 61.82 32.1412 62.8159C29.7725 60.3665 27.4038 57.9103 25.0352 55.4609C29.1198 54.4044 33.0092 52.6346 36.5892 50.4073C40.27 48.1261 43.6952 45.3133 46.6897 42.1573C49.6841 39.0013 52.2412 35.5156 54.1927 31.8751C56.1442 28.2548 57.4833 24.4932 58.0485 20.772Z" fill="#961C2E"/>
<path d="M54.5225 5.61133C56.6287 8.06748 58.7417 10.5304 60.8479 12.9865C61.6419 13.9151 62.3687 14.8841 62.9541 15.9608C63.4723 16.9096 63.8962 17.9392 64.2259 19.0293C64.5557 20.1262 64.7912 21.2903 64.919 22.515C65.0469 23.7465 65.0738 25.0385 64.9796 26.391C62.8263 23.9147 60.6797 21.4384 58.533 18.962C58.3244 18.7198 58.311 18.74 58.3043 18.4237C58.2706 17.2057 58.3715 16.0079 58.2504 14.7832C58.1293 13.5518 57.9005 12.3876 57.5775 11.2908C57.2545 10.1939 56.8306 9.17107 56.3192 8.22225C55.8077 7.2869 55.2088 6.4121 54.5225 5.61133Z" fill="#961C2E"/>
<path d="M24.3819 55.6227C26.7506 58.0722 29.1192 60.5216 31.4879 62.971C29.4893 63.4353 27.4504 63.7247 25.398 63.7718C23.4802 63.8121 21.6768 63.6439 20.0012 63.2738C18.3324 62.9037 16.7981 62.3384 15.4119 61.5982C14.0324 60.858 12.801 59.9429 11.731 58.8662C9.34217 56.4571 6.95331 54.0481 4.56445 51.6323C5.64112 52.7157 6.88602 53.6309 8.23859 54.3442C9.6248 55.0777 11.1658 55.6362 12.8346 55.9928C14.5169 56.3495 16.3271 56.511 18.2516 56.4571C20.1896 56.41 22.2353 56.1342 24.3819 55.6227Z" fill="#961C2E"/>
<path d="M29.6713 53.9199C32.0265 56.3828 34.3884 58.8457 36.7436 61.3086C36.3668 61.4566 35.9832 61.5979 35.5997 61.7392C35.2161 61.8805 34.8325 62.0084 34.449 62.1362C34.0654 62.2641 33.6819 62.3785 33.2983 62.4929C32.9147 62.6073 32.5312 62.7082 32.1409 62.8092C32.114 62.8159 32.087 62.8226 32.0601 62.8294C32.0332 62.8361 32.0063 62.8428 31.9794 62.8495C31.9525 62.8563 31.9255 62.863 31.8986 62.8697C31.8717 62.8765 31.8448 62.8832 31.8179 62.8899C31.791 62.8967 31.764 62.9034 31.7371 62.9101C31.7102 62.9168 31.6833 62.9236 31.6564 62.9303C31.6295 62.937 31.6025 62.9438 31.5756 62.9505C31.5487 62.9572 31.5218 62.9639 31.4949 62.9707C31.1113 63.0581 30.7277 63.1389 30.3509 63.2129C29.9741 63.2869 29.5972 63.3475 29.2271 63.4081C28.857 63.4686 28.4869 63.5157 28.1235 63.5628C27.7602 63.6099 27.3968 63.6436 27.0402 63.6772C24.6648 61.2413 22.2826 58.7986 19.9072 56.3626C20.2706 56.329 20.634 56.2886 20.9974 56.2415C21.3675 56.1944 21.7376 56.1405 22.1077 56.08C22.4778 56.0194 22.8613 55.9521 23.2382 55.8781C23.615 55.8041 23.9986 55.7166 24.3889 55.6291C24.4158 55.6224 24.4427 55.6157 24.4696 55.6089C24.4965 55.6022 24.5234 55.5955 24.5504 55.5888C24.5773 55.582 24.6042 55.5753 24.6311 55.5686C24.658 55.5618 24.6849 55.5551 24.7119 55.5484C24.7388 55.5417 24.7657 55.5349 24.7926 55.5282C24.8195 55.5215 24.8464 55.5147 24.8734 55.508C24.9003 55.5013 24.9272 55.4946 24.9541 55.4878C24.981 55.4811 25.0079 55.4744 25.0349 55.4676C25.4252 55.3667 25.8087 55.259 26.199 55.1446C26.5893 55.0302 26.9729 54.9091 27.3564 54.7745C27.74 54.6467 28.1303 54.5121 28.5138 54.3708C28.9041 54.2227 29.2877 54.0747 29.6713 53.9199Z" fill="#9A95A0"/>
<path d="M58.2971 15.4424C59.468 16.7949 60.6388 18.1475 61.803 19.5001C62.5701 20.3816 63.3305 21.2699 64.0977 22.1514C64.3264 22.4138 64.5889 22.6695 64.7908 22.9522C65.0195 23.2819 64.9994 23.4905 65.0195 23.9413C65.033 24.2038 65.0397 24.4729 65.0397 24.7421C65.0397 25.0113 65.0397 25.2872 65.0263 25.5631C65.0196 25.839 65.0061 26.1149 64.9859 26.3975V26.4042V26.4109V26.4177V26.4244C64.9859 26.4446 64.9859 26.4581 64.9792 26.4782C64.9792 26.4984 64.9792 26.5119 64.9792 26.5321C64.9792 26.5523 64.9792 26.5657 64.9724 26.5859C64.9724 26.6061 64.9724 26.6196 64.9657 26.6397C64.9657 26.6532 64.9657 26.6599 64.9657 26.6734C64.9657 26.6868 64.9657 26.6936 64.9657 26.707C64.9657 26.7205 64.9657 26.7272 64.9657 26.7407C64.9657 26.7541 64.9657 26.7609 64.9657 26.7743C64.9657 26.7878 64.9657 26.8012 64.9657 26.8147C64.9657 26.8282 64.9657 26.8416 64.9657 26.8551C64.9657 26.8685 64.9657 26.882 64.9657 26.8955C64.9657 26.9089 64.9657 26.9224 64.959 26.9358C64.959 26.9493 64.959 26.9695 64.9523 26.9829C64.9523 26.9964 64.9523 27.0166 64.9455 27.03C64.9455 27.0435 64.9455 27.0637 64.9388 27.0771C64.9388 27.0906 64.9388 27.1108 64.9321 27.1242C64.9321 27.131 64.9321 27.1444 64.9321 27.1512C64.9321 27.1579 64.9321 27.1713 64.9321 27.1781C64.9321 27.1848 64.9321 27.1983 64.9321 27.205C64.9321 27.2117 64.9321 27.2252 64.9321 27.2319C64.9321 27.2588 64.9253 27.2857 64.9253 27.3127C64.9253 27.3396 64.9186 27.3665 64.9186 27.3934C64.9186 27.4203 64.9119 27.4472 64.9119 27.4742C64.9119 27.5011 64.9052 27.528 64.9052 27.5549C64.9052 27.5818 64.8984 27.6087 64.8984 27.6357C64.8984 27.6626 64.8917 27.6895 64.8917 27.7164C64.8917 27.7433 64.885 27.7702 64.885 27.7972C64.885 27.8241 64.8782 27.851 64.8782 27.8779C64.8782 27.8914 64.8782 27.8981 64.8715 27.9116C64.8715 27.925 64.8715 27.9317 64.8648 27.9452C64.8648 27.9587 64.8648 27.9654 64.8581 27.9789C64.8581 27.9923 64.858 27.999 64.8513 28.0125C64.8513 28.026 64.8446 28.0394 64.8446 28.0529C64.8446 28.0663 64.8379 28.0798 64.8379 28.0932C64.8379 28.1067 64.8311 28.1202 64.8311 28.1336C64.8311 28.1471 64.8244 28.1605 64.8244 28.174C64.8244 28.1875 64.8177 28.2076 64.8177 28.2211C64.8177 28.2413 64.8109 28.2547 64.8109 28.2682C64.8109 28.2817 64.8042 28.3019 64.8042 28.3153C64.8042 28.3288 64.7975 28.3489 64.7975 28.3624C64.7975 28.3691 64.7975 28.3759 64.7975 28.3826C64.7975 28.3893 64.7975 28.3961 64.7975 28.4028C64.7975 28.4095 64.7975 28.4162 64.7975 28.423C64.7975 28.4297 64.7975 28.4364 64.7975 28.4432C64.7504 28.7527 64.7033 29.069 64.6427 29.3785C64.5889 29.6881 64.5216 30.0043 64.4543 30.3139C64.387 30.6234 64.313 30.9397 64.2322 31.2492C64.1515 31.5588 64.0707 31.875 63.9833 32.1846C62.8056 30.8388 61.6213 29.4929 60.4437 28.1471C59.6766 27.2723 58.9094 26.3975 58.1423 25.5227C57.9135 25.2603 57.6376 25.0045 57.4425 24.7219C57.4021 24.6614 57.2944 24.5941 57.2675 24.5268C57.1935 24.3249 57.4425 23.7866 57.5031 23.5578C57.5838 23.2415 57.6578 22.932 57.7318 22.6157C57.7991 22.2994 57.8664 21.9899 57.927 21.6736C57.9876 21.3573 58.0414 21.0478 58.0885 20.7382C58.0885 20.7315 58.0885 20.7248 58.0885 20.7181C58.0885 20.7113 58.0885 20.7046 58.0885 20.6979C58.0885 20.6911 58.0885 20.6844 58.0885 20.6777C58.0885 20.671 58.0885 20.6642 58.0885 20.6575C58.0885 20.644 58.0952 20.6239 58.0952 20.6104C58.0952 20.5969 58.1019 20.5767 58.1019 20.5633C58.1019 20.5498 58.1087 20.5296 58.1087 20.5162C58.1087 20.5027 58.1154 20.4825 58.1154 20.4691C58.1154 20.4556 58.1221 20.4422 58.1221 20.4287C58.1221 20.4152 58.1289 20.4018 58.1289 20.3883C58.1289 20.3749 58.1356 20.3614 58.1356 20.348C58.1356 20.3345 58.1423 20.321 58.1423 20.3076C58.1423 20.2941 58.1423 20.2874 58.1491 20.2739C58.1491 20.2605 58.1491 20.2538 58.1558 20.2403C58.1558 20.2268 58.1558 20.2201 58.1625 20.2066C58.1625 20.1932 58.1625 20.1865 58.1692 20.173C58.1692 20.1461 58.176 20.1192 58.1827 20.0922C58.1827 20.0653 58.1894 20.0384 58.1894 20.0115C58.1962 19.9846 58.1962 19.9577 58.2029 19.9308C58.2029 19.9038 58.2096 19.8769 58.2096 19.85C58.2096 19.8231 58.2163 19.7962 58.2163 19.7692C58.2163 19.7423 58.2231 19.7154 58.2231 19.6885C58.2231 19.6616 58.2298 19.6347 58.2298 19.6077C58.2298 19.5808 58.2365 19.5539 58.2365 19.527C58.2365 19.5203 58.2365 19.5068 58.2365 19.5001C58.2365 19.4933 58.2365 19.4799 58.2365 19.4732C58.2365 19.4664 58.2365 19.453 58.2365 19.4462C58.2365 19.4395 58.2365 19.4261 58.2365 19.4193C58.2365 19.4059 58.2365 19.3857 58.2433 19.3722C58.2433 19.3588 58.2433 19.3386 58.25 19.3251C58.25 19.3117 58.25 19.2915 58.2567 19.278C58.2567 19.2646 58.2567 19.2444 58.2635 19.2309C58.2635 19.2175 58.2635 19.204 58.2635 19.1905C58.2635 19.1771 58.2634 19.1636 58.2702 19.1502C58.2702 19.1367 58.2702 19.1232 58.2769 19.1098C58.2769 19.0963 58.2769 19.0829 58.2769 19.0694C58.2769 19.056 58.2769 19.0492 58.2769 19.0358C58.2769 19.0223 58.2769 19.0156 58.2769 19.0021C58.2769 18.9887 58.2769 18.9819 58.2769 18.9685C58.2769 18.955 58.2769 18.9483 58.2769 18.9348C58.2769 18.9146 58.2769 18.9012 58.2836 18.881C58.2836 18.8608 58.2836 18.8473 58.2904 18.8272C58.2904 18.807 58.2904 18.7935 58.2971 18.7733C58.2971 18.7531 58.2971 18.7397 58.3038 18.7195V18.7128V18.706V18.6993V18.6926C58.324 18.41 58.3375 18.1341 58.3509 17.8514C58.3644 17.5755 58.3644 17.2996 58.3644 17.0305C58.3644 16.7613 58.3577 16.4921 58.3509 16.2297C58.3307 15.9605 58.3173 15.6981 58.2971 15.4424Z" fill="#9A95A0"/>
<path d="M50.6264 37.4805C52.7865 39.8693 54.9398 42.2582 57.0999 44.6471C57.1739 44.7278 57.4633 44.9566 57.4767 45.0643C57.4969 45.2392 56.9653 45.7641 56.8442 45.9189C56.4808 46.3899 56.1107 46.8475 55.7338 47.3051C55.1215 48.0318 54.4957 48.7519 53.8362 49.4517C53.1835 50.1515 52.5106 50.8312 51.8107 51.4974C51.1176 52.1568 50.4043 52.8028 49.6709 53.4286C47.3493 50.9254 45.0345 48.4221 42.7129 45.9189C43.4531 45.2863 44.1731 44.6403 44.8797 43.9674C45.5795 43.2945 46.2659 42.6081 46.9254 41.9015C47.5848 41.195 48.2241 40.475 48.8432 39.7347C49.469 38.9945 50.0612 38.2409 50.6264 37.4805Z" fill="#9A95A0"/>
<path d="M50.1687 25.8596C52.5104 25.3818 54.8589 24.9377 57.2141 24.534C57.5708 23.3025 57.8601 22.0442 58.0553 20.7791C57.0594 27.2997 53.8764 33.3828 49.8389 38.5306C45.8687 43.5977 40.916 47.938 35.3443 51.168C32.1143 53.0388 28.6555 54.5326 25.0419 55.468C26.6165 55.0575 28.1575 54.5326 29.6716 53.9337C29.7321 51.7333 29.8533 49.5396 30.0148 47.3459L30.0282 47.144C29.6716 47.2988 29.3149 47.4401 28.9583 47.5814C28.6016 47.7227 28.2383 47.8506 27.8816 47.9717C27.5182 48.0928 27.1616 48.2139 26.7982 48.3216C26.4348 48.4293 26.0715 48.5302 25.7081 48.6244C24.3353 48.9743 22.9357 49.2099 21.5293 49.3041L21.4889 49.5127C20.9977 51.8073 20.4728 54.102 19.9008 56.3764C21.4081 56.2351 22.9088 55.9929 24.3825 55.643C19.4634 56.8206 14.0666 56.9686 9.35619 54.9095C5.02933 53.0186 1.89354 49.2973 0.668826 44.7484C-0.0781135 41.9693 -0.131954 39.0421 0.251609 36.1956C0.0968382 37.3463 0.0160868 38.5037 0.0295452 39.6612C2.27036 38.8604 4.51791 38.0933 6.77891 37.3598L6.98753 37.2858C6.97407 36.9829 6.96733 36.6801 6.96733 36.3773C6.96733 36.0678 6.98079 35.7582 6.99425 35.442C7.01444 35.1257 7.04135 34.8094 7.075 34.4797C7.10864 34.1567 7.15575 33.827 7.20958 33.4972C7.43164 32.1379 7.78829 30.8056 8.24588 29.5068L8.05073 29.5405C5.88393 29.9913 3.70368 30.4085 1.52342 30.7921C1.18024 31.8284 0.890886 32.8781 0.655364 33.9481C3.00385 23.1276 10.7491 13.6529 19.6989 7.44857C22.2493 5.6788 24.9679 4.15127 27.8211 2.92656C27.7605 4.93186 27.6394 6.93715 27.4846 8.93572L27.4711 9.11741C27.8076 8.96264 28.1508 8.82132 28.494 8.68001C28.8372 8.5387 29.1804 8.40411 29.5303 8.28299C29.8802 8.15513 30.2234 8.03401 30.5733 7.92634C30.9232 7.81195 31.2731 7.70428 31.6298 7.61007C32.9622 7.23324 34.3282 6.96407 35.7077 6.82276L35.748 6.62761C36.1922 4.50119 36.6699 2.37477 37.2015 0.268536C41.5553 -0.316902 46.1715 0.0464733 50.1148 2.11906C53.7621 4.03688 56.4134 7.35436 57.591 11.2977C58.3043 13.6933 58.4927 16.2234 58.3042 18.7065C58.385 17.6231 58.3917 16.5397 58.311 15.463C55.9423 16.3109 53.5669 17.1319 51.1781 17.9124L50.9492 17.9932C50.9762 18.296 50.9964 18.5988 51.0098 18.9084C51.0233 19.2179 51.0233 19.5342 51.0233 19.8505C51.0165 20.1735 51.0031 20.4964 50.9829 20.8262C50.9627 21.1559 50.9291 21.4924 50.882 21.8288C50.707 23.215 50.384 24.5811 49.9533 25.9134L50.1687 25.8596ZM37.7735 40.7109C38.0898 40.4552 38.3926 40.1928 38.6954 39.9303C38.9982 39.6679 39.2943 39.3987 39.5837 39.1295C39.873 38.8604 40.1556 38.5845 40.4383 38.3086C40.7142 38.0327 40.9901 37.7501 41.2592 37.4674C42.309 36.3302 43.2982 35.1391 44.1932 33.8741C45.068 32.6493 45.8687 31.3641 46.5618 30.025C46.7301 29.6952 46.8848 29.3655 47.0396 29.0358C47.1876 28.706 47.3357 28.383 47.4703 28.06C47.6049 27.737 47.7327 27.414 47.8538 27.091C47.975 26.768 48.0826 26.4518 48.1903 26.1288C48.2172 26.0548 48.2374 25.9807 48.2643 25.9067C48.2845 25.8327 48.3114 25.7587 48.3316 25.6914C48.3518 25.6174 48.372 25.5501 48.3922 25.476C48.4124 25.402 48.4325 25.3347 48.4527 25.2607C48.4595 25.2405 48.4662 25.2203 48.4729 25.2001C48.4796 25.18 48.4864 25.1598 48.4864 25.1396C48.4931 25.1194 48.4998 25.0992 48.4998 25.0858C48.5066 25.0656 48.5066 25.0521 48.5133 25.0319C48.52 25.005 48.5267 24.9848 48.5335 24.9646C48.5402 24.9444 48.5469 24.9243 48.5469 24.9041C48.5537 24.8839 48.5537 24.8704 48.5604 24.857C48.5671 24.8435 48.5671 24.8233 48.5739 24.8099C48.5806 24.7762 48.5873 24.7493 48.594 24.7224C48.6008 24.6955 48.6075 24.6753 48.6075 24.6618C48.6142 24.6416 48.6142 24.6282 48.621 24.6147C48.621 24.6013 48.6277 24.5878 48.6277 24.5743C48.6411 24.507 48.6546 24.4532 48.6681 24.4128C48.6748 24.3725 48.6883 24.3388 48.695 24.3119C48.7017 24.285 48.7017 24.2715 48.7084 24.2513C48.7084 24.2379 48.7152 24.2244 48.7152 24.2177C48.7219 24.1773 48.7286 24.1504 48.7354 24.1235C48.7421 24.0966 48.7488 24.0764 48.7488 24.0562C48.7555 24.036 48.7555 24.0225 48.7623 24.0091C48.7623 23.9956 48.769 23.9822 48.769 23.9754C48.7757 23.9418 48.7825 23.9081 48.7892 23.8812C48.7959 23.8543 48.7959 23.8341 48.8027 23.8139C48.8094 23.7937 48.8094 23.7803 48.8094 23.7668C48.8094 23.7534 48.8161 23.7399 48.8161 23.7265C48.8228 23.6928 48.8296 23.6659 48.8363 23.639C48.843 23.6121 48.843 23.5919 48.8498 23.5717C48.8565 23.5515 48.8565 23.538 48.8565 23.5246C48.8565 23.5111 48.8632 23.4977 48.8632 23.4842C48.8699 23.4506 48.8767 23.4236 48.8767 23.3967C48.8834 23.3698 48.8834 23.3496 48.8901 23.3362C48.8901 23.316 48.8969 23.3025 48.8969 23.2891C48.8969 23.2756 48.9036 23.2621 48.9036 23.2487C48.9103 23.215 48.917 23.1881 48.917 23.1612C48.9238 23.1343 48.9238 23.1141 48.9305 23.1006C48.9305 23.0805 48.9372 23.067 48.9372 23.0535C48.9372 23.0401 48.944 23.0266 48.944 23.0132C48.9507 22.9728 48.9574 22.9391 48.9574 22.9122C48.9641 22.8853 48.9641 22.8651 48.9709 22.8449C48.9709 22.8247 48.9776 22.8113 48.9776 22.8046C48.9776 22.7911 48.9776 22.7844 48.9843 22.7709C48.9843 22.7575 48.9911 22.7373 48.9911 22.7238C48.9911 22.7103 48.9978 22.6902 48.9978 22.6767C48.9978 22.6632 49.0045 22.6431 49.0045 22.6296C49.0045 22.6161 49.0113 22.596 49.0113 22.5825C49.0247 22.4883 49.0382 22.3941 49.0516 22.2999C49.092 21.9634 49.1256 21.6404 49.1458 21.3241C49.166 21.0079 49.1795 20.7051 49.1862 20.4022C49.1929 20.1062 49.1862 19.8101 49.1795 19.5274C49.166 19.2448 49.1526 18.9622 49.1256 18.6863C49.0987 18.3902 49.0584 18.0941 49.018 17.8115C48.9709 17.5289 48.9238 17.2463 48.8632 16.9771C48.8026 16.7079 48.7354 16.4388 48.6546 16.183C48.5806 15.9273 48.4931 15.6716 48.3989 15.4294C48.298 15.1804 48.197 14.9381 48.0893 14.7026C47.9817 14.4671 47.8673 14.2383 47.7462 14.023C47.625 13.8009 47.4972 13.5923 47.3626 13.3837C47.228 13.1751 47.0867 12.98 46.9454 12.7848C46.7839 12.5695 46.6224 12.3609 46.4474 12.1657C46.2792 11.9706 46.0975 11.7822 45.9158 11.6005C45.7341 11.4188 45.5457 11.2506 45.3506 11.0823C45.1554 10.9208 44.9536 10.7593 44.745 10.6113C44.5296 10.4632 44.3143 10.3219 44.0989 10.1941C43.8769 10.0595 43.6548 9.93836 43.4328 9.81724C43.2107 9.70284 42.9819 9.58845 42.7464 9.48751C42.5109 9.38657 42.2753 9.28564 42.0331 9.19816C41.7706 9.10395 41.5082 9.01647 41.239 8.93572C40.9699 8.85497 40.7007 8.78768 40.4315 8.72712C40.1557 8.66655 39.8797 8.61272 39.6039 8.56561C39.3212 8.51851 39.0386 8.48486 38.756 8.45122C38.4734 8.4243 38.184 8.39738 37.8946 8.38393C37.6053 8.37047 37.3092 8.36374 37.0131 8.36374C36.717 8.36374 36.4142 8.37047 36.1047 8.39066C35.8019 8.40411 35.4923 8.43103 35.1761 8.46468C35.1491 8.46468 35.1222 8.4714 35.0953 8.4714C35.0684 8.4714 35.0482 8.47813 35.0213 8.47813C34.9944 8.47813 34.9742 8.48487 34.9473 8.48487C34.9271 8.48487 34.9002 8.4916 34.88 8.4916C34.6243 8.52524 34.3753 8.55888 34.1398 8.59253C33.9042 8.62617 33.6754 8.66655 33.4467 8.70693C33.2246 8.7473 33.0025 8.79441 32.7805 8.84151C32.5584 8.88861 32.3431 8.94245 32.1277 8.98955C32.0941 8.99628 32.0672 9.00301 32.0403 9.00974C32.0133 9.01647 31.9932 9.0232 31.9797 9.0232C31.9595 9.02993 31.946 9.02993 31.9326 9.03666C31.9191 9.03666 31.9057 9.04339 31.8989 9.04339C31.7374 9.08376 31.5759 9.13086 31.4144 9.17124C30.8357 9.33274 30.2705 9.51443 29.712 9.70958C29.1534 9.90472 28.6016 10.1201 28.0499 10.3556C27.5048 10.5911 26.9665 10.8401 26.4349 11.1025C25.9032 11.365 25.3784 11.6476 24.8602 11.9437C24.7324 12.0177 24.6112 12.0917 24.4968 12.1523C24.3824 12.2196 24.2815 12.2801 24.1806 12.3407C24.0796 12.4012 23.9854 12.4618 23.8912 12.5156C23.797 12.5695 23.7095 12.63 23.6153 12.6839C23.2991 12.8857 22.9895 13.0876 22.6867 13.2962C22.3839 13.5048 22.0811 13.7134 21.785 13.9288C21.4889 14.1441 21.1928 14.3662 20.9035 14.5882C20.6141 14.8103 20.3315 15.0391 20.0489 15.2746C19.7393 15.5303 19.4432 15.7793 19.1471 16.035C18.8511 16.2907 18.5684 16.5531 18.2858 16.8089C18.0032 17.0713 17.734 17.3337 17.4649 17.6029C17.1957 17.8721 16.9333 18.1412 16.6775 18.4104C16.4151 18.693 16.1661 18.9689 15.9171 19.2516C15.6749 19.5342 15.4326 19.8101 15.2038 20.0927C14.9751 20.3753 14.7463 20.6512 14.5309 20.9338C14.3089 21.2165 14.1003 21.4991 13.8917 21.7817C13.6629 22.098 13.4408 22.4143 13.2255 22.7305C13.0101 23.0468 12.8083 23.3563 12.6131 23.6659C12.418 23.9754 12.2295 24.2917 12.0479 24.6012C11.8662 24.9108 11.698 25.2203 11.5297 25.5366C11.3615 25.8529 11.2067 26.1624 11.0587 26.4787C10.9106 26.7882 10.7626 27.0978 10.628 27.4073C10.4934 27.7169 10.3656 28.0264 10.2444 28.3292C10.1233 28.6388 10.0089 28.9416 9.90125 29.2511C9.84069 29.4261 9.78013 29.601 9.7263 29.776C9.67246 29.9442 9.61863 30.1192 9.56479 30.2807C9.51769 30.4489 9.46386 30.6104 9.42349 30.7786C9.37638 30.9401 9.336 31.1084 9.29563 31.2699C9.2889 31.2968 9.28217 31.3237 9.27544 31.3439C9.26871 31.3641 9.26871 31.3843 9.26198 31.3977C9.25525 31.4112 9.25526 31.4314 9.24853 31.4381C9.24853 31.4516 9.24179 31.465 9.24179 31.4785C9.22834 31.5458 9.21488 31.5929 9.20815 31.6332C9.20142 31.6736 9.18796 31.7073 9.18796 31.7342C9.18123 31.7611 9.18124 31.7746 9.17451 31.7947C9.17451 31.8082 9.16777 31.8217 9.16777 31.8351C9.16104 31.8688 9.15432 31.8957 9.14759 31.9226C9.14086 31.9495 9.14085 31.9697 9.13413 31.9832C9.1274 32.0033 9.1274 32.0168 9.12067 32.0303C9.12067 32.0437 9.11394 32.0572 9.11394 32.0706C9.10721 32.0976 9.10049 32.1245 9.10049 32.1447C9.09376 32.1649 9.09376 32.185 9.08703 32.2052C9.0803 32.2254 9.08029 32.2389 9.07357 32.2591C9.07357 32.2725 9.06684 32.2927 9.06684 32.3062C9.06011 32.3331 9.06011 32.36 9.05338 32.3802C9.04665 32.4004 9.04665 32.4206 9.03992 32.4408C9.03992 32.4609 9.03319 32.4744 9.03319 32.4946C9.03319 32.508 9.02647 32.5282 9.02647 32.5417C9.01974 32.5753 9.01301 32.609 9.01301 32.6292C9.00628 32.6561 9.00627 32.6763 8.99954 32.6897C8.99954 32.7099 8.99282 32.7234 8.99282 32.7301C8.99282 32.7436 8.98608 32.7503 8.98608 32.7637C8.97262 32.8445 8.95917 32.9185 8.94571 32.9993C8.88515 33.3761 8.83805 33.7462 8.8044 34.1028C8.77076 34.4662 8.74384 34.8229 8.73038 35.1661C8.71692 35.516 8.71692 35.8592 8.72365 36.1889C8.73037 36.5254 8.75057 36.8551 8.78421 37.1781C8.81113 37.4338 8.83804 37.676 8.87169 37.9116C8.90533 38.1471 8.94571 38.3691 8.98608 38.5845C9.02646 38.7998 9.07357 39.0152 9.1274 39.217C9.18123 39.4256 9.23507 39.6208 9.29563 39.8227C9.37638 40.0784 9.46386 40.3273 9.55807 40.5696C9.65228 40.8118 9.75321 41.0474 9.86088 41.2762C9.96854 41.5049 10.0829 41.727 10.1973 41.9423C10.3185 42.1577 10.4463 42.3663 10.5742 42.5749C11.1327 43.443 11.8191 44.2235 12.6131 44.883C12.8083 45.0445 13.0101 45.1925 13.2187 45.3406C13.4273 45.4886 13.636 45.6232 13.858 45.7578C14.0733 45.8924 14.3021 46.0135 14.5309 46.1346C14.7597 46.2557 14.9952 46.3634 15.2308 46.4711C16.2603 46.9287 17.3572 47.2248 18.4675 47.393C18.804 47.4401 19.1472 47.4805 19.4971 47.5141C19.847 47.541 20.1969 47.5612 20.5603 47.5679C20.9237 47.5747 21.287 47.5679 21.6571 47.5545C22.0272 47.541 22.4041 47.5074 22.7876 47.4737C22.8078 47.4737 22.8213 47.467 22.8415 47.467C22.8617 47.467 22.8751 47.4603 22.8953 47.4603C22.9088 47.4603 22.9289 47.4535 22.9424 47.4535C22.9559 47.4535 22.9761 47.4468 22.9895 47.4468C23.0568 47.4401 23.1106 47.4334 23.1577 47.4266C23.2048 47.4199 23.2385 47.4199 23.2654 47.4132C23.2923 47.4064 23.3192 47.4064 23.3394 47.4064C23.3596 47.4064 23.3731 47.3997 23.3933 47.3997C24.2479 47.2853 25.089 47.1171 25.9234 46.9085C26.5425 46.747 27.1549 46.572 27.7605 46.3634C28.3661 46.1615 28.965 45.9395 29.5572 45.6905C30.1494 45.4482 30.7348 45.1791 31.3135 44.8965C31.8922 44.6138 32.4642 44.311 33.0294 43.988C33.0496 43.9746 33.0765 43.9611 33.0967 43.9476C33.1169 43.9342 33.1371 43.9207 33.1573 43.914C33.1775 43.9005 33.1977 43.8871 33.2179 43.8804C33.2381 43.8669 33.2582 43.8602 33.2784 43.8467C33.6687 43.6179 34.059 43.3824 34.4426 43.1334C34.8261 42.8844 35.2097 42.6355 35.5865 42.373C35.9634 42.1106 36.3335 41.8414 36.7036 41.5655C37.0602 41.2896 37.4236 41.007 37.7735 40.7109ZM42.7195 45.9126C45.6601 43.4093 48.3249 40.5763 50.6263 37.4809C48.9507 36.5725 47.3088 35.59 45.687 34.5806L45.5457 34.4999C43.5943 37.2185 41.2727 39.6813 38.6887 41.8078L38.8098 41.9289C40.1557 43.2142 41.4544 44.5465 42.7195 45.9126ZM13.8176 48.3216L13.9791 48.1332C11.9671 47.2517 10.2175 45.8251 9.00628 43.9948L8.83805 44.1562C6.90678 46.0337 4.96204 47.8977 2.97693 49.728C4.41697 51.7737 6.37517 53.4223 8.61599 54.5326C10.3185 52.4331 12.0546 50.3673 13.8176 48.3216ZM43.4193 7.41492L43.2578 7.60334C45.3169 8.36374 47.1742 9.64901 48.5133 11.3986L48.6815 11.2371C50.6195 9.35293 52.571 7.48222 54.5561 5.65188C52.9209 3.74752 50.8147 2.29402 48.4864 1.37212C46.8243 3.41106 45.1352 5.42981 43.4193 7.41492ZM8.08438 18.5383C9.58498 19.366 11.0519 20.2542 12.5055 21.1761L12.6333 21.2501C14.5242 18.6661 16.7448 16.3311 19.2077 14.2921L19.0933 14.1845C17.8753 13.0405 16.7045 11.8562 15.5605 10.6382C12.8015 13.0001 10.2848 15.6514 8.08438 18.5383Z" fill="#ED0E1C"/>
<path d="M15.5601 10.6382C16.6973 11.8562 17.8749 13.0405 19.0929 14.1845L19.2073 14.2921C16.7444 16.3311 14.5171 18.6661 12.6329 21.2501L12.5051 21.1761C11.0583 20.2542 9.59132 19.3659 8.08398 18.5382C10.2844 15.6514 12.8011 13.0001 15.5601 10.6382C15.7687 10.8602 14.867 11.2304 15.5601 10.6382Z" fill="#F6F6F6"/>
<path d="M32.5377 1.23078C32.5646 1.22406 32.5915 1.21733 32.6184 1.2106C32.6453 1.20387 32.6723 1.19713 32.6992 1.19041C32.7261 1.18368 32.753 1.17695 32.7799 1.17022C32.8068 1.16349 32.8338 1.15676 32.8607 1.15003C32.8741 1.1433 32.8876 1.14331 32.901 1.13658C32.9145 1.12985 32.928 1.12984 32.9414 1.12311C32.9549 1.11639 32.9683 1.11639 32.9818 1.10966C32.9953 1.10293 33.0087 1.10293 33.0222 1.0962C33.0356 1.08947 33.0491 1.08947 33.0626 1.08274C33.076 1.07601 33.0895 1.07601 33.1029 1.06928C33.1164 1.06928 33.1298 1.06255 33.1433 1.05582C33.1568 1.04909 33.1702 1.0491 33.1837 1.04237C33.2039 1.03564 33.2173 1.03564 33.2375 1.02891C33.2577 1.02218 33.2712 1.02218 33.2913 1.01545C33.3115 1.00872 33.325 1.00872 33.3452 1.00199C33.3654 0.99526 33.3788 0.995263 33.399 0.988533C33.4057 0.988533 33.4125 0.988532 33.4192 0.981803C33.4259 0.981803 33.4327 0.975072 33.4394 0.975072C33.4461 0.975072 33.4528 0.968347 33.4596 0.968347C33.4663 0.968347 33.473 0.968345 33.4798 0.961616C33.7489 0.894324 34.0114 0.827032 34.2805 0.766469C34.543 0.705907 34.8054 0.645342 35.0678 0.591509C35.3303 0.537676 35.5927 0.490571 35.8484 0.443466C36.1109 0.396362 36.3666 0.35599 36.6223 0.315615C36.6425 0.308886 36.6694 0.308883 36.6896 0.302154C36.7098 0.302154 36.7299 0.295429 36.7501 0.295429C36.7703 0.295429 36.7905 0.288698 36.804 0.288698C36.8242 0.288698 36.8376 0.281967 36.8578 0.281967C36.9722 0.268509 37.0799 0.248322 37.1943 0.234863C36.6694 2.34783 36.1849 4.46752 35.7408 6.59394L35.7004 6.78908C35.3774 6.82273 35.0477 6.86311 34.7112 6.91021C34.3747 6.95731 34.0383 7.01788 33.7018 7.08517C33.3654 7.15246 33.0222 7.22648 32.6723 7.30723C32.3291 7.38798 31.9792 7.48219 31.6225 7.5764C30.2026 7.97342 28.8097 8.48484 27.4639 9.09047L27.4773 8.90878C27.6321 6.91021 27.7532 4.90491 27.8138 2.89962C27.8407 2.88616 27.8743 2.8727 27.9013 2.85924C27.9282 2.84579 27.9618 2.83233 27.9887 2.8256C28.0157 2.81214 28.0426 2.79868 28.0762 2.79195C28.1031 2.7785 28.1368 2.76504 28.1637 2.75831C28.1839 2.75158 28.2041 2.74485 28.2243 2.73139C28.2445 2.72466 28.2646 2.71793 28.2848 2.70447C28.305 2.69774 28.3252 2.69101 28.3454 2.67755C28.3656 2.67083 28.3858 2.6641 28.4059 2.65064C28.6684 2.54297 28.9376 2.43531 29.2 2.33437C29.4624 2.23343 29.7316 2.13249 30.0008 2.03828C30.2699 1.94408 30.5324 1.84987 30.8015 1.75566C31.0707 1.66818 31.3399 1.5807 31.609 1.49322C31.6158 1.49322 31.6225 1.48649 31.6292 1.48649C31.636 1.48649 31.6427 1.47976 31.6494 1.47976C31.6561 1.47976 31.6629 1.47304 31.6696 1.47304C31.6763 1.47304 31.6831 1.4663 31.6898 1.4663C31.71 1.45958 31.7234 1.45284 31.7436 1.45284C31.7638 1.44611 31.7773 1.43939 31.7975 1.43939C31.8176 1.43266 31.8311 1.42593 31.8513 1.42593C31.8715 1.4192 31.8849 1.41247 31.9051 1.41247C31.9186 1.40574 31.932 1.40574 31.9455 1.39901C31.959 1.39228 31.9724 1.39228 31.9859 1.38555C31.9993 1.37882 32.0128 1.37883 32.0263 1.3721C32.0397 1.36537 32.0532 1.36536 32.0666 1.35864C32.0801 1.35191 32.0935 1.35191 32.107 1.34518C32.1205 1.33845 32.1339 1.33845 32.1474 1.33172C32.1608 1.32499 32.1743 1.32499 32.1878 1.31826C32.2012 1.31153 32.2147 1.31153 32.2281 1.30481C32.255 1.29808 32.282 1.29135 32.3089 1.27789C32.3358 1.27116 32.3627 1.26443 32.3896 1.25097C32.4165 1.24424 32.4435 1.23751 32.4704 1.22405C32.4838 1.25097 32.5107 1.24424 32.5377 1.23078Z" fill="#F6F6F6"/>
<path d="M1.51634 30.7716C3.69659 30.388 5.87685 29.9708 8.04364 29.52L8.23879 29.4863C8.1244 29.8161 8.01672 30.1458 7.91579 30.4755C7.81485 30.8052 7.72064 31.1417 7.63316 31.4714C7.54568 31.8012 7.46494 32.1376 7.39765 32.4674C7.32363 32.8038 7.26305 33.1336 7.20922 33.47C7.00735 34.7216 6.9266 35.9934 6.98043 37.2585L6.77183 37.3326C4.51082 38.066 2.26328 38.8332 0.0224609 39.6339C0.0224609 39.358 0.0224572 39.0754 0.0291864 38.7928C0.0359156 38.5102 0.0493723 38.2208 0.0695599 37.9315C0.0897474 37.6421 0.109935 37.3527 0.143581 37.0567C0.170498 36.7606 0.210876 36.4645 0.251251 36.1684C0.251251 36.1617 0.251251 36.1549 0.251251 36.1549C0.251251 36.1482 0.251251 36.1415 0.251251 36.1348C0.251251 36.128 0.251251 36.1213 0.251251 36.1213C0.251251 36.1146 0.251251 36.1078 0.251251 36.1078C0.251251 36.0944 0.257986 36.0742 0.257986 36.0607C0.257986 36.0473 0.264712 36.0271 0.264712 36.0136C0.264712 36.0002 0.271437 35.98 0.271437 35.9665C0.271437 35.9531 0.278173 35.9329 0.278173 35.9194C0.278173 35.906 0.278169 35.8925 0.284899 35.879C0.284899 35.8656 0.291624 35.8521 0.291624 35.8387C0.291624 35.8252 0.291631 35.8118 0.29836 35.7983C0.29836 35.7848 0.305085 35.7714 0.305085 35.7579C0.305085 35.7445 0.305082 35.731 0.311811 35.7243C0.311811 35.7108 0.318547 35.6974 0.318547 35.6906C0.318547 35.6772 0.318543 35.6637 0.325272 35.657C0.325272 35.6435 0.332008 35.6301 0.332008 35.6233C0.338737 35.5964 0.33873 35.5695 0.345459 35.5426C0.352188 35.5157 0.352191 35.4888 0.35892 35.4618C0.365649 35.4349 0.365652 35.408 0.372381 35.3811C0.37911 35.3542 0.379103 35.3273 0.385832 35.3003C0.392561 35.2734 0.392564 35.2465 0.399293 35.2196C0.406023 35.1927 0.406025 35.1658 0.412755 35.1388C0.419484 35.1119 0.419487 35.085 0.426216 35.0581C0.432945 35.0312 0.432938 35.0043 0.439667 34.9773C0.439667 34.9639 0.446403 34.9572 0.446403 34.9437C0.446403 34.9302 0.453128 34.9235 0.453128 34.9101C0.453128 34.8966 0.459854 34.8899 0.459854 34.8764C0.459854 34.8629 0.466589 34.8562 0.466589 34.8428C0.466589 34.8293 0.473315 34.8158 0.473315 34.8024C0.473315 34.7889 0.48004 34.7755 0.48004 34.762C0.48004 34.7486 0.486776 34.7351 0.486776 34.7149C0.486776 34.7014 0.493501 34.688 0.493501 34.6678C0.493501 34.6543 0.500237 34.6409 0.500237 34.6274C0.500237 34.614 0.506963 34.6005 0.506963 34.587C0.506963 34.5736 0.513688 34.5601 0.513688 34.5467C0.513688 34.5332 0.520424 34.5198 0.520424 34.5063C0.520424 34.4996 0.527149 34.4861 0.527149 34.4794C0.527149 34.4727 0.533875 34.4592 0.533875 34.4525C0.533875 34.4457 0.540611 34.4323 0.540611 34.4256C0.540611 34.4188 0.547336 34.4054 0.547336 34.3986C0.803045 33.1672 1.12605 31.9559 1.51634 30.7716C1.92009 30.7043 1.42213 31.0744 1.51634 30.7716Z" fill="#F6F6F6"/>
<path d="M48.4932 1.37842C50.8215 2.30032 52.9278 3.75381 54.5629 5.65817C52.5711 7.48851 50.6196 9.35922 48.6884 11.2434L48.5201 11.4049C47.1743 9.65531 45.3238 8.37003 43.2646 7.60964L43.4262 7.42122C45.1354 5.42938 46.8244 3.41063 48.4932 1.37842C49.0921 1.61394 48.1837 1.75525 48.4932 1.37842Z" fill="#F6F6F6"/>
<path d="M9.00591 43.9878C10.2172 45.8249 11.9668 47.2447 13.9788 48.1262L13.8173 48.3147C12.0542 50.3603 10.3248 52.4262 8.61562 54.519C6.3748 53.4019 4.41661 51.76 2.97656 49.7143C4.96167 47.8907 6.90641 46.0267 8.83768 44.1426L9.00591 43.9878Z" fill="#F6F6F6"/>
<path d="M58.2975 15.4424C58.3177 15.6981 58.3312 15.9605 58.3379 16.2297C58.3446 16.4921 58.3513 16.7613 58.3513 17.0305C58.3513 17.2996 58.3446 17.5755 58.3379 17.8514C58.3244 18.1273 58.311 18.41 58.2908 18.6926V18.6993V18.706V18.7128V18.7195C58.2908 18.7397 58.2908 18.7531 58.2841 18.7733C58.2841 18.7935 58.2841 18.807 58.2773 18.8272C58.2773 18.8473 58.2773 18.8608 58.2706 18.881C58.2706 18.9012 58.2706 18.9146 58.2639 18.9348C58.2639 18.9483 58.2639 18.955 58.2639 18.9685C58.2639 18.9819 58.2639 18.9887 58.2639 19.0021C58.2639 19.0156 58.2639 19.0223 58.2639 19.0358C58.2639 19.0492 58.2639 19.056 58.2639 19.0694C58.2639 19.0829 58.2639 19.0963 58.2639 19.1098C58.2639 19.1232 58.2639 19.1367 58.2571 19.1502C58.2571 19.1636 58.2571 19.1771 58.2504 19.1905C58.2504 19.204 58.2504 19.2175 58.2504 19.2309C58.2504 19.2444 58.2504 19.2646 58.2437 19.278C58.2437 19.2915 58.2437 19.3117 58.237 19.3251C58.237 19.3386 58.237 19.3588 58.2302 19.3722C58.2302 19.3857 58.2302 19.4059 58.2235 19.4193C58.2235 19.4261 58.2235 19.4395 58.2235 19.4462C58.2235 19.453 58.2235 19.4664 58.2235 19.4732C58.2235 19.4799 58.2235 19.4933 58.2235 19.5001C58.2235 19.5068 58.2235 19.5203 58.2235 19.527C58.2235 19.5539 58.2168 19.5808 58.2168 19.6077C58.2168 19.6347 58.21 19.6616 58.21 19.6885C58.21 19.7154 58.2033 19.7423 58.2033 19.7692C58.2033 19.7962 58.1966 19.8231 58.1966 19.85C58.1966 19.8769 58.1899 19.9038 58.1899 19.9308C58.1899 19.9577 58.1831 19.9846 58.1764 20.0115C58.1764 20.0384 58.1697 20.0653 58.1697 20.0922C58.1629 20.1192 58.1629 20.1461 58.1562 20.173C58.1562 20.1865 58.1562 20.1932 58.1495 20.2066C58.1495 20.2201 58.1495 20.2268 58.1427 20.2403C58.1427 20.2538 58.1428 20.2605 58.136 20.2739C58.136 20.2874 58.136 20.2941 58.1293 20.3076C58.1293 20.321 58.1226 20.3345 58.1226 20.348C58.1226 20.3614 58.1158 20.3749 58.1158 20.3883C58.1158 20.4018 58.1091 20.4152 58.1091 20.4287C58.1091 20.4422 58.1024 20.4556 58.1024 20.4691C58.1024 20.4825 58.0956 20.5027 58.0956 20.5162C58.0956 20.5296 58.0889 20.5498 58.0889 20.5633C58.0889 20.5767 58.0822 20.5969 58.0822 20.6104C58.0822 20.6239 58.0755 20.644 58.0755 20.6575C58.0755 20.6642 58.0755 20.671 58.0755 20.6777C58.0755 20.6844 58.0755 20.6911 58.0755 20.6979C58.0755 20.7046 58.0755 20.7113 58.0755 20.7181C58.0755 20.7248 58.0755 20.7315 58.0755 20.7382C57.8803 22.0101 57.5977 23.2617 57.2343 24.4931C54.8791 24.8969 52.5306 25.341 50.1889 25.8188L49.9668 25.8592C50.0745 25.516 50.1754 25.1795 50.2696 24.8363C50.3638 24.4931 50.4513 24.1499 50.5253 23.8135C50.6061 23.4703 50.6734 23.1338 50.7339 22.7907C50.7945 22.4542 50.8483 22.111 50.8887 21.7745C51.0502 20.5027 51.0771 19.2107 50.956 17.9389L51.1848 17.8582C53.5534 17.1112 55.9289 16.2903 58.2975 15.4424C58.3177 15.6981 57.8534 15.6039 58.2975 15.4424Z" fill="#F6F6F6"/>
<path d="M30.028 47.1304L30.0146 47.3322C29.8531 49.526 29.7387 51.7264 29.6714 53.9201C29.2878 54.0749 28.9043 54.2162 28.5207 54.3575C28.1371 54.4988 27.7536 54.6334 27.3633 54.7613C26.9797 54.8891 26.5894 55.0102 26.2059 55.1314C25.8156 55.2458 25.432 55.3534 25.0417 55.4544C25.0148 55.4611 24.9879 55.4678 24.9609 55.4746C24.934 55.4813 24.9071 55.488 24.8802 55.4947C24.8533 55.5015 24.8264 55.5082 24.7994 55.5149C24.7725 55.5217 24.7456 55.5284 24.7187 55.5351C24.6918 55.5419 24.6649 55.5486 24.6379 55.5553C24.611 55.562 24.5841 55.5688 24.5572 55.5755C24.5303 55.5822 24.5034 55.589 24.4764 55.5957C24.4495 55.6024 24.4226 55.6091 24.3957 55.6159C22.922 55.9658 21.4214 56.208 19.9141 56.3494C20.486 54.0749 21.0176 51.7802 21.5021 49.4856L21.5425 49.277C21.8723 49.2568 22.2087 49.2231 22.5519 49.1828C22.8951 49.1424 23.2383 49.0953 23.5882 49.0415C23.9381 48.9876 24.288 48.9203 24.6447 48.8463C25.0013 48.7723 25.3647 48.6915 25.7281 48.5973C27.1883 48.234 28.6284 47.736 30.028 47.1304Z" fill="#F6F6F6"/>
<path d="M45.5523 34.4995L45.6937 34.5803C47.3154 35.5896 48.9573 36.5654 50.6329 37.4805C48.3315 40.576 45.6667 43.4089 42.7261 45.9122C41.461 44.5462 40.1623 43.2138 38.8164 41.9285L38.6953 41.8074C41.2793 39.681 43.6009 37.2181 45.5523 34.4995Z" fill="#F6F6F6"/>
<path d="M21.8788 47.2248C21.8654 47.2719 21.8586 47.3123 21.8586 47.3459C21.8586 47.3863 21.8721 47.4199 21.8856 47.4468C21.9057 47.4738 21.9259 47.4939 21.9596 47.5141C21.9865 47.5276 22.0269 47.5343 22.0672 47.5343C22.1278 47.5276 22.1816 47.5276 22.2422 47.5209C22.3028 47.5141 22.3566 47.5141 22.4172 47.5074C22.4777 47.5007 22.5316 47.4939 22.5921 47.4939C22.6527 47.4872 22.7065 47.4805 22.7671 47.4738C21.3338 47.6218 19.887 47.6151 18.4604 47.3997L18.5613 47.393C18.6959 47.3594 18.8305 47.2517 18.8911 47.1238C18.9584 46.996 18.9651 46.7874 18.7767 46.7537C17.7135 46.599 16.6637 46.3096 15.6745 45.8924C15.6611 45.8857 15.6476 45.8857 15.6409 45.8789C15.6274 45.8789 15.614 45.8722 15.6005 45.8722C15.587 45.8722 15.5736 45.8722 15.5601 45.8722C15.5467 45.8722 15.5332 45.8789 15.513 45.8789C15.4861 45.8857 15.4592 45.8924 15.4323 45.9059C15.4054 45.9193 15.3784 45.9328 15.3582 45.953C15.3313 45.9731 15.3111 45.9933 15.2842 46.0135C15.264 46.0337 15.2439 46.0606 15.2237 46.0875C15.1496 46.1885 15.0824 46.3702 15.2035 46.4711C14.2749 46.0674 13.3933 45.5358 12.606 44.8898L12.8012 44.9167L13.0434 44.7686C13.1309 44.6677 13.2386 44.4591 13.1107 44.338C12.357 43.7121 11.6841 42.9787 11.1525 42.151C11.0919 42.077 10.991 42.0702 10.9035 42.0904C10.8901 42.0971 10.8766 42.0971 10.8564 42.1039C10.843 42.1106 10.8228 42.1173 10.8093 42.1241C10.7959 42.1308 10.7757 42.1442 10.7622 42.151C10.7488 42.1644 10.7286 42.1712 10.7151 42.1846C10.6142 42.2721 10.5065 42.4269 10.5402 42.5682C9.9951 41.7338 9.57789 40.8186 9.27507 39.8698C9.32218 39.9573 9.43657 39.9573 9.52405 39.9371L9.63844 39.8832C9.7663 39.8025 9.9278 39.6141 9.87397 39.4458C9.79995 39.1969 9.73265 38.9479 9.67209 38.6922C9.61153 38.4365 9.5577 38.1808 9.51732 37.9183C9.47022 37.6559 9.43657 37.3934 9.40293 37.1243C9.37601 36.8551 9.34909 36.5859 9.33563 36.3101C9.33563 36.2764 9.32218 36.2495 9.30872 36.2226C9.29526 36.1957 9.27508 36.1755 9.24816 36.162C9.22124 36.1485 9.19432 36.1418 9.1674 36.1351C9.13376 36.1351 9.10012 36.1351 9.06647 36.1418C9.05974 36.1418 9.05974 36.1418 9.05301 36.1485C9.04628 36.1485 9.04628 36.1485 9.03955 36.1553C9.03282 36.1553 9.03282 36.162 9.0261 36.162C9.01937 36.162 9.01936 36.1687 9.01263 36.1687C8.85113 36.236 8.69636 36.411 8.70309 36.5927C8.70309 36.6398 8.70982 36.6936 8.70982 36.7407C8.70982 36.7878 8.71655 36.8416 8.71655 36.8887C8.71655 36.9359 8.72328 36.9897 8.73001 37.0368C8.73674 37.0839 8.73674 37.1377 8.74347 37.1848C8.61562 35.8054 8.68963 34.4057 8.90497 33.0397C8.87805 33.2146 9.03283 33.2685 9.17414 33.2281C9.21451 33.2146 9.26161 33.1944 9.30198 33.1675C9.34236 33.1406 9.38274 33.107 9.41639 33.0733C9.45004 33.0397 9.47695 32.9993 9.50386 32.9522C9.52405 32.9118 9.54424 32.8714 9.55097 32.8311C8.9588 36.4985 9.51059 40.4956 12.0811 43.342C14.6315 46.1616 18.5277 47.1171 22.2153 46.8816C22.0672 46.9354 21.9327 47.07 21.8788 47.2248Z" fill="#6D1627"/>
<path d="M29.9469 45.5219L30.0074 45.495C30.7746 45.1653 31.5215 44.8019 32.2617 44.4116C30.2766 45.4748 28.1704 46.3294 25.9834 46.888C26.0305 46.8745 26.0709 46.8543 26.1113 46.8274C26.1516 46.8005 26.1853 46.7668 26.2189 46.7332C26.2526 46.6995 26.2795 46.6592 26.2997 46.6188C26.3199 46.5784 26.3333 46.538 26.34 46.4909C26.367 46.316 26.1987 46.2218 26.044 46.2621C27.7666 45.8247 29.4422 45.1922 31.037 44.4183C30.9495 44.4587 30.8553 44.5058 30.7678 44.5462C30.6804 44.5866 30.5862 44.6337 30.4987 44.6741C30.4112 44.7144 30.317 44.7548 30.2295 44.7952C30.142 44.8356 30.0478 44.8759 29.9603 44.9163C29.7921 44.9903 29.6508 45.1586 29.6575 45.3537C29.671 45.5152 29.819 45.5556 29.9469 45.5219Z" fill="#A2000C"/>
<path d="M46.4341 29.6682C46.4677 29.6749 46.4946 29.6816 46.5215 29.7018C46.5485 29.7153 46.5619 29.7422 46.5754 29.7691C46.5888 29.796 46.5956 29.823 46.5956 29.8566C46.5956 29.8902 46.5956 29.9239 46.5821 29.9643C46.5754 29.9912 46.5686 30.0114 46.5552 30.0383C45.8621 31.3707 45.0748 32.6492 44.2067 33.8739L44.1865 33.8874L43.9173 34.0758L43.7491 34.0691C43.5674 34.0085 43.6213 33.7797 43.7087 33.672C43.8231 33.5105 43.9308 33.3558 44.0385 33.1943C44.1461 33.0328 44.2538 32.8713 44.3615 32.7165C44.4691 32.555 44.5701 32.3935 44.671 32.232C44.772 32.0705 44.8729 31.909 44.9738 31.7475C44.994 31.7206 45.0075 31.6869 45.0277 31.66C45.0479 31.6331 45.0613 31.5995 45.0815 31.5725C45.1017 31.5456 45.1151 31.512 45.1353 31.4851C45.1555 31.4581 45.169 31.4245 45.1892 31.3976C45.1892 31.3976 45.1892 31.3909 45.1959 31.3909C45.1959 31.3909 45.1959 31.3841 45.2026 31.3841C45.2026 31.3841 45.2026 31.3774 45.2093 31.3774C45.2093 31.3774 45.2094 31.3707 45.2161 31.3707C45.2834 31.2563 45.3507 31.1419 45.418 31.0208C45.4853 30.9064 45.5458 30.7852 45.6131 30.6708C45.6737 30.5564 45.741 30.4353 45.8015 30.3209C45.8621 30.2065 45.9226 30.0854 45.9832 29.971C45.9832 29.971 45.9832 29.9643 45.9899 29.9575C45.9899 29.9508 45.9967 29.9508 45.9967 29.9441C45.9967 29.9441 46.0034 29.9373 46.0034 29.9306L46.0101 29.9239C46.0303 29.897 46.0505 29.8701 46.0707 29.8431C46.0976 29.8162 46.1178 29.796 46.1447 29.7759C46.1716 29.7557 46.1985 29.7355 46.2322 29.722C46.2591 29.7086 46.2928 29.6951 46.3197 29.6884C46.3331 29.6884 46.3399 29.6816 46.3533 29.6816C46.3668 29.6816 46.3735 29.6816 46.387 29.6749C46.4004 29.6749 46.4071 29.6749 46.4206 29.6749C46.4139 29.6615 46.4273 29.6682 46.4341 29.6682Z" fill="#FEFEFE"/>
<path d="M33.9711 42.8372C34.0047 42.8305 34.0316 42.8237 34.0653 42.8237C34.0922 42.8237 34.1191 42.8305 34.146 42.8372C34.1729 42.8507 34.1931 42.8641 34.2066 42.8776C34.2268 42.8978 34.2402 42.9179 34.247 42.9449C34.2604 42.9785 34.2604 43.0189 34.2537 43.0593C34.247 43.0996 34.2335 43.14 34.2133 43.1804C34.1931 43.2208 34.1662 43.2611 34.1326 43.2948C34.0989 43.3284 34.0585 43.3621 34.0182 43.389C33.9576 43.4294 33.897 43.463 33.8365 43.5034C33.7759 43.5437 33.7153 43.5774 33.6548 43.6178C33.5942 43.6514 33.5337 43.6918 33.4731 43.7254C33.4125 43.7591 33.352 43.7995 33.2914 43.8331C33.2712 43.8466 33.251 43.86 33.2309 43.8668C33.2107 43.8802 33.1905 43.8937 33.1703 43.9004C33.1501 43.9139 33.1299 43.9206 33.1097 43.934C33.0895 43.9475 33.0693 43.9542 33.0492 43.9677C32.0667 44.5262 31.064 45.0309 30.0278 45.475L29.9672 45.5019C29.8393 45.5356 29.6846 45.4885 29.6846 45.3337C29.6846 45.2933 29.6913 45.2462 29.7048 45.2059C29.7182 45.1655 29.7384 45.1251 29.7653 45.0847C29.7922 45.0444 29.8259 45.0107 29.8595 44.9771C29.8999 44.9434 29.9403 44.9165 29.9874 44.903C30.0749 44.8627 30.1691 44.8223 30.2565 44.7819C30.344 44.7415 30.4382 44.7012 30.5257 44.6608C30.6132 44.6204 30.7074 44.58 30.7949 44.5329C30.8824 44.4926 30.9766 44.4455 31.0641 44.4051C31.091 44.3916 31.1112 44.3782 31.1381 44.3714C31.165 44.358 31.1852 44.3445 31.2121 44.3378C31.239 44.3243 31.2592 44.3109 31.2861 44.3041C31.313 44.2907 31.3399 44.2772 31.3601 44.2638C31.3736 44.257 31.3871 44.2503 31.4005 44.2436C31.414 44.2369 31.4274 44.2301 31.4409 44.2234C31.4543 44.2167 31.4678 44.2099 31.4813 44.2032C31.4947 44.1965 31.5082 44.1898 31.5216 44.183C31.5486 44.1696 31.5755 44.1561 31.5957 44.1427C31.6226 44.1292 31.6428 44.1157 31.6697 44.1023C31.6966 44.0888 31.7235 44.0754 31.7437 44.0619C31.7706 44.0484 31.7908 44.035 31.8177 44.0215C31.8379 44.0148 31.8514 44.0013 31.8716 43.9946C31.8917 43.9879 31.9052 43.9744 31.9254 43.9677C31.9456 43.961 31.959 43.9475 31.9792 43.9408C31.9994 43.934 32.0129 43.9206 32.033 43.9139C32.033 43.9139 32.0398 43.9139 32.0398 43.9071C32.0398 43.9071 32.0465 43.9071 32.0465 43.9004C32.0465 43.9004 32.0532 43.9004 32.0532 43.8937C32.0532 43.8937 32.06 43.8937 32.06 43.8869C32.208 43.8062 32.3561 43.7254 32.5041 43.6447C32.6521 43.5639 32.8002 43.4832 32.9482 43.3957C33.0963 43.315 33.2443 43.2275 33.3923 43.14C33.5404 43.0525 33.6884 42.965 33.8297 42.8776C33.8432 42.8708 33.8499 42.8641 33.8634 42.8574C33.8768 42.8506 33.8836 42.8439 33.897 42.8439C33.9105 42.8372 33.9172 42.8372 33.9307 42.8305C33.9509 42.8439 33.9643 42.8372 33.9711 42.8372Z" fill="#FEFEFE"/>
<path d="M16.819 18.8675L16.6104 18.8474C16.5902 18.8339 16.57 18.8137 16.5633 18.7868C16.5498 18.7599 16.5498 18.733 16.5498 18.706C16.5498 18.6791 16.5565 18.6455 16.57 18.6118C16.5834 18.5782 16.5969 18.5445 16.6171 18.5109C16.6238 18.5042 16.6238 18.4974 16.6306 18.4907C16.6373 18.484 16.6373 18.4772 16.644 18.4705C16.6507 18.4638 16.6575 18.4571 16.6575 18.4503C16.6642 18.4436 16.6709 18.4369 16.6777 18.4301C16.9334 18.161 17.1958 17.8851 17.465 17.6226C17.7341 17.3602 18.0033 17.091 18.2792 16.8353C18.5551 16.5796 18.8377 16.3239 19.1204 16.0682C19.403 15.8192 19.6923 15.5702 19.9884 15.328C19.9951 15.3213 19.9951 15.3213 20.0019 15.3145C20.0086 15.3078 20.0086 15.3078 20.0153 15.3011C20.0221 15.3011 20.0221 15.2943 20.0288 15.2943C20.0355 15.2943 20.0355 15.2876 20.0423 15.2876C20.049 15.2809 20.0624 15.2742 20.0692 15.2742C20.0759 15.2674 20.0894 15.2674 20.0961 15.2607C20.1028 15.254 20.1163 15.254 20.123 15.2472C20.1297 15.2405 20.1432 15.2405 20.1499 15.2405C20.1768 15.2338 20.197 15.2271 20.2239 15.2271C20.2509 15.2271 20.271 15.2271 20.2912 15.2338C20.3114 15.2405 20.3316 15.2472 20.3451 15.254C20.3652 15.2674 20.3787 15.2809 20.3922 15.2943C20.4998 15.4357 20.3518 15.6375 20.2509 15.725C19.1271 16.6536 18.0504 17.6496 17.0545 18.7128L16.819 18.8675Z" fill="#FEFEFE"/>
<path d="M27.4708 11.1762C27.4573 11.1829 27.4438 11.1896 27.4371 11.1963C27.4237 11.2031 27.4102 11.2098 27.4035 11.2165C27.39 11.2233 27.3766 11.23 27.3698 11.2367C27.3564 11.2434 27.3429 11.2502 27.3362 11.2569C27.3093 11.2704 27.2891 11.2771 27.2622 11.2906C27.2352 11.304 27.2151 11.3107 27.1949 11.3242C27.1679 11.3377 27.1478 11.3444 27.1208 11.3578C27.1007 11.3713 27.0737 11.378 27.0535 11.3915C27.0468 11.3915 27.0468 11.3982 27.0401 11.3982C27.0334 11.3982 27.0334 11.4049 27.0266 11.4049C27.0199 11.4049 27.0199 11.4117 27.0132 11.4117C27.0064 11.4117 27.0064 11.4184 26.9997 11.4184C26.892 11.4722 26.7777 11.5261 26.67 11.5799C26.5623 11.6337 26.4479 11.6876 26.3403 11.7414C26.2326 11.7952 26.1182 11.8558 26.0105 11.9096C25.9029 11.9635 25.7952 12.024 25.6808 12.0846C25.0281 12.4345 24.3888 12.8046 23.763 13.1949L23.6486 13.2555C23.5476 13.2824 23.4131 13.2622 23.3861 13.1478C23.3727 13.1209 23.3727 13.0872 23.3794 13.0469C23.3862 13.0132 23.3929 12.9728 23.4131 12.9392C23.4332 12.9056 23.4534 12.8652 23.4804 12.8315C23.5073 12.7979 23.5409 12.7642 23.5813 12.7373L23.588 12.7306L23.5947 12.7239L23.6015 12.7171L23.6082 12.7104C23.6957 12.6566 23.7899 12.596 23.8774 12.5422C23.9649 12.4883 24.0591 12.4345 24.1465 12.3739C24.234 12.3201 24.3282 12.2663 24.4157 12.2124C24.5032 12.1586 24.5974 12.1048 24.6849 12.0509L24.6916 12.0442L24.6983 12.0375L24.7051 12.0308L24.7118 12.024C24.7253 12.0173 24.732 12.0106 24.7387 12.0038C24.7454 11.9971 24.7589 11.9904 24.7656 11.9837C24.7724 11.9769 24.7858 11.9702 24.7925 11.9635C24.7993 11.9567 24.8127 11.95 24.8195 11.9433C25.0348 11.8222 25.2434 11.701 25.4587 11.5866C25.6741 11.4722 25.8894 11.3578 26.1047 11.2502C26.3201 11.1425 26.5354 11.0348 26.7507 10.9272C26.9661 10.8262 27.1814 10.7253 27.4035 10.6244C27.4102 10.6244 27.4169 10.6176 27.4237 10.6176C27.4304 10.6176 27.4371 10.6109 27.4371 10.6109C27.4438 10.6109 27.4506 10.6042 27.4506 10.6042C27.4573 10.6042 27.464 10.6042 27.464 10.5974C27.4977 10.584 27.538 10.584 27.565 10.584C27.5986 10.584 27.6255 10.5907 27.6524 10.6042C27.6794 10.6176 27.6995 10.6311 27.713 10.658C27.7265 10.6782 27.7399 10.7051 27.7399 10.7388C27.7399 10.7724 27.7332 10.8128 27.7197 10.8532C27.7063 10.8935 27.6861 10.9339 27.6592 10.9676C27.6323 11.0079 27.5986 11.0416 27.5582 11.0752C27.5582 11.1291 27.5179 11.156 27.4708 11.1762Z" fill="#FEFEFE"/>
<path d="M11.6304 25.8932C11.5967 25.8864 11.5698 25.8797 11.5496 25.8595C11.5294 25.8461 11.5092 25.8259 11.4958 25.799C11.4823 25.772 11.4756 25.7451 11.4756 25.7182C11.4756 25.6846 11.4823 25.6509 11.4958 25.6173C11.4958 25.6105 11.5025 25.6038 11.5025 25.6038C11.5025 25.5971 11.5092 25.5904 11.5092 25.5904C11.5092 25.5836 11.516 25.5769 11.516 25.5769C11.516 25.5702 11.5227 25.5634 11.5227 25.5634C11.6909 25.2539 11.8591 24.9376 12.0408 24.6281C12.2225 24.3185 12.4042 24.009 12.5994 23.6995C12.7945 23.3899 12.9896 23.0871 13.1915 22.7843C13.3934 22.4815 13.6087 22.1787 13.8241 21.8759C13.8308 21.8691 13.8308 21.8624 13.8375 21.8557C13.8443 21.8489 13.851 21.8422 13.851 21.8355C13.8577 21.8287 13.8644 21.822 13.8644 21.8153C13.8712 21.8086 13.8779 21.8018 13.8846 21.8018C13.8981 21.7884 13.9183 21.7749 13.9317 21.7615C13.9519 21.748 13.9654 21.7345 13.9856 21.7278C14.0058 21.7144 14.0259 21.7076 14.0394 21.7009C14.0596 21.6942 14.0798 21.6874 14.0932 21.6807C14.1471 21.6673 14.2076 21.6605 14.2615 21.6807C14.4297 21.748 14.3489 21.9633 14.2749 22.0643C13.454 23.2015 12.707 24.3926 12.0476 25.624C11.987 25.7451 11.8726 25.8461 11.738 25.8797L11.6304 25.8932Z" fill="#FEFEFE"/>
<path d="M31.3065 9.7765C31.2662 9.78996 31.2258 9.78996 31.1854 9.78996C31.145 9.78323 31.1114 9.7765 31.0845 9.75632C31.0576 9.73613 31.0374 9.71594 31.0239 9.68229C31.0104 9.65538 31.0037 9.615 31.0105 9.58136C31.0374 9.41313 31.1652 9.25836 31.3267 9.21125L31.4007 9.19106C31.4411 9.1776 31.4815 9.17088 31.5219 9.15742C31.5622 9.14396 31.6026 9.13723 31.643 9.12377C31.6834 9.11031 31.7237 9.10359 31.7641 9.09013C31.8045 9.07667 31.8449 9.06994 31.8852 9.05648C31.8987 9.05648 31.9122 9.04975 31.9189 9.04975C31.9323 9.04975 31.9458 9.04302 31.9525 9.04302C31.966 9.04302 31.9795 9.03629 31.9862 9.03629C31.9996 9.03629 32.0131 9.02956 32.0198 9.02956C32.0266 9.02956 32.0333 9.02283 32.04 9.02283C32.0467 9.02283 32.0535 9.01611 32.0602 9.01611C32.0669 9.01611 32.0737 9.00938 32.0804 9.00938C32.0871 9.00938 32.0938 9.00265 32.1006 9.00265C32.3159 8.94881 32.5312 8.90171 32.7466 8.8546C32.9619 8.8075 33.1772 8.76713 33.3859 8.72675C33.5945 8.68638 33.8098 8.65273 34.0251 8.61908C34.2337 8.58544 34.4491 8.55852 34.6577 8.5316C34.6644 8.5316 34.6711 8.5316 34.6779 8.5316C34.6846 8.5316 34.6913 8.5316 34.698 8.5316C34.7048 8.5316 34.7115 8.5316 34.7182 8.5316C34.725 8.5316 34.7317 8.5316 34.7384 8.5316C34.7451 8.5316 34.7586 8.5316 34.7653 8.52487C34.7721 8.52487 34.7855 8.52487 34.7922 8.51814C34.799 8.51814 34.8124 8.51815 34.8192 8.51142C34.8259 8.51142 34.8394 8.51142 34.8461 8.50469C34.8663 8.50469 34.8932 8.49796 34.9134 8.49796C34.9336 8.49796 34.9605 8.49123 34.9807 8.49123C35.0009 8.49123 35.0278 8.4845 35.048 8.4845C35.0681 8.4845 35.0951 8.47777 35.1152 8.47777C35.1152 8.47777 35.1153 8.47777 35.122 8.47777C35.122 8.47777 35.122 8.47777 35.1287 8.47777C35.1287 8.47777 35.1287 8.47777 35.1354 8.47777C35.1354 8.47777 35.1354 8.47777 35.1422 8.47777C35.3037 8.47104 35.3777 8.61236 35.3239 8.75367C35.2768 8.90844 35.1287 9.02956 34.9807 9.06994L34.9268 9.0834C34.6509 9.11031 34.3818 9.14396 34.0991 9.18434C33.8232 9.22471 33.5406 9.27181 33.2647 9.32565C32.9821 9.37948 32.7062 9.43332 32.4236 9.50061C32.1409 9.5679 31.8583 9.63519 31.569 9.70921C31.5622 9.70921 31.5622 9.70921 31.5555 9.70921C31.5488 9.70921 31.5488 9.70921 31.5421 9.70921C31.5421 9.70921 31.5353 9.70921 31.5286 9.70921C31.5219 9.70921 31.5219 9.70921 31.5151 9.70921C31.495 9.71594 31.4748 9.72267 31.4546 9.72267C31.4344 9.7294 31.4142 9.73613 31.394 9.73613C31.3738 9.74286 31.3536 9.74958 31.3335 9.74958C31.3469 9.76304 31.3267 9.76977 31.3065 9.7765Z" fill="#FEFEFE"/>
<path d="M9.55727 32.8511C9.55054 32.8915 9.53709 32.9319 9.51018 32.9722C9.48999 33.0126 9.45634 33.053 9.42269 33.0934C9.38905 33.127 9.34867 33.1606 9.3083 33.1876C9.26792 33.2145 9.22755 33.2347 9.18044 33.2481C9.03913 33.2885 8.88436 33.2279 8.91128 33.0597C8.91801 33.0261 8.918 32.9924 8.92473 32.9655C8.92473 32.9453 8.93147 32.9251 8.93147 32.9049C8.93147 32.8847 8.93819 32.8646 8.93819 32.8444C8.93819 32.8242 8.94492 32.804 8.94492 32.7838C8.94492 32.7704 8.95165 32.7636 8.95165 32.7502C8.95165 32.7367 8.95838 32.73 8.95838 32.7165C8.95838 32.7031 8.9651 32.6963 8.9651 32.6829C8.9651 32.6694 8.97184 32.6627 8.97184 32.6492C8.97184 32.6425 8.97183 32.6358 8.97856 32.6223C8.97856 32.6156 8.97856 32.6089 8.98529 32.5954C8.98529 32.5887 8.9853 32.5819 8.99203 32.5685C8.99203 32.5617 8.99202 32.555 8.99875 32.5416C8.99875 32.5281 9.00549 32.5146 9.00549 32.4945C9.00549 32.481 9.01221 32.4675 9.01221 32.4474C9.01221 32.4339 9.01894 32.4204 9.01894 32.4002C9.01894 32.3868 9.02567 32.3733 9.02567 32.3531C9.02567 32.3464 9.02567 32.3464 9.02567 32.3397C9.02567 32.333 9.02567 32.333 9.02567 32.3262C9.02567 32.3195 9.02567 32.3195 9.02567 32.3128C9.02567 32.306 9.02567 32.306 9.02567 32.2993C9.02567 32.2859 9.0324 32.2724 9.0324 32.2522C9.0324 32.2387 9.03912 32.2186 9.03912 32.2051C9.03912 32.1916 9.04586 32.1782 9.04586 32.158C9.04586 32.1445 9.05259 32.1311 9.05259 32.1109C9.05259 32.1042 9.05259 32.1042 9.05259 32.0974C9.05259 32.0907 9.05259 32.0907 9.05259 32.084C9.05259 32.0772 9.05259 32.0773 9.05259 32.0705C9.05259 32.0638 9.05259 32.0638 9.05259 32.0571C9.05259 32.0436 9.05931 32.0301 9.05931 32.0167C9.05931 32.0032 9.06605 31.9898 9.06605 31.9763C9.06605 31.9629 9.07277 31.9494 9.07277 31.9359C9.07277 31.9225 9.07951 31.909 9.07951 31.8956C9.07951 31.8888 9.0795 31.8821 9.08623 31.8754C9.08623 31.8686 9.08623 31.8619 9.09296 31.8552C9.09296 31.8485 9.09297 31.8417 9.09969 31.835C9.09969 31.8283 9.09969 31.8215 9.10642 31.8148C9.10642 31.8014 9.11315 31.7879 9.11315 31.7812C9.11315 31.7677 9.11988 31.7542 9.11988 31.7475C9.11988 31.7341 9.12661 31.7206 9.12661 31.7139C9.12661 31.7004 9.13333 31.687 9.13333 31.6802C9.13333 31.6735 9.14007 31.6668 9.14007 31.6533C9.14007 31.6466 9.14679 31.6399 9.14679 31.6264C9.14679 31.6197 9.15352 31.6129 9.15352 31.5995C9.15352 31.5928 9.16025 31.5793 9.16025 31.5726C9.16025 31.5658 9.16698 31.5524 9.16698 31.5456C9.16698 31.5389 9.17372 31.5255 9.17372 31.5187C9.17372 31.512 9.18044 31.4985 9.18044 31.4918C9.18044 31.4851 9.18717 31.4716 9.18717 31.4649C9.18717 31.4514 9.1939 31.438 9.1939 31.4313C9.1939 31.4178 9.20063 31.4043 9.20063 31.3976C9.20063 31.3841 9.20735 31.3707 9.20735 31.364C9.20735 31.3505 9.21409 31.337 9.21409 31.3303C9.21409 31.3236 9.21409 31.3168 9.22081 31.3168C9.22081 31.3101 9.22081 31.3034 9.22754 31.3034C9.22754 31.2967 9.22755 31.2899 9.23428 31.2899C9.23428 31.2832 9.23427 31.2765 9.241 31.2765C9.28138 31.115 9.32175 30.9467 9.36886 30.7852C9.41596 30.6237 9.46307 30.4555 9.51018 30.294C9.55728 30.1325 9.6111 29.9643 9.65821 29.8028C9.71204 29.6413 9.76588 29.4731 9.81971 29.3116C9.81971 29.3048 9.82644 29.3048 9.82644 29.2981C9.82644 29.2914 9.82644 29.2846 9.83317 29.2846C9.83317 29.2779 9.8399 29.2779 9.8399 29.2712C9.8399 29.2645 9.84663 29.2645 9.84663 29.2577C9.86009 29.2241 9.88028 29.1972 9.90719 29.1702C9.92738 29.1433 9.9543 29.1164 9.98122 29.0895C10.0081 29.0693 10.035 29.0491 10.0687 29.0289C10.0956 29.0155 10.1293 29.002 10.1629 28.9886C10.1898 28.9818 10.21 28.9751 10.2369 28.9751C10.2773 28.9751 10.3109 28.9751 10.3446 28.9886C10.3715 29.002 10.3984 29.0222 10.4186 29.0424C10.4388 29.0693 10.4455 29.0962 10.4455 29.1299C10.4455 29.1635 10.4455 29.2039 10.4253 29.2443C10.3311 29.5202 10.2369 29.8028 10.1562 30.0787C10.0687 30.3546 9.99468 30.6372 9.92066 30.9131C9.84663 31.189 9.77934 31.4716 9.7255 31.7475C9.66494 32.0234 9.6111 32.2993 9.564 32.5752C9.564 32.5752 9.564 32.5752 9.564 32.5819C9.564 32.5819 9.564 32.5819 9.564 32.5887C9.564 32.5887 9.564 32.5887 9.564 32.5954C9.564 32.5954 9.564 32.5954 9.564 32.6021C9.564 32.6223 9.55727 32.6425 9.55727 32.6627C9.55727 32.6829 9.55055 32.7031 9.55055 32.7233C9.55055 32.7434 9.54381 32.7636 9.54381 32.7838C9.564 32.8107 9.564 32.8309 9.55727 32.8511Z" fill="#FEFEFE"/>
<path d="M38.4258 9.0568C38.3854 9.05007 38.3585 9.03661 38.3316 9.02315C38.3047 9.00296 38.2845 8.97605 38.2778 8.94913C38.2643 8.92222 38.2643 8.88184 38.271 8.8482C38.2777 8.80782 38.2912 8.76745 38.3114 8.72707C38.3316 8.69342 38.3518 8.6665 38.372 8.63959C38.3989 8.61267 38.4191 8.58575 38.4527 8.56557C38.4796 8.54538 38.5065 8.52519 38.5402 8.50501C38.5671 8.49155 38.6008 8.47809 38.6344 8.46463C38.6411 8.46463 38.6546 8.4579 38.6613 8.4579C38.668 8.4579 38.6815 8.4579 38.6882 8.45117C38.695 8.45117 38.7084 8.45117 38.7151 8.45117C38.7219 8.45117 38.7353 8.45117 38.7421 8.45117C39.8456 8.56557 40.9358 8.80109 41.9855 9.17119C41.9923 9.17119 41.9923 9.17792 41.999 9.17792C42.0057 9.17792 42.0057 9.18466 42.0124 9.18466C42.0192 9.18466 42.0192 9.19138 42.0259 9.19138C42.0326 9.19138 42.0326 9.19811 42.0394 9.19811C42.1605 9.29232 42.1066 9.46055 42.0326 9.56149L41.75 9.76337L41.5818 9.77009C41.3395 9.68261 41.0905 9.60186 40.8348 9.52784C40.5791 9.45382 40.3234 9.38653 40.061 9.32597C39.7985 9.2654 39.5361 9.21157 39.2669 9.17119C38.9776 9.12409 38.7017 9.09045 38.4258 9.0568C38.3854 9.0568 38.7017 9.09045 38.4258 9.0568Z" fill="#FEFEFE"/>
<path d="M9.34879 36.3298C9.36225 36.6057 9.38917 36.8748 9.41608 37.144C9.443 37.4132 9.48337 37.6756 9.53048 37.938C9.57758 38.2005 9.62468 38.4562 9.68525 38.7119C9.74581 38.9676 9.8131 39.2166 9.88712 39.4656C9.94096 39.6338 9.78618 39.8222 9.6516 39.903L9.5372 39.9568C9.51029 39.9635 9.48337 39.9703 9.45646 39.9703C9.42954 39.9703 9.40935 39.9703 9.38916 39.9635C9.36897 39.9568 9.34879 39.9501 9.3286 39.9366C9.30841 39.9232 9.29496 39.9097 9.28823 39.8895C9.2815 39.876 9.27477 39.8626 9.26804 39.8491C9.20748 39.654 9.15364 39.4521 9.09981 39.2435C9.04598 39.0416 8.99887 38.833 8.95849 38.6244C8.91812 38.4158 8.87774 38.2072 8.85082 37.9919C8.81718 37.7765 8.79026 37.5612 8.77008 37.3459C8.77008 37.3391 8.77008 37.3391 8.77008 37.3324C8.77008 37.3257 8.77008 37.3257 8.77008 37.319C8.77008 37.3122 8.77008 37.3122 8.77008 37.3055C8.77008 37.2988 8.77008 37.2988 8.77008 37.292C8.77008 37.2853 8.77008 37.2786 8.77008 37.2651C8.77008 37.2584 8.77008 37.2517 8.77008 37.2382C8.77008 37.2315 8.77008 37.2248 8.77008 37.2113C8.77008 37.2046 8.77008 37.1978 8.77008 37.1844C8.76335 37.1373 8.76335 37.0834 8.75662 37.0363C8.74989 36.9892 8.74989 36.9354 8.74317 36.8883C8.74317 36.8412 8.73643 36.7874 8.73643 36.7403C8.73643 36.6932 8.7297 36.6393 8.7297 36.5922C8.72297 36.4105 8.87774 36.2356 9.03924 36.1683C9.04597 36.1683 9.04597 36.1615 9.0527 36.1615C9.05943 36.1615 9.05943 36.1548 9.06616 36.1548C9.07289 36.1548 9.07289 36.1548 9.07962 36.1481C9.08635 36.1481 9.08635 36.1481 9.09308 36.1414C9.12672 36.1346 9.16037 36.1279 9.19402 36.1346C9.22766 36.1346 9.25458 36.1481 9.27477 36.1615C9.30168 36.175 9.32187 36.1952 9.33533 36.2221C9.33533 36.2625 9.34206 36.2961 9.34879 36.3298C9.36225 36.5989 9.34206 36.2961 9.34879 36.3298Z" fill="#FEFEFE"/>
<path d="M46.3259 13.2087C46.1778 13.0136 46.023 12.8252 45.8615 12.6368C45.7 12.4551 45.5318 12.2734 45.3568 12.1052C45.1819 11.9369 45.0002 11.7687 44.8118 11.6139C44.6234 11.4592 44.4282 11.3044 44.2264 11.1631C44.0783 11.0554 44.186 10.8401 44.2802 10.7459C44.3004 10.7257 44.3206 10.7055 44.3407 10.692C44.3609 10.6786 44.3811 10.6584 44.4013 10.6449C44.4215 10.6315 44.4417 10.618 44.4619 10.6113C44.4821 10.6046 44.5022 10.5911 44.5224 10.5911C44.5359 10.5844 44.5494 10.5844 44.5628 10.5844C44.5763 10.5844 44.5897 10.5844 44.6032 10.5776C44.6166 10.5776 44.6301 10.5776 44.6436 10.5776C44.657 10.5776 44.6705 10.5844 44.6772 10.5844C44.6974 10.5911 44.7176 10.5978 44.731 10.6046C44.9396 10.7526 45.1415 10.9074 45.3367 11.0689C45.5318 11.2304 45.7202 11.4053 45.9019 11.5803C46.0836 11.7552 46.2586 11.9369 46.4268 12.1253C46.595 12.3138 46.7565 12.5089 46.9046 12.7041C46.9113 12.7108 46.9113 12.7108 46.918 12.7175C46.918 12.7242 46.9247 12.731 46.9247 12.731C46.9247 12.7377 46.9315 12.7444 46.9315 12.7444C46.9315 12.7512 46.9382 12.7579 46.9382 12.7646C46.9719 12.9059 46.8709 13.054 46.77 13.1415L46.5748 13.2491L46.3259 13.2087Z" fill="#FEFEFE"/>
<path d="M11.1598 42.164C11.6914 42.9917 12.3643 43.7185 13.118 44.351C13.2458 44.4722 13.1449 44.6808 13.0507 44.7817L12.8084 44.9297L12.6133 44.9028H12.5931C12.3979 44.7413 12.2095 44.5731 12.0278 44.3981C11.8461 44.2232 11.6712 44.0415 11.503 43.8531C11.3347 43.6647 11.1732 43.4695 11.0185 43.2744C10.8637 43.0725 10.7156 42.8706 10.5811 42.6553C10.5811 42.6485 10.5743 42.6485 10.5743 42.6418C10.5743 42.6351 10.5676 42.6351 10.5676 42.6284C10.5676 42.6216 10.5609 42.6149 10.5609 42.6149C10.5609 42.6082 10.5609 42.6014 10.5541 42.6014C10.5205 42.4601 10.6282 42.3054 10.7291 42.2179C10.7426 42.2044 10.7627 42.191 10.7762 42.1842C10.7897 42.1708 10.8099 42.164 10.8233 42.1573C10.8368 42.1506 10.8569 42.1439 10.8704 42.1371C10.8839 42.1304 10.9041 42.1237 10.9175 42.1237C10.9983 42.0833 11.0992 42.09 11.1598 42.164C11.2944 42.3727 11.1463 42.1506 11.1598 42.164Z" fill="#FEFEFE"/>
<path d="M48.7482 19.083C48.7145 19.0897 48.6876 19.0965 48.6539 19.0965C48.627 19.0965 48.6001 19.0897 48.5732 19.0763C48.5463 19.0628 48.5261 19.0494 48.5059 19.0359C48.4857 19.0157 48.4723 18.9955 48.4655 18.9686C48.4655 18.9552 48.4588 18.9484 48.4588 18.935C48.4453 18.7667 48.4252 18.6052 48.3982 18.4437C48.378 18.2822 48.3511 18.1207 48.3242 17.9592C48.2973 17.7977 48.2636 17.643 48.23 17.4815C48.1964 17.32 48.1627 17.1652 48.1223 17.0172C48.0954 16.9162 48.0685 16.8153 48.0416 16.7143C48.0147 16.6134 47.9878 16.5125 47.9541 16.4183C47.9272 16.3173 47.8935 16.2231 47.8599 16.1222C47.8263 16.028 47.7926 15.927 47.759 15.8328C47.6917 15.6646 47.8397 15.4829 47.9743 15.4021C47.9878 15.3954 47.9945 15.3887 48.0079 15.382C48.0214 15.3752 48.0281 15.3685 48.0416 15.3685C48.055 15.3618 48.0618 15.3618 48.0752 15.355C48.0887 15.3483 48.0954 15.3483 48.1089 15.3416C48.1358 15.3349 48.1627 15.3281 48.1896 15.3281C48.2165 15.3281 48.2367 15.3281 48.2569 15.3349C48.2771 15.3416 48.2973 15.3483 48.3175 15.355C48.3377 15.3685 48.3511 15.382 48.3646 15.3954C48.3646 15.3954 48.3713 15.4021 48.3713 15.4089C48.3713 15.4156 48.378 15.4156 48.378 15.4223C48.378 15.4291 48.3848 15.4291 48.3848 15.4358C48.3848 15.4425 48.3915 15.4425 48.3915 15.4493C48.4857 15.6915 48.5732 15.9472 48.6472 16.2029C48.7212 16.4586 48.7953 16.7211 48.8558 16.9902C48.9164 17.2594 48.9702 17.5286 49.0173 17.8045C49.0644 18.0804 49.0981 18.363 49.1317 18.6456C49.1317 18.6523 49.1317 18.6523 49.1317 18.6591C49.1317 18.6658 49.1317 18.6658 49.1317 18.6725C49.1317 18.6793 49.1317 18.686 49.1317 18.686C49.1317 18.6927 49.1317 18.6994 49.1317 18.6994C49.1115 18.8609 48.9702 19.0023 48.8289 19.0695L48.7482 19.083Z" fill="#FEFEFE"/>
<path d="M49.065 22.1988C49.065 22.2055 49.065 22.2055 49.065 22.2122C49.0582 22.2593 49.0515 22.3132 49.0448 22.3603C49.0448 22.3804 49.038 22.4006 49.038 22.4208C49.038 22.441 49.0313 22.4612 49.0313 22.4814C49.0313 22.5016 49.0246 22.5218 49.0246 22.542V22.5487C49.0246 22.5554 49.0246 22.5554 49.0246 22.5621C49.0246 22.5689 49.0246 22.5689 49.0246 22.5756C49.0246 22.5756 49.0246 22.5823 49.0246 22.5891C49.0246 22.6025 49.0178 22.6227 49.0178 22.6362C49.0178 22.6496 49.0111 22.6698 49.0111 22.6833C49.0111 22.6967 49.0044 22.7169 49.0044 22.7304C49.0044 22.7438 48.9977 22.764 48.9977 22.7775C48.9977 22.7909 48.9977 22.7977 48.9909 22.8111C48.9909 22.8246 48.9909 22.8313 48.9842 22.8448C48.9842 22.8582 48.9842 22.865 48.9775 22.8784C48.9775 22.8919 48.9775 22.8986 48.9707 22.9121C48.9707 22.9188 48.9707 22.9322 48.964 22.939C48.964 22.9457 48.964 22.9592 48.9573 22.9659C48.9573 22.9726 48.9573 22.9861 48.9506 22.9928C48.9506 22.9995 48.9506 23.013 48.9438 23.0197C48.9438 23.0332 48.9371 23.0466 48.9371 23.0534C48.9371 23.0668 48.9304 23.0803 48.9304 23.087C48.9304 23.1005 48.9236 23.1139 48.9236 23.1207C48.9236 23.1341 48.9169 23.1476 48.9169 23.1543C48.9169 23.161 48.9169 23.1678 48.9102 23.1745C48.9102 23.1812 48.9102 23.188 48.9102 23.1947C48.9102 23.2014 48.9102 23.2081 48.9035 23.2149C48.9035 23.2216 48.9035 23.2283 48.8967 23.2351C48.8967 23.2485 48.89 23.262 48.89 23.2754C48.89 23.2889 48.8833 23.3024 48.8833 23.3158C48.8833 23.3293 48.8765 23.3427 48.8765 23.3562C48.8765 23.3696 48.8698 23.3831 48.8698 23.3966C48.8698 23.4033 48.8698 23.41 48.8631 23.4167C48.8631 23.4235 48.8631 23.4302 48.8631 23.4369C48.8631 23.4437 48.8631 23.4504 48.8563 23.4571C48.8563 23.4638 48.8563 23.4706 48.8563 23.4773C48.8563 23.4908 48.8496 23.5042 48.8496 23.5177C48.8496 23.5311 48.8429 23.5446 48.8429 23.5581C48.8429 23.5715 48.8362 23.585 48.8362 23.5984C48.8362 23.6119 48.8294 23.6253 48.8294 23.6388C48.8294 23.6455 48.8294 23.6523 48.8227 23.659C48.8227 23.6657 48.8227 23.6725 48.816 23.6792C48.816 23.6859 48.816 23.6926 48.8092 23.6994C48.8092 23.7061 48.8092 23.7128 48.8025 23.7196C48.8025 23.733 48.7958 23.7465 48.7958 23.7599C48.7958 23.7734 48.7891 23.7869 48.7891 23.8003C48.7891 23.8138 48.7823 23.8272 48.7823 23.8407C48.7823 23.8541 48.7756 23.8676 48.7756 23.8811C48.7756 23.8878 48.7756 23.8945 48.7689 23.908C48.7689 23.9147 48.7689 23.9214 48.7621 23.9349C48.7621 23.9416 48.7621 23.9484 48.7554 23.9618C48.7554 23.9685 48.7554 23.9753 48.7487 23.9887C48.7487 24.0022 48.7419 24.0156 48.7419 24.0224C48.7419 24.0358 48.7352 24.0493 48.7352 24.056C48.7352 24.0695 48.7285 24.0829 48.7285 24.0897C48.7285 24.1031 48.7218 24.1166 48.7218 24.1233C48.7218 24.13 48.715 24.1368 48.715 24.1502C48.715 24.157 48.715 24.1637 48.7083 24.1771C48.7083 24.1839 48.7016 24.1973 48.7016 24.2041C48.7016 24.2108 48.6949 24.2242 48.6949 24.231C48.6949 24.2444 48.6881 24.2512 48.6881 24.2646C48.6881 24.2781 48.6814 24.2848 48.6814 24.2983C48.6814 24.3117 48.6747 24.3185 48.6747 24.3319C48.6747 24.3454 48.6679 24.3521 48.6679 24.3656C48.6679 24.379 48.6612 24.3857 48.6612 24.3992C48.6612 24.4127 48.6545 24.4194 48.6545 24.4328C48.6545 24.4463 48.6477 24.453 48.6477 24.4665C48.6477 24.4732 48.641 24.4867 48.641 24.4934C48.641 24.5001 48.6343 24.5136 48.6343 24.5203C48.6343 24.5271 48.6276 24.5338 48.6276 24.5472C48.6276 24.554 48.6208 24.5607 48.6208 24.5742C48.6208 24.5809 48.6141 24.5944 48.6141 24.6011C48.6141 24.6145 48.6074 24.628 48.6074 24.6415C48.6074 24.6549 48.6006 24.6684 48.6006 24.6818C48.6006 24.6953 48.5939 24.7087 48.5939 24.7222C48.5939 24.7357 48.5872 24.7491 48.5872 24.7626C48.5872 24.7693 48.5872 24.776 48.5805 24.7828C48.5805 24.7895 48.5804 24.7962 48.5737 24.803C48.5737 24.8097 48.5737 24.8164 48.567 24.8231C48.567 24.8299 48.567 24.8366 48.5603 24.8433C48.5535 24.8568 48.5535 24.8702 48.5468 24.8904C48.5401 24.9039 48.5401 24.9241 48.5333 24.9375C48.5266 24.951 48.5266 24.9712 48.5199 24.9846C48.5132 24.9981 48.5132 25.0183 48.5064 25.0317C48.5064 25.0317 48.5064 25.0385 48.5064 25.0452C48.5064 25.0519 48.5064 25.0519 48.5064 25.0587C48.5064 25.0654 48.5064 25.0654 48.5064 25.0721C48.5064 25.0721 48.5064 25.0789 48.5064 25.0856C48.4997 25.1058 48.4997 25.1192 48.493 25.1394C48.4862 25.1596 48.4862 25.1731 48.4795 25.1933C48.4728 25.2134 48.4728 25.2269 48.4661 25.2471C48.4593 25.2673 48.4593 25.2807 48.4526 25.3009C48.4526 25.3009 48.4526 25.3009 48.4526 25.3076C48.4526 25.3076 48.4526 25.3076 48.4526 25.3144C48.4526 25.3144 48.4526 25.3144 48.4526 25.3211C48.4526 25.3211 48.4526 25.3211 48.4526 25.3278C48.3718 25.6105 48.2844 25.8931 48.1969 26.1757C48.1969 26.1757 48.1969 26.1757 48.1969 26.1824C48.1969 26.1824 48.1969 26.1824 48.1969 26.1892C48.1969 26.1892 48.1969 26.1892 48.1969 26.1959C48.1969 26.1959 48.1969 26.1959 48.1969 26.2026C48.1431 26.3507 48.0017 26.4718 47.8537 26.5122L47.7931 26.5256C47.746 26.5324 47.7057 26.5256 47.672 26.5122C47.6384 26.4987 47.6115 26.4785 47.5913 26.4516C47.5711 26.4247 47.5643 26.391 47.5576 26.3574C47.5576 26.317 47.5576 26.2766 47.5711 26.2363V26.2295V26.2228V26.2161V26.2094C47.6586 25.9402 47.7393 25.671 47.8133 25.4019C47.8874 25.1327 47.9614 24.8635 48.0219 24.5944C48.0825 24.3252 48.1431 24.056 48.1969 23.7936C48.2507 23.5244 48.2978 23.262 48.3382 22.9995C48.3382 22.9793 48.3449 22.9592 48.3449 22.9457C48.3449 22.9255 48.3517 22.9053 48.3517 22.8919C48.3517 22.8717 48.3584 22.8582 48.3584 22.838C48.3584 22.8178 48.3651 22.8044 48.3651 22.7842C48.3786 22.7102 48.3853 22.6294 48.3988 22.5554C48.4055 22.4881 48.419 22.4074 48.4526 22.3468C48.4728 22.3064 48.4997 22.2661 48.5333 22.2324C48.567 22.1988 48.6006 22.1651 48.641 22.1449C48.6814 22.118 48.7218 22.0978 48.7689 22.0911C48.816 22.0776 48.8564 22.0776 48.8967 22.0776C48.9371 22.0844 48.964 22.0911 48.9909 22.1113C49.0179 22.1315 49.038 22.1517 49.0515 22.1853C49.0582 22.1247 49.065 22.1584 49.065 22.1988Z" fill="#FEFEFE"/>
<path d="M26.044 46.269C26.0912 46.2555 26.1315 46.2555 26.1652 46.2622C26.2056 46.269 26.2392 46.2824 26.2661 46.3026C26.293 46.3228 26.3132 46.3497 26.3267 46.3834C26.3401 46.417 26.3469 46.4574 26.3401 46.4978C26.3132 46.6794 26.1517 46.8477 25.9835 46.8948L25.9566 46.9015C25.7345 46.9553 25.5057 47.0159 25.2836 47.063C25.075 47.1101 24.8664 47.1572 24.6578 47.1976C24.4492 47.238 24.2406 47.2783 24.032 47.312C23.8234 47.3456 23.6148 47.3793 23.4062 47.4062H23.3995H23.3928H23.386H23.3793C23.3658 47.4062 23.3456 47.4129 23.3322 47.4129C23.3187 47.4129 23.2985 47.4197 23.2851 47.4197C23.2716 47.4197 23.2514 47.4264 23.238 47.4264C23.2245 47.4264 23.2043 47.4331 23.1909 47.4331C23.1841 47.4331 23.1707 47.4331 23.164 47.4331C23.1572 47.4331 23.1438 47.4331 23.137 47.4331C23.1303 47.4331 23.1169 47.4331 23.1101 47.4331C23.1034 47.4331 23.0899 47.4331 23.0832 47.4331C23.0765 47.4331 23.063 47.4331 23.0563 47.4331C23.0496 47.4331 23.0428 47.4331 23.0294 47.4331C23.0227 47.4331 23.0092 47.4331 23.0025 47.4331C22.9957 47.4331 22.989 47.4331 22.9755 47.4331C22.9621 47.4331 22.9419 47.4398 22.9284 47.4398C22.915 47.4398 22.8948 47.4466 22.8813 47.4466C22.8679 47.4466 22.8477 47.4533 22.8342 47.4533C22.8208 47.4533 22.8006 47.46 22.7871 47.46C22.7266 47.4668 22.666 47.4735 22.6054 47.4802C22.5449 47.4869 22.4843 47.4937 22.4237 47.4937C22.3632 47.5004 22.3094 47.5004 22.2488 47.5071C22.1882 47.5139 22.1344 47.5139 22.0738 47.5206C22.0335 47.5206 21.9931 47.5139 21.9662 47.5004C21.9325 47.4869 21.9123 47.4668 21.8921 47.4331C21.872 47.4062 21.8652 47.3725 21.8652 47.3322C21.8652 47.2918 21.872 47.2514 21.8854 47.2111C21.8989 47.1707 21.9191 47.137 21.9392 47.0967C21.9594 47.063 21.9931 47.0294 22.02 46.9957C22.0536 46.9688 22.0873 46.9419 22.1209 46.9217C22.1546 46.9015 22.195 46.8881 22.2286 46.8746C22.2286 46.8746 22.2286 46.8746 22.2353 46.8746H22.2421C22.2421 46.8746 22.2421 46.8746 22.2488 46.8746H22.2555H22.2623H22.269H22.2757H22.2824C22.5651 46.8544 22.8544 46.8275 23.1438 46.7938C23.4331 46.7602 23.7225 46.7198 24.0186 46.6727C24.3147 46.6256 24.6107 46.5718 24.9068 46.5112C25.2029 46.4506 25.499 46.3834 25.8018 46.3161C25.822 46.3093 25.8422 46.3093 25.8624 46.3026C25.8825 46.2959 25.9027 46.2891 25.9229 46.2891C25.9431 46.2824 25.9633 46.2757 25.9835 46.2757C26.0037 46.2824 26.0239 46.2757 26.044 46.269Z" fill="#FEFEFE"/>
<path d="M45.2094 31.3502C45.1892 31.3906 45.169 31.4242 45.1488 31.4578C45.1286 31.4915 45.1085 31.5251 45.0883 31.5588C45.0681 31.5924 45.0479 31.6193 45.0344 31.653C45.0143 31.6866 45.0008 31.7136 44.9806 31.7405C44.2269 32.9786 43.3723 34.1832 42.4302 35.3406C41.4882 36.498 40.4586 37.6016 39.3617 38.6379C38.2649 39.6742 37.094 40.6432 35.876 41.5314C34.658 42.413 33.3862 43.2137 32.074 43.9068C32.0471 43.9203 32.0202 43.9337 32 43.9472C31.9731 43.9607 31.9529 43.9741 31.9327 43.9809C31.9125 43.9943 31.8924 44.001 31.8722 44.0145C31.852 44.0212 31.8385 44.0347 31.8183 44.0414C31.7914 44.0549 31.7645 44.0683 31.7443 44.0818C31.7174 44.0952 31.6972 44.1087 31.6703 44.1222C31.6434 44.1356 31.6232 44.1491 31.5963 44.1625C31.5693 44.176 31.5424 44.1895 31.5222 44.2029C31.5088 44.2096 31.4953 44.2164 31.4819 44.2231C31.4684 44.2298 31.455 44.2366 31.4415 44.2433C31.428 44.25 31.4146 44.2567 31.4011 44.2635C31.3877 44.2702 31.3742 44.2769 31.3607 44.2837C31.3338 44.2971 31.3069 44.3106 31.2867 44.324C31.2598 44.3375 31.2396 44.351 31.2127 44.3577C31.1858 44.3711 31.1656 44.3846 31.1387 44.3913C31.1118 44.4048 31.0849 44.4183 31.0647 44.425C30.6542 44.6201 30.2504 44.8085 29.8332 44.9835C29.4227 45.1585 29.0055 45.3267 28.5883 45.4815C28.1711 45.6362 27.7539 45.7775 27.33 45.9121C26.9128 46.0467 26.4888 46.1611 26.0649 46.2688C26.0447 46.2755 26.0245 46.2822 26.0043 46.2822C25.9841 46.289 25.9639 46.2957 25.9438 46.2957C25.9236 46.3024 25.9034 46.3091 25.8832 46.3091C25.863 46.3159 25.8428 46.3159 25.8226 46.3226C25.5265 46.3966 25.2237 46.4639 24.9276 46.5178C24.6316 46.5783 24.3355 46.6321 24.0394 46.6792C23.7433 46.7264 23.454 46.7667 23.1646 46.8004C22.8752 46.834 22.5859 46.8609 22.3033 46.8811C20.1163 47.0224 18.1312 46.7667 16.4152 46.1611C14.706 45.5555 13.2525 44.5999 12.1153 43.355C10.9848 42.1169 10.1773 40.5826 9.73315 38.8128C9.29576 37.0498 9.22174 35.0445 9.57166 32.8508C9.57166 32.8306 9.57839 32.8104 9.57839 32.7902C9.57839 32.77 9.58512 32.7498 9.58512 32.7297C9.58512 32.7095 9.59185 32.6893 9.59185 32.6691C9.59185 32.6489 9.59857 32.6287 9.59857 32.6085C9.94849 30.5898 10.6349 28.5576 11.577 26.5926C12.5258 24.6277 13.737 22.7166 15.1569 20.9199C16.5767 19.13 18.1985 17.4544 19.9682 15.9538C21.738 14.4532 23.6626 13.1343 25.6746 12.0576C25.7823 11.9971 25.8899 11.9432 26.0043 11.8827C26.112 11.8288 26.2197 11.7683 26.3341 11.7144C26.4417 11.6606 26.5561 11.6068 26.6638 11.5529C26.7714 11.4991 26.8858 11.4453 26.9935 11.3914C27.0272 11.3712 27.0675 11.3578 27.0944 11.3443C27.1281 11.3309 27.155 11.3174 27.1819 11.304C27.2088 11.2905 27.2358 11.277 27.2559 11.2703C27.2829 11.2568 27.303 11.2501 27.33 11.2367C27.653 11.0886 27.9827 10.9473 28.3124 10.806C28.6422 10.6714 28.9719 10.5368 29.3016 10.4157C29.6313 10.2946 29.9678 10.1802 30.3043 10.0658C30.6407 9.95812 30.9772 9.85718 31.3136 9.76297C31.3338 9.75624 31.354 9.74951 31.3742 9.74951C31.3944 9.74278 31.4146 9.73605 31.4348 9.73605C31.4549 9.72932 31.4751 9.72259 31.4953 9.72259C31.5155 9.71586 31.5357 9.70914 31.5559 9.70914C33.6487 9.15061 35.6271 8.92855 37.4372 9.00257C39.2541 9.07659 40.9094 9.45343 42.3495 10.0927C43.7963 10.7387 45.0344 11.6606 46.0169 12.818C46.9994 13.9822 47.7261 15.3886 48.1433 17.0036C48.1837 17.1583 48.2173 17.3131 48.251 17.4679C48.2846 17.6227 48.3116 17.7842 48.3452 17.9457C48.3721 18.1072 48.399 18.2687 48.4192 18.4302C48.4394 18.5917 48.4596 18.7599 48.4798 18.9214C48.5067 19.204 48.5269 19.4934 48.5403 19.776C48.5538 20.0653 48.5538 20.3547 48.5538 20.6508C48.5471 20.9469 48.5336 21.2429 48.5134 21.5458C48.4932 21.8486 48.4596 22.1514 48.4192 22.4677C48.4192 22.4878 48.4125 22.508 48.4125 22.5282C48.4125 22.5484 48.4058 22.5686 48.4058 22.5888C48.4058 22.609 48.399 22.6292 48.399 22.6493C48.399 22.6695 48.3923 22.6897 48.3923 22.7099C48.3923 22.7301 48.3856 22.7436 48.3856 22.7637C48.3856 22.7839 48.3788 22.7974 48.3788 22.8176C48.3788 22.8378 48.3721 22.8512 48.3721 22.8714C48.3721 22.8916 48.3654 22.9051 48.3654 22.9252C48.325 23.1877 48.2779 23.4569 48.2241 23.7193C48.1702 23.9885 48.1097 24.2509 48.0491 24.5201C47.9885 24.7892 47.9145 25.0584 47.8405 25.3276C47.7665 25.5967 47.6857 25.8659 47.5983 26.1351C47.4973 26.4513 47.3897 26.7676 47.2685 27.0839C47.1541 27.4002 47.0263 27.7164 46.8984 28.026C46.7706 28.3422 46.6292 28.6518 46.4812 28.9681C46.3332 29.2776 46.1851 29.5939 46.0236 29.9034C45.9563 30.0313 45.889 30.1591 45.8285 30.2802C45.7612 30.4014 45.7006 30.5225 45.6333 30.6436C45.566 30.7647 45.4988 30.8791 45.4382 31.0003C45.344 31.1147 45.2767 31.2291 45.2094 31.3502C45.1825 31.3838 45.2767 31.2291 45.2094 31.3502Z" fill="#ED0E1C"/>
<path d="M35.7746 42.2383C35.4314 42.4805 35.0882 42.716 34.7383 42.9448L35.7746 42.2383Z" fill="#6D1627"/>
<path d="M41.0975 36.9895C41.1177 36.9828 41.1379 36.9828 41.1581 36.9761C41.1783 36.9761 41.1985 36.9761 41.2187 36.9761C41.2389 36.9761 41.2523 36.9828 41.2725 36.9895C41.286 36.9963 41.3062 37.003 41.3196 37.0164C41.3465 37.0366 41.36 37.0568 41.3734 37.0837C41.3869 37.1107 41.3936 37.1443 41.3936 37.178C41.3936 37.2116 41.3869 37.2452 41.3734 37.2789C41.36 37.3125 41.3465 37.3529 41.3196 37.3866C41.3129 37.3933 41.3129 37.4 41.3062 37.4067C41.2994 37.4135 41.2994 37.4202 41.2927 37.4269C41.286 37.4337 41.286 37.4404 41.2792 37.4471C41.2725 37.4538 41.2658 37.4606 41.2591 37.4673C40.1824 38.6113 39.0317 39.6879 37.8204 40.6906L37.7801 40.7108L37.6253 40.7848L37.3696 40.7175C37.3494 40.6906 37.3427 40.6502 37.3359 40.6166C37.3359 40.5762 37.3427 40.5358 37.3561 40.4954C37.3696 40.4551 37.3898 40.4147 37.4167 40.3743C37.4436 40.3339 37.4772 40.2936 37.5244 40.2599C37.8204 40.0177 38.1098 39.7754 38.3924 39.5264C38.675 39.2775 38.9577 39.0218 39.2403 38.7593C39.5162 38.4969 39.7921 38.2344 40.0613 37.9653C40.3304 37.6961 40.5929 37.4202 40.8553 37.1443C40.8755 37.1241 40.8957 37.1039 40.9159 37.0905C40.9361 37.077 40.9562 37.0568 40.9764 37.0501C40.9966 37.0366 41.0168 37.0232 41.037 37.0164C41.0504 37.003 41.0774 36.9963 41.0975 36.9895Z" fill="#FEFEFE"/>
<path d="M27.4981 10.6178C27.4914 10.6178 27.4846 10.6178 27.4846 10.6246C27.4779 10.6246 27.4712 10.6313 27.4712 10.6313C27.4644 10.6313 27.4577 10.638 27.4577 10.638C27.451 10.638 27.4443 10.6447 27.4375 10.6447C26.556 11.0418 25.6947 11.4859 24.8535 11.9637C26.8925 10.7995 29.066 9.8507 31.3337 9.21143C31.2866 9.22488 31.2462 9.24507 31.2126 9.27199C31.179 9.2989 31.1453 9.32582 31.1184 9.35946C31.0915 9.39311 31.0713 9.42676 31.0511 9.46713C31.0309 9.50751 31.0242 9.54115 31.0174 9.58153C30.9905 9.75649 31.1789 9.81705 31.3135 9.78341C29.9475 10.167 28.6219 10.6649 27.3299 11.2504C27.3433 11.2436 27.3568 11.2369 27.3635 11.2302C27.377 11.2235 27.3904 11.2167 27.3971 11.21C27.4106 11.2033 27.4241 11.1965 27.4308 11.1898C27.4443 11.1831 27.4577 11.1763 27.4644 11.1696C27.5115 11.1494 27.5519 11.1225 27.5856 11.0956C27.6259 11.0619 27.6529 11.0283 27.6865 10.9879C27.7134 10.9476 27.7336 10.9072 27.7471 10.8735C27.7605 10.8332 27.7673 10.7928 27.7673 10.7591C27.7673 10.7255 27.7538 10.6986 27.7403 10.6784C27.7269 10.6582 27.7067 10.638 27.6798 10.6246C27.6529 10.6111 27.6259 10.6044 27.5923 10.6044C27.5721 10.6044 27.5385 10.6111 27.4981 10.6178Z" fill="#A2000C"/>
<path d="M10.2034 29.0019C10.1697 29.0086 10.1428 29.0221 10.1092 29.0423C10.0823 29.0557 10.0486 29.0759 10.0217 29.1028C9.99478 29.123 9.96786 29.1499 9.94768 29.1836C9.92749 29.2105 9.9073 29.2442 9.88712 29.2711C10.3245 28.0127 10.8696 26.7947 11.4887 25.6171C11.4483 25.7315 11.4887 25.8728 11.6232 25.893L11.7444 25.8796C11.879 25.8459 11.9934 25.745 12.0539 25.6239C12.7134 24.3857 13.4603 23.1946 14.2813 22.0641C14.3553 21.9632 14.4293 21.7478 14.2678 21.6806C14.214 21.6604 14.1534 21.6604 14.0996 21.6806C14.0794 21.6873 14.0592 21.694 14.0457 21.7007C14.0256 21.7075 14.0054 21.7209 13.9919 21.7277C13.9717 21.7411 13.9583 21.7478 13.9381 21.7613C13.9179 21.7748 13.9044 21.7882 13.891 21.8017C14.7321 20.651 15.6406 19.5541 16.6163 18.5111C16.5557 18.5986 16.5019 18.7668 16.6163 18.8476L16.8249 18.8678L17.0604 18.7197C18.0563 17.6565 19.133 16.6606 20.2568 15.732C20.3577 15.6445 20.5058 15.4426 20.3981 15.3013C20.3846 15.2811 20.3712 15.2676 20.351 15.2609C20.3308 15.2475 20.3173 15.2407 20.2972 15.2407C20.277 15.234 20.2568 15.234 20.2299 15.234C20.2097 15.234 20.1828 15.2407 20.1558 15.2475C20.1491 15.2475 20.1357 15.2542 20.1289 15.2542C20.1222 15.2609 20.1087 15.2609 20.102 15.2676C20.0953 15.2744 20.0818 15.2744 20.0751 15.2811C20.0684 15.2878 20.0549 15.2946 20.0482 15.2946C21.1719 14.3659 22.3496 13.5113 23.581 12.7307C23.4666 12.8115 23.332 12.9797 23.3858 13.1345C23.4195 13.2489 23.5541 13.2691 23.6483 13.2422L23.7627 13.1816C24.3885 12.7913 25.0278 12.4212 25.6805 12.0713C18.0294 16.1761 11.1253 23.8541 9.60449 32.6087C9.79964 31.4782 10.089 30.3612 10.4726 29.2778C10.486 29.2374 10.4927 29.197 10.4927 29.1634C10.4927 29.1298 10.4793 29.0961 10.4658 29.0759C10.4456 29.049 10.4255 29.0288 10.3918 29.0221C10.3649 29.0086 10.3245 29.0086 10.2841 29.0086C10.2505 28.9952 10.2236 28.9952 10.2034 29.0019Z" fill="#6D1627"/>
<path d="M48.1296 17.004C47.3154 13.8278 45.1217 11.2573 42.0936 9.98546C38.9107 8.64635 35.2836 8.78094 31.9863 9.6019C32.9621 9.35965 33.9513 9.17796 34.9539 9.07702L35.0077 9.06357C35.1558 9.02319 35.3038 8.89534 35.3509 8.74729C35.398 8.60598 35.3307 8.46467 35.1692 8.47139C36.3536 8.35027 37.5581 8.33681 38.7424 8.46467C38.702 8.45794 38.6684 8.46467 38.6348 8.47813C38.6011 8.48485 38.5742 8.49831 38.5406 8.5185C38.5069 8.53196 38.48 8.55215 38.4531 8.57906C38.4262 8.59925 38.3992 8.62617 38.3723 8.65309C38.3454 8.68 38.3252 8.71365 38.3118 8.74056C38.2916 8.78094 38.2781 8.82131 38.2714 8.86169C38.2647 8.90206 38.2714 8.93571 38.2781 8.96263C38.2916 8.98954 38.305 9.01646 38.3319 9.03665C38.3589 9.05684 38.3858 9.07029 38.4261 9.07029C38.702 9.09721 38.9712 9.13759 39.2404 9.18469C39.5096 9.2318 39.772 9.2789 40.0344 9.33946C40.2969 9.40002 40.5526 9.46732 40.8083 9.54134C41.064 9.61536 41.313 9.69611 41.5552 9.78359L41.7235 9.77686L42.0061 9.57498C42.0801 9.47404 42.1407 9.30582 42.0128 9.21161C42.9549 9.5548 43.8566 10.0191 44.6776 10.6045C44.6237 10.5911 44.5699 10.5978 44.5228 10.6113C44.5026 10.618 44.4824 10.6247 44.4622 10.6315C44.442 10.6382 44.4219 10.6517 44.4017 10.6651C44.3815 10.6786 44.3613 10.692 44.3411 10.7122C44.3209 10.7257 44.3007 10.7459 44.2805 10.766C44.1863 10.8603 44.0787 11.0756 44.2267 11.1833C44.4286 11.3246 44.6237 11.4793 44.8121 11.6341C45.0006 11.7889 45.1822 11.9571 45.3572 12.1253C45.5322 12.2936 45.7004 12.4753 45.8619 12.6569C46.0234 12.8386 46.1782 13.0338 46.3262 13.2289L46.5819 13.2828L46.7771 13.1751C46.878 13.0876 46.9789 12.9396 46.9453 12.7983C47.5442 13.5923 48.022 14.4738 48.3719 15.3957C48.3113 15.3217 48.2037 15.315 48.1162 15.3419C48.1027 15.3419 48.096 15.3486 48.0825 15.3553C48.0691 15.3621 48.0623 15.3621 48.0489 15.3688C48.0354 15.3755 48.0287 15.3823 48.0152 15.3823C48.0018 15.3823 47.9951 15.3957 47.9816 15.4025C47.8537 15.4832 47.699 15.6716 47.7663 15.8331C47.7999 15.9273 47.8336 16.0215 47.8672 16.1225C47.9008 16.2167 47.9345 16.3176 47.9614 16.4186C47.9883 16.5195 48.022 16.6137 48.0489 16.7146C48.0758 16.8021 48.1027 16.9031 48.1296 17.004C47.7192 15.4159 48.1027 16.9031 48.1296 17.004Z" fill="#6D1627"/>
<path d="M49.1252 18.6929C49.2396 19.857 49.2059 21.0346 49.0646 22.1988C49.0646 22.1584 49.0646 22.1248 49.0512 22.0978C49.0377 22.0709 49.0175 22.044 48.9906 22.0238C48.9637 22.0036 48.93 21.9969 48.8964 21.9902C48.856 21.9834 48.8156 21.9902 48.7685 22.0036C48.6003 22.0507 48.4321 22.2055 48.4119 22.3872L48.3984 22.4747C48.5465 21.3105 48.5801 20.1329 48.4725 18.962C48.5128 19.0832 48.6474 19.1101 48.7551 19.0832L48.8291 19.063C48.9637 18.9957 49.105 18.8544 49.1252 18.6929C49.1521 18.9688 49.1185 18.7265 49.1252 18.6929Z" fill="#A2000C"/>
<path d="M47.8331 26.4448C47.9811 26.4044 48.1291 26.2833 48.1762 26.1353C47.7523 27.4474 47.2072 28.726 46.5814 29.9574C46.5949 29.9171 46.5949 29.8834 46.5949 29.8498C46.5949 29.8161 46.5882 29.7892 46.5747 29.7623C46.5612 29.7354 46.5411 29.7152 46.5209 29.695C46.494 29.6815 46.467 29.6681 46.4334 29.6613C46.4267 29.6613 46.4132 29.6613 46.4065 29.6613C46.393 29.6613 46.3863 29.6613 46.3728 29.6613C46.3594 29.6613 46.3526 29.6613 46.3392 29.6681C46.3257 29.6681 46.319 29.6748 46.3055 29.6748C46.1777 29.7085 46.0633 29.7959 45.9893 29.9036C46.6083 28.6923 47.1399 27.434 47.5572 26.1353V26.142V26.1487V26.1554V26.1622C47.5033 26.3237 47.5908 26.4717 47.7725 26.4583L47.8331 26.4448Z" fill="#A2000C"/>
<path d="M34.7389 42.945C34.389 43.1738 34.039 43.3959 33.6824 43.6112C33.7968 43.5439 33.9045 43.4766 34.0189 43.4093C34.066 43.3824 34.0996 43.3488 34.1332 43.3151C34.1669 43.2815 34.1938 43.2411 34.214 43.2007C34.2342 43.1604 34.2476 43.12 34.2544 43.0796C34.2611 43.0392 34.2544 42.9989 34.2476 42.9652C34.2409 42.9383 34.2207 42.9181 34.2073 42.8979C34.1871 42.8777 34.1669 42.8643 34.1467 42.8575C34.1198 42.8508 34.0929 42.8441 34.066 42.8441C34.039 42.8441 34.0054 42.8441 33.9717 42.8575C33.9583 42.8575 33.9516 42.8643 33.9381 42.8643C33.9246 42.871 33.9179 42.871 33.9045 42.8777C33.891 42.8845 33.8843 42.8845 33.8708 42.8912C33.8574 42.8979 33.8506 42.9046 33.8372 42.9114C33.6891 42.9989 33.5411 43.0863 33.3998 43.1738C33.2517 43.2613 33.1037 43.3488 32.9556 43.4295C32.8076 43.517 32.6596 43.5978 32.5115 43.6785C32.3635 43.7593 32.2154 43.84 32.0674 43.9208C37.3161 41.1281 41.8785 36.8417 44.9672 31.7544C44.5702 32.4139 44.1463 33.0531 43.7021 33.6789C43.6147 33.7933 43.5608 34.0154 43.7425 34.076L43.9107 34.0827L44.1799 33.8943C43.2984 35.1257 42.3361 36.3033 41.2998 37.4069C41.3671 37.306 41.4142 37.1243 41.2998 37.0368C41.2864 37.0233 41.2729 37.0166 41.2527 37.0099C41.2325 37.0032 41.2191 36.9964 41.1989 36.9964C41.1787 36.9964 41.1585 36.9964 41.1383 36.9964C41.1181 36.9964 41.0979 37.0032 41.0778 37.0099C41.0576 37.0166 41.0374 37.0233 41.0172 37.0301C40.997 37.0368 40.9768 37.0503 40.9566 37.0637C40.9364 37.0772 40.9163 37.0906 40.8961 37.1041C40.8759 37.1175 40.8557 37.1377 40.8355 37.1579C40.5731 37.4338 40.3106 37.7097 40.0415 37.9789C39.7723 38.2481 39.4964 38.5105 39.2205 38.7729C38.9446 39.0354 38.662 39.2911 38.3726 39.5401C38.09 39.789 37.8006 40.038 37.5046 40.2735C37.4642 40.3072 37.4238 40.3476 37.3969 40.3879C37.37 40.4283 37.3498 40.4687 37.3363 40.5091C37.3229 40.5494 37.3161 40.5898 37.3161 40.6302C37.3161 40.6706 37.3296 40.7042 37.3498 40.7311L37.6055 40.7984L37.7603 40.7244C37.1143 41.256 36.4414 41.7674 35.755 42.2519" fill="#6D1627"/>
<path opacity="0.7" d="M2.97664 49.7143C3.87163 50.9862 4.96848 52.0965 6.19992 53.0251L52.3352 3.56562C52.1064 3.39066 51.8709 3.20897 51.6353 3.04747C51.4738 2.93307 51.3056 2.82541 51.1374 2.71774C50.9422 2.59662 50.7471 2.48222 50.5452 2.36782C50.3972 2.28034 50.2559 2.18613 50.1011 2.10538C46.1578 0.0327968 41.5416 -0.337308 37.1878 0.25486C36.6629 2.36782 36.1784 4.48752 35.7343 6.61394L35.6939 6.80908C34.3144 6.9504 32.9551 7.22629 31.616 7.5964C31.2661 7.69734 30.9095 7.79827 30.5596 7.91267C30.2096 8.02707 29.8597 8.14819 29.5165 8.26932C29.1733 8.39717 28.8234 8.53175 28.4802 8.66634C28.137 8.80765 27.7939 8.95569 27.4574 9.10373L27.4709 8.92205C27.6256 6.92348 27.7468 4.91818 27.8073 2.91289C24.9541 4.13087 22.2356 5.66512 19.6852 7.4349C11.1997 13.3095 3.81106 22.1382 1.05882 32.2521C1.19341 31.7541 1.34145 31.2629 1.50295 30.7784C3.68321 30.3949 5.86346 29.9777 8.03026 29.5268L8.22541 29.4932C7.77455 30.7919 7.41117 32.1243 7.18911 33.4836C7.13527 33.8133 7.08817 34.143 7.05453 34.466C7.02088 34.789 6.99397 35.112 6.97378 35.4283C6.95359 35.7446 6.94686 36.0541 6.94686 36.3636C6.94686 36.6732 6.95359 36.976 6.96704 37.2721L6.75844 37.3461C4.49744 38.0796 2.24989 38.8467 0.00907371 39.6475C0.00234453 39.089 0.022537 38.5237 0.0561829 37.9652C-0.0985883 40.2397 0.0561759 42.5343 0.648344 44.7347C1.13284 46.5449 1.92689 48.2205 2.97664 49.7076C2.9901 49.7009 2.98337 49.7076 2.97664 49.7143Z" fill="url(#paint0_linear)"/>
<defs>
<linearGradient id="paint0_linear" x1="29.6478" y1="28.605" x2="-1.9362" y2="3.39894" gradientUnits="userSpaceOnUse">
<stop stop-color="white"/>
<stop offset="0.0848" stop-color="#F6F6F6"/>
<stop offset="0.2247" stop-color="#DDDDDD"/>
<stop offset="0.4024" stop-color="#B4B4B4"/>
<stop offset="0.6108" stop-color="#7C7C7C"/>
<stop offset="0.8422" stop-color="#353535"/>
<stop offset="1"/>
</linearGradient>
</defs>
</svg>
