<svg width="55" height="52" viewBox="0 0 55 52" fill="none" xmlns="http://www.w3.org/2000/svg">
<path d="M5.5198 18.0532C4.55467 19.3382 3.58403 20.6287 2.6189 21.9137C2.04533 22.6748 1.47177 23.4414 0.898206 24.2025C0.787906 24.3459 0.572819 24.5444 0.512154 24.7154C0.457003 24.8753 0.578335 25.1345 0.622455 25.3055C0.754816 25.8404 0.90372 26.3699 1.06917 26.8938C1.81922 29.2377 2.90568 31.4658 4.20723 33.5505C5.98858 36.3907 8.24974 39.071 10.8528 41.448C13.4559 43.8305 16.3899 45.8986 19.5004 47.5255C22.6054 49.147 25.8758 50.3161 29.1683 50.9007C30.9606 48.7554 32.753 46.6156 34.5454 44.4702C31.1426 43.8415 27.8612 42.6282 24.8003 41.0178C21.6623 39.3688 18.6952 37.2731 16.059 34.8685C13.4284 32.464 11.1286 29.7616 9.31966 26.9048C7.51624 24.0536 6.20366 21.0534 5.5198 18.0532Z" fill="#961C2E"/>
<path d="M7.51519 5.44653C5.93789 7.58085 4.35508 9.71517 2.77778 11.8495C2.18216 12.6547 1.6472 13.493 1.23357 14.4029C0.869579 15.2136 0.577283 16.074 0.373227 16.9895C0.169171 17.905 0.0423254 18.8701 0.00923517 19.8794C-0.023855 20.8941 0.0312951 21.953 0.185716 23.056C1.79611 20.9052 3.41201 18.7543 5.0224 16.6034C5.17682 16.3939 5.18785 16.4104 5.17682 16.1512C5.1327 15.153 4.97828 14.1768 5.00585 13.1731C5.03343 12.1583 5.14925 11.1932 5.3533 10.2777C5.55184 9.3622 5.83862 8.50186 6.20261 7.69115C6.56109 6.89147 7.0023 6.14143 7.51519 5.44653Z" fill="#961C2E"/>
<path d="M35.091 44.5638C33.2986 46.7037 31.5063 48.849 29.7139 50.9889C31.3739 51.2536 33.056 51.3694 34.7381 51.2867C36.3098 51.2095 37.7713 50.9613 39.1225 50.5642C40.4627 50.1671 41.687 49.6156 42.779 48.9262C43.8654 48.2424 44.8195 47.4206 45.6247 46.4776C47.4337 44.3653 49.2481 42.2586 51.057 40.1463C50.2408 41.0949 49.2757 41.9166 48.2113 42.584C47.1193 43.2678 45.895 43.8138 44.5493 44.2054C43.1981 44.5969 41.7256 44.8341 40.1483 44.9003C38.56 44.9609 36.8724 44.8561 35.091 44.5638Z" fill="#961C2E"/>
<path d="M30.6621 43.4831C28.8807 45.634 27.0994 47.7903 25.3125 49.9412C25.6324 50.0405 25.9522 50.1342 26.2721 50.228C26.592 50.3162 26.9119 50.4045 27.2317 50.4817C27.5516 50.5644 27.8715 50.6361 28.1969 50.7078C28.5167 50.7795 28.8366 50.8401 29.162 50.9008C29.1841 50.9063 29.2061 50.9063 29.2282 50.9118C29.2502 50.9174 29.2723 50.9173 29.2944 50.9229C29.3164 50.9284 29.3385 50.9284 29.3605 50.9339C29.3826 50.9394 29.4047 50.9394 29.4267 50.9449C29.4488 50.9504 29.4708 50.9504 29.4929 50.956C29.515 50.9615 29.537 50.9615 29.5591 50.967C29.5811 50.9725 29.6032 50.9725 29.6253 50.978C29.6473 50.9835 29.6694 50.9835 29.6914 50.989C30.0113 51.0387 30.3257 51.0828 30.64 51.1214C30.9544 51.16 31.2632 51.1876 31.5721 51.2152C31.8809 51.2427 32.1842 51.2593 32.482 51.2758C32.7854 51.2924 33.0832 51.2979 33.3755 51.3034C35.1734 49.1691 36.9768 47.0348 38.7747 44.906C38.4769 44.9004 38.1736 44.8894 37.8757 44.8729C37.5724 44.8563 37.2691 44.8343 36.9602 44.8067C36.6514 44.7791 36.337 44.746 36.0227 44.7074C35.7083 44.6688 35.3885 44.6247 35.0686 44.5696C35.0465 44.564 35.0245 44.564 35.0024 44.5585C34.9803 44.553 34.9583 44.553 34.9362 44.5475C34.9142 44.542 34.8921 44.542 34.8701 44.5365C34.848 44.531 34.8259 44.5309 34.8039 44.5254C34.7818 44.5199 34.7598 44.5199 34.7377 44.5144C34.7156 44.5089 34.6936 44.5089 34.6715 44.5034C34.6494 44.4979 34.6274 44.4979 34.6053 44.4923C34.5833 44.4868 34.5612 44.4813 34.5391 44.4813C34.2138 44.4206 33.8939 44.3545 33.5685 44.2828C33.2431 44.2111 32.9232 44.1339 32.5979 44.0511C32.2725 43.9684 31.9526 43.8802 31.6272 43.7864C31.3073 43.6816 30.9875 43.5824 30.6621 43.4831Z" fill="#9A95A0"/>
<path d="M5.00663 13.7068C4.12974 14.8815 3.25285 16.0562 2.37596 17.2309C1.8024 17.9975 1.22883 18.7696 0.655272 19.5362C0.484306 19.7623 0.285765 19.9884 0.13686 20.2311C-0.0341064 20.5123 -0.00101599 20.6833 0.0100141 21.0528C0.0155291 21.2679 0.0265578 21.4885 0.0431029 21.7091C0.059648 21.9297 0.0761944 22.1503 0.0982545 22.3764C0.120315 22.6025 0.147889 22.8286 0.180979 23.0548V23.0603V23.0658V23.0713V23.0768C0.180979 23.0934 0.186495 23.1044 0.186495 23.1209C0.186495 23.1375 0.192009 23.1485 0.192009 23.1651C0.192009 23.1816 0.197525 23.1926 0.197525 23.2092C0.197525 23.2257 0.203039 23.2368 0.203039 23.2533C0.203039 23.2643 0.203041 23.2699 0.208556 23.2809C0.208556 23.2919 0.208555 23.2974 0.21407 23.3085C0.21407 23.3195 0.214069 23.325 0.219584 23.336C0.219584 23.3471 0.219585 23.3526 0.2251 23.3636C0.2251 23.3746 0.230614 23.3857 0.230614 23.3967C0.230614 23.4077 0.23613 23.4188 0.23613 23.4298C0.23613 23.4408 0.241644 23.4518 0.241644 23.4629C0.241644 23.4739 0.247161 23.4849 0.247161 23.496C0.247161 23.507 0.252675 23.5235 0.252675 23.5346C0.252675 23.5456 0.258189 23.5621 0.258189 23.5732C0.258189 23.5842 0.263705 23.6008 0.263705 23.6118C0.263705 23.6228 0.269219 23.6394 0.269219 23.6504C0.269219 23.6559 0.26922 23.6669 0.274735 23.6725C0.274735 23.678 0.274734 23.689 0.280249 23.6945C0.280249 23.7 0.280251 23.7111 0.285766 23.7166C0.285766 23.7221 0.285765 23.7331 0.29128 23.7386C0.296795 23.7607 0.296795 23.7827 0.30231 23.8048C0.307825 23.8269 0.307825 23.8489 0.31334 23.871C0.318855 23.8931 0.318856 23.9151 0.324371 23.9372C0.329886 23.9592 0.329886 23.9813 0.335401 24.0033C0.340916 24.0254 0.340916 24.0475 0.346431 24.0695C0.351946 24.0916 0.35746 24.1137 0.35746 24.1357C0.362975 24.1578 0.36849 24.1798 0.36849 24.2019C0.374005 24.224 0.37952 24.246 0.37952 24.2681C0.37952 24.2791 0.385036 24.2846 0.385036 24.2956C0.385036 24.3067 0.390551 24.3122 0.390551 24.3232C0.390551 24.3343 0.396065 24.3398 0.396065 24.3508C0.396065 24.3618 0.401581 24.3673 0.401581 24.3784C0.401581 24.3894 0.407095 24.4004 0.407095 24.4115C0.407095 24.4225 0.412611 24.4335 0.412611 24.4446C0.412611 24.4556 0.418125 24.4666 0.418125 24.4776C0.418125 24.4887 0.423641 24.4997 0.423641 24.5107C0.423641 24.5218 0.429157 24.5383 0.434672 24.5493C0.440187 24.5604 0.440185 24.5769 0.4457 24.5879C0.451215 24.599 0.451215 24.6155 0.45673 24.6266C0.45673 24.6376 0.462246 24.6541 0.467761 24.6652C0.467761 24.6707 0.467762 24.6762 0.473277 24.6817C0.473277 24.6872 0.473276 24.6927 0.478791 24.6982C0.478791 24.7038 0.478792 24.7093 0.484307 24.7148C0.484307 24.7203 0.484306 24.7258 0.489821 24.7313C0.544972 24.985 0.605636 25.2332 0.671816 25.4869C0.737997 25.7406 0.804178 25.9888 0.881388 26.2425C0.953083 26.4961 1.03029 26.7443 1.11302 26.9925C1.19575 27.2407 1.28399 27.4944 1.37223 27.7425C2.26015 26.5734 3.14255 25.4042 4.03047 24.235C4.60403 23.4739 5.18311 22.7128 5.75668 21.9573C5.92764 21.7312 6.14273 21.505 6.28612 21.2624C6.31921 21.2072 6.39642 21.1521 6.41297 21.0914C6.4626 20.9204 6.22545 20.4958 6.16479 20.3138C6.08206 20.0601 5.99934 19.8119 5.92213 19.5582C5.84492 19.3045 5.77322 19.0564 5.70704 18.8027C5.64086 18.549 5.58019 18.2953 5.51953 18.0471C5.51953 18.0416 5.51953 18.0361 5.51401 18.0306C5.51401 18.0251 5.51402 18.0195 5.5085 18.014C5.5085 18.0085 5.5085 18.003 5.50299 17.9975C5.50299 17.992 5.50298 17.9865 5.49747 17.9809C5.49195 17.9644 5.49196 17.9534 5.48644 17.9423C5.48093 17.9313 5.48092 17.9148 5.47541 17.9037C5.46989 17.8927 5.4699 17.8762 5.46438 17.8651C5.45887 17.8486 5.45886 17.8375 5.45335 17.8265C5.45335 17.8155 5.44784 17.8045 5.44784 17.7934C5.44784 17.7824 5.44232 17.7714 5.44232 17.7603C5.44232 17.7493 5.4368 17.7383 5.4368 17.7272C5.4368 17.7162 5.43129 17.7052 5.43129 17.6942C5.43129 17.6831 5.42578 17.6776 5.42578 17.6666C5.42578 17.6556 5.42026 17.65 5.42026 17.639C5.42026 17.628 5.41474 17.6225 5.41474 17.6114C5.41474 17.6004 5.40923 17.5949 5.40923 17.5839C5.40372 17.5618 5.3982 17.5397 5.3982 17.5177C5.39268 17.4956 5.38717 17.4736 5.38717 17.4515C5.38166 17.4294 5.37614 17.4074 5.37614 17.3853C5.37062 17.3633 5.36511 17.3412 5.36511 17.3191C5.35959 17.2971 5.35408 17.275 5.35408 17.253C5.34857 17.2309 5.34856 17.2088 5.34305 17.1868C5.33753 17.1647 5.33202 17.1427 5.33202 17.1206C5.32651 17.0985 5.3265 17.0765 5.32099 17.0544C5.32099 17.0489 5.32099 17.0379 5.31547 17.0324C5.31547 17.0268 5.30996 17.0158 5.30996 17.0103C5.30996 17.0048 5.30996 16.9937 5.30444 16.9882C5.30444 16.9827 5.30444 16.9717 5.29893 16.9662C5.29893 16.9551 5.29342 16.9386 5.29342 16.9276C5.29342 16.9165 5.2879 16.9 5.2879 16.889C5.2879 16.8779 5.28238 16.8614 5.28238 16.8504C5.28238 16.8393 5.27687 16.8228 5.27687 16.8118C5.27687 16.8007 5.27136 16.7897 5.27136 16.7787C5.27136 16.7676 5.26584 16.7566 5.26584 16.7456C5.26584 16.7345 5.26032 16.7235 5.26032 16.7125C5.26032 16.7014 5.25481 16.6904 5.25481 16.6794C5.25481 16.6684 5.24929 16.6628 5.24929 16.6518C5.24929 16.6408 5.24378 16.6353 5.24378 16.6242C5.24378 16.6132 5.24378 16.6077 5.23826 16.5967C5.23826 16.5856 5.23827 16.5801 5.23275 16.5691C5.23275 16.5525 5.22723 16.5415 5.22723 16.525C5.22723 16.5084 5.22172 16.4974 5.22172 16.4808C5.22172 16.4643 5.21621 16.4533 5.21621 16.4367C5.21621 16.4202 5.21069 16.4091 5.21069 16.3926V16.3871V16.3816V16.3761V16.3705C5.1776 16.1389 5.15002 15.9128 5.12245 15.6867C5.10039 15.4606 5.07833 15.24 5.06178 15.0194C5.04524 14.7988 5.03421 14.5782 5.02318 14.3631C5.01215 14.1314 5.00663 13.9164 5.00663 13.7068Z" fill="#9A95A0"/>
<path d="M12.5671 31.2736C10.9457 33.3527 9.31875 35.4319 7.69733 37.5111C7.64218 37.5828 7.41606 37.7813 7.41606 37.8751C7.41055 38.024 7.87381 38.4155 7.98411 38.5369C8.3095 38.9008 8.6404 39.2538 8.97682 39.6013C9.51729 40.1638 10.0743 40.7098 10.6534 41.2447C11.2269 41.7797 11.8226 42.2926 12.4292 42.7945C13.0359 43.2963 13.6591 43.7817 14.2933 44.2449C16.0416 42.061 17.7898 39.877 19.5381 37.6986C18.8984 37.2298 18.2696 36.7389 17.6575 36.2316C17.0453 35.7242 16.4442 35.2003 15.8651 34.6653C15.2805 34.1303 14.718 33.5733 14.172 33.0108C13.6039 32.4427 13.0745 31.8637 12.5671 31.2736Z" fill="#9A95A0"/>
<path d="M12.4466 21.7651C12.022 20.7007 11.6745 19.6032 11.4484 18.4781C11.3933 18.2024 11.3492 17.9321 11.3106 17.6619C11.2719 17.3917 11.2444 17.127 11.2168 16.8677C11.1947 16.6085 11.1782 16.3493 11.1727 16.0956C11.1616 15.842 11.1616 15.5883 11.1672 15.3456L10.9741 15.2904C8.97769 14.7886 6.98677 14.2591 5.00136 13.7076C5.00136 14.5956 5.06754 15.4835 5.1999 16.3604C4.70354 12.9686 5.07857 9.38385 6.87095 6.40022C8.66885 3.41107 11.6911 1.45324 15.0332 0.587382C17.0958 0.0524238 19.2467 -0.085458 21.37 0.0469027C21.927 1.74002 22.4399 3.44416 22.9307 5.15934L22.9748 5.31376C24.1109 5.34685 25.2415 5.49024 26.35 5.72187C26.6423 5.78254 26.9346 5.84872 27.2324 5.92042C27.5247 5.99211 27.817 6.06932 28.1093 6.15205C28.4016 6.23477 28.6884 6.32301 28.9807 6.41677C29.2675 6.51052 29.5598 6.6098 29.8466 6.71458L29.8245 6.56567C29.5819 4.93874 29.3668 3.30629 29.1958 1.67384C37.6393 4.58578 45.25 10.6744 49.9599 18.2686C51.3497 20.5022 52.4858 22.9067 53.2248 25.4381C52.9711 24.5778 52.6733 23.734 52.3314 22.9122C50.5224 22.7302 48.7245 22.5151 46.9211 22.2725L46.7557 22.2559C47.2024 23.2928 47.5774 24.3572 47.8366 25.4547C47.9028 25.7194 47.9579 25.9841 48.0021 26.2488C48.0517 26.5135 48.0903 26.7728 48.1234 27.0264C48.1565 27.2856 48.1841 27.5393 48.2006 27.7875C48.2227 28.0412 48.2337 28.2894 48.2392 28.532L48.4102 28.5817C50.3018 29.0505 52.1824 29.5468 54.0631 30.0652C54.0024 29.1166 53.87 28.1736 53.677 27.247C54.4877 31.1186 54.2506 35.3376 52.0887 38.7459C49.9489 42.1266 46.2703 44.0624 42.3878 44.669C39.9777 45.0496 37.5014 44.9503 35.0969 44.5587C36.3212 44.7573 37.5621 44.8676 38.803 44.8951C38.1963 43.0697 37.6338 41.2276 37.0988 39.3801L37.0547 39.2147C35.8966 39.2202 34.7384 39.1044 33.5968 38.9003C33.2935 38.8452 32.9901 38.7845 32.6868 38.7183C32.3835 38.6521 32.0802 38.5804 31.7823 38.4977C31.479 38.4205 31.1812 38.3322 30.8779 38.2385C30.5801 38.1447 30.2767 38.051 29.9789 37.9462L30.0065 38.1061C30.2657 39.8875 30.4918 41.6799 30.6738 43.4723C31.9478 43.8749 33.2383 44.2168 34.5509 44.4594C29.3337 43.4998 24.3977 41.1725 20.0905 38.1061C15.7998 35.0508 12.011 31.1958 9.21484 26.7176C7.5493 24.0428 6.2257 21.1254 5.5308 18.048C5.76243 19.0738 6.07127 20.083 6.43527 21.0702C8.38207 21.2632 10.3289 21.4893 12.2702 21.743L12.4466 21.7651ZM23.2616 33.1592C23.5705 33.3742 23.8793 33.5893 24.1992 33.7934C24.5135 33.9974 24.8334 34.196 25.1588 34.389C25.4787 34.582 25.8096 34.764 26.135 34.946C26.4659 35.1225 26.7968 35.2935 27.1332 35.4589C27.1497 35.47 27.1663 35.4755 27.1828 35.4865C27.1994 35.492 27.2159 35.503 27.2324 35.5141C27.249 35.5251 27.2655 35.5306 27.2876 35.5416C27.3041 35.5527 27.3262 35.5582 27.3427 35.5692C27.8226 35.8009 28.3079 36.0159 28.7987 36.2145C29.2896 36.413 29.7859 36.595 30.2823 36.7605C30.7786 36.9259 31.286 37.0748 31.7934 37.2017C32.3008 37.334 32.8137 37.4443 33.3266 37.5381C34.0214 37.6649 34.7219 37.7477 35.4223 37.7918C35.4333 37.7918 35.4498 37.7918 35.4664 37.7918C35.4829 37.7918 35.4995 37.7918 35.5271 37.7973C35.5491 37.7973 35.5822 37.7973 35.6153 37.8028C35.6539 37.8028 35.698 37.8083 35.7532 37.8083C35.7642 37.8083 35.7807 37.8083 35.7918 37.8083C35.8028 37.8083 35.8193 37.8083 35.8304 37.8083C35.8469 37.8083 35.858 37.8083 35.8745 37.8083C35.891 37.8083 35.9021 37.8083 35.9186 37.8083C36.233 37.8194 36.5418 37.8194 36.8507 37.8083C37.154 37.8028 37.4573 37.7808 37.7496 37.7587C38.0419 37.7311 38.3342 37.698 38.6155 37.6539C38.8967 37.6098 39.178 37.5601 39.4482 37.4995C40.3472 37.3009 41.2241 36.9866 42.0403 36.5564C42.2278 36.4571 42.4153 36.3524 42.5973 36.2421C42.7793 36.1318 42.9503 36.0159 43.1213 35.8946C43.2922 35.7733 43.4577 35.6464 43.6176 35.5141C43.7775 35.3817 43.9375 35.2438 44.0864 35.106C44.6986 34.5214 45.217 33.843 45.6196 33.0985C45.7133 32.922 45.8071 32.7455 45.8898 32.5635C45.9725 32.3815 46.0552 32.194 46.1269 32.001C46.1986 31.808 46.2703 31.6094 46.331 31.4054C46.3917 31.2013 46.4523 30.9917 46.502 30.7822C46.5406 30.6167 46.5737 30.4513 46.6068 30.2803C46.6343 30.1093 46.6619 29.9329 46.684 29.7509C46.706 29.5689 46.7226 29.3869 46.7391 29.1938C46.7557 29.0008 46.7612 28.8023 46.7667 28.5927C46.7722 28.328 46.7667 28.0578 46.7557 27.782C46.7446 27.5062 46.7226 27.2305 46.6895 26.9437C46.6564 26.6624 46.6178 26.3702 46.5681 26.0779C46.5185 25.7856 46.4578 25.4877 46.3862 25.1844C46.3696 25.1182 46.3586 25.0576 46.342 24.9969C46.342 24.9859 46.3365 24.9804 46.3365 24.9693C46.3365 24.9583 46.331 24.9473 46.3255 24.9362C46.32 24.9252 46.32 24.9087 46.3144 24.8866C46.3089 24.8645 46.3034 24.8425 46.2979 24.8149C46.2924 24.8039 46.2924 24.7929 46.2869 24.7763C46.2814 24.7653 46.2814 24.7487 46.2758 24.7377C46.2703 24.7212 46.2703 24.7101 46.2648 24.6881C46.2593 24.666 46.2538 24.6495 46.2483 24.6274C46.2428 24.6164 46.2428 24.6053 46.2372 24.5888C46.2317 24.5778 46.2317 24.5612 46.2262 24.5447C46.2207 24.5281 46.2152 24.5116 46.2097 24.495C46.2042 24.4785 46.1986 24.4564 46.1931 24.4344C46.1876 24.4233 46.1876 24.4123 46.1821 24.4013C46.1766 24.3903 46.1766 24.3792 46.1711 24.3627C46.1655 24.3461 46.16 24.3296 46.1545 24.313C46.149 24.291 46.1435 24.2689 46.1325 24.2414C46.1325 24.2303 46.1269 24.2248 46.1214 24.2083C46.1159 24.1972 46.1159 24.1807 46.1049 24.1641C46.0994 24.1421 46.0883 24.12 46.0828 24.0869C46.0718 24.0538 46.0608 24.0152 46.0442 23.9601C46.0442 23.949 46.0387 23.938 46.0332 23.9325C46.0277 23.9215 46.0277 23.9104 46.0222 23.8994C46.0166 23.8884 46.0111 23.8718 46.0056 23.8553C46.0001 23.8388 45.9946 23.8167 45.9836 23.7946C45.9394 23.6623 45.8953 23.5299 45.8512 23.4031C45.8071 23.2707 45.7574 23.1383 45.7078 23.006C45.6582 22.8736 45.603 22.7357 45.5479 22.5979C45.4927 22.46 45.4321 22.3221 45.3714 22.1787C45.2666 21.9305 45.1508 21.6879 45.035 21.4452C44.9192 21.2026 44.7923 20.9544 44.6655 20.7117C44.5386 20.4691 44.4007 20.2209 44.2629 19.9782C44.1195 19.73 43.9761 19.4874 43.8217 19.2392C43.6672 18.9966 43.5073 18.7484 43.3419 18.5057C43.1764 18.2631 43.0054 18.0204 42.8234 17.7777C42.647 17.5351 42.4594 17.2924 42.2664 17.0442C42.0734 16.8016 41.8749 16.5534 41.6653 16.3107C41.4778 16.0901 41.2903 15.8695 41.0917 15.6544C40.8987 15.4394 40.6946 15.2243 40.4906 15.0092C40.2865 14.7941 40.077 14.579 39.8564 14.3639C39.6413 14.1488 39.4152 13.9338 39.189 13.7187C38.9629 13.5091 38.7313 13.305 38.4997 13.101C38.268 12.8969 38.0254 12.6984 37.7827 12.4998C37.54 12.3013 37.2919 12.1083 37.0327 11.9153C36.779 11.7222 36.5198 11.5347 36.2495 11.3417C36.0069 11.1707 35.7587 10.9998 35.5105 10.8343C35.2623 10.6689 35.0086 10.5089 34.7549 10.349C34.5013 10.189 34.2421 10.0346 33.9773 9.88573C33.7181 9.73682 33.4534 9.58791 33.1832 9.44452C33.106 9.40592 33.0287 9.36179 32.9515 9.32319C32.8743 9.28458 32.7916 9.24047 32.7034 9.19635C32.6151 9.15223 32.5269 9.10811 32.4331 9.05847C32.3394 9.00883 32.2346 8.9592 32.1243 8.90956C31.6831 8.69999 31.2364 8.49593 30.7841 8.31394C30.3319 8.12643 29.8797 7.95546 29.4164 7.80104C28.9587 7.64111 28.4899 7.49771 28.0211 7.37086C27.5523 7.24402 27.078 7.1282 26.5982 7.02893C26.4659 7.00136 26.328 6.97378 26.1956 6.95172C26.1846 6.95172 26.1736 6.94621 26.1625 6.94621C26.1515 6.94621 26.1405 6.94069 26.1239 6.94069C26.1074 6.94069 26.0908 6.93518 26.0743 6.92967C26.0522 6.92415 26.0302 6.92415 26.0026 6.91863C25.8206 6.88554 25.6386 6.85797 25.4621 6.83591C25.2801 6.80834 25.0981 6.78627 24.9106 6.76421C24.7231 6.74215 24.5356 6.72561 24.3371 6.70906C24.1385 6.69252 23.94 6.68149 23.7249 6.67046C23.7083 6.67046 23.6863 6.67046 23.6697 6.67046C23.6532 6.67046 23.6311 6.67046 23.6091 6.67046C23.587 6.67046 23.5705 6.67046 23.5484 6.67046C23.5263 6.67046 23.5043 6.67046 23.4822 6.67046C23.223 6.66495 22.9693 6.65942 22.7212 6.66494C22.473 6.67045 22.2248 6.68149 21.9766 6.69804C21.734 6.71458 21.4913 6.73664 21.2542 6.76973C21.017 6.7973 20.7854 6.83591 20.5537 6.87451C20.3221 6.91312 20.0905 6.96275 19.8644 7.0179C19.6383 7.07305 19.4177 7.13372 19.197 7.1999C18.9764 7.26608 18.7614 7.33778 18.5463 7.42051C18.3312 7.50323 18.1216 7.58596 17.912 7.67971C17.719 7.76795 17.5315 7.86171 17.344 7.95546C17.162 8.05473 16.98 8.15952 16.8035 8.2643C16.627 8.3746 16.4506 8.49041 16.2796 8.61174C16.1086 8.73308 15.9377 8.85992 15.7722 8.99228C15.6123 9.12464 15.4579 9.26253 15.3034 9.41143C15.1545 9.55482 15.0111 9.70924 14.8678 9.86918C14.7299 10.0291 14.5975 10.1946 14.4652 10.3655C14.3383 10.5365 14.2115 10.713 14.0956 10.9005C13.9853 11.0659 13.8861 11.2369 13.7868 11.4134C13.6875 11.5899 13.5993 11.7719 13.511 11.9594C13.4228 12.1469 13.3456 12.3399 13.2684 12.5385C13.1912 12.737 13.1195 12.9411 13.0588 13.1506C12.9982 13.3547 12.943 13.5698 12.8934 13.7848C12.8437 13.9999 12.8051 14.2205 12.772 14.4466C12.7389 14.6728 12.7114 14.9044 12.6948 15.136C12.6728 15.3732 12.6617 15.6103 12.6562 15.8585C12.6507 16.0846 12.6507 16.3107 12.6617 16.5479C12.6673 16.7795 12.6838 17.0222 12.7059 17.2648C12.7279 17.5075 12.7555 17.7557 12.7941 18.0149C12.8327 18.2686 12.8768 18.5333 12.9265 18.8035C12.943 18.8807 12.9595 18.9579 12.9761 19.0352C12.9761 19.0462 12.9816 19.0627 12.9871 19.0738C12.9926 19.0848 12.9926 19.1013 12.9982 19.1124C13.0037 19.1234 13.0037 19.1399 13.0092 19.151C13.0147 19.162 13.0147 19.1785 13.0202 19.1896C13.0202 19.2006 13.0257 19.2061 13.0257 19.2172C13.0257 19.2282 13.0312 19.2392 13.0368 19.2502C13.0423 19.2668 13.0423 19.2833 13.0478 19.3054C13.0533 19.3275 13.0588 19.355 13.0643 19.3826C13.0643 19.3936 13.0698 19.4047 13.0698 19.4157C13.0698 19.4267 13.0754 19.4378 13.0809 19.4543C13.0864 19.4708 13.0864 19.4874 13.0919 19.5039C13.0974 19.526 13.1029 19.5481 13.1085 19.5756C13.1085 19.5867 13.114 19.5977 13.1195 19.6087C13.125 19.6197 13.125 19.6308 13.1305 19.6473C13.136 19.6639 13.1415 19.6804 13.1415 19.697C13.1471 19.719 13.1526 19.7411 13.1581 19.7687C13.1581 19.7797 13.1636 19.7907 13.1691 19.8017C13.1746 19.8128 13.1746 19.8238 13.1801 19.8403C13.1857 19.8569 13.1912 19.8734 13.1967 19.89C13.2022 19.9121 13.2077 19.9341 13.2132 19.9617C13.2188 19.9727 13.2188 19.9837 13.2243 19.9948C13.2298 20.0058 13.2298 20.0168 13.2353 20.0334C13.2408 20.0499 13.2463 20.0665 13.2518 20.0885C13.2574 20.1106 13.2629 20.1327 13.2739 20.1657C13.2739 20.1768 13.2794 20.1823 13.2849 20.1933C13.2904 20.2043 13.2904 20.2154 13.296 20.2319C13.3015 20.2485 13.307 20.265 13.3125 20.2871C13.318 20.3091 13.3235 20.3312 13.3346 20.3643C13.3346 20.3753 13.3401 20.3808 13.3456 20.3919C13.3511 20.4029 13.3566 20.4194 13.3621 20.4415C13.3677 20.4636 13.3787 20.4856 13.3897 20.5242C13.4008 20.5573 13.4118 20.6014 13.4283 20.6566C13.4338 20.6676 13.4338 20.6786 13.4394 20.6897C13.4449 20.7007 13.4449 20.7117 13.4504 20.7283C13.4559 20.7448 13.4614 20.7559 13.4669 20.7779C13.4724 20.8 13.478 20.822 13.489 20.8441C13.4945 20.8551 13.5 20.8661 13.5 20.8827C13.5055 20.8937 13.511 20.9103 13.511 20.9213C13.5166 20.9378 13.5221 20.9489 13.5276 20.9654C13.5331 20.982 13.5386 20.9985 13.5441 21.0206C13.5497 21.0371 13.5552 21.0481 13.5607 21.0647C13.5662 21.0812 13.5717 21.0923 13.5772 21.1088C13.5827 21.1254 13.5883 21.1419 13.5938 21.1584C13.5993 21.175 13.6048 21.1915 13.6103 21.2081C13.6324 21.2632 13.6489 21.3239 13.671 21.379C13.693 21.4342 13.7151 21.4949 13.7372 21.55C13.7592 21.6052 13.7813 21.6658 13.8033 21.7265C13.8254 21.7872 13.853 21.8423 13.875 21.903C13.9798 22.1567 14.0901 22.4159 14.2059 22.6696C14.3218 22.9233 14.4431 23.1825 14.5754 23.4362C14.7023 23.6898 14.8402 23.9491 14.9836 24.2083C15.127 24.4675 15.2759 24.7267 15.4303 24.9859C16.0755 26.0392 16.8035 27.043 17.5922 27.9971C18.4029 28.9732 19.2798 29.8887 20.2008 30.7601C20.4379 30.9752 20.6751 31.1903 20.9177 31.3999C21.1604 31.6094 21.4086 31.819 21.6623 32.0231C21.916 32.2271 22.1696 32.4257 22.4344 32.6242C22.7267 32.7731 22.9914 32.9716 23.2616 33.1592ZM19.528 37.698C20.482 36.5068 21.4637 35.3431 22.4895 34.2125L22.5833 34.1077C20.3442 32.5194 18.3036 30.6498 16.5498 28.5376L16.434 28.6148C15.1711 29.5358 13.8861 30.4292 12.568 31.273C14.6361 33.6665 16.98 35.8284 19.528 37.698ZM43.2977 37.9738C44.8585 39.54 46.3972 41.1284 47.9138 42.7388C49.6786 41.6964 51.1842 40.2349 52.2431 38.4756C50.5169 37.1024 48.8128 35.6906 47.1252 34.2677L46.9818 34.1463C46.0994 35.7181 44.7537 36.9866 43.1599 37.8249L43.2977 37.9738ZM16.6987 6.27338C15.1766 4.74571 13.6765 3.20151 12.1985 1.62972C10.3509 2.52316 8.71297 3.83021 7.48864 5.48472C9.22036 6.86348 10.9245 8.27533 12.6176 9.70373L12.7665 9.82506C13.7592 8.31946 15.1986 7.15578 16.8421 6.41677L16.6987 6.27338ZM46.2372 13.2885C44.2684 11.0549 42.0569 9.03641 39.6633 7.26608C38.803 8.33049 37.9095 9.36731 36.983 10.371L36.9003 10.4648C39.0346 11.9869 40.9869 13.7683 42.6856 15.7647L42.7848 15.6931C43.9099 14.8658 45.057 14.0551 46.2372 13.2885Z" fill="#ED0E1C"/>
<path d="M39.6576 7.26501C38.7972 8.32942 37.9038 9.36624 36.9773 10.37L36.8945 10.4637C39.0288 11.9859 40.9812 13.7672 42.6798 15.7637L42.7791 15.692C43.9097 14.8537 45.0568 14.043 46.237 13.2764C44.2626 11.0594 42.0511 9.03534 39.6576 7.26501C39.4976 7.46356 40.2587 7.71173 39.6576 7.26501Z" fill="#F6F6F6"/>
<path d="M25.2307 0.582295C25.2086 0.57678 25.1866 0.571265 25.1645 0.56575C25.1425 0.560235 25.1204 0.554721 25.0983 0.549206C25.0763 0.543691 25.0542 0.538173 25.0322 0.538173C25.0101 0.532658 24.988 0.527149 24.966 0.527149C24.9549 0.527149 24.9439 0.521629 24.9329 0.521629C24.9219 0.521629 24.9108 0.516117 24.8998 0.516117C24.8888 0.516117 24.8777 0.510605 24.8667 0.510605C24.8557 0.510605 24.8446 0.505085 24.8336 0.505085C24.8226 0.505085 24.8115 0.499573 24.8005 0.499573C24.7895 0.499573 24.7785 0.494061 24.7674 0.494061C24.7564 0.494061 24.7454 0.48854 24.7343 0.48854C24.7233 0.48854 24.7123 0.483028 24.7012 0.483028C24.6847 0.483028 24.6737 0.477508 24.6571 0.477508C24.6406 0.477508 24.6296 0.471996 24.613 0.471996C24.5965 0.471996 24.5854 0.466484 24.5689 0.466484C24.5523 0.466484 24.5413 0.460963 24.5248 0.460963C24.5193 0.460963 24.5137 0.460966 24.5082 0.455451C24.5027 0.455451 24.4972 0.455454 24.4917 0.449939C24.4862 0.449939 24.4807 0.449934 24.4751 0.444419C24.4696 0.444419 24.4641 0.444422 24.4586 0.438907C24.238 0.400302 24.0174 0.361698 23.7968 0.328608C23.5762 0.295518 23.3556 0.262429 23.1405 0.234853C22.9254 0.207278 22.7048 0.179703 22.4952 0.157643C22.2802 0.135583 22.0651 0.113523 21.8555 0.0969777C21.839 0.0969777 21.8169 0.0914573 21.8003 0.0914573C21.7838 0.0914573 21.7673 0.0914603 21.7507 0.0859453C21.7342 0.0859453 21.7176 0.0859483 21.7066 0.0804333C21.69 0.0804333 21.679 0.0804279 21.6625 0.0749129C21.5687 0.0693978 21.475 0.0638865 21.3867 0.0528564C21.9437 1.74597 22.4566 3.45562 22.9475 5.16528L22.9916 5.31971C23.2618 5.32523 23.5321 5.34176 23.8078 5.36383C24.0836 5.38589 24.3593 5.41347 24.6406 5.44656C24.9218 5.47965 25.2086 5.51825 25.4954 5.56789C25.7822 5.61752 26.0745 5.66715 26.3668 5.72782C27.5525 5.97048 28.7162 6.3069 29.8523 6.72053L29.8302 6.57162C29.5876 4.94468 29.3725 3.31224 29.2015 1.67979C29.1795 1.66876 29.1519 1.66324 29.1298 1.65221C29.1078 1.64118 29.0802 1.63567 29.0581 1.62464C29.0361 1.61912 29.0085 1.60809 28.9864 1.60258C28.9644 1.59155 28.9368 1.58603 28.9147 1.58051C28.8982 1.575 28.8816 1.56948 28.8651 1.56397C28.8486 1.55845 28.832 1.55294 28.8155 1.54743C28.7989 1.54191 28.7824 1.5364 28.7658 1.53088C28.7493 1.52537 28.7327 1.51985 28.7162 1.51434C28.4956 1.44264 28.2695 1.37094 28.0489 1.30476C27.8283 1.23858 27.6022 1.17241 27.376 1.10623C27.1499 1.04556 26.9293 0.984898 26.7032 0.924232C26.4771 0.863567 26.2565 0.808415 26.0304 0.75878C26.0249 0.75878 26.0193 0.758774 26.0138 0.753259C26.0083 0.753259 26.0028 0.753262 25.9973 0.747747C25.9918 0.747747 25.9863 0.74775 25.9807 0.742235C25.9752 0.742235 25.9697 0.74223 25.9642 0.736715C25.9476 0.7312 25.9366 0.731206 25.9201 0.725691C25.9035 0.720176 25.8925 0.720173 25.876 0.714658C25.8594 0.709143 25.8484 0.709141 25.8318 0.703626C25.8153 0.698111 25.8043 0.698117 25.7877 0.692602C25.7767 0.692602 25.7657 0.687082 25.7546 0.687082C25.7436 0.687082 25.7326 0.68157 25.7215 0.68157C25.7105 0.68157 25.6995 0.676049 25.6884 0.676049C25.6774 0.676049 25.6664 0.670537 25.6554 0.670537C25.6443 0.670537 25.6333 0.665025 25.6223 0.665025C25.6112 0.665025 25.6002 0.659505 25.5892 0.659505C25.5781 0.659505 25.5671 0.653993 25.5561 0.653993C25.5451 0.653993 25.534 0.648481 25.523 0.648481C25.5009 0.642966 25.4789 0.637451 25.4568 0.631936C25.4347 0.626421 25.4127 0.620899 25.3906 0.615384C25.3686 0.609868 25.3465 0.604354 25.3245 0.598839C25.2748 0.587809 25.2528 0.582295 25.2307 0.582295Z" fill="#F6F6F6"/>
<path d="M52.3198 22.907C50.5109 22.725 48.713 22.5099 46.9096 22.2673L46.7441 22.2507C46.86 22.5155 46.9647 22.7802 47.0695 23.0449C47.1743 23.3096 47.2681 23.5743 47.3618 23.8446C47.4501 24.1093 47.5383 24.3795 47.6155 24.6498C47.6927 24.92 47.7644 25.1847 47.8251 25.455C48.0622 26.4642 48.2056 27.501 48.2332 28.5379L48.4042 28.5875C50.2958 29.0563 52.1764 29.5526 54.0571 30.071C54.0405 29.8449 54.024 29.6133 54.0019 29.3817C53.9799 29.15 53.9523 28.9184 53.9192 28.6813C53.8861 28.4441 53.853 28.207 53.8089 27.9698C53.7648 27.7327 53.7207 27.49 53.671 27.2473C53.671 27.2418 53.671 27.2363 53.671 27.2363C53.671 27.2308 53.671 27.2253 53.671 27.2253C53.671 27.2198 53.671 27.2143 53.671 27.2087C53.671 27.2032 53.671 27.1977 53.6655 27.1977C53.6655 27.1867 53.66 27.1701 53.6545 27.1591C53.6545 27.1426 53.649 27.1315 53.6434 27.1205C53.6379 27.1095 53.6379 27.0929 53.6324 27.0819C53.6324 27.0654 53.6269 27.0543 53.6214 27.0433C53.6214 27.0323 53.6159 27.0212 53.6159 27.0157C53.6159 27.0047 53.6104 26.9937 53.6104 26.9881C53.6104 26.9771 53.6048 26.9661 53.6048 26.9606C53.6048 26.9495 53.5993 26.9385 53.5993 26.933C53.5993 26.922 53.5938 26.9109 53.5938 26.9054C53.5938 26.8944 53.5883 26.8834 53.5883 26.8778C53.5883 26.8668 53.5828 26.8558 53.5828 26.8503C53.5828 26.8392 53.5773 26.8282 53.5773 26.8227C53.5717 26.8006 53.5662 26.7786 53.5607 26.762C53.5552 26.74 53.5497 26.7179 53.5442 26.7014C53.5387 26.6793 53.5331 26.6572 53.5276 26.6407C53.5221 26.6186 53.5166 26.5966 53.5111 26.58C53.5056 26.558 53.5 26.5359 53.4945 26.5138C53.489 26.4918 53.4835 26.4697 53.478 26.4477C53.4725 26.4256 53.467 26.4035 53.4614 26.3815C53.4559 26.3594 53.4504 26.3374 53.4449 26.3153C53.4449 26.3043 53.4394 26.2988 53.4394 26.2877C53.4394 26.2767 53.4339 26.2712 53.4339 26.2602C53.4339 26.2491 53.4284 26.2436 53.4284 26.2326C53.4284 26.2216 53.4228 26.216 53.4228 26.205C53.4228 26.194 53.4173 26.1829 53.4118 26.1719C53.4118 26.1609 53.4063 26.1499 53.4008 26.1388C53.4008 26.1278 53.3953 26.1168 53.3897 26.1057C53.3842 26.0947 53.3842 26.0837 53.3787 26.0726C53.3732 26.0616 53.3732 26.0506 53.3677 26.0396C53.3622 26.0285 53.3622 26.0175 53.3567 26.0065C53.3567 25.9954 53.3511 25.9844 53.3456 25.9734C53.3401 25.9623 53.3401 25.9513 53.3346 25.9403C53.3346 25.9348 53.3291 25.9237 53.3291 25.9182C53.3291 25.9127 53.3236 25.9017 53.3236 25.8962C53.3236 25.8907 53.3181 25.8796 53.3181 25.8741C53.3181 25.8686 53.3125 25.8576 53.3125 25.852C53.0423 24.8207 52.7114 23.8556 52.3198 22.907C51.9889 22.8739 52.4191 23.1442 52.3198 22.907Z" fill="#F6F6F6"/>
<path d="M12.1981 1.62988C10.3506 2.52332 8.71262 3.83038 7.48828 5.48488C9.22 6.86364 10.9241 8.2755 12.6173 9.70389L12.7662 9.82522C13.7589 8.31962 15.1983 7.15594 16.8418 6.41693L16.6984 6.27354C15.1762 4.74587 13.6761 3.20167 12.1981 1.62988C11.7183 1.86151 12.4684 1.92218 12.1981 1.62988Z" fill="#F6F6F6"/>
<path d="M46.9752 34.1467C46.0928 35.7185 44.7472 36.987 43.1533 37.8253L43.2967 37.9742C44.8575 39.5404 46.3962 41.1288 47.9128 42.7391C49.6776 41.6968 51.1832 40.2353 52.2421 38.476C50.5159 37.1028 48.8117 35.6909 47.1241 34.2681L46.9752 34.1467Z" fill="#F6F6F6"/>
<path d="M5.00684 13.7068C5.00684 13.9164 5.01235 14.1314 5.01787 14.352C5.02338 14.5671 5.03993 14.7877 5.05647 15.0083C5.07302 15.2289 5.09508 15.4551 5.11714 15.6757C5.1392 15.9018 5.17229 16.1279 5.20538 16.3595V16.365V16.3705V16.3761V16.3816C5.20538 16.3981 5.21089 16.4092 5.21089 16.4257C5.21089 16.4422 5.21641 16.4533 5.21641 16.4698C5.21641 16.4864 5.22192 16.4974 5.22192 16.5139C5.22192 16.5305 5.22744 16.5415 5.22744 16.5581C5.22744 16.5691 5.22744 16.5746 5.23295 16.5856C5.23295 16.5967 5.23847 16.6022 5.23847 16.6132C5.23847 16.6242 5.24398 16.6298 5.24398 16.6408C5.24398 16.6518 5.24398 16.6573 5.2495 16.6684C5.2495 16.6794 5.25501 16.6904 5.25501 16.7015C5.25501 16.7125 5.26053 16.7235 5.26053 16.7345C5.26053 16.7456 5.26604 16.7566 5.26604 16.7676C5.26604 16.7787 5.27156 16.7897 5.27156 16.8007C5.27156 16.8117 5.27707 16.8283 5.27707 16.8393C5.27707 16.8504 5.28259 16.8669 5.28259 16.8779C5.28259 16.889 5.2881 16.9055 5.2881 16.9165C5.2881 16.9276 5.29362 16.9441 5.29362 16.9551C5.29362 16.9607 5.29362 16.9717 5.29913 16.9772C5.29913 16.9827 5.29913 16.9937 5.30465 16.9993C5.30465 17.0048 5.31016 17.0158 5.31016 17.0213C5.31016 17.0268 5.31016 17.0379 5.31568 17.0434C5.32119 17.0654 5.32119 17.0875 5.32671 17.1096C5.33222 17.1316 5.33222 17.1537 5.33774 17.1757C5.34325 17.1978 5.34325 17.2199 5.34877 17.2419C5.35428 17.264 5.3598 17.286 5.3598 17.3081C5.36531 17.3302 5.37083 17.3522 5.37083 17.3743C5.37635 17.3963 5.38186 17.4184 5.38186 17.4405C5.38737 17.4625 5.39289 17.4846 5.39289 17.5066C5.39841 17.5287 5.40392 17.5508 5.40392 17.5728C5.40392 17.5839 5.40944 17.5894 5.40944 17.6004C5.40944 17.6114 5.41495 17.6169 5.41495 17.628C5.41495 17.639 5.42046 17.6445 5.42046 17.6556C5.42046 17.6666 5.42598 17.6721 5.42598 17.6831C5.42598 17.6942 5.4315 17.7052 5.4315 17.7162C5.4315 17.7272 5.43701 17.7383 5.43701 17.7493C5.43701 17.7603 5.44252 17.7714 5.44252 17.7824C5.44252 17.7934 5.44804 17.8045 5.44804 17.8155C5.45356 17.8265 5.45355 17.8431 5.45907 17.8541C5.46458 17.8651 5.46459 17.8817 5.4701 17.8927C5.47562 17.9037 5.47561 17.9203 5.48113 17.9313C5.48664 17.9423 5.48665 17.9589 5.49216 17.9699C5.49216 17.9754 5.49216 17.9809 5.49767 17.9864C5.49767 17.992 5.49767 17.9975 5.50319 18.003C5.50319 18.0085 5.50319 18.014 5.50871 18.0195C5.50871 18.0251 5.5087 18.0306 5.51422 18.0361C5.74585 19.0619 6.05469 20.0711 6.41868 21.0583C8.36549 21.2514 10.3123 21.4775 12.2536 21.7312L12.4411 21.7477C12.3308 21.4775 12.226 21.2017 12.1323 20.926C12.033 20.6502 11.9447 20.38 11.862 20.1042C11.7793 19.8285 11.7021 19.5582 11.6304 19.2825C11.5587 19.0067 11.498 18.7365 11.4429 18.4607C11.2388 17.4294 11.1396 16.3761 11.1616 15.3282L10.9686 15.2731C8.98317 14.7932 6.99225 14.2638 5.00684 13.7068C5.00684 13.9164 5.38186 13.8116 5.00684 13.7068Z" fill="#F6F6F6"/>
<path d="M29.9727 37.9519L30.0002 38.1118C30.2594 39.8932 30.4856 41.6856 30.6675 43.478C30.9874 43.5772 31.3128 43.6765 31.6327 43.7703C31.9525 43.864 32.2779 43.9523 32.6033 44.035C32.9287 44.1177 33.2486 44.1949 33.574 44.2666C33.8994 44.3383 34.2192 44.4045 34.5446 44.4652C34.5667 44.4707 34.5887 44.4707 34.6108 44.4762C34.6329 44.4817 34.6549 44.4872 34.677 44.4872C34.699 44.4927 34.7211 44.4982 34.7432 44.4982C34.7652 44.5038 34.7873 44.5038 34.8093 44.5093C34.8314 44.5148 34.8535 44.5148 34.8755 44.5203C34.8976 44.5258 34.9196 44.5258 34.9417 44.5313C34.9638 44.5368 34.9858 44.5368 35.0079 44.5424C35.0299 44.5479 35.052 44.5479 35.0741 44.5534C36.2984 44.7519 37.5393 44.8622 38.7802 44.8898C38.1735 43.0643 37.611 41.2223 37.076 39.3748L37.0319 39.2093C36.7617 39.2093 36.4804 39.2038 36.2046 39.1928C35.9234 39.1818 35.6421 39.1597 35.3498 39.1376C35.063 39.1101 34.7707 39.077 34.4729 39.0384C34.1751 38.9998 33.8773 38.9501 33.574 38.9005C32.3607 38.6854 31.1529 38.3655 29.9727 37.9519Z" fill="#F6F6F6"/>
<path d="M16.5437 28.5377L16.4334 28.6149C15.1705 29.5359 13.8855 30.4294 12.5674 31.2732C14.6355 33.6667 16.9794 35.8286 19.5274 37.7037C20.4815 36.5125 21.4631 35.3488 22.4889 34.2182L22.5827 34.1134C20.3436 32.5196 18.2975 30.6445 16.5437 28.5377Z" fill="#F6F6F6"/>
<path d="M36.6411 37.5495C36.6577 37.5826 36.6632 37.6212 36.6632 37.6488C36.6632 37.6819 36.6577 37.7094 36.6466 37.7315C36.6356 37.7536 36.6136 37.7756 36.5915 37.7867C36.5694 37.7977 36.5363 37.8087 36.5033 37.8087C36.4536 37.8087 36.4095 37.8087 36.3599 37.8087C36.3102 37.8087 36.2661 37.8087 36.2165 37.8087C36.1668 37.8087 36.1227 37.8087 36.0731 37.8087C36.0234 37.8087 35.9738 37.8087 35.9297 37.8032C37.1099 37.8418 38.2956 37.748 39.4428 37.4888H39.36C39.2442 37.4668 39.1339 37.3896 39.0733 37.2903C39.0071 37.191 38.996 37.0201 39.145 36.9815C40.0053 36.7939 40.8436 36.4961 41.6322 36.0935C41.6433 36.088 41.6488 36.0825 41.6598 36.0825C41.6708 36.0825 41.6819 36.077 41.6929 36.077C41.7039 36.077 41.715 36.077 41.726 36.077C41.737 36.077 41.748 36.077 41.7646 36.0825C41.7866 36.088 41.8087 36.0935 41.8308 36.0991C41.8528 36.1101 41.8749 36.1211 41.897 36.1321C41.919 36.1432 41.9411 36.1597 41.9576 36.1763C41.9797 36.1928 41.9962 36.2094 42.0128 36.2314C42.079 36.3141 42.1396 36.452 42.0514 36.5403C42.7904 36.1542 43.4798 35.6689 44.0809 35.0953L43.9265 35.1284L43.7169 35.0236C43.6342 34.9464 43.5404 34.781 43.6342 34.6762C44.2133 34.1192 44.7207 33.4794 45.1067 32.7735C45.1508 32.7073 45.2335 32.6963 45.3052 32.7073C45.3163 32.7073 45.3328 32.7128 45.3438 32.7183C45.3549 32.7239 45.3714 32.7294 45.3825 32.7349C45.3935 32.7404 45.41 32.7459 45.4211 32.757C45.4321 32.7625 45.4486 32.7735 45.4597 32.7845C45.5479 32.8507 45.6417 32.972 45.6251 33.0878C46.0222 32.3709 46.309 31.5988 46.4965 30.8046C46.4634 30.8763 46.3696 30.8873 46.2979 30.8708L46.1987 30.8377C46.0884 30.777 45.945 30.6337 45.9836 30.4958C46.0277 30.2917 46.0718 30.0822 46.1049 29.8671C46.138 29.6575 46.1656 29.4424 46.1876 29.2218C46.2097 29.0067 46.2263 28.7861 46.2318 28.5655C46.2428 28.3449 46.2428 28.1243 46.2428 27.8982C46.2428 27.8706 46.2483 27.8486 46.2593 27.8265C46.2704 27.8045 46.2869 27.7879 46.3035 27.7769C46.32 27.7658 46.3421 27.7548 46.3696 27.7493C46.3917 27.7438 46.4248 27.7438 46.4524 27.7493C46.4579 27.7493 46.4579 27.7493 46.4634 27.7493C46.4689 27.7493 46.4689 27.7493 46.4744 27.7548C46.4799 27.7548 46.4799 27.7548 46.4855 27.7603C46.491 27.7603 46.491 27.7603 46.4965 27.7658C46.6288 27.81 46.7667 27.9423 46.7722 28.0912C46.7722 28.1298 46.7722 28.174 46.7722 28.2126C46.7722 28.2512 46.7722 28.2953 46.7722 28.3339C46.7722 28.3725 46.7722 28.4166 46.7722 28.4552C46.7722 28.4938 46.7722 28.538 46.7722 28.5766C46.7943 27.4405 46.6509 26.3044 46.3972 25.1958C46.4303 25.3337 46.309 25.3889 46.1876 25.3668C46.1546 25.3613 46.1159 25.3447 46.0829 25.3282C46.0498 25.3061 46.0167 25.2841 45.9836 25.2565C45.956 25.2289 45.9284 25.1958 45.9064 25.1628C45.8843 25.1297 45.8733 25.0966 45.8623 25.0635C46.5461 27.9754 46.3586 31.2072 44.5056 33.6724C42.5974 36.2149 39.4152 37.2682 36.3268 37.2903C36.4702 37.3234 36.5915 37.4282 36.6411 37.5495Z" fill="#6D1627"/>
<path d="M29.9455 36.6338L29.8959 36.6172C29.2506 36.3911 28.6164 36.1374 27.9932 35.8617C29.6808 36.6117 31.4511 37.1908 33.271 37.5217C33.2324 37.5162 33.1994 37.4996 33.1663 37.4831C33.1332 37.4665 33.1001 37.439 33.0725 37.4114C33.0449 37.3838 33.0174 37.3507 33.0008 37.3232C32.9788 37.2901 32.9677 37.257 32.9567 37.2239C32.9236 37.0805 33.056 36.9978 33.1828 37.0198C31.7489 36.7606 30.3426 36.3415 28.9914 35.8065C29.0686 35.8341 29.1403 35.8672 29.2175 35.8948C29.2947 35.9223 29.3664 35.9554 29.4436 35.983C29.5208 36.0106 29.598 36.0382 29.6697 36.0657C29.7469 36.0933 29.8186 36.1209 29.8959 36.1484C30.0337 36.1981 30.1661 36.3304 30.1661 36.4849C30.1716 36.6062 30.0503 36.6558 29.9455 36.6338Z" fill="#A2000C"/>
<path d="M15.5344 24.6388C15.5068 24.6443 15.4848 24.6554 15.4627 24.6719C15.4462 24.6885 15.4296 24.705 15.4241 24.7271C15.4131 24.7491 15.4131 24.7712 15.4131 24.7988C15.4131 24.8263 15.4186 24.8539 15.4296 24.887C15.4351 24.9091 15.4462 24.9256 15.4517 24.9422C16.0969 25.99 16.8139 26.9882 17.597 27.9423L17.6136 27.9534L17.8452 28.0912L17.9831 28.0747C18.1265 28.014 18.0713 27.832 17.9941 27.7493C17.8948 27.628 17.7956 27.5011 17.6963 27.3798C17.597 27.253 17.5033 27.1316 17.404 27.0048C17.3103 26.8779 17.2165 26.7566 17.1227 26.6298C17.029 26.5029 16.9407 26.3761 16.847 26.2492C16.8304 26.2272 16.8139 26.1996 16.7974 26.1775C16.7808 26.1555 16.7643 26.1334 16.7477 26.1058C16.7312 26.0838 16.7146 26.0562 16.6981 26.0341C16.6815 26.0121 16.665 25.9845 16.6485 25.9624C16.6485 25.9624 16.6485 25.9569 16.6429 25.9569C16.6429 25.9569 16.6429 25.9514 16.6374 25.9514C16.6374 25.9514 16.6374 25.9459 16.6319 25.9459C16.6319 25.9459 16.6319 25.9404 16.6264 25.9404C16.5657 25.8521 16.5051 25.7584 16.4444 25.6701C16.3837 25.5819 16.3231 25.4881 16.2624 25.3944C16.2017 25.3006 16.1466 25.2124 16.0859 25.1186C16.0308 25.0249 15.9701 24.9366 15.915 24.8429L15.9094 24.8374L15.9039 24.8319L15.8984 24.8263L15.8929 24.8208C15.8763 24.7988 15.8543 24.7767 15.8377 24.7602C15.8157 24.7436 15.7936 24.7271 15.7716 24.7105C15.7495 24.694 15.7219 24.683 15.6999 24.6719C15.6778 24.6609 15.6502 24.6554 15.6282 24.6499C15.6171 24.6499 15.6116 24.6443 15.6006 24.6443C15.5896 24.6443 15.5841 24.6443 15.573 24.6443C15.562 24.6443 15.5565 24.6443 15.5454 24.6443C15.551 24.6333 15.5454 24.6388 15.5344 24.6388Z" fill="#FEFEFE"/>
<path d="M26.4992 34.6756C26.4716 34.6701 26.4495 34.6701 26.4219 34.6701C26.3999 34.6701 26.3778 34.6811 26.3558 34.6867C26.3392 34.6977 26.3172 34.7087 26.3061 34.7253C26.2951 34.7418 26.2841 34.7584 26.2786 34.7804C26.273 34.808 26.273 34.8411 26.2786 34.8742C26.2841 34.9073 26.3006 34.9403 26.3172 34.9734C26.3392 35.0065 26.3613 35.0341 26.3944 35.0617C26.4219 35.0893 26.4605 35.1113 26.4936 35.1334C26.5433 35.161 26.5984 35.1885 26.6481 35.2161C26.6977 35.2437 26.7528 35.2713 26.808 35.2988C26.8631 35.3264 26.9128 35.354 26.9679 35.376C27.0231 35.4036 27.0727 35.4257 27.1279 35.4533C27.1444 35.4643 27.1665 35.4698 27.183 35.4808C27.1996 35.4918 27.2161 35.4974 27.2382 35.5084C27.2547 35.5194 27.2713 35.5249 27.2878 35.536C27.3043 35.5415 27.3209 35.5525 27.3374 35.558C28.1702 35.9551 29.025 36.3136 29.8964 36.6169L29.946 36.6335C30.0508 36.65 30.1722 36.6059 30.1666 36.479C30.1666 36.446 30.1611 36.4074 30.1446 36.3743C30.1336 36.3412 30.1115 36.3081 30.0894 36.2805C30.0674 36.2529 30.0343 36.2254 30.0067 36.1978C29.9736 36.1757 29.9405 36.1537 29.9019 36.1426C29.8247 36.1151 29.753 36.0875 29.6758 36.0599C29.5986 36.0323 29.5214 36.0048 29.4497 35.9772C29.3725 35.9496 29.3008 35.922 29.2236 35.8889C29.1464 35.8558 29.0692 35.8283 28.9975 35.8007C28.9754 35.7897 28.9533 35.7841 28.9313 35.7731C28.9092 35.7621 28.8872 35.7566 28.8651 35.7455C28.843 35.7345 28.821 35.729 28.7989 35.718C28.7769 35.7069 28.7548 35.7014 28.7327 35.6904C28.7217 35.6849 28.7107 35.6794 28.6941 35.6738C28.6831 35.6683 28.6721 35.6628 28.6555 35.6573C28.6445 35.6518 28.6335 35.6463 28.6169 35.6408C28.6059 35.6352 28.5949 35.6297 28.5783 35.6242C28.5563 35.6132 28.5342 35.6077 28.5121 35.5966C28.4901 35.5856 28.468 35.5801 28.446 35.5691C28.4239 35.558 28.4018 35.5525 28.3798 35.5415C28.3577 35.5305 28.3357 35.5249 28.3136 35.5139C28.2971 35.5084 28.2805 35.5029 28.2695 35.4919C28.2529 35.4863 28.2364 35.4808 28.2254 35.4698C28.2088 35.4643 28.1923 35.4588 28.1812 35.4477C28.1647 35.4422 28.1481 35.4367 28.1371 35.4257C28.1371 35.4257 28.1316 35.4257 28.1261 35.4202C28.1261 35.4202 28.1206 35.4202 28.1206 35.4146C28.1206 35.4091 28.1151 35.4146 28.1095 35.4091C28.1095 35.4091 28.104 35.4091 28.104 35.4036C27.9772 35.3485 27.8503 35.2933 27.7235 35.2326C27.5966 35.172 27.4698 35.1168 27.3485 35.0562C27.2216 34.9955 27.0948 34.9348 26.9734 34.8742C26.8466 34.8135 26.7253 34.7473 26.5984 34.6811C26.5874 34.6756 26.5819 34.6701 26.5708 34.6701C26.5598 34.6646 26.5543 34.6646 26.5433 34.6591C26.5322 34.6536 26.5267 34.6536 26.5157 34.6536C26.5157 34.6756 26.5047 34.6756 26.4992 34.6756Z" fill="#FEFEFE"/>
<path d="M39.1115 14.0713L39.2825 14.0382C39.299 14.0272 39.3101 14.0051 39.3211 13.9886C39.3266 13.9665 39.3321 13.9444 39.3266 13.9224C39.3266 13.9003 39.3156 13.8727 39.3046 13.8452C39.2935 13.8176 39.277 13.79 39.2604 13.768C39.2549 13.7624 39.2549 13.7569 39.2494 13.7514C39.2439 13.7459 39.2384 13.7404 39.2384 13.7349C39.2329 13.7294 39.2273 13.7238 39.2218 13.7183C39.2163 13.7128 39.2108 13.7073 39.2053 13.7018C38.9792 13.4922 38.7475 13.2881 38.5159 13.0896C38.2843 12.8911 38.0471 12.687 37.8045 12.494C37.5618 12.301 37.3191 12.1079 37.071 11.9204C36.8228 11.7329 36.5746 11.5454 36.3209 11.3689C36.3154 11.3634 36.3099 11.3634 36.3099 11.3579C36.3044 11.3579 36.2989 11.3524 36.2989 11.3524C36.2933 11.3524 36.2878 11.3469 36.2878 11.3469C36.2823 11.3469 36.2768 11.3413 36.2768 11.3413C36.2713 11.3358 36.2603 11.3358 36.2547 11.3303C36.2492 11.3248 36.2382 11.3248 36.2327 11.3193C36.2272 11.3138 36.2161 11.3138 36.2106 11.3138C36.2051 11.3138 36.1941 11.3083 36.1886 11.3083C36.1665 11.3027 36.15 11.3027 36.1279 11.3027C36.1114 11.3027 36.0893 11.3083 36.0728 11.3083C36.0562 11.3138 36.0397 11.3193 36.0286 11.3303C36.0176 11.3413 36.0011 11.3524 35.9955 11.3689C35.9183 11.4902 36.0452 11.6447 36.1389 11.7108C37.1151 12.4057 38.0471 13.1558 38.9295 13.9665L39.1115 14.0713Z" fill="#FEFEFE"/>
<path d="M29.9506 8.40783C29.9616 8.41334 29.9727 8.41335 29.9837 8.41886C29.9947 8.42438 30.0058 8.42438 30.0168 8.42989C30.0278 8.43541 30.0389 8.4354 30.0499 8.44092C30.0609 8.44643 30.0719 8.44644 30.083 8.45195C30.105 8.45747 30.1216 8.46849 30.1436 8.47401C30.1657 8.47952 30.1822 8.49056 30.2043 8.49607C30.2264 8.50159 30.2429 8.51261 30.265 8.51813C30.287 8.52364 30.3036 8.53468 30.3256 8.54019C30.3312 8.54019 30.3311 8.54571 30.3367 8.54571C30.3422 8.54571 30.3422 8.55123 30.3477 8.55123C30.3532 8.55123 30.3532 8.55674 30.3587 8.55674C30.3642 8.55674 30.3642 8.56225 30.3698 8.56225C30.4635 8.60086 30.5573 8.63394 30.6455 8.67255C30.7393 8.71115 30.833 8.74976 30.9213 8.78837C31.0095 8.82697 31.1088 8.86558 31.197 8.90419C31.2908 8.94279 31.3845 8.98691 31.4728 9.02551C32.0243 9.27369 32.5703 9.53841 33.1052 9.81968L33.2045 9.8638C33.2872 9.88034 33.3975 9.85828 33.4141 9.75901C33.4196 9.73144 33.4196 9.70386 33.4141 9.67629C33.4085 9.64871 33.3975 9.62114 33.381 9.58805C33.3644 9.56047 33.3424 9.5329 33.3203 9.50532C33.2927 9.47775 33.2651 9.45569 33.2321 9.43363C33.2321 9.43363 33.2265 9.43363 33.2265 9.42811C33.2265 9.42811 33.221 9.42811 33.221 9.42259C33.221 9.42259 33.2155 9.4226 33.2155 9.41708C33.2155 9.41708 33.21 9.41708 33.21 9.41157C33.1328 9.37296 33.0556 9.32884 32.9784 9.29024C32.9012 9.25163 32.8239 9.21303 32.7467 9.16891C32.6695 9.1303 32.5923 9.09169 32.5151 9.05309C32.4379 9.01448 32.3607 8.97588 32.2835 8.93728C32.2835 8.93728 32.278 8.93727 32.278 8.93176C32.278 8.93176 32.2724 8.93176 32.2724 8.92624C32.2724 8.92624 32.2669 8.92625 32.2669 8.92073C32.2669 8.92073 32.2614 8.92073 32.2614 8.91521C32.2504 8.9097 32.2449 8.90419 32.2338 8.90419C32.2228 8.89867 32.2173 8.89316 32.2063 8.89316C32.1952 8.88764 32.1897 8.88764 32.1787 8.88212C32.1677 8.87661 32.1621 8.87109 32.1511 8.87109C31.9691 8.78285 31.7871 8.70013 31.6051 8.6174C31.4231 8.53468 31.2411 8.45746 31.0591 8.38025C30.8771 8.30304 30.6951 8.22584 30.5131 8.15414C30.3311 8.08245 30.1492 8.01075 29.9616 7.94457C29.9561 7.94457 29.9506 7.93906 29.9451 7.93906C29.9396 7.93906 29.9341 7.93905 29.9286 7.93354C29.923 7.93354 29.9175 7.93354 29.912 7.92802C29.9065 7.92251 29.901 7.92802 29.901 7.9225C29.8679 7.91699 29.8403 7.91699 29.8182 7.91699C29.7907 7.92251 29.7686 7.92803 29.7521 7.93906C29.73 7.95009 29.719 7.96662 29.708 7.98317C29.6969 7.99971 29.6914 8.0273 29.6914 8.04936C29.6914 8.08245 29.6969 8.11002 29.7135 8.14311C29.7245 8.1762 29.7466 8.20377 29.7741 8.23687C29.7962 8.26444 29.8293 8.29201 29.8624 8.31408C29.8789 8.37474 29.912 8.3968 29.9506 8.40783Z" fill="#FEFEFE"/>
<path d="M43.7669 19.5089C43.7945 19.5034 43.8166 19.4924 43.8331 19.4814C43.8497 19.4648 43.8607 19.4483 43.8717 19.4317C43.8773 19.4097 43.8828 19.3876 43.8828 19.3655C43.8828 19.338 43.8772 19.3159 43.8607 19.2828C43.8607 19.2773 43.8552 19.2718 43.8552 19.2718C43.8552 19.2663 43.8497 19.2608 43.8497 19.2608C43.8497 19.2552 43.8442 19.2552 43.8442 19.2497C43.8442 19.2442 43.8386 19.2387 43.8386 19.2387C43.6842 18.996 43.5243 18.7479 43.3588 18.5052C43.1934 18.2625 43.0224 18.0199 42.8515 17.7827C42.675 17.5456 42.4985 17.3029 42.311 17.0658C42.1235 16.8286 41.936 16.597 41.7429 16.3654C41.7374 16.3598 41.7374 16.3543 41.7319 16.3488C41.7264 16.3433 41.7209 16.3378 41.7209 16.3378C41.7154 16.3323 41.7098 16.3268 41.7043 16.3268C41.6988 16.3212 41.6933 16.3212 41.6878 16.3157C41.6768 16.3047 41.6602 16.2937 41.6437 16.2826C41.6271 16.2716 41.6106 16.2661 41.5995 16.2551C41.583 16.2495 41.5664 16.2385 41.5499 16.233C41.5334 16.2275 41.5168 16.222 41.5003 16.222C41.4562 16.2109 41.4065 16.2109 41.3624 16.233C41.23 16.2937 41.3072 16.4701 41.3734 16.5474C42.1124 17.4298 42.7908 18.3563 43.403 19.3269C43.4581 19.4262 43.5629 19.4979 43.6732 19.52L43.7669 19.5089Z" fill="#FEFEFE"/>
<path d="M26.7357 7.49258C26.7688 7.49809 26.8074 7.49809 26.835 7.49258C26.8681 7.48706 26.8901 7.47603 26.9122 7.45949C26.9342 7.44294 26.9508 7.42088 26.9618 7.39882C26.9728 7.37125 26.9728 7.34368 26.9673 7.31059C26.9398 7.17271 26.8239 7.05689 26.6861 7.0238L26.6199 7.01277C26.5868 7.00726 26.5537 7.00174 26.5206 6.99071C26.4875 6.9852 26.4544 6.97968 26.4213 6.96865C26.3883 6.96313 26.3552 6.95762 26.3221 6.9521C26.289 6.94659 26.2559 6.94108 26.2228 6.93556C26.2118 6.93556 26.2007 6.93005 26.1952 6.93005C26.1842 6.93005 26.1732 6.92453 26.1677 6.92453C26.1566 6.92453 26.1456 6.91902 26.1401 6.91902C26.129 6.91902 26.118 6.9135 26.1125 6.9135C26.107 6.9135 26.1015 6.9135 26.096 6.90798C26.0904 6.90798 26.0849 6.90799 26.0794 6.90247C26.0739 6.90247 26.0684 6.90247 26.0629 6.89696C26.0574 6.89696 26.0518 6.89695 26.0463 6.89144C25.8698 6.85835 25.6878 6.83078 25.5114 6.80872C25.3349 6.78114 25.1584 6.75908 24.9819 6.74253C24.8054 6.72047 24.629 6.70393 24.4525 6.6929C24.276 6.67635 24.105 6.66533 23.9341 6.6543C23.9286 6.6543 23.923 6.6543 23.9175 6.6543C23.912 6.6543 23.9065 6.6543 23.901 6.6543C23.8955 6.6543 23.8899 6.6543 23.8844 6.6543C23.8789 6.6543 23.8734 6.6543 23.8679 6.6543C23.8624 6.6543 23.8513 6.6543 23.8458 6.6543C23.8348 6.6543 23.8293 6.6543 23.8238 6.6543C23.8183 6.6543 23.8072 6.6543 23.8017 6.6543C23.7962 6.6543 23.7852 6.6543 23.7796 6.6543C23.7631 6.6543 23.741 6.6543 23.7245 6.6543C23.708 6.6543 23.6859 6.6543 23.6693 6.6543C23.6528 6.6543 23.6307 6.6543 23.6142 6.6543C23.5976 6.6543 23.5756 6.6543 23.559 6.6543C23.559 6.6543 23.559 6.6543 23.5535 6.6543C23.5535 6.6543 23.5535 6.6543 23.548 6.6543C23.548 6.6543 23.548 6.6543 23.5425 6.6543C23.5425 6.6543 23.5425 6.6543 23.537 6.6543C23.4046 6.65981 23.355 6.78114 23.4046 6.89144C23.4487 7.01277 23.5756 7.10653 23.7024 7.12859L23.7521 7.13961C23.9782 7.14513 24.2043 7.15617 24.4304 7.17271C24.6565 7.18926 24.8882 7.21131 25.1198 7.23889C25.3514 7.26646 25.5831 7.29404 25.8202 7.33264C26.0574 7.36573 26.2945 7.40985 26.5316 7.45397C26.5372 7.45397 26.5372 7.45397 26.5427 7.45397C26.5482 7.45397 26.5482 7.45397 26.5537 7.45397C26.5592 7.45397 26.5592 7.45397 26.5647 7.45397C26.5703 7.45397 26.5703 7.45397 26.5758 7.45397C26.5923 7.45949 26.6089 7.45949 26.6254 7.46501C26.6419 7.47052 26.6585 7.47052 26.675 7.47603C26.6916 7.48155 26.7081 7.48155 26.7247 7.48706C26.7026 7.48155 26.7192 7.48706 26.7357 7.49258Z" fill="#FEFEFE"/>
<path d="M45.868 25.0738C45.8736 25.1069 45.8901 25.1399 45.9122 25.173C45.9342 25.2061 45.9563 25.2392 45.9894 25.2668C46.017 25.2944 46.05 25.3219 46.0887 25.3385C46.1217 25.3605 46.1603 25.3716 46.1934 25.3771C46.3148 25.3991 46.4361 25.344 46.403 25.2061C46.3975 25.1785 46.392 25.1565 46.3865 25.1289C46.3809 25.1124 46.3809 25.0958 46.3754 25.0793C46.3699 25.0627 46.3699 25.0462 46.3644 25.0296C46.3589 25.0131 46.3589 24.9966 46.3534 24.98C46.3534 24.969 46.3479 24.9635 46.3479 24.9524C46.3479 24.9414 46.3423 24.9359 46.3423 24.9249C46.3423 24.9138 46.3368 24.9083 46.3368 24.8973C46.3368 24.8863 46.3313 24.8807 46.3313 24.8697C46.3313 24.8642 46.3258 24.8587 46.3258 24.8476C46.3258 24.8421 46.3203 24.8366 46.3203 24.8256C46.3203 24.8201 46.3148 24.8146 46.3148 24.8035C46.3148 24.798 46.3093 24.7925 46.3093 24.7815C46.3037 24.7704 46.3037 24.7594 46.2982 24.7429C46.2927 24.7318 46.2927 24.7208 46.2872 24.7043C46.2817 24.6932 46.2817 24.6822 46.2762 24.6656C46.2706 24.6546 46.2706 24.6436 46.2651 24.627C46.2651 24.6215 46.2651 24.6215 46.2651 24.616C46.2651 24.6105 46.2651 24.6105 46.2651 24.605C46.2651 24.5995 46.2651 24.5995 46.2651 24.594C46.2651 24.5884 46.2651 24.5884 46.2651 24.5829C46.2596 24.5719 46.2596 24.5609 46.2541 24.5443C46.2486 24.5333 46.2486 24.5223 46.2431 24.5057C46.2376 24.4947 46.2376 24.4836 46.232 24.4671C46.2265 24.4561 46.2265 24.445 46.221 24.4285C46.221 24.423 46.221 24.423 46.221 24.4175C46.221 24.412 46.221 24.412 46.2155 24.4064C46.2155 24.4009 46.2155 24.4009 46.2155 24.3954C46.2155 24.3899 46.2155 24.3899 46.21 24.3844C46.2045 24.3734 46.2045 24.3623 46.199 24.3513C46.199 24.3403 46.1934 24.3292 46.1879 24.3182C46.1824 24.3072 46.1824 24.2961 46.1769 24.2851C46.1714 24.2741 46.1714 24.263 46.1659 24.252C46.1659 24.2465 46.1603 24.241 46.1603 24.2355C46.1603 24.23 46.1603 24.2244 46.1548 24.2189C46.1548 24.2134 46.1493 24.2079 46.1493 24.2024C46.1493 24.1969 46.1438 24.1914 46.1438 24.1858C46.1438 24.1748 46.1383 24.1693 46.1328 24.1583C46.1328 24.1472 46.1273 24.1362 46.1217 24.1307C46.1162 24.1197 46.1162 24.1086 46.1107 24.1031C46.1052 24.0921 46.1052 24.0866 46.0997 24.0755C46.0997 24.07 46.0942 24.0645 46.0942 24.0535C46.0942 24.048 46.0887 24.0424 46.0887 24.0314C46.0887 24.0259 46.0831 24.0204 46.0831 24.0094C46.0831 24.0038 46.0776 23.9983 46.0776 23.9873C46.0776 23.9818 46.0721 23.9708 46.0721 23.9652C46.0721 23.9597 46.0666 23.9487 46.0666 23.9432C46.0666 23.9377 46.0611 23.9266 46.0611 23.9211C46.0611 23.9156 46.0556 23.9046 46.0556 23.8991C46.0556 23.888 46.05 23.877 46.0445 23.8715C46.039 23.8605 46.039 23.8494 46.0335 23.8439C46.028 23.8329 46.028 23.8218 46.0225 23.8163C46.017 23.8053 46.017 23.7943 46.0114 23.7888C46.0114 23.7832 46.0114 23.7777 46.0059 23.7777C46.0059 23.7722 46.0059 23.7667 46.0004 23.7667C46.0004 23.7612 46.0004 23.7557 45.9949 23.7557C45.9949 23.7502 45.9949 23.7446 45.9894 23.7446C45.9453 23.6123 45.9011 23.4799 45.857 23.3531C45.8129 23.2207 45.7633 23.0883 45.7136 22.9615C45.664 22.8291 45.6144 22.7023 45.5592 22.5699C45.5096 22.4376 45.4544 22.3107 45.3993 22.1784C45.3993 22.1729 45.3938 22.1729 45.3938 22.1673C45.3938 22.1618 45.3882 22.1618 45.3882 22.1563C45.3882 22.1508 45.3827 22.1508 45.3827 22.1453C45.3827 22.1398 45.3772 22.1398 45.3772 22.1342C45.3607 22.1067 45.3441 22.0846 45.3221 22.0626C45.3 22.0405 45.2779 22.0184 45.2559 22.0019C45.2338 21.9853 45.2062 21.9688 45.1842 21.9578C45.1566 21.9467 45.1346 21.9357 45.107 21.9302C45.0849 21.9247 45.0684 21.9247 45.0463 21.9247C45.0132 21.9247 44.9856 21.9302 44.9581 21.9412C44.936 21.9523 44.9139 21.9688 44.9029 21.9909C44.8919 22.0129 44.8809 22.035 44.8809 22.0681C44.8809 22.0956 44.8864 22.1287 44.9029 22.1618C44.9967 22.3824 45.0904 22.6085 45.1732 22.8291C45.2559 23.0497 45.3386 23.2759 45.4158 23.4965C45.493 23.7171 45.5592 23.9432 45.6254 24.1638C45.6916 24.3844 45.7522 24.6105 45.8074 24.8311C45.8074 24.8311 45.8074 24.8311 45.8074 24.8366C45.8074 24.8366 45.8074 24.8366 45.8074 24.8421C45.8074 24.8421 45.8074 24.8421 45.8074 24.8476C45.8074 24.8476 45.8074 24.8476 45.8074 24.8532C45.8129 24.8697 45.8129 24.8863 45.8184 24.8973C45.8239 24.9138 45.8239 24.9304 45.8294 24.9414C45.835 24.9579 45.835 24.9745 45.8405 24.991C45.8625 25.0462 45.8625 25.0572 45.868 25.0738Z" fill="#FEFEFE"/>
<path d="M20.8736 7.32075C20.9067 7.31523 20.9287 7.3042 20.9508 7.28766C20.9729 7.27111 20.9839 7.24906 20.9894 7.22148C20.9949 7.19391 21.0004 7.16633 20.9894 7.13875C20.9839 7.10566 20.9673 7.07809 20.9508 7.045C20.9343 7.02294 20.9177 6.99537 20.8956 6.97331C20.8736 6.95125 20.8515 6.9347 20.8295 6.91815C20.8074 6.90161 20.7798 6.88506 20.7523 6.87403C20.7247 6.863 20.7026 6.85197 20.675 6.84645C20.6695 6.84645 20.6585 6.84646 20.653 6.84094C20.6475 6.84094 20.6364 6.84094 20.6309 6.84094C20.6254 6.84094 20.6144 6.84094 20.6089 6.84094C20.6034 6.84094 20.5923 6.84094 20.5868 6.84094C19.6934 6.99536 18.811 7.25457 17.9782 7.61856C17.9727 7.61856 17.9727 7.62408 17.9672 7.62408C17.9616 7.62408 17.9617 7.62959 17.9561 7.62959C17.9506 7.62959 17.9506 7.63511 17.9451 7.63511L17.9396 7.64062C17.8458 7.72335 17.901 7.86123 17.9672 7.93844L18.2098 8.08734L18.3477 8.08182C18.5407 7.99358 18.7393 7.91637 18.9433 7.83916C19.1474 7.76195 19.3514 7.69577 19.5665 7.62959C19.7761 7.56341 19.9912 7.50826 20.2118 7.45311C20.4324 7.40899 20.653 7.36487 20.8736 7.32075C20.9067 7.31523 20.653 7.36487 20.8736 7.32075Z" fill="#FEFEFE"/>
<path d="M46.2486 27.9094C46.2541 28.1355 46.2486 28.3562 46.2376 28.5768C46.2265 28.7974 46.2155 29.018 46.1934 29.233C46.1714 29.4481 46.1438 29.6632 46.1107 29.8783C46.0776 30.0879 46.039 30.2974 45.9894 30.507C45.9563 30.6504 46.0942 30.7938 46.2045 30.8489L46.3037 30.882C46.3258 30.8875 46.3479 30.8876 46.3699 30.8876C46.392 30.8876 46.4085 30.882 46.4251 30.8765C46.4416 30.871 46.4582 30.86 46.4692 30.8545C46.4802 30.8434 46.4912 30.8324 46.5023 30.8159C46.5078 30.8048 46.5133 30.7938 46.5133 30.7828C46.5519 30.6173 46.585 30.4519 46.6181 30.2809C46.6457 30.1099 46.6732 29.939 46.6953 29.768C46.7174 29.597 46.7339 29.4205 46.7449 29.2441C46.756 29.0676 46.767 28.8911 46.7725 28.7091C46.7725 28.7036 46.7725 28.7036 46.7725 28.6981C46.7725 28.6926 46.7725 28.6926 46.7725 28.6871C46.7725 28.6815 46.7725 28.6815 46.7725 28.676C46.7725 28.6705 46.7725 28.6705 46.7725 28.665C46.7725 28.6595 46.7725 28.654 46.7725 28.6429C46.7725 28.6319 46.7725 28.6319 46.7725 28.6209C46.7725 28.6154 46.7725 28.6098 46.7725 28.5988C46.7725 28.5933 46.7725 28.5878 46.7725 28.5768C46.7725 28.5381 46.7725 28.494 46.7725 28.4554C46.7725 28.4168 46.7725 28.3727 46.7725 28.3341C46.7725 28.2955 46.7725 28.2514 46.7725 28.2128C46.7725 28.1742 46.7725 28.13 46.7725 28.0914C46.767 27.9425 46.6291 27.8102 46.4968 27.766C46.4912 27.766 46.4912 27.7605 46.4857 27.7605C46.4802 27.7605 46.4802 27.7605 46.4747 27.755C46.4692 27.755 46.4692 27.755 46.4637 27.7495C46.4582 27.7495 46.4582 27.7495 46.4526 27.7495C46.4251 27.744 46.3975 27.744 46.3699 27.7495C46.3423 27.755 46.3203 27.7605 46.3037 27.7771C46.2872 27.7881 46.2706 27.8102 46.2596 27.8267C46.2486 27.8543 46.2431 27.8819 46.2486 27.9094C46.2486 28.13 46.2431 27.8819 46.2486 27.9094Z" fill="#FEFEFE"/>
<path d="M14.6632 11.177C14.7735 11.0115 14.8893 10.8461 15.0107 10.6862C15.132 10.5262 15.2588 10.3718 15.3912 10.2229C15.5236 10.074 15.6614 9.92508 15.8104 9.7872C15.9537 9.64933 16.1026 9.51146 16.2626 9.38461C16.3784 9.29085 16.2791 9.11989 16.1909 9.04819C16.1743 9.03165 16.1578 9.02061 16.1413 9.00958C16.1247 8.99855 16.1082 8.98752 16.0861 8.97649C16.0696 8.96546 16.053 8.95995 16.0309 8.95444C16.0144 8.94892 15.9979 8.94341 15.9758 8.93789C15.9648 8.93789 15.9537 8.93237 15.9427 8.93237C15.9317 8.93237 15.9207 8.93237 15.9096 8.93237C15.8986 8.93237 15.8876 8.93238 15.8765 8.93789C15.8655 8.93789 15.8545 8.94341 15.849 8.94341C15.8324 8.94892 15.8214 8.95444 15.8048 8.96547C15.6449 9.09783 15.4905 9.2357 15.3361 9.38461C15.1872 9.528 15.0438 9.6769 14.9059 9.83684C14.768 9.99126 14.6356 10.1512 14.5088 10.3167C14.382 10.4821 14.2661 10.6475 14.1503 10.8185C14.1503 10.824 14.1448 10.8295 14.1448 10.8295C14.1448 10.8351 14.1393 10.8406 14.1393 10.8406C14.1393 10.8461 14.1338 10.8516 14.1338 10.8571C14.1338 10.8626 14.1338 10.8682 14.1283 10.8737C14.1062 10.9895 14.2 11.1053 14.2882 11.1715L14.4537 11.2487L14.6632 11.177Z" fill="#FEFEFE"/>
<path d="M45.1064 32.7839C44.7203 33.4898 44.2129 34.1296 43.6338 34.6866C43.5401 34.7914 43.6338 34.9568 43.7166 35.034L43.9261 35.1388L44.0806 35.1057L44.0971 35.1002C44.246 34.9568 44.3894 34.8079 44.5273 34.6535C44.6652 34.4991 44.7975 34.3391 44.9244 34.1792C45.0512 34.0137 45.1725 33.8483 45.2884 33.6773C45.4042 33.5064 45.5089 33.3299 45.6082 33.1479C45.6082 33.1424 45.6137 33.1424 45.6137 33.1369C45.6137 33.1313 45.6193 33.1313 45.6193 33.1258C45.6193 33.1203 45.6192 33.1148 45.6248 33.1148C45.6248 33.1093 45.6248 33.1038 45.6303 33.0983C45.6468 32.9769 45.5531 32.8611 45.4648 32.7949C45.4538 32.7839 45.4373 32.7784 45.4262 32.7673C45.4152 32.7618 45.3987 32.7508 45.3876 32.7453C45.3766 32.7398 45.36 32.7343 45.349 32.7287C45.338 32.7232 45.3214 32.7232 45.3104 32.7177C45.2332 32.7067 45.1505 32.7177 45.1064 32.7839C45.0071 32.9604 45.1174 32.7673 45.1064 32.7839Z" fill="#FEFEFE"/>
<path d="M13.0259 16.1175C13.0534 16.123 13.081 16.1231 13.1031 16.1231C13.1251 16.1231 13.1472 16.112 13.1693 16.1065C13.1913 16.0955 13.2079 16.0844 13.2189 16.0679C13.2299 16.0514 13.241 16.0348 13.2465 16.0072C13.2465 15.9962 13.252 15.9907 13.252 15.9797C13.2575 15.8418 13.263 15.7039 13.2685 15.5715C13.2796 15.4337 13.2906 15.3013 13.3016 15.169C13.3127 15.0366 13.3292 14.9042 13.3457 14.7719C13.3623 14.6395 13.3843 14.5127 13.4064 14.3858C13.423 14.3031 13.4395 14.2148 13.456 14.1321C13.4726 14.0494 13.4891 13.9667 13.5112 13.8839C13.5277 13.8012 13.5498 13.7185 13.5719 13.6413C13.5939 13.5586 13.616 13.4813 13.638 13.3986C13.6822 13.2607 13.5498 13.1174 13.4395 13.0567C13.4285 13.0512 13.4174 13.0457 13.4119 13.0457C13.4064 13.0457 13.3954 13.0401 13.3843 13.0346C13.3733 13.0291 13.3678 13.0291 13.3568 13.0236C13.3457 13.0236 13.3402 13.0181 13.3292 13.0181C13.3071 13.0126 13.2851 13.0126 13.263 13.0126C13.241 13.0126 13.2244 13.0181 13.2079 13.0236C13.1913 13.0291 13.1748 13.0346 13.1582 13.0457C13.1417 13.0567 13.1307 13.0677 13.1251 13.0788C13.1251 13.0788 13.1196 13.0843 13.1196 13.0898C13.1196 13.0898 13.1141 13.0953 13.1141 13.1008C13.1141 13.1063 13.1086 13.1063 13.1086 13.1118C13.1086 13.1174 13.1086 13.1174 13.1031 13.1229C13.0424 13.3269 12.9873 13.542 12.9376 13.7571C12.888 13.9722 12.8494 14.1928 12.8163 14.4134C12.7832 14.634 12.7556 14.8601 12.7336 15.0917C12.7115 15.3234 12.7005 15.5495 12.6895 15.7866C12.6895 15.7921 12.6895 15.7922 12.6895 15.7977C12.6895 15.8032 12.6895 15.8087 12.6895 15.8087C12.6895 15.8142 12.6895 15.8197 12.6895 15.8197C12.6895 15.8252 12.6895 15.8308 12.6895 15.8308C12.717 15.9631 12.8384 16.0679 12.9597 16.112L13.0259 16.1175Z" fill="#FEFEFE"/>
<path d="M12.9482 18.6879C12.9482 18.6934 12.9482 18.6934 12.9482 18.6989C12.9538 18.7375 12.9648 18.7816 12.9703 18.8202C12.9758 18.8368 12.9758 18.8533 12.9813 18.8699C12.9868 18.8864 12.9868 18.9029 12.9924 18.9195C12.9979 18.936 12.9979 18.9526 13.0034 18.9691V18.9746V18.9801V18.9857C13.0034 18.9912 13.0034 18.9912 13.0034 18.9967C13.0034 19.0077 13.0089 19.0243 13.0144 19.0353C13.0199 19.0463 13.0199 19.0629 13.0255 19.0739C13.031 19.0849 13.031 19.1015 13.0365 19.1125C13.042 19.1235 13.042 19.1401 13.0475 19.1511C13.0475 19.1621 13.053 19.1677 13.053 19.1787C13.053 19.1842 13.0585 19.1952 13.0585 19.2008C13.0585 19.2063 13.0641 19.2173 13.0641 19.2228C13.0641 19.2283 13.0696 19.2394 13.0696 19.2449C13.0696 19.2504 13.0751 19.2614 13.0751 19.2669C13.0751 19.2724 13.0806 19.2835 13.0806 19.289C13.0806 19.2945 13.0861 19.3055 13.0861 19.3111C13.0861 19.3166 13.0916 19.3276 13.0916 19.3331C13.0916 19.3441 13.0971 19.3552 13.0971 19.3607C13.0971 19.3717 13.1027 19.3827 13.1027 19.3883C13.1027 19.3993 13.1082 19.4103 13.1082 19.4158C13.1082 19.4269 13.1137 19.4379 13.1137 19.4434C13.1137 19.4489 13.1192 19.4544 13.1192 19.46C13.1192 19.4655 13.1247 19.471 13.1247 19.4765C13.1247 19.482 13.1302 19.4875 13.1302 19.4931C13.1302 19.4986 13.1302 19.5041 13.1358 19.5096C13.1358 19.5206 13.1413 19.5317 13.1468 19.5427C13.1523 19.5537 13.1523 19.5647 13.1578 19.5758C13.1633 19.5868 13.1633 19.5978 13.1688 19.6089C13.1744 19.6199 13.1744 19.6309 13.1799 19.642C13.1799 19.6475 13.1799 19.653 13.1854 19.6585C13.1854 19.664 13.1854 19.6695 13.1909 19.675C13.1909 19.6806 13.1909 19.6861 13.1964 19.6916C13.1964 19.6971 13.1964 19.7026 13.2019 19.7081C13.2019 19.7192 13.2075 19.7302 13.213 19.7412C13.213 19.7523 13.2185 19.7633 13.224 19.7743C13.224 19.7853 13.2295 19.7964 13.235 19.8074C13.2405 19.8184 13.2405 19.8295 13.2461 19.8405C13.2461 19.846 13.2516 19.8515 13.2516 19.857C13.2516 19.8626 13.2571 19.8681 13.2571 19.8736C13.2571 19.8791 13.2626 19.8846 13.2626 19.8901C13.2626 19.8956 13.2681 19.9012 13.2681 19.9067C13.2736 19.9177 13.2736 19.9287 13.2791 19.9398C13.2847 19.9508 13.2847 19.9618 13.2902 19.9729C13.2957 19.9839 13.2957 19.9949 13.3012 20.0059C13.3067 20.017 13.3067 20.028 13.3122 20.039C13.3122 20.0445 13.3177 20.0501 13.3177 20.0556C13.3177 20.0611 13.3233 20.0666 13.3233 20.0721C13.3233 20.0776 13.3288 20.0832 13.3288 20.0942C13.3288 20.0997 13.3343 20.1052 13.3343 20.1107C13.3343 20.1218 13.3398 20.1273 13.3398 20.1383C13.3453 20.1493 13.3453 20.1549 13.3508 20.1659C13.3564 20.1769 13.3564 20.1824 13.3619 20.1935C13.3619 20.2045 13.3674 20.21 13.3729 20.221C13.3729 20.2265 13.3784 20.2376 13.3784 20.2431C13.3784 20.2486 13.3839 20.2596 13.3839 20.2652C13.3839 20.2707 13.3894 20.2817 13.3894 20.2872C13.3894 20.2927 13.395 20.3038 13.395 20.3093C13.395 20.3203 13.4005 20.3258 13.406 20.3369C13.406 20.3479 13.4115 20.3534 13.417 20.3644C13.417 20.3755 13.4225 20.381 13.4281 20.392C13.4281 20.403 13.4336 20.4085 13.4391 20.4196C13.4391 20.4251 13.4446 20.4361 13.4446 20.4416C13.4446 20.4472 13.4501 20.4582 13.4501 20.4637C13.4501 20.4692 13.4556 20.4802 13.4556 20.4858C13.4556 20.4913 13.4611 20.5023 13.4611 20.5078C13.4611 20.5133 13.4667 20.5188 13.4667 20.5299C13.4667 20.5354 13.4722 20.5409 13.4722 20.5519C13.4722 20.5575 13.4777 20.563 13.4777 20.574C13.4777 20.5795 13.4832 20.585 13.4832 20.5961C13.4887 20.6071 13.4887 20.6181 13.4942 20.6291C13.4997 20.6402 13.4997 20.6512 13.5053 20.6622C13.5108 20.6733 13.5108 20.6843 13.5163 20.6953C13.5218 20.7064 13.5218 20.7174 13.5273 20.7229C13.5273 20.7284 13.5328 20.7339 13.5328 20.7394C13.5328 20.745 13.5384 20.7505 13.5384 20.756C13.5384 20.7615 13.5439 20.767 13.5439 20.7725C13.5439 20.778 13.5494 20.7836 13.5494 20.7891C13.5549 20.8001 13.5604 20.8111 13.5604 20.8277C13.5659 20.8387 13.5714 20.8497 13.5714 20.8663C13.577 20.8773 13.5825 20.8884 13.5825 20.9049C13.588 20.9159 13.5935 20.927 13.5935 20.9435C13.5935 20.9435 13.5935 20.949 13.599 20.9545C13.599 20.9545 13.599 20.9601 13.6045 20.9601C13.6045 20.9601 13.6045 20.9656 13.61 20.9711V20.9766C13.6156 20.9931 13.6211 21.0042 13.6266 21.0207C13.6321 21.0373 13.6376 21.0483 13.6431 21.0648C13.6487 21.0814 13.6542 21.0924 13.6597 21.109C13.6652 21.1255 13.6707 21.1365 13.6762 21.1531C13.6762 21.1531 13.6762 21.1531 13.6762 21.1586C13.6762 21.1586 13.6762 21.1586 13.6762 21.1641C13.6762 21.1641 13.6762 21.1641 13.6762 21.1696C13.759 21.3957 13.8417 21.6218 13.9354 21.848C13.9354 21.848 13.9354 21.848 13.9354 21.8535C13.9354 21.8535 13.9354 21.8535 13.9354 21.859C13.9354 21.859 13.9354 21.859 13.9354 21.8645C13.9354 21.8645 13.9354 21.8645 13.9354 21.87C13.9851 21.9858 14.1119 22.0796 14.2332 22.1017L14.2829 22.1127C14.3215 22.1127 14.3546 22.1072 14.3821 22.0961C14.4097 22.0851 14.4263 22.0631 14.4428 22.041C14.4538 22.0189 14.4649 21.9914 14.4649 21.9583C14.4649 21.9252 14.4594 21.8921 14.4428 21.859V21.8535V21.848V21.8425V21.8369C14.3546 21.6219 14.2719 21.4068 14.1946 21.1917C14.1174 20.9766 14.0457 20.7615 13.974 20.5464C13.9079 20.3313 13.8417 20.1162 13.7865 19.9012C13.7259 19.6861 13.6762 19.471 13.6266 19.2614C13.6211 19.2449 13.6211 19.2283 13.6156 19.2173C13.61 19.2008 13.61 19.1897 13.6045 19.1732C13.599 19.1566 13.599 19.1456 13.5935 19.1291C13.588 19.1125 13.588 19.1015 13.5825 19.0849C13.5714 19.0243 13.5549 18.9581 13.5439 18.8974C13.5384 18.8423 13.5163 18.7761 13.4887 18.7265C13.4667 18.6934 13.4446 18.6658 13.417 18.6382C13.3894 18.6106 13.3564 18.5886 13.3233 18.572C13.2902 18.5555 13.2516 18.5389 13.213 18.5334C13.1744 18.5279 13.1413 18.5279 13.1082 18.5334C13.0751 18.5389 13.053 18.55 13.031 18.5665C13.0089 18.5831 12.9979 18.6051 12.9868 18.6272C12.9482 18.6272 12.9482 18.6548 12.9482 18.6879Z" fill="#FEFEFE"/>
<path d="M33.1771 37.0138C33.1385 37.0083 33.1054 37.0083 33.0778 37.0138C33.0448 37.0193 33.0227 37.0358 33.0006 37.0524C32.9786 37.0689 32.962 37.0965 32.9565 37.1241C32.9455 37.1517 32.9455 37.1847 32.9565 37.2178C32.9896 37.3612 33.1275 37.4936 33.2709 37.5212L33.2929 37.5267C33.4804 37.5598 33.668 37.5929 33.8555 37.6204C34.0319 37.648 34.2029 37.6701 34.3794 37.6921C34.5504 37.7142 34.7268 37.7307 34.8978 37.7473C35.0688 37.7638 35.2397 37.7748 35.4107 37.7859H35.4162H35.4217H35.4273H35.4328C35.4438 37.7859 35.4603 37.7859 35.4714 37.7859C35.4824 37.7859 35.4989 37.7859 35.51 37.7859C35.521 37.7859 35.5376 37.7859 35.5486 37.7859C35.5596 37.7859 35.5762 37.7859 35.5872 37.7859C35.5927 37.7859 35.6037 37.7859 35.6092 37.7859C35.6148 37.7859 35.6258 37.7859 35.6313 37.7859C35.6368 37.7859 35.6478 37.7859 35.6534 37.7859C35.6589 37.7859 35.6699 37.7859 35.6754 37.7859C35.6809 37.7859 35.692 37.7859 35.6975 37.7859C35.703 37.7859 35.714 37.7859 35.7195 37.7859C35.7251 37.7859 35.7306 37.7859 35.7416 37.7859C35.7471 37.7859 35.7582 37.7859 35.7637 37.7859C35.7747 37.7859 35.7912 37.7859 35.8023 37.7859C35.8133 37.7859 35.8298 37.7859 35.8409 37.7859C35.8519 37.7859 35.8685 37.7859 35.8795 37.7859C35.8905 37.7859 35.9071 37.7859 35.9181 37.7859C35.9677 37.7859 36.0174 37.7859 36.067 37.7914C36.1166 37.7914 36.1663 37.7914 36.2159 37.7914C36.2655 37.7914 36.3152 37.7914 36.3593 37.7914C36.4089 37.7914 36.453 37.7914 36.5027 37.7914C36.5358 37.7914 36.5689 37.7859 36.5909 37.7693C36.613 37.7583 36.635 37.7362 36.6461 37.7142C36.6571 37.6921 36.6626 37.6645 36.6626 37.6315C36.6626 37.5984 36.6516 37.5653 36.6406 37.5322C36.6295 37.4991 36.6075 37.4715 36.5909 37.444C36.5689 37.4164 36.5468 37.3888 36.5192 37.3667C36.4916 37.3447 36.4641 37.3226 36.431 37.3116C36.3979 37.295 36.3703 37.284 36.3372 37.2785H36.3317H36.3262H36.3207H36.3152H36.3097H36.3041H36.2986H36.2931C36.0615 37.2785 35.8243 37.273 35.5872 37.2675C35.35 37.2564 35.1074 37.2399 34.8647 37.2233C34.6221 37.2013 34.3794 37.1792 34.1312 37.1461C33.883 37.113 33.6349 37.08 33.3867 37.0358C33.3701 37.0358 33.3536 37.0303 33.3371 37.0248C33.3205 37.0248 33.304 37.0193 33.2874 37.0138C33.2709 37.0138 33.2543 37.0083 33.2378 37.0027C33.2102 37.0193 33.1937 37.0193 33.1771 37.0138Z" fill="#FEFEFE"/>
<path d="M16.6375 25.9396C16.6596 25.9672 16.6762 25.9947 16.6927 26.0223C16.7092 26.0499 16.7313 26.072 16.7478 26.0995C16.7644 26.1216 16.7809 26.1492 16.7975 26.1712C16.814 26.1933 16.8306 26.2209 16.8471 26.2429C17.5365 27.208 18.3031 28.1456 19.1414 29.0335C19.9797 29.9215 20.8841 30.7653 21.8437 31.5484C22.8034 32.3315 23.8126 33.054 24.8605 33.7103C25.9083 34.3611 26.9948 34.9401 28.1088 35.431C28.1309 35.442 28.1529 35.453 28.175 35.4585C28.1971 35.4696 28.2136 35.4751 28.2301 35.4806C28.2467 35.4861 28.2632 35.4971 28.2798 35.5027C28.2963 35.5082 28.3129 35.5137 28.3239 35.5247C28.346 35.5357 28.368 35.5413 28.3901 35.5523C28.4121 35.5633 28.4342 35.5688 28.4563 35.5799C28.4783 35.5909 28.5004 35.5964 28.5224 35.6075C28.5445 35.6185 28.5666 35.624 28.5886 35.635C28.5997 35.6405 28.6107 35.6461 28.6272 35.6516C28.6383 35.6571 28.6493 35.6626 28.6658 35.6681C28.6769 35.6736 28.6879 35.6791 28.7044 35.6847C28.7155 35.6902 28.7265 35.6957 28.743 35.7012C28.7651 35.7122 28.7872 35.7178 28.8092 35.7288C28.8313 35.7398 28.8533 35.7453 28.8754 35.7563C28.8975 35.7674 28.9195 35.7729 28.9416 35.7839C28.9636 35.7894 28.9857 35.8005 29.0078 35.8115C29.3497 35.9494 29.6971 36.0762 30.0446 36.1976C30.392 36.3189 30.7395 36.4292 31.0924 36.5285C31.4399 36.6277 31.7929 36.7215 32.1458 36.8042C32.4988 36.8869 32.8462 36.9586 33.1992 37.0248C33.2157 37.0248 33.2323 37.0303 33.2488 37.0358C33.2654 37.0358 33.2819 37.0414 33.2985 37.0469C33.315 37.0524 33.3315 37.0524 33.3481 37.0579C33.3646 37.0634 33.3812 37.0634 33.3977 37.0689C33.6459 37.1131 33.8941 37.1461 34.1423 37.1792C34.3904 37.2123 34.6331 37.2344 34.8758 37.2564C35.1184 37.2785 35.3611 37.295 35.5982 37.3006C35.8354 37.3116 36.0725 37.3171 36.3041 37.3116C38.0965 37.3006 39.7069 36.9752 41.0746 36.374C42.4369 35.7784 43.5674 34.9125 44.4223 33.8261C45.2716 32.7451 45.8452 31.4436 46.1044 29.9711C46.3581 28.5041 46.3029 26.8606 45.8838 25.0903C45.8782 25.0737 45.8782 25.0572 45.8727 25.0462C45.8672 25.0296 45.8672 25.0131 45.8617 24.9965C45.8562 24.98 45.8562 24.9634 45.8507 24.9524C45.8451 24.9359 45.8452 24.9193 45.8396 24.9083C45.4315 23.2758 44.7587 21.6599 43.8653 20.1047C42.9773 18.555 41.8743 17.0604 40.6059 15.6816C39.3429 14.3029 37.9145 13.0234 36.3814 11.9038C34.8427 10.7843 33.1937 9.81364 31.4895 9.05257C31.3958 9.00845 31.302 8.96984 31.2138 8.93124C31.12 8.89263 31.0263 8.85403 30.938 8.81543C30.8498 8.77682 30.7505 8.73821 30.6623 8.69961C30.5685 8.661 30.4748 8.6224 30.3865 8.58931C30.3534 8.57828 30.3259 8.56725 30.2983 8.55622C30.2707 8.54519 30.2486 8.53416 30.2266 8.52864C30.2045 8.51761 30.1825 8.5121 30.1604 8.50658C30.1383 8.50107 30.1218 8.49003 30.0997 8.48452C29.824 8.37973 29.5482 8.28598 29.2725 8.19222C28.9967 8.09847 28.7155 8.01574 28.4397 7.93302C28.1584 7.85029 27.8827 7.77859 27.6014 7.7069C27.3202 7.6352 27.0389 7.57454 26.7576 7.51939C26.7411 7.51387 26.7245 7.51387 26.708 7.50836C26.6914 7.50284 26.6749 7.50285 26.6584 7.49733C26.6418 7.49182 26.6253 7.49182 26.6087 7.4863C26.5922 7.48079 26.5756 7.48078 26.5591 7.47527C24.8163 7.14437 23.1839 7.07267 21.7114 7.23813C20.2333 7.40358 18.9042 7.80617 17.7626 8.41834C16.6155 9.03051 15.6559 9.85776 14.9279 10.8615C14.1944 11.8707 13.6815 13.062 13.4388 14.4077C13.4168 14.5345 13.3947 14.6669 13.3782 14.7937C13.3616 14.9261 13.3451 15.0584 13.334 15.1908C13.323 15.3232 13.312 15.4555 13.301 15.5934C13.2899 15.7258 13.2844 15.8636 13.2844 16.0015C13.2789 16.2331 13.2789 16.4703 13.2844 16.7074C13.2899 16.9446 13.3065 17.1817 13.3285 17.4244C13.3506 17.6671 13.3782 17.9097 13.4168 18.1524C13.4554 18.4005 13.494 18.6487 13.5491 18.8969C13.5546 18.9134 13.5546 18.93 13.5602 18.9465C13.5657 18.9631 13.5657 18.9796 13.5712 18.9907C13.5767 19.0072 13.5767 19.0237 13.5822 19.0348C13.5877 19.0513 13.5877 19.0679 13.5933 19.0844C13.5988 19.101 13.5988 19.112 13.6043 19.1285C13.6098 19.1451 13.6098 19.1561 13.6153 19.1727C13.6208 19.1892 13.6208 19.2002 13.6263 19.2168C13.6319 19.2333 13.6319 19.2444 13.6374 19.2609C13.687 19.476 13.7422 19.6911 13.7973 19.9062C13.858 20.1212 13.9186 20.3363 13.9848 20.5514C14.051 20.7665 14.1282 20.9816 14.2054 21.1967C14.2826 21.4118 14.3654 21.6268 14.4536 21.8419C14.5529 22.0956 14.6632 22.3438 14.779 22.5975C14.8948 22.8512 15.0106 23.0994 15.1375 23.3475C15.2643 23.5957 15.3967 23.8439 15.529 24.0921C15.6669 24.3402 15.8103 24.5829 15.9592 24.8256C16.0199 24.9248 16.0805 25.0241 16.1412 25.1234C16.2019 25.2171 16.2625 25.3164 16.3232 25.4102C16.3839 25.5039 16.4445 25.5977 16.5052 25.6859C16.5162 25.7576 16.5769 25.8514 16.6375 25.9396C16.6596 25.9672 16.5769 25.8514 16.6375 25.9396Z" fill="#ED0E1C"/>
<path d="M24.9883 34.29C25.2806 34.4665 25.5784 34.6375 25.8762 34.8029L24.9883 34.29Z" fill="#6D1627"/>
<path d="M20.3332 30.3126C20.3166 30.3071 20.3001 30.3071 20.2836 30.3071C20.267 30.3071 20.2505 30.3071 20.2339 30.3126C20.2174 30.3182 20.2063 30.3182 20.1898 30.3292C20.1788 30.3347 20.1622 30.3457 20.1512 30.3513C20.1347 30.3678 20.1181 30.3899 20.1126 30.4119C20.1071 30.434 20.1016 30.4616 20.1016 30.4891C20.1016 30.5167 20.1126 30.5443 20.1236 30.5718C20.1347 30.5994 20.1512 30.627 20.1733 30.6546C20.1788 30.6601 20.1788 30.6656 20.1843 30.6711C20.1898 30.6766 20.1953 30.6822 20.1953 30.6877C20.2008 30.6932 20.2063 30.6987 20.2063 30.7042C20.2119 30.7097 20.2174 30.7152 20.2229 30.7208C21.1715 31.5976 22.1752 32.4028 23.2231 33.1529L23.2562 33.1639L23.3885 33.2135L23.5926 33.1474C23.6036 33.1198 23.6146 33.0922 23.6146 33.0591C23.6146 33.026 23.6091 32.9929 23.5926 32.9599C23.5815 32.9268 23.5595 32.8937 23.5319 32.8606C23.5043 32.8275 23.4768 32.7999 23.4382 32.7723C23.1845 32.5904 22.9308 32.4084 22.6826 32.2208C22.4344 32.0333 22.1862 31.8403 21.9491 31.6418C21.7064 31.4432 21.4693 31.2447 21.2321 31.0406C20.995 30.8366 20.7634 30.627 20.5317 30.4174C20.5152 30.4009 20.4986 30.3898 20.4821 30.3788C20.4656 30.3678 20.449 30.3568 20.4325 30.3457C20.4159 30.3347 20.3994 30.3292 20.3773 30.3237C20.3663 30.3182 20.3497 30.3126 20.3332 30.3126Z" fill="#FEFEFE"/>
<path d="M29.8963 7.95617C29.9018 7.95617 29.9073 7.95616 29.9073 7.96168C29.9073 7.96719 29.9183 7.96167 29.9238 7.96719C29.9294 7.96719 29.9349 7.96719 29.9404 7.97271C29.9459 7.97271 29.9514 7.97822 29.9569 7.97822C30.7015 8.24846 31.435 8.56282 32.1464 8.90475C30.4092 8.07198 28.5782 7.42121 26.6865 7.03516C26.7251 7.04067 26.7582 7.05721 26.7913 7.07376C26.8244 7.0903 26.852 7.11236 26.874 7.13993C26.8961 7.16751 26.9182 7.19509 26.9347 7.22267C26.9512 7.25024 26.9623 7.28333 26.9678 7.31642C27.0009 7.45981 26.852 7.52048 26.7362 7.49842C27.8723 7.73005 28.9918 8.05544 30.0783 8.46355C30.0672 8.45803 30.0562 8.45803 30.0452 8.45252C30.0341 8.447 30.0231 8.447 30.0121 8.44148C30.0011 8.43597 29.99 8.43597 29.979 8.43046C29.968 8.42494 29.9569 8.42494 29.9459 8.41943C29.9073 8.4084 29.8742 8.38633 29.8411 8.36427C29.808 8.34221 29.7805 8.31464 29.7529 8.28706C29.7308 8.25949 29.7088 8.2264 29.6922 8.19331C29.6812 8.16022 29.6702 8.12713 29.6702 8.09955C29.6702 8.07198 29.6757 8.04992 29.6867 8.03338C29.6977 8.01683 29.7143 8.00028 29.7308 7.98925C29.7529 7.97822 29.7749 7.9727 29.797 7.96719C29.8411 7.95064 29.8687 7.95065 29.8963 7.95617Z" fill="#A2000C"/>
<path d="M45.1178 21.9678C45.1453 21.9734 45.1674 21.9844 45.195 21.9954C45.2225 22.0064 45.2446 22.023 45.2667 22.0395C45.2887 22.0561 45.3108 22.0781 45.3328 22.1002C45.3549 22.1223 45.3715 22.1443 45.388 22.1719C44.9523 21.1682 44.4394 20.203 43.8603 19.282C43.8989 19.3758 43.8769 19.4916 43.7666 19.5137H43.6673C43.557 19.4916 43.4577 19.4199 43.3971 19.3206C42.7849 18.35 42.101 17.4179 41.3675 16.541C41.3014 16.4638 41.2242 16.2929 41.3565 16.2267C41.4006 16.2046 41.4503 16.2046 41.4944 16.2157C41.5109 16.2212 41.5275 16.2212 41.544 16.2267C41.5606 16.2322 41.5771 16.2377 41.5937 16.2488C41.6102 16.2543 41.6267 16.2653 41.6378 16.2763C41.6543 16.2874 41.6654 16.2984 41.6819 16.3094C40.9263 15.416 40.1156 14.5722 39.2608 13.778C39.316 13.8497 39.3711 13.9821 39.2829 14.0483L39.1119 14.0813L38.9078 13.9766C38.0309 13.1659 37.0934 12.4103 36.1172 11.7209C36.029 11.6547 35.8966 11.4948 35.9738 11.379C35.9849 11.3624 35.9959 11.3514 36.0069 11.3404C36.018 11.3293 36.0345 11.3238 36.0511 11.3183C36.0676 11.3128 36.0841 11.3128 36.1062 11.3128C36.1227 11.3128 36.1448 11.3128 36.1669 11.3183C36.1724 11.3183 36.1834 11.3238 36.1889 11.3238C36.1944 11.3238 36.2055 11.3293 36.211 11.3293C36.2165 11.3293 36.2275 11.3349 36.2331 11.3404C36.2386 11.3459 36.2496 11.3459 36.2551 11.3514C35.2845 10.662 34.2697 10.0278 33.2163 9.46526C33.3101 9.52593 33.4369 9.65829 33.3983 9.78514C33.3818 9.88441 33.2715 9.90647 33.1888 9.88992L33.0895 9.8458C32.5545 9.56454 32.0085 9.29981 31.457 9.05164C37.9482 11.9581 44.0478 17.8261 45.8016 24.8963C45.5755 23.9808 45.2722 23.0874 44.8972 22.2215C44.8806 22.1884 44.8751 22.1554 44.8751 22.1278C44.8751 22.1002 44.8806 22.0726 44.8972 22.0506C44.9082 22.0285 44.9303 22.012 44.9523 22.0009C44.9744 21.9899 45.0075 21.9844 45.0406 21.9844C45.0792 21.9623 45.0957 21.9623 45.1178 21.9678Z" fill="#6D1627"/>
<path d="M13.4121 14.3856C13.8919 11.7439 15.5354 9.51031 17.9344 8.29149C20.4603 7.012 23.4329 6.90721 26.1739 7.3815C25.3631 7.23811 24.5414 7.14988 23.7197 7.12782L23.67 7.11678C23.5432 7.08921 23.4163 7.00096 23.3722 6.87963C23.3226 6.76382 23.3722 6.648 23.5046 6.64249C22.5284 6.61491 21.5467 6.67558 20.5816 6.84654C20.6092 6.84103 20.6423 6.84103 20.6754 6.84654C20.7029 6.85206 20.725 6.86309 20.7526 6.87412C20.7802 6.88515 20.8022 6.9017 20.8298 6.91824C20.8518 6.93479 20.8794 6.95685 20.896 6.97339C20.918 6.99546 20.9346 7.01751 20.9511 7.04508C20.9732 7.07817 20.9842 7.11126 20.9897 7.13884C20.9952 7.16641 20.9952 7.19951 20.9897 7.22157C20.9842 7.24914 20.9677 7.2712 20.9511 7.28775C20.9291 7.30429 20.907 7.31532 20.8739 7.32084C20.6478 7.35944 20.4272 7.40908 20.2121 7.45871C19.997 7.50835 19.7819 7.56902 19.5668 7.6352C19.3573 7.70138 19.1477 7.76755 18.9436 7.84476C18.7396 7.92197 18.541 7.99918 18.348 8.08743L18.2101 8.09295L17.9675 7.94404C17.9013 7.86683 17.8462 7.72895 17.9399 7.64622C17.1899 7.98264 16.4784 8.41281 15.8442 8.94226C15.8828 8.92571 15.9324 8.92571 15.971 8.93675C15.9876 8.94226 16.0041 8.94777 16.0262 8.95329C16.0427 8.9588 16.0593 8.96983 16.0813 8.97535C16.0979 8.98638 16.1144 8.9974 16.1365 9.00843C16.153 9.01946 16.1696 9.03601 16.1861 9.04704C16.2689 9.11874 16.3681 9.28971 16.2578 9.38346C16.1034 9.51031 15.9545 9.64818 15.8056 9.78606C15.6622 9.92393 15.5243 10.0728 15.3864 10.2217C15.2541 10.3707 15.1272 10.5251 15.0059 10.685C14.8846 10.8449 14.7688 11.0104 14.6585 11.1758L14.4544 11.2365L14.289 11.1593C14.2007 11.0931 14.107 10.9773 14.129 10.8615C13.6878 11.5453 13.3514 12.2899 13.1143 13.073C13.1584 13.0068 13.2466 12.9958 13.3183 13.0124C13.3293 13.0124 13.3349 13.0179 13.3459 13.0179C13.3569 13.0179 13.3624 13.0234 13.3735 13.0289C13.3845 13.0344 13.39 13.0344 13.401 13.0399C13.4121 13.0454 13.4176 13.051 13.4286 13.051C13.5389 13.1116 13.6713 13.255 13.6272 13.3929C13.6051 13.4701 13.583 13.5528 13.561 13.6355C13.5389 13.7183 13.5224 13.7955 13.5003 13.8782C13.4838 13.9609 13.4617 14.0437 13.4452 14.1264C13.4396 14.2146 13.4231 14.3029 13.4121 14.3856C13.6492 13.062 13.4231 14.3029 13.4121 14.3856Z" fill="#6D1627"/>
<path d="M12.6946 15.8252C12.6725 16.7848 12.7663 17.7444 12.9538 18.6875C12.9483 18.6544 12.9538 18.6268 12.9593 18.6048C12.9703 18.5827 12.9814 18.5607 13.0034 18.5441C13.0255 18.5276 13.0475 18.5165 13.0806 18.511C13.1082 18.5055 13.1468 18.5055 13.1854 18.511C13.3288 18.5386 13.4722 18.6544 13.4998 18.8033L13.5163 18.875C13.3288 17.9319 13.2295 16.9723 13.2516 16.0072C13.2295 16.1065 13.1192 16.1396 13.031 16.123L12.9703 16.112C12.8435 16.0623 12.7222 15.9576 12.6946 15.8252C12.6891 16.0513 12.7001 15.8528 12.6946 15.8252Z" fill="#A2000C"/>
<path d="M14.206 22.0849C14.0792 22.0628 13.9578 21.9691 13.9082 21.8533C14.3329 22.9011 14.8513 23.9159 15.4359 24.8865C15.4248 24.859 15.4193 24.8259 15.4193 24.7983C15.4193 24.7707 15.4248 24.7486 15.4304 24.7266C15.4414 24.7045 15.4524 24.688 15.469 24.6714C15.4855 24.6549 15.5131 24.6439 15.5407 24.6384C15.5462 24.6384 15.5572 24.6383 15.5627 24.6328C15.5682 24.6328 15.5793 24.6328 15.5903 24.6328C15.6013 24.6328 15.6068 24.6328 15.6179 24.6328C15.6289 24.6328 15.6344 24.6328 15.6454 24.6384C15.7502 24.6604 15.8495 24.7266 15.9157 24.8093C15.3366 23.8552 14.8292 22.857 14.4101 21.8257V21.8312V21.8367V21.8422V21.8477C14.4652 21.9801 14.399 22.1014 14.2501 22.1014L14.206 22.0849Z" fill="#A2000C"/>
<path d="M25.8755 34.8026C26.1733 34.9681 26.4766 35.128 26.7799 35.2824C26.6862 35.2328 26.5869 35.1832 26.4932 35.1335C26.4546 35.1115 26.4215 35.0894 26.3939 35.0618C26.3663 35.0342 26.3387 35.0012 26.3167 34.9736C26.2946 34.9405 26.2836 34.9074 26.2781 34.8743C26.2726 34.8412 26.2726 34.8081 26.2781 34.7806C26.2836 34.7585 26.2946 34.7364 26.3056 34.7254C26.3167 34.7089 26.3332 34.6978 26.3553 34.6868C26.3718 34.6758 26.3939 34.6703 26.4215 34.6703C26.4435 34.6703 26.4711 34.6703 26.4987 34.6758C26.5097 34.6758 26.5152 34.6813 26.5263 34.6813C26.5373 34.6813 26.5428 34.6868 26.5538 34.6868C26.5649 34.6923 26.5704 34.6923 26.5814 34.6978C26.5924 34.7033 26.5979 34.7089 26.609 34.7089C26.7358 34.775 26.8572 34.8357 26.984 34.9019C27.1108 34.9626 27.2322 35.0232 27.359 35.0839C27.4859 35.1445 27.6127 35.2052 27.734 35.2604C27.8609 35.321 27.9877 35.3762 28.1146 35.4313C23.6584 33.4569 19.6821 30.2196 16.8584 26.2433C17.2224 26.7562 17.6029 27.2581 18.0055 27.7434C18.0827 27.8316 18.1379 28.0136 17.9945 28.0688L17.8566 28.0853L17.6195 27.9529C18.4136 28.907 19.2685 29.8115 20.1784 30.6553C20.1178 30.5726 20.0681 30.4347 20.1564 30.352C20.1674 30.341 20.1784 30.3354 20.195 30.3299C20.206 30.3244 20.2226 30.3189 20.2391 30.3134C20.2557 30.3079 20.2722 30.3079 20.2887 30.3079C20.3053 30.3079 20.3218 30.3079 20.3384 30.3134C20.3549 30.3189 20.3715 30.3189 20.3935 30.3299C20.4101 30.3354 20.4266 30.3465 20.4487 30.352C20.4652 30.363 20.4818 30.374 20.4983 30.3851C20.5149 30.3961 20.5314 30.4127 20.548 30.4237C20.7796 30.6333 21.0112 30.8428 21.2484 31.0469C21.4855 31.2509 21.7227 31.4495 21.9653 31.648C22.208 31.8466 22.4506 32.0396 22.6988 32.2271C22.947 32.4146 23.2007 32.5966 23.4544 32.7786C23.493 32.8062 23.5206 32.8338 23.5481 32.8668C23.5757 32.8999 23.5923 32.933 23.6088 32.9661C23.6198 32.9992 23.6309 33.0323 23.6309 33.0654C23.6309 33.0985 23.6253 33.126 23.6088 33.1536L23.4047 33.2198L23.2724 33.1702C23.8349 33.5673 24.4085 33.9423 24.9986 34.3007" fill="#6D1627"/>
<g opacity="0.7">
<path opacity="0.7" d="M5.90519 19.5032C5.7618 19.0234 5.63495 18.5381 5.51914 18.0527C5.62944 18.5381 5.7618 19.0234 5.90519 19.5032ZM34.2249 44.4035C33.0226 44.1664 31.8369 43.852 30.6677 43.4825C30.4857 41.6902 30.2596 39.8978 30.0004 38.1164L29.9728 37.9565C30.2706 38.0613 30.5684 38.1605 30.8717 38.2488C31.1696 38.3425 31.4729 38.4253 31.7762 38.508C32.0299 38.5742 32.2836 38.6348 32.5373 38.69C27.9433 23.0438 21.3749 0.0516646 21.3749 0.0516646C19.2516 -0.0806961 17.1007 0.0571773 15.0381 0.592135C14.0564 0.845827 13.1133 1.20431 12.2089 1.64551C12.2034 1.63999 12.2034 1.63999 12.1978 1.63448C11.1886 2.1198 10.2455 2.73748 9.3962 3.45995C9.37966 3.4765 9.3576 3.49304 9.34105 3.50958C9.0267 3.77982 8.72889 4.06109 8.44211 4.3589C8.17187 4.64017 7.92369 4.93798 7.68103 5.24682C7.64794 5.29094 7.60934 5.33507 7.57625 5.37919C7.54867 5.41779 7.51558 5.45088 7.488 5.48949L7.49352 5.495C7.27843 5.7873 7.06335 6.0851 6.87583 6.40498C5.08345 9.38309 4.70843 12.9734 5.20478 16.3651C5.07793 15.4882 5.00624 14.6003 5.00624 13.7124C6.99165 14.2694 8.98258 14.7989 10.979 15.2952L11.172 15.3504C11.1665 15.5985 11.1665 15.8467 11.1776 16.1004C11.1831 16.3541 11.1996 16.6133 11.2217 16.8725C11.2437 17.1317 11.2768 17.3964 11.3154 17.6667C11.354 17.9369 11.3982 18.2071 11.4533 18.4829C11.6739 19.608 12.0214 20.7055 12.4515 21.7699L12.264 21.7533C10.3227 21.4996 8.37592 21.2735 6.42912 21.0805C7.15159 23.0549 8.09466 24.9465 9.20869 26.7279C10.2069 28.3272 11.343 29.8439 12.5729 31.2778C12.5949 31.3053 12.6225 31.3329 12.6446 31.3605C12.9865 31.7576 13.3395 32.1492 13.6979 32.5297C13.731 32.5628 13.7641 32.5959 13.7917 32.6345C14.1612 33.026 14.5362 33.4066 14.9168 33.7816C14.9554 33.8202 14.9884 33.8588 15.0271 33.8919C15.4021 34.2559 15.7826 34.6089 16.1687 34.9563C16.2183 35.0004 16.2679 35.0501 16.3231 35.0942C16.7533 35.4802 17.1945 35.8608 17.6412 36.2248C17.6522 36.2358 17.6688 36.2468 17.6798 36.2578C18.4629 36.9031 19.2571 37.5263 20.0843 38.1109C24.2978 41.1166 29.1235 43.4108 34.2249 44.4035ZM6.4236 21.075C6.41809 21.0639 6.41809 21.0529 6.41257 21.0419C6.41809 21.0529 6.41809 21.0639 6.4236 21.075Z" fill="url(#paint0_linear)"/>
</g>
<defs>
<linearGradient id="paint0_linear" x1="5.00282" y1="22.203" x2="34.2234" y2="22.203" gradientUnits="userSpaceOnUse">
<stop stop-color="white"/>
<stop offset="0.9062"/>
</linearGradient>
</defs>
</svg>
