<svg width="92" height="93" viewBox="0 0 92 93" fill="none" xmlns="http://www.w3.org/2000/svg">
<g opacity="0.7">
<g filter="url(#filter0_d)">
<path fill-rule="evenodd" clip-rule="evenodd" d="M7.66635 45.9999C7.66635 24.8399 24.878 7.66658 45.9997 7.66658L47.0721 7.68132C67.7369 8.24988 84.333 25.1986 84.333 45.9999C84.333 67.1216 67.1597 84.3333 45.9997 84.3332C24.878 84.3332 7.66635 67.1216 7.66635 45.9999ZM53.5896 61.3332C54.7013 60.1832 54.7013 58.3816 53.5513 57.2699L42.2429 45.9999L53.5513 34.7299C54.7013 33.6182 54.7013 31.7782 53.5896 30.6666C52.4396 29.5166 50.6379 29.5166 49.5263 30.6666L36.1479 43.9682C35.6113 44.5049 35.3046 45.2332 35.3046 45.9999C35.3046 46.7666 35.6113 47.4949 36.1479 48.0316L49.5263 61.3332C50.0629 61.9082 50.7913 62.1766 51.5196 62.1766C52.2863 62.1766 53.0146 61.9082 53.5896 61.3332Z" fill="white"/>
</g>
</g>
<defs>
<filter id="filter0_d" x="3.66602" y="7.6665" width="84.6667" height="84.6667" filterUnits="userSpaceOnUse" color-interpolation-filters="sRGB">
<feFlood flood-opacity="0" result="BackgroundImageFix"/>
<feColorMatrix in="SourceAlpha" type="matrix" values="0 0 0 0 0 0 0 0 0 0 0 0 0 0 0 0 0 0 127 0" result="hardAlpha"/>
<feOffset dy="4"/>
<feGaussianBlur stdDeviation="2"/>
<feColorMatrix type="matrix" values="0 0 0 0 0 0 0 0 0 0 0 0 0 0 0 0 0 0 0.25 0"/>
<feBlend mode="normal" in2="BackgroundImageFix" result="effect1_dropShadow"/>
<feBlend mode="normal" in="SourceGraphic" in2="effect1_dropShadow" result="shape"/>
</filter>
</defs>
</svg>
