<svg width="43" height="48" viewBox="0 0 43 48" fill="none" xmlns="http://www.w3.org/2000/svg">
<path d="M4.47582 16.5102C4.51938 15.9452 4.76578 15.4181 5.16594 15.0337C5.5661 14.6493 6.09066 14.4359 6.63516 14.436H36.749C37.2935 14.4359 37.818 14.6493 38.2182 15.0337C38.6184 15.4181 38.8648 15.9452 38.9083 16.5102L40.8078 41.13C40.8556 41.7504 40.7795 42.3744 40.5843 42.9628C40.3891 43.5511 40.079 44.091 39.6735 44.5484C39.268 45.0059 38.776 45.371 38.2283 45.6208C37.6806 45.8706 37.0892 45.9996 36.4912 45.9998H6.8929C6.29496 45.9996 5.70353 45.8706 5.15585 45.6208C4.60817 45.371 4.1161 45.0059 3.71062 44.5484C3.30515 44.091 2.99504 43.5511 2.79984 42.9628C2.60463 42.3744 2.52855 41.7504 2.57638 41.13L4.47366 16.5102H4.47582Z" stroke="white" stroke-width="3.47236" stroke-linecap="round" stroke-linejoin="round"/>
<path d="M30.3002 22.086V10.9271C30.3002 8.55951 29.4436 6.28886 27.9189 4.6147C26.3942 2.94053 24.3263 2 22.1701 2C20.0139 2 17.946 2.94053 16.4213 4.6147C14.8966 6.28886 14.04 8.55951 14.04 10.9271V22.086" stroke="white" stroke-width="3.47236" stroke-linecap="round" stroke-linejoin="round"/>
</svg>
