<svg width="20" height="20" viewBox="0 0 20 20" fill="none" xmlns="http://www.w3.org/2000/svg">
<mask id="mask0" mask-type="alpha" maskUnits="userSpaceOnUse" x="1" y="1" width="17" height="17">
<path fill-rule="evenodd" clip-rule="evenodd" d="M1.66675 1.6665H17.8974V17.8973H1.66675V1.6665Z" fill="white"/>
</mask>
<g mask="url(#mask0)">
<path fill-rule="evenodd" clip-rule="evenodd" d="M9.78234 2.9165C5.9965 2.9165 2.9165 5.99567 2.9165 9.7815C2.9165 13.5673 5.9965 16.6473 9.78234 16.6473C13.5673 16.6473 16.6473 13.5673 16.6473 9.7815C16.6473 5.99567 13.5673 2.9165 9.78234 2.9165ZM9.78234 17.8973C5.30734 17.8973 1.6665 14.2565 1.6665 9.7815C1.6665 5.3065 5.30734 1.6665 9.78234 1.6665C14.2573 1.6665 17.8973 5.3065 17.8973 9.7815C17.8973 14.2565 14.2573 17.8973 9.78234 17.8973Z" fill="#323232"/>
</g>
<mask id="mask1" mask-type="alpha" maskUnits="userSpaceOnUse" x="14" y="14" width="5" height="5">
<path fill-rule="evenodd" clip-rule="evenodd" d="M14.3667 14.7559H18.5534V18.9348H14.3667V14.7559Z" fill="white"/>
</mask>
<g mask="url(#mask1)">
<path fill-rule="evenodd" clip-rule="evenodd" d="M17.9286 18.9348C17.7694 18.9348 17.6094 18.874 17.4869 18.7523L14.5502 15.824C14.3061 15.5798 14.3052 15.184 14.5494 14.9398C14.7927 14.694 15.1886 14.6957 15.4336 14.9382L18.3702 17.8673C18.6144 18.1115 18.6152 18.5065 18.3711 18.7506C18.2494 18.874 18.0886 18.9348 17.9286 18.9348Z" fill="#323232"/>
</g>
</svg>
