<svg width="114" height="114" viewBox="0 0 114 114" fill="none" xmlns="http://www.w3.org/2000/svg">
<g clip-path="url(#clip0)">
<path d="M12.0804 31.0321C10.418 30.079 8.29012 30.7218 7.44784 32.4285C-0.376529 48.2989 0.133274 66.3637 7.55867 81.3031C8.40095 83.0098 10.551 83.6305 12.1912 82.6774L56.8544 56.7439L12.0804 31.0321Z" fill="#FFA000"/>
<path d="M56.9873 108.411L56.8543 56.7432L12.1911 82.6766C10.5509 83.6297 10.0189 85.7798 11.0828 87.3757C15.6489 94.2248 21.833 100.143 29.4357 104.51C37.0606 108.876 45.284 111.226 53.4851 111.735C55.3914 111.846 56.9873 110.317 56.9873 108.411Z" fill="#FFA000"/>
<path d="M56.7436 5.09781C56.7436 3.19159 55.1256 1.66218 53.2193 1.79517C36.5732 2.90344 20.7028 11.5479 10.95 26.3101C9.88608 27.906 10.418 30.056 12.0805 31.0091L56.8766 56.7209L56.7436 5.09781Z" fill="#FFA000"/>
<path d="M57.4081 3.08105C56.987 3.63519 56.7432 4.32231 56.7432 5.07594L56.854 56.7434L57.4081 56.4331V3.08105Z" fill="#FFA000"/>
<path d="M17.0225 33.8682C15.6482 36.262 13.7198 38.3234 12.811 40.8281C11.8801 43.3993 12.0352 46.2364 11.5919 48.8741C11.1265 51.5561 10.0182 54.1716 10.0404 56.8536C10.0404 59.5578 11.1708 62.1733 11.6584 64.8332C12.1239 67.493 11.9909 70.3302 12.9219 72.8792C13.8528 75.406 15.8034 77.4896 17.1554 79.8391L56.8536 56.7428L17.0225 33.8682Z" fill="#FFE082"/>
<path d="M46.9467 51.0459L12.4131 71.1055C13.1667 74.8737 15.3389 76.7356 17.1121 79.8165L56.8546 56.7424L46.9467 51.0459Z" fill="#FFB300"/>
<path d="M17.1113 79.8173C18.4634 82.1225 19.2835 84.871 21.0346 86.9324C22.7635 88.9716 25.2903 90.2572 27.3961 92.0082C29.4353 93.715 31.142 95.9758 33.5359 97.3501C35.9297 98.7243 38.7447 99.0568 41.2494 99.9656C43.8206 100.897 46.2144 102.448 48.83 102.891C51.512 103.357 54.2826 102.692 56.9646 102.692L56.8538 56.7432L17.1113 79.8173Z" fill="#FFE082"/>
<path d="M56.854 56.7432L51.4013 59.9128L51.4899 94.4464C48.8079 94.4464 46.0373 95.1114 43.3553 94.6459C40.7176 94.1804 38.3459 92.651 35.7747 91.7201C33.27 90.8113 30.455 90.4788 28.0612 89.1046C25.6673 87.7303 23.9606 85.4695 21.9214 83.7627C20.5249 82.588 18.9069 81.6349 17.4883 80.5044C18.6187 82.6545 19.461 85.0705 21.0347 86.9545C22.7636 88.9938 25.2905 90.2793 27.3962 92.0304C29.4354 93.7371 31.1421 95.998 33.536 97.3723C35.9299 98.7465 38.7449 99.079 41.2495 99.9878C43.8207 100.919 46.2146 102.47 48.8301 102.914C51.5121 103.379 54.2828 102.714 56.9648 102.714L56.854 56.7432Z" fill="#FFB300"/>
<path d="M56.7656 10.7941C54.0615 10.7941 51.2908 10.1735 48.6309 10.6389C45.9711 11.1044 43.5994 12.6781 41.0504 13.6091C38.5235 14.54 35.6864 14.8725 33.359 16.2468C31.0316 17.5989 29.3249 19.8597 27.2414 21.6108C25.2022 23.3397 22.6531 24.6253 20.9021 26.731C19.1953 28.7702 18.3752 31.4965 17.001 33.8682L56.8543 56.7429L56.7656 10.7941Z" fill="#FFE082"/>
<path d="M56.7659 10.7937C54.9484 10.7937 53.1086 10.5277 51.3132 10.4834L51.3797 40.8278C51.3797 44.2412 47.7003 46.3913 44.7301 44.6845L18.974 29.8781C18.3312 31.208 17.7549 32.5823 17.0234 33.8678L56.8546 56.7425L56.7659 10.7937Z" fill="#FFB300"/>
<path d="M57.4084 10.7725C57.1868 10.7725 56.9873 10.7946 56.7656 10.7946L56.8765 56.7434L57.4306 56.4331V10.7725H57.4084Z" fill="#FFE082"/>
<path d="M57.4083 44.9736L56.832 45.3283L56.8542 56.7434L57.4083 56.4331V44.9736Z" fill="#FFB300"/>
<path d="M42.3802 85.2696C40.5626 88.4171 36.5507 89.5032 33.381 87.7078C30.2336 85.8902 29.1253 81.8783 30.9428 78.7087C32.7604 75.5612 36.7945 74.4529 39.942 76.2705C43.0895 78.088 44.1977 82.1 42.3802 85.2696Z" fill="#EF5350"/>
<path d="M29.7678 65.9634C27.9502 69.1109 23.9383 70.2191 20.7686 68.4016C17.6212 66.584 16.5351 62.5721 18.3305 59.4024C20.1258 56.2328 24.1599 55.1467 27.3296 56.9642C30.4771 58.7818 31.5853 62.8159 29.7678 65.9634Z" fill="#EF5350"/>
<path d="M51.3792 39.232C49.5616 42.3795 45.5275 43.4878 42.3801 41.6702C39.2326 39.8526 38.1243 35.8186 39.9419 32.6711C41.7594 29.5236 45.7935 28.4153 48.941 30.2329C52.0885 32.0504 53.1746 36.0845 51.3792 39.232Z" fill="#EF5350"/>
<path d="M31.7619 32.9139C30.8531 34.4876 28.836 35.0417 27.2623 34.133C25.6886 33.2242 25.1344 31.2071 26.0432 29.6334C26.952 28.0596 28.969 27.5055 30.5428 28.4143C32.1387 29.3231 32.6706 31.318 31.7619 32.9139Z" fill="#FFA000"/>
<path d="M40.4064 55.8777C39.4976 57.4515 37.4806 58.0056 35.9068 57.0968C34.3331 56.188 33.779 54.171 34.6877 52.5973C35.5965 51.0235 37.6136 50.4694 39.1873 51.3782C40.761 52.2869 41.293 54.304 40.4064 55.8777Z" fill="#FFA000"/>
<path d="M51.9993 20.3688C52.4205 18.5955 51.3344 16.8223 49.5612 16.4012C47.7879 15.98 46.0147 17.0661 45.5936 18.8394C45.1724 20.6126 46.2585 22.3858 48.0317 22.807C49.7828 23.2281 51.556 22.142 51.9993 20.3688Z" fill="#FFA000"/>
<path d="M23.8048 49.1619C22.896 50.7356 20.879 51.2898 19.3053 50.381C17.7315 49.4722 17.1774 47.4552 18.0862 45.8814C18.9949 44.3077 21.012 43.7536 22.5857 44.6623C24.1595 45.5711 24.7136 47.5882 23.8048 49.1619Z" fill="#FFA000"/>
<path d="M51.423 94.2688C50.5142 95.8426 48.4972 96.3967 46.9234 95.4879C45.3497 94.5791 44.7956 92.5621 45.7043 90.9884C46.6131 89.4146 48.6302 88.8605 50.2039 89.7693C51.7776 90.6781 52.3318 92.6729 51.423 94.2688Z" fill="#FFA000"/>
<path d="M51.5119 72.6805C50.6031 74.2542 48.586 74.8083 47.0123 73.8996C45.4386 72.9908 44.8844 70.9737 45.7932 69.4C46.702 67.8262 48.719 67.2721 50.2928 68.1809C51.8665 69.0675 52.4206 71.0846 51.5119 72.6805Z" fill="#FFA000"/>
<path d="M41.0718 77.0698C40.9167 82.6112 34.3114 85.5813 30.0778 81.791C30.0113 84.1406 31.2083 86.4458 33.3805 87.687C36.5279 89.5046 40.562 88.4185 42.3796 85.2488C43.9533 82.5225 43.3327 79.109 41.0718 77.0698Z" fill="#D32F2F"/>
<path d="M28.4605 57.7861C28.3054 63.3275 21.7001 66.2976 17.4665 62.5074C17.4 64.8569 18.5969 67.1621 20.7691 68.4033C23.9166 70.2209 27.9507 69.1348 29.7683 65.9652C31.342 63.2166 30.7214 59.8253 28.4605 57.7861Z" fill="#D32F2F"/>
<path d="M50.0494 31.0537C49.8942 36.5951 43.2889 39.5652 39.0554 35.7749C38.9889 38.1245 40.1858 40.4297 42.358 41.6709C45.5055 43.4885 49.5396 42.4024 51.3571 39.2327C52.953 36.4842 52.3324 33.0929 50.0494 31.0537Z" fill="#D32F2F"/>
<path d="M43.8209 86.0909C46.0818 82.1455 44.7297 77.0918 40.7843 74.8309C36.8388 72.57 31.7851 73.9221 29.5243 77.8676C27.2634 81.813 28.6155 86.8667 32.5609 89.1276C36.5064 91.3884 41.5601 90.0363 43.8209 86.0909ZM32.3836 79.53C33.7357 77.1804 36.7502 76.3603 39.0997 77.7124C41.4492 79.0645 42.2694 82.079 40.9173 84.4285C39.5652 86.778 36.5507 87.5982 34.2012 86.2461C31.8516 84.894 31.0315 81.8795 32.3836 79.53Z" fill="black"/>
<path d="M28.1505 55.5243C24.2051 53.2634 19.1513 54.6155 16.8905 58.5609C14.6296 62.5064 15.9817 67.5601 19.9271 69.8209C23.8726 72.0818 28.9263 70.7297 31.1871 66.7843C33.448 62.8388 32.0959 57.8073 28.1505 55.5243ZM21.5895 66.9616C19.24 65.6095 18.4199 62.595 19.772 60.2455C21.1241 57.896 24.1386 57.0758 26.4881 58.4279C28.8376 59.78 29.6577 62.7945 28.3056 65.144C26.9757 67.4936 23.9612 68.3137 21.5895 66.9616Z" fill="black"/>
<path d="M49.7608 28.7928C45.8154 26.532 40.7617 27.884 38.5008 31.8295C36.24 35.7749 37.5921 40.8286 41.5375 43.0895C45.4829 45.3503 50.5366 43.9983 52.7975 40.0528C55.0584 36.1074 53.7063 31.0759 49.7608 28.7928ZM43.1999 40.2302C40.8504 38.8781 40.0302 35.8636 41.3823 33.514C42.7344 31.1645 45.7489 30.3444 48.0984 31.6965C50.448 33.0486 51.2681 36.0631 49.916 38.4126C48.5639 40.7621 45.5494 41.5822 43.1999 40.2302Z" fill="black"/>
<path d="M31.3853 26.9765C29.0137 25.6244 25.977 26.4445 24.6249 28.8162C23.2728 31.1879 24.0929 34.2246 26.4646 35.5766C28.8363 36.9287 31.873 36.1086 33.2251 33.7369C34.5772 31.3652 33.757 28.3286 31.3853 26.9765ZM28.1049 32.673C27.3291 32.2297 27.0631 31.2322 27.5064 30.4343C27.9497 29.6585 28.9472 29.3925 29.7451 29.8358C30.5209 30.2791 30.7869 31.2766 30.3436 32.0745C29.8781 32.8503 28.8807 33.1384 28.1049 32.673Z" fill="black"/>
<path d="M35.0652 58.5385C37.4369 59.8906 40.4736 59.0705 41.8257 56.6988C43.1777 54.3271 42.3576 51.2905 39.9859 49.9384C37.6142 48.5863 34.5776 49.4064 33.2255 51.7781C31.8734 54.1498 32.6935 57.1865 35.0652 58.5385ZM38.3457 52.8199C39.1215 53.2632 39.3875 54.2606 38.9442 55.0586C38.5009 55.8344 37.5034 56.1004 36.7055 55.6571C35.9297 55.2137 35.6637 54.2163 36.107 53.4184C36.5725 52.6426 37.5699 52.3766 38.3457 52.8199Z" fill="black"/>
<path d="M46.3258 23.9164C46.7248 24.1381 47.1681 24.3154 47.6336 24.4484C50.2934 25.0912 52.9754 23.451 53.6182 20.7911C53.9285 19.5055 53.729 18.1756 53.0197 17.0452C52.3326 15.9147 51.2465 15.1168 49.9609 14.8065C47.3011 14.1637 44.6191 15.8039 43.9763 18.4638C43.666 19.7272 43.8655 21.0571 44.5526 22.1875C44.9959 22.919 45.5944 23.4953 46.3258 23.9164ZM49.1851 18.0205C49.3403 18.0648 49.4733 18.1091 49.6063 18.1978C49.8501 18.3308 50.0496 18.5303 50.1826 18.7519C50.4042 19.1287 50.4707 19.572 50.3821 19.9932C50.1604 20.8576 49.296 21.4118 48.4094 21.1901C47.9882 21.0793 47.6336 20.8355 47.3897 20.4586C47.1681 20.0818 47.1016 19.6385 47.1903 19.2174C47.4119 18.3529 48.2985 17.821 49.1851 18.0205Z" fill="black"/>
<path d="M25.2456 49.983C26.5977 47.6113 25.7775 44.5747 23.4059 43.2226C21.0342 41.8705 17.9975 42.6906 16.6454 45.0623C15.2933 47.434 16.1135 50.4706 18.4851 51.8227C20.8568 53.1748 23.8935 52.3547 25.2456 49.983ZM20.1476 48.9412C19.3718 48.4979 19.1058 47.5005 19.5491 46.7025C19.9924 45.9267 20.9898 45.6608 21.7878 46.1041C22.5636 46.5474 22.8296 47.5448 22.3863 48.3428C21.9208 49.1186 20.9233 49.3845 20.1476 48.9412Z" fill="black"/>
<path d="M46.1043 96.9067C48.476 98.2588 51.5126 97.4387 52.8647 95.067C54.2168 92.6953 53.3967 89.6586 51.025 88.3066C48.6533 86.9545 45.6167 87.7746 44.2646 90.1463C42.9125 92.518 43.7326 95.5546 46.1043 96.9067ZM49.3848 91.2102C50.1605 91.6535 50.4265 92.651 49.9832 93.4489C49.5399 94.2247 48.5425 94.4907 47.7445 94.0474C46.9687 93.6041 46.7028 92.6066 47.1461 91.8087C47.5894 91.0329 48.5868 90.7447 49.3848 91.2102Z" fill="black"/>
<path d="M46.1922 75.3178C48.5639 76.6699 51.6005 75.8498 52.9526 73.4781C54.3047 71.1064 53.4846 68.0698 51.1129 66.7177C48.7412 65.3656 45.7045 66.1857 44.3525 68.5574C43.0004 70.9291 43.8205 73.9658 46.1922 75.3178ZM49.4727 69.6214C50.2484 70.0647 50.5144 71.0621 50.0711 71.8601C49.6278 72.6358 48.6304 72.9018 47.8324 72.4585C47.0566 72.0152 46.7906 71.0178 47.234 70.2198C47.6994 69.444 48.6969 69.1559 49.4727 69.6214Z" fill="black"/>
<path d="M57.4078 36.0864C57.2305 36.0199 57.031 35.9756 56.8093 35.9756C55.9005 35.9756 55.1469 36.7292 55.1469 37.638L55.1912 53.863L19.239 33.2271C20.2143 31.2322 20.9679 29.2595 22.187 27.7965C23.7608 25.9125 26.199 24.6712 28.3047 22.898C30.4325 21.1026 32.0949 18.8861 34.1785 17.6891C36.2842 16.47 39.0105 16.1376 41.626 15.1845C44.2416 14.2313 46.5468 12.7241 48.9184 12.303C50.8025 11.9705 52.886 12.2808 55.1026 12.4138L55.1469 29.9023C55.1469 30.811 55.9005 31.5647 56.8093 31.5647C57.031 31.5647 57.2305 31.5203 57.4078 31.4538V0.865638C57.164 1.0208 56.9423 1.17595 56.7207 1.37544C55.7232 0.488827 54.4155 0.04552 53.0855 0.134181C35.5084 1.30895 19.3499 10.5741 9.53062 25.4027C8.79917 26.511 8.53318 27.8852 8.82133 29.1708C7.55791 29.5919 6.51614 30.5007 5.91767 31.6976C-1.9067 47.6124 -1.77371 66.2534 6.07283 82.0352C6.64913 83.1878 7.66873 84.1187 8.97649 84.5398C8.7105 85.8254 8.95432 87.1997 9.70795 88.3079C14.5843 95.6225 20.9458 101.563 28.615 105.952C36.2842 110.362 44.6184 112.867 53.3959 113.399C54.9918 113.488 56.4547 112.823 57.43 111.715V36.0864H57.4078ZM53.5288 56.7445L17.6653 77.5799C16.424 75.7402 15.1163 74.1 14.4513 72.3046C13.609 70.0215 13.7642 67.273 13.2766 64.5467C12.7889 61.8204 11.7028 59.2935 11.7028 56.8553C11.7028 54.4615 12.7668 51.9124 13.2322 49.1639C13.6977 46.4598 13.5426 43.7113 14.3848 41.4061C15.0276 39.6107 16.3576 37.9704 17.5988 36.1085L53.5288 56.7445ZM12.3235 27.2202C21.4334 13.4334 36.7718 4.54509 53.3294 3.43682C54.2603 3.37032 55.0804 4.12394 55.0804 5.09922V9.06682C52.8639 8.91166 50.6252 8.60135 48.32 9.00032C45.3942 9.53229 42.9338 11.1504 40.4735 12.037C38.0131 12.9236 35.0873 13.3004 32.5161 14.7855C29.9449 16.2706 28.1938 18.6201 26.1768 20.3268C24.2041 21.9892 21.5664 23.3413 19.638 25.6465C18.1529 27.4197 17.3328 29.5476 16.3576 31.5425L12.9219 29.5698C12.0575 29.1043 11.8137 28.0182 12.3235 27.2202ZM9.04298 80.5501C1.66192 65.6993 1.61759 47.967 8.93216 33.1384C9.3533 32.2739 10.4172 31.9636 11.2374 32.4513L14.673 34.424C13.4317 36.2859 12.0131 38.0591 11.2374 40.2313C10.2177 43.0685 10.3729 46.0165 9.9296 48.5655C9.48629 51.1588 8.33369 53.8852 8.33369 56.8332C8.33369 59.8255 9.50846 62.5296 9.97393 65.1008C10.4394 67.672 10.2842 70.62 11.3039 73.4128C12.1018 75.6072 13.5204 77.3804 14.7616 79.2202L11.326 81.215C10.5281 81.7248 9.46413 81.4145 9.04298 80.5501ZM53.5732 110.074C45.3277 109.565 37.4811 107.215 30.2552 103.07C23.0293 98.9252 17.0447 93.3395 12.4564 86.4682C11.9245 85.6924 12.1905 84.6063 13.0106 84.1187L16.4462 82.1238C17.4215 84.1187 18.2638 86.2244 19.771 88.0198C20.3695 88.7291 21.4113 88.8178 22.1205 88.2193C22.8298 87.6208 22.9185 86.579 22.32 85.8698C21.0788 84.3847 20.3251 82.4341 19.3277 80.4614L55.2134 59.626L55.3021 101.097C53.0855 101.253 51.0242 101.585 49.1179 101.253C46.7684 100.854 44.4411 99.3463 41.8034 98.3932C39.2322 97.4622 36.5059 97.1298 34.3558 95.9107C32.0728 94.6029 30.4325 92.2756 27.9722 90.325C27.2407 89.7487 26.199 89.8817 25.6448 90.6131C25.0685 91.3446 25.2015 92.3864 25.933 92.9405C28.216 94.7359 29.9449 97.1963 32.7156 98.7922C35.3311 100.299 38.2569 100.654 40.6729 101.519C43.1555 102.427 45.638 104.023 48.5416 104.533C50.8468 104.932 53.0855 104.599 55.3021 104.444V108.412C55.3242 109.365 54.5263 110.141 53.5732 110.074Z" fill="black"/>
<path d="M97.462 16.7344C86.734 6.00634 72.5039 0.110352 57.3427 0.110352C57.2763 0.110352 57.2098 0.110352 57.1211 0.110352V3.43515C57.1876 3.43515 57.2541 3.43515 57.3427 3.43515C71.6172 3.43515 85.0273 8.99866 95.1125 19.0839C105.198 29.1691 110.761 42.5792 110.761 56.8537C110.761 71.1281 105.198 84.5382 95.1125 94.6234C85.0273 104.709 71.6172 110.272 57.3427 110.272C57.2763 110.272 57.2098 110.272 57.1211 110.272V113.597C57.1876 113.597 57.2541 113.597 57.3427 113.597C72.5039 113.597 86.7562 107.701 97.462 96.9729C108.19 86.2449 114.086 72.0148 114.086 56.8537C114.086 41.6926 108.168 27.4402 97.462 16.7344Z" fill="black"/>
<path d="M91.4321 22.7629C82.3221 13.6529 70.2198 8.64355 57.3418 8.64355C57.2753 8.64355 57.2088 8.64355 57.1201 8.64355V26.2872C57.1866 26.2872 57.2531 26.2872 57.3418 26.2872C70.1755 26.2872 81.7237 34.3775 86.0902 46.4355C86.4005 47.2999 87.3537 47.7432 88.2181 47.4329C89.0826 47.1226 89.5259 46.1695 89.2155 45.305C88.7279 43.953 88.1516 42.6452 87.5088 41.3818L97.0178 35.8848C100.099 41.6921 101.938 48.253 102.204 55.213H91.2104C91.1661 54.1712 91.0553 53.1294 90.9223 52.0876C90.7893 51.1789 89.947 50.5361 89.0382 50.6691C88.1294 50.8021 87.4866 51.6443 87.6196 52.5531C87.8191 53.9717 87.93 55.4346 87.93 56.8754C87.93 73.7432 74.2096 87.4414 57.3639 87.4414C57.2974 87.4414 57.2309 87.4414 57.1423 87.4414V105.063C57.2088 105.063 57.2753 105.063 57.3639 105.063C70.242 105.063 82.3443 100.053 91.4543 90.9435C100.564 81.8335 105.574 69.7313 105.574 56.8532C105.551 43.9751 100.542 31.8728 91.4321 22.7629ZM59.0042 23.0067V12.0127C65.9641 12.2565 72.525 14.1184 78.3324 17.1994L72.8354 26.7305C68.6018 24.5361 63.9027 23.2284 59.0042 23.0067ZM85.8243 38.4781C83.1866 34.3997 79.7066 30.9641 75.6947 28.3707L81.1917 18.8396C86.8882 22.4304 91.7424 27.2846 95.3332 32.9811L85.8243 38.4781ZM59.0042 101.716V90.7219C63.9692 90.478 68.6461 89.1703 72.8354 87.0202L78.3324 96.5513C72.5029 99.6102 65.9641 101.45 59.0042 101.716ZM81.1917 94.8668L75.6947 85.3357C79.7509 82.7202 83.1866 79.2624 85.8243 75.2061L95.3554 80.7031C91.7424 86.4218 86.9103 91.2538 81.1917 94.8668ZM87.4867 72.3468C89.6367 68.1575 90.9444 63.4806 91.1883 58.5156H102.182C101.938 65.4755 100.077 72.0365 96.9956 77.8438L87.4867 72.3468Z" fill="black"/>
<path d="M76.6703 50.0267C74.5424 50.0267 72.5697 51.0242 71.2841 52.6644H65.4546C64.5901 51.002 63.2159 49.6278 61.5535 48.7633V42.9338C63.1937 41.6482 64.1912 39.6533 64.1912 37.5476C64.1912 33.7795 61.1323 30.7207 57.3642 30.7207C57.2977 30.7207 57.2312 30.7207 57.1426 30.7207V34.0455C57.2091 34.0455 57.2756 34.0455 57.3642 34.0455C59.2926 34.0455 60.8664 35.6192 60.8664 37.5476C60.8664 38.8111 60.1792 39.9858 59.071 40.6064C58.539 40.8946 58.2287 41.4487 58.2287 42.0472V47.788C57.9405 47.7659 57.6524 47.7437 57.3642 47.7437C57.2977 47.7437 57.2312 47.7437 57.1426 47.7437V51.0685C57.2091 51.0685 57.2756 51.0685 57.3642 51.0685C60.556 51.0685 63.1716 53.6618 63.1716 56.8758C63.1716 60.0676 60.5782 62.6831 57.3642 62.6831C57.2977 62.6831 57.2312 62.6831 57.1426 62.6831V66.0079C57.2091 66.0079 57.2756 66.0079 57.3642 66.0079C57.6524 66.0079 57.9405 65.9858 58.2287 65.9636V71.7044C58.2287 72.3029 58.5612 72.857 59.071 73.1452C60.1792 73.7658 60.8664 74.9406 60.8664 76.204C60.8664 78.1324 59.2926 79.7061 57.3642 79.7061C57.2977 79.7061 57.2312 79.7061 57.1426 79.7061V83.0309C57.2091 83.0309 57.2756 83.0309 57.3642 83.0309C61.1323 83.0309 64.1912 79.9721 64.1912 76.204C64.1912 74.0761 63.1937 72.1034 61.5535 70.8178V64.9883C63.2159 64.1239 64.5901 62.7496 65.4546 61.0872H71.2841C72.5697 62.7275 74.5646 63.7249 76.6703 63.7249C80.4384 63.7249 83.4972 60.6661 83.4972 56.898C83.4972 53.0855 80.4384 50.0267 76.6703 50.0267ZM76.6703 60.3558C75.4068 60.3558 74.2321 59.6687 73.6114 58.5604C73.3233 58.0284 72.7692 57.7181 72.1707 57.7181H66.4299C66.452 57.43 66.4742 57.1418 66.4742 56.8537C66.4742 56.5655 66.452 56.2774 66.4299 55.9892H72.1707C72.7692 55.9892 73.3233 55.6567 73.6114 55.1469C74.2321 54.0387 75.4068 53.3515 76.6703 53.3515C78.5986 53.3515 80.1724 54.9253 80.1724 56.8537C80.1724 58.782 78.5986 60.3558 76.6703 60.3558Z" fill="black"/>
</g>
<defs>
<clipPath id="clip0">
<rect width="113.487" height="113.487" fill="white"/>
</clipPath>
</defs>
</svg>
