<svg width="56" height="71" viewBox="0 0 56 71" fill="none" xmlns="http://www.w3.org/2000/svg">
<path d="M31.7778 37.68C32.2353 40.2945 33.7811 42.6129 36.0188 44.0404C37.5546 45.0201 39.3328 45.5276 41.1264 45.5275C41.6041 45.5275 42.083 45.4904 42.5586 45.4176L46.2485 59.1883L42.8509 60.0987C41.0999 60.5678 40.0571 62.3742 40.5262 64.1251C40.7535 64.9734 41.2975 65.6823 42.058 66.1213C42.5645 66.4138 43.1267 66.5632 43.6964 66.5632C43.9819 66.5632 44.2693 66.5256 44.5527 66.4497L53.3485 64.0928C54.1969 63.8656 54.9057 63.3217 55.3448 62.5612C55.784 61.8007 55.9005 60.9147 55.6732 60.0665C55.4459 59.2182 54.902 58.5093 54.1415 58.0703C53.381 57.6312 52.4952 57.5147 51.6468 57.7419L48.2492 58.6522L44.5593 44.8815C46.6901 44.0504 48.4706 42.4657 49.5345 40.4188C50.7586 38.0636 50.9381 35.283 50.0271 32.79L49.6121 31.6544C49.4157 31.1171 48.8207 30.8408 48.2837 31.0372C47.7464 31.2334 47.4701 31.828 47.6665 32.3654L48.0814 33.5009C48.8039 35.478 48.6672 37.5956 47.6964 39.4635C46.7256 41.3313 45.0711 42.66 43.0378 43.205C41.004 43.7494 38.9071 43.4263 37.1325 42.294C35.3579 41.1619 34.1807 39.3965 33.8178 37.3228L32.8665 31.8869C33.3505 31.7322 33.7404 31.7167 34.1968 31.6992C35.0048 31.6681 35.9205 31.633 37.3003 30.8822C38.6803 30.1312 39.2073 29.3814 39.6721 28.7198C40.0705 28.1529 40.3852 27.705 41.3392 27.1859C42.2933 26.6668 42.8402 26.6459 43.5326 26.6192C44.0847 26.5981 44.689 26.5739 45.4573 26.3206L46.1159 28.1229C46.3122 28.6601 46.9068 28.9364 47.4443 28.7402C47.9816 28.544 48.2579 27.9493 48.0615 27.412L43.4124 14.6894C42.9798 13.5054 41.735 12.8587 40.5171 13.1847L30.2101 15.9464C28.9922 16.2727 28.2378 17.4555 28.4552 18.6974L31.7778 37.68ZM30.7467 17.9469L41.0538 15.1853C41.2278 15.1388 41.4053 15.2312 41.4674 15.4003L44.7462 24.3731C44.2791 24.5167 43.8966 24.5322 43.4534 24.5493C42.6454 24.5804 41.7296 24.6154 40.3496 25.3664C38.9696 26.1174 38.4427 26.8672 37.9778 27.5288C37.5794 28.0957 37.2647 28.5436 36.3107 29.0627C35.3569 29.5818 34.8101 29.6026 34.1178 29.6293C33.6441 29.6475 33.1308 29.6674 32.5076 29.8335L30.4962 18.3401C30.465 18.1625 30.5727 17.9936 30.7467 17.9469ZM53.551 61.5253C53.3886 61.8065 53.1263 62.0077 52.8126 62.0919C52.8126 62.0919 52.8126 62.0919 52.8124 62.0919L44.0165 64.4488C43.7027 64.5326 43.375 64.4895 43.0937 64.3273C42.8124 64.1649 42.6112 63.9026 42.5271 63.5887C42.443 63.2748 42.4861 62.9471 42.6485 62.6658C42.8109 62.3845 43.0733 62.1833 43.387 62.0991L52.183 59.7424C52.2878 59.7143 52.394 59.7004 52.4997 59.7004C52.7104 59.7004 52.9184 59.7556 53.1058 59.8639C53.3871 60.0263 53.5883 60.2885 53.6724 60.6024C53.7565 60.9163 53.7134 61.244 53.551 61.5253Z" fill="black"/>
<path d="M30.4437 11.6919C30.8406 11.6919 31.2349 11.5676 31.5717 11.3227C32.168 10.8894 32.461 10.1691 32.3363 9.44283L32.0204 7.60008L33.3591 6.29522C33.8869 5.78081 34.0732 5.02571 33.8454 4.32487C33.6177 3.62404 33.0231 3.12275 32.2939 3.01683L30.4439 2.7481L29.6164 1.07148C29.2902 0.410558 28.6297 0 27.8928 0C27.1558 0 26.4954 0.410558 26.1693 1.07148L25.3418 2.7481L23.4919 3.01683C22.7626 3.12275 22.168 3.62404 21.9402 4.32487C21.7125 5.02571 21.8988 5.78081 22.4266 6.29536L23.7653 7.60008L23.4492 9.44283C23.3246 10.1692 23.6177 10.8897 24.214 11.3227C24.8101 11.7559 25.5857 11.812 26.2382 11.4691L27.8928 10.5991L29.5476 11.4691C29.8313 11.6182 30.1383 11.6919 30.4437 11.6919ZM26.9983 8.72915L25.5419 9.49475L25.8202 7.87296C25.927 7.24918 25.7205 6.61325 25.2674 6.17162L24.0891 5.02336L25.7178 4.78666C26.344 4.69538 26.8849 4.30223 27.1647 3.73521L27.8928 2.25952L28.621 3.73493C28.9008 4.30209 29.4417 4.69525 30.0683 4.78653L31.6967 5.02322L30.5183 6.17162C30.0654 6.61312 29.8586 7.24918 29.9656 7.87282L30.2438 9.49462L28.7876 8.72901C28.2273 8.43432 27.5582 8.43432 26.9983 8.72915Z" fill="black"/>
<path d="M19.997 11.6325C20.1989 11.9171 20.5181 12.0688 20.8424 12.0688C21.0497 12.0688 21.259 12.0067 21.441 11.8776C21.9075 11.5466 22.0173 10.9 21.6861 10.4335L18.3658 5.75511C18.0348 5.28877 17.3882 5.17898 16.9217 5.50999C16.4552 5.84101 16.3454 6.48757 16.6766 6.95406L19.997 11.6325Z" fill="black"/>
<path d="M11.8172 13.9333L17.8166 15.6576C17.9122 15.6851 18.0084 15.6982 18.1032 15.6982C18.5532 15.6982 18.9676 15.4024 19.0982 14.9482C19.2563 14.3986 18.9386 13.8247 18.3889 13.6668L12.3895 11.9426C11.8397 11.7842 11.2659 12.1021 11.1079 12.652C10.95 13.2017 11.2674 13.7755 11.8172 13.9333Z" fill="black"/>
<path d="M35.4934 12.4011C35.7237 12.4011 35.9557 12.3246 36.1481 12.1675L41.213 8.02877C41.6561 7.66682 41.7216 7.01432 41.3597 6.57131C40.9978 6.12857 40.3454 6.06256 39.9024 6.42465L34.8375 10.5634C34.3944 10.9253 34.3288 11.5778 34.6908 12.0208C34.8956 12.2713 35.1932 12.4011 35.4934 12.4011Z" fill="black"/>
<path d="M5.75937 36.9324C4.84835 39.4254 5.02788 42.206 6.25196 44.5612C7.3157 46.6079 9.09631 48.1927 11.2271 49.0239L7.53735 62.7945L4.13979 61.8842C2.38915 61.4149 0.582722 62.458 0.113474 64.2089C-0.113831 65.0571 0.00272124 65.9431 0.441865 66.7034C0.881008 67.4641 1.58985 68.008 2.43803 68.2352L11.234 70.5921C11.5179 70.6681 11.8033 70.7045 12.0841 70.7045C13.5355 70.7043 14.8673 69.7345 15.2605 68.2675C15.7296 66.5164 14.6868 64.7102 12.9358 64.241L9.53821 63.3307L13.2277 49.5614C13.709 49.6359 14.193 49.6743 14.6765 49.6743C15.7064 49.6743 16.7331 49.5052 17.7205 49.1682C18.2618 48.9836 18.551 48.3949 18.3662 47.8535C18.1815 47.3121 17.5928 47.0228 17.0516 47.2078C15.6633 47.6815 14.1753 47.7295 12.7487 47.3475C10.7152 46.8026 9.06082 45.4739 8.09001 43.606C7.11919 41.7383 6.98248 39.6207 7.705 37.6434L9.59911 32.4602C10.0956 32.5682 10.4409 32.7498 10.845 32.9628C11.5602 33.3398 12.371 33.7674 13.9412 33.807C15.5115 33.846 16.3431 33.4607 17.0766 33.1201C17.705 32.8285 18.2014 32.5959 19.2873 32.6255C20.3732 32.6528 20.8573 32.9082 21.4702 33.2313C21.9589 33.4888 22.4945 33.7701 23.2864 33.9352L21.9686 41.4654C21.7416 42.7625 21.1761 43.9744 20.333 44.9704C19.9635 45.407 20.0177 46.0606 20.4544 46.43C20.649 46.5947 20.8866 46.6752 21.123 46.6752C21.417 46.6752 21.7093 46.5506 21.9142 46.3087C22.9945 45.0324 23.7188 43.481 24.0091 41.8225L27.3313 22.8398C27.5486 21.5979 26.7942 20.4151 25.5762 20.0888L15.2693 17.3271C14.0509 17.0002 12.8067 17.6476 12.3739 18.8318L11.1067 22.2997C10.9103 22.837 11.1868 23.4316 11.724 23.628C12.261 23.8237 12.8558 23.5479 13.0523 23.0106L14.3195 19.5427C14.3814 19.3736 14.5587 19.2813 14.7332 19.3277L25.0401 22.0893C25.2141 22.136 25.322 22.3049 25.2909 22.4825L23.6441 31.8925C23.168 31.7834 22.8288 31.6055 22.4365 31.3986C21.7211 31.0216 20.9105 30.5942 19.34 30.5545C17.7693 30.5145 16.9381 30.9008 16.2046 31.2413C15.5762 31.533 15.0798 31.7657 13.9939 31.736C12.9083 31.7087 12.4243 31.4535 11.8114 31.1303C11.3921 30.9092 10.9378 30.6698 10.3149 30.5021L11.5032 27.2504C11.6995 26.7131 11.4231 26.1184 10.8859 25.9222C10.3487 25.7258 9.75392 26.0021 9.55754 26.5395L5.75937 36.9324ZM12.3994 66.2419C12.7132 66.326 12.9755 66.5272 13.1379 66.8087C13.3003 67.0901 13.3434 67.4177 13.2595 67.7315C13.0857 68.3791 12.4176 68.7644 11.77 68.5915L2.97385 66.2346C2.66023 66.1505 2.39799 65.9493 2.23545 65.6678C2.07305 65.3865 2.02996 65.0588 2.11406 64.7451C2.25948 64.2022 2.7522 63.8435 3.28912 63.8435C3.39296 63.8435 3.49847 63.857 3.60342 63.885L12.3994 66.2419Z" fill="black"/>
</svg>
