<svg width="95" height="96" viewBox="0 0 95 96" fill="none" xmlns="http://www.w3.org/2000/svg">
<g clip-path="url(#clip0)">
<path d="M44.6611 41.2201C30.6385 35.681 14.7804 42.5584 9.24059 56.5817C3.70148 70.6042 10.5789 86.4623 24.6022 92.0014C38.6247 97.5406 54.4828 90.6632 60.0219 76.6406C65.5611 62.6173 58.6837 46.7592 44.6611 41.2201Z" fill="#FFC5B2"/>
<path d="M44.6587 41.2217C39.2745 39.0952 33.6203 38.8006 28.3837 40.0361C29.6518 40.3357 30.9148 40.7288 32.1626 41.2217C46.1852 46.7615 53.0618 62.6189 47.5227 76.6414C44.1101 85.2798 36.7811 91.204 28.3779 93.1864C41.3626 96.2574 54.9719 89.4155 60.0181 76.6414C65.558 62.6189 58.6806 46.7615 44.6587 41.2217Z" fill="#FFA6A0"/>
<path d="M39.3542 49.0287C39.8001 47.901 39.182 46.8385 37.9819 46.667L30.5747 46.756C29.3841 46.9855 28.8051 48.0834 29.2871 49.1952L33.6436 59.2413C34.1263 60.3537 34.8856 60.3414 35.3307 59.2138L39.3542 49.0287Z" fill="#FF8500"/>
<path d="M27.2606 67.5965C28.3723 67.1144 28.36 66.3552 27.2323 65.9093L17.0473 61.8858C15.9196 61.4407 14.8571 62.0581 14.6855 63.2581L14.7746 70.6653C15.004 71.8559 16.102 72.435 17.2144 71.9529L27.2606 67.5965Z" fill="#FF8500"/>
<path d="M28.395 61.7259C29.5226 62.1717 30.051 61.626 29.5682 60.5136L25.2118 50.4674C24.7297 49.3557 23.5326 49.0278 22.5512 49.74L17.4239 55.0866C16.7283 56.0804 17.0822 57.2573 18.2099 57.7024L28.395 61.7259Z" fill="#FF8500"/>
<path d="M46.1528 49.4063C45.1598 48.7107 43.9829 49.0647 43.5371 50.1923L39.5136 60.3774C39.0684 61.5051 39.6142 62.0327 40.7259 61.5507L50.772 57.1942C51.8845 56.7114 52.2116 55.5143 51.4994 54.5329L46.1528 49.4063Z" fill="#FF8500"/>
<path d="M35.6147 73.9792C35.1326 72.8667 34.3734 72.879 33.9283 74.0067L29.9048 84.1918C29.4589 85.3194 30.0763 86.3819 31.277 86.5535L38.6842 86.4644C39.8741 86.235 40.4539 85.1377 39.9711 84.0253L35.6147 73.9792Z" fill="#FF8500"/>
<path d="M29.7466 72.846C30.1917 71.7184 29.646 71.1907 28.5342 71.6728L18.4881 76.0292C17.3757 76.512 17.0485 77.7091 17.7607 78.6899L23.1073 83.8171C24.1003 84.5127 25.2772 84.1588 25.7231 83.0311L29.7466 72.846Z" fill="#FF8500"/>
<path d="M41.998 65.625C40.8855 66.1071 40.8985 66.8663 42.0255 67.3122L52.2113 71.3357C53.3389 71.7808 54.4014 71.1634 54.573 69.9634L54.4839 62.5562C54.2545 61.3656 53.1565 60.7865 52.0441 61.2686L41.998 65.625Z" fill="#FF8500"/>
<path d="M40.8632 71.4951C39.7363 71.05 39.2079 71.595 39.6907 72.7074L44.0471 82.7535C44.5292 83.866 45.7263 84.1932 46.7077 83.481L51.835 78.1344C52.5306 77.1413 52.1766 75.9637 51.049 75.5186L40.8632 71.4951Z" fill="#FF8500"/>
<path d="M43.6982 49.8707C45.6691 52.414 47.1731 55.2831 48.1459 58.3331L50.7718 57.1946C51.8835 56.7119 52.2107 55.5147 51.4992 54.534L46.1519 49.4067C45.2616 48.7828 44.2244 49.005 43.6982 49.8707Z" fill="#FF6D00"/>
<path d="M52.0441 61.2695L49.1279 62.534C49.5072 65.0253 49.5427 67.5867 49.2061 70.1496L52.2112 71.3366C53.3382 71.7818 54.4014 71.1644 54.5722 69.9644L54.4839 62.5572C54.2545 61.3665 53.1565 60.7875 52.0441 61.2695Z" fill="#FF6D00"/>
<path d="M46.7068 83.4813L51.8341 78.1347C52.5296 77.1417 52.1757 75.9641 51.048 75.519L48.2883 74.4282C48.0653 75.1701 47.812 75.9084 47.5225 76.6408C46.6293 78.9012 45.467 80.9734 44.0889 82.8393C44.5948 83.8808 45.7521 84.1747 46.7068 83.4813Z" fill="#FF6D00"/>
<path d="M83.8984 27.8695H83.7399V17.8184H57.5621V28.8857L54.0518 48.5799V88.8135C54.0518 91.8715 56.5307 94.3512 59.5887 94.3512H82.0528C85.1107 94.3512 87.5897 91.8715 87.5897 88.8135V48.5799L83.8984 27.8695Z" fill="#90E7FC"/>
<path d="M83.8986 27.8695H83.7401V17.8184H74.3063L74.3251 27.8695L78.0171 48.5799V84.5866C78.0171 87.6453 75.5374 90.1243 72.4794 90.1243H54.209C54.7981 92.5497 56.9825 94.3512 59.5889 94.3512H82.0529C85.1109 94.3512 87.5899 91.8722 87.5899 88.8135V48.5799L83.8986 27.8695Z" fill="#58D5EA"/>
<path d="M84.5413 19.91H57.1005C55.3337 19.91 53.9014 18.4776 53.9014 16.7108C53.9014 14.9441 55.3337 13.5117 57.1005 13.5117H84.5413C86.308 13.5117 87.7404 14.9441 87.7404 16.7108C87.7404 18.4776 86.308 19.91 84.5413 19.91Z" fill="#90E7FC"/>
<path d="M84.5413 30.0008H57.1005C55.3337 30.0008 53.9014 28.5684 53.9014 26.8017C53.9014 25.0349 55.3337 23.6025 57.1005 23.6025H84.5413C86.308 23.6025 87.7404 25.0349 87.7404 26.8017C87.7404 28.5684 86.308 30.0008 84.5413 30.0008Z" fill="#90E7FC"/>
<path d="M84.5412 13.5117H78.8516C80.0386 13.9786 80.8803 15.1337 80.8803 16.4865V16.9345C80.8803 18.288 80.0393 19.4424 78.8516 19.91H84.5412C86.308 19.91 87.7403 18.4776 87.7403 16.7108C87.7403 14.9441 86.308 13.5117 84.5412 13.5117Z" fill="#58D5EA"/>
<path d="M84.5412 23.6025H78.8516C80.0386 24.0694 80.8803 25.2245 80.8803 26.5773V27.0253C80.8803 28.3788 80.0393 29.5332 78.8516 30.0008H84.5412C86.308 30.0008 87.7403 28.5684 87.7403 26.8017C87.7403 25.0349 86.308 23.6025 84.5412 23.6025Z" fill="#58D5EA"/>
<path d="M54.0518 48.5802V88.8139C54.0518 91.8719 56.5307 94.3516 59.5887 94.3516H82.0528C85.1107 94.3516 87.5897 91.8719 87.5897 88.8139V48.5802L86.0792 40.1055H55.5623L54.0518 48.5802Z" fill="#FF8500"/>
<path d="M59.5889 94.3516H82.0529C85.1109 94.3516 87.5899 91.8719 87.5899 88.8139V48.5802L86.0793 40.1055H76.5066L78.0171 48.5802V84.587C78.0171 87.645 75.5381 90.1247 72.4794 90.1247H54.209C54.7981 92.5501 56.9825 94.3516 59.5889 94.3516Z" fill="#FF6D00"/>
<path d="M74.3253 57.4693C73.7261 57.4693 73.1738 57.077 72.9972 56.4727L57.2658 2.64055C57.0515 1.90663 57.4728 1.13798 58.2067 0.923012C58.9406 0.708773 59.7093 1.13001 59.9235 1.86393L75.6542 55.696C75.8692 56.43 75.4479 57.1986 74.714 57.4128C74.5845 57.4512 74.4535 57.4693 74.3253 57.4693Z" fill="#FF8500"/>
<path d="M71.1257 40.1055H68.2422L72.9974 56.4731C73.1741 57.0775 73.7263 57.4698 74.3256 57.4698C74.4537 57.4698 74.5847 57.4517 74.7143 57.414C75.4482 57.1991 75.8694 56.4304 75.6545 55.6965L71.1257 40.1055Z" fill="#F63511"/>
<path d="M32.374 59.7919C33.0189 61.2793 34.0524 61.4515 34.4961 61.4515H34.5236C34.9514 61.445 36.0103 61.2619 36.6183 59.7224L40.6418 49.5366C41.0109 48.6029 40.953 47.6027 40.4825 46.7935C40.0121 45.9836 39.1718 45.4378 38.1773 45.296C38.1071 45.2866 38.0354 45.2822 37.9652 45.2822L30.558 45.3713C30.4755 45.3727 30.3937 45.3807 30.3127 45.3966C29.3312 45.5855 28.517 46.1696 28.0798 46.9983C27.6419 47.827 27.6195 48.8288 28.0175 49.7458L32.374 59.7919ZM30.5283 48.2903C30.5624 48.2259 30.6398 48.1723 30.7462 48.1383L37.8661 48.0529C37.9739 48.0796 38.055 48.1267 38.0883 48.1846C38.1295 48.2555 38.1216 48.3807 38.0673 48.5197L34.4614 57.6466L30.5573 48.6442C30.4958 48.5016 30.4849 48.3728 30.5283 48.2903Z" fill="black"/>
<path d="M17.7637 73.2233L27.8105 68.8668C29.329 68.2082 29.4767 67.1435 29.4694 66.7164C29.4629 66.2894 29.2798 65.2305 27.7403 64.6218L17.5545 60.5983C16.6209 60.2299 15.6213 60.2878 14.8114 60.7583C14.0022 61.2287 13.4565 62.0683 13.3146 63.0628C13.3045 63.133 13.3001 63.2039 13.3009 63.2748L13.3899 70.682C13.3906 70.7646 13.3993 70.8463 13.4145 70.9274C13.6041 71.9096 14.1875 72.7231 15.0169 73.161C15.4519 73.3904 15.9354 73.5055 16.4283 73.5055C16.8742 73.5063 17.3287 73.4122 17.7637 73.2233ZM16.1562 70.4946L16.0708 63.3747C16.0976 63.2662 16.1453 63.1858 16.2025 63.1525C16.2734 63.1105 16.3987 63.1185 16.5376 63.1735L25.6652 66.7794L16.6628 70.6828C16.5195 70.745 16.3907 70.7559 16.3089 70.7124C16.2438 70.6784 16.1902 70.601 16.1562 70.4946Z" fill="black"/>
<path d="M17.7006 58.991L27.8864 63.0145C28.3467 63.1962 28.7455 63.2657 29.0872 63.2657C29.8884 63.2657 30.3719 62.8828 30.5803 62.6678C30.8771 62.3609 31.4966 61.483 30.838 59.9638L26.4815 49.9176C26.0835 49.0006 25.3372 48.3326 24.4332 48.085C23.5285 47.8382 22.5463 48.0329 21.7371 48.6206C21.6705 48.6691 21.6083 48.7234 21.5518 48.7828L16.4246 54.1293C16.3753 54.1807 16.3297 54.2357 16.2892 54.2936C15.7131 55.1166 15.5379 56.1031 15.8072 56.9999C16.0764 57.8959 16.7669 58.6219 17.7006 58.991ZM18.5148 55.9504L23.4431 50.8108C23.5408 50.7565 23.632 50.7362 23.7029 50.7558C23.7927 50.7804 23.8795 50.8767 23.9418 51.0192L27.8451 60.0217L18.7182 56.4158C18.5793 56.3615 18.483 56.2819 18.4591 56.203C18.4396 56.1386 18.4606 56.0474 18.5148 55.9504Z" fill="black"/>
<path d="M42.2497 49.6824L38.2262 59.8674C37.6175 61.4076 38.266 62.2646 38.5729 62.5614C38.7806 62.7626 39.2503 63.1122 40.0031 63.1114C40.362 63.1114 40.7862 63.0318 41.2769 62.8197L51.323 58.4626C52.0244 58.1586 52.3464 57.3436 52.0417 56.6423C51.7377 55.9409 50.9228 55.6188 50.2214 55.9228L41.219 59.8269L44.8242 50.6993C44.8792 50.561 44.9588 50.464 45.0377 50.4402C45.1014 50.4206 45.1926 50.4416 45.2903 50.4959L47.7106 52.8171C48.2621 53.3461 49.1386 53.3273 49.6677 52.7758C50.1968 52.2243 50.1787 51.3478 49.6265 50.8187L47.1106 48.4056C47.0592 48.3564 47.0042 48.3115 46.9463 48.271C46.1234 47.6948 45.1368 47.519 44.2408 47.7889C43.344 48.0582 42.6181 48.7487 42.2497 49.6824Z" fill="black"/>
<path d="M34.7343 71.7707C34.3066 71.7779 33.2477 71.9603 32.6397 73.5005L28.6162 83.6856C28.247 84.6193 28.3057 85.6196 28.7761 86.4295C29.2466 87.2387 30.0862 87.7844 31.0807 87.9263C31.1451 87.9357 31.2102 87.94 31.2761 87.94H31.2927L38.6999 87.851C38.7824 87.8503 38.8642 87.8416 38.9453 87.8264C39.9275 87.6368 40.7417 87.0527 41.1789 86.2239C41.616 85.3952 41.6385 84.3935 41.2404 83.4765L36.884 73.4303C36.2253 71.9111 35.1671 71.7642 34.7343 71.7707ZM38.7296 84.932C38.6956 84.9964 38.6181 85.05 38.5117 85.084L31.3919 85.1694C31.284 85.1426 31.203 85.0956 31.1697 85.0377C31.1284 84.9667 31.1364 84.8415 31.1914 84.7025L34.7966 75.5756L38.7006 84.578C38.7622 84.7206 38.773 84.8495 38.7296 84.932Z" fill="black"/>
<path d="M30.6853 70.6599C30.3784 70.3624 29.5004 69.7428 27.9819 70.4015L17.9351 74.7586C17.0181 75.156 16.35 75.9029 16.1025 76.8069C15.8557 77.7102 16.0511 78.6931 16.6388 79.5023C16.6866 79.5689 16.7408 79.6311 16.8009 79.6883L22.1475 84.8156C22.1982 84.8648 22.2532 84.9097 22.3118 84.9502C22.8814 85.349 23.5292 85.556 24.1719 85.556C24.4571 85.556 24.7415 85.5155 25.0173 85.433C25.9134 85.163 26.6393 84.4725 27.0084 83.5389L31.0319 73.3531C31.6406 71.8136 30.9921 70.9566 30.6853 70.6599ZM24.4332 82.5219C24.3789 82.6609 24.2993 82.7572 24.2204 82.7811C24.1567 82.8006 24.0655 82.7796 23.9678 82.7253L18.8282 77.7971C18.774 77.6994 18.7544 77.6075 18.774 77.5365C18.7978 77.4475 18.8941 77.3606 19.0367 77.2984L28.0391 73.3943L24.4332 82.5219Z" fill="black"/>
<path d="M89.1251 26.8008C89.1251 24.4709 87.3779 22.5435 85.1247 22.2554V21.2559C87.3779 20.9678 89.1251 19.0404 89.1251 16.7105C89.1251 14.183 87.0688 12.1268 84.5414 12.1268H62.9234L59.924 1.86353C59.7098 1.12961 58.9412 0.708368 58.2072 0.923332C57.4733 1.13757 57.0521 1.90623 57.2663 2.64015L60.0384 12.1268H57.1006C54.5731 12.1268 52.5169 14.183 52.5169 16.7105C52.5169 18.9217 54.0911 20.7724 56.1777 21.2008V22.3104C54.0911 22.7382 52.5169 24.5889 52.5169 26.8008C52.5169 28.857 53.8783 30.6013 55.7471 31.1804L53.3123 44.8396C50.9021 42.7681 48.1727 41.1215 45.1668 39.9338C30.4574 34.1233 13.7626 41.3633 7.95134 56.0727C5.13655 63.1984 5.26466 70.9935 8.31324 78.0229C11.3611 85.0516 16.9646 90.4734 24.0903 93.2882C27.5203 94.6432 31.0965 95.3011 34.6423 95.3011C41.1303 95.3011 47.5083 93.0935 52.6696 88.9158C52.7253 92.6853 55.8064 95.7346 59.5889 95.7346H82.0523C85.8688 95.7346 88.9738 92.6296 88.9738 88.8131V48.5794C88.9738 48.4983 88.9666 48.4165 88.9528 48.3369L85.8948 31.1804C87.7636 30.6013 89.1251 28.857 89.1251 26.8008ZM52.6674 70.0273L43.5926 66.4431L52.595 62.539C52.6182 62.5289 52.6428 62.5202 52.6674 62.5115V70.0273ZM52.6891 48.3369C52.6746 48.4165 52.6674 48.4983 52.6674 48.5794V59.7206C52.2773 59.7401 51.8806 59.8306 51.4934 59.9985L41.4473 64.355C39.9288 65.0144 39.7812 66.0783 39.7877 66.5053C39.7949 66.9324 39.9773 67.9913 41.5175 68.6L51.7026 72.6235C52.0203 72.7487 52.3453 72.8232 52.6674 72.8508V74.949C52.3591 74.6472 51.9849 74.4004 51.5571 74.231L41.3713 70.2075C39.8318 69.5995 38.9749 70.2473 38.6774 70.5542C38.3806 70.8611 37.7611 71.739 38.4197 73.2582L42.7762 83.3044C43.1743 84.2221 43.9205 84.8894 44.8245 85.137C45.0814 85.2065 45.3442 85.2412 45.6076 85.2412C46.272 85.2412 46.9408 85.0219 47.5206 84.6014C47.5872 84.5529 47.6494 84.4986 47.7059 84.4392L52.6674 79.2656V85.2202C45.3579 92.3017 34.6061 94.4658 25.1079 90.713C18.6699 88.1703 13.6077 83.2718 10.8537 76.9213C8.09972 70.5708 7.98391 63.5277 10.5266 57.0896C15.7769 43.8003 30.8598 37.2594 44.1499 42.509C47.3903 43.7894 50.276 45.656 52.7376 48.0641L52.6891 48.3369ZM50.7429 77.2723L45.8146 82.4112C45.7169 82.4655 45.625 82.4858 45.5548 82.4662C45.465 82.4416 45.3782 82.3461 45.3159 82.2028L41.4126 73.2003L50.5395 76.8062C50.6784 76.8612 50.7754 76.9409 50.7986 77.0197C50.8181 77.0834 50.7971 77.1746 50.7429 77.2723ZM84.5414 14.8952C85.5424 14.8952 86.3566 15.7095 86.3566 16.7105C86.3566 17.7115 85.5424 18.525 84.5414 18.525H64.7929L63.7326 14.8952H84.5414ZM62.9871 22.217H58.9469V21.2942H62.7179L62.9871 22.217ZM55.286 16.7105C55.286 15.7095 56.1003 14.8952 57.1006 14.8952H60.8476L61.9087 18.525H57.1006C56.1003 18.525 55.286 17.7115 55.286 16.7105ZM55.286 26.8008C55.286 25.7998 56.1003 24.9855 57.1006 24.9855H57.5609H57.5623H57.5645H63.7963L64.8574 28.616H57.1006C56.1003 28.616 55.286 27.8018 55.286 26.8008ZM86.2061 48.7017V88.8131C86.2061 91.1031 84.343 92.9661 82.053 92.9661H59.5889C57.2989 92.9661 55.4359 91.1031 55.4359 88.8131V48.7017L58.5228 31.3845H65.6665L67.8104 38.7207H62.3038C61.5395 38.7207 60.92 39.3403 60.92 40.1046C60.92 40.8689 61.5395 41.4892 62.3038 41.4892H68.6189L72.9977 56.4723C73.1743 57.0766 73.7266 57.4689 74.3259 57.4689C74.454 57.4689 74.585 57.4508 74.7146 57.4125C75.4485 57.1982 75.8697 56.4296 75.6548 55.6956L71.5039 41.4892H84.9206L86.2061 48.7017ZM68.5508 31.3845H83.1191L84.427 38.7207H70.6947L68.5508 31.3845ZM84.5414 28.616H67.7416L66.158 23.1963C66.1573 23.1927 66.1558 23.1898 66.1551 23.1869L65.6021 21.2942H82.3563V22.217H71.1333C70.369 22.217 69.7487 22.8373 69.7487 23.6016C69.7487 24.366 70.369 24.9855 71.1333 24.9855H83.7387H83.7409H83.7423H84.5414C85.5424 24.9855 86.3566 25.7998 86.3566 26.8008C86.3566 27.8018 85.5424 28.616 84.5414 28.616Z" fill="black"/>
</g>
<defs>
<clipPath id="clip0">
<rect width="94.8677" height="94.8677" fill="white" transform="translate(0 0.866211)"/>
</clipPath>
</defs>
</svg>
