<svg width="89" height="84" viewBox="0 0 89 84" fill="none" xmlns="http://www.w3.org/2000/svg">
<path d="M8.98769 29.3984C7.41606 31.4909 5.83546 33.5924 4.26384 35.6849C3.32985 36.9243 2.39586 38.1726 1.46186 39.4119C1.28225 39.6454 0.932001 39.9687 0.833213 40.2471C0.743406 40.5076 0.940982 40.9297 1.01283 41.2081C1.22836 42.0792 1.47084 42.9413 1.74026 43.7945C2.96164 47.6113 4.73084 51.2395 6.85028 54.6342C9.75105 59.2593 13.4331 63.6239 17.672 67.4946C21.9109 71.3742 26.6886 74.742 31.7538 77.3913C36.8099 80.0316 42.1354 81.9355 47.4969 82.8875C50.4156 79.394 53.3344 75.9095 56.2531 72.416C50.712 71.3922 45.3685 69.4164 40.3842 66.7941C35.2742 64.1088 30.4426 60.6962 26.1498 56.7806C21.866 52.865 18.1211 48.4645 15.1754 43.8125C12.2387 39.1694 10.1013 34.2839 8.98769 29.3984Z" fill="#243B0C"/>
<path d="M12.2387 8.86816C9.67021 12.3437 7.09275 15.8192 4.52427 19.2948C3.55435 20.6059 2.68322 21.971 2.00967 23.4528C1.41694 24.773 0.940966 26.174 0.60868 27.6648C0.276394 29.1556 0.0698383 30.7272 0.0159541 32.3707C-0.0379301 34.0231 0.0518766 35.7474 0.303336 37.5435C2.9257 34.0411 5.55704 30.5386 8.17941 27.0361C8.43087 26.6948 8.44883 26.7218 8.43087 26.2997C8.35902 24.6742 8.10756 23.0846 8.15247 21.4501C8.19737 19.7977 8.38597 18.226 8.71825 16.7353C9.04156 15.2445 9.50855 13.8435 10.1013 12.5233C10.685 11.2211 11.4035 9.99973 12.2387 8.86816Z" fill="#243B0C"/>
<path d="M57.1422 72.5685C54.2235 76.0531 51.3048 79.5465 48.386 83.0311C51.0892 83.4621 53.8284 83.6507 56.5675 83.516C59.127 83.3903 61.5068 82.9862 63.7071 82.3396C65.8894 81.6929 67.8831 80.7949 69.6613 79.6723C71.4305 78.5587 72.9842 77.2206 74.2954 75.6849C77.241 72.2452 80.1957 68.8146 83.1413 65.375C81.8122 66.9197 80.2406 68.2578 78.5073 69.3445C76.7291 70.4581 74.7354 71.3472 72.5441 71.9848C70.3439 72.6224 67.946 73.0086 65.3775 73.1164C62.7911 73.2152 60.043 73.0445 57.1422 72.5685Z" fill="#243B0C"/>
<path d="M49.9306 70.8086C47.0299 74.3111 44.1291 77.8225 41.2194 81.325C41.7402 81.4866 42.2611 81.6393 42.782 81.792C43.3029 81.9357 43.8238 82.0794 44.3446 82.2051C44.8655 82.3398 45.3864 82.4566 45.9163 82.5733C46.4371 82.6901 46.958 82.7888 47.4879 82.8876C47.5238 82.8966 47.5597 82.8966 47.5957 82.9056C47.6316 82.9146 47.6675 82.9146 47.7034 82.9235C47.7393 82.9325 47.7753 82.9325 47.8112 82.9415C47.8471 82.9505 47.883 82.9505 47.919 82.9595C47.9549 82.9685 47.9908 82.9684 48.0267 82.9774C48.0627 82.9864 48.0986 82.9864 48.1345 82.9954C48.1704 83.0044 48.2063 83.0044 48.2423 83.0134C48.2782 83.0223 48.3141 83.0223 48.35 83.0313C48.8709 83.1121 49.3828 83.184 49.8947 83.2469C50.4066 83.3097 50.9095 83.3546 51.4125 83.3995C51.9154 83.4444 52.4093 83.4714 52.8943 83.4983C53.3882 83.5253 53.8732 83.5342 54.3491 83.5432C57.2769 80.0677 60.2135 76.5922 63.1413 73.1256C62.6563 73.1166 62.1623 73.0987 61.6774 73.0717C61.1835 73.0448 60.6895 73.0089 60.1866 72.964C59.6837 72.9191 59.1718 72.8652 58.6599 72.8023C58.148 72.7394 57.6271 72.6676 57.1062 72.5778C57.0703 72.5688 57.0344 72.5688 56.9984 72.5598C56.9625 72.5508 56.9266 72.5508 56.8907 72.5419C56.8548 72.5329 56.8188 72.5329 56.7829 72.5239C56.747 72.5149 56.7111 72.5149 56.6751 72.5059C56.6392 72.497 56.6033 72.497 56.5674 72.488C56.5315 72.479 56.4955 72.479 56.4596 72.47C56.4237 72.461 56.3878 72.461 56.3518 72.452C56.3159 72.4431 56.28 72.4341 56.2441 72.4341C55.7142 72.3353 55.1933 72.2275 54.6635 72.1108C54.1336 71.994 53.6127 71.8683 53.0829 71.7336C52.553 71.5989 52.0321 71.4552 51.5023 71.3025C50.9814 71.1319 50.4605 70.9702 49.9306 70.8086Z" fill="#9A95A0"/>
<path d="M8.15245 22.3213C6.72452 24.2342 5.29659 26.1471 3.86866 28.06C2.93467 29.3083 2.00067 30.5656 1.06668 31.8139C0.788279 32.1821 0.464975 32.5503 0.222496 32.9455C-0.0559053 33.4035 -0.00202066 33.6819 0.0159407 34.2836C0.0249214 34.6338 0.0428807 34.9931 0.0698228 35.3523C0.0967648 35.7115 0.123709 36.0707 0.159632 36.4389C0.195555 36.8072 0.240456 37.1754 0.29434 37.5436V37.5526V37.5615V37.5705V37.5795C0.29434 37.6064 0.303323 37.6244 0.303323 37.6513C0.303323 37.6783 0.312302 37.6963 0.312302 37.7232C0.312302 37.7501 0.321285 37.7681 0.321285 37.795C0.321285 37.822 0.330264 37.8399 0.330264 37.8669C0.330264 37.8848 0.330266 37.8938 0.339247 37.9118C0.339247 37.9297 0.339245 37.9387 0.348226 37.9567C0.348226 37.9747 0.348224 37.9836 0.357205 38.0016C0.357205 38.0196 0.357207 38.0285 0.366188 38.0465C0.366188 38.0645 0.375167 38.0824 0.375167 38.1004C0.375167 38.1183 0.384149 38.1363 0.384149 38.1543C0.384149 38.1722 0.393129 38.1902 0.393129 38.2081C0.393129 38.2261 0.402111 38.2441 0.402111 38.262C0.402111 38.28 0.41109 38.3069 0.41109 38.3249C0.41109 38.3429 0.42007 38.3698 0.42007 38.3878C0.42007 38.4057 0.429052 38.4327 0.429052 38.4506C0.429052 38.4686 0.438031 38.4955 0.438031 38.5135C0.438031 38.5225 0.438033 38.5404 0.447014 38.5494C0.447014 38.5584 0.447012 38.5764 0.455993 38.5853C0.455993 38.5943 0.455995 38.6123 0.464976 38.6213C0.464976 38.6302 0.464974 38.6482 0.473955 38.6572C0.482936 38.6931 0.482936 38.729 0.491917 38.7649C0.500897 38.8009 0.500898 38.8368 0.509879 38.8727C0.518859 38.9086 0.51886 38.9446 0.52784 38.9805C0.536821 39.0164 0.536821 39.0523 0.545802 39.0883C0.554783 39.1242 0.554783 39.1601 0.563764 39.196C0.572745 39.232 0.581722 39.2679 0.581722 39.3038C0.590703 39.3397 0.599684 39.3756 0.599684 39.4116C0.608665 39.4475 0.617646 39.4834 0.617646 39.5193C0.617646 39.5373 0.626629 39.5463 0.626629 39.5642C0.626629 39.5822 0.635608 39.5912 0.635608 39.6091C0.635608 39.6271 0.644587 39.6361 0.644587 39.654C0.644587 39.672 0.65357 39.681 0.65357 39.6989C0.65357 39.7169 0.662549 39.7349 0.662549 39.7528C0.662549 39.7708 0.671531 39.7887 0.671531 39.8067C0.671531 39.8247 0.680511 39.8426 0.680511 39.8606C0.680511 39.8786 0.689493 39.8965 0.689493 39.9145C0.689493 39.9324 0.698474 39.9594 0.707455 39.9773C0.716436 39.9953 0.716433 40.0222 0.725414 40.0402C0.734394 40.0582 0.734395 40.0851 0.743375 40.1031C0.743375 40.121 0.752356 40.148 0.761337 40.1659C0.761337 40.1749 0.761339 40.1839 0.77032 40.1929C0.77032 40.2019 0.770318 40.2108 0.779299 40.2198C0.779299 40.2288 0.779301 40.2378 0.788282 40.2468C0.788282 40.2558 0.78828 40.2647 0.797261 40.2737C0.887068 40.6868 0.985854 41.091 1.09362 41.5041C1.20139 41.9172 1.30916 42.3213 1.43489 42.7344C1.55164 43.1475 1.67737 43.5517 1.81208 43.9558C1.94679 44.3599 2.09048 44.773 2.23417 45.1772C3.68006 43.2733 5.11698 41.3693 6.56287 39.4654C7.49686 38.2261 8.43984 36.9868 9.37383 35.7564C9.65223 35.3882 10.0025 35.02 10.236 34.6248C10.2899 34.535 10.4156 34.4452 10.4425 34.3464C10.5234 34.068 10.1372 33.3765 10.0384 33.0802C9.90369 32.6671 9.76898 32.2629 9.64325 31.8498C9.51752 31.4367 9.40077 31.0326 9.29301 30.6195C9.18524 30.2063 9.08645 29.7932 8.98766 29.3891C8.98766 29.3801 8.98766 29.3711 8.97868 29.3622C8.97868 29.3532 8.97868 29.3442 8.9697 29.3352C8.9697 29.3262 8.9697 29.3173 8.96072 29.3083C8.96072 29.2993 8.96072 29.2903 8.95174 29.2813C8.94275 29.2544 8.94276 29.2364 8.93378 29.2185C8.9248 29.2005 8.92479 29.1736 8.91581 29.1556C8.90683 29.1376 8.90683 29.1107 8.89785 29.0927C8.88887 29.0658 8.88887 29.0478 8.87989 29.0299C8.87989 29.0119 8.87091 28.994 8.87091 28.976C8.87091 28.958 8.86193 28.9401 8.86193 28.9221C8.86193 28.9041 8.85295 28.8862 8.85295 28.8682C8.85295 28.8503 8.84397 28.8323 8.84397 28.8143C8.84397 28.7964 8.83499 28.7874 8.83499 28.7694C8.83499 28.7515 8.82601 28.7425 8.82601 28.7245C8.82601 28.7066 8.81702 28.6976 8.81702 28.6796C8.81702 28.6617 8.80805 28.6527 8.80805 28.6347C8.79907 28.5988 8.79008 28.5629 8.79008 28.527C8.7811 28.491 8.77212 28.4551 8.77212 28.4192C8.76314 28.3833 8.75416 28.3473 8.75416 28.3114C8.74518 28.2755 8.7362 28.2396 8.7362 28.2036C8.72722 28.1677 8.71824 28.1318 8.71824 28.0959C8.70926 28.06 8.70926 28.024 8.70028 27.9881C8.6913 27.9522 8.68232 27.9163 8.68232 27.8803C8.67334 27.8444 8.67333 27.8085 8.66435 27.7726C8.66435 27.7636 8.66435 27.7456 8.65537 27.7366C8.65537 27.7277 8.64639 27.7097 8.64639 27.7007C8.64639 27.6918 8.64639 27.6738 8.63741 27.6648C8.63741 27.6558 8.63741 27.6379 8.62843 27.6289C8.62843 27.6109 8.61945 27.584 8.61945 27.566C8.61945 27.5481 8.61047 27.5211 8.61047 27.5032C8.61047 27.4852 8.60149 27.4582 8.60149 27.4403C8.60149 27.4223 8.59251 27.3954 8.59251 27.3774C8.59251 27.3595 8.58353 27.3415 8.58353 27.3235C8.58353 27.3056 8.57455 27.2876 8.57455 27.2696C8.57455 27.2517 8.56557 27.2337 8.56557 27.2158C8.56557 27.1978 8.55659 27.1798 8.55659 27.1619C8.55659 27.1439 8.54761 27.1349 8.54761 27.117C8.54761 27.099 8.53862 27.09 8.53862 27.0721C8.53862 27.0541 8.53862 27.0451 8.52964 27.0272C8.52964 27.0092 8.52965 27.0002 8.52067 26.9823C8.52067 26.9553 8.51168 26.9374 8.51168 26.9104C8.51168 26.8835 8.5027 26.8655 8.5027 26.8386C8.5027 26.8116 8.49372 26.7937 8.49372 26.7667C8.49372 26.7398 8.48474 26.7218 8.48474 26.6949V26.6859V26.6769V26.6679V26.659C8.43086 26.2818 8.38595 25.9136 8.34105 25.5454C8.30512 25.1771 8.2692 24.8179 8.24226 24.4587C8.21532 24.0995 8.19736 23.7402 8.17939 23.39C8.16143 23.0128 8.15245 22.6626 8.15245 22.3213Z" fill="#9A95A0"/>
<path d="M20.465 50.9248C17.8246 54.3105 15.1753 57.6962 12.535 61.082C12.4452 61.1987 12.077 61.522 12.077 61.6747C12.068 61.9172 12.8224 62.5548 13.002 62.7524C13.5319 63.3451 14.0707 63.9199 14.6185 64.4857C15.4986 65.4017 16.4057 66.2908 17.3487 67.1619C18.2826 68.033 19.2526 68.8682 20.2404 69.6855C21.2283 70.5027 22.2431 71.293 23.2759 72.0474C26.1228 68.4911 28.9697 64.9347 31.8166 61.3873C30.7748 60.624 29.751 59.8247 28.7541 58.9984C27.7573 58.1722 26.7784 57.3191 25.8354 56.4479C24.8835 55.5768 23.9674 54.6698 23.0783 53.7537C22.1533 52.8287 21.2912 51.8857 20.465 50.9248Z" fill="#9A95A0"/>
<path d="M20.2674 35.4424C19.5759 33.7091 19.0101 31.9219 18.6419 30.0899C18.5521 29.6409 18.4802 29.2008 18.4174 28.7607C18.3545 28.3207 18.3096 27.8896 18.2647 27.4675C18.2288 27.0454 18.2018 26.6233 18.1929 26.2102C18.1749 25.7971 18.1749 25.384 18.1839 24.9888L17.8695 24.899C14.6185 24.0818 11.3765 23.2196 8.14345 22.3216C8.14345 23.7675 8.25121 25.2134 8.46675 26.6413C7.65849 21.1182 8.26918 15.2807 11.1879 10.4221C14.1156 5.55461 19.037 2.36646 24.4793 0.956495C27.8381 0.0853671 31.3406 -0.13916 34.7982 0.0763766C35.7052 2.83345 36.5404 5.60849 37.3397 8.40149L37.4115 8.65295C39.2616 8.70683 41.1026 8.94033 42.9077 9.31752C43.3837 9.41631 43.8597 9.52408 44.3446 9.64083C44.8206 9.75758 45.2966 9.88331 45.7726 10.018C46.2486 10.1527 46.7155 10.2964 47.1915 10.4491C47.6585 10.6018 48.1345 10.7634 48.6015 10.9341L48.5656 10.6916C48.1704 8.04226 47.8202 5.38398 47.5418 2.72569C61.2912 7.4675 73.6846 17.3822 81.3541 29.7486C83.6172 33.3858 85.4673 37.3014 86.6707 41.4235C86.2576 40.0225 85.7726 38.6485 85.2158 37.3104C82.2701 37.014 79.3424 36.6637 76.4057 36.2686L76.1363 36.2417C76.8638 37.93 77.4744 39.6633 77.8965 41.4505C78.0043 41.8815 78.0941 42.3126 78.166 42.7437C78.2468 43.1748 78.3097 43.5969 78.3635 44.01C78.4174 44.4321 78.4623 44.8452 78.4893 45.2493C78.5252 45.6624 78.5431 46.0665 78.5521 46.4617L78.8305 46.5425C81.9109 47.3059 84.9733 48.1141 88.0357 48.9583C87.937 47.4137 87.7214 45.8779 87.4071 44.3692C88.7273 50.6736 88.3411 57.5439 84.8206 63.094C81.3361 68.5991 75.346 71.7513 69.0236 72.7392C65.099 73.3589 61.0667 73.1972 57.1511 72.5596C59.1448 72.8829 61.1655 73.0625 63.1861 73.1074C62.1983 70.1348 61.2822 67.1353 60.4111 64.1267L60.3393 63.8573C58.4533 63.8663 56.5674 63.6777 54.7084 63.3454C54.2144 63.2556 53.7205 63.1568 53.2266 63.049C52.7326 62.9413 52.2387 62.8245 51.7537 62.6898C51.2598 62.5641 50.7748 62.4204 50.2809 62.2677C49.7959 62.115 49.302 61.9624 48.817 61.7917L48.8619 62.0522C49.284 64.953 49.6522 67.8717 49.9486 70.7904C52.0231 71.446 54.1246 72.0028 56.262 72.3979C47.7663 70.8353 39.7286 67.0455 32.7146 62.0522C25.7277 57.0769 19.5579 50.7994 15.0047 43.507C12.2925 39.1514 10.1372 34.4006 9.0056 29.3894C9.38279 31.0598 9.88571 32.7033 10.4784 34.3108C13.6486 34.6251 16.8188 34.9933 19.98 35.4065L20.2674 35.4424ZM37.8785 53.9965C38.3815 54.3467 38.8844 54.697 39.4053 55.0293C39.9172 55.3616 40.438 55.6849 40.9679 55.9992C41.4888 56.3135 42.0276 56.6099 42.5575 56.9062C43.0963 57.1936 43.6352 57.472 44.183 57.7415C44.2099 57.7594 44.2369 57.7684 44.2638 57.7864C44.2908 57.7953 44.3177 57.8133 44.3446 57.8313C44.3716 57.8492 44.3985 57.8582 44.4345 57.8762C44.4614 57.8941 44.4973 57.9031 44.5243 57.9211C45.3056 58.2983 46.0959 58.6485 46.8952 58.9718C47.6944 59.2951 48.5027 59.5915 49.311 59.8609C50.1192 60.1303 50.9455 60.3728 51.7717 60.5794C52.5979 60.7949 53.4331 60.9745 54.2683 61.1272C55.3999 61.3337 56.5404 61.4684 57.681 61.5403C57.6989 61.5403 57.7259 61.5403 57.7528 61.5403C57.7798 61.5403 57.8067 61.5403 57.8516 61.5493C57.8875 61.5493 57.9414 61.5493 57.9953 61.5583C58.0582 61.5583 58.13 61.5672 58.2198 61.5672C58.2378 61.5672 58.2647 61.5672 58.2827 61.5672C58.3007 61.5672 58.3276 61.5672 58.3456 61.5672C58.3725 61.5672 58.3905 61.5672 58.4174 61.5672C58.4443 61.5672 58.4623 61.5672 58.4893 61.5672C59.0011 61.5852 59.5041 61.5852 60.007 61.5672C60.5009 61.5582 60.9949 61.5223 61.4708 61.4864C61.9468 61.4415 62.4228 61.3876 62.8808 61.3158C63.3388 61.2439 63.7968 61.1631 64.2369 61.0643C65.7008 60.741 67.1287 60.2291 68.4578 59.5286C68.7632 59.367 69.0685 59.1963 69.3649 59.0167C69.6612 58.8371 69.9396 58.6485 70.218 58.4509C70.4964 58.2533 70.7659 58.0468 71.0263 57.8313C71.2867 57.6157 71.5472 57.3912 71.7897 57.1667C72.7865 56.2147 73.6307 55.1101 74.2863 53.8977C74.439 53.6103 74.5916 53.3229 74.7264 53.0266C74.8611 52.7302 74.9958 52.4249 75.1125 52.1105C75.2293 51.7962 75.346 51.4729 75.4448 51.1406C75.5436 50.8083 75.6424 50.4671 75.7232 50.1258C75.7861 49.8564 75.84 49.587 75.8938 49.3086C75.9388 49.0302 75.9837 48.7428 76.0196 48.4464C76.0555 48.1501 76.0824 47.8537 76.1094 47.5394C76.1363 47.2251 76.1453 46.9017 76.1543 46.5605C76.1633 46.1294 76.1543 45.6894 76.1363 45.2403C76.1184 44.7913 76.0824 44.3422 76.0285 43.8753C75.9747 43.4172 75.9118 42.9413 75.831 42.4653C75.7502 41.9893 75.6514 41.5043 75.5346 41.0104C75.5077 40.9026 75.4897 40.8039 75.4628 40.7051C75.4628 40.6871 75.4538 40.6781 75.4538 40.6602C75.4538 40.6422 75.4448 40.6242 75.4358 40.6063C75.4268 40.5883 75.4268 40.5614 75.4179 40.5255C75.4089 40.4895 75.3999 40.4536 75.3909 40.4087C75.3819 40.3907 75.3819 40.3728 75.373 40.3458C75.364 40.3279 75.364 40.3009 75.355 40.283C75.346 40.256 75.346 40.2381 75.337 40.2021C75.3281 40.1662 75.3191 40.1393 75.3101 40.1034C75.3011 40.0854 75.3011 40.0674 75.2921 40.0405C75.2831 40.0225 75.2832 39.9956 75.2742 39.9687C75.2652 39.9417 75.2562 39.9148 75.2472 39.8878C75.2383 39.8609 75.2293 39.825 75.2203 39.789C75.2113 39.7711 75.2113 39.7531 75.2023 39.7351C75.1934 39.7172 75.1933 39.6992 75.1844 39.6723C75.1754 39.6453 75.1664 39.6184 75.1574 39.5915C75.1484 39.5555 75.1395 39.5196 75.1215 39.4747C75.1215 39.4568 75.1125 39.4478 75.1035 39.4208C75.0946 39.4029 75.0946 39.3759 75.0766 39.349C75.0676 39.3131 75.0497 39.2771 75.0407 39.2233C75.0227 39.1694 75.0048 39.1065 74.9778 39.0167C74.9778 38.9987 74.9688 38.9808 74.9598 38.9718C74.9509 38.9538 74.9509 38.9359 74.9419 38.9179C74.9329 38.8999 74.9239 38.873 74.9149 38.8461C74.906 38.8191 74.897 38.7832 74.879 38.7473C74.8072 38.5317 74.7353 38.3162 74.6635 38.1096C74.5916 37.8941 74.5108 37.6786 74.43 37.463C74.3492 37.2475 74.2593 37.023 74.1695 36.7985C74.0797 36.5739 73.981 36.3494 73.8822 36.1159C73.7115 35.7118 73.5229 35.3166 73.3343 34.9215C73.1458 34.5263 72.9392 34.1222 72.7326 33.7271C72.5261 33.3319 72.3016 32.9278 72.077 32.5326C71.8436 32.1285 71.6101 31.7333 71.3586 31.3292C71.1071 30.9341 70.8467 30.5299 70.5773 30.1348C70.3078 29.7396 70.0294 29.3445 69.7331 28.9493C69.4457 28.5542 69.1404 28.159 68.826 27.7549C68.5117 27.3597 68.1884 26.9556 67.8471 26.5605C67.5418 26.2012 67.2365 25.842 66.9131 25.4918C66.5988 25.1415 66.2665 24.7913 65.9342 24.441C65.602 24.0908 65.2607 23.7405 64.9015 23.3903C64.5512 23.04 64.183 22.6898 63.8148 22.3395C63.4466 21.9983 63.0694 21.666 62.6922 21.3337C62.315 21.0014 61.9199 20.6781 61.5247 20.3548C61.1296 20.0315 60.7254 19.7172 60.3033 19.4028C59.8902 19.0885 59.4681 18.7832 59.0281 18.4689C58.6329 18.1905 58.2288 17.9121 57.8247 17.6426C57.4205 17.3732 57.0074 17.1128 56.5943 16.8523C56.1812 16.5919 55.7591 16.3404 55.328 16.098C54.9059 15.8555 54.4749 15.613 54.0348 15.3795C53.9091 15.3166 53.7834 15.2448 53.6576 15.1819C53.5319 15.1191 53.3972 15.0472 53.2535 14.9754C53.1098 14.9035 52.9661 14.8317 52.8134 14.7508C52.6608 14.67 52.4901 14.5892 52.3105 14.5084C51.5921 14.1671 50.8646 13.8348 50.1282 13.5384C49.3918 13.2331 48.6554 12.9547 47.901 12.7033C47.1556 12.4428 46.3922 12.2093 45.6289 12.0027C44.8655 11.7962 44.0932 11.6076 43.3119 11.4459C43.0963 11.401 42.8718 11.3561 42.6563 11.3202C42.6383 11.3202 42.6203 11.3112 42.6024 11.3112C42.5844 11.3112 42.5665 11.3022 42.5395 11.3022C42.5126 11.3022 42.4856 11.2933 42.4587 11.2843C42.4228 11.2753 42.3869 11.2753 42.3419 11.2663C42.0456 11.2124 41.7492 11.1676 41.4618 11.1316C41.1655 11.0867 40.8691 11.0508 40.5638 11.0149C40.2584 10.979 39.9531 10.952 39.6298 10.9251C39.3065 10.8981 38.9832 10.8802 38.6329 10.8622C38.606 10.8622 38.5701 10.8622 38.5431 10.8622C38.5162 10.8622 38.4803 10.8622 38.4443 10.8622C38.4084 10.8622 38.3815 10.8622 38.3455 10.8622C38.3096 10.8622 38.2737 10.8622 38.2378 10.8622C37.8157 10.8532 37.4026 10.8442 36.9984 10.8532C36.5943 10.8622 36.1902 10.8802 35.786 10.9071C35.3909 10.9341 34.9957 10.97 34.6096 11.0239C34.2234 11.0688 33.8462 11.1316 33.469 11.1945C33.0918 11.2574 32.7146 11.3382 32.3464 11.428C31.9782 11.5178 31.619 11.6166 31.2598 11.7243C30.9005 11.8321 30.5503 11.9489 30.2 12.0836C29.8498 12.2183 29.5085 12.353 29.1673 12.5057C28.8529 12.6494 28.5476 12.802 28.2423 12.9547C27.9459 13.1164 27.6495 13.287 27.3621 13.4576C27.0748 13.6372 26.7874 13.8258 26.509 14.0234C26.2306 14.221 25.9522 14.4275 25.6828 14.6431C25.4223 14.8586 25.1709 15.0831 24.9194 15.3256C24.6769 15.5591 24.4434 15.8106 24.2099 16.071C23.9854 16.3315 23.7699 16.6009 23.5543 16.8793C23.3478 17.1577 23.1412 17.4451 22.9526 17.7504C22.773 18.0198 22.6114 18.2982 22.4497 18.5856C22.288 18.873 22.1444 19.1693 22.0007 19.4747C21.857 19.78 21.7312 20.0944 21.6055 20.4177C21.4798 20.741 21.363 21.0733 21.2642 21.4145C21.1655 21.7468 21.0757 22.0971 20.9948 22.4473C20.914 22.7975 20.8511 23.1568 20.7973 23.525C20.7434 23.8932 20.6985 24.2704 20.6715 24.6476C20.6356 25.0337 20.6176 25.4199 20.6087 25.8241C20.5997 26.1923 20.5997 26.5605 20.6176 26.9466C20.6266 27.3238 20.6536 27.719 20.6895 28.1141C20.7254 28.5093 20.7703 28.9134 20.8332 29.3355C20.896 29.7486 20.9679 30.1797 21.0487 30.6197C21.0757 30.7455 21.1026 30.8712 21.1295 30.9969C21.1295 31.0149 21.1385 31.0418 21.1475 31.0598C21.1565 31.0777 21.1565 31.1047 21.1655 31.1227C21.1744 31.1406 21.1744 31.1676 21.1834 31.1855C21.1924 31.2035 21.1924 31.2304 21.2014 31.2484C21.2014 31.2663 21.2104 31.2753 21.2104 31.2933C21.2104 31.3113 21.2193 31.3292 21.2283 31.3472C21.2373 31.3741 21.2373 31.4011 21.2463 31.437C21.2553 31.4729 21.2642 31.5178 21.2732 31.5627C21.2732 31.5807 21.2822 31.5986 21.2822 31.6166C21.2822 31.6346 21.2912 31.6525 21.3002 31.6795C21.3092 31.7064 21.3092 31.7333 21.3181 31.7603C21.3271 31.7962 21.3361 31.8321 21.3451 31.877C21.3451 31.895 21.3541 31.913 21.363 31.9309C21.372 31.9489 21.372 31.9668 21.381 31.9938C21.39 32.0207 21.399 32.0477 21.399 32.0746C21.4079 32.1105 21.4169 32.1465 21.4259 32.1914C21.4259 32.2093 21.4349 32.2273 21.4439 32.2452C21.4528 32.2632 21.4528 32.2812 21.4618 32.3081C21.4708 32.335 21.4798 32.362 21.4888 32.3889C21.4977 32.4249 21.5067 32.4608 21.5157 32.5057C21.5247 32.5236 21.5247 32.5416 21.5337 32.5596C21.5427 32.5775 21.5426 32.5955 21.5516 32.6224C21.5606 32.6494 21.5696 32.6763 21.5786 32.7122C21.5876 32.7482 21.5965 32.7841 21.6145 32.838C21.6145 32.8559 21.6235 32.8649 21.6325 32.8829C21.6414 32.9008 21.6414 32.9188 21.6504 32.9457C21.6594 32.9727 21.6684 32.9996 21.6774 33.0356C21.6863 33.0715 21.6953 33.1074 21.7133 33.1613C21.7133 33.1792 21.7223 33.1882 21.7312 33.2062C21.7402 33.2241 21.7492 33.2511 21.7582 33.287C21.7672 33.3229 21.7851 33.3589 21.8031 33.4217C21.8211 33.4756 21.839 33.5475 21.866 33.6373C21.8749 33.6552 21.8749 33.6732 21.8839 33.6911C21.8929 33.7091 21.8929 33.7271 21.9019 33.754C21.9109 33.7809 21.9198 33.7989 21.9288 33.8348C21.9378 33.8708 21.9468 33.9067 21.9647 33.9426C21.9737 33.9606 21.9827 33.9785 21.9827 34.0055C21.9917 34.0234 22.0007 34.0504 22.0007 34.0683C22.0096 34.0953 22.0186 34.1132 22.0276 34.1402C22.0366 34.1671 22.0456 34.194 22.0546 34.23C22.0635 34.2569 22.0725 34.2749 22.0815 34.3018C22.0905 34.3288 22.0995 34.3467 22.1084 34.3737C22.1174 34.4006 22.1264 34.4276 22.1354 34.4545C22.1444 34.4814 22.1533 34.5084 22.1623 34.5353C22.1982 34.6251 22.2252 34.7239 22.2611 34.8137C22.297 34.9035 22.333 35.0023 22.3689 35.0921C22.4048 35.1819 22.4407 35.2807 22.4766 35.3795C22.5126 35.4783 22.5575 35.5681 22.5934 35.6669C22.764 36.08 22.9436 36.5021 23.1322 36.9152C23.3208 37.3283 23.5184 37.7504 23.7339 38.1635C23.9405 38.5766 24.165 38.9987 24.3985 39.4208C24.632 39.8429 24.8745 40.265 25.126 40.6871C26.1767 42.4024 27.3621 44.0369 28.6464 45.5906C29.9665 47.1801 31.3945 48.6709 32.8943 50.0899C33.2804 50.4401 33.6666 50.7904 34.0617 51.1317C34.4569 51.4729 34.861 51.8142 35.2741 52.1465C35.6873 52.4788 36.1004 52.8021 36.5314 53.1254C37.0074 53.3679 37.4385 53.6912 37.8785 53.9965ZM31.7986 61.3876C33.3523 59.4478 34.9508 57.5529 36.6212 55.7118L36.7739 55.5412C33.1278 52.9547 29.8049 49.9103 26.949 46.4707L26.7604 46.5964C24.7039 48.0962 22.6114 49.5511 20.465 50.9251C23.8327 54.8227 27.6495 58.3432 31.7986 61.3876ZM70.5054 61.8366C73.047 64.3872 75.5526 66.9736 78.0223 69.596C80.8961 67.8986 83.3478 65.5187 85.0721 62.6539C82.2612 60.4177 79.4861 58.1186 76.738 55.8016L76.5045 55.604C75.0676 58.1635 72.8763 60.2291 70.2809 61.5942L70.5054 61.8366ZM27.1915 10.2156C24.7128 7.72794 22.2701 5.21335 19.8633 2.65385C16.8547 4.10872 14.1875 6.23714 12.1937 8.93135C15.0137 11.1765 17.7887 13.4756 20.5458 15.8016L20.7883 15.9992C22.4048 13.5474 24.7488 11.6525 27.425 10.4491L27.1915 10.2156ZM75.2921 21.639C72.086 18.0019 68.4848 14.7149 64.5871 11.8321C63.1862 13.5654 61.7313 15.2538 60.2225 16.8882L60.0878 17.0409C63.5633 19.5196 66.7425 22.4204 69.5086 25.6714L69.6702 25.5546C71.5023 24.2075 73.3703 22.8874 75.2921 21.639Z" fill="#AD9514"/>
<path d="M64.5782 11.832C63.1772 13.5653 61.7223 15.2537 60.2136 16.8882L60.0789 17.0408C63.5544 19.5195 66.7336 22.4203 69.4996 25.6713L69.6613 25.5545C71.5023 24.1895 73.3703 22.8693 75.2922 21.621C72.0771 18.0107 68.4758 14.7148 64.5782 11.832C64.3177 12.1553 65.5571 12.5595 64.5782 11.832Z" fill="#F6F6F6"/>
<path d="M41.0846 0.9471C41.0487 0.93812 41.0128 0.92914 40.9769 0.920159C40.9409 0.911179 40.905 0.902199 40.8691 0.893218C40.8332 0.884238 40.7972 0.875253 40.7613 0.875253C40.7254 0.866272 40.6895 0.857302 40.6535 0.857302C40.6356 0.857302 40.6176 0.848312 40.5997 0.848312C40.5817 0.848312 40.5637 0.839336 40.5458 0.839336C40.5278 0.839336 40.5099 0.830361 40.4919 0.830361C40.4739 0.830361 40.456 0.821371 40.438 0.821371C40.42 0.821371 40.4021 0.812395 40.3841 0.812395C40.3662 0.812395 40.3482 0.80342 40.3302 0.80342C40.3123 0.80342 40.2943 0.79443 40.2764 0.79443C40.2584 0.79443 40.2404 0.785454 40.2225 0.785454C40.1955 0.785454 40.1776 0.776465 40.1506 0.776465C40.1237 0.776465 40.1057 0.767489 40.0788 0.767489C40.0518 0.767489 40.0339 0.758513 40.0069 0.758513C39.98 0.758513 39.962 0.749524 39.9351 0.749524C39.9261 0.749524 39.9171 0.749529 39.9081 0.740548C39.8992 0.740548 39.8902 0.740553 39.8812 0.731572C39.8722 0.731572 39.8632 0.731564 39.8543 0.722583C39.8453 0.722583 39.8363 0.722588 39.8273 0.713607C39.4681 0.650742 39.1089 0.58788 38.7496 0.533996C38.3904 0.480112 38.0312 0.426229 37.6809 0.381326C37.3307 0.336422 36.9715 0.291519 36.6302 0.255596C36.2799 0.219674 35.9297 0.18375 35.5884 0.156808C35.5615 0.156808 35.5256 0.147819 35.4986 0.147819C35.4717 0.147819 35.4447 0.147824 35.4178 0.138843C35.3909 0.138843 35.3639 0.138848 35.3459 0.129867C35.319 0.129867 35.3011 0.129858 35.2741 0.120878C35.1214 0.111897 34.9688 0.102922 34.8251 0.0849609C35.7321 2.84204 36.5673 5.62604 37.3666 8.41006L37.4385 8.66153C37.8785 8.67051 38.3186 8.69744 38.7676 8.73337C39.2166 8.76929 39.6657 8.8142 40.1237 8.86808C40.5817 8.92197 41.0487 8.98483 41.5157 9.06566C41.9827 9.14649 42.4587 9.22731 42.9346 9.32609C44.8655 9.72124 46.7604 10.2691 48.6104 10.9426L48.5745 10.7001C48.1794 8.05083 47.8291 5.39255 47.5507 2.73426C47.5148 2.7163 47.4699 2.70732 47.434 2.68936C47.398 2.6714 47.3531 2.66241 47.3172 2.64445C47.2813 2.63547 47.2364 2.61752 47.2005 2.60854C47.1646 2.59057 47.1196 2.58159 47.0837 2.5726C47.0568 2.56362 47.0298 2.55464 47.0029 2.54566C46.976 2.53668 46.949 2.5277 46.9221 2.51872C46.8951 2.50974 46.8682 2.50076 46.8412 2.49178C46.8143 2.4828 46.7874 2.47382 46.7604 2.46484C46.4012 2.34809 46.033 2.23134 45.6738 2.12357C45.3145 2.0158 44.9463 1.90805 44.5781 1.80028C44.2099 1.70149 43.8507 1.6027 43.4825 1.50391C43.1143 1.40513 42.755 1.31532 42.3868 1.23449C42.3778 1.23449 42.3689 1.23448 42.3599 1.2255C42.3509 1.2255 42.3419 1.2255 42.3329 1.21652C42.324 1.21652 42.315 1.21653 42.306 1.20755C42.297 1.20755 42.288 1.20754 42.279 1.19856C42.2521 1.18958 42.2341 1.18959 42.2072 1.18061C42.1803 1.17163 42.1623 1.17162 42.1354 1.16264C42.1084 1.15366 42.0905 1.15366 42.0635 1.14468C42.0366 1.1357 42.0186 1.13571 41.9917 1.12673C41.9737 1.12673 41.9557 1.11774 41.9378 1.11774C41.9198 1.11774 41.9019 1.10876 41.8839 1.10876C41.8659 1.10876 41.848 1.09977 41.83 1.09977C41.8121 1.09977 41.7941 1.09079 41.7761 1.09079C41.7582 1.09079 41.7402 1.08182 41.7223 1.08182C41.7043 1.08182 41.6863 1.07283 41.6684 1.07283C41.6504 1.07283 41.6324 1.06385 41.6145 1.06385C41.5965 1.06385 41.5786 1.05488 41.5606 1.05488C41.5247 1.0459 41.4887 1.03692 41.4528 1.02794C41.4169 1.01896 41.381 1.00996 41.3451 1.00098C41.3091 0.992002 41.2732 0.983022 41.2373 0.974041C41.1565 0.95608 41.1205 0.9471 41.0846 0.9471Z" fill="#F6F6F6"/>
<path d="M85.1979 37.3011C82.2522 37.0048 79.3245 36.6545 76.3878 36.2594L76.1184 36.2324C76.307 36.6635 76.4776 37.0946 76.6483 37.5256C76.8189 37.9567 76.9716 38.3878 77.1242 38.8278C77.2679 39.2589 77.4116 39.699 77.5373 40.139C77.6631 40.5791 77.7798 41.0102 77.8786 41.4502C78.2648 43.0937 78.4983 44.782 78.5432 46.4704L78.8216 46.5512C81.902 47.3146 84.9644 48.1229 88.0268 48.967C87.9999 48.5988 87.9729 48.2216 87.937 47.8445C87.9011 47.4673 87.8562 47.0901 87.8023 46.7039C87.7484 46.3177 87.6945 45.9316 87.6227 45.5454C87.5508 45.1592 87.479 44.7641 87.3982 44.3689C87.3982 44.36 87.3982 44.351 87.3982 44.351C87.3982 44.342 87.3982 44.333 87.3982 44.333C87.3982 44.324 87.3982 44.315 87.3982 44.3061C87.3982 44.2971 87.3982 44.2881 87.3892 44.2881C87.3892 44.2701 87.3802 44.2432 87.3712 44.2252C87.3712 44.1983 87.3622 44.1803 87.3533 44.1624C87.3443 44.1444 87.3443 44.1175 87.3353 44.0995C87.3353 44.0726 87.3263 44.0546 87.3173 44.0367C87.3173 44.0187 87.3084 44.0007 87.3084 43.9917C87.3084 43.9738 87.2994 43.9558 87.2994 43.9468C87.2994 43.9289 87.2904 43.9109 87.2904 43.9019C87.2904 43.884 87.2814 43.866 87.2814 43.857C87.2814 43.8391 87.2724 43.8211 87.2724 43.8121C87.2724 43.7942 87.2634 43.7762 87.2634 43.7672C87.2634 43.7493 87.2545 43.7313 87.2545 43.7223C87.2545 43.7044 87.2455 43.6864 87.2455 43.6774C87.2365 43.6415 87.2275 43.6056 87.2186 43.5786C87.2096 43.5427 87.2006 43.5068 87.1916 43.4798C87.1826 43.4439 87.1736 43.408 87.1647 43.3811C87.1557 43.3451 87.1467 43.3092 87.1377 43.2823C87.1287 43.2463 87.1198 43.2104 87.1108 43.1745C87.1018 43.1386 87.0928 43.1027 87.0838 43.0667C87.0749 43.0308 87.0659 42.9949 87.0569 42.959C87.0479 42.923 87.0389 42.8871 87.03 42.8512C87.03 42.8332 87.021 42.8242 87.021 42.8063C87.021 42.7883 87.012 42.7793 87.012 42.7614C87.012 42.7434 87.003 42.7344 87.003 42.7165C87.003 42.6985 86.994 42.6895 86.994 42.6716C86.994 42.6536 86.9851 42.6357 86.9761 42.6177C86.9761 42.5997 86.9671 42.5818 86.9581 42.5638C86.9581 42.5459 86.9491 42.5279 86.9401 42.5099C86.9312 42.492 86.9312 42.474 86.9222 42.456C86.9132 42.4381 86.9132 42.4201 86.9042 42.4022C86.8952 42.3842 86.8952 42.3662 86.8863 42.3483C86.8863 42.3303 86.8773 42.3124 86.8683 42.2944C86.8593 42.2764 86.8593 42.2585 86.8503 42.2405C86.8503 42.2315 86.8414 42.2136 86.8414 42.2046C86.8414 42.1956 86.8324 42.1776 86.8324 42.1687C86.8324 42.1597 86.8234 42.1417 86.8234 42.1327C86.8234 42.1238 86.8144 42.1058 86.8144 42.0968C86.3744 40.4174 85.8355 38.8458 85.1979 37.3011C84.6591 37.2472 85.3595 37.6873 85.1979 37.3011Z" fill="#F6F6F6"/>
<path d="M19.8632 2.6543C16.8547 4.10917 14.1874 6.23759 12.1937 8.9318C15.0137 11.177 17.7887 13.476 20.5458 15.802L20.7883 15.9996C22.4048 13.5479 24.7487 11.653 27.425 10.4495L27.1915 10.216C24.7128 7.72839 22.2701 5.2138 19.8632 2.6543C19.0819 3.03149 20.3033 3.13027 19.8632 2.6543Z" fill="#F6F6F6"/>
<path d="M76.4956 55.6035C75.0587 58.163 72.8674 60.2286 70.272 61.5936L70.5055 61.8361C73.047 64.3866 75.5526 66.9731 78.0223 69.5954C80.8961 67.8981 83.3479 65.5182 85.0722 62.6534C82.2612 60.4172 79.4862 58.1181 76.7381 55.8011L76.4956 55.6035Z" fill="#F6F6F6"/>
<path d="M8.1524 22.3213C8.1524 22.6626 8.16139 23.0128 8.17037 23.372C8.17935 23.7223 8.20629 24.0815 8.23323 24.4407C8.26018 24.8 8.2961 25.1682 8.33202 25.5274C8.36795 25.8956 8.42183 26.2638 8.47571 26.641V26.65V26.659V26.6679V26.6769C8.47571 26.7039 8.48469 26.7218 8.48469 26.7488C8.48469 26.7757 8.49368 26.7937 8.49368 26.8206C8.49368 26.8476 8.50265 26.8655 8.50265 26.8925C8.50265 26.9194 8.51163 26.9374 8.51163 26.9643C8.51163 26.9823 8.51164 26.9913 8.52062 27.0092C8.52062 27.0272 8.52959 27.0362 8.52959 27.0541C8.52959 27.0721 8.53858 27.0811 8.53858 27.099C8.53858 27.117 8.53858 27.126 8.54756 27.1439C8.54756 27.1619 8.55654 27.1799 8.55654 27.1978C8.55654 27.2158 8.56552 27.2337 8.56552 27.2517C8.56552 27.2697 8.5745 27.2876 8.5745 27.3056C8.5745 27.3235 8.58348 27.3415 8.58348 27.3595C8.58348 27.3774 8.59246 27.4044 8.59246 27.4223C8.59246 27.4403 8.60144 27.4672 8.60144 27.4852C8.60144 27.5032 8.61042 27.5301 8.61042 27.5481C8.61042 27.566 8.6194 27.593 8.6194 27.6109C8.6194 27.6199 8.6194 27.6379 8.62838 27.6469C8.62838 27.6558 8.62838 27.6738 8.63736 27.6828C8.63736 27.6917 8.64635 27.7097 8.64635 27.7187C8.64635 27.7277 8.64634 27.7456 8.65532 27.7546C8.6643 27.7905 8.66431 27.8265 8.67329 27.8624C8.68227 27.8983 8.68226 27.9342 8.69125 27.9702C8.70023 28.0061 8.70023 28.042 8.70921 28.0779C8.71819 28.1138 8.72717 28.1498 8.72717 28.1857C8.73615 28.2216 8.74513 28.2575 8.74513 28.2935C8.75411 28.3294 8.76309 28.3653 8.76309 28.4012C8.77207 28.4371 8.78106 28.4731 8.78106 28.509C8.79004 28.5449 8.79902 28.5808 8.79902 28.6168C8.79902 28.6347 8.808 28.6437 8.808 28.6617C8.808 28.6796 8.81697 28.6886 8.81697 28.7066C8.81697 28.7245 8.82596 28.7335 8.82596 28.7515C8.82596 28.7694 8.83494 28.7784 8.83494 28.7964C8.83494 28.8143 8.84392 28.8323 8.84392 28.8503C8.84392 28.8682 8.8529 28.8862 8.8529 28.9041C8.8529 28.9221 8.86188 28.9401 8.86188 28.958C8.86188 28.976 8.87086 28.9939 8.87086 29.0119C8.87984 29.0299 8.87984 29.0568 8.88882 29.0748C8.8978 29.0927 8.89781 29.1197 8.90679 29.1376C8.91577 29.1556 8.91576 29.1825 8.92475 29.2005C8.93373 29.2185 8.93373 29.2454 8.94271 29.2634C8.94271 29.2723 8.94271 29.2813 8.95169 29.2903C8.95169 29.2993 8.95169 29.3083 8.96067 29.3173C8.96067 29.3262 8.96067 29.3352 8.96965 29.3442C8.96965 29.3532 8.96965 29.3622 8.97863 29.3711C9.35582 31.0416 9.85874 32.685 10.4515 34.2926C13.6216 34.6069 16.7918 34.9751 19.953 35.3882L20.2584 35.4151C20.0788 34.9751 19.9081 34.5261 19.7555 34.077C19.5938 33.628 19.4501 33.1879 19.3154 32.7389C19.1807 32.2899 19.055 31.8498 18.9382 31.4008C18.8215 30.9517 18.7227 30.5117 18.6329 30.0626C18.3006 28.3833 18.1389 26.6679 18.1749 24.9616L17.8605 24.8718C14.6275 24.0905 11.3855 23.2283 8.1524 22.3213C8.1524 22.6626 8.76309 22.4919 8.1524 22.3213Z" fill="#F6F6F6"/>
<path d="M48.808 61.8008L48.8529 62.0612C49.275 64.962 49.6432 67.8807 49.9396 70.7994C50.4605 70.9611 50.9903 71.1227 51.5112 71.2754C52.0321 71.4281 52.562 71.5718 53.0918 71.7065C53.6217 71.8412 54.1426 71.9669 54.6724 72.0837C55.2023 72.2004 55.7232 72.3082 56.253 72.407C56.289 72.416 56.3249 72.416 56.3608 72.4249C56.3967 72.4339 56.4327 72.4429 56.4686 72.4429C56.5045 72.4519 56.5404 72.4609 56.5763 72.4609C56.6123 72.4698 56.6482 72.4698 56.6841 72.4788C56.72 72.4878 56.756 72.4878 56.7919 72.4968C56.8278 72.5058 56.8637 72.5058 56.8996 72.5147C56.9356 72.5237 56.9715 72.5237 57.0074 72.5327C57.0433 72.5417 57.0793 72.5417 57.1152 72.5507C59.1089 72.874 61.1296 73.0536 63.1502 73.0985C62.1623 70.1259 61.2463 67.1263 60.3752 64.1178L60.3033 63.8484C59.8633 63.8484 59.4053 63.8394 58.9562 63.8214C58.4982 63.8035 58.0402 63.7675 57.5642 63.7316C57.0972 63.6867 56.6212 63.6328 56.1363 63.57C55.6513 63.5071 55.1664 63.4263 54.6724 63.3455C52.6967 62.9952 50.7299 62.4743 48.808 61.8008Z" fill="#F6F6F6"/>
<path d="M26.94 46.4707L26.7604 46.5964C24.7039 48.0962 22.6114 49.5511 20.465 50.9251C23.8327 54.8228 27.6495 58.3432 31.7986 61.3966C33.3523 59.4568 34.9508 57.5619 36.6213 55.7208L36.7739 55.5502C33.1278 52.9548 29.7959 49.9013 26.94 46.4707Z" fill="#F6F6F6"/>
<path d="M59.6658 61.1448C59.6927 61.1987 59.7017 61.2616 59.7017 61.3065C59.7017 61.3603 59.6927 61.4052 59.6748 61.4412C59.6568 61.4771 59.6209 61.513 59.585 61.531C59.549 61.5489 59.4951 61.5669 59.4413 61.5669C59.3604 61.5669 59.2886 61.5669 59.2078 61.5669C59.1269 61.5669 59.0551 61.5669 58.9743 61.5669C58.8934 61.5669 58.8216 61.5669 58.7408 61.5669C58.6599 61.5669 58.5791 61.5669 58.5073 61.5579C60.4291 61.6208 62.36 61.4681 64.228 61.046H64.0933C63.9047 61.0101 63.7251 60.8844 63.6263 60.7227C63.5185 60.5611 63.5005 60.2827 63.743 60.2198C65.144 59.9144 66.5091 59.4295 67.7933 58.7739C67.8113 58.7649 67.8203 58.7559 67.8382 58.7559C67.8562 58.7559 67.8741 58.747 67.8921 58.747C67.9101 58.747 67.928 58.747 67.946 58.747C67.9639 58.747 67.9819 58.747 68.0088 58.7559C68.0448 58.7649 68.0807 58.7739 68.1166 58.7829C68.1525 58.8008 68.1885 58.8188 68.2244 58.8368C68.2603 58.8547 68.2962 58.8817 68.3232 58.9086C68.3591 58.9356 68.386 58.9625 68.413 58.9984C68.5207 59.1331 68.6195 59.3577 68.4758 59.5013C69.6793 58.8727 70.8018 58.0824 71.7807 57.1484L71.5293 57.2023L71.188 57.0317C71.0533 56.9059 70.9006 56.6365 71.0533 56.4659C71.9963 55.5588 72.8225 54.5171 73.4512 53.3675C73.523 53.2598 73.6577 53.2418 73.7745 53.2598C73.7924 53.2598 73.8194 53.2687 73.8373 53.2777C73.8553 53.2867 73.8822 53.2957 73.9002 53.3047C73.9181 53.3136 73.9451 53.3226 73.963 53.3406C73.981 53.3496 74.008 53.3675 74.0259 53.3855C74.1696 53.4932 74.3223 53.6908 74.2953 53.8794C74.9419 52.7119 75.4089 51.4546 75.7143 50.1614C75.6604 50.2782 75.5077 50.2961 75.391 50.2692L75.2293 50.2153C75.0497 50.1165 74.8162 49.883 74.8791 49.6585C74.9509 49.3262 75.0228 48.9849 75.0767 48.6347C75.1305 48.2934 75.1754 47.9432 75.2114 47.584C75.2473 47.2337 75.2742 46.8745 75.2832 46.5152C75.3012 46.156 75.3012 45.7968 75.3012 45.4286C75.3012 45.3837 75.3102 45.3478 75.3281 45.3118C75.3461 45.2759 75.373 45.249 75.4 45.231C75.4269 45.213 75.4628 45.1951 75.5077 45.1861C75.5437 45.1771 75.5975 45.1771 75.6424 45.1861C75.6514 45.1861 75.6514 45.1861 75.6604 45.1861C75.6694 45.1861 75.6694 45.1861 75.6784 45.1951C75.6873 45.1951 75.6873 45.1951 75.6963 45.2041C75.7053 45.2041 75.7053 45.2041 75.7143 45.2131C75.9298 45.2849 76.1543 45.5004 76.1633 45.7429C76.1633 45.8058 76.1633 45.8776 76.1633 45.9405C76.1633 46.0034 76.1633 46.0752 76.1633 46.1381C76.1633 46.2009 76.1633 46.2728 76.1633 46.3356C76.1633 46.3985 76.1633 46.4704 76.1633 46.5332C76.1992 44.6832 75.9657 42.8332 75.5526 41.028C75.6065 41.2526 75.4089 41.3424 75.2114 41.3064C75.1575 41.2975 75.0946 41.2705 75.0407 41.2436C74.9868 41.2077 74.933 41.1717 74.8791 41.1268C74.8342 41.0819 74.7893 41.028 74.7534 40.9742C74.7174 40.9203 74.6995 40.8664 74.6815 40.8125C75.7951 45.5543 75.4898 50.817 72.4722 54.8314C69.3649 58.9715 64.1831 60.6868 59.1539 60.7227C59.3874 60.7766 59.5849 60.9472 59.6658 61.1448Z" fill="#AD9514"/>
<path d="M48.7632 59.6547L48.6824 59.6278C47.6316 59.2596 46.5989 58.8465 45.584 58.3974C48.3321 59.6188 51.2149 60.5618 54.1786 61.1006C54.1157 61.0916 54.0618 61.0647 54.0079 61.0377C53.9541 61.0108 53.9002 60.9659 53.8553 60.921C53.8104 60.8761 53.7655 60.8222 53.7385 60.7773C53.7026 60.7234 53.6846 60.6695 53.6667 60.6156C53.6128 60.3822 53.8283 60.2474 54.0349 60.2834C51.6999 59.8613 49.4098 59.1787 47.2095 58.3076C47.3353 58.3525 47.452 58.4064 47.5778 58.4513C47.7035 58.4962 47.8202 58.5501 47.946 58.595C48.0717 58.6399 48.1974 58.6848 48.3142 58.7297C48.4399 58.7746 48.5567 58.8195 48.6824 58.8644C48.9069 58.9452 49.1224 59.1608 49.1224 59.4122C49.1314 59.6098 48.9338 59.6906 48.7632 59.6547Z" fill="#AD9514"/>
<path d="M25.2966 40.1214C25.2517 40.1304 25.2157 40.1483 25.1798 40.1753C25.1529 40.2022 25.1259 40.2291 25.117 40.2651C25.099 40.301 25.099 40.3369 25.099 40.3818C25.099 40.4267 25.108 40.4716 25.1259 40.5255C25.1349 40.5614 25.1529 40.5884 25.1619 40.6153C26.2126 42.3216 27.3801 43.9472 28.6554 45.5008L28.6823 45.5188L29.0595 45.7433L29.284 45.7164C29.5175 45.6176 29.4277 45.3212 29.302 45.1865C29.1403 44.9889 28.9787 44.7824 28.817 44.5848C28.6554 44.3782 28.5027 44.1807 28.341 43.9741C28.1884 43.7675 28.0357 43.57 27.883 43.3634C27.7303 43.1569 27.5867 42.9503 27.434 42.7438C27.407 42.7078 27.3801 42.6629 27.3532 42.627C27.3262 42.5911 27.2993 42.5551 27.2723 42.5102C27.2454 42.4743 27.2184 42.4294 27.1915 42.3935C27.1646 42.3576 27.1376 42.3127 27.1107 42.2768C27.1107 42.2768 27.1107 42.2678 27.1017 42.2678C27.1017 42.2678 27.1017 42.2588 27.0927 42.2588C27.0927 42.2588 27.0927 42.2498 27.0837 42.2498C27.0837 42.2498 27.0837 42.2408 27.0748 42.2408C26.976 42.0971 26.8772 41.9445 26.7784 41.8008C26.6796 41.6571 26.5808 41.5044 26.482 41.3517C26.3832 41.1991 26.2934 41.0554 26.1946 40.9027C26.1048 40.75 26.006 40.6063 25.9162 40.4537L25.9073 40.4447L25.8983 40.4357L25.8893 40.4267L25.8803 40.4178C25.8534 40.3818 25.8175 40.3459 25.7905 40.319C25.7546 40.292 25.7187 40.2651 25.6827 40.2381C25.6468 40.2112 25.6019 40.1932 25.566 40.1753C25.5301 40.1573 25.4852 40.1483 25.4492 40.1393C25.4313 40.1393 25.4223 40.1304 25.4043 40.1304C25.3864 40.1304 25.3774 40.1304 25.3594 40.1304C25.3415 40.1304 25.3325 40.1304 25.3145 40.1304C25.3235 40.1124 25.3145 40.1214 25.2966 40.1214Z" fill="#FEFEFE"/>
<path d="M43.1502 56.4666C43.1053 56.4576 43.0694 56.4576 43.0245 56.4576C42.9886 56.4576 42.9526 56.4756 42.9167 56.4846C42.8898 56.5025 42.8538 56.5205 42.8359 56.5474C42.8179 56.5744 42.8 56.6013 42.791 56.6372C42.782 56.6821 42.782 56.736 42.791 56.7899C42.8 56.8438 42.8269 56.8977 42.8538 56.9515C42.8898 57.0054 42.9257 57.0503 42.9796 57.0952C43.0245 57.1401 43.0873 57.1761 43.1412 57.212C43.222 57.2569 43.3119 57.3018 43.3927 57.3467C43.4735 57.3916 43.5633 57.4365 43.6531 57.4814C43.7429 57.5263 43.8238 57.5712 43.9136 57.6071C44.0034 57.6521 44.0842 57.688 44.174 57.7329C44.2009 57.7508 44.2369 57.7598 44.2638 57.7778C44.2908 57.7957 44.3177 57.8047 44.3536 57.8227C44.3806 57.8406 44.4075 57.8496 44.4344 57.8676C44.4614 57.8766 44.4883 57.8945 44.5153 57.9035C45.8714 58.5501 47.2634 59.1339 48.6823 59.6278L48.7631 59.6547C48.9338 59.6817 49.1314 59.6098 49.1224 59.4033C49.1224 59.3494 49.1134 59.2865 49.0864 59.2327C49.0685 59.1788 49.0326 59.1249 48.9966 59.08C48.9607 59.0351 48.9068 58.9902 48.8619 58.9453C48.808 58.9093 48.7542 58.8734 48.6913 58.8555C48.5656 58.8106 48.4488 58.7656 48.3231 58.7207C48.1974 58.6758 48.0716 58.6309 47.9549 58.586C47.8291 58.5411 47.7124 58.4962 47.5867 58.4423C47.4609 58.3885 47.3352 58.3436 47.2185 58.2987C47.1825 58.2807 47.1466 58.2717 47.1107 58.2537C47.0748 58.2358 47.0388 58.2268 47.0029 58.2089C46.967 58.1909 46.9311 58.1819 46.8952 58.1639C46.8592 58.146 46.8233 58.137 46.7874 58.119C46.7694 58.1101 46.7515 58.1011 46.7245 58.0921C46.7066 58.0831 46.6886 58.0741 46.6617 58.0652C46.6437 58.0562 46.6257 58.0472 46.5988 58.0382C46.5808 58.0292 46.5629 58.0203 46.5359 58.0113C46.5 57.9933 46.4641 57.9843 46.4282 57.9664C46.3922 57.9484 46.3563 57.9394 46.3204 57.9215C46.2845 57.9035 46.2485 57.8945 46.2126 57.8766C46.1767 57.8586 46.1408 57.8496 46.1049 57.8317C46.0779 57.8227 46.051 57.8137 46.033 57.7957C46.0061 57.7868 45.9791 57.7778 45.9612 57.7598C45.9342 57.7508 45.9073 57.7418 45.8893 57.7239C45.8624 57.7149 45.8354 57.7059 45.8175 57.688C45.8175 57.688 45.8085 57.688 45.7995 57.679C45.7995 57.679 45.7905 57.679 45.7905 57.67C45.7905 57.661 45.7815 57.67 45.7726 57.661C45.7726 57.661 45.7636 57.661 45.7636 57.652C45.557 57.5622 45.3505 57.4724 45.1439 57.3736C44.9374 57.2749 44.7308 57.1851 44.5332 57.0863C44.3267 56.9875 44.1201 56.8887 43.9225 56.7899C43.716 56.6911 43.5184 56.5833 43.3119 56.4756C43.2939 56.4666 43.2849 56.4576 43.267 56.4576C43.249 56.4486 43.24 56.4486 43.2221 56.4397C43.2041 56.4307 43.1951 56.4307 43.1771 56.4307C43.1771 56.4666 43.1592 56.4666 43.1502 56.4666Z" fill="#FEFEFE"/>
<path d="M63.6891 22.9146L63.9675 22.8607C63.9945 22.8427 64.0124 22.8068 64.0304 22.7798C64.0394 22.7439 64.0484 22.708 64.0394 22.6721C64.0394 22.6362 64.0214 22.5913 64.0034 22.5464C63.9855 22.5014 63.9585 22.4565 63.9316 22.4206C63.9226 22.4116 63.9226 22.4027 63.9136 22.3937C63.9047 22.3847 63.8957 22.3757 63.8957 22.3667C63.8867 22.3578 63.8777 22.3488 63.8687 22.3398C63.8598 22.3308 63.8508 22.3218 63.8418 22.3129C63.4736 21.9716 63.0964 21.6393 62.7192 21.316C62.342 20.9927 61.9558 20.6604 61.5607 20.3461C61.1655 20.0318 60.7704 19.7174 60.3663 19.4121C59.9621 19.1067 59.558 18.8014 59.1449 18.514C59.1359 18.505 59.1269 18.505 59.1269 18.4961C59.1179 18.4961 59.109 18.4871 59.109 18.4871C59.1 18.4871 59.091 18.4781 59.091 18.4781C59.082 18.4781 59.073 18.4691 59.073 18.4691C59.0641 18.4601 59.0461 18.4601 59.0371 18.4512C59.0281 18.4422 59.0102 18.4422 59.0012 18.4332C58.9922 18.4242 58.9743 18.4242 58.9653 18.4242C58.9563 18.4242 58.9383 18.4152 58.9294 18.4152C58.8934 18.4063 58.8665 18.4062 58.8306 18.4062C58.8036 18.4062 58.7677 18.4152 58.7408 18.4152C58.7138 18.4242 58.6869 18.4332 58.6689 18.4512C58.6509 18.4691 58.624 18.4871 58.615 18.514C58.4893 18.7116 58.6959 18.9631 58.8485 19.0708C60.4381 20.2024 61.9558 21.4238 63.3928 22.7439L63.6891 22.9146Z" fill="#FEFEFE"/>
<path d="M48.7722 13.6909C48.7902 13.6999 48.8081 13.6999 48.8261 13.7088C48.844 13.7178 48.862 13.7178 48.88 13.7268C48.8979 13.7358 48.9159 13.7358 48.9338 13.7448C48.9518 13.7537 48.9698 13.7537 48.9877 13.7627C49.0236 13.7717 49.0506 13.7897 49.0865 13.7986C49.1224 13.8076 49.1494 13.8256 49.1853 13.8346C49.2212 13.8436 49.2482 13.8615 49.2841 13.8705C49.32 13.8795 49.347 13.8974 49.3829 13.9064C49.3919 13.9064 49.3919 13.9154 49.4008 13.9154C49.4098 13.9154 49.4098 13.9244 49.4188 13.9244C49.4278 13.9244 49.4278 13.9334 49.4368 13.9334C49.4457 13.9334 49.4457 13.9423 49.4547 13.9423C49.6074 14.0052 49.7601 14.0591 49.9038 14.122C50.0564 14.1848 50.2091 14.2477 50.3528 14.3106C50.4965 14.3734 50.6581 14.4363 50.8018 14.4992C50.9545 14.562 51.1072 14.6339 51.2509 14.6967C52.1489 15.1008 53.038 15.5319 53.9092 15.9899L54.0708 16.0618C54.2055 16.0887 54.3851 16.0528 54.4121 15.8912C54.4211 15.8462 54.4211 15.8014 54.4121 15.7564C54.4031 15.7115 54.3851 15.6666 54.3582 15.6128C54.3312 15.5678 54.2953 15.523 54.2594 15.478C54.2145 15.4331 54.1696 15.3972 54.1157 15.3613C54.1157 15.3613 54.1067 15.3613 54.1067 15.3523C54.1067 15.3523 54.0977 15.3523 54.0977 15.3433C54.0977 15.3433 54.0888 15.3433 54.0888 15.3344C54.0888 15.3344 54.0798 15.3344 54.0798 15.3254C53.9541 15.2625 53.8283 15.1907 53.7026 15.1278C53.5769 15.0649 53.4511 15.0021 53.3254 14.9302C53.1997 14.8674 53.0739 14.8045 52.9482 14.7416C52.8225 14.6788 52.6968 14.6159 52.571 14.553C52.571 14.553 52.562 14.553 52.562 14.544C52.562 14.544 52.5531 14.5441 52.5531 14.5351C52.5531 14.5351 52.5441 14.5351 52.5441 14.5261C52.5441 14.5261 52.5351 14.5261 52.5351 14.5171C52.5171 14.5081 52.5082 14.4992 52.4902 14.4992C52.4722 14.4902 52.4633 14.4812 52.4453 14.4812C52.4273 14.4722 52.4184 14.4722 52.4004 14.4632C52.3824 14.4542 52.3735 14.4453 52.3555 14.4453C52.0591 14.3016 51.7628 14.1669 51.4664 14.0322C51.17 13.8974 50.8737 13.7717 50.5773 13.646C50.2809 13.5202 49.9846 13.3945 49.6882 13.2778C49.3919 13.161 49.0955 13.0443 48.7902 12.9365C48.7812 12.9365 48.7722 12.9275 48.7632 12.9275C48.7542 12.9275 48.7452 12.9275 48.7363 12.9185C48.7273 12.9185 48.7183 12.9185 48.7093 12.9096C48.7003 12.9006 48.6914 12.9096 48.6914 12.9006C48.6375 12.8916 48.5926 12.8916 48.5566 12.8916C48.5117 12.9006 48.4758 12.9096 48.4489 12.9275C48.413 12.9455 48.395 12.9724 48.377 12.9994C48.3591 13.0263 48.3501 13.0712 48.3501 13.1071C48.3501 13.161 48.3591 13.2059 48.386 13.2598C48.404 13.3137 48.4399 13.3586 48.4848 13.4125C48.5207 13.4574 48.5746 13.5023 48.6285 13.5382C48.6554 13.637 48.7093 13.6729 48.7722 13.6909Z" fill="#FEFEFE"/>
<path d="M71.2688 31.7696C71.3137 31.7606 71.3496 31.7426 71.3766 31.7247C71.4035 31.6977 71.4215 31.6708 71.4395 31.6438C71.4484 31.6079 71.4574 31.572 71.4574 31.5361C71.4574 31.4912 71.4484 31.4552 71.4215 31.4014C71.4215 31.3924 71.4125 31.3834 71.4125 31.3834C71.4125 31.3744 71.4035 31.3654 71.4035 31.3654C71.4035 31.3565 71.3946 31.3565 71.3946 31.3475C71.3946 31.3385 71.3856 31.3295 71.3856 31.3295C71.1341 30.9344 70.8737 30.5302 70.6043 30.1351C70.3348 29.7399 70.0564 29.3448 69.778 28.9586C69.4906 28.5724 69.2033 28.1773 68.8979 27.7911C68.5926 27.4049 68.2872 27.0278 67.9729 26.6506C67.9639 26.6416 67.9639 26.6326 67.9549 26.6236C67.946 26.6147 67.937 26.6057 67.937 26.6057C67.928 26.5967 67.919 26.5877 67.9101 26.5877C67.9011 26.5787 67.8921 26.5787 67.8831 26.5697C67.8651 26.5518 67.8382 26.5338 67.8113 26.5159C67.7843 26.4979 67.7574 26.4889 67.7394 26.471C67.7125 26.462 67.6855 26.444 67.6586 26.435C67.6316 26.4261 67.6047 26.4171 67.5778 26.4171C67.5059 26.3991 67.4251 26.3991 67.3532 26.435C67.1377 26.5338 67.2634 26.8212 67.3712 26.9469C68.5746 28.3839 69.6792 29.8926 70.6761 31.4732C70.7659 31.6349 70.9365 31.7516 71.1162 31.7875L71.2688 31.7696Z" fill="#FEFEFE"/>
<path d="M43.5364 12.2C43.5903 12.209 43.6531 12.209 43.698 12.2C43.7519 12.191 43.7878 12.1731 43.8238 12.1461C43.8597 12.1192 43.8866 12.0833 43.9046 12.0473C43.9226 12.0024 43.9226 11.9576 43.9136 11.9037C43.8687 11.6791 43.6801 11.4906 43.4556 11.4367L43.3478 11.4187C43.2939 11.4097 43.24 11.4007 43.1861 11.3828C43.1323 11.3738 43.0784 11.3648 43.0245 11.3469C42.9706 11.3379 42.9167 11.3289 42.8628 11.3199C42.809 11.3109 42.7551 11.302 42.7012 11.293C42.6832 11.293 42.6653 11.284 42.6563 11.284C42.6383 11.284 42.6204 11.275 42.6114 11.275C42.5934 11.275 42.5755 11.266 42.5665 11.266C42.5485 11.266 42.5306 11.2571 42.5216 11.2571C42.5126 11.2571 42.5036 11.257 42.4946 11.2481C42.4856 11.2481 42.4767 11.2481 42.4677 11.2391C42.4587 11.2391 42.4497 11.2391 42.4407 11.2301C42.4318 11.2301 42.4228 11.2301 42.4138 11.2211C42.1264 11.1672 41.8301 11.1223 41.5427 11.0864C41.2553 11.0415 40.9679 11.0056 40.6805 10.9786C40.3931 10.9427 40.1058 10.9158 39.8184 10.8978C39.531 10.8709 39.2526 10.8529 38.9742 10.835C38.9652 10.835 38.9562 10.835 38.9472 10.835C38.9383 10.835 38.9293 10.835 38.9203 10.835C38.9113 10.835 38.9023 10.835 38.8934 10.835C38.8844 10.835 38.8754 10.835 38.8664 10.835C38.8574 10.835 38.8395 10.835 38.8305 10.835C38.8125 10.835 38.8036 10.835 38.7946 10.835C38.7856 10.835 38.7676 10.835 38.7587 10.835C38.7497 10.835 38.7317 10.835 38.7227 10.835C38.6958 10.835 38.6599 10.835 38.6329 10.835C38.606 10.835 38.5701 10.835 38.5431 10.835C38.5162 10.835 38.4802 10.835 38.4533 10.835C38.4264 10.835 38.3904 10.835 38.3635 10.835C38.3635 10.835 38.3635 10.835 38.3545 10.835C38.3545 10.835 38.3545 10.835 38.3455 10.835C38.3455 10.835 38.3455 10.835 38.3366 10.835C38.3366 10.835 38.3366 10.835 38.3276 10.835C38.112 10.8439 38.0312 11.0415 38.112 11.2211C38.1839 11.4187 38.3904 11.5714 38.597 11.6073L38.6778 11.6253C39.046 11.6342 39.4142 11.6522 39.7825 11.6791C40.1507 11.7061 40.5279 11.742 40.905 11.7869C41.2822 11.8318 41.6594 11.8767 42.0456 11.9396C42.4318 11.9935 42.8179 12.0653 43.2041 12.1372C43.2131 12.1372 43.2131 12.1372 43.2221 12.1372C43.231 12.1372 43.231 12.1372 43.24 12.1372C43.249 12.1372 43.249 12.1372 43.258 12.1372C43.267 12.1372 43.267 12.1372 43.2759 12.1372C43.3029 12.1461 43.3298 12.1461 43.3568 12.1551C43.3837 12.1641 43.4107 12.1641 43.4376 12.1731C43.4645 12.1821 43.4915 12.1821 43.5184 12.191C43.4825 12.1821 43.5094 12.191 43.5364 12.2Z" fill="#FEFEFE"/>
<path d="M74.6904 40.8311C74.6994 40.885 74.7263 40.9389 74.7623 40.9928C74.7982 41.0466 74.8341 41.1005 74.888 41.1454C74.9329 41.1903 74.9868 41.2352 75.0497 41.2622C75.1035 41.2981 75.1664 41.3161 75.2203 41.325C75.4179 41.361 75.6154 41.2712 75.5616 41.0466C75.5526 41.0017 75.5436 40.9658 75.5346 40.9209C75.5256 40.894 75.5256 40.867 75.5166 40.8401C75.5077 40.8131 75.5077 40.7862 75.4987 40.7592C75.4897 40.7323 75.4897 40.7054 75.4807 40.6784C75.4807 40.6605 75.4718 40.6515 75.4718 40.6335C75.4718 40.6156 75.4628 40.6066 75.4628 40.5886C75.4628 40.5707 75.4538 40.5617 75.4538 40.5437C75.4538 40.5258 75.4448 40.5168 75.4448 40.4988C75.4448 40.4898 75.4358 40.4808 75.4358 40.4629C75.4358 40.4539 75.4268 40.4449 75.4268 40.427C75.4268 40.418 75.4179 40.409 75.4179 40.391C75.4179 40.3821 75.4089 40.3731 75.4089 40.3551C75.3999 40.3372 75.3999 40.3192 75.3909 40.2922C75.3819 40.2743 75.3819 40.2563 75.373 40.2294C75.364 40.2114 75.364 40.1935 75.355 40.1665C75.346 40.1486 75.346 40.1306 75.337 40.1037C75.337 40.0947 75.337 40.0947 75.337 40.0857C75.337 40.0767 75.337 40.0767 75.337 40.0677C75.337 40.0588 75.337 40.0588 75.337 40.0498C75.337 40.0408 75.337 40.0408 75.337 40.0318C75.3281 40.0139 75.3281 39.9959 75.3191 39.969C75.3101 39.951 75.3101 39.933 75.3011 39.9061C75.2921 39.8881 75.2921 39.8702 75.2832 39.8432C75.2742 39.8253 75.2742 39.8073 75.2652 39.7804C75.2652 39.7714 75.2652 39.7714 75.2652 39.7624C75.2652 39.7534 75.2652 39.7534 75.2562 39.7444C75.2562 39.7355 75.2562 39.7355 75.2562 39.7265C75.2562 39.7175 75.2562 39.7175 75.2472 39.7085C75.2383 39.6905 75.2383 39.6726 75.2293 39.6546C75.2293 39.6367 75.2203 39.6187 75.2113 39.6007C75.2023 39.5828 75.2023 39.5648 75.1933 39.5469C75.1844 39.5289 75.1844 39.5109 75.1754 39.493C75.1754 39.484 75.1664 39.475 75.1664 39.466C75.1664 39.457 75.1664 39.4481 75.1574 39.4391C75.1574 39.4301 75.1484 39.4211 75.1484 39.4121C75.1484 39.4032 75.1395 39.3942 75.1395 39.3852C75.1395 39.3672 75.1305 39.3583 75.1215 39.3403C75.1215 39.3223 75.1125 39.3044 75.1035 39.2954C75.0946 39.2774 75.0946 39.2595 75.0856 39.2505C75.0766 39.2325 75.0766 39.2236 75.0676 39.2056C75.0676 39.1966 75.0586 39.1876 75.0586 39.1697C75.0586 39.1607 75.0497 39.1517 75.0497 39.1337C75.0497 39.1248 75.0407 39.1158 75.0407 39.0978C75.0407 39.0888 75.0317 39.0799 75.0317 39.0619C75.0317 39.0529 75.0227 39.035 75.0227 39.026C75.0227 39.017 75.0137 38.999 75.0137 38.9901C75.0137 38.9811 75.0048 38.9631 75.0048 38.9541C75.0048 38.9452 74.9958 38.9272 74.9958 38.9182C74.9958 38.9002 74.9868 38.8823 74.9778 38.8733C74.9688 38.8553 74.9688 38.8374 74.9598 38.8284C74.9509 38.8104 74.9509 38.7925 74.9419 38.7835C74.9329 38.7655 74.9329 38.7476 74.9239 38.7386C74.9239 38.7296 74.9239 38.7206 74.9149 38.7206C74.9149 38.7116 74.9149 38.7027 74.906 38.7027C74.906 38.6937 74.906 38.6847 74.897 38.6847C74.897 38.6757 74.897 38.6667 74.888 38.6667C74.8162 38.4512 74.7443 38.2357 74.6725 38.0291C74.6006 37.8136 74.5198 37.598 74.439 37.3915C74.3581 37.176 74.2773 36.9694 74.1875 36.7539C74.1067 36.5383 74.0169 36.3318 73.9271 36.1162C73.9271 36.1072 73.9181 36.1072 73.9181 36.0983C73.9181 36.0893 73.9091 36.0893 73.9091 36.0803C73.9091 36.0713 73.9001 36.0713 73.9001 36.0623C73.9001 36.0534 73.8911 36.0534 73.8911 36.0444C73.8642 35.9995 73.8373 35.9636 73.8013 35.9276C73.7654 35.8917 73.7295 35.8558 73.6936 35.8289C73.6576 35.8019 73.6127 35.775 73.5768 35.757C73.5319 35.739 73.496 35.7211 73.4511 35.7121C73.4152 35.7031 73.3882 35.7031 73.3523 35.7031C73.2984 35.7031 73.2535 35.7121 73.2086 35.7301C73.1727 35.748 73.1368 35.775 73.1188 35.8109C73.1008 35.8468 73.0829 35.8827 73.0829 35.9366C73.0829 35.9815 73.0919 36.0354 73.1188 36.0893C73.2715 36.4485 73.4242 36.8167 73.5589 37.176C73.6936 37.5352 73.8283 37.9034 73.954 38.2626C74.0797 38.6218 74.1875 38.9901 74.2953 39.3493C74.403 39.7085 74.5018 40.0767 74.5916 40.4359C74.5916 40.4359 74.5916 40.436 74.5916 40.4449C74.5916 40.4449 74.5916 40.4449 74.5916 40.4539C74.5916 40.4539 74.5916 40.4539 74.5916 40.4629C74.5916 40.4629 74.5916 40.4629 74.5916 40.4719C74.6006 40.4988 74.6006 40.5258 74.6096 40.5437C74.6186 40.5707 74.6186 40.5976 74.6276 40.6156C74.6365 40.6425 74.6366 40.6694 74.6455 40.6964C74.6815 40.7862 74.6814 40.8042 74.6904 40.8311Z" fill="#FEFEFE"/>
<path d="M33.99 11.9219C34.0439 11.913 34.0798 11.895 34.1157 11.8681C34.1516 11.8411 34.1696 11.8052 34.1786 11.7603C34.1876 11.7154 34.1965 11.6705 34.1786 11.6256C34.1696 11.5717 34.1427 11.5268 34.1157 11.4729C34.0888 11.437 34.0618 11.3921 34.0259 11.3562C33.99 11.3202 33.9541 11.2933 33.9181 11.2664C33.8822 11.2394 33.8373 11.2125 33.7924 11.1945C33.7475 11.1765 33.7116 11.1586 33.6667 11.1496C33.6577 11.1496 33.6397 11.1496 33.6308 11.1406C33.6218 11.1406 33.6038 11.1406 33.5948 11.1406C33.5858 11.1406 33.5679 11.1406 33.5589 11.1406C33.5499 11.1406 33.532 11.1406 33.523 11.1406C32.0681 11.3921 30.6312 11.8142 29.2751 12.4069C29.2661 12.4069 29.2661 12.4159 29.2571 12.4159C29.2482 12.4159 29.2482 12.4249 29.2392 12.4249C29.2302 12.4249 29.2302 12.4338 29.2212 12.4338L29.2122 12.4428C29.0596 12.5775 29.1494 12.8021 29.2571 12.9278L29.6523 13.1703L29.8768 13.1613C30.1911 13.0176 30.5144 12.8919 30.8467 12.7661C31.179 12.6404 31.5113 12.5326 31.8616 12.4249C32.2028 12.3171 32.5531 12.2273 32.9123 12.1375C33.2715 12.0656 33.6308 11.9938 33.99 11.9219C34.0439 11.913 33.6308 11.9938 33.99 11.9219Z" fill="#FEFEFE"/>
<path d="M75.3101 45.4469C75.3191 45.8151 75.3101 46.1743 75.2922 46.5335C75.2742 46.8928 75.2562 47.252 75.2203 47.6022C75.1844 47.9525 75.1395 48.3027 75.0856 48.653C75.0317 48.9942 74.9689 49.3355 74.888 49.6768C74.8341 49.9103 75.0587 50.1438 75.2383 50.2336L75.3999 50.2875C75.4359 50.2964 75.4718 50.2964 75.5077 50.2964C75.5436 50.2964 75.5706 50.2875 75.5975 50.2785C75.6245 50.2695 75.6514 50.2515 75.6694 50.2425C75.6873 50.2246 75.7053 50.2066 75.7232 50.1797C75.7322 50.1617 75.7412 50.1438 75.7412 50.1258C75.8041 49.8564 75.8579 49.587 75.9118 49.3086C75.9567 49.0302 76.0016 48.7518 76.0376 48.4733C76.0735 48.1949 76.1004 47.9076 76.1184 47.6202C76.1364 47.3328 76.1543 47.0454 76.1633 46.7491C76.1633 46.7401 76.1633 46.7401 76.1633 46.7311C76.1633 46.7221 76.1633 46.7221 76.1633 46.7131C76.1633 46.7042 76.1633 46.7042 76.1633 46.6952C76.1633 46.6862 76.1633 46.6862 76.1633 46.6772C76.1633 46.6682 76.1633 46.6593 76.1633 46.6413C76.1633 46.6233 76.1633 46.6233 76.1633 46.6054C76.1633 46.5964 76.1633 46.5874 76.1633 46.5694C76.1633 46.5605 76.1633 46.5515 76.1633 46.5335C76.1633 46.4707 76.1633 46.3988 76.1633 46.336C76.1633 46.2731 76.1633 46.2012 76.1633 46.1384C76.1633 46.0755 76.1633 46.0037 76.1633 45.9408C76.1633 45.8779 76.1633 45.8061 76.1633 45.7432C76.1543 45.5007 75.9298 45.2852 75.7142 45.2134C75.7053 45.2134 75.7053 45.2044 75.6963 45.2044C75.6873 45.2044 75.6873 45.2044 75.6783 45.1954C75.6694 45.1954 75.6693 45.1954 75.6604 45.1864C75.6514 45.1864 75.6514 45.1864 75.6424 45.1864C75.5975 45.1774 75.5526 45.1774 75.5077 45.1864C75.4628 45.1954 75.4269 45.2044 75.3999 45.2313C75.373 45.2493 75.346 45.2852 75.3281 45.3122C75.3101 45.3571 75.3011 45.402 75.3101 45.4469C75.3101 45.8061 75.3011 45.402 75.3101 45.4469Z" fill="#FEFEFE"/>
<path d="M23.8776 18.1991C24.0572 17.9297 24.2458 17.6603 24.4434 17.3998C24.641 17.1394 24.8475 16.8879 25.0631 16.6454C25.2786 16.403 25.5031 16.1605 25.7456 15.936C25.9791 15.7114 26.2216 15.4869 26.482 15.2804C26.6706 15.1277 26.5089 14.8493 26.3653 14.7325C26.3383 14.7056 26.3114 14.6876 26.2844 14.6697C26.2575 14.6517 26.2306 14.6338 26.1946 14.6158C26.1677 14.5978 26.1407 14.5889 26.1048 14.5799C26.0779 14.5709 26.0509 14.5619 26.015 14.5529C25.997 14.5529 25.9791 14.5439 25.9611 14.5439C25.9432 14.5439 25.9252 14.5439 25.9072 14.5439C25.8893 14.5439 25.8713 14.544 25.8534 14.5529C25.8354 14.5529 25.8174 14.5619 25.8085 14.5619C25.7815 14.5709 25.7636 14.5799 25.7366 14.5978C25.4762 14.8134 25.2247 15.0379 24.9733 15.2804C24.7308 15.5139 24.4973 15.7563 24.2728 16.0168C24.0482 16.2682 23.8327 16.5287 23.6261 16.7981C23.4196 17.0675 23.231 17.3369 23.0424 17.6153C23.0424 17.6243 23.0334 17.6333 23.0334 17.6333C23.0334 17.6423 23.0244 17.6513 23.0244 17.6513C23.0244 17.6603 23.0155 17.6692 23.0155 17.6782C23.0155 17.6872 23.0155 17.6962 23.0065 17.7052C22.9706 17.8937 23.1232 18.0824 23.2669 18.1901L23.5363 18.3159L23.8776 18.1991Z" fill="#FEFEFE"/>
<path d="M73.4511 53.3863C72.8225 54.5358 71.9962 55.5776 71.0533 56.4846C70.9006 56.6553 71.0533 56.9247 71.188 57.0504L71.5292 57.2211L71.7807 57.1672L71.8076 57.1582C72.0501 56.9247 72.2836 56.6822 72.5081 56.4307C72.7326 56.1793 72.9482 55.9188 73.1547 55.6584C73.3613 55.389 73.5589 55.1196 73.7475 54.8412C73.9361 54.5628 74.1067 54.2754 74.2683 53.979C74.2683 53.97 74.2773 53.97 74.2773 53.9611C74.2773 53.9521 74.2863 53.9521 74.2863 53.9431C74.2863 53.9341 74.2863 53.9251 74.2953 53.9251C74.2953 53.9162 74.2953 53.9072 74.3043 53.8982C74.3312 53.7006 74.1785 53.512 74.0348 53.4043C74.0169 53.3863 73.99 53.3773 73.972 53.3594C73.954 53.3504 73.9271 53.3324 73.9091 53.3234C73.8912 53.3145 73.8642 53.3055 73.8462 53.2965C73.8283 53.2875 73.8014 53.2875 73.7834 53.2785C73.6577 53.2606 73.523 53.2785 73.4511 53.3863C73.2895 53.6737 73.4691 53.3594 73.4511 53.3863Z" fill="#FEFEFE"/>
<path d="M21.2104 26.2466C21.2553 26.2555 21.3002 26.2555 21.3361 26.2555C21.372 26.2555 21.4079 26.2376 21.4439 26.2286C21.4798 26.2106 21.5067 26.1927 21.5247 26.1657C21.5426 26.1388 21.5606 26.1118 21.5696 26.0669C21.5696 26.049 21.5786 26.04 21.5786 26.022C21.5876 25.7975 21.5965 25.573 21.6055 25.3575C21.6235 25.133 21.6414 24.9174 21.6594 24.7019C21.6774 24.4863 21.7043 24.2708 21.7312 24.0553C21.7582 23.8397 21.7941 23.6332 21.83 23.4266C21.857 23.2919 21.8839 23.1482 21.9109 23.0135C21.9378 22.8788 21.9647 22.7441 22.0007 22.6094C22.0276 22.4747 22.0635 22.34 22.0994 22.2142C22.1354 22.0795 22.1713 21.9538 22.2072 21.8191C22.2791 21.5946 22.0635 21.3611 21.8839 21.2623C21.866 21.2533 21.848 21.2443 21.839 21.2443C21.83 21.2443 21.8121 21.2353 21.7941 21.2263C21.7761 21.2174 21.7672 21.2174 21.7492 21.2084C21.7312 21.2084 21.7223 21.1994 21.7043 21.1994C21.6684 21.1904 21.6325 21.1904 21.5965 21.1904C21.5606 21.1904 21.5337 21.1994 21.5067 21.2084C21.4798 21.2174 21.4528 21.2264 21.4259 21.2443C21.399 21.2623 21.381 21.2802 21.372 21.2982C21.372 21.2982 21.363 21.3072 21.363 21.3162C21.363 21.3162 21.3541 21.3251 21.3541 21.3341C21.3541 21.3431 21.3451 21.3431 21.3451 21.3521C21.3451 21.3611 21.3451 21.3611 21.3361 21.37C21.2373 21.7023 21.1475 22.0526 21.0667 22.4028C20.9858 22.7531 20.923 23.1123 20.8691 23.4715C20.8152 23.8307 20.7703 24.199 20.7344 24.5761C20.6985 24.9533 20.6805 25.3216 20.6625 25.7077C20.6625 25.7167 20.6625 25.7167 20.6625 25.7257C20.6625 25.7347 20.6625 25.7436 20.6625 25.7436C20.6625 25.7526 20.6625 25.7616 20.6625 25.7616C20.6625 25.7706 20.6625 25.7796 20.6625 25.7796C20.7074 25.9951 20.905 26.1657 21.1026 26.2376L21.2104 26.2466Z" fill="#FEFEFE"/>
<path d="M21.0847 30.431C21.0847 30.44 21.0847 30.44 21.0847 30.449C21.0936 30.5119 21.1116 30.5837 21.1206 30.6466C21.1296 30.6735 21.1296 30.7005 21.1385 30.7274C21.1475 30.7544 21.1475 30.7813 21.1565 30.8082C21.1655 30.8352 21.1655 30.8621 21.1745 30.8891V30.898V30.907V30.916C21.1745 30.925 21.1745 30.925 21.1745 30.934C21.1745 30.9519 21.1834 30.9789 21.1924 30.9968C21.2014 31.0148 21.2014 31.0417 21.2104 31.0597C21.2194 31.0777 21.2194 31.1046 21.2283 31.1226C21.2373 31.1405 21.2373 31.1675 21.2463 31.1854C21.2463 31.2034 21.2553 31.2124 21.2553 31.2303C21.2553 31.2393 21.2643 31.2573 21.2643 31.2663C21.2643 31.2752 21.2732 31.2932 21.2732 31.3022C21.2732 31.3112 21.2822 31.3291 21.2822 31.3381C21.2822 31.3471 21.2912 31.365 21.2912 31.374C21.2912 31.383 21.3002 31.401 21.3002 31.4099C21.3002 31.4189 21.3092 31.4369 21.3092 31.4459C21.3092 31.4548 21.3182 31.4728 21.3182 31.4818C21.3182 31.4997 21.3271 31.5177 21.3271 31.5267C21.3271 31.5447 21.3361 31.5626 21.3361 31.5716C21.3361 31.5896 21.3451 31.6075 21.3451 31.6165C21.3451 31.6345 21.3541 31.6524 21.3541 31.6614C21.3541 31.6704 21.3631 31.6794 21.3631 31.6884C21.3631 31.6973 21.372 31.7063 21.372 31.7153C21.372 31.7243 21.381 31.7333 21.381 31.7422C21.381 31.7512 21.381 31.7602 21.39 31.7692C21.39 31.7871 21.399 31.8051 21.408 31.8231C21.4169 31.841 21.4169 31.859 21.4259 31.8769C21.4349 31.8949 21.4349 31.9129 21.4439 31.9308C21.4529 31.9488 21.4529 31.9667 21.4618 31.9847C21.4618 31.9937 21.4618 32.0027 21.4708 32.0117C21.4708 32.0206 21.4708 32.0296 21.4798 32.0386C21.4798 32.0476 21.4798 32.0566 21.4888 32.0655C21.4888 32.0745 21.4888 32.0835 21.4978 32.0925C21.4978 32.1104 21.5068 32.1284 21.5157 32.1464C21.5157 32.1643 21.5247 32.1823 21.5337 32.2002C21.5337 32.2182 21.5427 32.2362 21.5516 32.2541C21.5606 32.2721 21.5606 32.29 21.5696 32.308C21.5696 32.317 21.5786 32.326 21.5786 32.335C21.5786 32.3439 21.5876 32.3529 21.5876 32.3619C21.5876 32.3709 21.5966 32.3799 21.5966 32.3888C21.5966 32.3978 21.6055 32.4068 21.6055 32.4158C21.6145 32.4337 21.6145 32.4517 21.6235 32.4697C21.6325 32.4876 21.6325 32.5056 21.6415 32.5236C21.6504 32.5415 21.6504 32.5595 21.6594 32.5774C21.6684 32.5954 21.6684 32.6134 21.6774 32.6313C21.6774 32.6403 21.6864 32.6493 21.6864 32.6583C21.6864 32.6672 21.6953 32.6762 21.6953 32.6852C21.6953 32.6942 21.7043 32.7032 21.7043 32.7211C21.7043 32.7301 21.7133 32.7391 21.7133 32.7481C21.7133 32.766 21.7223 32.775 21.7223 32.793C21.7313 32.8109 21.7313 32.8199 21.7402 32.8379C21.7492 32.8558 21.7492 32.8648 21.7582 32.8828C21.7582 32.9007 21.7672 32.9097 21.7762 32.9277C21.7762 32.9367 21.7851 32.9546 21.7851 32.9636C21.7851 32.9726 21.7941 32.9905 21.7941 32.9995C21.7941 33.0085 21.8031 33.0265 21.8031 33.0355C21.8031 33.0444 21.8121 33.0624 21.8121 33.0714C21.8121 33.0893 21.8211 33.0983 21.8301 33.1163C21.8301 33.1342 21.839 33.1432 21.848 33.1612C21.848 33.1791 21.857 33.1881 21.866 33.2061C21.866 33.224 21.875 33.233 21.8839 33.251C21.8839 33.26 21.8929 33.2779 21.8929 33.2869C21.8929 33.2959 21.9019 33.3139 21.9019 33.3228C21.9019 33.3318 21.9109 33.3498 21.9109 33.3588C21.9109 33.3677 21.9199 33.3857 21.9199 33.3947C21.9199 33.4037 21.9288 33.4126 21.9288 33.4306C21.9288 33.4396 21.9378 33.4486 21.9378 33.4665C21.9378 33.4755 21.9468 33.4845 21.9468 33.5024C21.9468 33.5114 21.9558 33.5204 21.9558 33.5384C21.9648 33.5563 21.9648 33.5743 21.9737 33.5923C21.9827 33.6102 21.9827 33.6282 21.9917 33.6461C22.0007 33.6641 22.0007 33.6821 22.0097 33.7C22.0186 33.718 22.0187 33.7359 22.0276 33.7449C22.0276 33.7539 22.0366 33.7629 22.0366 33.7719C22.0366 33.7808 22.0456 33.7898 22.0456 33.7988C22.0456 33.8078 22.0546 33.8168 22.0546 33.8257C22.0546 33.8347 22.0635 33.8437 22.0635 33.8527C22.0725 33.8707 22.0815 33.8886 22.0815 33.9156C22.0905 33.9335 22.0995 33.9515 22.0995 33.9784C22.1085 33.9964 22.1174 34.0143 22.1174 34.0413C22.1264 34.0593 22.1354 34.0772 22.1354 34.1041C22.1354 34.1041 22.1354 34.1131 22.1444 34.1221C22.1444 34.1221 22.1444 34.1311 22.1534 34.1311C22.1534 34.1311 22.1534 34.1401 22.1623 34.1491V34.158C22.1713 34.185 22.1803 34.2029 22.1893 34.2299C22.1983 34.2568 22.2072 34.2748 22.2162 34.3017C22.2252 34.3287 22.2342 34.3466 22.2432 34.3736C22.2521 34.4005 22.2611 34.4185 22.2701 34.4454C22.2701 34.4454 22.2701 34.4454 22.2701 34.4544C22.2701 34.4544 22.2701 34.4544 22.2701 34.4634C22.2701 34.4634 22.2701 34.4634 22.2701 34.4724C22.4048 34.8406 22.5395 35.2088 22.6922 35.577C22.6922 35.577 22.6922 35.577 22.6922 35.586C22.6922 35.586 22.6922 35.586 22.6922 35.5949C22.6922 35.5949 22.6922 35.595 22.6922 35.6039C22.6922 35.6039 22.6922 35.6039 22.6922 35.6129C22.773 35.8015 22.9796 35.9542 23.1772 35.9901L23.258 36.0081C23.3208 36.0081 23.3747 35.9991 23.4196 35.9811C23.4645 35.9632 23.4915 35.9272 23.5184 35.8913C23.5364 35.8554 23.5543 35.8105 23.5543 35.7566C23.5543 35.7027 23.5454 35.6488 23.5184 35.5949V35.586V35.577V35.568V35.559C23.3747 35.2088 23.24 34.8585 23.1143 34.5083C22.9886 34.158 22.8718 33.8078 22.7551 33.4576C22.6473 33.1073 22.5395 32.757 22.4497 32.4068C22.3509 32.0565 22.2701 31.7063 22.1893 31.365C22.1803 31.3381 22.1803 31.3112 22.1713 31.2932C22.1623 31.2663 22.1623 31.2483 22.1534 31.2214C22.1444 31.1944 22.1444 31.1764 22.1354 31.1495C22.1264 31.1226 22.1264 31.1046 22.1174 31.0777C22.0995 30.9789 22.0725 30.8711 22.0546 30.7723C22.0456 30.6825 22.0097 30.5747 21.9648 30.4939C21.9288 30.44 21.8929 30.3951 21.848 30.3502C21.8031 30.3053 21.7492 30.2694 21.6953 30.2425C21.6415 30.2155 21.5786 30.1886 21.5157 30.1796C21.4529 30.1706 21.399 30.1706 21.3451 30.1796C21.2912 30.1886 21.2553 30.2065 21.2194 30.2335C21.1834 30.2604 21.1655 30.2963 21.1475 30.3323C21.0847 30.3323 21.0847 30.3772 21.0847 30.431Z" fill="#FEFEFE"/>
<path d="M54.0259 60.2738C53.963 60.2648 53.9091 60.2648 53.8642 60.2738C53.8104 60.2828 53.7744 60.3097 53.7385 60.3367C53.7026 60.3636 53.6756 60.4085 53.6667 60.4534C53.6487 60.4983 53.6487 60.5522 53.6667 60.6061C53.7206 60.8396 53.9451 61.0551 54.1786 61.1L54.2145 61.109C54.5198 61.1629 54.8252 61.2168 55.1305 61.2617C55.4179 61.3066 55.6963 61.3425 55.9837 61.3784C56.2621 61.4144 56.5495 61.4413 56.8279 61.4682C57.1063 61.4952 57.3847 61.5132 57.6631 61.5311H57.6721H57.681H57.69H57.699C57.717 61.5311 57.7439 61.5311 57.7619 61.5311C57.7798 61.5311 57.8068 61.5311 57.8247 61.5311C57.8427 61.5311 57.8696 61.5311 57.8876 61.5311C57.9056 61.5311 57.9325 61.5311 57.9505 61.5311C57.9594 61.5311 57.9774 61.5311 57.9864 61.5311C57.9954 61.5311 58.0133 61.5311 58.0223 61.5311C58.0313 61.5311 58.0492 61.5311 58.0582 61.5311C58.0672 61.5311 58.0852 61.5311 58.0942 61.5311C58.1031 61.5311 58.1211 61.5311 58.1301 61.5311C58.1391 61.5311 58.157 61.5311 58.166 61.5311C58.175 61.5311 58.184 61.5311 58.2019 61.5311C58.2109 61.5311 58.2289 61.5311 58.2378 61.5311C58.2558 61.5311 58.2828 61.5311 58.3007 61.5311C58.3187 61.5311 58.3456 61.5311 58.3636 61.5311C58.3815 61.5311 58.4085 61.5311 58.4264 61.5311C58.4444 61.5311 58.4713 61.5311 58.4893 61.5311C58.5701 61.5311 58.651 61.5311 58.7318 61.5401C58.8126 61.5401 58.8934 61.5401 58.9743 61.5401C59.0551 61.5401 59.1359 61.5401 59.2078 61.5401C59.2886 61.5401 59.3604 61.5401 59.4413 61.5401C59.4951 61.5401 59.549 61.5311 59.585 61.5042C59.6209 61.4862 59.6568 61.4503 59.6748 61.4144C59.6927 61.3784 59.7017 61.3335 59.7017 61.2797C59.7017 61.2258 59.6837 61.1719 59.6658 61.118C59.6478 61.0641 59.6119 61.0192 59.585 60.9743C59.549 60.9294 59.5131 60.8845 59.4682 60.8486C59.4233 60.8127 59.3784 60.7767 59.3245 60.7588C59.2706 60.7318 59.2257 60.7139 59.1718 60.7049H59.1629H59.1539H59.1449H59.1359H59.1269H59.118H59.109H59.1C58.7228 60.7049 58.3366 60.6959 57.9505 60.6869C57.5643 60.669 57.1691 60.642 56.774 60.6151C56.3788 60.5792 55.9837 60.5432 55.5796 60.4894C55.1754 60.4355 54.7713 60.3816 54.3672 60.3097C54.3402 60.3097 54.3133 60.3008 54.2863 60.2918C54.2594 60.2918 54.2325 60.2828 54.2055 60.2738C54.1786 60.2738 54.1516 60.2648 54.1247 60.2559C54.0798 60.2828 54.0528 60.2828 54.0259 60.2738Z" fill="#FEFEFE"/>
<path d="M27.0928 42.2405C27.1287 42.2854 27.1557 42.3303 27.1826 42.3752C27.2095 42.4201 27.2455 42.456 27.2724 42.5009C27.2993 42.5369 27.3263 42.5818 27.3532 42.6177C27.3802 42.6536 27.4071 42.6985 27.4341 42.7344C28.5566 44.3061 29.805 45.8328 31.17 47.2787C32.5351 48.7246 34.0079 50.0986 35.5706 51.3739C37.1332 52.6491 38.7767 53.8256 40.483 54.8943C42.1893 55.954 43.9585 56.897 45.7726 57.6963C45.8086 57.7142 45.8445 57.7322 45.8804 57.7412C45.9163 57.7591 45.9433 57.7681 45.9702 57.7771C45.9972 57.7861 46.0241 57.8041 46.0511 57.813C46.078 57.822 46.1049 57.831 46.1229 57.8489C46.1588 57.8669 46.1947 57.8759 46.2307 57.8939C46.2666 57.9118 46.3025 57.9208 46.3384 57.9388C46.3744 57.9567 46.4103 57.9657 46.4462 57.9837C46.4821 58.0016 46.518 58.0106 46.554 58.0286C46.5719 58.0375 46.5899 58.0465 46.6168 58.0555C46.6348 58.0645 46.6528 58.0735 46.6797 58.0825C46.6977 58.0914 46.7156 58.1004 46.7426 58.1094C46.7605 58.1184 46.7785 58.1274 46.8054 58.1363C46.8414 58.1543 46.8773 58.1633 46.9132 58.1812C46.9491 58.1992 46.985 58.2082 47.021 58.2261C47.0569 58.2441 47.0928 58.2531 47.1287 58.271C47.1647 58.28 47.2006 58.298 47.2365 58.3159C47.7933 58.5405 48.3591 58.747 48.9249 58.9446C49.4907 59.1422 50.0564 59.3218 50.6312 59.4834C51.197 59.6451 51.7718 59.7978 52.3465 59.9325C52.9213 60.0672 53.4871 60.1839 54.0618 60.2917C54.0888 60.2917 54.1157 60.3007 54.1427 60.3097C54.1696 60.3097 54.1965 60.3186 54.2235 60.3276C54.2504 60.3366 54.2774 60.3366 54.3043 60.3456C54.3313 60.3546 54.3582 60.3546 54.3851 60.3635C54.7893 60.4354 55.1934 60.4893 55.5975 60.5432C56.0017 60.597 56.3968 60.633 56.792 60.6689C57.1871 60.7048 57.5823 60.7318 57.9684 60.7407C58.3546 60.7587 58.7408 60.7677 59.118 60.7587C62.0367 60.7407 64.6591 60.2109 66.8863 59.232C69.1045 58.2621 70.9455 56.8521 72.3376 55.0829C73.7206 53.3227 74.6546 51.2032 75.0767 48.8054C75.4898 46.4165 75.4 43.7403 74.7174 40.8575C74.7085 40.8305 74.7085 40.8036 74.6995 40.7856C74.6905 40.7587 74.6905 40.7317 74.6815 40.7048C74.6725 40.6779 74.6725 40.6509 74.6636 40.6329C74.6546 40.606 74.6546 40.5791 74.6456 40.5611C73.981 37.9028 72.8854 35.2715 71.4305 32.7389C69.9846 30.2153 68.1885 27.7816 66.1229 25.5364C64.0663 23.2912 61.7403 21.2077 59.2437 19.3846C56.7381 17.5615 54.0529 15.9809 51.2778 14.7416C51.1251 14.6697 50.9725 14.6069 50.8288 14.544C50.6761 14.4812 50.5234 14.4183 50.3798 14.3554C50.2361 14.2926 50.0744 14.2297 49.9307 14.1668C49.778 14.104 49.6254 14.0411 49.4817 13.9872C49.4278 13.9693 49.3829 13.9513 49.338 13.9333C49.2931 13.9154 49.2572 13.8974 49.2212 13.8884C49.1853 13.8705 49.1494 13.8615 49.1135 13.8525C49.0775 13.8435 49.0506 13.8256 49.0147 13.8166C48.5656 13.6459 48.1166 13.4933 47.6676 13.3406C47.2185 13.1879 46.7605 13.0532 46.3115 12.9185C45.8535 12.7838 45.4044 12.6671 44.9464 12.5503C44.4884 12.4336 44.0304 12.3348 43.5724 12.245C43.5454 12.236 43.5185 12.236 43.4915 12.227C43.4646 12.218 43.4377 12.218 43.4107 12.209C43.3838 12.2001 43.3568 12.2001 43.3299 12.1911C43.303 12.1821 43.276 12.1821 43.2491 12.1731C40.4112 11.6343 37.7529 11.5175 35.355 11.7869C32.9482 12.0564 30.7839 12.712 28.9249 13.7088C27.0569 14.7057 25.4942 16.0528 24.3088 17.6873C23.1143 19.3307 22.2791 21.2706 21.884 23.4619C21.8481 23.6684 21.8121 23.8839 21.7852 24.0905C21.7583 24.306 21.7313 24.5216 21.7134 24.7371C21.6954 24.9527 21.6774 25.1682 21.6595 25.3927C21.6415 25.6082 21.6325 25.8328 21.6325 26.0573C21.6235 26.4345 21.6235 26.8206 21.6325 27.2068C21.6415 27.593 21.6685 27.9792 21.7044 28.3743C21.7403 28.7695 21.7852 29.1646 21.8481 29.5597C21.9109 29.9639 21.9738 30.368 22.0636 30.7721C22.0726 30.7991 22.0726 30.826 22.0816 30.853C22.0905 30.8799 22.0905 30.9069 22.0995 30.9248C22.1085 30.9518 22.1085 30.9787 22.1175 30.9967C22.1265 31.0236 22.1265 31.0505 22.1354 31.0775C22.1444 31.1044 22.1444 31.1224 22.1534 31.1493C22.1624 31.1763 22.1624 31.1942 22.1714 31.2212C22.1804 31.2481 22.1804 31.2661 22.1893 31.293C22.1983 31.32 22.1983 31.3379 22.2073 31.3649C22.2881 31.7151 22.3779 32.0654 22.4677 32.4156C22.5665 32.7659 22.6653 33.1161 22.7731 33.4664C22.8808 33.8166 23.0066 34.1669 23.1323 34.5171C23.258 34.8673 23.3927 35.2176 23.5364 35.5678C23.6981 35.9809 23.8777 36.3851 24.0663 36.7982C24.2549 37.2113 24.4435 37.6154 24.65 38.0196C24.8566 38.4237 25.0721 38.8278 25.2877 39.232C25.5122 39.6361 25.7457 40.0312 25.9882 40.4264C26.087 40.5881 26.1857 40.7497 26.2845 40.9114C26.3833 41.064 26.4821 41.2257 26.5809 41.3783C26.6797 41.531 26.7785 41.6837 26.8773 41.8274C26.8952 41.9441 26.994 42.0968 27.0928 42.2405C27.1287 42.2854 26.994 42.0968 27.0928 42.2405Z" fill="#AD9514"/>
<path d="M40.6896 55.8379C41.1656 56.1253 41.6505 56.4037 42.1355 56.6731L40.6896 55.8379Z" fill="#AD9514"/>
<path d="M33.1098 49.3625C33.0829 49.3535 33.0559 49.3535 33.029 49.3535C33.002 49.3535 32.9751 49.3535 32.9481 49.3625C32.9212 49.3715 32.9032 49.3715 32.8763 49.3894C32.8583 49.3984 32.8314 49.4164 32.8134 49.4254C32.7865 49.4523 32.7595 49.4882 32.7506 49.5242C32.7416 49.5601 32.7326 49.605 32.7326 49.6499C32.7326 49.6948 32.7506 49.7397 32.7685 49.7846C32.7865 49.8295 32.8134 49.8744 32.8494 49.9193C32.8583 49.9283 32.8583 49.9373 32.8673 49.9462C32.8763 49.9552 32.8853 49.9642 32.8853 49.9732C32.8943 49.9822 32.9032 49.9911 32.9032 50.0001C32.9122 50.0091 32.9212 50.0181 32.9302 50.0271C34.4749 51.455 36.1093 52.7662 37.8157 53.9875L37.8696 54.0055L38.0851 54.0863L38.4174 53.9786C38.4354 53.9337 38.4533 53.8888 38.4533 53.8349C38.4533 53.781 38.4443 53.7271 38.4174 53.6732C38.3994 53.6193 38.3635 53.5655 38.3186 53.5116C38.2737 53.4577 38.2288 53.4128 38.1659 53.3679C37.7528 53.0715 37.3397 52.7752 36.9356 52.4698C36.5314 52.1645 36.1273 51.8501 35.7411 51.5268C35.346 51.2035 34.9598 50.8802 34.5736 50.548C34.1875 50.2157 33.8103 49.8744 33.4331 49.5331C33.4062 49.5062 33.3792 49.4882 33.3523 49.4703C33.3253 49.4523 33.2984 49.4343 33.2714 49.4164C33.2445 49.3984 33.2176 49.3894 33.1816 49.3805C33.1637 49.3715 33.1367 49.3625 33.1098 49.3625Z" fill="#FEFEFE"/>
<path d="M48.6824 12.9549C48.6914 12.9549 48.7004 12.9548 48.7004 12.9638C48.7004 12.9728 48.7183 12.9638 48.7273 12.9728C48.7363 12.9728 48.7453 12.9728 48.7542 12.9818C48.7632 12.9818 48.7722 12.9908 48.7812 12.9908C49.9936 13.4308 51.188 13.9427 52.3465 14.4995C49.5176 13.1434 46.536 12.0837 43.4556 11.4551C43.5185 11.4641 43.5724 11.491 43.6263 11.5179C43.6801 11.5449 43.7251 11.5808 43.761 11.6257C43.7969 11.6706 43.8328 11.7155 43.8598 11.7604C43.8867 11.8053 43.9047 11.8592 43.9136 11.9131C43.9675 12.1466 43.7251 12.2454 43.5365 12.2095C45.3865 12.5866 47.2096 13.1165 48.9788 13.7811C48.9608 13.7721 48.9428 13.7721 48.9249 13.7631C48.9069 13.7541 48.889 13.7541 48.871 13.7451C48.853 13.7362 48.8351 13.7362 48.8171 13.7272C48.7991 13.7182 48.7812 13.7182 48.7632 13.7092C48.7004 13.6913 48.6465 13.6553 48.5926 13.6194C48.5387 13.5835 48.4938 13.5386 48.4489 13.4937C48.413 13.4488 48.3771 13.3949 48.3501 13.341C48.3322 13.2871 48.3142 13.2333 48.3142 13.1883C48.3142 13.1434 48.3232 13.1075 48.3411 13.0806C48.3591 13.0536 48.386 13.0267 48.413 13.0087C48.4489 12.9908 48.4848 12.9818 48.5207 12.9728C48.5926 12.9459 48.6375 12.9459 48.6824 12.9549Z" fill="#AD9514"/>
<path d="M73.4691 35.775C73.514 35.784 73.5499 35.8019 73.5948 35.8199C73.6397 35.8379 73.6756 35.8648 73.7115 35.8917C73.7475 35.9187 73.7834 35.9546 73.8193 35.9905C73.8552 36.0264 73.8822 36.0624 73.9091 36.1073C73.1996 34.4728 72.3644 32.9012 71.4215 31.4014C71.4843 31.5541 71.4484 31.7427 71.2688 31.7786H71.1072C70.9275 31.7427 70.7659 31.6259 70.6671 31.4643C69.6702 29.8837 68.5566 28.3659 67.3622 26.938C67.2544 26.8122 67.1287 26.5339 67.3442 26.4261C67.4161 26.3902 67.4969 26.3902 67.5688 26.4081C67.5957 26.4171 67.6226 26.4171 67.6496 26.4261C67.6765 26.4351 67.7035 26.444 67.7304 26.462C67.7573 26.471 67.7843 26.4889 67.8022 26.5069C67.8292 26.5249 67.8472 26.5428 67.8741 26.5608C66.6437 25.1059 65.3236 23.7319 63.9316 22.4387C64.0214 22.5554 64.1112 22.7709 63.9675 22.8787L63.6891 22.9326L63.3568 22.762C61.9289 21.4418 60.4022 20.2114 58.8126 19.0889C58.6689 18.9811 58.4533 18.7206 58.5791 18.532C58.597 18.5051 58.615 18.4871 58.633 18.4692C58.6509 18.4512 58.6779 18.4422 58.7048 18.4333C58.7317 18.4243 58.7587 18.4243 58.7946 18.4243C58.8215 18.4243 58.8575 18.4243 58.8934 18.4333C58.9024 18.4333 58.9203 18.4422 58.9293 18.4422C58.9383 18.4422 58.9563 18.4512 58.9652 18.4512C58.9742 18.4512 58.9922 18.4602 59.0012 18.4692C59.0101 18.4782 59.0281 18.4782 59.0371 18.4871C57.4565 17.3646 55.804 16.3318 54.0887 15.4157C54.2414 15.5145 54.448 15.7301 54.3851 15.9366C54.3581 16.0983 54.1785 16.1342 54.0438 16.1073L53.8822 16.0354C53.011 15.5774 52.1219 15.1463 51.2239 14.7422C61.7942 19.475 71.7268 29.0305 74.5827 40.5437C74.2145 39.0529 73.7205 37.5981 73.1098 36.1881C73.0829 36.1342 73.0739 36.0803 73.0739 36.0354C73.0739 35.9905 73.0829 35.9456 73.1098 35.9097C73.1278 35.8738 73.1637 35.8468 73.1997 35.8289C73.2356 35.8109 73.2895 35.8019 73.3433 35.8019C73.4062 35.766 73.4331 35.766 73.4691 35.775Z" fill="#AD9514"/>
<path d="M21.839 23.4259C22.6203 19.1242 25.2965 15.487 29.2031 13.5023C33.3163 11.4187 38.1569 11.2481 42.6203 12.0204C41.3001 11.7869 39.962 11.6433 38.6239 11.6073L38.5431 11.5894C38.3365 11.5445 38.1299 11.4008 38.0581 11.2032C37.9773 11.0146 38.0581 10.826 38.2736 10.817C36.6841 10.7721 35.0855 10.8709 33.5139 11.1493C33.5588 11.1403 33.6127 11.1403 33.6665 11.1493C33.7114 11.1583 33.7474 11.1763 33.7923 11.1942C33.8372 11.2122 33.8731 11.2391 33.918 11.2661C33.9539 11.293 33.9988 11.3289 34.0258 11.3559C34.0617 11.3918 34.0886 11.4277 34.1156 11.4726C34.1515 11.5265 34.1695 11.5804 34.1784 11.6253C34.1874 11.6702 34.1874 11.7241 34.1784 11.76C34.1695 11.8049 34.1425 11.8408 34.1156 11.8678C34.0797 11.8947 34.0437 11.9127 33.9898 11.9217C33.6216 11.9845 33.2624 12.0653 32.9122 12.1462C32.5619 12.227 32.2117 12.3258 31.8614 12.4336C31.5202 12.5413 31.1789 12.6491 30.8466 12.7748C30.5143 12.9005 30.191 13.0263 29.8767 13.17L29.6522 13.179L29.257 12.9365C29.1492 12.8107 29.0594 12.5862 29.2121 12.4515C27.9907 12.9993 26.8322 13.6998 25.7994 14.562C25.8623 14.535 25.9431 14.535 26.006 14.553C26.0329 14.562 26.0599 14.571 26.0958 14.5799C26.1228 14.5889 26.1497 14.6069 26.1856 14.6159C26.2126 14.6338 26.2395 14.6518 26.2754 14.6697C26.3024 14.6877 26.3293 14.7147 26.3563 14.7326C26.491 14.8494 26.6526 15.1278 26.473 15.2804C26.2215 15.487 25.9791 15.7115 25.7366 15.936C25.5031 16.1605 25.2786 16.403 25.054 16.6455C24.8385 16.888 24.632 17.1394 24.4344 17.3999C24.2368 17.6603 24.0482 17.9297 23.8686 18.1992L23.5363 18.298L23.2669 18.1722C23.1232 18.0645 22.9705 17.8759 23.0064 17.6873C22.288 18.8009 21.7402 20.0133 21.354 21.2885C21.4258 21.1808 21.5695 21.1628 21.6863 21.1897C21.7042 21.1897 21.7132 21.1987 21.7312 21.1987C21.7492 21.1987 21.7581 21.2077 21.7761 21.2167C21.7941 21.2257 21.803 21.2257 21.821 21.2346C21.839 21.2436 21.8479 21.2526 21.8659 21.2526C22.0455 21.3514 22.2611 21.5849 22.1892 21.8094C22.1533 21.9351 22.1174 22.0698 22.0814 22.2046C22.0455 22.3393 22.0186 22.465 21.9827 22.5997C21.9557 22.7344 21.9198 22.8691 21.8928 23.0038C21.8839 23.1475 21.8569 23.2912 21.839 23.4259C22.2251 21.2706 21.8569 23.2912 21.839 23.4259Z" fill="#AD9514"/>
<path d="M20.6715 25.7705C20.6356 27.3331 20.7883 28.8958 21.0936 30.4315C21.0847 30.3776 21.0936 30.3327 21.1026 30.2968C21.1206 30.2609 21.1385 30.2249 21.1745 30.198C21.2104 30.1711 21.2463 30.1531 21.3002 30.1441C21.3451 30.1351 21.408 30.1351 21.4708 30.1441C21.7043 30.189 21.9378 30.3776 21.9827 30.6201L22.0097 30.7368C21.7043 29.2011 21.5427 27.6385 21.5786 26.0669C21.5427 26.2285 21.3631 26.2824 21.2194 26.2555L21.1206 26.2375C20.914 26.1567 20.7164 25.986 20.6715 25.7705C20.6626 26.1387 20.6805 25.8154 20.6715 25.7705Z" fill="#AD9514"/>
<path d="M23.1322 35.9631C22.9257 35.9272 22.7281 35.7745 22.6473 35.5859C23.3388 37.2923 24.183 38.9447 25.1349 40.5253C25.117 40.4804 25.108 40.4265 25.108 40.3816C25.108 40.3367 25.117 40.3008 25.126 40.2649C25.1439 40.2289 25.1619 40.202 25.1888 40.1751C25.2158 40.1481 25.2607 40.1302 25.3056 40.1212C25.3145 40.1212 25.3325 40.1212 25.3415 40.1122C25.3505 40.1122 25.3684 40.1122 25.3864 40.1122C25.4044 40.1122 25.4133 40.1122 25.4313 40.1122C25.4493 40.1122 25.4582 40.1122 25.4762 40.1212C25.6468 40.1571 25.8085 40.2649 25.9163 40.3996C24.9733 38.8459 24.1471 37.2204 23.4645 35.541V35.55V35.559V35.568V35.5769C23.5543 35.7925 23.4466 35.9901 23.2041 35.9901L23.1322 35.9631Z" fill="#AD9514"/>
<path d="M42.1354 56.6724C42.6204 56.9418 43.1143 57.2023 43.6082 57.4537C43.4556 57.3729 43.2939 57.2921 43.1412 57.2113C43.0784 57.1753 43.0245 57.1394 42.9796 57.0945C42.9347 57.0496 42.8898 56.9957 42.8539 56.9508C42.8179 56.8969 42.8 56.8431 42.791 56.7892C42.782 56.7353 42.782 56.6814 42.791 56.6365C42.8 56.6006 42.8179 56.5647 42.8359 56.5467C42.8539 56.5198 42.8808 56.5018 42.9167 56.4838C42.9437 56.4659 42.9796 56.4569 43.0245 56.4569C43.0604 56.4569 43.1053 56.4569 43.1502 56.4659C43.1682 56.4659 43.1772 56.4748 43.1951 56.4748C43.2131 56.4748 43.2221 56.4838 43.24 56.4838C43.258 56.4928 43.267 56.4928 43.2849 56.5018C43.3029 56.5108 43.3119 56.5198 43.3298 56.5198C43.5364 56.6275 43.734 56.7263 43.9405 56.8341C44.1471 56.9329 44.3447 57.0316 44.5512 57.1304C44.7578 57.2292 44.9643 57.328 45.1619 57.4178C45.3685 57.5166 45.575 57.6064 45.7816 57.6962C38.5252 54.4811 32.0501 49.2095 27.452 42.7344C28.0447 43.5696 28.6644 44.3868 29.32 45.1771C29.4457 45.3208 29.5355 45.6172 29.302 45.707L29.0775 45.7339L28.6913 45.5184C29.9845 47.0721 31.3765 48.5449 32.8584 49.9189C32.7596 49.7842 32.6787 49.5597 32.8224 49.425C32.8404 49.407 32.8583 49.3981 32.8853 49.3891C32.9033 49.3801 32.9302 49.3711 32.9571 49.3621C32.9841 49.3532 33.011 49.3532 33.038 49.3532C33.0649 49.3532 33.0918 49.3532 33.1188 49.3621C33.1457 49.3711 33.1727 49.3711 33.2086 49.3891C33.2355 49.3981 33.2625 49.416 33.2984 49.425C33.3253 49.443 33.3523 49.4609 33.3792 49.4789C33.4062 49.4969 33.4331 49.5238 33.4601 49.5417C33.8372 49.883 34.2144 50.2243 34.6006 50.5566C34.9868 50.8889 35.3729 51.2122 35.7681 51.5355C36.1632 51.8588 36.5584 52.1731 36.9625 52.4784C37.3667 52.7838 37.7798 53.0801 38.1929 53.3765C38.2558 53.4214 38.3007 53.4663 38.3456 53.5202C38.3905 53.5741 38.4174 53.628 38.4443 53.6819C38.4623 53.7357 38.4803 53.7896 38.4803 53.8435C38.4803 53.8974 38.4713 53.9423 38.4443 53.9872L38.1121 54.095L37.8965 54.0141C38.8126 54.6608 39.7465 55.2714 40.7075 55.8552" fill="#AD9514"/>
<g opacity="0.7">
<path opacity="0.7" d="M9.61628 31.7601C9.38278 30.9788 9.17622 30.1885 8.98762 29.3982C9.16724 30.1885 9.38278 30.9788 9.61628 31.7601ZM55.7322 72.3079C53.7744 71.9218 51.8435 71.4099 49.9396 70.8082C49.6433 67.8895 49.275 64.9707 48.853 62.0699L48.8081 61.8095C49.293 61.9801 49.778 62.1418 50.2719 62.2855C50.7569 62.4382 51.2508 62.5729 51.7447 62.7076C52.1578 62.8154 52.571 62.9141 52.9841 63.0039C45.5031 37.5257 34.8071 0.0851675 34.8071 0.0851675C31.3496 -0.130369 27.8471 0.0941444 24.4883 0.965272C22.8897 1.37838 21.354 1.96213 19.8812 2.68059C19.8722 2.67161 19.8722 2.6716 19.8633 2.66262C18.2198 3.45293 16.6841 4.45876 15.3011 5.63523C15.2741 5.66218 15.2382 5.68911 15.2112 5.71606C14.6993 6.15611 14.2144 6.61413 13.7474 7.09909C13.3073 7.55711 12.9032 8.04207 12.5081 8.54499C12.4542 8.61683 12.3913 8.68868 12.3374 8.76053C12.2925 8.82339 12.2386 8.87727 12.1937 8.94014L12.2027 8.94911C11.8525 9.42509 11.5022 9.91004 11.1969 10.4309C8.27815 15.2805 7.66746 21.1269 8.47572 26.6501C8.26917 25.2221 8.15242 23.7762 8.15242 22.3304C11.3855 23.2374 14.6275 24.0996 17.8785 24.9078L18.1928 24.9976C18.1839 25.4018 18.1839 25.8059 18.2018 26.219C18.2108 26.6321 18.2377 27.0542 18.2737 27.4763C18.3096 27.8984 18.3635 28.3295 18.4263 28.7695C18.4892 29.2096 18.5611 29.6496 18.6509 30.0987C19.0101 31.9307 19.5759 33.7179 20.2764 35.4512L19.971 35.4242C16.8098 35.0111 13.6396 34.6429 10.4694 34.3286C11.6459 37.5437 13.1816 40.624 14.9957 43.5248C16.6212 46.1292 18.4712 48.5989 20.4739 50.9339C20.5099 50.9788 20.5548 51.0237 20.5907 51.0686C21.1475 51.7152 21.7223 52.3528 22.306 52.9725C22.3599 53.0264 22.4138 53.0803 22.4587 53.1431C23.0604 53.7808 23.6711 54.4004 24.2907 55.0111C24.3536 55.074 24.4075 55.1369 24.4703 55.1907C25.081 55.7835 25.7007 56.3582 26.3294 56.924C26.4102 56.9959 26.491 57.0767 26.5808 57.1485C27.2813 57.7772 27.9998 58.3968 28.7272 58.9896C28.7452 59.0075 28.7721 59.0255 28.7901 59.0435C30.0653 60.0942 31.3585 61.109 32.7057 62.061C39.5669 66.9555 47.425 70.6914 55.7322 72.3079ZM10.4605 34.3196C10.4515 34.3016 10.4515 34.2837 10.4425 34.2657C10.4515 34.2837 10.4515 34.3016 10.4605 34.3196Z" fill="url(#paint0_linear)"/>
</g>
<defs>
<linearGradient id="paint0_linear" x1="8.14685" y1="36.1565" x2="55.7298" y2="36.1565" gradientUnits="userSpaceOnUse">
<stop stop-color="white"/>
<stop offset="0.9062"/>
</linearGradient>
</defs>
</svg>
