<svg width="89" height="84" viewBox="0 0 89 84" fill="none" xmlns="http://www.w3.org/2000/svg">
<path d="M8.98799 29.3984C7.41637 31.4909 5.83577 33.5924 4.26415 35.6849C3.33015 36.9243 2.39616 38.1726 1.46217 39.4119C1.28255 39.6454 0.932306 39.9687 0.833519 40.2471C0.743712 40.5076 0.941288 40.9297 1.01313 41.2081C1.22867 42.0792 1.47115 42.9413 1.74057 43.7945C2.96194 47.6113 4.73114 51.2395 6.85059 54.6342C9.75135 59.2593 13.4334 63.6239 17.6723 67.4946C21.9112 71.3742 26.6889 74.742 31.7541 77.3913C36.8102 80.0316 42.1357 81.9355 47.4972 82.8875C50.416 79.394 53.3347 75.9095 56.2534 72.416C50.7123 71.3922 45.3688 69.4164 40.3845 66.7941C35.2745 64.1088 30.4429 60.6962 26.1501 56.7806C21.8663 52.865 18.1214 48.4645 15.1757 43.8125C12.239 39.1694 10.1016 34.2839 8.98799 29.3984Z" fill="#703819"/>
<path d="M12.2387 8.86816C9.67027 12.3437 7.09281 15.8192 4.52433 19.2948C3.55441 20.6059 2.68328 21.971 2.00973 23.4528C1.417 24.773 0.941027 26.174 0.608741 27.6648C0.276455 29.1556 0.0698994 30.7272 0.0160152 32.3707C-0.037869 34.0231 0.0519377 35.7474 0.303397 37.5435C2.92576 34.0411 5.5571 30.5386 8.17947 27.0361C8.43093 26.6948 8.44889 26.7218 8.43093 26.2997C8.35908 24.6742 8.10762 23.0846 8.15253 21.4501C8.19743 19.7977 8.38603 18.226 8.71832 16.7353C9.04162 15.2445 9.50861 13.8435 10.1013 12.5233C10.6851 11.2211 11.4035 9.99973 12.2387 8.86816Z" fill="#703819"/>
<path d="M57.1429 72.5685C54.2242 76.0531 51.3054 79.5465 48.3867 83.0311C51.0899 83.4621 53.829 83.6507 56.5681 83.516C59.1276 83.3903 61.5075 82.9862 63.7078 82.3396C65.8901 81.6929 67.8838 80.7949 69.662 79.6723C71.4312 78.5587 72.9848 77.2206 74.296 75.6849C77.2417 72.2452 80.1964 68.8146 83.142 65.375C81.8129 66.9197 80.2413 68.2578 78.508 69.3445C76.7298 70.4581 74.7361 71.3472 72.5448 71.9848C70.3445 72.6224 67.9467 73.0086 65.3782 73.1164C62.7918 73.2152 60.0437 73.0445 57.1429 72.5685Z" fill="#703819"/>
<path d="M49.93 70.8086C47.0293 74.3111 44.1285 77.8225 41.2188 81.325C41.7396 81.4866 42.2605 81.6393 42.7814 81.792C43.3023 81.9357 43.8232 82.0794 44.344 82.2051C44.8649 82.3398 45.3858 82.4566 45.9157 82.5733C46.4365 82.6901 46.9574 82.7888 47.4873 82.8876C47.5232 82.8966 47.5591 82.8966 47.595 82.9056C47.631 82.9146 47.6669 82.9146 47.7028 82.9235C47.7387 82.9325 47.7747 82.9325 47.8106 82.9415C47.8465 82.9505 47.8824 82.9505 47.9184 82.9595C47.9543 82.9685 47.9902 82.9684 48.0261 82.9774C48.062 82.9864 48.098 82.9864 48.1339 82.9954C48.1698 83.0044 48.2057 83.0044 48.2417 83.0134C48.2776 83.0223 48.3135 83.0223 48.3494 83.0313C48.8703 83.1121 49.3822 83.184 49.8941 83.2469C50.406 83.3097 50.9089 83.3546 51.4118 83.3995C51.9148 83.4444 52.4087 83.4714 52.8937 83.4983C53.3876 83.5253 53.8726 83.5342 54.3485 83.5432C57.2762 80.0677 60.2129 76.5922 63.1406 73.1256C62.6557 73.1166 62.1617 73.0987 61.6768 73.0717C61.1828 73.0448 60.6889 73.0089 60.186 72.964C59.6831 72.9191 59.1712 72.8652 58.6593 72.8023C58.1474 72.7394 57.6265 72.6676 57.1056 72.5778C57.0697 72.5688 57.0338 72.5688 56.9978 72.5598C56.9619 72.5508 56.926 72.5508 56.8901 72.5419C56.8542 72.5329 56.8182 72.5329 56.7823 72.5239C56.7464 72.5149 56.7105 72.5149 56.6745 72.5059C56.6386 72.497 56.6027 72.497 56.5668 72.488C56.5308 72.479 56.4949 72.479 56.459 72.47C56.4231 72.461 56.3871 72.461 56.3512 72.452C56.3153 72.4431 56.2794 72.4341 56.2435 72.4341C55.7136 72.3353 55.1927 72.2275 54.6629 72.1108C54.133 71.994 53.6121 71.8683 53.0823 71.7336C52.5524 71.5989 52.0315 71.4552 51.5017 71.3025C50.9808 71.1319 50.4599 70.9702 49.93 70.8086Z" fill="#9A95A0"/>
<path d="M8.15282 22.3213C6.72489 24.2342 5.29696 26.1471 3.86902 28.06C2.93503 29.3083 2.00104 30.5656 1.06705 31.8139C0.788646 32.1821 0.465342 32.5503 0.222863 32.9455C-0.0555391 33.4035 -0.00165445 33.6819 0.016307 34.2836C0.0252877 34.6338 0.0432469 34.9931 0.070189 35.3523C0.0971311 35.7115 0.124075 36.0707 0.159998 36.4389C0.195921 36.8072 0.240822 37.1754 0.294706 37.5436V37.5526V37.5615V37.5705V37.5795C0.294706 37.6064 0.303689 37.6244 0.303689 37.6513C0.303689 37.6783 0.312668 37.6963 0.312668 37.7232C0.312668 37.7501 0.321651 37.7681 0.321651 37.795C0.321651 37.822 0.33063 37.8399 0.33063 37.8669C0.33063 37.8848 0.330632 37.8938 0.339613 37.9118C0.339613 37.9297 0.339611 37.9387 0.348592 37.9567C0.348592 37.9747 0.34859 37.9836 0.357571 38.0016C0.357571 38.0196 0.357573 38.0285 0.366554 38.0465C0.366554 38.0645 0.375533 38.0824 0.375533 38.1004C0.375533 38.1183 0.384516 38.1363 0.384516 38.1543C0.384516 38.1722 0.393495 38.1902 0.393495 38.2081C0.393495 38.2261 0.402477 38.2441 0.402477 38.262C0.402477 38.28 0.411457 38.3069 0.411457 38.3249C0.411457 38.3429 0.420436 38.3698 0.420436 38.3878C0.420436 38.4057 0.429418 38.4327 0.429418 38.4506C0.429418 38.4686 0.438398 38.4955 0.438398 38.5135C0.438398 38.5225 0.438399 38.5404 0.44738 38.5494C0.44738 38.5584 0.447379 38.5764 0.456359 38.5853C0.456359 38.5943 0.456361 38.6123 0.465342 38.6213C0.465342 38.6302 0.46534 38.6482 0.474321 38.6572C0.483302 38.6931 0.483302 38.729 0.492283 38.7649C0.501264 38.8009 0.501264 38.8368 0.510245 38.8727C0.519225 38.9086 0.519226 38.9446 0.528207 38.9805C0.537187 39.0164 0.537188 39.0523 0.546168 39.0883C0.555149 39.1242 0.55515 39.1601 0.56413 39.196C0.573111 39.232 0.582089 39.2679 0.582089 39.3038C0.591069 39.3397 0.60005 39.3756 0.60005 39.4116C0.609031 39.4475 0.618012 39.4834 0.618012 39.5193C0.618012 39.5373 0.626995 39.5463 0.626995 39.5642C0.626995 39.5822 0.635974 39.5912 0.635974 39.6091C0.635974 39.6271 0.644953 39.6361 0.644953 39.654C0.644953 39.672 0.653936 39.681 0.653936 39.6989C0.653936 39.7169 0.662915 39.7349 0.662915 39.7528C0.662915 39.7708 0.671898 39.7887 0.671898 39.8067C0.671898 39.8247 0.680877 39.8426 0.680877 39.8606C0.680877 39.8786 0.68986 39.8965 0.68986 39.9145C0.68986 39.9324 0.698841 39.9594 0.707821 39.9773C0.716802 39.9953 0.716799 40.0222 0.72578 40.0402C0.73476 40.0582 0.734761 40.0851 0.743742 40.1031C0.743742 40.121 0.752723 40.148 0.761703 40.1659C0.761703 40.1749 0.761705 40.1839 0.770686 40.1929C0.770686 40.2019 0.770684 40.2108 0.779665 40.2198C0.779665 40.2288 0.779667 40.2378 0.788648 40.2468C0.788648 40.2558 0.788646 40.2647 0.797627 40.2737C0.887434 40.6868 0.98622 41.091 1.09399 41.5041C1.20176 41.9172 1.30953 42.3213 1.43526 42.7344C1.552 43.1475 1.67774 43.5517 1.81245 43.9558C1.94716 44.3599 2.09085 44.773 2.23454 45.1772C3.68043 43.2733 5.11734 41.3693 6.56324 39.4654C7.49723 38.2261 8.4402 36.9868 9.3742 35.7564C9.6526 35.3882 10.0028 35.02 10.2363 34.6248C10.2902 34.535 10.416 34.4452 10.4429 34.3464C10.5237 34.068 10.1376 33.3765 10.0388 33.0802C9.90405 32.6671 9.76935 32.2629 9.64362 31.8498C9.51789 31.4367 9.40114 31.0326 9.29337 30.6195C9.1856 30.2063 9.08681 29.7932 8.98802 29.3891C8.98802 29.3801 8.98802 29.3711 8.97904 29.3622C8.97904 29.3532 8.97905 29.3442 8.97007 29.3352C8.97007 29.3262 8.97006 29.3173 8.96108 29.3083C8.96108 29.2993 8.96108 29.2903 8.9521 29.2813C8.94312 29.2544 8.94312 29.2364 8.93414 29.2185C8.92516 29.2005 8.92516 29.1736 8.91618 29.1556C8.9072 29.1376 8.9072 29.1107 8.89822 29.0927C8.88924 29.0658 8.88923 29.0478 8.88025 29.0299C8.88025 29.0119 8.87128 28.994 8.87128 28.976C8.87128 28.958 8.8623 28.9401 8.8623 28.9221C8.8623 28.9041 8.85331 28.8862 8.85331 28.8682C8.85331 28.8503 8.84434 28.8323 8.84434 28.8143C8.84434 28.7964 8.83535 28.7874 8.83535 28.7694C8.83535 28.7515 8.82637 28.7425 8.82637 28.7245C8.82637 28.7066 8.81739 28.6976 8.81739 28.6796C8.81739 28.6617 8.80841 28.6527 8.80841 28.6347C8.79943 28.5988 8.79045 28.5629 8.79045 28.527C8.78147 28.491 8.77249 28.4551 8.77249 28.4192C8.76351 28.3833 8.75453 28.3473 8.75453 28.3114C8.74554 28.2755 8.73657 28.2396 8.73657 28.2036C8.72759 28.1677 8.71861 28.1318 8.71861 28.0959C8.70963 28.06 8.70962 28.024 8.70064 27.9881C8.69166 27.9522 8.68268 27.9163 8.68268 27.8803C8.6737 27.8444 8.6737 27.8085 8.66472 27.7726C8.66472 27.7636 8.66472 27.7456 8.65574 27.7366C8.65574 27.7277 8.64676 27.7097 8.64676 27.7007C8.64676 27.6918 8.64676 27.6738 8.63778 27.6648C8.63778 27.6558 8.63778 27.6379 8.6288 27.6289C8.6288 27.6109 8.61982 27.584 8.61982 27.566C8.61982 27.5481 8.61084 27.5211 8.61084 27.5032C8.61084 27.4852 8.60185 27.4582 8.60185 27.4403C8.60185 27.4223 8.59287 27.3954 8.59287 27.3774C8.59287 27.3595 8.5839 27.3415 8.5839 27.3235C8.5839 27.3056 8.57491 27.2876 8.57491 27.2696C8.57491 27.2517 8.56593 27.2337 8.56593 27.2158C8.56593 27.1978 8.55696 27.1798 8.55696 27.1619C8.55696 27.1439 8.54797 27.1349 8.54797 27.117C8.54797 27.099 8.53899 27.09 8.53899 27.0721C8.53899 27.0541 8.53899 27.0451 8.53001 27.0272C8.53001 27.0092 8.53001 27.0002 8.52103 26.9823C8.52103 26.9553 8.51205 26.9374 8.51205 26.9104C8.51205 26.8835 8.50307 26.8655 8.50307 26.8386C8.50307 26.8116 8.49409 26.7937 8.49409 26.7667C8.49409 26.7398 8.48511 26.7218 8.48511 26.6949V26.6859V26.6769V26.6679V26.659C8.43122 26.2818 8.38632 25.9136 8.34141 25.5454C8.30549 25.1771 8.26957 24.8179 8.24263 24.4587C8.21568 24.0995 8.19772 23.7402 8.17976 23.39C8.1618 23.0128 8.15282 22.6626 8.15282 22.3213Z" fill="#9A95A0"/>
<path d="M20.4662 50.9248C17.8258 54.3105 15.1765 57.6962 12.5362 61.082C12.4464 61.1987 12.0782 61.522 12.0782 61.6747C12.0692 61.9172 12.8236 62.5548 13.0032 62.7524C13.5331 63.3451 14.0719 63.9199 14.6197 64.4857C15.4999 65.4017 16.4069 66.2908 17.3499 67.1619C18.2839 68.033 19.2538 68.8682 20.2417 69.6855C21.2295 70.5027 22.2444 71.293 23.2771 72.0474C26.124 68.4911 28.9709 64.9347 31.8178 61.3873C30.776 60.624 29.7522 59.8247 28.7554 58.9984C27.7585 58.1722 26.7796 57.3191 25.8366 56.4479C24.8847 55.5768 23.9687 54.6698 23.0796 53.7537C22.1545 52.8287 21.2924 51.8857 20.4662 50.9248Z" fill="#9A95A0"/>
<path d="M20.2684 35.4424C19.5769 33.7091 19.0111 31.9219 18.6429 30.0899C18.5531 29.6409 18.4812 29.2008 18.4183 28.7607C18.3555 28.3207 18.3106 27.8896 18.2657 27.4675C18.2298 27.0454 18.2028 26.6233 18.1938 26.2102C18.1759 25.7971 18.1759 25.384 18.1848 24.9888L17.8705 24.899C14.6195 24.0818 11.3775 23.2196 8.14442 22.3216C8.14442 23.7675 8.25219 25.2134 8.46773 26.6413C7.65946 21.1182 8.27016 15.2807 11.1889 10.4221C14.1166 5.55461 19.038 2.36646 24.4803 0.956495C27.8391 0.0853671 31.3416 -0.13916 34.7991 0.0763766C35.7062 2.83345 36.5414 5.60849 37.3407 8.40149L37.4125 8.65295C39.2625 8.70683 41.1036 8.94033 42.9087 9.31752C43.3847 9.41631 43.8607 9.52408 44.3456 9.64083C44.8216 9.75758 45.2976 9.88331 45.7736 10.018C46.2495 10.1527 46.7165 10.2964 47.1925 10.4491C47.6595 10.6018 48.1355 10.7634 48.6025 10.9341L48.5666 10.6916C48.1714 8.04226 47.8212 5.38398 47.5428 2.72569C61.2922 7.4675 73.6856 17.3822 81.3551 29.7486C83.6182 33.3858 85.4682 37.3014 86.6717 41.4235C86.2586 40.0225 85.7736 38.6485 85.2168 37.3104C82.2711 37.014 79.3434 36.6637 76.4067 36.2686L76.1373 36.2417C76.8647 37.93 77.4754 39.6633 77.8975 41.4505C78.0053 41.8815 78.0951 42.3126 78.1669 42.7437C78.2478 43.1748 78.3106 43.5969 78.3645 44.01C78.4184 44.4321 78.4633 44.8452 78.4902 45.2493C78.5262 45.6624 78.5441 46.0665 78.5531 46.4617L78.8315 46.5425C81.9119 47.3059 84.9743 48.1141 88.0367 48.9583C87.9379 47.4137 87.7224 45.8779 87.4081 44.3692C88.7282 50.6736 88.3421 57.5439 84.8216 63.094C81.3371 68.5991 75.347 71.7513 69.0246 72.7392C65.1 73.3589 61.0677 73.1972 57.1521 72.5596C59.1458 72.8829 61.1665 73.0625 63.1871 73.1074C62.1992 70.1348 61.2832 67.1353 60.4121 64.1267L60.3402 63.8573C58.4543 63.8663 56.5684 63.6777 54.7094 63.3454C54.2154 63.2556 53.7215 63.1568 53.2275 63.049C52.7336 62.9413 52.2397 62.8245 51.7547 62.6898C51.2608 62.5641 50.7758 62.4204 50.2819 62.2677C49.7969 62.115 49.303 61.9624 48.818 61.7917L48.8629 62.0522C49.285 64.953 49.6532 67.8717 49.9496 70.7904C52.0241 71.446 54.1256 72.0028 56.263 72.3979C47.7673 70.8353 39.7295 67.0455 32.7156 62.0522C25.7286 57.0769 19.5589 50.7994 15.0057 43.507C12.2935 39.1514 10.1381 34.4006 9.00657 29.3894C9.38376 31.0598 9.88668 32.7033 10.4794 34.3108C13.6496 34.6251 16.8198 34.9933 19.981 35.4065L20.2684 35.4424ZM37.8795 53.9965C38.3824 54.3467 38.8854 54.697 39.4062 55.0293C39.9181 55.3616 40.439 55.6849 40.9689 55.9992C41.4898 56.3135 42.0286 56.6099 42.5585 56.9062C43.0973 57.1936 43.6361 57.472 44.184 57.7415C44.2109 57.7594 44.2379 57.7684 44.2648 57.7864C44.2917 57.7953 44.3187 57.8133 44.3456 57.8313C44.3726 57.8492 44.3995 57.8582 44.4354 57.8762C44.4624 57.8941 44.4983 57.9031 44.5252 57.9211C45.3066 58.2983 46.0969 58.6485 46.8961 58.9718C47.6954 59.2951 48.5037 59.5915 49.312 59.8609C50.1202 60.1303 50.9464 60.3728 51.7727 60.5794C52.5989 60.7949 53.4341 60.9745 54.2693 61.1272C55.4009 61.3337 56.5414 61.4684 57.682 61.5403C57.6999 61.5403 57.7269 61.5403 57.7538 61.5403C57.7808 61.5403 57.8077 61.5403 57.8526 61.5493C57.8885 61.5493 57.9424 61.5493 57.9963 61.5583C58.0592 61.5583 58.131 61.5672 58.2208 61.5672C58.2388 61.5672 58.2657 61.5672 58.2837 61.5672C58.3016 61.5672 58.3286 61.5672 58.3465 61.5672C58.3735 61.5672 58.3914 61.5672 58.4184 61.5672C58.4453 61.5672 58.4633 61.5672 58.4902 61.5672C59.0021 61.5852 59.505 61.5852 60.008 61.5672C60.5019 61.5582 60.9958 61.5223 61.4718 61.4864C61.9478 61.4415 62.4238 61.3876 62.8818 61.3158C63.3398 61.2439 63.7978 61.1631 64.2379 61.0643C65.7017 60.741 67.1297 60.2291 68.4588 59.5286C68.7641 59.367 69.0695 59.1963 69.3659 59.0167C69.6622 58.8371 69.9406 58.6485 70.219 58.4509C70.4974 58.2533 70.7668 58.0468 71.0273 57.8313C71.2877 57.6157 71.5482 57.3912 71.7906 57.1667C72.7875 56.2147 73.6317 55.1101 74.2873 53.8977C74.4399 53.6103 74.5926 53.3229 74.7273 53.0266C74.862 52.7302 74.9967 52.4249 75.1135 52.1105C75.2302 51.7962 75.347 51.4729 75.4458 51.1406C75.5446 50.8083 75.6434 50.4671 75.7242 50.1258C75.7871 49.8564 75.8409 49.587 75.8948 49.3086C75.9397 49.0302 75.9846 48.7428 76.0206 48.4464C76.0565 48.1501 76.0834 47.8537 76.1104 47.5394C76.1373 47.2251 76.1463 46.9017 76.1553 46.5605C76.1642 46.1294 76.1553 45.6894 76.1373 45.2403C76.1193 44.7913 76.0834 44.3422 76.0295 43.8753C75.9756 43.4172 75.9128 42.9413 75.832 42.4653C75.7511 41.9893 75.6523 41.5043 75.5356 41.0104C75.5086 40.9026 75.4907 40.8039 75.4637 40.7051C75.4637 40.6871 75.4548 40.6781 75.4548 40.6602C75.4548 40.6422 75.4458 40.6242 75.4368 40.6063C75.4278 40.5883 75.4278 40.5614 75.4188 40.5255C75.4099 40.4895 75.4009 40.4536 75.3919 40.4087C75.3829 40.3907 75.3829 40.3728 75.3739 40.3458C75.365 40.3279 75.365 40.3009 75.356 40.283C75.347 40.256 75.347 40.2381 75.338 40.2021C75.329 40.1662 75.3201 40.1393 75.3111 40.1034C75.3021 40.0854 75.3021 40.0674 75.2931 40.0405C75.2841 40.0225 75.2841 39.9956 75.2752 39.9687C75.2662 39.9417 75.2572 39.9148 75.2482 39.8878C75.2392 39.8609 75.2303 39.825 75.2213 39.789C75.2123 39.7711 75.2123 39.7531 75.2033 39.7351C75.1943 39.7172 75.1943 39.6992 75.1853 39.6723C75.1764 39.6453 75.1674 39.6184 75.1584 39.5915C75.1494 39.5555 75.1404 39.5196 75.1225 39.4747C75.1225 39.4568 75.1135 39.4478 75.1045 39.4208C75.0955 39.4029 75.0955 39.3759 75.0776 39.349C75.0686 39.3131 75.0506 39.2771 75.0416 39.2233C75.0237 39.1694 75.0057 39.1065 74.9788 39.0167C74.9788 38.9987 74.9698 38.9808 74.9608 38.9718C74.9518 38.9538 74.9518 38.9359 74.9429 38.9179C74.9339 38.8999 74.9249 38.873 74.9159 38.8461C74.9069 38.8191 74.898 38.7832 74.88 38.7473C74.8082 38.5317 74.7363 38.3162 74.6645 38.1096C74.5926 37.8941 74.5118 37.6786 74.431 37.463C74.3501 37.2475 74.2603 37.023 74.1705 36.7985C74.0807 36.5739 73.9819 36.3494 73.8831 36.1159C73.7125 35.7118 73.5239 35.3166 73.3353 34.9215C73.1467 34.5263 72.9402 34.1222 72.7336 33.7271C72.5271 33.3319 72.3025 32.9278 72.078 32.5326C71.8445 32.1285 71.611 31.7333 71.3596 31.3292C71.1081 30.9341 70.8477 30.5299 70.5782 30.1348C70.3088 29.7396 70.0304 29.3445 69.7341 28.9493C69.4467 28.5542 69.1413 28.159 68.827 27.7549C68.5127 27.3597 68.1894 26.9556 67.8481 26.5605C67.5428 26.2012 67.2374 25.842 66.9141 25.4918C66.5998 25.1415 66.2675 24.7913 65.9352 24.441C65.6029 24.0908 65.2617 23.7405 64.9024 23.3903C64.5522 23.04 64.184 22.6898 63.8158 22.3395C63.4476 21.9983 63.0704 21.666 62.6932 21.3337C62.316 21.0014 61.9208 20.6781 61.5257 20.3548C61.1305 20.0315 60.7264 19.7172 60.3043 19.4028C59.8912 19.0885 59.4691 18.7832 59.0291 18.4689C58.6339 18.1905 58.2298 17.9121 57.8256 17.6426C57.4215 17.3732 57.0084 17.1128 56.5953 16.8523C56.1822 16.5919 55.7601 16.3404 55.329 16.098C54.9069 15.8555 54.4759 15.613 54.0358 15.3795C53.9101 15.3166 53.7843 15.2448 53.6586 15.1819C53.5329 15.1191 53.3982 15.0472 53.2545 14.9754C53.1108 14.9035 52.9671 14.8317 52.8144 14.7508C52.6618 14.67 52.4911 14.5892 52.3115 14.5084C51.593 14.1671 50.8656 13.8348 50.1292 13.5384C49.3928 13.2331 48.6564 12.9547 47.902 12.7033C47.1566 12.4428 46.3932 12.2093 45.6299 12.0027C44.8665 11.7962 44.0942 11.6076 43.3128 11.4459C43.0973 11.401 42.8728 11.3561 42.6572 11.3202C42.6393 11.3202 42.6213 11.3112 42.6034 11.3112C42.5854 11.3112 42.5674 11.3022 42.5405 11.3022C42.5136 11.3022 42.4866 11.2933 42.4597 11.2843C42.4238 11.2753 42.3878 11.2753 42.3429 11.2663C42.0466 11.2124 41.7502 11.1676 41.4628 11.1316C41.1665 11.0867 40.8701 11.0508 40.5648 11.0149C40.2594 10.979 39.9541 10.952 39.6308 10.9251C39.3075 10.8981 38.9841 10.8802 38.6339 10.8622C38.607 10.8622 38.571 10.8622 38.5441 10.8622C38.5172 10.8622 38.4812 10.8622 38.4453 10.8622C38.4094 10.8622 38.3824 10.8622 38.3465 10.8622C38.3106 10.8622 38.2747 10.8622 38.2387 10.8622C37.8167 10.8532 37.4035 10.8442 36.9994 10.8532C36.5953 10.8622 36.1912 10.8802 35.787 10.9071C35.3919 10.9341 34.9967 10.97 34.6105 11.0239C34.2244 11.0688 33.8472 11.1316 33.47 11.1945C33.0928 11.2574 32.7156 11.3382 32.3474 11.428C31.9792 11.5178 31.62 11.6166 31.2607 11.7243C30.9015 11.8321 30.5513 11.9489 30.201 12.0836C29.8508 12.2183 29.5095 12.353 29.1682 12.5057C28.8539 12.6494 28.5486 12.802 28.2432 12.9547C27.9469 13.1164 27.6505 13.287 27.3631 13.4576C27.0757 13.6372 26.7884 13.8258 26.51 14.0234C26.2316 14.221 25.9532 14.4275 25.6837 14.6431C25.4233 14.8586 25.1718 15.0831 24.9204 15.3256C24.6779 15.5591 24.4444 15.8106 24.2109 16.071C23.9864 16.3315 23.7708 16.6009 23.5553 16.8793C23.3487 17.1577 23.1422 17.4451 22.9536 17.7504C22.774 18.0198 22.6123 18.2982 22.4507 18.5856C22.289 18.873 22.1453 19.1693 22.0016 19.4747C21.8579 19.78 21.7322 20.0944 21.6065 20.4177C21.4808 20.741 21.364 21.0733 21.2652 21.4145C21.1664 21.7468 21.0766 22.0971 20.9958 22.4473C20.915 22.7975 20.8521 23.1568 20.7982 23.525C20.7443 23.8932 20.6994 24.2704 20.6725 24.6476C20.6366 25.0337 20.6186 25.4199 20.6096 25.8241C20.6007 26.1923 20.6007 26.5605 20.6186 26.9466C20.6276 27.3238 20.6545 27.719 20.6905 28.1141C20.7264 28.5093 20.7713 28.9134 20.8342 29.3355C20.897 29.7486 20.9689 30.1797 21.0497 30.6197C21.0766 30.7455 21.1036 30.8712 21.1305 30.9969C21.1305 31.0149 21.1395 31.0418 21.1485 31.0598C21.1575 31.0777 21.1575 31.1047 21.1664 31.1227C21.1754 31.1406 21.1754 31.1676 21.1844 31.1855C21.1934 31.2035 21.1934 31.2304 21.2024 31.2484C21.2024 31.2663 21.2113 31.2753 21.2113 31.2933C21.2113 31.3113 21.2203 31.3292 21.2293 31.3472C21.2383 31.3741 21.2383 31.4011 21.2473 31.437C21.2562 31.4729 21.2652 31.5178 21.2742 31.5627C21.2742 31.5807 21.2832 31.5986 21.2832 31.6166C21.2832 31.6346 21.2922 31.6525 21.3011 31.6795C21.3101 31.7064 21.3101 31.7333 21.3191 31.7603C21.3281 31.7962 21.3371 31.8321 21.3461 31.877C21.3461 31.895 21.355 31.913 21.364 31.9309C21.373 31.9489 21.373 31.9668 21.382 31.9938C21.391 32.0207 21.3999 32.0477 21.3999 32.0746C21.4089 32.1105 21.4179 32.1465 21.4269 32.1914C21.4269 32.2093 21.4359 32.2273 21.4448 32.2452C21.4538 32.2632 21.4538 32.2812 21.4628 32.3081C21.4718 32.335 21.4808 32.362 21.4897 32.3889C21.4987 32.4249 21.5077 32.4608 21.5167 32.5057C21.5257 32.5236 21.5257 32.5416 21.5346 32.5596C21.5436 32.5775 21.5436 32.5955 21.5526 32.6224C21.5616 32.6494 21.5706 32.6763 21.5796 32.7122C21.5885 32.7482 21.5975 32.7841 21.6155 32.838C21.6155 32.8559 21.6245 32.8649 21.6334 32.8829C21.6424 32.9008 21.6424 32.9188 21.6514 32.9457C21.6604 32.9727 21.6694 32.9996 21.6783 33.0356C21.6873 33.0715 21.6963 33.1074 21.7143 33.1613C21.7143 33.1792 21.7232 33.1882 21.7322 33.2062C21.7412 33.2241 21.7502 33.2511 21.7592 33.287C21.7681 33.3229 21.7861 33.3589 21.8041 33.4217C21.822 33.4756 21.84 33.5475 21.8669 33.6373C21.8759 33.6552 21.8759 33.6732 21.8849 33.6911C21.8939 33.7091 21.8939 33.7271 21.9029 33.754C21.9118 33.7809 21.9208 33.7989 21.9298 33.8348C21.9388 33.8708 21.9478 33.9067 21.9657 33.9426C21.9747 33.9606 21.9837 33.9785 21.9837 34.0055C21.9927 34.0234 22.0016 34.0504 22.0016 34.0683C22.0106 34.0953 22.0196 34.1132 22.0286 34.1402C22.0376 34.1671 22.0465 34.194 22.0555 34.23C22.0645 34.2569 22.0735 34.2749 22.0825 34.3018C22.0915 34.3288 22.1004 34.3467 22.1094 34.3737C22.1184 34.4006 22.1274 34.4276 22.1364 34.4545C22.1453 34.4814 22.1543 34.5084 22.1633 34.5353C22.1992 34.6251 22.2262 34.7239 22.2621 34.8137C22.298 34.9035 22.3339 35.0023 22.3699 35.0921C22.4058 35.1819 22.4417 35.2807 22.4776 35.3795C22.5135 35.4783 22.5584 35.5681 22.5944 35.6669C22.765 36.08 22.9446 36.5021 23.1332 36.9152C23.3218 37.3283 23.5194 37.7504 23.7349 38.1635C23.9415 38.5766 24.166 38.9987 24.3995 39.4208C24.633 39.8429 24.8755 40.265 25.1269 40.6871C26.1777 42.4024 27.3631 44.0369 28.6474 45.5906C29.9675 47.1801 31.3955 48.6709 32.8952 50.0899C33.2814 50.4401 33.6676 50.7904 34.0627 51.1317C34.4579 51.4729 34.862 51.8142 35.2751 52.1465C35.6882 52.4788 36.1013 52.8021 36.5324 53.1254C37.0084 53.3679 37.4395 53.6912 37.8795 53.9965ZM31.7996 61.3876C33.3532 59.4478 34.9518 57.5529 36.6222 55.7118L36.7749 55.5412C33.1287 52.9547 29.8059 49.9103 26.95 46.4707L26.7614 46.5964C24.7048 48.0962 22.6123 49.5511 20.4659 50.9251C23.8337 54.8227 27.6505 58.3432 31.7996 61.3876ZM70.5064 61.8366C73.0479 64.3872 75.5536 66.9736 78.0232 69.596C80.8971 67.8986 83.3488 65.5187 85.0731 62.6539C82.2621 60.4177 79.4871 58.1186 76.739 55.8016L76.5055 55.604C75.0686 58.1635 72.8773 60.2291 70.2819 61.5942L70.5064 61.8366ZM27.1925 10.2156C24.7138 7.72794 22.2711 5.21335 19.8642 2.65385C16.8557 4.10872 14.1884 6.23714 12.1947 8.93135C15.0147 11.1765 17.7897 13.4756 20.5468 15.8016L20.7892 15.9992C22.4058 13.5474 24.7497 11.6525 27.426 10.4491L27.1925 10.2156ZM75.2931 21.639C72.087 18.0019 68.4857 14.7149 64.5881 11.8321C63.1871 13.5654 61.7323 15.2538 60.2235 16.8882L60.0888 17.0409C63.5643 19.5196 66.7435 22.4204 69.5095 25.6714L69.6712 25.5546C71.5033 24.2075 73.3712 22.8874 75.2931 21.639Z" fill="#ED8000"/>
<path d="M64.5794 11.832C63.1784 13.5653 61.7235 15.2537 60.2148 16.8882L60.0801 17.0408C63.5556 19.5195 66.7348 22.4203 69.5008 25.6713L69.6625 25.5545C71.5035 24.1895 73.3715 22.8693 75.2934 21.621C72.0783 18.0107 68.477 14.7148 64.5794 11.832C64.319 12.1553 65.5583 12.5595 64.5794 11.832Z" fill="#F6F6F6"/>
<path d="M41.0857 0.9471C41.0498 0.93812 41.0139 0.92914 40.9779 0.920159C40.942 0.911179 40.9061 0.902199 40.8702 0.893218C40.8343 0.884238 40.7983 0.875253 40.7624 0.875253C40.7265 0.866272 40.6906 0.857302 40.6546 0.857302C40.6367 0.857302 40.6187 0.848312 40.6008 0.848312C40.5828 0.848312 40.5648 0.839336 40.5469 0.839336C40.5289 0.839336 40.511 0.830361 40.493 0.830361C40.475 0.830361 40.4571 0.821371 40.4391 0.821371C40.4211 0.821371 40.4032 0.812395 40.3852 0.812395C40.3673 0.812395 40.3493 0.80342 40.3313 0.80342C40.3134 0.80342 40.2954 0.79443 40.2775 0.79443C40.2595 0.79443 40.2415 0.785454 40.2236 0.785454C40.1966 0.785454 40.1787 0.776465 40.1517 0.776465C40.1248 0.776465 40.1068 0.767489 40.0799 0.767489C40.0529 0.767489 40.035 0.758513 40.008 0.758513C39.9811 0.758513 39.9631 0.749524 39.9362 0.749524C39.9272 0.749524 39.9182 0.749529 39.9092 0.740548C39.9003 0.740548 39.8913 0.740553 39.8823 0.731572C39.8733 0.731572 39.8643 0.731564 39.8554 0.722583C39.8464 0.722583 39.8374 0.722588 39.8284 0.713607C39.4692 0.650742 39.11 0.58788 38.7507 0.533996C38.3915 0.480112 38.0323 0.426229 37.682 0.381326C37.3318 0.336422 36.9726 0.291519 36.6313 0.255596C36.281 0.219674 35.9308 0.18375 35.5895 0.156808C35.5626 0.156808 35.5267 0.147819 35.4997 0.147819C35.4728 0.147819 35.4458 0.147824 35.4189 0.138843C35.392 0.138843 35.365 0.138848 35.347 0.129867C35.3201 0.129867 35.3021 0.129858 35.2752 0.120878C35.1225 0.111897 34.9699 0.102922 34.8262 0.0849609C35.7332 2.84204 36.5684 5.62604 37.3677 8.41006L37.4396 8.66153C37.8796 8.67051 38.3197 8.69744 38.7687 8.73337C39.2177 8.76929 39.6668 8.8142 40.1248 8.86808C40.5828 8.92197 41.0498 8.98483 41.5168 9.06566C41.9838 9.14649 42.4598 9.22731 42.9357 9.32609C44.8666 9.72124 46.7615 10.2691 48.6115 10.9426L48.5756 10.7001C48.1805 8.05083 47.8302 5.39255 47.5518 2.73426C47.5159 2.7163 47.471 2.70732 47.4351 2.68936C47.3991 2.6714 47.3542 2.66241 47.3183 2.64445C47.2824 2.63547 47.2375 2.61752 47.2016 2.60854C47.1657 2.59057 47.1207 2.58159 47.0848 2.5726C47.0579 2.56362 47.0309 2.55464 47.004 2.54566C46.9771 2.53668 46.9501 2.5277 46.9232 2.51872C46.8962 2.50974 46.8693 2.50076 46.8423 2.49178C46.8154 2.4828 46.7885 2.47382 46.7615 2.46484C46.4023 2.34809 46.0341 2.23134 45.6749 2.12357C45.3156 2.0158 44.9474 1.90805 44.5792 1.80028C44.211 1.70149 43.8518 1.6027 43.4836 1.50391C43.1154 1.40513 42.7561 1.31532 42.3879 1.23449C42.3789 1.23449 42.37 1.23448 42.361 1.2255C42.352 1.2255 42.343 1.2255 42.334 1.21652C42.325 1.21652 42.3161 1.21653 42.3071 1.20755C42.2981 1.20755 42.2891 1.20754 42.2801 1.19856C42.2532 1.18958 42.2352 1.18959 42.2083 1.18061C42.1814 1.17163 42.1634 1.17162 42.1365 1.16264C42.1095 1.15366 42.0916 1.15366 42.0646 1.14468C42.0377 1.1357 42.0197 1.13571 41.9928 1.12673C41.9748 1.12673 41.9568 1.11774 41.9389 1.11774C41.9209 1.11774 41.903 1.10876 41.885 1.10876C41.867 1.10876 41.8491 1.09977 41.8311 1.09977C41.8132 1.09977 41.7952 1.09079 41.7772 1.09079C41.7593 1.09079 41.7413 1.08182 41.7233 1.08182C41.7054 1.08182 41.6874 1.07283 41.6695 1.07283C41.6515 1.07283 41.6335 1.06385 41.6156 1.06385C41.5976 1.06385 41.5797 1.05488 41.5617 1.05488C41.5258 1.0459 41.4898 1.03692 41.4539 1.02794C41.418 1.01896 41.3821 1.00996 41.3462 1.00098C41.3102 0.992002 41.2743 0.983022 41.2384 0.974041C41.1576 0.95608 41.1216 0.9471 41.0857 0.9471Z" fill="#F6F6F6"/>
<path d="M85.1986 37.3011C82.253 37.0048 79.3252 36.6545 76.3886 36.2594L76.1191 36.2324C76.3077 36.6635 76.4784 37.0946 76.649 37.5256C76.8196 37.9567 76.9723 38.3878 77.125 38.8278C77.2687 39.2589 77.4123 39.699 77.5381 40.139C77.6638 40.5791 77.7806 41.0102 77.8793 41.4502C78.2655 43.0937 78.499 44.782 78.5439 46.4704L78.8223 46.5512C81.9027 47.3146 84.9651 48.1229 88.0275 48.967C88.0006 48.5988 87.9737 48.2216 87.9377 47.8445C87.9018 47.4673 87.8569 47.0901 87.803 46.7039C87.7491 46.3177 87.6953 45.9316 87.6234 45.5454C87.5516 45.1592 87.4797 44.7641 87.3989 44.3689C87.3989 44.36 87.3989 44.351 87.3989 44.351C87.3989 44.342 87.3989 44.333 87.3989 44.333C87.3989 44.324 87.3989 44.315 87.3989 44.3061C87.3989 44.2971 87.3989 44.2881 87.3899 44.2881C87.3899 44.2701 87.3809 44.2432 87.372 44.2252C87.372 44.1983 87.363 44.1803 87.354 44.1624C87.345 44.1444 87.345 44.1175 87.336 44.0995C87.336 44.0726 87.327 44.0546 87.3181 44.0367C87.3181 44.0187 87.3091 44.0007 87.3091 43.9917C87.3091 43.9738 87.3001 43.9558 87.3001 43.9468C87.3001 43.9289 87.2911 43.9109 87.2911 43.9019C87.2911 43.884 87.2821 43.866 87.2821 43.857C87.2821 43.8391 87.2732 43.8211 87.2732 43.8121C87.2732 43.7942 87.2642 43.7762 87.2642 43.7672C87.2642 43.7493 87.2552 43.7313 87.2552 43.7223C87.2552 43.7044 87.2462 43.6864 87.2462 43.6774C87.2372 43.6415 87.2283 43.6056 87.2193 43.5786C87.2103 43.5427 87.2013 43.5068 87.1923 43.4798C87.1833 43.4439 87.1744 43.408 87.1654 43.3811C87.1564 43.3451 87.1474 43.3092 87.1384 43.2823C87.1295 43.2463 87.1205 43.2104 87.1115 43.1745C87.1025 43.1386 87.0935 43.1027 87.0846 43.0667C87.0756 43.0308 87.0666 42.9949 87.0576 42.959C87.0486 42.923 87.0397 42.8871 87.0307 42.8512C87.0307 42.8332 87.0217 42.8242 87.0217 42.8063C87.0217 42.7883 87.0127 42.7793 87.0127 42.7614C87.0127 42.7434 87.0037 42.7344 87.0037 42.7165C87.0037 42.6985 86.9948 42.6895 86.9948 42.6716C86.9948 42.6536 86.9858 42.6357 86.9768 42.6177C86.9768 42.5997 86.9678 42.5818 86.9588 42.5638C86.9588 42.5459 86.9499 42.5279 86.9409 42.5099C86.9319 42.492 86.9319 42.474 86.9229 42.456C86.9139 42.4381 86.9139 42.4201 86.905 42.4022C86.896 42.3842 86.896 42.3662 86.887 42.3483C86.887 42.3303 86.878 42.3124 86.869 42.2944C86.86 42.2764 86.8601 42.2585 86.8511 42.2405C86.8511 42.2315 86.8421 42.2136 86.8421 42.2046C86.8421 42.1956 86.8331 42.1776 86.8331 42.1687C86.8331 42.1597 86.8241 42.1417 86.8241 42.1327C86.8241 42.1238 86.8151 42.1058 86.8151 42.0968C86.3751 40.4174 85.8363 38.8458 85.1986 37.3011C84.6598 37.2472 85.3603 37.6873 85.1986 37.3011Z" fill="#F6F6F6"/>
<path d="M19.8629 2.6543C16.8543 4.10917 14.1871 6.23759 12.1934 8.9318C15.0133 11.177 17.7883 13.476 20.5454 15.802L20.7879 15.9996C22.4044 13.5479 24.7484 11.653 27.4246 10.4495L27.1911 10.216C24.7125 7.72839 22.2697 5.2138 19.8629 2.6543C19.0816 3.03149 20.3029 3.13027 19.8629 2.6543Z" fill="#F6F6F6"/>
<path d="M76.4951 55.6035C75.0582 58.163 72.8669 60.2286 70.2715 61.5936L70.505 61.8361C73.0465 64.3866 75.5521 66.9731 78.0218 69.5954C80.8957 67.8981 83.3474 65.5182 85.0717 62.6534C82.2607 60.4172 79.4857 58.1181 76.7376 55.8011L76.4951 55.6035Z" fill="#F6F6F6"/>
<path d="M8.15234 22.3213C8.15234 22.6626 8.16133 23.0128 8.17031 23.372C8.17929 23.7223 8.20623 24.0815 8.23317 24.4407C8.26012 24.8 8.29604 25.1682 8.33196 25.5274C8.36788 25.8956 8.42177 26.2638 8.47565 26.641V26.65V26.659V26.6679V26.6769C8.47565 26.7039 8.48463 26.7218 8.48463 26.7488C8.48463 26.7757 8.49361 26.7937 8.49361 26.8206C8.49361 26.8476 8.50259 26.8655 8.50259 26.8925C8.50259 26.9194 8.51157 26.9374 8.51157 26.9643C8.51157 26.9823 8.51158 26.9913 8.52056 27.0092C8.52056 27.0272 8.52953 27.0362 8.52953 27.0541C8.52953 27.0721 8.53851 27.0811 8.53851 27.099C8.53851 27.117 8.53852 27.126 8.5475 27.1439C8.5475 27.1619 8.55648 27.1799 8.55648 27.1978C8.55648 27.2158 8.56546 27.2337 8.56546 27.2517C8.56546 27.2697 8.57444 27.2876 8.57444 27.3056C8.57444 27.3235 8.58342 27.3415 8.58342 27.3595C8.58342 27.3774 8.5924 27.4044 8.5924 27.4223C8.5924 27.4403 8.60138 27.4672 8.60138 27.4852C8.60138 27.5032 8.61036 27.5301 8.61036 27.5481C8.61036 27.566 8.61934 27.593 8.61934 27.6109C8.61934 27.6199 8.61934 27.6379 8.62832 27.6469C8.62832 27.6558 8.62832 27.6738 8.6373 27.6828C8.6373 27.6917 8.64628 27.7097 8.64628 27.7187C8.64628 27.7277 8.64628 27.7456 8.65526 27.7546C8.66424 27.7905 8.66425 27.8265 8.67323 27.8624C8.68221 27.8983 8.6822 27.9342 8.69118 27.9702C8.70017 28.0061 8.70017 28.042 8.70915 28.0779C8.71813 28.1138 8.72711 28.1498 8.72711 28.1857C8.73609 28.2216 8.74507 28.2575 8.74507 28.2935C8.75405 28.3294 8.76303 28.3653 8.76303 28.4012C8.77201 28.4371 8.781 28.4731 8.781 28.509C8.78998 28.5449 8.79896 28.5808 8.79896 28.6168C8.79896 28.6347 8.80794 28.6437 8.80794 28.6617C8.80794 28.6796 8.81691 28.6886 8.81691 28.7066C8.81691 28.7245 8.8259 28.7335 8.8259 28.7515C8.8259 28.7694 8.83488 28.7784 8.83488 28.7964C8.83488 28.8143 8.84386 28.8323 8.84386 28.8503C8.84386 28.8682 8.85284 28.8862 8.85284 28.9041C8.85284 28.9221 8.86182 28.9401 8.86182 28.958C8.86182 28.976 8.8708 28.9939 8.8708 29.0119C8.87978 29.0299 8.87978 29.0568 8.88876 29.0748C8.89774 29.0927 8.89775 29.1197 8.90673 29.1376C8.91571 29.1556 8.9157 29.1825 8.92468 29.2005C8.93367 29.2185 8.93367 29.2454 8.94265 29.2634C8.94265 29.2723 8.94264 29.2813 8.95163 29.2903C8.95163 29.2993 8.95163 29.3083 8.96061 29.3173C8.96061 29.3262 8.96061 29.3352 8.96959 29.3442C8.96959 29.3532 8.96959 29.3622 8.97857 29.3711C9.35576 31.0416 9.85867 32.685 10.4514 34.2926C13.6216 34.6069 16.7918 34.9751 19.953 35.3882L20.2583 35.4151C20.0787 34.9751 19.9081 34.5261 19.7554 34.077C19.5938 33.628 19.4501 33.1879 19.3154 32.7389C19.1806 32.2899 19.0549 31.8498 18.9382 31.4008C18.8214 30.9517 18.7226 30.5117 18.6328 30.0626C18.3005 28.3833 18.1389 26.6679 18.1748 24.9616L17.8605 24.8718C14.6274 24.0905 11.3854 23.2283 8.15234 22.3213C8.15234 22.6626 8.76303 22.4919 8.15234 22.3213Z" fill="#F6F6F6"/>
<path d="M48.8086 61.8008L48.8535 62.0612C49.2756 64.962 49.6438 67.8807 49.9402 70.7994C50.461 70.9611 50.9909 71.1227 51.5118 71.2754C52.0327 71.4281 52.5625 71.5718 53.0924 71.7065C53.6222 71.8412 54.1431 71.9669 54.673 72.0837C55.2029 72.2004 55.7237 72.3082 56.2536 72.407C56.2895 72.416 56.3254 72.416 56.3614 72.4249C56.3973 72.4339 56.4332 72.4429 56.4691 72.4429C56.5051 72.4519 56.541 72.4609 56.5769 72.4609C56.6128 72.4698 56.6487 72.4698 56.6847 72.4788C56.7206 72.4878 56.7565 72.4878 56.7924 72.4968C56.8284 72.5058 56.8643 72.5058 56.9002 72.5147C56.9361 72.5237 56.972 72.5237 57.008 72.5327C57.0439 72.5417 57.0798 72.5417 57.1157 72.5507C59.1095 72.874 61.1301 73.0536 63.1508 73.0985C62.1629 70.1259 61.2469 67.1263 60.3757 64.1178L60.3039 63.8484C59.8638 63.8484 59.4058 63.8394 58.9568 63.8214C58.4988 63.8035 58.0408 63.7675 57.5648 63.7316C57.0978 63.6867 56.6218 63.6328 56.1368 63.57C55.6519 63.5071 55.1669 63.4263 54.673 63.3455C52.6972 62.9952 50.7305 62.4743 48.8086 61.8008Z" fill="#F6F6F6"/>
<path d="M26.9399 46.4707L26.7603 46.5964C24.7037 48.0962 22.6112 49.5511 20.4648 50.9251C23.8326 54.8228 27.6494 58.3432 31.7985 61.3966C33.3521 59.4568 34.9507 57.5619 36.6211 55.7208L36.7738 55.5502C33.1276 52.9548 29.7958 49.9013 26.9399 46.4707Z" fill="#F6F6F6"/>
<path d="M59.6663 61.1448C59.6933 61.1987 59.7022 61.2616 59.7022 61.3065C59.7022 61.3603 59.6933 61.4052 59.6753 61.4412C59.6573 61.4771 59.6214 61.513 59.5855 61.531C59.5496 61.5489 59.4957 61.5669 59.4418 61.5669C59.361 61.5669 59.2891 61.5669 59.2083 61.5669C59.1275 61.5669 59.0556 61.5669 58.9748 61.5669C58.894 61.5669 58.8221 61.5669 58.7413 61.5669C58.6605 61.5669 58.5797 61.5669 58.5078 61.5579C60.4297 61.6208 62.3605 61.4681 64.2285 61.046H64.0938C63.9052 61.0101 63.7256 60.8844 63.6268 60.7227C63.519 60.5611 63.5011 60.2827 63.7436 60.2198C65.1446 59.9144 66.5096 59.4295 67.7939 58.7739C67.8118 58.7649 67.8208 58.7559 67.8388 58.7559C67.8567 58.7559 67.8747 58.747 67.8926 58.747C67.9106 58.747 67.9286 58.747 67.9465 58.747C67.9645 58.747 67.9824 58.747 68.0094 58.7559C68.0453 58.7649 68.0812 58.7739 68.1172 58.7829C68.1531 58.8008 68.189 58.8188 68.2249 58.8368C68.2609 58.8547 68.2968 58.8817 68.3237 58.9086C68.3596 58.9356 68.3866 58.9625 68.4135 58.9984C68.5213 59.1331 68.6201 59.3577 68.4764 59.5013C69.6798 58.8727 70.8024 58.0824 71.7813 57.1484L71.5298 57.2023L71.1886 57.0317C71.0539 56.9059 70.9012 56.6365 71.0539 56.4659C71.9968 55.5588 72.8231 54.5171 73.4517 53.3675C73.5235 53.2598 73.6583 53.2418 73.775 53.2598C73.793 53.2598 73.8199 53.2687 73.8379 53.2777C73.8558 53.2867 73.8828 53.2957 73.9007 53.3047C73.9187 53.3136 73.9456 53.3226 73.9636 53.3406C73.9816 53.3496 74.0085 53.3675 74.0265 53.3855C74.1702 53.4932 74.3228 53.6908 74.2959 53.8794C74.9425 52.7119 75.4095 51.4546 75.7148 50.1614C75.6609 50.2782 75.5083 50.2961 75.3915 50.2692L75.2299 50.2153C75.0503 50.1165 74.8168 49.883 74.8796 49.6585C74.9515 49.3262 75.0233 48.9849 75.0772 48.6347C75.1311 48.2934 75.176 47.9432 75.2119 47.584C75.2478 47.2337 75.2748 46.8745 75.2838 46.5152C75.3017 46.156 75.3017 45.7968 75.3017 45.4286C75.3017 45.3837 75.3107 45.3478 75.3287 45.3118C75.3466 45.2759 75.3736 45.249 75.4005 45.231C75.4275 45.213 75.4634 45.1951 75.5083 45.1861C75.5442 45.1771 75.5981 45.1771 75.643 45.1861C75.652 45.1861 75.652 45.1861 75.6609 45.1861C75.6699 45.1861 75.6699 45.1861 75.6789 45.1951C75.6879 45.1951 75.6879 45.1951 75.6969 45.2041C75.7059 45.2041 75.7058 45.2041 75.7148 45.2131C75.9304 45.2849 76.1549 45.5004 76.1639 45.7429C76.1639 45.8058 76.1639 45.8776 76.1639 45.9405C76.1639 46.0034 76.1639 46.0752 76.1639 46.1381C76.1639 46.2009 76.1639 46.2728 76.1639 46.3356C76.1639 46.3985 76.1639 46.4704 76.1639 46.5332C76.1998 44.6832 75.9663 42.8332 75.5532 41.028C75.6071 41.2526 75.4095 41.3424 75.2119 41.3064C75.158 41.2975 75.0952 41.2705 75.0413 41.2436C74.9874 41.2077 74.9335 41.1717 74.8796 41.1268C74.8347 41.0819 74.7898 41.028 74.7539 40.9742C74.718 40.9203 74.7 40.8664 74.6821 40.8125C75.7957 45.5543 75.4903 50.817 72.4728 54.8314C69.3655 58.9715 64.1836 60.6868 59.1544 60.7227C59.3879 60.7766 59.5855 60.9472 59.6663 61.1448Z" fill="#ED8000"/>
<path d="M48.7632 59.6547L48.6823 59.6278C47.6316 59.2596 46.5988 58.8465 45.584 58.3974C48.3321 59.6188 51.2149 60.5618 54.1785 61.1006C54.1156 61.0916 54.0618 61.0647 54.0079 61.0377C53.954 61.0108 53.9001 60.9659 53.8552 60.921C53.8103 60.8761 53.7654 60.8222 53.7385 60.7773C53.7025 60.7234 53.6846 60.6695 53.6666 60.6156C53.6127 60.3822 53.8283 60.2474 54.0348 60.2834C51.6998 59.8613 49.4098 59.1787 47.2095 58.3076C47.3352 58.3525 47.452 58.4064 47.5777 58.4513C47.7034 58.4962 47.8202 58.5501 47.9459 58.595C48.0716 58.6399 48.1974 58.6848 48.3141 58.7297C48.4398 58.7746 48.5566 58.8195 48.6823 58.8644C48.9068 58.9452 49.1224 59.1608 49.1224 59.4122C49.1314 59.6098 48.9338 59.6906 48.7632 59.6547Z" fill="#ED8000"/>
<path d="M25.2972 40.1214C25.2523 40.1304 25.2164 40.1483 25.1804 40.1753C25.1535 40.2022 25.1265 40.2291 25.1176 40.2651C25.0996 40.301 25.0996 40.3369 25.0996 40.3818C25.0996 40.4267 25.1086 40.4716 25.1266 40.5255C25.1355 40.5614 25.1535 40.5884 25.1625 40.6153C26.2132 42.3216 27.3807 43.9472 28.656 45.5008L28.6829 45.5188L29.0601 45.7433L29.2846 45.7164C29.5181 45.6176 29.4283 45.3212 29.3026 45.1865C29.1409 44.9889 28.9793 44.7824 28.8176 44.5848C28.656 44.3782 28.5033 44.1807 28.3416 43.9741C28.189 43.7675 28.0363 43.57 27.8836 43.3634C27.731 43.1569 27.5873 42.9503 27.4346 42.7438C27.4076 42.7078 27.3807 42.6629 27.3538 42.627C27.3268 42.5911 27.2999 42.5551 27.2729 42.5102C27.246 42.4743 27.2191 42.4294 27.1921 42.3935C27.1652 42.3576 27.1382 42.3127 27.1113 42.2768C27.1113 42.2768 27.1113 42.2678 27.1023 42.2678C27.1023 42.2678 27.1023 42.2588 27.0933 42.2588C27.0933 42.2588 27.0933 42.2498 27.0843 42.2498C27.0843 42.2498 27.0843 42.2408 27.0754 42.2408C26.9766 42.0971 26.8778 41.9445 26.779 41.8008C26.6802 41.6571 26.5814 41.5044 26.4826 41.3517C26.3839 41.1991 26.294 41.0554 26.1953 40.9027C26.1054 40.75 26.0067 40.6063 25.9168 40.4537L25.9079 40.4447L25.8989 40.4357L25.8899 40.4267L25.8809 40.4178C25.854 40.3818 25.8181 40.3459 25.7911 40.319C25.7552 40.292 25.7193 40.2651 25.6834 40.2381C25.6474 40.2112 25.6025 40.1932 25.5666 40.1753C25.5307 40.1573 25.4858 40.1483 25.4499 40.1393C25.4319 40.1393 25.4229 40.1304 25.4049 40.1304C25.387 40.1304 25.378 40.1304 25.3601 40.1304C25.3421 40.1304 25.3331 40.1304 25.3151 40.1304C25.3241 40.1124 25.3151 40.1214 25.2972 40.1214Z" fill="#FEFEFE"/>
<path d="M43.1511 56.4666C43.1062 56.4576 43.0703 56.4576 43.0254 56.4576C42.9895 56.4576 42.9535 56.4756 42.9176 56.4846C42.8907 56.5025 42.8548 56.5205 42.8368 56.5474C42.8188 56.5744 42.8009 56.6013 42.7919 56.6372C42.7829 56.6821 42.7829 56.736 42.7919 56.7899C42.8009 56.8438 42.8278 56.8977 42.8548 56.9515C42.8907 57.0054 42.9266 57.0503 42.9805 57.0952C43.0254 57.1401 43.0883 57.1761 43.1421 57.212C43.223 57.2569 43.3128 57.3018 43.3936 57.3467C43.4744 57.3916 43.5642 57.4365 43.654 57.4814C43.7438 57.5263 43.8247 57.5712 43.9145 57.6071C44.0043 57.6521 44.0851 57.688 44.1749 57.7329C44.2019 57.7508 44.2378 57.7598 44.2647 57.7778C44.2917 57.7957 44.3186 57.8047 44.3545 57.8227C44.3815 57.8406 44.4084 57.8496 44.4354 57.8676C44.4623 57.8766 44.4892 57.8945 44.5162 57.9035C45.8723 58.5501 47.2643 59.1339 48.6832 59.6278L48.7641 59.6547C48.9347 59.6817 49.1323 59.6098 49.1233 59.4033C49.1233 59.3494 49.1143 59.2865 49.0874 59.2327C49.0694 59.1788 49.0335 59.1249 48.9976 59.08C48.9616 59.0351 48.9078 58.9902 48.8628 58.9453C48.809 58.9093 48.7551 58.8734 48.6922 58.8555C48.5665 58.8106 48.4497 58.7656 48.324 58.7207C48.1983 58.6758 48.0725 58.6309 47.9558 58.586C47.8301 58.5411 47.7133 58.4962 47.5876 58.4423C47.4619 58.3885 47.3361 58.3436 47.2194 58.2987C47.1835 58.2807 47.1475 58.2717 47.1116 58.2537C47.0757 58.2358 47.0398 58.2268 47.0038 58.2089C46.9679 58.1909 46.932 58.1819 46.8961 58.1639C46.8601 58.146 46.8242 58.137 46.7883 58.119C46.7703 58.1101 46.7524 58.1011 46.7254 58.0921C46.7075 58.0831 46.6895 58.0741 46.6626 58.0652C46.6446 58.0562 46.6266 58.0472 46.5997 58.0382C46.5817 58.0292 46.5638 58.0203 46.5368 58.0113C46.5009 57.9933 46.465 57.9843 46.4291 57.9664C46.3932 57.9484 46.3572 57.9394 46.3213 57.9215C46.2854 57.9035 46.2495 57.8945 46.2135 57.8766C46.1776 57.8586 46.1417 57.8496 46.1058 57.8317C46.0788 57.8227 46.0519 57.8137 46.0339 57.7957C46.007 57.7868 45.98 57.7778 45.9621 57.7598C45.9351 57.7508 45.9082 57.7418 45.8902 57.7239C45.8633 57.7149 45.8364 57.7059 45.8184 57.688C45.8184 57.688 45.8094 57.688 45.8004 57.679C45.8004 57.679 45.7914 57.679 45.7914 57.67C45.7914 57.661 45.7825 57.67 45.7735 57.661C45.7735 57.661 45.7645 57.661 45.7645 57.652C45.558 57.5622 45.3514 57.4724 45.1448 57.3736C44.9383 57.2749 44.7317 57.1851 44.5341 57.0863C44.3276 56.9875 44.121 56.8887 43.9235 56.7899C43.7169 56.6911 43.5193 56.5833 43.3128 56.4756C43.2948 56.4666 43.2858 56.4576 43.2679 56.4576C43.2499 56.4486 43.2409 56.4486 43.223 56.4397C43.205 56.4307 43.196 56.4307 43.1781 56.4307C43.1781 56.4666 43.1601 56.4666 43.1511 56.4666Z" fill="#FEFEFE"/>
<path d="M63.6891 22.9146L63.9675 22.8607C63.9945 22.8427 64.0124 22.8068 64.0304 22.7798C64.0394 22.7439 64.0484 22.708 64.0394 22.6721C64.0394 22.6362 64.0214 22.5913 64.0034 22.5464C63.9855 22.5014 63.9585 22.4565 63.9316 22.4206C63.9226 22.4116 63.9226 22.4027 63.9136 22.3937C63.9047 22.3847 63.8957 22.3757 63.8957 22.3667C63.8867 22.3578 63.8777 22.3488 63.8687 22.3398C63.8598 22.3308 63.8508 22.3218 63.8418 22.3129C63.4736 21.9716 63.0964 21.6393 62.7192 21.316C62.342 20.9927 61.9558 20.6604 61.5607 20.3461C61.1655 20.0318 60.7704 19.7174 60.3663 19.4121C59.9621 19.1067 59.558 18.8014 59.1449 18.514C59.1359 18.505 59.1269 18.505 59.1269 18.4961C59.1179 18.4961 59.109 18.4871 59.109 18.4871C59.1 18.4871 59.091 18.4781 59.091 18.4781C59.082 18.4781 59.073 18.4691 59.073 18.4691C59.0641 18.4601 59.0461 18.4601 59.0371 18.4512C59.0281 18.4422 59.0102 18.4422 59.0012 18.4332C58.9922 18.4242 58.9743 18.4242 58.9653 18.4242C58.9563 18.4242 58.9383 18.4152 58.9294 18.4152C58.8934 18.4063 58.8665 18.4062 58.8306 18.4062C58.8036 18.4062 58.7677 18.4152 58.7408 18.4152C58.7138 18.4242 58.6869 18.4332 58.6689 18.4512C58.6509 18.4691 58.624 18.4871 58.615 18.514C58.4893 18.7116 58.6959 18.9631 58.8485 19.0708C60.4381 20.2024 61.9558 21.4238 63.3928 22.7439L63.6891 22.9146Z" fill="#FEFEFE"/>
<path d="M48.7717 13.6909C48.7897 13.6999 48.8076 13.6999 48.8256 13.7088C48.8435 13.7178 48.8615 13.7178 48.8795 13.7268C48.8974 13.7358 48.9154 13.7358 48.9334 13.7448C48.9513 13.7537 48.9693 13.7537 48.9872 13.7627C49.0232 13.7717 49.0501 13.7897 49.086 13.7986C49.1219 13.8076 49.1489 13.8256 49.1848 13.8346C49.2207 13.8436 49.2477 13.8615 49.2836 13.8705C49.3195 13.8795 49.3465 13.8974 49.3824 13.9064C49.3914 13.9064 49.3914 13.9154 49.4003 13.9154C49.4093 13.9154 49.4093 13.9244 49.4183 13.9244C49.4273 13.9244 49.4273 13.9334 49.4363 13.9334C49.4453 13.9334 49.4453 13.9423 49.4542 13.9423C49.6069 14.0052 49.7596 14.0591 49.9033 14.122C50.0559 14.1848 50.2086 14.2477 50.3523 14.3106C50.496 14.3734 50.6576 14.4363 50.8013 14.4992C50.954 14.562 51.1067 14.6339 51.2504 14.6967C52.1484 15.1008 53.0375 15.5319 53.9087 15.9899L54.0703 16.0618C54.205 16.0887 54.3846 16.0528 54.4116 15.8912C54.4206 15.8462 54.4206 15.8014 54.4116 15.7564C54.4026 15.7115 54.3846 15.6666 54.3577 15.6128C54.3308 15.5678 54.2948 15.523 54.2589 15.478C54.214 15.4331 54.1691 15.3972 54.1152 15.3613C54.1152 15.3613 54.1062 15.3613 54.1062 15.3523C54.1062 15.3523 54.0973 15.3523 54.0973 15.3433C54.0973 15.3433 54.0883 15.3433 54.0883 15.3344C54.0883 15.3344 54.0793 15.3344 54.0793 15.3254C53.9536 15.2625 53.8278 15.1907 53.7021 15.1278C53.5764 15.0649 53.4506 15.0021 53.3249 14.9302C53.1992 14.8674 53.0735 14.8045 52.9477 14.7416C52.822 14.6788 52.6963 14.6159 52.5705 14.553C52.5705 14.553 52.5616 14.553 52.5616 14.544C52.5616 14.544 52.5526 14.5441 52.5526 14.5351C52.5526 14.5351 52.5436 14.5351 52.5436 14.5261C52.5436 14.5261 52.5346 14.5261 52.5346 14.5171C52.5167 14.5081 52.5077 14.4992 52.4897 14.4992C52.4718 14.4902 52.4628 14.4812 52.4448 14.4812C52.4268 14.4722 52.4179 14.4722 52.3999 14.4632C52.3819 14.4542 52.373 14.4453 52.355 14.4453C52.0586 14.3016 51.7623 14.1669 51.4659 14.0322C51.1696 13.8974 50.8732 13.7717 50.5768 13.646C50.2805 13.5202 49.9841 13.3945 49.6877 13.2778C49.3914 13.161 49.095 13.0443 48.7897 12.9365C48.7807 12.9365 48.7717 12.9275 48.7627 12.9275C48.7537 12.9275 48.7448 12.9275 48.7358 12.9185C48.7268 12.9185 48.7178 12.9185 48.7088 12.9096C48.6999 12.9006 48.6909 12.9096 48.6909 12.9006C48.637 12.8916 48.5921 12.8916 48.5562 12.8916C48.5113 12.9006 48.4753 12.9096 48.4484 12.9275C48.4125 12.9455 48.3945 12.9724 48.3766 12.9994C48.3586 13.0263 48.3496 13.0712 48.3496 13.1071C48.3496 13.161 48.3586 13.2059 48.3855 13.2598C48.4035 13.3137 48.4394 13.3586 48.4843 13.4125C48.5202 13.4574 48.5741 13.5023 48.628 13.5382C48.655 13.637 48.7088 13.6729 48.7717 13.6909Z" fill="#FEFEFE"/>
<path d="M71.2697 31.7696C71.3146 31.7606 71.3506 31.7426 71.3775 31.7247C71.4044 31.6977 71.4224 31.6708 71.4404 31.6438C71.4494 31.6079 71.4583 31.572 71.4583 31.5361C71.4583 31.4912 71.4494 31.4552 71.4224 31.4014C71.4224 31.3924 71.4134 31.3834 71.4134 31.3834C71.4134 31.3744 71.4045 31.3654 71.4045 31.3654C71.4045 31.3565 71.3955 31.3565 71.3955 31.3475C71.3955 31.3385 71.3865 31.3295 71.3865 31.3295C71.135 30.9344 70.8746 30.5302 70.6052 30.1351C70.3358 29.7399 70.0573 29.3448 69.7789 28.9586C69.4916 28.5724 69.2042 28.1773 68.8988 27.7911C68.5935 27.4049 68.2881 27.0278 67.9738 26.6506C67.9648 26.6416 67.9648 26.6326 67.9559 26.6236C67.9469 26.6147 67.9379 26.6057 67.9379 26.6057C67.9289 26.5967 67.9199 26.5877 67.911 26.5877C67.902 26.5787 67.893 26.5787 67.884 26.5697C67.8661 26.5518 67.8391 26.5338 67.8122 26.5159C67.7852 26.4979 67.7583 26.4889 67.7403 26.471C67.7134 26.462 67.6864 26.444 67.6595 26.435C67.6326 26.4261 67.6056 26.4171 67.5787 26.4171C67.5068 26.3991 67.426 26.3991 67.3542 26.435C67.1386 26.5338 67.2644 26.8212 67.3721 26.9469C68.5755 28.3839 69.6802 29.8926 70.677 31.4732C70.7668 31.6349 70.9375 31.7516 71.1171 31.7875L71.2697 31.7696Z" fill="#FEFEFE"/>
<path d="M43.5371 12.2C43.591 12.209 43.6539 12.209 43.6988 12.2C43.7527 12.191 43.7886 12.1731 43.8245 12.1461C43.8604 12.1192 43.8874 12.0833 43.9053 12.0473C43.9233 12.0024 43.9233 11.9576 43.9143 11.9037C43.8694 11.6791 43.6808 11.4906 43.4563 11.4367L43.3485 11.4187C43.2946 11.4097 43.2408 11.4007 43.1869 11.3828C43.133 11.3738 43.0791 11.3648 43.0252 11.3469C42.9713 11.3379 42.9175 11.3289 42.8636 11.3199C42.8097 11.3109 42.7558 11.302 42.7019 11.293C42.684 11.293 42.666 11.284 42.657 11.284C42.639 11.284 42.6211 11.275 42.6121 11.275C42.5941 11.275 42.5762 11.266 42.5672 11.266C42.5492 11.266 42.5313 11.2571 42.5223 11.2571C42.5133 11.2571 42.5043 11.257 42.4954 11.2481C42.4864 11.2481 42.4774 11.2481 42.4684 11.2391C42.4594 11.2391 42.4505 11.2391 42.4415 11.2301C42.4325 11.2301 42.4235 11.2301 42.4145 11.2211C42.1272 11.1672 41.8308 11.1223 41.5434 11.0864C41.256 11.0415 40.9686 11.0056 40.6813 10.9786C40.3939 10.9427 40.1065 10.9158 39.8191 10.8978C39.5317 10.8709 39.2533 10.8529 38.9749 10.835C38.9659 10.835 38.957 10.835 38.948 10.835C38.939 10.835 38.93 10.835 38.921 10.835C38.9121 10.835 38.9031 10.835 38.8941 10.835C38.8851 10.835 38.8761 10.835 38.8672 10.835C38.8582 10.835 38.8402 10.835 38.8312 10.835C38.8133 10.835 38.8043 10.835 38.7953 10.835C38.7863 10.835 38.7684 10.835 38.7594 10.835C38.7504 10.835 38.7324 10.835 38.7235 10.835C38.6965 10.835 38.6606 10.835 38.6337 10.835C38.6067 10.835 38.5708 10.835 38.5439 10.835C38.5169 10.835 38.481 10.835 38.454 10.835C38.4271 10.835 38.3912 10.835 38.3642 10.835C38.3642 10.835 38.3642 10.835 38.3553 10.835C38.3553 10.835 38.3553 10.835 38.3463 10.835C38.3463 10.835 38.3463 10.835 38.3373 10.835C38.3373 10.835 38.3373 10.835 38.3283 10.835C38.1128 10.8439 38.0319 11.0415 38.1128 11.2211C38.1846 11.4187 38.3912 11.5714 38.5977 11.6073L38.6786 11.6253C39.0468 11.6342 39.415 11.6522 39.7832 11.6791C40.1514 11.7061 40.5286 11.742 40.9058 11.7869C41.283 11.8318 41.6602 11.8767 42.0463 11.9396C42.4325 11.9935 42.8187 12.0653 43.2048 12.1372C43.2138 12.1372 43.2138 12.1372 43.2228 12.1372C43.2318 12.1372 43.2318 12.1372 43.2408 12.1372C43.2497 12.1372 43.2497 12.1372 43.2587 12.1372C43.2677 12.1372 43.2677 12.1372 43.2767 12.1372C43.3036 12.1461 43.3306 12.1461 43.3575 12.1551C43.3845 12.1641 43.4114 12.1641 43.4383 12.1731C43.4653 12.1821 43.4922 12.1821 43.5192 12.191C43.4832 12.1821 43.5102 12.191 43.5371 12.2Z" fill="#FEFEFE"/>
<path d="M74.6915 40.8311C74.7005 40.885 74.7274 40.9389 74.7634 40.9928C74.7993 41.0466 74.8352 41.1005 74.8891 41.1454C74.934 41.1903 74.9879 41.2352 75.0508 41.2622C75.1046 41.2981 75.1675 41.3161 75.2214 41.325C75.419 41.361 75.6165 41.2712 75.5627 41.0466C75.5537 41.0017 75.5447 40.9658 75.5357 40.9209C75.5267 40.894 75.5267 40.867 75.5177 40.8401C75.5088 40.8131 75.5088 40.7862 75.4998 40.7592C75.4908 40.7323 75.4908 40.7054 75.4818 40.6784C75.4818 40.6605 75.4729 40.6515 75.4729 40.6335C75.4729 40.6156 75.4639 40.6066 75.4639 40.5886C75.4639 40.5707 75.4549 40.5617 75.4549 40.5437C75.4549 40.5258 75.4459 40.5168 75.4459 40.4988C75.4459 40.4898 75.4369 40.4808 75.4369 40.4629C75.4369 40.4539 75.4279 40.4449 75.4279 40.427C75.4279 40.418 75.419 40.409 75.419 40.391C75.419 40.3821 75.41 40.3731 75.41 40.3551C75.401 40.3372 75.401 40.3192 75.392 40.2922C75.383 40.2743 75.383 40.2563 75.3741 40.2294C75.3651 40.2114 75.3651 40.1935 75.3561 40.1665C75.3471 40.1486 75.3471 40.1306 75.3381 40.1037C75.3381 40.0947 75.3381 40.0947 75.3381 40.0857C75.3381 40.0767 75.3381 40.0767 75.3381 40.0677C75.3381 40.0588 75.3381 40.0588 75.3381 40.0498C75.3381 40.0408 75.3381 40.0408 75.3381 40.0318C75.3292 40.0139 75.3292 39.9959 75.3202 39.969C75.3112 39.951 75.3112 39.933 75.3022 39.9061C75.2932 39.8881 75.2932 39.8702 75.2843 39.8432C75.2753 39.8253 75.2753 39.8073 75.2663 39.7804C75.2663 39.7714 75.2663 39.7714 75.2663 39.7624C75.2663 39.7534 75.2663 39.7534 75.2573 39.7444C75.2573 39.7355 75.2573 39.7355 75.2573 39.7265C75.2573 39.7175 75.2573 39.7175 75.2483 39.7085C75.2394 39.6905 75.2394 39.6726 75.2304 39.6546C75.2304 39.6367 75.2214 39.6187 75.2124 39.6007C75.2034 39.5828 75.2034 39.5648 75.1944 39.5469C75.1855 39.5289 75.1855 39.5109 75.1765 39.493C75.1765 39.484 75.1675 39.475 75.1675 39.466C75.1675 39.457 75.1675 39.4481 75.1585 39.4391C75.1585 39.4301 75.1495 39.4211 75.1495 39.4121C75.1495 39.4032 75.1406 39.3942 75.1406 39.3852C75.1406 39.3672 75.1316 39.3583 75.1226 39.3403C75.1226 39.3223 75.1136 39.3044 75.1046 39.2954C75.0957 39.2774 75.0957 39.2595 75.0867 39.2505C75.0777 39.2325 75.0777 39.2236 75.0687 39.2056C75.0687 39.1966 75.0597 39.1876 75.0597 39.1697C75.0597 39.1607 75.0508 39.1517 75.0508 39.1337C75.0508 39.1248 75.0418 39.1158 75.0418 39.0978C75.0418 39.0888 75.0328 39.0799 75.0328 39.0619C75.0328 39.0529 75.0238 39.035 75.0238 39.026C75.0238 39.017 75.0148 38.999 75.0148 38.9901C75.0148 38.9811 75.0059 38.9631 75.0059 38.9541C75.0059 38.9452 74.9969 38.9272 74.9969 38.9182C74.9969 38.9002 74.9879 38.8823 74.9789 38.8733C74.9699 38.8553 74.9699 38.8374 74.9609 38.8284C74.952 38.8104 74.952 38.7925 74.943 38.7835C74.934 38.7655 74.934 38.7476 74.925 38.7386C74.925 38.7296 74.925 38.7206 74.916 38.7206C74.916 38.7116 74.916 38.7027 74.9071 38.7027C74.9071 38.6937 74.9071 38.6847 74.8981 38.6847C74.8981 38.6757 74.8981 38.6667 74.8891 38.6667C74.8173 38.4512 74.7454 38.2357 74.6736 38.0291C74.6017 37.8136 74.5209 37.598 74.4401 37.3915C74.3592 37.176 74.2784 36.9694 74.1886 36.7539C74.1078 36.5383 74.018 36.3318 73.9282 36.1162C73.9282 36.1072 73.9192 36.1072 73.9192 36.0983C73.9192 36.0893 73.9102 36.0893 73.9102 36.0803C73.9102 36.0713 73.9012 36.0713 73.9012 36.0623C73.9012 36.0534 73.8922 36.0534 73.8922 36.0444C73.8653 35.9995 73.8384 35.9636 73.8024 35.9276C73.7665 35.8917 73.7306 35.8558 73.6947 35.8289C73.6587 35.8019 73.6138 35.775 73.5779 35.757C73.533 35.739 73.4971 35.7211 73.4522 35.7121C73.4163 35.7031 73.3893 35.7031 73.3534 35.7031C73.2995 35.7031 73.2546 35.7121 73.2097 35.7301C73.1738 35.748 73.1379 35.775 73.1199 35.8109C73.1019 35.8468 73.084 35.8827 73.084 35.9366C73.084 35.9815 73.093 36.0354 73.1199 36.0893C73.2726 36.4485 73.4252 36.8167 73.56 37.176C73.6947 37.5352 73.8294 37.9034 73.9551 38.2626C74.0808 38.6218 74.1886 38.9901 74.2964 39.3493C74.4041 39.7085 74.5029 40.0767 74.5927 40.4359C74.5927 40.4359 74.5927 40.436 74.5927 40.4449C74.5927 40.4449 74.5927 40.4449 74.5927 40.4539C74.5927 40.4539 74.5927 40.4539 74.5927 40.4629C74.5927 40.4629 74.5927 40.4629 74.5927 40.4719C74.6017 40.4988 74.6017 40.5258 74.6107 40.5437C74.6197 40.5707 74.6197 40.5976 74.6287 40.6156C74.6376 40.6425 74.6377 40.6694 74.6466 40.6964C74.6826 40.7862 74.6825 40.8042 74.6915 40.8311Z" fill="#FEFEFE"/>
<path d="M33.9899 11.9219C34.0438 11.913 34.0797 11.895 34.1156 11.8681C34.1516 11.8411 34.1695 11.8052 34.1785 11.7603C34.1875 11.7154 34.1965 11.6705 34.1785 11.6256C34.1695 11.5717 34.1426 11.5268 34.1156 11.4729C34.0887 11.437 34.0618 11.3921 34.0258 11.3562C33.9899 11.3202 33.954 11.2933 33.9181 11.2664C33.8821 11.2394 33.8372 11.2125 33.7923 11.1945C33.7474 11.1765 33.7115 11.1586 33.6666 11.1496C33.6576 11.1496 33.6397 11.1496 33.6307 11.1406C33.6217 11.1406 33.6037 11.1406 33.5948 11.1406C33.5858 11.1406 33.5678 11.1406 33.5588 11.1406C33.5499 11.1406 33.5319 11.1406 33.5229 11.1406C32.068 11.3921 30.6311 11.8142 29.2751 12.4069C29.2661 12.4069 29.2661 12.4159 29.2571 12.4159C29.2481 12.4159 29.2481 12.4249 29.2391 12.4249C29.2301 12.4249 29.2301 12.4338 29.2212 12.4338L29.2122 12.4428C29.0595 12.5775 29.1493 12.8021 29.2571 12.9278L29.6522 13.1703L29.8768 13.1613C30.1911 13.0176 30.5144 12.8919 30.8467 12.7661C31.179 12.6404 31.5112 12.5326 31.8615 12.4249C32.2028 12.3171 32.553 12.2273 32.9122 12.1375C33.2715 12.0656 33.6307 11.9938 33.9899 11.9219C34.0438 11.913 33.6307 11.9938 33.9899 11.9219Z" fill="#FEFEFE"/>
<path d="M75.3111 45.4469C75.3201 45.8151 75.3111 46.1743 75.2931 46.5335C75.2752 46.8928 75.2572 47.252 75.2213 47.6022C75.1854 47.9525 75.1405 48.3027 75.0866 48.653C75.0327 48.9942 74.9698 49.3355 74.889 49.6768C74.8351 49.9103 75.0596 50.1438 75.2392 50.2336L75.4009 50.2875C75.4368 50.2964 75.4727 50.2964 75.5087 50.2964C75.5446 50.2964 75.5715 50.2875 75.5985 50.2785C75.6254 50.2695 75.6524 50.2515 75.6703 50.2425C75.6883 50.2246 75.7063 50.2066 75.7242 50.1797C75.7332 50.1617 75.7422 50.1438 75.7422 50.1258C75.805 49.8564 75.8589 49.587 75.9128 49.3086C75.9577 49.0302 76.0026 48.7518 76.0385 48.4733C76.0745 48.1949 76.1014 47.9076 76.1194 47.6202C76.1373 47.3328 76.1553 47.0454 76.1643 46.7491C76.1643 46.7401 76.1643 46.7401 76.1643 46.7311C76.1643 46.7221 76.1643 46.7221 76.1643 46.7131C76.1643 46.7042 76.1643 46.7042 76.1643 46.6952C76.1643 46.6862 76.1643 46.6862 76.1643 46.6772C76.1643 46.6682 76.1643 46.6593 76.1643 46.6413C76.1643 46.6233 76.1643 46.6233 76.1643 46.6054C76.1643 46.5964 76.1643 46.5874 76.1643 46.5694C76.1643 46.5605 76.1643 46.5515 76.1643 46.5335C76.1643 46.4707 76.1643 46.3988 76.1643 46.336C76.1643 46.2731 76.1643 46.2012 76.1643 46.1384C76.1643 46.0755 76.1643 46.0037 76.1643 45.9408C76.1643 45.8779 76.1643 45.8061 76.1643 45.7432C76.1553 45.5007 75.9308 45.2852 75.7152 45.2134C75.7062 45.2134 75.7063 45.2044 75.6973 45.2044C75.6883 45.2044 75.6883 45.2044 75.6793 45.1954C75.6703 45.1954 75.6703 45.1954 75.6613 45.1864C75.6524 45.1864 75.6524 45.1864 75.6434 45.1864C75.5985 45.1774 75.5536 45.1774 75.5087 45.1864C75.4638 45.1954 75.4279 45.2044 75.4009 45.2313C75.374 45.2493 75.347 45.2852 75.3291 45.3122C75.3111 45.3571 75.3021 45.402 75.3111 45.4469C75.3111 45.8061 75.3021 45.402 75.3111 45.4469Z" fill="#FEFEFE"/>
<path d="M23.8784 18.1991C24.058 17.9297 24.2466 17.6603 24.4442 17.3998C24.6418 17.1394 24.8483 16.8879 25.0639 16.6454C25.2794 16.403 25.5039 16.1605 25.7464 15.936C25.9799 15.7114 26.2224 15.4869 26.4828 15.2804C26.6714 15.1277 26.5097 14.8493 26.366 14.7325C26.3391 14.7056 26.3122 14.6876 26.2852 14.6697C26.2583 14.6517 26.2313 14.6338 26.1954 14.6158C26.1685 14.5978 26.1415 14.5889 26.1056 14.5799C26.0787 14.5709 26.0517 14.5619 26.0158 14.5529C25.9978 14.5529 25.9799 14.5439 25.9619 14.5439C25.944 14.5439 25.926 14.5439 25.908 14.5439C25.8901 14.5439 25.8721 14.544 25.8541 14.5529C25.8362 14.5529 25.8182 14.5619 25.8093 14.5619C25.7823 14.5709 25.7643 14.5799 25.7374 14.5978C25.477 14.8134 25.2255 15.0379 24.974 15.2804C24.7316 15.5139 24.4981 15.7563 24.2736 16.0168C24.049 16.2682 23.8335 16.5287 23.6269 16.7981C23.4204 17.0675 23.2318 17.3369 23.0432 17.6153C23.0432 17.6243 23.0342 17.6333 23.0342 17.6333C23.0342 17.6423 23.0252 17.6513 23.0252 17.6513C23.0252 17.6603 23.0163 17.6692 23.0163 17.6782C23.0163 17.6872 23.0163 17.6962 23.0073 17.7052C22.9713 17.8937 23.124 18.0824 23.2677 18.1901L23.5371 18.3159L23.8784 18.1991Z" fill="#FEFEFE"/>
<path d="M73.4518 53.3863C72.8231 54.5358 71.9969 55.5776 71.0539 56.4846C70.9013 56.6553 71.0539 56.9247 71.1886 57.0504L71.5299 57.2211L71.7814 57.1672L71.8083 57.1582C72.0508 56.9247 72.2843 56.6822 72.5088 56.4307C72.7333 56.1793 72.9489 55.9188 73.1554 55.6584C73.362 55.389 73.5595 55.1196 73.7481 54.8412C73.9367 54.5628 74.1074 54.2754 74.269 53.979C74.269 53.97 74.278 53.97 74.278 53.9611C74.278 53.9521 74.287 53.9521 74.287 53.9431C74.287 53.9341 74.287 53.9251 74.296 53.9251C74.296 53.9162 74.296 53.9072 74.3049 53.8982C74.3319 53.7006 74.1792 53.512 74.0355 53.4043C74.0176 53.3863 73.9906 53.3773 73.9727 53.3594C73.9547 53.3504 73.9278 53.3324 73.9098 53.3234C73.8918 53.3145 73.8649 53.3055 73.8469 53.2965C73.829 53.2875 73.802 53.2875 73.7841 53.2785C73.6583 53.2606 73.5236 53.2785 73.4518 53.3863C73.2901 53.6737 73.4697 53.3594 73.4518 53.3863Z" fill="#FEFEFE"/>
<path d="M21.2099 26.2466C21.2548 26.2555 21.2997 26.2555 21.3357 26.2555C21.3716 26.2555 21.4075 26.2376 21.4434 26.2286C21.4794 26.2106 21.5063 26.1927 21.5243 26.1657C21.5422 26.1388 21.5602 26.1118 21.5692 26.0669C21.5692 26.049 21.5781 26.04 21.5781 26.022C21.5871 25.7975 21.5961 25.573 21.6051 25.3575C21.623 25.133 21.641 24.9174 21.659 24.7019C21.6769 24.4863 21.7039 24.2708 21.7308 24.0553C21.7578 23.8397 21.7937 23.6332 21.8296 23.4266C21.8565 23.2919 21.8835 23.1482 21.9104 23.0135C21.9374 22.8788 21.9643 22.7441 22.0002 22.6094C22.0272 22.4747 22.0631 22.34 22.099 22.2142C22.1349 22.0795 22.1709 21.9538 22.2068 21.8191C22.2786 21.5946 22.0631 21.3611 21.8835 21.2623C21.8655 21.2533 21.8476 21.2443 21.8386 21.2443C21.8296 21.2443 21.8116 21.2353 21.7937 21.2263C21.7757 21.2174 21.7667 21.2174 21.7488 21.2084C21.7308 21.2084 21.7218 21.1994 21.7039 21.1994C21.668 21.1904 21.632 21.1904 21.5961 21.1904C21.5602 21.1904 21.5332 21.1994 21.5063 21.2084C21.4794 21.2174 21.4524 21.2264 21.4255 21.2443C21.3985 21.2623 21.3806 21.2802 21.3716 21.2982C21.3716 21.2982 21.3626 21.3072 21.3626 21.3162C21.3626 21.3162 21.3536 21.3251 21.3536 21.3341C21.3536 21.3431 21.3446 21.3431 21.3446 21.3521C21.3446 21.3611 21.3446 21.3611 21.3357 21.37C21.2369 21.7023 21.1471 22.0526 21.0662 22.4028C20.9854 22.7531 20.9226 23.1123 20.8687 23.4715C20.8148 23.8307 20.7699 24.199 20.734 24.5761C20.698 24.9533 20.6801 25.3216 20.6621 25.7077C20.6621 25.7167 20.6621 25.7167 20.6621 25.7257C20.6621 25.7347 20.6621 25.7436 20.6621 25.7436C20.6621 25.7526 20.6621 25.7616 20.6621 25.7616C20.6621 25.7706 20.6621 25.7796 20.6621 25.7796C20.707 25.9951 20.9046 26.1657 21.1022 26.2376L21.2099 26.2466Z" fill="#FEFEFE"/>
<path d="M21.0859 30.431C21.0859 30.44 21.0859 30.44 21.0859 30.449C21.0949 30.5119 21.1129 30.5837 21.1219 30.6466C21.1308 30.6735 21.1308 30.7005 21.1398 30.7274C21.1488 30.7544 21.1488 30.7813 21.1578 30.8082C21.1668 30.8352 21.1668 30.8621 21.1757 30.8891V30.898V30.907V30.916C21.1757 30.925 21.1757 30.925 21.1757 30.934C21.1757 30.9519 21.1847 30.9789 21.1937 30.9968C21.2027 31.0148 21.2027 31.0417 21.2117 31.0597C21.2206 31.0777 21.2206 31.1046 21.2296 31.1226C21.2386 31.1405 21.2386 31.1675 21.2476 31.1854C21.2476 31.2034 21.2566 31.2124 21.2566 31.2303C21.2566 31.2393 21.2655 31.2573 21.2655 31.2663C21.2655 31.2752 21.2745 31.2932 21.2745 31.3022C21.2745 31.3112 21.2835 31.3291 21.2835 31.3381C21.2835 31.3471 21.2925 31.365 21.2925 31.374C21.2925 31.383 21.3015 31.401 21.3015 31.4099C21.3015 31.4189 21.3105 31.4369 21.3105 31.4459C21.3105 31.4548 21.3194 31.4728 21.3194 31.4818C21.3194 31.4997 21.3284 31.5177 21.3284 31.5267C21.3284 31.5447 21.3374 31.5626 21.3374 31.5716C21.3374 31.5896 21.3464 31.6075 21.3464 31.6165C21.3464 31.6345 21.3554 31.6524 21.3554 31.6614C21.3554 31.6704 21.3643 31.6794 21.3643 31.6884C21.3643 31.6973 21.3733 31.7063 21.3733 31.7153C21.3733 31.7243 21.3823 31.7333 21.3823 31.7422C21.3823 31.7512 21.3823 31.7602 21.3913 31.7692C21.3913 31.7871 21.4003 31.8051 21.4092 31.8231C21.4182 31.841 21.4182 31.859 21.4272 31.8769C21.4362 31.8949 21.4362 31.9129 21.4452 31.9308C21.4541 31.9488 21.4541 31.9667 21.4631 31.9847C21.4631 31.9937 21.4631 32.0027 21.4721 32.0117C21.4721 32.0206 21.4721 32.0296 21.4811 32.0386C21.4811 32.0476 21.4811 32.0566 21.4901 32.0655C21.4901 32.0745 21.4901 32.0835 21.499 32.0925C21.499 32.1104 21.508 32.1284 21.517 32.1464C21.517 32.1643 21.526 32.1823 21.535 32.2002C21.535 32.2182 21.544 32.2362 21.5529 32.2541C21.5619 32.2721 21.5619 32.29 21.5709 32.308C21.5709 32.317 21.5799 32.326 21.5799 32.335C21.5799 32.3439 21.5889 32.3529 21.5889 32.3619C21.5889 32.3709 21.5978 32.3799 21.5978 32.3888C21.5978 32.3978 21.6068 32.4068 21.6068 32.4158C21.6158 32.4337 21.6158 32.4517 21.6248 32.4697C21.6338 32.4876 21.6338 32.5056 21.6427 32.5236C21.6517 32.5415 21.6517 32.5595 21.6607 32.5774C21.6697 32.5954 21.6697 32.6134 21.6787 32.6313C21.6787 32.6403 21.6876 32.6493 21.6876 32.6583C21.6876 32.6672 21.6966 32.6762 21.6966 32.6852C21.6966 32.6942 21.7056 32.7032 21.7056 32.7211C21.7056 32.7301 21.7146 32.7391 21.7146 32.7481C21.7146 32.766 21.7236 32.775 21.7236 32.793C21.7325 32.8109 21.7326 32.8199 21.7415 32.8379C21.7505 32.8558 21.7505 32.8648 21.7595 32.8828C21.7595 32.9007 21.7685 32.9097 21.7774 32.9277C21.7774 32.9367 21.7864 32.9546 21.7864 32.9636C21.7864 32.9726 21.7954 32.9905 21.7954 32.9995C21.7954 33.0085 21.8044 33.0265 21.8044 33.0355C21.8044 33.0444 21.8134 33.0624 21.8134 33.0714C21.8134 33.0893 21.8224 33.0983 21.8313 33.1163C21.8313 33.1342 21.8403 33.1432 21.8493 33.1612C21.8493 33.1791 21.8583 33.1881 21.8673 33.2061C21.8673 33.224 21.8762 33.233 21.8852 33.251C21.8852 33.26 21.8942 33.2779 21.8942 33.2869C21.8942 33.2959 21.9032 33.3139 21.9032 33.3228C21.9032 33.3318 21.9122 33.3498 21.9122 33.3588C21.9122 33.3677 21.9211 33.3857 21.9211 33.3947C21.9211 33.4037 21.9301 33.4126 21.9301 33.4306C21.9301 33.4396 21.9391 33.4486 21.9391 33.4665C21.9391 33.4755 21.9481 33.4845 21.9481 33.5024C21.9481 33.5114 21.9571 33.5204 21.9571 33.5384C21.966 33.5563 21.966 33.5743 21.975 33.5923C21.984 33.6102 21.984 33.6282 21.993 33.6461C22.002 33.6641 22.002 33.6821 22.0109 33.7C22.0199 33.718 22.0199 33.7359 22.0289 33.7449C22.0289 33.7539 22.0379 33.7629 22.0379 33.7719C22.0379 33.7808 22.0469 33.7898 22.0469 33.7988C22.0469 33.8078 22.0559 33.8168 22.0559 33.8257C22.0559 33.8347 22.0648 33.8437 22.0648 33.8527C22.0738 33.8707 22.0828 33.8886 22.0828 33.9156C22.0918 33.9335 22.1008 33.9515 22.1008 33.9784C22.1097 33.9964 22.1187 34.0143 22.1187 34.0413C22.1277 34.0593 22.1367 34.0772 22.1367 34.1041C22.1367 34.1041 22.1367 34.1131 22.1457 34.1221C22.1457 34.1221 22.1457 34.1311 22.1546 34.1311C22.1546 34.1311 22.1546 34.1401 22.1636 34.1491V34.158C22.1726 34.185 22.1816 34.2029 22.1906 34.2299C22.1995 34.2568 22.2085 34.2748 22.2175 34.3017C22.2265 34.3287 22.2355 34.3466 22.2444 34.3736C22.2534 34.4005 22.2624 34.4185 22.2714 34.4454C22.2714 34.4454 22.2714 34.4454 22.2714 34.4544C22.2714 34.4544 22.2714 34.4544 22.2714 34.4634C22.2714 34.4634 22.2714 34.4634 22.2714 34.4724C22.4061 34.8406 22.5408 35.2088 22.6935 35.577C22.6935 35.577 22.6935 35.577 22.6935 35.586C22.6935 35.586 22.6935 35.586 22.6935 35.5949C22.6935 35.5949 22.6935 35.595 22.6935 35.6039C22.6935 35.6039 22.6935 35.6039 22.6935 35.6129C22.7743 35.8015 22.9809 35.9542 23.1784 35.9901L23.2593 36.0081C23.3221 36.0081 23.376 35.9991 23.4209 35.9811C23.4658 35.9632 23.4928 35.9272 23.5197 35.8913C23.5377 35.8554 23.5556 35.8105 23.5556 35.7566C23.5556 35.7027 23.5466 35.6488 23.5197 35.5949V35.586V35.577V35.568V35.559C23.376 35.2088 23.2413 34.8585 23.1156 34.5083C22.9898 34.158 22.8731 33.8078 22.7563 33.4576C22.6486 33.1073 22.5408 32.757 22.451 32.4068C22.3522 32.0565 22.2714 31.7063 22.1906 31.365C22.1816 31.3381 22.1816 31.3112 22.1726 31.2932C22.1636 31.2663 22.1636 31.2483 22.1546 31.2214C22.1457 31.1944 22.1457 31.1764 22.1367 31.1495C22.1277 31.1226 22.1277 31.1046 22.1187 31.0777C22.1008 30.9789 22.0738 30.8711 22.0559 30.7723C22.0469 30.6825 22.011 30.5747 21.966 30.4939C21.9301 30.44 21.8942 30.3951 21.8493 30.3502C21.8044 30.3053 21.7505 30.2694 21.6966 30.2425C21.6427 30.2155 21.5799 30.1886 21.517 30.1796C21.4541 30.1706 21.4003 30.1706 21.3464 30.1796C21.2925 30.1886 21.2566 30.2065 21.2206 30.2335C21.1847 30.2604 21.1668 30.2963 21.1488 30.3323C21.0859 30.3323 21.0859 30.3772 21.0859 30.431Z" fill="#FEFEFE"/>
<path d="M54.027 60.2738C53.9641 60.2648 53.9102 60.2648 53.8653 60.2738C53.8115 60.2828 53.7755 60.3097 53.7396 60.3367C53.7037 60.3636 53.6767 60.4085 53.6678 60.4534C53.6498 60.4983 53.6498 60.5522 53.6678 60.6061C53.7217 60.8396 53.9462 61.0551 54.1797 61.1L54.2156 61.109C54.5209 61.1629 54.8263 61.2168 55.1316 61.2617C55.419 61.3066 55.6974 61.3425 55.9848 61.3784C56.2632 61.4144 56.5506 61.4413 56.829 61.4682C57.1074 61.4952 57.3858 61.5132 57.6642 61.5311H57.6732H57.6821H57.6911H57.7001C57.7181 61.5311 57.745 61.5311 57.763 61.5311C57.7809 61.5311 57.8079 61.5311 57.8258 61.5311C57.8438 61.5311 57.8707 61.5311 57.8887 61.5311C57.9067 61.5311 57.9336 61.5311 57.9516 61.5311C57.9605 61.5311 57.9785 61.5311 57.9875 61.5311C57.9965 61.5311 58.0144 61.5311 58.0234 61.5311C58.0324 61.5311 58.0503 61.5311 58.0593 61.5311C58.0683 61.5311 58.0863 61.5311 58.0953 61.5311C58.1042 61.5311 58.1222 61.5311 58.1312 61.5311C58.1402 61.5311 58.1581 61.5311 58.1671 61.5311C58.1761 61.5311 58.1851 61.5311 58.203 61.5311C58.212 61.5311 58.23 61.5311 58.2389 61.5311C58.2569 61.5311 58.2839 61.5311 58.3018 61.5311C58.3198 61.5311 58.3467 61.5311 58.3647 61.5311C58.3826 61.5311 58.4096 61.5311 58.4275 61.5311C58.4455 61.5311 58.4724 61.5311 58.4904 61.5311C58.5712 61.5311 58.6521 61.5311 58.7329 61.5401C58.8137 61.5401 58.8945 61.5401 58.9754 61.5401C59.0562 61.5401 59.137 61.5401 59.2089 61.5401C59.2897 61.5401 59.3615 61.5401 59.4424 61.5401C59.4962 61.5401 59.5501 61.5311 59.5861 61.5042C59.622 61.4862 59.6579 61.4503 59.6759 61.4144C59.6938 61.3784 59.7028 61.3335 59.7028 61.2797C59.7028 61.2258 59.6848 61.1719 59.6669 61.118C59.6489 61.0641 59.613 61.0192 59.5861 60.9743C59.5501 60.9294 59.5142 60.8845 59.4693 60.8486C59.4244 60.8127 59.3795 60.7767 59.3256 60.7588C59.2717 60.7318 59.2268 60.7139 59.1729 60.7049H59.164H59.155H59.146H59.137H59.128H59.1191H59.1101H59.1011C58.7239 60.7049 58.3377 60.6959 57.9516 60.6869C57.5654 60.669 57.1702 60.642 56.7751 60.6151C56.3799 60.5792 55.9848 60.5432 55.5807 60.4894C55.1765 60.4355 54.7724 60.3816 54.3683 60.3097C54.3413 60.3097 54.3144 60.3008 54.2874 60.2918C54.2605 60.2918 54.2336 60.2828 54.2066 60.2738C54.1797 60.2738 54.1527 60.2648 54.1258 60.2559C54.0809 60.2828 54.0539 60.2828 54.027 60.2738Z" fill="#FEFEFE"/>
<path d="M27.094 42.2405C27.1299 42.2854 27.1568 42.3303 27.1838 42.3752C27.2107 42.4201 27.2466 42.456 27.2736 42.5009C27.3005 42.5369 27.3275 42.5818 27.3544 42.6177C27.3813 42.6536 27.4083 42.6985 27.4352 42.7344C28.5578 44.3061 29.8061 45.8328 31.1712 47.2787C32.5363 48.7246 34.0091 50.0986 35.5717 51.3739C37.1344 52.6491 38.7778 53.8256 40.4842 54.8943C42.1905 55.954 43.9597 56.897 45.7738 57.6963C45.8097 57.7142 45.8457 57.7322 45.8816 57.7412C45.9175 57.7591 45.9444 57.7681 45.9714 57.7771C45.9983 57.7861 46.0253 57.8041 46.0522 57.813C46.0792 57.822 46.1061 57.831 46.1241 57.8489C46.16 57.8669 46.1959 57.8759 46.2318 57.8939C46.2677 57.9118 46.3037 57.9208 46.3396 57.9388C46.3755 57.9567 46.4114 57.9657 46.4474 57.9837C46.4833 58.0016 46.5192 58.0106 46.5551 58.0286C46.5731 58.0375 46.5911 58.0465 46.618 58.0555C46.636 58.0645 46.6539 58.0735 46.6809 58.0825C46.6988 58.0914 46.7168 58.1004 46.7437 58.1094C46.7617 58.1184 46.7796 58.1274 46.8066 58.1363C46.8425 58.1543 46.8784 58.1633 46.9144 58.1812C46.9503 58.1992 46.9862 58.2082 47.0221 58.2261C47.058 58.2441 47.094 58.2531 47.1299 58.271C47.1658 58.28 47.2017 58.298 47.2377 58.3159C47.7945 58.5405 48.3603 58.747 48.926 58.9446C49.4918 59.1422 50.0576 59.3218 50.6324 59.4834C51.1982 59.6451 51.7729 59.7978 52.3477 59.9325C52.9224 60.0672 53.4882 60.1839 54.063 60.2917C54.0899 60.2917 54.1169 60.3007 54.1438 60.3097C54.1708 60.3097 54.1977 60.3186 54.2246 60.3276C54.2516 60.3366 54.2785 60.3366 54.3055 60.3456C54.3324 60.3546 54.3594 60.3546 54.3863 60.3635C54.7904 60.4354 55.1946 60.4893 55.5987 60.5432C56.0028 60.597 56.398 60.633 56.7931 60.6689C57.1883 60.7048 57.5834 60.7318 57.9696 60.7407C58.3558 60.7587 58.7419 60.7677 59.1191 60.7587C62.0379 60.7407 64.6602 60.2109 66.8874 59.232C69.1057 58.2621 70.9467 56.8521 72.3387 55.0829C73.7217 53.3227 74.6557 51.2032 75.0778 48.8054C75.4909 46.4165 75.4011 43.7403 74.7186 40.8575C74.7096 40.8305 74.7096 40.8036 74.7006 40.7856C74.6917 40.7587 74.6917 40.7317 74.6827 40.7048C74.6737 40.6779 74.6737 40.6509 74.6647 40.6329C74.6557 40.606 74.6557 40.5791 74.6468 40.5611C73.9822 37.9028 72.8865 35.2715 71.4317 32.7389C69.9858 30.2153 68.1896 27.7816 66.1241 25.5364C64.0675 23.2912 61.7415 21.2077 59.2449 19.3846C56.7392 17.5615 54.054 15.9809 51.279 14.7416C51.1263 14.6697 50.9736 14.6069 50.8299 14.544C50.6773 14.4812 50.5246 14.4183 50.3809 14.3554C50.2372 14.2926 50.0756 14.2297 49.9319 14.1668C49.7792 14.104 49.6265 14.0411 49.4828 13.9872C49.429 13.9693 49.384 13.9513 49.3391 13.9333C49.2942 13.9154 49.2583 13.8974 49.2224 13.8884C49.1865 13.8705 49.1506 13.8615 49.1146 13.8525C49.0787 13.8435 49.0518 13.8256 49.0158 13.8166C48.5668 13.6459 48.1178 13.4933 47.6687 13.3406C47.2197 13.1879 46.7617 13.0532 46.3126 12.9185C45.8546 12.7838 45.4056 12.6671 44.9476 12.5503C44.4896 12.4336 44.0316 12.3348 43.5735 12.245C43.5466 12.236 43.5196 12.236 43.4927 12.227C43.4658 12.218 43.4388 12.218 43.4119 12.209C43.3849 12.2001 43.358 12.2001 43.3311 12.1911C43.3041 12.1821 43.2772 12.1821 43.2502 12.1731C40.4123 11.6343 37.754 11.5175 35.3562 11.7869C32.9494 12.0564 30.785 12.712 28.926 13.7088C27.058 14.7057 25.4954 16.0528 24.3099 17.6873C23.1155 19.3307 22.2803 21.2706 21.8851 23.4619C21.8492 23.6684 21.8133 23.8839 21.7864 24.0905C21.7594 24.306 21.7325 24.5216 21.7145 24.7371C21.6966 24.9527 21.6786 25.1682 21.6606 25.3927C21.6427 25.6082 21.6337 25.8328 21.6337 26.0573C21.6247 26.4345 21.6247 26.8206 21.6337 27.2068C21.6427 27.593 21.6696 27.9792 21.7055 28.3743C21.7415 28.7695 21.7864 29.1646 21.8492 29.5597C21.9121 29.9639 21.975 30.368 22.0648 30.7721C22.0737 30.7991 22.0737 30.826 22.0827 30.853C22.0917 30.8799 22.0917 30.9069 22.1007 30.9248C22.1097 30.9518 22.1097 30.9787 22.1186 30.9967C22.1276 31.0236 22.1276 31.0505 22.1366 31.0775C22.1456 31.1044 22.1456 31.1224 22.1546 31.1493C22.1636 31.1763 22.1635 31.1942 22.1725 31.2212C22.1815 31.2481 22.1815 31.2661 22.1905 31.293C22.1995 31.32 22.1995 31.3379 22.2085 31.3649C22.2893 31.7151 22.3791 32.0654 22.4689 32.4156C22.5677 32.7659 22.6665 33.1161 22.7742 33.4664C22.882 33.8166 23.0077 34.1669 23.1335 34.5171C23.2592 34.8673 23.3939 35.2176 23.5376 35.5678C23.6993 35.9809 23.8789 36.3851 24.0675 36.7982C24.2561 37.2113 24.4446 37.6154 24.6512 38.0196C24.8578 38.4237 25.0733 38.8278 25.2888 39.232C25.5134 39.6361 25.7468 40.0312 25.9893 40.4264C26.0881 40.5881 26.1869 40.7497 26.2857 40.9114C26.3845 41.064 26.4833 41.2257 26.5821 41.3783C26.6808 41.531 26.7796 41.6837 26.8784 41.8274C26.8964 41.9441 26.9952 42.0968 27.094 42.2405C27.1299 42.2854 26.9952 42.0968 27.094 42.2405Z" fill="#ED8000"/>
<path d="M40.6895 55.8379C41.1654 56.1253 41.6504 56.4037 42.1353 56.6731L40.6895 55.8379Z" fill="#ED8000"/>
<path d="M33.1096 49.3625C33.0827 49.3535 33.0557 49.3535 33.0288 49.3535C33.0018 49.3535 32.9749 49.3535 32.948 49.3625C32.921 49.3715 32.9031 49.3715 32.8761 49.3894C32.8581 49.3984 32.8312 49.4164 32.8132 49.4254C32.7863 49.4523 32.7594 49.4882 32.7504 49.5242C32.7414 49.5601 32.7324 49.605 32.7324 49.6499C32.7324 49.6948 32.7504 49.7397 32.7683 49.7846C32.7863 49.8295 32.8132 49.8744 32.8492 49.9193C32.8581 49.9283 32.8582 49.9373 32.8671 49.9462C32.8761 49.9552 32.8851 49.9642 32.8851 49.9732C32.8941 49.9822 32.9031 49.9911 32.9031 50.0001C32.912 50.0091 32.921 50.0181 32.93 50.0271C34.4747 51.455 36.1092 52.7662 37.8155 53.9875L37.8694 54.0055L38.0849 54.0863L38.4172 53.9786C38.4352 53.9337 38.4531 53.8888 38.4531 53.8349C38.4531 53.781 38.4441 53.7271 38.4172 53.6732C38.3992 53.6193 38.3633 53.5655 38.3184 53.5116C38.2735 53.4577 38.2286 53.4128 38.1657 53.3679C37.7526 53.0715 37.3395 52.7752 36.9354 52.4698C36.5313 52.1645 36.1271 51.8501 35.741 51.5268C35.3458 51.2035 34.9596 50.8802 34.5735 50.548C34.1873 50.2157 33.8101 49.8744 33.4329 49.5331C33.406 49.5062 33.379 49.4882 33.3521 49.4703C33.3251 49.4523 33.2982 49.4343 33.2713 49.4164C33.2443 49.3984 33.2174 49.3894 33.1815 49.3805C33.1635 49.3715 33.1366 49.3625 33.1096 49.3625Z" fill="#FEFEFE"/>
<path d="M48.6819 12.9549C48.6908 12.9549 48.6998 12.9548 48.6998 12.9638C48.6998 12.9728 48.7178 12.9638 48.7268 12.9728C48.7357 12.9728 48.7447 12.9728 48.7537 12.9818C48.7627 12.9818 48.7717 12.9908 48.7806 12.9908C49.993 13.4308 51.1875 13.9427 52.346 14.4995C49.5171 13.1434 46.5355 12.0837 43.4551 11.4551C43.5179 11.4641 43.5718 11.491 43.6257 11.5179C43.6796 11.5449 43.7245 11.5808 43.7604 11.6257C43.7963 11.6706 43.8323 11.7155 43.8592 11.7604C43.8862 11.8053 43.9041 11.8592 43.9131 11.9131C43.967 12.1466 43.7245 12.2454 43.5359 12.2095C45.3859 12.5866 47.209 13.1165 48.9782 13.7811C48.9602 13.7721 48.9423 13.7721 48.9243 13.7631C48.9064 13.7541 48.8884 13.7541 48.8704 13.7451C48.8525 13.7362 48.8345 13.7362 48.8166 13.7272C48.7986 13.7182 48.7806 13.7182 48.7627 13.7092C48.6998 13.6913 48.6459 13.6553 48.592 13.6194C48.5382 13.5835 48.4933 13.5386 48.4484 13.4937C48.4124 13.4488 48.3765 13.3949 48.3496 13.341C48.3316 13.2871 48.3136 13.2333 48.3136 13.1883C48.3136 13.1434 48.3226 13.1075 48.3406 13.0806C48.3585 13.0536 48.3855 13.0267 48.4124 13.0087C48.4484 12.9908 48.4843 12.9818 48.5202 12.9728C48.592 12.9459 48.6369 12.9459 48.6819 12.9549Z" fill="#ED8000"/>
<path d="M73.4698 35.775C73.5147 35.784 73.5506 35.8019 73.5955 35.8199C73.6404 35.8379 73.6764 35.8648 73.7123 35.8917C73.7482 35.9187 73.7841 35.9546 73.82 35.9905C73.856 36.0264 73.8829 36.0624 73.9099 36.1073C73.2004 34.4728 72.3652 32.9012 71.4222 31.4014C71.4851 31.5541 71.4491 31.7427 71.2695 31.7786H71.1079C70.9283 31.7427 70.7666 31.6259 70.6678 31.4643C69.671 29.8837 68.5574 28.3659 67.3629 26.938C67.2552 26.8122 67.1294 26.5339 67.345 26.4261C67.4168 26.3902 67.4976 26.3902 67.5695 26.4081C67.5964 26.4171 67.6234 26.4171 67.6503 26.4261C67.6773 26.4351 67.7042 26.444 67.7311 26.462C67.7581 26.471 67.785 26.4889 67.803 26.5069C67.8299 26.5249 67.8479 26.5428 67.8748 26.5608C66.6445 25.1059 65.3243 23.7319 63.9323 22.4387C64.0221 22.5554 64.1119 22.7709 63.9682 22.8787L63.6898 22.9326L63.3575 22.762C61.9296 21.4418 60.4029 20.2114 58.8133 19.0889C58.6696 18.9811 58.4541 18.7206 58.5798 18.532C58.5978 18.5051 58.6157 18.4871 58.6337 18.4692C58.6516 18.4512 58.6786 18.4422 58.7055 18.4333C58.7325 18.4243 58.7594 18.4243 58.7953 18.4243C58.8223 18.4243 58.8582 18.4243 58.8941 18.4333C58.9031 18.4333 58.9211 18.4422 58.9301 18.4422C58.939 18.4422 58.957 18.4512 58.966 18.4512C58.975 18.4512 58.9929 18.4602 59.0019 18.4692C59.0109 18.4782 59.0288 18.4782 59.0378 18.4871C57.4572 17.3646 55.8048 16.3318 54.0895 15.4157C54.2421 15.5145 54.4487 15.7301 54.3858 15.9366C54.3589 16.0983 54.1793 16.1342 54.0445 16.1073L53.8829 16.0354C53.0118 15.5774 52.1227 15.1463 51.2246 14.7422C61.7949 19.475 71.7275 29.0305 74.5834 40.5437C74.2152 39.0529 73.7213 37.5981 73.1106 36.1881C73.0836 36.1342 73.0747 36.0803 73.0747 36.0354C73.0747 35.9905 73.0836 35.9456 73.1106 35.9097C73.1285 35.8738 73.1645 35.8468 73.2004 35.8289C73.2363 35.8109 73.2902 35.8019 73.3441 35.8019C73.4069 35.766 73.4339 35.766 73.4698 35.775Z" fill="#ED8000"/>
<path d="M21.8385 23.4259C22.6198 19.1242 25.296 15.487 29.2026 13.5023C33.3158 11.4187 38.1564 11.2481 42.6198 12.0204C41.2996 11.7869 39.9615 11.6433 38.6234 11.6073L38.5426 11.5894C38.336 11.5445 38.1295 11.4008 38.0576 11.2032C37.9768 11.0146 38.0576 10.826 38.2731 10.817C36.6836 10.7721 35.085 10.8709 33.5134 11.1493C33.5583 11.1403 33.6122 11.1403 33.6661 11.1493C33.711 11.1583 33.7469 11.1763 33.7918 11.1942C33.8367 11.2122 33.8726 11.2391 33.9175 11.2661C33.9534 11.293 33.9983 11.3289 34.0253 11.3559C34.0612 11.3918 34.0881 11.4277 34.1151 11.4726C34.151 11.5265 34.169 11.5804 34.178 11.6253C34.1869 11.6702 34.1869 11.7241 34.178 11.76C34.169 11.8049 34.142 11.8408 34.1151 11.8678C34.0792 11.8947 34.0432 11.9127 33.9894 11.9217C33.6212 11.9845 33.2619 12.0653 32.9117 12.1462C32.5614 12.227 32.2112 12.3258 31.8609 12.4336C31.5197 12.5413 31.1784 12.6491 30.8461 12.7748C30.5138 12.9005 30.1905 13.0263 29.8762 13.17L29.6517 13.179L29.2565 12.9365C29.1488 12.8107 29.059 12.5862 29.2116 12.4515C27.9903 12.9993 26.8317 13.6998 25.799 14.562C25.8618 14.535 25.9427 14.535 26.0055 14.553C26.0325 14.562 26.0594 14.571 26.0953 14.5799C26.1223 14.5889 26.1492 14.6069 26.1851 14.6159C26.2121 14.6338 26.239 14.6518 26.2749 14.6697C26.3019 14.6877 26.3288 14.7147 26.3558 14.7326C26.4905 14.8494 26.6521 15.1278 26.4725 15.2804C26.2211 15.487 25.9786 15.7115 25.7361 15.936C25.5026 16.1605 25.2781 16.403 25.0536 16.6455C24.838 16.888 24.6315 17.1394 24.4339 17.3999C24.2363 17.6603 24.0477 17.9297 23.8681 18.1992L23.5358 18.298L23.2664 18.1722C23.1227 18.0645 22.97 17.8759 23.006 17.6873C22.2875 18.8009 21.7397 20.0133 21.3535 21.2885C21.4254 21.1808 21.569 21.1628 21.6858 21.1897C21.7038 21.1897 21.7127 21.1987 21.7307 21.1987C21.7487 21.1987 21.7576 21.2077 21.7756 21.2167C21.7936 21.2257 21.8025 21.2257 21.8205 21.2346C21.8385 21.2436 21.8475 21.2526 21.8654 21.2526C22.045 21.3514 22.2606 21.5849 22.1887 21.8094C22.1528 21.9351 22.1169 22.0698 22.081 22.2046C22.045 22.3393 22.0181 22.465 21.9822 22.5997C21.9552 22.7344 21.9193 22.8691 21.8924 23.0038C21.8834 23.1475 21.8564 23.2912 21.8385 23.4259C22.2246 21.2706 21.8564 23.2912 21.8385 23.4259Z" fill="#ED8000"/>
<path d="M20.6712 25.7705C20.6353 27.3331 20.7879 28.8958 21.0933 30.4315C21.0843 30.3776 21.0933 30.3327 21.1022 30.2968C21.1202 30.2609 21.1382 30.2249 21.1741 30.198C21.21 30.1711 21.2459 30.1531 21.2998 30.1441C21.3447 30.1351 21.4076 30.1351 21.4705 30.1441C21.704 30.189 21.9375 30.3776 21.9824 30.6201L22.0093 30.7368C21.704 29.2011 21.5423 27.6385 21.5782 26.0669C21.5423 26.2285 21.3627 26.2824 21.219 26.2555L21.1202 26.2375C20.9137 26.1567 20.7161 25.986 20.6712 25.7705C20.6622 26.1387 20.6802 25.8154 20.6712 25.7705Z" fill="#ED8000"/>
<path d="M23.1334 35.9631C22.9268 35.9272 22.7293 35.7745 22.6484 35.5859C23.34 37.2923 24.1841 38.9447 25.1361 40.5253C25.1181 40.4804 25.1092 40.4265 25.1092 40.3816C25.1092 40.3367 25.1181 40.3008 25.1271 40.2649C25.1451 40.2289 25.163 40.202 25.19 40.1751C25.2169 40.1481 25.2618 40.1302 25.3067 40.1212C25.3157 40.1212 25.3337 40.1212 25.3426 40.1122C25.3516 40.1122 25.3696 40.1122 25.3876 40.1122C25.4055 40.1122 25.4145 40.1122 25.4325 40.1122C25.4504 40.1122 25.4594 40.1122 25.4774 40.1212C25.648 40.1571 25.8096 40.2649 25.9174 40.3996C24.9744 38.8459 24.1482 37.2204 23.4657 35.541V35.55V35.559V35.568V35.5769C23.5555 35.7925 23.4477 35.9901 23.2052 35.9901L23.1334 35.9631Z" fill="#ED8000"/>
<path d="M42.1366 56.6724C42.6215 56.9418 43.1155 57.2023 43.6094 57.4537C43.4567 57.3729 43.2951 57.2921 43.1424 57.2113C43.0795 57.1753 43.0257 57.1394 42.9808 57.0945C42.9359 57.0496 42.8909 56.9957 42.855 56.9508C42.8191 56.8969 42.8011 56.8431 42.7922 56.7892C42.7832 56.7353 42.7832 56.6814 42.7922 56.6365C42.8011 56.6006 42.8191 56.5647 42.8371 56.5467C42.855 56.5198 42.882 56.5018 42.9179 56.4838C42.9448 56.4659 42.9808 56.4569 43.0257 56.4569C43.0616 56.4569 43.1065 56.4569 43.1514 56.4659C43.1694 56.4659 43.1783 56.4748 43.1963 56.4748C43.2143 56.4748 43.2232 56.4838 43.2412 56.4838C43.2592 56.4928 43.2681 56.4928 43.2861 56.5018C43.3041 56.5108 43.313 56.5198 43.331 56.5198C43.5376 56.6275 43.7351 56.7263 43.9417 56.8341C44.1482 56.9329 44.3458 57.0316 44.5524 57.1304C44.7589 57.2292 44.9655 57.328 45.1631 57.4178C45.3696 57.5166 45.5762 57.6064 45.7827 57.6962C38.5263 54.4811 32.0512 49.2095 27.4531 42.7344C28.0459 43.5696 28.6655 44.3868 29.3211 45.1771C29.4468 45.3208 29.5367 45.6172 29.3032 45.707L29.0786 45.7339L28.6925 45.5184C29.9857 47.0721 31.3777 48.5449 32.8595 49.9189C32.7607 49.7842 32.6799 49.5597 32.8236 49.425C32.8415 49.407 32.8595 49.3981 32.8865 49.3891C32.9044 49.3801 32.9314 49.3711 32.9583 49.3621C32.9852 49.3532 33.0122 49.3532 33.0391 49.3532C33.0661 49.3532 33.093 49.3532 33.12 49.3621C33.1469 49.3711 33.1738 49.3711 33.2098 49.3891C33.2367 49.3981 33.2636 49.416 33.2996 49.425C33.3265 49.443 33.3534 49.4609 33.3804 49.4789C33.4073 49.4969 33.4343 49.5238 33.4612 49.5417C33.8384 49.883 34.2156 50.2243 34.6018 50.5566C34.9879 50.8889 35.3741 51.2122 35.7693 51.5355C36.1644 51.8588 36.5596 52.1731 36.9637 52.4784C37.3678 52.7838 37.7809 53.0801 38.194 53.3765C38.2569 53.4214 38.3018 53.4663 38.3467 53.5202C38.3916 53.5741 38.4186 53.628 38.4455 53.6819C38.4635 53.7357 38.4814 53.7896 38.4814 53.8435C38.4814 53.8974 38.4724 53.9423 38.4455 53.9872L38.1132 54.095L37.8977 54.0141C38.8137 54.6608 39.7477 55.2714 40.7086 55.8552" fill="#ED8000"/>
<g opacity="0.7">
<path opacity="0.7" d="M9.61609 31.7601C9.3826 30.9788 9.17604 30.1885 8.98744 29.3982C9.16705 30.1885 9.3826 30.9788 9.61609 31.7601ZM55.732 72.3079C53.7742 71.9218 51.8433 71.4099 49.9394 70.8082C49.6431 67.8895 49.2749 64.9707 48.8528 62.0699L48.8079 61.8095C49.2928 61.9801 49.7778 62.1418 50.2717 62.2855C50.7567 62.4382 51.2506 62.5729 51.7446 62.7076C52.1577 62.8154 52.5708 62.9141 52.9839 63.0039C45.503 37.5257 34.807 0.0851675 34.807 0.0851675C31.3494 -0.130369 27.8469 0.0941444 24.4881 0.965272C22.8896 1.37838 21.3539 1.96213 19.881 2.68059C19.872 2.67161 19.8721 2.6716 19.8631 2.66262C18.2196 3.45293 16.6839 4.45876 15.3009 5.63523C15.2739 5.66218 15.238 5.68911 15.2111 5.71606C14.6992 6.15611 14.2142 6.61413 13.7472 7.09909C13.3072 7.55711 12.903 8.04207 12.5079 8.54499C12.454 8.61683 12.3911 8.68868 12.3372 8.76053C12.2923 8.82339 12.2385 8.87727 12.1936 8.94014L12.2025 8.94911C11.8523 9.42509 11.502 9.91004 11.1967 10.4309C8.27796 15.2805 7.66728 21.1269 8.47554 26.6501C8.26899 25.2221 8.15224 23.7762 8.15224 22.3304C11.3853 23.2374 14.6273 24.0996 17.8783 24.9078L18.1927 24.9976C18.1837 25.4018 18.1837 25.8059 18.2016 26.219C18.2106 26.6321 18.2376 27.0542 18.2735 27.4763C18.3094 27.8984 18.3633 28.3295 18.4262 28.7695C18.489 29.2096 18.5609 29.6496 18.6507 30.0987C19.0099 31.9307 19.5757 33.7179 20.2762 35.4512L19.9708 35.4242C16.8096 35.0111 13.6394 34.6429 10.4693 34.3286C11.6457 37.5437 13.1814 40.624 14.9955 43.5248C16.621 46.1292 18.4711 48.5989 20.4738 50.9339C20.5097 50.9788 20.5546 51.0237 20.5905 51.0686C21.1473 51.7152 21.7221 52.3528 22.3058 52.9725C22.3597 53.0264 22.4136 53.0803 22.4585 53.1431C23.0602 53.7808 23.6709 54.4004 24.2906 55.0111C24.3534 55.074 24.4073 55.1369 24.4702 55.1907C25.0809 55.7835 25.7005 56.3582 26.3292 56.924C26.41 56.9959 26.4908 57.0767 26.5806 57.1485C27.2811 57.7772 27.9996 58.3968 28.727 58.9896C28.745 59.0075 28.7719 59.0255 28.7899 59.0435C30.0651 60.0942 31.3584 61.109 32.7055 62.061C39.5667 66.9555 47.4248 70.6914 55.732 72.3079ZM10.4603 34.3196C10.4513 34.3016 10.4513 34.2837 10.4423 34.2657C10.4513 34.2837 10.4513 34.3016 10.4603 34.3196Z" fill="url(#paint0_linear)"/>
</g>
<defs>
<linearGradient id="paint0_linear" x1="8.14667" y1="36.1565" x2="55.7297" y2="36.1565" gradientUnits="userSpaceOnUse">
<stop stop-color="white"/>
<stop offset="0.9062"/>
</linearGradient>
</defs>
</svg>
