<svg width="89" height="84" viewBox="0 0 89 84" fill="none" xmlns="http://www.w3.org/2000/svg">
<path d="M8.9875 29.3984C7.41588 31.4909 5.83528 33.5924 4.26366 35.6849C3.32966 36.9243 2.39567 38.1726 1.46168 39.4119C1.28207 39.6454 0.931818 39.9687 0.83303 40.2471C0.743223 40.5076 0.940799 40.9297 1.01264 41.2081C1.22818 42.0792 1.47066 42.9413 1.74008 43.7945C2.96145 47.6113 4.73065 51.2395 6.8501 54.6342C9.75086 59.2593 13.4329 63.6239 17.6718 67.4946C21.9107 71.3742 26.6885 74.742 31.7536 77.3913C36.8097 80.0316 42.1353 81.9355 47.4967 82.8875C50.4155 79.394 53.3342 75.9095 56.2529 72.416C50.7118 71.3922 45.3683 69.4164 40.384 66.7941C35.274 64.1088 30.4424 60.6962 26.1496 56.7806C21.8658 52.865 18.1209 48.4645 15.1752 43.8125C12.2385 39.1694 10.1011 34.2839 8.9875 29.3984Z" fill="#613812"/>
<path d="M12.2387 8.86816C9.67027 12.3437 7.09281 15.8192 4.52433 19.2948C3.55441 20.6059 2.68328 21.971 2.00973 23.4528C1.417 24.773 0.941027 26.174 0.608741 27.6648C0.276455 29.1556 0.0698994 30.7272 0.0160152 32.3707C-0.037869 34.0231 0.0519377 35.7474 0.303397 37.5435C2.92576 34.0411 5.5571 30.5386 8.17947 27.0361C8.43093 26.6948 8.44889 26.7218 8.43093 26.2997C8.35908 24.6742 8.10762 23.0846 8.15253 21.4501C8.19743 19.7977 8.38603 18.226 8.71832 16.7353C9.04162 15.2445 9.50861 13.8435 10.1013 12.5233C10.6851 11.2211 11.4035 9.99973 12.2387 8.86816Z" fill="#613812"/>
<path d="M57.1419 72.5685C54.2232 76.0531 51.3045 79.5465 48.3857 83.0311C51.0889 83.4621 53.828 83.6507 56.5672 83.516C59.1267 83.3903 61.5065 82.9862 63.7068 82.3396C65.8891 81.6929 67.8828 80.7949 69.661 79.6723C71.4302 78.5587 72.9839 77.2206 74.2951 75.6849C77.2407 72.2452 80.1954 68.8146 83.141 65.375C81.8119 66.9197 80.2403 68.2578 78.507 69.3445C76.7288 70.4581 74.7351 71.3472 72.5438 71.9848C70.3435 72.6224 67.9457 73.0086 65.3772 73.1164C62.7908 73.2152 60.0427 73.0445 57.1419 72.5685Z" fill="#613812"/>
<path d="M49.9305 70.8086C47.0298 74.3111 44.129 77.8225 41.2192 81.325C41.7401 81.4866 42.261 81.6393 42.7819 81.792C43.3028 81.9357 43.8236 82.0794 44.3445 82.2051C44.8654 82.3398 45.3863 82.4566 45.9161 82.5733C46.437 82.6901 46.9579 82.7888 47.4878 82.8876C47.5237 82.8966 47.5596 82.8966 47.5955 82.9056C47.6315 82.9146 47.6674 82.9146 47.7033 82.9235C47.7392 82.9325 47.7752 82.9325 47.8111 82.9415C47.847 82.9505 47.8829 82.9505 47.9188 82.9595C47.9548 82.9685 47.9907 82.9684 48.0266 82.9774C48.0625 82.9864 48.0985 82.9864 48.1344 82.9954C48.1703 83.0044 48.2062 83.0044 48.2421 83.0134C48.2781 83.0223 48.314 83.0223 48.3499 83.0313C48.8708 83.1121 49.3827 83.184 49.8946 83.2469C50.4065 83.3097 50.9094 83.3546 51.4123 83.3995C51.9152 83.4444 52.4092 83.4714 52.8941 83.4983C53.3881 83.5253 53.873 83.5342 54.349 83.5432C57.2767 80.0677 60.2134 76.5922 63.1411 73.1256C62.6562 73.1166 62.1622 73.0987 61.6773 73.0717C61.1833 73.0448 60.6894 73.0089 60.1865 72.964C59.6836 72.9191 59.1717 72.8652 58.6598 72.8023C58.1479 72.7394 57.627 72.6676 57.1061 72.5778C57.0702 72.5688 57.0342 72.5688 56.9983 72.5598C56.9624 72.5508 56.9265 72.5508 56.8906 72.5419C56.8546 72.5329 56.8187 72.5329 56.7828 72.5239C56.7469 72.5149 56.7109 72.5149 56.675 72.5059C56.6391 72.497 56.6032 72.497 56.5673 72.488C56.5313 72.479 56.4954 72.479 56.4595 72.47C56.4236 72.461 56.3876 72.461 56.3517 72.452C56.3158 72.4431 56.2799 72.4341 56.244 72.4341C55.7141 72.3353 55.1932 72.2275 54.6633 72.1108C54.1335 71.994 53.6126 71.8683 53.0827 71.7336C52.5529 71.5989 52.032 71.4552 51.5021 71.3025C50.9813 71.1319 50.4604 70.9702 49.9305 70.8086Z" fill="#9A95A0"/>
<path d="M8.15233 22.3213C6.7244 24.2342 5.29647 26.1471 3.86854 28.06C2.93454 29.3083 2.00055 30.5656 1.06656 31.8139C0.788157 32.1821 0.464853 32.5503 0.222374 32.9455C-0.0560273 33.4035 -0.00214273 33.6819 0.0158187 34.2836C0.0247994 34.6338 0.0427586 34.9931 0.0697007 35.3523C0.0966428 35.7115 0.123587 36.0707 0.15951 36.4389C0.195433 36.8072 0.240334 37.1754 0.294218 37.5436V37.5526V37.5615V37.5705V37.5795C0.294218 37.6064 0.303201 37.6244 0.303201 37.6513C0.303201 37.6783 0.31218 37.6963 0.31218 37.7232C0.31218 37.7501 0.321163 37.7681 0.321163 37.795C0.321163 37.822 0.330142 37.8399 0.330142 37.8669C0.330142 37.8848 0.330144 37.8938 0.339124 37.9118C0.339124 37.9297 0.339123 37.9387 0.348104 37.9567C0.348104 37.9747 0.348102 37.9836 0.357083 38.0016C0.357083 38.0196 0.357085 38.0285 0.366065 38.0465C0.366065 38.0645 0.375045 38.0824 0.375045 38.1004C0.375045 38.1183 0.384027 38.1363 0.384027 38.1543C0.384027 38.1722 0.393006 38.1902 0.393006 38.2081C0.393006 38.2261 0.401989 38.2441 0.401989 38.262C0.401989 38.28 0.410968 38.3069 0.410968 38.3249C0.410968 38.3429 0.419947 38.3698 0.419947 38.3878C0.419947 38.4057 0.42893 38.4327 0.42893 38.4506C0.42893 38.4686 0.437909 38.4955 0.437909 38.5135C0.437909 38.5225 0.437911 38.5404 0.446892 38.5494C0.446892 38.5584 0.44689 38.5764 0.455871 38.5853C0.455871 38.5943 0.455873 38.6123 0.464854 38.6213C0.464854 38.6302 0.464852 38.6482 0.473833 38.6572C0.482814 38.6931 0.482814 38.729 0.491795 38.7649C0.500775 38.8009 0.500776 38.8368 0.509757 38.8727C0.518737 38.9086 0.518738 38.9446 0.527718 38.9805C0.536699 39.0164 0.536699 39.0523 0.54568 39.0883C0.554661 39.1242 0.554661 39.1601 0.563642 39.196C0.572623 39.232 0.5816 39.2679 0.5816 39.3038C0.590581 39.3397 0.599562 39.3756 0.599562 39.4116C0.608543 39.4475 0.617524 39.4834 0.617524 39.5193C0.617524 39.5373 0.626507 39.5463 0.626507 39.5642C0.626507 39.5822 0.635486 39.5912 0.635486 39.6091C0.635486 39.6271 0.644465 39.6361 0.644465 39.654C0.644465 39.672 0.653448 39.681 0.653448 39.6989C0.653448 39.7169 0.662427 39.7349 0.662427 39.7528C0.662427 39.7708 0.671409 39.7887 0.671409 39.8067C0.671409 39.8247 0.680389 39.8426 0.680389 39.8606C0.680389 39.8786 0.689371 39.8965 0.689371 39.9145C0.689371 39.9324 0.698352 39.9594 0.707333 39.9773C0.716314 39.9953 0.716311 40.0222 0.725291 40.0402C0.734272 40.0582 0.734273 40.0851 0.743253 40.1031C0.743253 40.121 0.752234 40.148 0.761215 40.1659C0.761215 40.1749 0.761217 40.1839 0.770198 40.1929C0.770198 40.2019 0.770196 40.2108 0.779177 40.2198C0.779177 40.2288 0.779179 40.2378 0.788159 40.2468C0.788159 40.2558 0.788158 40.2647 0.797139 40.2737C0.886946 40.6868 0.985732 41.091 1.0935 41.5041C1.20127 41.9172 1.30904 42.3213 1.43477 42.7344C1.55152 43.1475 1.67725 43.5517 1.81196 43.9558C1.94667 44.3599 2.09036 44.773 2.23405 45.1772C3.67994 43.2733 5.11685 41.3693 6.56275 39.4654C7.49674 38.2261 8.43971 36.9868 9.37371 35.7564C9.65211 35.3882 10.0024 35.02 10.2359 34.6248C10.2897 34.535 10.4155 34.4452 10.4424 34.3464C10.5232 34.068 10.1371 33.3765 10.0383 33.0802C9.90357 32.6671 9.76886 32.2629 9.64313 31.8498C9.5174 31.4367 9.40065 31.0326 9.29288 30.6195C9.18512 30.2063 9.08632 29.7932 8.98754 29.3891C8.98754 29.3801 8.98753 29.3711 8.97855 29.3622C8.97855 29.3532 8.97856 29.3442 8.96958 29.3352C8.96958 29.3262 8.96958 29.3173 8.9606 29.3083C8.9606 29.2993 8.96059 29.2903 8.95161 29.2813C8.94263 29.2544 8.94264 29.2364 8.93365 29.2185C8.92467 29.2005 8.92467 29.1736 8.91569 29.1556C8.90671 29.1376 8.90671 29.1107 8.89773 29.0927C8.88875 29.0658 8.88875 29.0478 8.87977 29.0299C8.87977 29.0119 8.87079 28.994 8.87079 28.976C8.87079 28.958 8.86181 28.9401 8.86181 28.9221C8.86181 28.9041 8.85283 28.8862 8.85283 28.8682C8.85283 28.8503 8.84385 28.8323 8.84385 28.8143C8.84385 28.7964 8.83487 28.7874 8.83487 28.7694C8.83487 28.7515 8.82588 28.7425 8.82588 28.7245C8.82588 28.7066 8.8169 28.6976 8.8169 28.6796C8.8169 28.6617 8.80793 28.6527 8.80793 28.6347C8.79894 28.5988 8.78996 28.5629 8.78996 28.527C8.78098 28.491 8.772 28.4551 8.772 28.4192C8.76302 28.3833 8.75404 28.3473 8.75404 28.3114C8.74506 28.2755 8.73608 28.2396 8.73608 28.2036C8.7271 28.1677 8.71812 28.1318 8.71812 28.0959C8.70914 28.06 8.70914 28.024 8.70015 27.9881C8.69117 27.9522 8.6822 27.9163 8.6822 27.8803C8.67321 27.8444 8.67321 27.8085 8.66423 27.7726C8.66423 27.7636 8.66423 27.7456 8.65525 27.7366C8.65525 27.7277 8.64627 27.7097 8.64627 27.7007C8.64627 27.6918 8.64627 27.6738 8.63729 27.6648C8.63729 27.6558 8.63729 27.6379 8.62831 27.6289C8.62831 27.6109 8.61933 27.584 8.61933 27.566C8.61933 27.5481 8.61035 27.5211 8.61035 27.5032C8.61035 27.4852 8.60137 27.4582 8.60137 27.4403C8.60137 27.4223 8.59238 27.3954 8.59238 27.3774C8.59238 27.3595 8.58341 27.3415 8.58341 27.3235C8.58341 27.3056 8.57442 27.2876 8.57442 27.2696C8.57442 27.2517 8.56544 27.2337 8.56544 27.2158C8.56544 27.1978 8.55647 27.1798 8.55647 27.1619C8.55647 27.1439 8.54748 27.1349 8.54748 27.117C8.54748 27.099 8.5385 27.09 8.5385 27.0721C8.5385 27.0541 8.5385 27.0451 8.52952 27.0272C8.52952 27.0092 8.52952 27.0002 8.52054 26.9823C8.52054 26.9553 8.51156 26.9374 8.51156 26.9104C8.51156 26.8835 8.50258 26.8655 8.50258 26.8386C8.50258 26.8116 8.4936 26.7937 8.4936 26.7667C8.4936 26.7398 8.48462 26.7218 8.48462 26.6949V26.6859V26.6769V26.6679V26.659C8.43074 26.2818 8.38583 25.9136 8.34093 25.5454C8.305 25.1771 8.26908 24.8179 8.24214 24.4587C8.21519 24.0995 8.19723 23.7402 8.17927 23.39C8.16131 23.0128 8.15233 22.6626 8.15233 22.3213Z" fill="#9A95A0"/>
<path d="M20.4647 50.9248C17.8244 54.3105 15.1751 57.6962 12.5348 61.082C12.445 61.1987 12.0767 61.522 12.0767 61.6747C12.0678 61.9172 12.8221 62.5548 13.0018 62.7524C13.5316 63.3451 14.0705 63.9199 14.6183 64.4857C15.4984 65.4017 16.4054 66.2908 17.3484 67.1619C18.2824 68.033 19.2523 68.8682 20.2402 69.6855C21.2281 70.5027 22.2429 71.293 23.2757 72.0474C26.1226 68.4911 28.9694 64.9347 31.8163 61.3873C30.7746 60.624 29.7508 59.8247 28.7539 58.9984C27.757 58.1722 26.7781 57.3191 25.8352 56.4479C24.8832 55.5768 23.9672 54.6698 23.0781 53.7537C22.1531 52.8287 21.2909 51.8857 20.4647 50.9248Z" fill="#9A95A0"/>
<path d="M20.2674 35.4424C19.5759 33.7091 19.0101 31.9219 18.6419 30.0899C18.5521 29.6409 18.4802 29.2008 18.4174 28.7607C18.3545 28.3207 18.3096 27.8896 18.2647 27.4675C18.2288 27.0454 18.2018 26.6233 18.1929 26.2102C18.1749 25.7971 18.1749 25.384 18.1839 24.9888L17.8695 24.899C14.6185 24.0818 11.3765 23.2196 8.14345 22.3216C8.14345 23.7675 8.25121 25.2134 8.46675 26.6413C7.65849 21.1182 8.26918 15.2807 11.1879 10.4221C14.1156 5.55461 19.037 2.36646 24.4793 0.956495C27.8381 0.0853671 31.3406 -0.13916 34.7982 0.0763766C35.7052 2.83345 36.5404 5.60849 37.3397 8.40149L37.4115 8.65295C39.2616 8.70683 41.1026 8.94033 42.9077 9.31752C43.3837 9.41631 43.8597 9.52408 44.3446 9.64083C44.8206 9.75758 45.2966 9.88331 45.7726 10.018C46.2486 10.1527 46.7155 10.2964 47.1915 10.4491C47.6585 10.6018 48.1345 10.7634 48.6015 10.9341L48.5656 10.6916C48.1704 8.04226 47.8202 5.38398 47.5418 2.72569C61.2912 7.4675 73.6846 17.3822 81.3541 29.7486C83.6172 33.3858 85.4673 37.3014 86.6707 41.4235C86.2576 40.0225 85.7726 38.6485 85.2158 37.3104C82.2701 37.014 79.3424 36.6637 76.4057 36.2686L76.1363 36.2417C76.8638 37.93 77.4744 39.6633 77.8965 41.4505C78.0043 41.8815 78.0941 42.3126 78.166 42.7437C78.2468 43.1748 78.3097 43.5969 78.3635 44.01C78.4174 44.4321 78.4623 44.8452 78.4893 45.2493C78.5252 45.6624 78.5431 46.0665 78.5521 46.4617L78.8305 46.5425C81.9109 47.3059 84.9733 48.1141 88.0357 48.9583C87.937 47.4137 87.7214 45.8779 87.4071 44.3692C88.7273 50.6736 88.3411 57.5439 84.8206 63.094C81.3361 68.5991 75.346 71.7513 69.0236 72.7392C65.099 73.3589 61.0667 73.1972 57.1511 72.5596C59.1448 72.8829 61.1655 73.0625 63.1861 73.1074C62.1983 70.1348 61.2822 67.1353 60.4111 64.1267L60.3393 63.8573C58.4533 63.8663 56.5674 63.6777 54.7084 63.3454C54.2144 63.2556 53.7205 63.1568 53.2266 63.049C52.7326 62.9413 52.2387 62.8245 51.7537 62.6898C51.2598 62.5641 50.7748 62.4204 50.2809 62.2677C49.7959 62.115 49.302 61.9624 48.817 61.7917L48.8619 62.0522C49.284 64.953 49.6522 67.8717 49.9486 70.7904C52.0231 71.446 54.1246 72.0028 56.262 72.3979C47.7663 70.8353 39.7286 67.0455 32.7146 62.0522C25.7277 57.0769 19.5579 50.7994 15.0047 43.507C12.2925 39.1514 10.1372 34.4006 9.0056 29.3894C9.38279 31.0598 9.88571 32.7033 10.4784 34.3108C13.6486 34.6251 16.8188 34.9933 19.98 35.4065L20.2674 35.4424ZM37.8785 53.9965C38.3815 54.3467 38.8844 54.697 39.4053 55.0293C39.9172 55.3616 40.438 55.6849 40.9679 55.9992C41.4888 56.3135 42.0276 56.6099 42.5575 56.9062C43.0963 57.1936 43.6352 57.472 44.183 57.7415C44.2099 57.7594 44.2369 57.7684 44.2638 57.7864C44.2908 57.7953 44.3177 57.8133 44.3446 57.8313C44.3716 57.8492 44.3985 57.8582 44.4345 57.8762C44.4614 57.8941 44.4973 57.9031 44.5243 57.9211C45.3056 58.2983 46.0959 58.6485 46.8952 58.9718C47.6944 59.2951 48.5027 59.5915 49.311 59.8609C50.1192 60.1303 50.9455 60.3728 51.7717 60.5794C52.5979 60.7949 53.4331 60.9745 54.2683 61.1272C55.3999 61.3337 56.5404 61.4684 57.681 61.5403C57.6989 61.5403 57.7259 61.5403 57.7528 61.5403C57.7798 61.5403 57.8067 61.5403 57.8516 61.5493C57.8875 61.5493 57.9414 61.5493 57.9953 61.5583C58.0582 61.5583 58.13 61.5672 58.2198 61.5672C58.2378 61.5672 58.2647 61.5672 58.2827 61.5672C58.3007 61.5672 58.3276 61.5672 58.3456 61.5672C58.3725 61.5672 58.3905 61.5672 58.4174 61.5672C58.4443 61.5672 58.4623 61.5672 58.4893 61.5672C59.0011 61.5852 59.5041 61.5852 60.007 61.5672C60.5009 61.5582 60.9949 61.5223 61.4708 61.4864C61.9468 61.4415 62.4228 61.3876 62.8808 61.3158C63.3388 61.2439 63.7968 61.1631 64.2369 61.0643C65.7008 60.741 67.1287 60.2291 68.4578 59.5286C68.7632 59.367 69.0685 59.1963 69.3649 59.0167C69.6612 58.8371 69.9396 58.6485 70.218 58.4509C70.4964 58.2533 70.7659 58.0468 71.0263 57.8313C71.2867 57.6157 71.5472 57.3912 71.7897 57.1667C72.7865 56.2147 73.6307 55.1101 74.2863 53.8977C74.439 53.6103 74.5916 53.3229 74.7264 53.0266C74.8611 52.7302 74.9958 52.4249 75.1125 52.1105C75.2293 51.7962 75.346 51.4729 75.4448 51.1406C75.5436 50.8083 75.6424 50.4671 75.7232 50.1258C75.7861 49.8564 75.84 49.587 75.8938 49.3086C75.9388 49.0302 75.9837 48.7428 76.0196 48.4464C76.0555 48.1501 76.0824 47.8537 76.1094 47.5394C76.1363 47.2251 76.1453 46.9017 76.1543 46.5605C76.1633 46.1294 76.1543 45.6894 76.1363 45.2403C76.1184 44.7913 76.0824 44.3422 76.0285 43.8753C75.9747 43.4172 75.9118 42.9413 75.831 42.4653C75.7502 41.9893 75.6514 41.5043 75.5346 41.0104C75.5077 40.9026 75.4897 40.8039 75.4628 40.7051C75.4628 40.6871 75.4538 40.6781 75.4538 40.6602C75.4538 40.6422 75.4448 40.6242 75.4358 40.6063C75.4268 40.5883 75.4268 40.5614 75.4179 40.5255C75.4089 40.4895 75.3999 40.4536 75.3909 40.4087C75.3819 40.3907 75.3819 40.3728 75.373 40.3458C75.364 40.3279 75.364 40.3009 75.355 40.283C75.346 40.256 75.346 40.2381 75.337 40.2021C75.3281 40.1662 75.3191 40.1393 75.3101 40.1034C75.3011 40.0854 75.3011 40.0674 75.2921 40.0405C75.2831 40.0225 75.2832 39.9956 75.2742 39.9687C75.2652 39.9417 75.2562 39.9148 75.2472 39.8878C75.2383 39.8609 75.2293 39.825 75.2203 39.789C75.2113 39.7711 75.2113 39.7531 75.2023 39.7351C75.1934 39.7172 75.1933 39.6992 75.1844 39.6723C75.1754 39.6453 75.1664 39.6184 75.1574 39.5915C75.1484 39.5555 75.1395 39.5196 75.1215 39.4747C75.1215 39.4568 75.1125 39.4478 75.1035 39.4208C75.0946 39.4029 75.0946 39.3759 75.0766 39.349C75.0676 39.3131 75.0497 39.2771 75.0407 39.2233C75.0227 39.1694 75.0048 39.1065 74.9778 39.0167C74.9778 38.9987 74.9688 38.9808 74.9598 38.9718C74.9509 38.9538 74.9509 38.9359 74.9419 38.9179C74.9329 38.8999 74.9239 38.873 74.9149 38.8461C74.906 38.8191 74.897 38.7832 74.879 38.7473C74.8072 38.5317 74.7353 38.3162 74.6635 38.1096C74.5916 37.8941 74.5108 37.6786 74.43 37.463C74.3492 37.2475 74.2593 37.023 74.1695 36.7985C74.0797 36.5739 73.981 36.3494 73.8822 36.1159C73.7115 35.7118 73.5229 35.3166 73.3343 34.9215C73.1458 34.5263 72.9392 34.1222 72.7326 33.7271C72.5261 33.3319 72.3016 32.9278 72.077 32.5326C71.8436 32.1285 71.6101 31.7333 71.3586 31.3292C71.1071 30.9341 70.8467 30.5299 70.5773 30.1348C70.3078 29.7396 70.0294 29.3445 69.7331 28.9493C69.4457 28.5542 69.1404 28.159 68.826 27.7549C68.5117 27.3597 68.1884 26.9556 67.8471 26.5605C67.5418 26.2012 67.2365 25.842 66.9131 25.4918C66.5988 25.1415 66.2665 24.7913 65.9342 24.441C65.602 24.0908 65.2607 23.7405 64.9015 23.3903C64.5512 23.04 64.183 22.6898 63.8148 22.3395C63.4466 21.9983 63.0694 21.666 62.6922 21.3337C62.315 21.0014 61.9199 20.6781 61.5247 20.3548C61.1296 20.0315 60.7254 19.7172 60.3033 19.4028C59.8902 19.0885 59.4681 18.7832 59.0281 18.4689C58.6329 18.1905 58.2288 17.9121 57.8247 17.6426C57.4205 17.3732 57.0074 17.1128 56.5943 16.8523C56.1812 16.5919 55.7591 16.3404 55.328 16.098C54.9059 15.8555 54.4749 15.613 54.0348 15.3795C53.9091 15.3166 53.7834 15.2448 53.6576 15.1819C53.5319 15.1191 53.3972 15.0472 53.2535 14.9754C53.1098 14.9035 52.9661 14.8317 52.8134 14.7508C52.6608 14.67 52.4901 14.5892 52.3105 14.5084C51.5921 14.1671 50.8646 13.8348 50.1282 13.5384C49.3918 13.2331 48.6554 12.9547 47.901 12.7033C47.1556 12.4428 46.3922 12.2093 45.6289 12.0027C44.8655 11.7962 44.0932 11.6076 43.3119 11.4459C43.0963 11.401 42.8718 11.3561 42.6563 11.3202C42.6383 11.3202 42.6203 11.3112 42.6024 11.3112C42.5844 11.3112 42.5665 11.3022 42.5395 11.3022C42.5126 11.3022 42.4856 11.2933 42.4587 11.2843C42.4228 11.2753 42.3869 11.2753 42.3419 11.2663C42.0456 11.2124 41.7492 11.1676 41.4618 11.1316C41.1655 11.0867 40.8691 11.0508 40.5638 11.0149C40.2584 10.979 39.9531 10.952 39.6298 10.9251C39.3065 10.8981 38.9832 10.8802 38.6329 10.8622C38.606 10.8622 38.5701 10.8622 38.5431 10.8622C38.5162 10.8622 38.4803 10.8622 38.4443 10.8622C38.4084 10.8622 38.3815 10.8622 38.3455 10.8622C38.3096 10.8622 38.2737 10.8622 38.2378 10.8622C37.8157 10.8532 37.4026 10.8442 36.9984 10.8532C36.5943 10.8622 36.1902 10.8802 35.786 10.9071C35.3909 10.9341 34.9957 10.97 34.6096 11.0239C34.2234 11.0688 33.8462 11.1316 33.469 11.1945C33.0918 11.2574 32.7146 11.3382 32.3464 11.428C31.9782 11.5178 31.619 11.6166 31.2598 11.7243C30.9005 11.8321 30.5503 11.9489 30.2 12.0836C29.8498 12.2183 29.5085 12.353 29.1673 12.5057C28.8529 12.6494 28.5476 12.802 28.2423 12.9547C27.9459 13.1164 27.6495 13.287 27.3621 13.4576C27.0748 13.6372 26.7874 13.8258 26.509 14.0234C26.2306 14.221 25.9522 14.4275 25.6828 14.6431C25.4223 14.8586 25.1709 15.0831 24.9194 15.3256C24.6769 15.5591 24.4434 15.8106 24.2099 16.071C23.9854 16.3315 23.7699 16.6009 23.5543 16.8793C23.3478 17.1577 23.1412 17.4451 22.9526 17.7504C22.773 18.0198 22.6114 18.2982 22.4497 18.5856C22.288 18.873 22.1444 19.1693 22.0007 19.4747C21.857 19.78 21.7312 20.0944 21.6055 20.4177C21.4798 20.741 21.363 21.0733 21.2642 21.4145C21.1655 21.7468 21.0757 22.0971 20.9948 22.4473C20.914 22.7975 20.8511 23.1568 20.7973 23.525C20.7434 23.8932 20.6985 24.2704 20.6715 24.6476C20.6356 25.0337 20.6176 25.4199 20.6087 25.8241C20.5997 26.1923 20.5997 26.5605 20.6176 26.9466C20.6266 27.3238 20.6536 27.719 20.6895 28.1141C20.7254 28.5093 20.7703 28.9134 20.8332 29.3355C20.896 29.7486 20.9679 30.1797 21.0487 30.6197C21.0757 30.7455 21.1026 30.8712 21.1295 30.9969C21.1295 31.0149 21.1385 31.0418 21.1475 31.0598C21.1565 31.0777 21.1565 31.1047 21.1655 31.1227C21.1744 31.1406 21.1744 31.1676 21.1834 31.1855C21.1924 31.2035 21.1924 31.2304 21.2014 31.2484C21.2014 31.2663 21.2104 31.2753 21.2104 31.2933C21.2104 31.3113 21.2193 31.3292 21.2283 31.3472C21.2373 31.3741 21.2373 31.4011 21.2463 31.437C21.2553 31.4729 21.2642 31.5178 21.2732 31.5627C21.2732 31.5807 21.2822 31.5986 21.2822 31.6166C21.2822 31.6346 21.2912 31.6525 21.3002 31.6795C21.3092 31.7064 21.3092 31.7333 21.3181 31.7603C21.3271 31.7962 21.3361 31.8321 21.3451 31.877C21.3451 31.895 21.3541 31.913 21.363 31.9309C21.372 31.9489 21.372 31.9668 21.381 31.9938C21.39 32.0207 21.399 32.0477 21.399 32.0746C21.4079 32.1105 21.4169 32.1465 21.4259 32.1914C21.4259 32.2093 21.4349 32.2273 21.4439 32.2452C21.4528 32.2632 21.4528 32.2812 21.4618 32.3081C21.4708 32.335 21.4798 32.362 21.4888 32.3889C21.4977 32.4249 21.5067 32.4608 21.5157 32.5057C21.5247 32.5236 21.5247 32.5416 21.5337 32.5596C21.5427 32.5775 21.5426 32.5955 21.5516 32.6224C21.5606 32.6494 21.5696 32.6763 21.5786 32.7122C21.5876 32.7482 21.5965 32.7841 21.6145 32.838C21.6145 32.8559 21.6235 32.8649 21.6325 32.8829C21.6414 32.9008 21.6414 32.9188 21.6504 32.9457C21.6594 32.9727 21.6684 32.9996 21.6774 33.0356C21.6863 33.0715 21.6953 33.1074 21.7133 33.1613C21.7133 33.1792 21.7223 33.1882 21.7312 33.2062C21.7402 33.2241 21.7492 33.2511 21.7582 33.287C21.7672 33.3229 21.7851 33.3589 21.8031 33.4217C21.8211 33.4756 21.839 33.5475 21.866 33.6373C21.8749 33.6552 21.8749 33.6732 21.8839 33.6911C21.8929 33.7091 21.8929 33.7271 21.9019 33.754C21.9109 33.7809 21.9198 33.7989 21.9288 33.8348C21.9378 33.8708 21.9468 33.9067 21.9647 33.9426C21.9737 33.9606 21.9827 33.9785 21.9827 34.0055C21.9917 34.0234 22.0007 34.0504 22.0007 34.0683C22.0096 34.0953 22.0186 34.1132 22.0276 34.1402C22.0366 34.1671 22.0456 34.194 22.0546 34.23C22.0635 34.2569 22.0725 34.2749 22.0815 34.3018C22.0905 34.3288 22.0995 34.3467 22.1084 34.3737C22.1174 34.4006 22.1264 34.4276 22.1354 34.4545C22.1444 34.4814 22.1533 34.5084 22.1623 34.5353C22.1982 34.6251 22.2252 34.7239 22.2611 34.8137C22.297 34.9035 22.333 35.0023 22.3689 35.0921C22.4048 35.1819 22.4407 35.2807 22.4766 35.3795C22.5126 35.4783 22.5575 35.5681 22.5934 35.6669C22.764 36.08 22.9436 36.5021 23.1322 36.9152C23.3208 37.3283 23.5184 37.7504 23.7339 38.1635C23.9405 38.5766 24.165 38.9987 24.3985 39.4208C24.632 39.8429 24.8745 40.265 25.126 40.6871C26.1767 42.4024 27.3621 44.0369 28.6464 45.5906C29.9665 47.1801 31.3945 48.6709 32.8943 50.0899C33.2804 50.4401 33.6666 50.7904 34.0617 51.1317C34.4569 51.4729 34.861 51.8142 35.2741 52.1465C35.6873 52.4788 36.1004 52.8021 36.5314 53.1254C37.0074 53.3679 37.4385 53.6912 37.8785 53.9965ZM31.7986 61.3876C33.3523 59.4478 34.9508 57.5529 36.6212 55.7118L36.7739 55.5412C33.1278 52.9547 29.8049 49.9103 26.949 46.4707L26.7604 46.5964C24.7039 48.0962 22.6114 49.5511 20.465 50.9251C23.8327 54.8227 27.6495 58.3432 31.7986 61.3876ZM70.5054 61.8366C73.047 64.3872 75.5526 66.9736 78.0223 69.596C80.8961 67.8986 83.3478 65.5187 85.0721 62.6539C82.2612 60.4177 79.4861 58.1186 76.738 55.8016L76.5045 55.604C75.0676 58.1635 72.8763 60.2291 70.2809 61.5942L70.5054 61.8366ZM27.1915 10.2156C24.7128 7.72794 22.2701 5.21335 19.8633 2.65385C16.8547 4.10872 14.1875 6.23714 12.1937 8.93135C15.0137 11.1765 17.7887 13.4756 20.5458 15.8016L20.7883 15.9992C22.4048 13.5474 24.7488 11.6525 27.425 10.4491L27.1915 10.2156ZM75.2921 21.639C72.086 18.0019 68.4848 14.7149 64.5871 11.8321C63.1862 13.5654 61.7313 15.2538 60.2225 16.8882L60.0878 17.0409C63.5633 19.5196 66.7425 22.4204 69.5086 25.6714L69.6702 25.5546C71.5023 24.2075 73.3703 22.8874 75.2921 21.639Z" fill="#B07608"/>
<path d="M64.5779 11.832C63.177 13.5653 61.7221 15.2537 60.2133 16.8882L60.0786 17.0408C63.5541 19.5195 66.7333 22.4203 69.4994 25.6713L69.661 25.5545C71.5021 24.1895 73.37 22.8693 75.2919 21.621C72.0768 18.0107 68.4756 14.7148 64.5779 11.832C64.3175 12.1553 65.5568 12.5595 64.5779 11.832Z" fill="#F6F6F6"/>
<path d="M41.0847 0.9471C41.0488 0.93812 41.0129 0.92914 40.977 0.920159C40.9411 0.911179 40.9051 0.902199 40.8692 0.893218C40.8333 0.884238 40.7974 0.875253 40.7614 0.875253C40.7255 0.866272 40.6896 0.857302 40.6537 0.857302C40.6357 0.857302 40.6177 0.848312 40.5998 0.848312C40.5818 0.848312 40.5639 0.839336 40.5459 0.839336C40.5279 0.839336 40.51 0.830361 40.492 0.830361C40.4741 0.830361 40.4561 0.821371 40.4381 0.821371C40.4202 0.821371 40.4022 0.812395 40.3842 0.812395C40.3663 0.812395 40.3483 0.80342 40.3304 0.80342C40.3124 0.80342 40.2944 0.79443 40.2765 0.79443C40.2585 0.79443 40.2406 0.785454 40.2226 0.785454C40.1956 0.785454 40.1777 0.776465 40.1508 0.776465C40.1238 0.776465 40.1058 0.767489 40.0789 0.767489C40.052 0.767489 40.034 0.758513 40.0071 0.758513C39.9801 0.758513 39.9622 0.749524 39.9352 0.749524C39.9262 0.749524 39.9172 0.749529 39.9083 0.740548C39.8993 0.740548 39.8903 0.740553 39.8813 0.731572C39.8723 0.731572 39.8634 0.731564 39.8544 0.722583C39.8454 0.722583 39.8364 0.722588 39.8274 0.713607C39.4682 0.650742 39.109 0.58788 38.7498 0.533996C38.3905 0.480112 38.0313 0.426229 37.6811 0.381326C37.3308 0.336422 36.9716 0.291519 36.6303 0.255596C36.2801 0.219674 35.9298 0.18375 35.5886 0.156808C35.5616 0.156808 35.5257 0.147819 35.4987 0.147819C35.4718 0.147819 35.4449 0.147824 35.4179 0.138843C35.391 0.138843 35.364 0.138848 35.3461 0.129867C35.3191 0.129867 35.3012 0.129858 35.2742 0.120878C35.1216 0.111897 34.9689 0.102922 34.8252 0.0849609C35.7322 2.84204 36.5674 5.62604 37.3667 8.41006L37.4386 8.66153C37.8786 8.67051 38.3187 8.69744 38.7677 8.73337C39.2168 8.76929 39.6658 8.8142 40.1238 8.86808C40.5818 8.92197 41.0488 8.98483 41.5158 9.06566C41.9828 9.14649 42.4588 9.22731 42.9348 9.32609C44.8656 9.72124 46.7605 10.2691 48.6106 10.9426L48.5746 10.7001C48.1795 8.05083 47.8292 5.39255 47.5508 2.73426C47.5149 2.7163 47.47 2.70732 47.4341 2.68936C47.3982 2.6714 47.3533 2.66241 47.3173 2.64445C47.2814 2.63547 47.2365 2.61752 47.2006 2.60854C47.1647 2.59057 47.1198 2.58159 47.0838 2.5726C47.0569 2.56362 47.03 2.55464 47.003 2.54566C46.9761 2.53668 46.9491 2.5277 46.9222 2.51872C46.8952 2.50974 46.8683 2.50076 46.8414 2.49178C46.8144 2.4828 46.7875 2.47382 46.7605 2.46484C46.4013 2.34809 46.0331 2.23134 45.6739 2.12357C45.3146 2.0158 44.9464 1.90805 44.5782 1.80028C44.21 1.70149 43.8508 1.6027 43.4826 1.50391C43.1144 1.40513 42.7552 1.31532 42.3869 1.23449C42.378 1.23449 42.369 1.23448 42.36 1.2255C42.351 1.2255 42.342 1.2255 42.3331 1.21652C42.3241 1.21652 42.3151 1.21653 42.3061 1.20755C42.2971 1.20755 42.2882 1.20754 42.2792 1.19856C42.2522 1.18958 42.2343 1.18959 42.2073 1.18061C42.1804 1.17163 42.1624 1.17162 42.1355 1.16264C42.1085 1.15366 42.0906 1.15366 42.0636 1.14468C42.0367 1.1357 42.0187 1.13571 41.9918 1.12673C41.9738 1.12673 41.9559 1.11774 41.9379 1.11774C41.9199 1.11774 41.902 1.10876 41.884 1.10876C41.8661 1.10876 41.8481 1.09977 41.8301 1.09977C41.8122 1.09977 41.7942 1.09079 41.7763 1.09079C41.7583 1.09079 41.7403 1.08182 41.7224 1.08182C41.7044 1.08182 41.6864 1.07283 41.6685 1.07283C41.6505 1.07283 41.6326 1.06385 41.6146 1.06385C41.5966 1.06385 41.5787 1.05488 41.5607 1.05488C41.5248 1.0459 41.4889 1.03692 41.4529 1.02794C41.417 1.01896 41.3811 1.00996 41.3452 1.00098C41.3093 0.992002 41.2733 0.983022 41.2374 0.974041C41.1566 0.95608 41.1207 0.9471 41.0847 0.9471Z" fill="#F6F6F6"/>
<path d="M85.1977 37.3011C82.252 37.0048 79.3243 36.6545 76.3876 36.2594L76.1182 36.2324C76.3068 36.6635 76.4774 37.0946 76.648 37.5256C76.8187 37.9567 76.9713 38.3878 77.124 38.8278C77.2677 39.2589 77.4114 39.699 77.5371 40.139C77.6628 40.5791 77.7796 41.0102 77.8784 41.4502C78.2645 43.0937 78.498 44.782 78.543 46.4704L78.8213 46.5512C81.9017 47.3146 84.9641 48.1229 88.0266 48.967C87.9996 48.5988 87.9727 48.2216 87.9368 47.8445C87.9008 47.4673 87.8559 47.0901 87.802 46.7039C87.7482 46.3177 87.6943 45.9316 87.6224 45.5454C87.5506 45.1592 87.4787 44.7641 87.3979 44.3689C87.3979 44.36 87.3979 44.351 87.3979 44.351C87.3979 44.342 87.3979 44.333 87.3979 44.333C87.3979 44.324 87.3979 44.315 87.3979 44.3061C87.3979 44.2971 87.3979 44.2881 87.3889 44.2881C87.3889 44.2701 87.38 44.2432 87.371 44.2252C87.371 44.1983 87.362 44.1803 87.353 44.1624C87.344 44.1444 87.344 44.1175 87.335 44.0995C87.335 44.0726 87.3261 44.0546 87.3171 44.0367C87.3171 44.0187 87.3081 44.0007 87.3081 43.9917C87.3081 43.9738 87.2991 43.9558 87.2991 43.9468C87.2991 43.9289 87.2901 43.9109 87.2901 43.9019C87.2901 43.884 87.2812 43.866 87.2812 43.857C87.2812 43.8391 87.2722 43.8211 87.2722 43.8121C87.2722 43.7942 87.2632 43.7762 87.2632 43.7672C87.2632 43.7493 87.2542 43.7313 87.2542 43.7223C87.2542 43.7044 87.2452 43.6864 87.2452 43.6774C87.2363 43.6415 87.2273 43.6056 87.2183 43.5786C87.2093 43.5427 87.2003 43.5068 87.1914 43.4798C87.1824 43.4439 87.1734 43.408 87.1644 43.3811C87.1554 43.3451 87.1465 43.3092 87.1375 43.2823C87.1285 43.2463 87.1195 43.2104 87.1105 43.1745C87.1016 43.1386 87.0926 43.1027 87.0836 43.0667C87.0746 43.0308 87.0656 42.9949 87.0566 42.959C87.0477 42.923 87.0387 42.8871 87.0297 42.8512C87.0297 42.8332 87.0207 42.8242 87.0207 42.8063C87.0207 42.7883 87.0117 42.7793 87.0117 42.7614C87.0117 42.7434 87.0028 42.7344 87.0028 42.7165C87.0028 42.6985 86.9938 42.6895 86.9938 42.6716C86.9938 42.6536 86.9848 42.6357 86.9758 42.6177C86.9758 42.5997 86.9668 42.5818 86.9579 42.5638C86.9579 42.5459 86.9489 42.5279 86.9399 42.5099C86.9309 42.492 86.9309 42.474 86.9219 42.456C86.913 42.4381 86.913 42.4201 86.904 42.4022C86.895 42.3842 86.895 42.3662 86.886 42.3483C86.886 42.3303 86.877 42.3124 86.868 42.2944C86.8591 42.2764 86.8591 42.2585 86.8501 42.2405C86.8501 42.2315 86.8411 42.2136 86.8411 42.2046C86.8411 42.1956 86.8321 42.1776 86.8321 42.1687C86.8321 42.1597 86.8232 42.1417 86.8232 42.1327C86.8232 42.1238 86.8142 42.1058 86.8142 42.0968C86.3741 40.4174 85.8353 38.8458 85.1977 37.3011C84.6588 37.2472 85.3593 37.6873 85.1977 37.3011Z" fill="#F6F6F6"/>
<path d="M19.8634 2.6543C16.8548 4.10917 14.1876 6.23759 12.1938 8.9318C15.0138 11.177 17.7888 13.476 20.5459 15.802L20.7884 15.9996C22.4049 13.5479 24.7489 11.653 27.4251 10.4495L27.1916 10.216C24.7129 7.72839 22.2702 5.2138 19.8634 2.6543C19.082 3.03149 20.3034 3.13027 19.8634 2.6543Z" fill="#F6F6F6"/>
<path d="M76.4956 55.6035C75.0587 58.163 72.8674 60.2286 70.272 61.5936L70.5055 61.8361C73.047 64.3866 75.5526 66.9731 78.0223 69.5954C80.8961 67.8981 83.3479 65.5182 85.0722 62.6534C82.2612 60.4172 79.4862 58.1181 76.7381 55.8011L76.4956 55.6035Z" fill="#F6F6F6"/>
<path d="M8.15234 22.3213C8.15234 22.6626 8.16133 23.0128 8.17031 23.372C8.17929 23.7223 8.20623 24.0815 8.23317 24.4407C8.26012 24.8 8.29604 25.1682 8.33196 25.5274C8.36788 25.8956 8.42177 26.2638 8.47565 26.641V26.65V26.659V26.6679V26.6769C8.47565 26.7039 8.48463 26.7218 8.48463 26.7488C8.48463 26.7757 8.49361 26.7937 8.49361 26.8206C8.49361 26.8476 8.50259 26.8655 8.50259 26.8925C8.50259 26.9194 8.51157 26.9374 8.51157 26.9643C8.51157 26.9823 8.51158 26.9913 8.52056 27.0092C8.52056 27.0272 8.52953 27.0362 8.52953 27.0541C8.52953 27.0721 8.53851 27.0811 8.53851 27.099C8.53851 27.117 8.53852 27.126 8.5475 27.1439C8.5475 27.1619 8.55648 27.1799 8.55648 27.1978C8.55648 27.2158 8.56546 27.2337 8.56546 27.2517C8.56546 27.2697 8.57444 27.2876 8.57444 27.3056C8.57444 27.3235 8.58342 27.3415 8.58342 27.3595C8.58342 27.3774 8.5924 27.4044 8.5924 27.4223C8.5924 27.4403 8.60138 27.4672 8.60138 27.4852C8.60138 27.5032 8.61036 27.5301 8.61036 27.5481C8.61036 27.566 8.61934 27.593 8.61934 27.6109C8.61934 27.6199 8.61934 27.6379 8.62832 27.6469C8.62832 27.6558 8.62832 27.6738 8.6373 27.6828C8.6373 27.6917 8.64628 27.7097 8.64628 27.7187C8.64628 27.7277 8.64628 27.7456 8.65526 27.7546C8.66424 27.7905 8.66425 27.8265 8.67323 27.8624C8.68221 27.8983 8.6822 27.9342 8.69118 27.9702C8.70017 28.0061 8.70017 28.042 8.70915 28.0779C8.71813 28.1138 8.72711 28.1498 8.72711 28.1857C8.73609 28.2216 8.74507 28.2575 8.74507 28.2935C8.75405 28.3294 8.76303 28.3653 8.76303 28.4012C8.77201 28.4371 8.781 28.4731 8.781 28.509C8.78998 28.5449 8.79896 28.5808 8.79896 28.6168C8.79896 28.6347 8.80794 28.6437 8.80794 28.6617C8.80794 28.6796 8.81691 28.6886 8.81691 28.7066C8.81691 28.7245 8.8259 28.7335 8.8259 28.7515C8.8259 28.7694 8.83488 28.7784 8.83488 28.7964C8.83488 28.8143 8.84386 28.8323 8.84386 28.8503C8.84386 28.8682 8.85284 28.8862 8.85284 28.9041C8.85284 28.9221 8.86182 28.9401 8.86182 28.958C8.86182 28.976 8.8708 28.9939 8.8708 29.0119C8.87978 29.0299 8.87978 29.0568 8.88876 29.0748C8.89774 29.0927 8.89775 29.1197 8.90673 29.1376C8.91571 29.1556 8.9157 29.1825 8.92468 29.2005C8.93367 29.2185 8.93367 29.2454 8.94265 29.2634C8.94265 29.2723 8.94264 29.2813 8.95163 29.2903C8.95163 29.2993 8.95163 29.3083 8.96061 29.3173C8.96061 29.3262 8.96061 29.3352 8.96959 29.3442C8.96959 29.3532 8.96959 29.3622 8.97857 29.3711C9.35576 31.0416 9.85867 32.685 10.4514 34.2926C13.6216 34.6069 16.7918 34.9751 19.953 35.3882L20.2583 35.4151C20.0787 34.9751 19.9081 34.5261 19.7554 34.077C19.5938 33.628 19.4501 33.1879 19.3154 32.7389C19.1806 32.2899 19.0549 31.8498 18.9382 31.4008C18.8214 30.9517 18.7226 30.5117 18.6328 30.0626C18.3005 28.3833 18.1389 26.6679 18.1748 24.9616L17.8605 24.8718C14.6274 24.0905 11.3854 23.2283 8.15234 22.3213C8.15234 22.6626 8.76303 22.4919 8.15234 22.3213Z" fill="#F6F6F6"/>
<path d="M48.8081 61.8008L48.853 62.0612C49.2751 64.962 49.6433 67.8807 49.9397 70.7994C50.4605 70.9611 50.9904 71.1227 51.5113 71.2754C52.0322 71.4281 52.562 71.5718 53.0919 71.7065C53.6218 71.8412 54.1426 71.9669 54.6725 72.0837C55.2024 72.2004 55.7232 72.3082 56.2531 72.407C56.289 72.416 56.3249 72.416 56.3609 72.4249C56.3968 72.4339 56.4327 72.4429 56.4686 72.4429C56.5046 72.4519 56.5405 72.4609 56.5764 72.4609C56.6123 72.4698 56.6483 72.4698 56.6842 72.4788C56.7201 72.4878 56.756 72.4878 56.7919 72.4968C56.8279 72.5058 56.8638 72.5058 56.8997 72.5147C56.9356 72.5237 56.9716 72.5237 57.0075 72.5327C57.0434 72.5417 57.0793 72.5417 57.1153 72.5507C59.109 72.874 61.1296 73.0536 63.1503 73.0985C62.1624 70.1259 61.2464 67.1263 60.3752 64.1178L60.3034 63.8484C59.8633 63.8484 59.4053 63.8394 58.9563 63.8214C58.4983 63.8035 58.0403 63.7675 57.5643 63.7316C57.0973 63.6867 56.6213 63.6328 56.1364 63.57C55.6514 63.5071 55.1664 63.4263 54.6725 63.3455C52.6967 62.9952 50.73 62.4743 48.8081 61.8008Z" fill="#F6F6F6"/>
<path d="M26.9399 46.4707L26.7603 46.5964C24.7037 48.0962 22.6112 49.5511 20.4648 50.9251C23.8326 54.8228 27.6494 58.3432 31.7985 61.3966C33.3521 59.4568 34.9507 57.5619 36.6211 55.7208L36.7738 55.5502C33.1276 52.9548 29.7958 49.9013 26.9399 46.4707Z" fill="#F6F6F6"/>
<path d="M59.6658 61.1448C59.6928 61.1987 59.7018 61.2616 59.7018 61.3065C59.7018 61.3603 59.6928 61.4052 59.6748 61.4412C59.6569 61.4771 59.6209 61.513 59.585 61.531C59.5491 61.5489 59.4952 61.5669 59.4413 61.5669C59.3605 61.5669 59.2886 61.5669 59.2078 61.5669C59.127 61.5669 59.0552 61.5669 58.9743 61.5669C58.8935 61.5669 58.8217 61.5669 58.7408 61.5669C58.66 61.5669 58.5792 61.5669 58.5073 61.5579C60.4292 61.6208 62.36 61.4681 64.228 61.046H64.0933C63.9047 61.0101 63.7251 60.8844 63.6263 60.7227C63.5186 60.5611 63.5006 60.2827 63.7431 60.2198C65.1441 59.9144 66.5091 59.4295 67.7934 58.7739C67.8113 58.7649 67.8203 58.7559 67.8383 58.7559C67.8562 58.7559 67.8742 58.747 67.8922 58.747C67.9101 58.747 67.9281 58.747 67.946 58.747C67.964 58.747 67.982 58.747 68.0089 58.7559C68.0448 58.7649 68.0808 58.7739 68.1167 58.7829C68.1526 58.8008 68.1885 58.8188 68.2244 58.8368C68.2604 58.8547 68.2963 58.8817 68.3232 58.9086C68.3592 58.9356 68.3861 58.9625 68.413 58.9984C68.5208 59.1331 68.6196 59.3577 68.4759 59.5013C69.6793 58.8727 70.8019 58.0824 71.7808 57.1484L71.5293 57.2023L71.1881 57.0317C71.0534 56.9059 70.9007 56.6365 71.0534 56.4659C71.9963 55.5588 72.8226 54.5171 73.4512 53.3675C73.5231 53.2598 73.6578 53.2418 73.7745 53.2598C73.7925 53.2598 73.8194 53.2687 73.8374 53.2777C73.8553 53.2867 73.8823 53.2957 73.9002 53.3047C73.9182 53.3136 73.9451 53.3226 73.9631 53.3406C73.9811 53.3496 74.008 53.3675 74.026 53.3855C74.1697 53.4932 74.3223 53.6908 74.2954 53.8794C74.942 52.7119 75.409 51.4546 75.7143 50.1614C75.6605 50.2782 75.5078 50.2961 75.391 50.2692L75.2294 50.2153C75.0498 50.1165 74.8163 49.883 74.8791 49.6585C74.951 49.3262 75.0228 48.9849 75.0767 48.6347C75.1306 48.2934 75.1755 47.9432 75.2114 47.584C75.2473 47.2337 75.2743 46.8745 75.2833 46.5152C75.3012 46.156 75.3012 45.7968 75.3012 45.4286C75.3012 45.3837 75.3102 45.3478 75.3282 45.3118C75.3461 45.2759 75.3731 45.249 75.4 45.231C75.427 45.213 75.4629 45.1951 75.5078 45.1861C75.5437 45.1771 75.5976 45.1771 75.6425 45.1861C75.6515 45.1861 75.6515 45.1861 75.6605 45.1861C75.6694 45.1861 75.6694 45.1861 75.6784 45.1951C75.6874 45.1951 75.6874 45.1951 75.6964 45.2041C75.7054 45.2041 75.7054 45.2041 75.7143 45.2131C75.9299 45.2849 76.1544 45.5004 76.1634 45.7429C76.1634 45.8058 76.1634 45.8776 76.1634 45.9405C76.1634 46.0034 76.1634 46.0752 76.1634 46.1381C76.1634 46.2009 76.1634 46.2728 76.1634 46.3356C76.1634 46.3985 76.1634 46.4704 76.1634 46.5332C76.1993 44.6832 75.9658 42.8332 75.5527 41.028C75.6066 41.2526 75.409 41.3424 75.2114 41.3064C75.1575 41.2975 75.0947 41.2705 75.0408 41.2436C74.9869 41.2077 74.933 41.1717 74.8791 41.1268C74.8342 41.0819 74.7893 41.028 74.7534 40.9742C74.7175 40.9203 74.6995 40.8664 74.6816 40.8125C75.7952 45.5543 75.4898 50.817 72.4723 54.8314C69.365 58.9715 64.1831 60.6868 59.1539 60.7227C59.3874 60.7766 59.585 60.9472 59.6658 61.1448Z" fill="#B07608"/>
<path d="M48.7632 59.6547L48.6823 59.6278C47.6316 59.2596 46.5988 58.8465 45.584 58.3974C48.3321 59.6188 51.2149 60.5618 54.1785 61.1006C54.1156 61.0916 54.0618 61.0647 54.0079 61.0377C53.954 61.0108 53.9001 60.9659 53.8552 60.921C53.8103 60.8761 53.7654 60.8222 53.7385 60.7773C53.7025 60.7234 53.6846 60.6695 53.6666 60.6156C53.6127 60.3822 53.8283 60.2474 54.0348 60.2834C51.6998 59.8613 49.4098 59.1787 47.2095 58.3076C47.3352 58.3525 47.452 58.4064 47.5777 58.4513C47.7034 58.4962 47.8202 58.5501 47.9459 58.595C48.0716 58.6399 48.1974 58.6848 48.3141 58.7297C48.4398 58.7746 48.5566 58.8195 48.6823 58.8644C48.9068 58.9452 49.1224 59.1608 49.1224 59.4122C49.1314 59.6098 48.9338 59.6906 48.7632 59.6547Z" fill="#B07608"/>
<path d="M25.2967 40.1214C25.2518 40.1304 25.2159 40.1483 25.1799 40.1753C25.153 40.2022 25.1261 40.2291 25.1171 40.2651C25.0991 40.301 25.0991 40.3369 25.0991 40.3818C25.0991 40.4267 25.1081 40.4716 25.1261 40.5255C25.135 40.5614 25.153 40.5884 25.162 40.6153C26.2127 42.3216 27.3802 43.9472 28.6555 45.5008L28.6824 45.5188L29.0596 45.7433L29.2841 45.7164C29.5176 45.6176 29.4278 45.3212 29.3021 45.1865C29.1404 44.9889 28.9788 44.7824 28.8171 44.5848C28.6555 44.3782 28.5028 44.1807 28.3412 43.9741C28.1885 43.7675 28.0358 43.57 27.8831 43.3634C27.7305 43.1569 27.5868 42.9503 27.4341 42.7438C27.4072 42.7078 27.3802 42.6629 27.3533 42.627C27.3263 42.5911 27.2994 42.5551 27.2724 42.5102C27.2455 42.4743 27.2186 42.4294 27.1916 42.3935C27.1647 42.3576 27.1377 42.3127 27.1108 42.2768C27.1108 42.2768 27.1108 42.2678 27.1018 42.2678C27.1018 42.2678 27.1018 42.2588 27.0928 42.2588C27.0928 42.2588 27.0928 42.2498 27.0839 42.2498C27.0839 42.2498 27.0839 42.2408 27.0749 42.2408C26.9761 42.0971 26.8773 41.9445 26.7785 41.8008C26.6797 41.6571 26.5809 41.5044 26.4821 41.3517C26.3834 41.1991 26.2936 41.0554 26.1948 40.9027C26.105 40.75 26.0062 40.6063 25.9164 40.4537L25.9074 40.4447L25.8984 40.4357L25.8894 40.4267L25.8804 40.4178C25.8535 40.3818 25.8176 40.3459 25.7906 40.319C25.7547 40.292 25.7188 40.2651 25.6829 40.2381C25.6469 40.2112 25.602 40.1932 25.5661 40.1753C25.5302 40.1573 25.4853 40.1483 25.4494 40.1393C25.4314 40.1393 25.4224 40.1304 25.4045 40.1304C25.3865 40.1304 25.3775 40.1304 25.3596 40.1304C25.3416 40.1304 25.3326 40.1304 25.3147 40.1304C25.3236 40.1124 25.3147 40.1214 25.2967 40.1214Z" fill="#FEFEFE"/>
<path d="M43.1501 56.4666C43.1052 56.4576 43.0693 56.4576 43.0244 56.4576C42.9885 56.4576 42.9526 56.4756 42.9166 56.4846C42.8897 56.5025 42.8538 56.5205 42.8358 56.5474C42.8179 56.5744 42.7999 56.6013 42.7909 56.6372C42.7819 56.6821 42.7819 56.736 42.7909 56.7899C42.7999 56.8438 42.8268 56.8977 42.8538 56.9515C42.8897 57.0054 42.9256 57.0503 42.9795 57.0952C43.0244 57.1401 43.0873 57.1761 43.1412 57.212C43.222 57.2569 43.3118 57.3018 43.3926 57.3467C43.4734 57.3916 43.5633 57.4365 43.6531 57.4814C43.7429 57.5263 43.8237 57.5712 43.9135 57.6071C44.0033 57.6521 44.0841 57.688 44.1739 57.7329C44.2009 57.7508 44.2368 57.7598 44.2637 57.7778C44.2907 57.7957 44.3176 57.8047 44.3536 57.8227C44.3805 57.8406 44.4074 57.8496 44.4344 57.8676C44.4613 57.8766 44.4883 57.8945 44.5152 57.9035C45.8713 58.5501 47.2633 59.1339 48.6823 59.6278L48.7631 59.6547C48.9337 59.6817 49.1313 59.6098 49.1223 59.4033C49.1223 59.3494 49.1133 59.2865 49.0864 59.2327C49.0684 59.1788 49.0325 59.1249 48.9966 59.08C48.9607 59.0351 48.9068 58.9902 48.8619 58.9453C48.808 58.9093 48.7541 58.8734 48.6912 58.8555C48.5655 58.8106 48.4488 58.7656 48.323 58.7207C48.1973 58.6758 48.0716 58.6309 47.9548 58.586C47.8291 58.5411 47.7123 58.4962 47.5866 58.4423C47.4609 58.3885 47.3351 58.3436 47.2184 58.2987C47.1825 58.2807 47.1466 58.2717 47.1106 58.2537C47.0747 58.2358 47.0388 58.2268 47.0029 58.2089C46.9669 58.1909 46.931 58.1819 46.8951 58.1639C46.8592 58.146 46.8233 58.137 46.7873 58.119C46.7694 58.1101 46.7514 58.1011 46.7245 58.0921C46.7065 58.0831 46.6885 58.0741 46.6616 58.0652C46.6436 58.0562 46.6257 58.0472 46.5987 58.0382C46.5808 58.0292 46.5628 58.0203 46.5359 58.0113C46.4999 57.9933 46.464 57.9843 46.4281 57.9664C46.3922 57.9484 46.3563 57.9394 46.3203 57.9215C46.2844 57.9035 46.2485 57.8945 46.2126 57.8766C46.1766 57.8586 46.1407 57.8496 46.1048 57.8317C46.0779 57.8227 46.0509 57.8137 46.0329 57.7957C46.006 57.7868 45.9791 57.7778 45.9611 57.7598C45.9342 57.7508 45.9072 57.7418 45.8893 57.7239C45.8623 57.7149 45.8354 57.7059 45.8174 57.688C45.8174 57.688 45.8084 57.688 45.7994 57.679C45.7994 57.679 45.7905 57.679 45.7905 57.67C45.7905 57.661 45.7815 57.67 45.7725 57.661C45.7725 57.661 45.7635 57.661 45.7635 57.652C45.557 57.5622 45.3504 57.4724 45.1439 57.3736C44.9373 57.2749 44.7307 57.1851 44.5332 57.0863C44.3266 56.9875 44.1201 56.8887 43.9225 56.7899C43.7159 56.6911 43.5184 56.5833 43.3118 56.4756C43.2938 56.4666 43.2849 56.4576 43.2669 56.4576C43.2489 56.4486 43.24 56.4486 43.222 56.4397C43.204 56.4307 43.195 56.4307 43.1771 56.4307C43.1771 56.4666 43.1591 56.4666 43.1501 56.4666Z" fill="#FEFEFE"/>
<path d="M63.6891 22.9146L63.9675 22.8607C63.9945 22.8427 64.0124 22.8068 64.0304 22.7798C64.0394 22.7439 64.0484 22.708 64.0394 22.6721C64.0394 22.6362 64.0214 22.5913 64.0034 22.5464C63.9855 22.5014 63.9585 22.4565 63.9316 22.4206C63.9226 22.4116 63.9226 22.4027 63.9136 22.3937C63.9047 22.3847 63.8957 22.3757 63.8957 22.3667C63.8867 22.3578 63.8777 22.3488 63.8687 22.3398C63.8598 22.3308 63.8508 22.3218 63.8418 22.3129C63.4736 21.9716 63.0964 21.6393 62.7192 21.316C62.342 20.9927 61.9558 20.6604 61.5607 20.3461C61.1655 20.0318 60.7704 19.7174 60.3663 19.4121C59.9621 19.1067 59.558 18.8014 59.1449 18.514C59.1359 18.505 59.1269 18.505 59.1269 18.4961C59.1179 18.4961 59.109 18.4871 59.109 18.4871C59.1 18.4871 59.091 18.4781 59.091 18.4781C59.082 18.4781 59.073 18.4691 59.073 18.4691C59.0641 18.4601 59.0461 18.4601 59.0371 18.4512C59.0281 18.4422 59.0102 18.4422 59.0012 18.4332C58.9922 18.4242 58.9743 18.4242 58.9653 18.4242C58.9563 18.4242 58.9383 18.4152 58.9294 18.4152C58.8934 18.4063 58.8665 18.4062 58.8306 18.4062C58.8036 18.4062 58.7677 18.4152 58.7408 18.4152C58.7138 18.4242 58.6869 18.4332 58.6689 18.4512C58.6509 18.4691 58.624 18.4871 58.615 18.514C58.4893 18.7116 58.6959 18.9631 58.8485 19.0708C60.4381 20.2024 61.9558 21.4238 63.3928 22.7439L63.6891 22.9146Z" fill="#FEFEFE"/>
<path d="M48.7722 13.6909C48.7902 13.6999 48.8081 13.6999 48.8261 13.7088C48.844 13.7178 48.862 13.7178 48.88 13.7268C48.8979 13.7358 48.9159 13.7358 48.9338 13.7448C48.9518 13.7537 48.9698 13.7537 48.9877 13.7627C49.0236 13.7717 49.0506 13.7897 49.0865 13.7986C49.1224 13.8076 49.1494 13.8256 49.1853 13.8346C49.2212 13.8436 49.2482 13.8615 49.2841 13.8705C49.32 13.8795 49.347 13.8974 49.3829 13.9064C49.3919 13.9064 49.3919 13.9154 49.4008 13.9154C49.4098 13.9154 49.4098 13.9244 49.4188 13.9244C49.4278 13.9244 49.4278 13.9334 49.4368 13.9334C49.4457 13.9334 49.4457 13.9423 49.4547 13.9423C49.6074 14.0052 49.7601 14.0591 49.9038 14.122C50.0564 14.1848 50.2091 14.2477 50.3528 14.3106C50.4965 14.3734 50.6581 14.4363 50.8018 14.4992C50.9545 14.562 51.1072 14.6339 51.2509 14.6967C52.1489 15.1008 53.038 15.5319 53.9092 15.9899L54.0708 16.0618C54.2055 16.0887 54.3851 16.0528 54.4121 15.8912C54.4211 15.8462 54.4211 15.8014 54.4121 15.7564C54.4031 15.7115 54.3851 15.6666 54.3582 15.6128C54.3312 15.5678 54.2953 15.523 54.2594 15.478C54.2145 15.4331 54.1696 15.3972 54.1157 15.3613C54.1157 15.3613 54.1067 15.3613 54.1067 15.3523C54.1067 15.3523 54.0977 15.3523 54.0977 15.3433C54.0977 15.3433 54.0888 15.3433 54.0888 15.3344C54.0888 15.3344 54.0798 15.3344 54.0798 15.3254C53.9541 15.2625 53.8283 15.1907 53.7026 15.1278C53.5769 15.0649 53.4511 15.0021 53.3254 14.9302C53.1997 14.8674 53.0739 14.8045 52.9482 14.7416C52.8225 14.6788 52.6968 14.6159 52.571 14.553C52.571 14.553 52.562 14.553 52.562 14.544C52.562 14.544 52.5531 14.5441 52.5531 14.5351C52.5531 14.5351 52.5441 14.5351 52.5441 14.5261C52.5441 14.5261 52.5351 14.5261 52.5351 14.5171C52.5171 14.5081 52.5082 14.4992 52.4902 14.4992C52.4722 14.4902 52.4633 14.4812 52.4453 14.4812C52.4273 14.4722 52.4184 14.4722 52.4004 14.4632C52.3824 14.4542 52.3735 14.4453 52.3555 14.4453C52.0591 14.3016 51.7628 14.1669 51.4664 14.0322C51.17 13.8974 50.8737 13.7717 50.5773 13.646C50.2809 13.5202 49.9846 13.3945 49.6882 13.2778C49.3919 13.161 49.0955 13.0443 48.7902 12.9365C48.7812 12.9365 48.7722 12.9275 48.7632 12.9275C48.7542 12.9275 48.7452 12.9275 48.7363 12.9185C48.7273 12.9185 48.7183 12.9185 48.7093 12.9096C48.7003 12.9006 48.6914 12.9096 48.6914 12.9006C48.6375 12.8916 48.5926 12.8916 48.5566 12.8916C48.5117 12.9006 48.4758 12.9096 48.4489 12.9275C48.413 12.9455 48.395 12.9724 48.377 12.9994C48.3591 13.0263 48.3501 13.0712 48.3501 13.1071C48.3501 13.161 48.3591 13.2059 48.386 13.2598C48.404 13.3137 48.4399 13.3586 48.4848 13.4125C48.5207 13.4574 48.5746 13.5023 48.6285 13.5382C48.6554 13.637 48.7093 13.6729 48.7722 13.6909Z" fill="#FEFEFE"/>
<path d="M71.2688 31.7696C71.3137 31.7606 71.3496 31.7426 71.3765 31.7247C71.4035 31.6977 71.4214 31.6708 71.4394 31.6438C71.4484 31.6079 71.4574 31.572 71.4574 31.5361C71.4574 31.4912 71.4484 31.4552 71.4214 31.4014C71.4214 31.3924 71.4125 31.3834 71.4125 31.3834C71.4125 31.3744 71.4035 31.3654 71.4035 31.3654C71.4035 31.3565 71.3945 31.3565 71.3945 31.3475C71.3945 31.3385 71.3855 31.3295 71.3855 31.3295C71.1341 30.9344 70.8736 30.5302 70.6042 30.1351C70.3348 29.7399 70.0564 29.3448 69.778 28.9586C69.4906 28.5724 69.2032 28.1773 68.8979 27.7911C68.5925 27.4049 68.2872 27.0278 67.9728 26.6506C67.9639 26.6416 67.9639 26.6326 67.9549 26.6236C67.9459 26.6147 67.9369 26.6057 67.9369 26.6057C67.9279 26.5967 67.919 26.5877 67.91 26.5877C67.901 26.5787 67.892 26.5787 67.883 26.5697C67.8651 26.5518 67.8381 26.5338 67.8112 26.5159C67.7843 26.4979 67.7573 26.4889 67.7394 26.471C67.7124 26.462 67.6855 26.444 67.6585 26.435C67.6316 26.4261 67.6046 26.4171 67.5777 26.4171C67.5058 26.3991 67.425 26.3991 67.3532 26.435C67.1376 26.5338 67.2634 26.8212 67.3711 26.9469C68.5746 28.3839 69.6792 29.8926 70.676 31.4732C70.7658 31.6349 70.9365 31.7516 71.1161 31.7875L71.2688 31.7696Z" fill="#FEFEFE"/>
<path d="M43.5361 12.2C43.59 12.209 43.6529 12.209 43.6978 12.2C43.7517 12.191 43.7876 12.1731 43.8235 12.1461C43.8594 12.1192 43.8864 12.0833 43.9043 12.0473C43.9223 12.0024 43.9223 11.9576 43.9133 11.9037C43.8684 11.6791 43.6798 11.4906 43.4553 11.4367L43.3475 11.4187C43.2937 11.4097 43.2398 11.4007 43.1859 11.3828C43.132 11.3738 43.0781 11.3648 43.0242 11.3469C42.9704 11.3379 42.9165 11.3289 42.8626 11.3199C42.8087 11.3109 42.7548 11.302 42.7009 11.293C42.683 11.293 42.665 11.284 42.656 11.284C42.6381 11.284 42.6201 11.275 42.6111 11.275C42.5932 11.275 42.5752 11.266 42.5662 11.266C42.5483 11.266 42.5303 11.2571 42.5213 11.2571C42.5123 11.2571 42.5034 11.257 42.4944 11.2481C42.4854 11.2481 42.4764 11.2481 42.4674 11.2391C42.4585 11.2391 42.4495 11.2391 42.4405 11.2301C42.4315 11.2301 42.4225 11.2301 42.4136 11.2211C42.1262 11.1672 41.8298 11.1223 41.5424 11.0864C41.255 11.0415 40.9677 11.0056 40.6803 10.9786C40.3929 10.9427 40.1055 10.9158 39.8181 10.8978C39.5308 10.8709 39.2523 10.8529 38.9739 10.835C38.965 10.835 38.956 10.835 38.947 10.835C38.938 10.835 38.929 10.835 38.9201 10.835C38.9111 10.835 38.9021 10.835 38.8931 10.835C38.8841 10.835 38.8752 10.835 38.8662 10.835C38.8572 10.835 38.8392 10.835 38.8303 10.835C38.8123 10.835 38.8033 10.835 38.7943 10.835C38.7854 10.835 38.7674 10.835 38.7584 10.835C38.7494 10.835 38.7315 10.835 38.7225 10.835C38.6955 10.835 38.6596 10.835 38.6327 10.835C38.6057 10.835 38.5698 10.835 38.5429 10.835C38.5159 10.835 38.48 10.835 38.4531 10.835C38.4261 10.835 38.3902 10.835 38.3633 10.835C38.3633 10.835 38.3633 10.835 38.3543 10.835C38.3543 10.835 38.3543 10.835 38.3453 10.835C38.3453 10.835 38.3453 10.835 38.3363 10.835C38.3363 10.835 38.3363 10.835 38.3273 10.835C38.1118 10.8439 38.031 11.0415 38.1118 11.2211C38.1836 11.4187 38.3902 11.5714 38.5968 11.6073L38.6776 11.6253C39.0458 11.6342 39.414 11.6522 39.7822 11.6791C40.1504 11.7061 40.5276 11.742 40.9048 11.7869C41.282 11.8318 41.6592 11.8767 42.0453 11.9396C42.4315 11.9935 42.8177 12.0653 43.2039 12.1372C43.2128 12.1372 43.2128 12.1372 43.2218 12.1372C43.2308 12.1372 43.2308 12.1372 43.2398 12.1372C43.2488 12.1372 43.2488 12.1372 43.2577 12.1372C43.2667 12.1372 43.2667 12.1372 43.2757 12.1372C43.3026 12.1461 43.3296 12.1461 43.3565 12.1551C43.3835 12.1641 43.4104 12.1641 43.4374 12.1731C43.4643 12.1821 43.4912 12.1821 43.5182 12.191C43.4823 12.1821 43.5092 12.191 43.5361 12.2Z" fill="#FEFEFE"/>
<path d="M74.6905 40.8311C74.6995 40.885 74.7265 40.9389 74.7624 40.9928C74.7983 41.0466 74.8342 41.1005 74.8881 41.1454C74.933 41.1903 74.9869 41.2352 75.0498 41.2622C75.1037 41.2981 75.1665 41.3161 75.2204 41.325C75.418 41.361 75.6156 41.2712 75.5617 41.0466C75.5527 41.0017 75.5437 40.9658 75.5347 40.9209C75.5258 40.894 75.5258 40.867 75.5168 40.8401C75.5078 40.8131 75.5078 40.7862 75.4988 40.7592C75.4898 40.7323 75.4898 40.7054 75.4809 40.6784C75.4809 40.6605 75.4719 40.6515 75.4719 40.6335C75.4719 40.6156 75.4629 40.6066 75.4629 40.5886C75.4629 40.5707 75.4539 40.5617 75.4539 40.5437C75.4539 40.5258 75.4449 40.5168 75.4449 40.4988C75.4449 40.4898 75.4359 40.4808 75.4359 40.4629C75.4359 40.4539 75.427 40.4449 75.427 40.427C75.427 40.418 75.418 40.409 75.418 40.391C75.418 40.3821 75.409 40.3731 75.409 40.3551C75.4 40.3372 75.4 40.3192 75.391 40.2922C75.3821 40.2743 75.3821 40.2563 75.3731 40.2294C75.3641 40.2114 75.3641 40.1935 75.3551 40.1665C75.3461 40.1486 75.3461 40.1306 75.3372 40.1037C75.3372 40.0947 75.3372 40.0947 75.3372 40.0857C75.3372 40.0767 75.3372 40.0767 75.3372 40.0677C75.3372 40.0588 75.3372 40.0588 75.3372 40.0498C75.3372 40.0408 75.3372 40.0408 75.3372 40.0318C75.3282 40.0139 75.3282 39.9959 75.3192 39.969C75.3102 39.951 75.3102 39.933 75.3012 39.9061C75.2923 39.8881 75.2923 39.8702 75.2833 39.8432C75.2743 39.8253 75.2743 39.8073 75.2653 39.7804C75.2653 39.7714 75.2653 39.7714 75.2653 39.7624C75.2653 39.7534 75.2653 39.7534 75.2563 39.7444C75.2563 39.7355 75.2563 39.7355 75.2563 39.7265C75.2563 39.7175 75.2563 39.7175 75.2474 39.7085C75.2384 39.6905 75.2384 39.6726 75.2294 39.6546C75.2294 39.6367 75.2204 39.6187 75.2114 39.6007C75.2024 39.5828 75.2024 39.5648 75.1935 39.5469C75.1845 39.5289 75.1845 39.5109 75.1755 39.493C75.1755 39.484 75.1665 39.475 75.1665 39.466C75.1665 39.457 75.1665 39.4481 75.1575 39.4391C75.1575 39.4301 75.1486 39.4211 75.1486 39.4121C75.1486 39.4032 75.1396 39.3942 75.1396 39.3852C75.1396 39.3672 75.1306 39.3583 75.1216 39.3403C75.1216 39.3223 75.1126 39.3044 75.1037 39.2954C75.0947 39.2774 75.0947 39.2595 75.0857 39.2505C75.0767 39.2325 75.0767 39.2236 75.0677 39.2056C75.0677 39.1966 75.0588 39.1876 75.0588 39.1697C75.0588 39.1607 75.0498 39.1517 75.0498 39.1337C75.0498 39.1248 75.0408 39.1158 75.0408 39.0978C75.0408 39.0888 75.0318 39.0799 75.0318 39.0619C75.0318 39.0529 75.0228 39.035 75.0228 39.026C75.0228 39.017 75.0139 38.999 75.0139 38.9901C75.0139 38.9811 75.0049 38.9631 75.0049 38.9541C75.0049 38.9452 74.9959 38.9272 74.9959 38.9182C74.9959 38.9002 74.9869 38.8823 74.9779 38.8733C74.969 38.8553 74.969 38.8374 74.96 38.8284C74.951 38.8104 74.951 38.7925 74.942 38.7835C74.933 38.7655 74.933 38.7476 74.9241 38.7386C74.9241 38.7296 74.924 38.7206 74.9151 38.7206C74.9151 38.7116 74.9151 38.7027 74.9061 38.7027C74.9061 38.6937 74.9061 38.6847 74.8971 38.6847C74.8971 38.6757 74.8971 38.6667 74.8881 38.6667C74.8163 38.4512 74.7444 38.2357 74.6726 38.0291C74.6007 37.8136 74.5199 37.598 74.4391 37.3915C74.3583 37.176 74.2774 36.9694 74.1876 36.7539C74.1068 36.5383 74.017 36.3318 73.9272 36.1162C73.9272 36.1072 73.9182 36.1072 73.9182 36.0983C73.9182 36.0893 73.9092 36.0893 73.9092 36.0803C73.9092 36.0713 73.9003 36.0713 73.9003 36.0623C73.9003 36.0534 73.8913 36.0534 73.8913 36.0444C73.8643 35.9995 73.8374 35.9636 73.8015 35.9276C73.7655 35.8917 73.7296 35.8558 73.6937 35.8289C73.6578 35.8019 73.6129 35.775 73.5769 35.757C73.532 35.739 73.4961 35.7211 73.4512 35.7121C73.4153 35.7031 73.3884 35.7031 73.3524 35.7031C73.2985 35.7031 73.2536 35.7121 73.2087 35.7301C73.1728 35.748 73.1369 35.775 73.1189 35.8109C73.101 35.8468 73.083 35.8827 73.083 35.9366C73.083 35.9815 73.092 36.0354 73.1189 36.0893C73.2716 36.4485 73.4243 36.8167 73.559 37.176C73.6937 37.5352 73.8284 37.9034 73.9541 38.2626C74.0799 38.6218 74.1876 38.9901 74.2954 39.3493C74.4032 39.7085 74.502 40.0767 74.5918 40.4359C74.5918 40.4359 74.5918 40.436 74.5918 40.4449C74.5918 40.4449 74.5918 40.4449 74.5918 40.4539C74.5918 40.4539 74.5918 40.4539 74.5918 40.4629C74.5918 40.4629 74.5918 40.4629 74.5918 40.4719C74.6007 40.4988 74.6007 40.5258 74.6097 40.5437C74.6187 40.5707 74.6187 40.5976 74.6277 40.6156C74.6367 40.6425 74.6367 40.6694 74.6457 40.6964C74.6816 40.7862 74.6816 40.8042 74.6905 40.8311Z" fill="#FEFEFE"/>
<path d="M33.9899 11.9219C34.0438 11.913 34.0797 11.895 34.1156 11.8681C34.1516 11.8411 34.1695 11.8052 34.1785 11.7603C34.1875 11.7154 34.1965 11.6705 34.1785 11.6256C34.1695 11.5717 34.1426 11.5268 34.1156 11.4729C34.0887 11.437 34.0618 11.3921 34.0258 11.3562C33.9899 11.3202 33.954 11.2933 33.9181 11.2664C33.8821 11.2394 33.8372 11.2125 33.7923 11.1945C33.7474 11.1765 33.7115 11.1586 33.6666 11.1496C33.6576 11.1496 33.6397 11.1496 33.6307 11.1406C33.6217 11.1406 33.6037 11.1406 33.5948 11.1406C33.5858 11.1406 33.5678 11.1406 33.5588 11.1406C33.5499 11.1406 33.5319 11.1406 33.5229 11.1406C32.068 11.3921 30.6311 11.8142 29.2751 12.4069C29.2661 12.4069 29.2661 12.4159 29.2571 12.4159C29.2481 12.4159 29.2481 12.4249 29.2391 12.4249C29.2301 12.4249 29.2301 12.4338 29.2212 12.4338L29.2122 12.4428C29.0595 12.5775 29.1493 12.8021 29.2571 12.9278L29.6522 13.1703L29.8768 13.1613C30.1911 13.0176 30.5144 12.8919 30.8467 12.7661C31.179 12.6404 31.5112 12.5326 31.8615 12.4249C32.2028 12.3171 32.553 12.2273 32.9122 12.1375C33.2715 12.0656 33.6307 11.9938 33.9899 11.9219C34.0438 11.913 33.6307 11.9938 33.9899 11.9219Z" fill="#FEFEFE"/>
<path d="M75.3101 45.4469C75.3191 45.8151 75.3101 46.1743 75.2922 46.5335C75.2742 46.8928 75.2562 47.252 75.2203 47.6022C75.1844 47.9525 75.1395 48.3027 75.0856 48.653C75.0317 48.9942 74.9689 49.3355 74.888 49.6768C74.8341 49.9103 75.0587 50.1438 75.2383 50.2336L75.3999 50.2875C75.4359 50.2964 75.4718 50.2964 75.5077 50.2964C75.5436 50.2964 75.5706 50.2875 75.5975 50.2785C75.6245 50.2695 75.6514 50.2515 75.6694 50.2425C75.6873 50.2246 75.7053 50.2066 75.7232 50.1797C75.7322 50.1617 75.7412 50.1438 75.7412 50.1258C75.8041 49.8564 75.8579 49.587 75.9118 49.3086C75.9567 49.0302 76.0016 48.7518 76.0376 48.4733C76.0735 48.1949 76.1004 47.9076 76.1184 47.6202C76.1364 47.3328 76.1543 47.0454 76.1633 46.7491C76.1633 46.7401 76.1633 46.7401 76.1633 46.7311C76.1633 46.7221 76.1633 46.7221 76.1633 46.7131C76.1633 46.7042 76.1633 46.7042 76.1633 46.6952C76.1633 46.6862 76.1633 46.6862 76.1633 46.6772C76.1633 46.6682 76.1633 46.6593 76.1633 46.6413C76.1633 46.6233 76.1633 46.6233 76.1633 46.6054C76.1633 46.5964 76.1633 46.5874 76.1633 46.5694C76.1633 46.5605 76.1633 46.5515 76.1633 46.5335C76.1633 46.4707 76.1633 46.3988 76.1633 46.336C76.1633 46.2731 76.1633 46.2012 76.1633 46.1384C76.1633 46.0755 76.1633 46.0037 76.1633 45.9408C76.1633 45.8779 76.1633 45.8061 76.1633 45.7432C76.1543 45.5007 75.9298 45.2852 75.7142 45.2134C75.7053 45.2134 75.7053 45.2044 75.6963 45.2044C75.6873 45.2044 75.6873 45.2044 75.6783 45.1954C75.6694 45.1954 75.6693 45.1954 75.6604 45.1864C75.6514 45.1864 75.6514 45.1864 75.6424 45.1864C75.5975 45.1774 75.5526 45.1774 75.5077 45.1864C75.4628 45.1954 75.4269 45.2044 75.3999 45.2313C75.373 45.2493 75.346 45.2852 75.3281 45.3122C75.3101 45.3571 75.3011 45.402 75.3101 45.4469C75.3101 45.8061 75.3011 45.402 75.3101 45.4469Z" fill="#FEFEFE"/>
<path d="M23.8774 18.1991C24.057 17.9297 24.2456 17.6603 24.4432 17.3998C24.6408 17.1394 24.8473 16.8879 25.0629 16.6454C25.2784 16.403 25.5029 16.1605 25.7454 15.936C25.9789 15.7114 26.2214 15.4869 26.4818 15.2804C26.6704 15.1277 26.5088 14.8493 26.3651 14.7325C26.3381 14.7056 26.3112 14.6876 26.2842 14.6697C26.2573 14.6517 26.2304 14.6338 26.1944 14.6158C26.1675 14.5978 26.1406 14.5889 26.1046 14.5799C26.0777 14.5709 26.0507 14.5619 26.0148 14.5529C25.9969 14.5529 25.9789 14.5439 25.9609 14.5439C25.943 14.5439 25.925 14.5439 25.9071 14.5439C25.8891 14.5439 25.8711 14.544 25.8532 14.5529C25.8352 14.5529 25.8173 14.5619 25.8083 14.5619C25.7813 14.5709 25.7634 14.5799 25.7364 14.5978C25.476 14.8134 25.2245 15.0379 24.9731 15.2804C24.7306 15.5139 24.4971 15.7563 24.2726 16.0168C24.0481 16.2682 23.8325 16.5287 23.626 16.7981C23.4194 17.0675 23.2308 17.3369 23.0422 17.6153C23.0422 17.6243 23.0332 17.6333 23.0332 17.6333C23.0332 17.6423 23.0243 17.6513 23.0243 17.6513C23.0243 17.6603 23.0153 17.6692 23.0153 17.6782C23.0153 17.6872 23.0153 17.6962 23.0063 17.7052C22.9704 17.8937 23.123 18.0824 23.2667 18.1901L23.5362 18.3159L23.8774 18.1991Z" fill="#FEFEFE"/>
<path d="M73.4508 53.3863C72.8222 54.5358 71.9959 55.5776 71.053 56.4846C70.9003 56.6553 71.053 56.9247 71.1877 57.0504L71.5289 57.2211L71.7804 57.1672L71.8073 57.1582C72.0498 56.9247 72.2833 56.6822 72.5078 56.4307C72.7323 56.1793 72.9479 55.9188 73.1544 55.6584C73.361 55.389 73.5586 55.1196 73.7472 54.8412C73.9358 54.5628 74.1064 54.2754 74.268 53.979C74.268 53.97 74.277 53.97 74.277 53.9611C74.277 53.9521 74.286 53.9521 74.286 53.9431C74.286 53.9341 74.286 53.9251 74.295 53.9251C74.295 53.9162 74.295 53.9072 74.304 53.8982C74.3309 53.7006 74.1782 53.512 74.0345 53.4043C74.0166 53.3863 73.9896 53.3773 73.9717 53.3594C73.9537 53.3504 73.9268 53.3324 73.9088 53.3234C73.8909 53.3145 73.8639 53.3055 73.8459 53.2965C73.828 53.2875 73.801 53.2875 73.7831 53.2785C73.6574 53.2606 73.5226 53.2785 73.4508 53.3863C73.2891 53.6737 73.4688 53.3594 73.4508 53.3863Z" fill="#FEFEFE"/>
<path d="M21.2104 26.2466C21.2553 26.2555 21.3002 26.2555 21.3362 26.2555C21.3721 26.2555 21.408 26.2376 21.4439 26.2286C21.4798 26.2106 21.5068 26.1927 21.5247 26.1657C21.5427 26.1388 21.5607 26.1118 21.5697 26.0669C21.5697 26.049 21.5786 26.04 21.5786 26.022C21.5876 25.7975 21.5966 25.573 21.6056 25.3575C21.6235 25.133 21.6415 24.9174 21.6595 24.7019C21.6774 24.4863 21.7044 24.2708 21.7313 24.0553C21.7582 23.8397 21.7942 23.6332 21.8301 23.4266C21.857 23.2919 21.884 23.1482 21.9109 23.0135C21.9379 22.8788 21.9648 22.7441 22.0007 22.6094C22.0277 22.4747 22.0636 22.34 22.0995 22.2142C22.1354 22.0795 22.1714 21.9538 22.2073 21.8191C22.2791 21.5946 22.0636 21.3611 21.884 21.2623C21.866 21.2533 21.848 21.2443 21.8391 21.2443C21.8301 21.2443 21.8121 21.2353 21.7942 21.2263C21.7762 21.2174 21.7672 21.2174 21.7493 21.2084C21.7313 21.2084 21.7223 21.1994 21.7044 21.1994C21.6684 21.1904 21.6325 21.1904 21.5966 21.1904C21.5607 21.1904 21.5337 21.1994 21.5068 21.2084C21.4798 21.2174 21.4529 21.2264 21.426 21.2443C21.399 21.2623 21.3811 21.2802 21.3721 21.2982C21.3721 21.2982 21.3631 21.3072 21.3631 21.3162C21.3631 21.3162 21.3541 21.3251 21.3541 21.3341C21.3541 21.3431 21.3451 21.3431 21.3451 21.3521C21.3451 21.3611 21.3451 21.3611 21.3362 21.37C21.2374 21.7023 21.1476 22.0526 21.0667 22.4028C20.9859 22.7531 20.923 23.1123 20.8692 23.4715C20.8153 23.8307 20.7704 24.199 20.7344 24.5761C20.6985 24.9533 20.6806 25.3216 20.6626 25.7077C20.6626 25.7167 20.6626 25.7167 20.6626 25.7257C20.6626 25.7347 20.6626 25.7436 20.6626 25.7436C20.6626 25.7526 20.6626 25.7616 20.6626 25.7616C20.6626 25.7706 20.6626 25.7796 20.6626 25.7796C20.7075 25.9951 20.9051 26.1657 21.1027 26.2376L21.2104 26.2466Z" fill="#FEFEFE"/>
<path d="M21.0845 30.431C21.0845 30.44 21.0845 30.44 21.0845 30.449C21.0935 30.5119 21.1114 30.5837 21.1204 30.6466C21.1294 30.6735 21.1294 30.7005 21.1384 30.7274C21.1473 30.7544 21.1473 30.7813 21.1563 30.8082C21.1653 30.8352 21.1653 30.8621 21.1743 30.8891V30.898V30.907V30.916C21.1743 30.925 21.1743 30.925 21.1743 30.934C21.1743 30.9519 21.1833 30.9789 21.1922 30.9968C21.2012 31.0148 21.2012 31.0417 21.2102 31.0597C21.2192 31.0777 21.2192 31.1046 21.2282 31.1226C21.2371 31.1405 21.2371 31.1675 21.2461 31.1854C21.2461 31.2034 21.2551 31.2124 21.2551 31.2303C21.2551 31.2393 21.2641 31.2573 21.2641 31.2663C21.2641 31.2752 21.2731 31.2932 21.2731 31.3022C21.2731 31.3112 21.282 31.3291 21.282 31.3381C21.282 31.3471 21.291 31.365 21.291 31.374C21.291 31.383 21.3 31.401 21.3 31.4099C21.3 31.4189 21.309 31.4369 21.309 31.4459C21.309 31.4548 21.318 31.4728 21.318 31.4818C21.318 31.4997 21.3269 31.5177 21.3269 31.5267C21.3269 31.5447 21.3359 31.5626 21.3359 31.5716C21.3359 31.5896 21.3449 31.6075 21.3449 31.6165C21.3449 31.6345 21.3539 31.6524 21.3539 31.6614C21.3539 31.6704 21.3629 31.6794 21.3629 31.6884C21.3629 31.6973 21.3719 31.7063 21.3719 31.7153C21.3719 31.7243 21.3808 31.7333 21.3808 31.7422C21.3808 31.7512 21.3808 31.7602 21.3898 31.7692C21.3898 31.7871 21.3988 31.8051 21.4078 31.8231C21.4168 31.841 21.4168 31.859 21.4257 31.8769C21.4347 31.8949 21.4347 31.9129 21.4437 31.9308C21.4527 31.9488 21.4527 31.9667 21.4617 31.9847C21.4617 31.9937 21.4617 32.0027 21.4706 32.0117C21.4706 32.0206 21.4706 32.0296 21.4796 32.0386C21.4796 32.0476 21.4796 32.0566 21.4886 32.0655C21.4886 32.0745 21.4886 32.0835 21.4976 32.0925C21.4976 32.1104 21.5066 32.1284 21.5155 32.1464C21.5155 32.1643 21.5245 32.1823 21.5335 32.2002C21.5335 32.2182 21.5425 32.2362 21.5515 32.2541C21.5604 32.2721 21.5605 32.29 21.5694 32.308C21.5694 32.317 21.5784 32.326 21.5784 32.335C21.5784 32.3439 21.5874 32.3529 21.5874 32.3619C21.5874 32.3709 21.5964 32.3799 21.5964 32.3888C21.5964 32.3978 21.6054 32.4068 21.6054 32.4158C21.6143 32.4337 21.6143 32.4517 21.6233 32.4697C21.6323 32.4876 21.6323 32.5056 21.6413 32.5236C21.6503 32.5415 21.6503 32.5595 21.6592 32.5774C21.6682 32.5954 21.6682 32.6134 21.6772 32.6313C21.6772 32.6403 21.6862 32.6493 21.6862 32.6583C21.6862 32.6672 21.6952 32.6762 21.6952 32.6852C21.6952 32.6942 21.7041 32.7032 21.7041 32.7211C21.7041 32.7301 21.7131 32.7391 21.7131 32.7481C21.7131 32.766 21.7221 32.775 21.7221 32.793C21.7311 32.8109 21.7311 32.8199 21.7401 32.8379C21.749 32.8558 21.749 32.8648 21.758 32.8828C21.758 32.9007 21.767 32.9097 21.776 32.9277C21.776 32.9367 21.785 32.9546 21.785 32.9636C21.785 32.9726 21.7939 32.9905 21.7939 32.9995C21.7939 33.0085 21.8029 33.0265 21.8029 33.0355C21.8029 33.0444 21.8119 33.0624 21.8119 33.0714C21.8119 33.0893 21.8209 33.0983 21.8299 33.1163C21.8299 33.1342 21.8389 33.1432 21.8478 33.1612C21.8478 33.1791 21.8568 33.1881 21.8658 33.2061C21.8658 33.224 21.8748 33.233 21.8838 33.251C21.8838 33.26 21.8927 33.2779 21.8927 33.2869C21.8927 33.2959 21.9017 33.3139 21.9017 33.3228C21.9017 33.3318 21.9107 33.3498 21.9107 33.3588C21.9107 33.3677 21.9197 33.3857 21.9197 33.3947C21.9197 33.4037 21.9287 33.4126 21.9287 33.4306C21.9287 33.4396 21.9376 33.4486 21.9376 33.4665C21.9376 33.4755 21.9466 33.4845 21.9466 33.5024C21.9466 33.5114 21.9556 33.5204 21.9556 33.5384C21.9646 33.5563 21.9646 33.5743 21.9736 33.5923C21.9825 33.6102 21.9825 33.6282 21.9915 33.6461C22.0005 33.6641 22.0005 33.6821 22.0095 33.7C22.0185 33.718 22.0185 33.7359 22.0274 33.7449C22.0274 33.7539 22.0364 33.7629 22.0364 33.7719C22.0364 33.7808 22.0454 33.7898 22.0454 33.7988C22.0454 33.8078 22.0544 33.8168 22.0544 33.8257C22.0544 33.8347 22.0634 33.8437 22.0634 33.8527C22.0723 33.8707 22.0813 33.8886 22.0813 33.9156C22.0903 33.9335 22.0993 33.9515 22.0993 33.9784C22.1083 33.9964 22.1173 34.0143 22.1173 34.0413C22.1262 34.0593 22.1352 34.0772 22.1352 34.1041C22.1352 34.1041 22.1352 34.1131 22.1442 34.1221C22.1442 34.1221 22.1442 34.1311 22.1532 34.1311C22.1532 34.1311 22.1532 34.1401 22.1622 34.1491V34.158C22.1711 34.185 22.1801 34.2029 22.1891 34.2299C22.1981 34.2568 22.2071 34.2748 22.216 34.3017C22.225 34.3287 22.234 34.3466 22.243 34.3736C22.252 34.4005 22.2609 34.4185 22.2699 34.4454C22.2699 34.4454 22.2699 34.4454 22.2699 34.4544C22.2699 34.4544 22.2699 34.4544 22.2699 34.4634C22.2699 34.4634 22.2699 34.4634 22.2699 34.4724C22.4046 34.8406 22.5393 35.2088 22.692 35.577C22.692 35.577 22.692 35.577 22.692 35.586C22.692 35.586 22.692 35.586 22.692 35.5949C22.692 35.5949 22.692 35.595 22.692 35.6039C22.692 35.6039 22.692 35.6039 22.692 35.6129C22.7728 35.8015 22.9794 35.9542 23.177 35.9901L23.2578 36.0081C23.3207 36.0081 23.3745 35.9991 23.4195 35.9811C23.4644 35.9632 23.4913 35.9272 23.5182 35.8913C23.5362 35.8554 23.5542 35.8105 23.5542 35.7566C23.5542 35.7027 23.5452 35.6488 23.5182 35.5949V35.586V35.577V35.568V35.559C23.3746 35.2088 23.2398 34.8585 23.1141 34.5083C22.9884 34.158 22.8716 33.8078 22.7549 33.4576C22.6471 33.1073 22.5393 32.757 22.4495 32.4068C22.3507 32.0565 22.2699 31.7063 22.1891 31.365C22.1801 31.3381 22.1801 31.3112 22.1711 31.2932C22.1622 31.2663 22.1622 31.2483 22.1532 31.2214C22.1442 31.1944 22.1442 31.1764 22.1352 31.1495C22.1262 31.1226 22.1262 31.1046 22.1173 31.0777C22.0993 30.9789 22.0724 30.8711 22.0544 30.7723C22.0454 30.6825 22.0095 30.5747 21.9646 30.4939C21.9287 30.44 21.8927 30.3951 21.8478 30.3502C21.8029 30.3053 21.749 30.2694 21.6952 30.2425C21.6413 30.2155 21.5784 30.1886 21.5155 30.1796C21.4527 30.1706 21.3988 30.1706 21.3449 30.1796C21.291 30.1886 21.2551 30.2065 21.2192 30.2335C21.1833 30.2604 21.1653 30.2963 21.1473 30.3323C21.0845 30.3323 21.0845 30.3772 21.0845 30.431Z" fill="#FEFEFE"/>
<path d="M54.026 60.2738C53.9632 60.2648 53.9093 60.2648 53.8644 60.2738C53.8105 60.2828 53.7746 60.3097 53.7386 60.3367C53.7027 60.3636 53.6758 60.4085 53.6668 60.4534C53.6488 60.4983 53.6488 60.5522 53.6668 60.6061C53.7207 60.8396 53.9452 61.0551 54.1787 61.1L54.2146 61.109C54.52 61.1629 54.8253 61.2168 55.1306 61.2617C55.418 61.3066 55.6964 61.3425 55.9838 61.3784C56.2622 61.4144 56.5496 61.4413 56.828 61.4682C57.1064 61.4952 57.3848 61.5132 57.6632 61.5311H57.6722H57.6812H57.6901H57.6991C57.7171 61.5311 57.744 61.5311 57.762 61.5311C57.7799 61.5311 57.8069 61.5311 57.8249 61.5311C57.8428 61.5311 57.8698 61.5311 57.8877 61.5311C57.9057 61.5311 57.9326 61.5311 57.9506 61.5311C57.9596 61.5311 57.9775 61.5311 57.9865 61.5311C57.9955 61.5311 58.0134 61.5311 58.0224 61.5311C58.0314 61.5311 58.0494 61.5311 58.0584 61.5311C58.0673 61.5311 58.0853 61.5311 58.0943 61.5311C58.1033 61.5311 58.1212 61.5311 58.1302 61.5311C58.1392 61.5311 58.1571 61.5311 58.1661 61.5311C58.1751 61.5311 58.1841 61.5311 58.202 61.5311C58.211 61.5311 58.229 61.5311 58.238 61.5311C58.2559 61.5311 58.2829 61.5311 58.3008 61.5311C58.3188 61.5311 58.3457 61.5311 58.3637 61.5311C58.3817 61.5311 58.4086 61.5311 58.4266 61.5311C58.4445 61.5311 58.4715 61.5311 58.4894 61.5311C58.5703 61.5311 58.6511 61.5311 58.7319 61.5401C58.8127 61.5401 58.8936 61.5401 58.9744 61.5401C59.0552 61.5401 59.136 61.5401 59.2079 61.5401C59.2887 61.5401 59.3606 61.5401 59.4414 61.5401C59.4953 61.5401 59.5492 61.5311 59.5851 61.5042C59.621 61.4862 59.6569 61.4503 59.6749 61.4144C59.6928 61.3784 59.7018 61.3335 59.7018 61.2797C59.7018 61.2258 59.6839 61.1719 59.6659 61.118C59.6479 61.0641 59.612 61.0192 59.5851 60.9743C59.5492 60.9294 59.5132 60.8845 59.4683 60.8486C59.4234 60.8127 59.3785 60.7767 59.3246 60.7588C59.2708 60.7318 59.2258 60.7139 59.172 60.7049H59.163H59.154H59.145H59.136H59.1271H59.1181H59.1091H59.1001C58.7229 60.7049 58.3368 60.6959 57.9506 60.6869C57.5644 60.669 57.1693 60.642 56.7741 60.6151C56.379 60.5792 55.9838 60.5432 55.5797 60.4894C55.1755 60.4355 54.7714 60.3816 54.3673 60.3097C54.3403 60.3097 54.3134 60.3008 54.2865 60.2918C54.2595 60.2918 54.2326 60.2828 54.2056 60.2738C54.1787 60.2738 54.1518 60.2648 54.1248 60.2559C54.0799 60.2828 54.053 60.2828 54.026 60.2738Z" fill="#FEFEFE"/>
<path d="M27.0925 42.2405C27.1284 42.2854 27.1554 42.3303 27.1823 42.3752C27.2092 42.4201 27.2452 42.456 27.2721 42.5009C27.299 42.5369 27.326 42.5818 27.3529 42.6177C27.3799 42.6536 27.4068 42.6985 27.4338 42.7344C28.5563 44.3061 29.8047 45.8328 31.1697 47.2787C32.5348 48.7246 34.0076 50.0986 35.5703 51.3739C37.1329 52.6491 38.7764 53.8256 40.4827 54.8943C42.189 55.954 43.9582 56.897 45.7723 57.6963C45.8083 57.7142 45.8442 57.7322 45.8801 57.7412C45.916 57.7591 45.943 57.7681 45.9699 57.7771C45.9969 57.7861 46.0238 57.8041 46.0507 57.813C46.0777 57.822 46.1046 57.831 46.1226 57.8489C46.1585 57.8669 46.1944 57.8759 46.2304 57.8939C46.2663 57.9118 46.3022 57.9208 46.3381 57.9388C46.3741 57.9567 46.41 57.9657 46.4459 57.9837C46.4818 58.0016 46.5177 58.0106 46.5537 58.0286C46.5716 58.0375 46.5896 58.0465 46.6165 58.0555C46.6345 58.0645 46.6525 58.0735 46.6794 58.0825C46.6974 58.0914 46.7153 58.1004 46.7423 58.1094C46.7602 58.1184 46.7782 58.1274 46.8051 58.1363C46.841 58.1543 46.877 58.1633 46.9129 58.1812C46.9488 58.1992 46.9847 58.2082 47.0207 58.2261C47.0566 58.2441 47.0925 58.2531 47.1284 58.271C47.1644 58.28 47.2003 58.298 47.2362 58.3159C47.793 58.5405 48.3588 58.747 48.9246 58.9446C49.4904 59.1422 50.0561 59.3218 50.6309 59.4834C51.1967 59.6451 51.7715 59.7978 52.3462 59.9325C52.921 60.0672 53.4868 60.1839 54.0615 60.2917C54.0885 60.2917 54.1154 60.3007 54.1424 60.3097C54.1693 60.3097 54.1962 60.3186 54.2232 60.3276C54.2501 60.3366 54.2771 60.3366 54.304 60.3456C54.3309 60.3546 54.3579 60.3546 54.3848 60.3635C54.789 60.4354 55.1931 60.4893 55.5972 60.5432C56.0014 60.597 56.3965 60.633 56.7917 60.6689C57.1868 60.7048 57.582 60.7318 57.9681 60.7407C58.3543 60.7587 58.7405 60.7677 59.1177 60.7587C62.0364 60.7407 64.6587 60.2109 66.886 59.232C69.1042 58.2621 70.9452 56.8521 72.3373 55.0829C73.7203 53.3227 74.6543 51.2032 75.0764 48.8054C75.4895 46.4165 75.3997 43.7403 74.7171 40.8575C74.7082 40.8305 74.7082 40.8036 74.6992 40.7856C74.6902 40.7587 74.6902 40.7317 74.6812 40.7048C74.6722 40.6779 74.6722 40.6509 74.6632 40.6329C74.6543 40.606 74.6543 40.5791 74.6453 40.5611C73.9807 37.9028 72.8851 35.2715 71.4302 32.7389C69.9843 30.2153 68.1882 27.7816 66.1226 25.5364C64.066 23.2912 61.74 21.2077 59.2434 19.3846C56.7378 17.5615 54.0526 15.9809 51.2775 14.7416C51.1248 14.6697 50.9722 14.6069 50.8285 14.544C50.6758 14.4812 50.5231 14.4183 50.3794 14.3554C50.2358 14.2926 50.0741 14.2297 49.9304 14.1668C49.7777 14.104 49.6251 14.0411 49.4814 13.9872C49.4275 13.9693 49.3826 13.9513 49.3377 13.9333C49.2928 13.9154 49.2569 13.8974 49.2209 13.8884C49.185 13.8705 49.1491 13.8615 49.1132 13.8525C49.0772 13.8435 49.0503 13.8256 49.0144 13.8166C48.5653 13.6459 48.1163 13.4933 47.6673 13.3406C47.2182 13.1879 46.7602 13.0532 46.3112 12.9185C45.8532 12.7838 45.4041 12.6671 44.9461 12.5503C44.4881 12.4336 44.0301 12.3348 43.5721 12.245C43.5451 12.236 43.5182 12.236 43.4912 12.227C43.4643 12.218 43.4374 12.218 43.4104 12.209C43.3835 12.2001 43.3565 12.2001 43.3296 12.1911C43.3026 12.1821 43.2757 12.1821 43.2488 12.1731C40.4109 11.6343 37.7526 11.5175 35.3547 11.7869C32.9479 12.0564 30.7836 12.712 28.9246 13.7088C27.0566 14.7057 25.4939 16.0528 24.3085 17.6873C23.114 19.3307 22.2788 21.2706 21.8837 23.4619C21.8478 23.6684 21.8118 23.8839 21.7849 24.0905C21.758 24.306 21.731 24.5216 21.713 24.7371C21.6951 24.9527 21.6771 25.1682 21.6592 25.3927C21.6412 25.6082 21.6322 25.8328 21.6322 26.0573C21.6232 26.4345 21.6232 26.8206 21.6322 27.2068C21.6412 27.593 21.6681 27.9792 21.7041 28.3743C21.74 28.7695 21.7849 29.1646 21.8478 29.5597C21.9106 29.9639 21.9735 30.368 22.0633 30.7721C22.0723 30.7991 22.0723 30.826 22.0813 30.853C22.0902 30.8799 22.0902 30.9069 22.0992 30.9248C22.1082 30.9518 22.1082 30.9787 22.1172 30.9967C22.1262 31.0236 22.1262 31.0505 22.1351 31.0775C22.1441 31.1044 22.1441 31.1224 22.1531 31.1493C22.1621 31.1763 22.1621 31.1942 22.1711 31.2212C22.18 31.2481 22.18 31.2661 22.189 31.293C22.198 31.32 22.198 31.3379 22.207 31.3649C22.2878 31.7151 22.3776 32.0654 22.4674 32.4156C22.5662 32.7659 22.665 33.1161 22.7728 33.4664C22.8805 33.8166 23.0063 34.1669 23.132 34.5171C23.2577 34.8673 23.3924 35.2176 23.5361 35.5678C23.6978 35.9809 23.8774 36.3851 24.066 36.7982C24.2546 37.2113 24.4432 37.6154 24.6497 38.0196C24.8563 38.4237 25.0718 38.8278 25.2874 39.232C25.5119 39.6361 25.7454 40.0312 25.9879 40.4264C26.0866 40.5881 26.1854 40.7497 26.2842 40.9114C26.383 41.064 26.4818 41.2257 26.5806 41.3783C26.6794 41.531 26.7782 41.6837 26.8769 41.8274C26.8949 41.9441 26.9937 42.0968 27.0925 42.2405C27.1284 42.2854 26.9937 42.0968 27.0925 42.2405Z" fill="#B07608"/>
<path d="M40.6895 55.8379C41.1654 56.1253 41.6504 56.4037 42.1353 56.6731L40.6895 55.8379Z" fill="#B07608"/>
<path d="M33.1096 49.3625C33.0827 49.3535 33.0557 49.3535 33.0288 49.3535C33.0018 49.3535 32.9749 49.3535 32.948 49.3625C32.921 49.3715 32.9031 49.3715 32.8761 49.3894C32.8581 49.3984 32.8312 49.4164 32.8132 49.4254C32.7863 49.4523 32.7594 49.4882 32.7504 49.5242C32.7414 49.5601 32.7324 49.605 32.7324 49.6499C32.7324 49.6948 32.7504 49.7397 32.7683 49.7846C32.7863 49.8295 32.8132 49.8744 32.8492 49.9193C32.8581 49.9283 32.8582 49.9373 32.8671 49.9462C32.8761 49.9552 32.8851 49.9642 32.8851 49.9732C32.8941 49.9822 32.9031 49.9911 32.9031 50.0001C32.912 50.0091 32.921 50.0181 32.93 50.0271C34.4747 51.455 36.1092 52.7662 37.8155 53.9875L37.8694 54.0055L38.0849 54.0863L38.4172 53.9786C38.4352 53.9337 38.4531 53.8888 38.4531 53.8349C38.4531 53.781 38.4441 53.7271 38.4172 53.6732C38.3992 53.6193 38.3633 53.5655 38.3184 53.5116C38.2735 53.4577 38.2286 53.4128 38.1657 53.3679C37.7526 53.0715 37.3395 52.7752 36.9354 52.4698C36.5313 52.1645 36.1271 51.8501 35.741 51.5268C35.3458 51.2035 34.9596 50.8802 34.5735 50.548C34.1873 50.2157 33.8101 49.8744 33.4329 49.5331C33.406 49.5062 33.379 49.4882 33.3521 49.4703C33.3251 49.4523 33.2982 49.4343 33.2713 49.4164C33.2443 49.3984 33.2174 49.3894 33.1815 49.3805C33.1635 49.3715 33.1366 49.3625 33.1096 49.3625Z" fill="#FEFEFE"/>
<path d="M48.6823 12.9549C48.6913 12.9549 48.7003 12.9548 48.7003 12.9638C48.7003 12.9728 48.7183 12.9638 48.7272 12.9728C48.7362 12.9728 48.7452 12.9728 48.7542 12.9818C48.7632 12.9818 48.7721 12.9908 48.7811 12.9908C49.9935 13.4308 51.188 13.9427 52.3465 14.4995C49.5175 13.1434 46.5359 12.0837 43.4556 11.4551C43.5184 11.4641 43.5723 11.491 43.6262 11.5179C43.6801 11.5449 43.725 11.5808 43.7609 11.6257C43.7968 11.6706 43.8328 11.7155 43.8597 11.7604C43.8866 11.8053 43.9046 11.8592 43.9136 11.9131C43.9675 12.1466 43.725 12.2454 43.5364 12.2095C45.3864 12.5866 47.2095 13.1165 48.9787 13.7811C48.9607 13.7721 48.9428 13.7721 48.9248 13.7631C48.9069 13.7541 48.8889 13.7541 48.8709 13.7451C48.853 13.7362 48.835 13.7362 48.817 13.7272C48.7991 13.7182 48.7811 13.7182 48.7632 13.7092C48.7003 13.6913 48.6464 13.6553 48.5925 13.6194C48.5386 13.5835 48.4937 13.5386 48.4488 13.4937C48.4129 13.4488 48.377 13.3949 48.3501 13.341C48.3321 13.2871 48.3141 13.2333 48.3141 13.1883C48.3141 13.1434 48.3231 13.1075 48.3411 13.0806C48.359 13.0536 48.386 13.0267 48.4129 13.0087C48.4488 12.9908 48.4848 12.9818 48.5207 12.9728C48.5925 12.9459 48.6374 12.9459 48.6823 12.9549Z" fill="#B07608"/>
<path d="M73.4688 35.775C73.5137 35.784 73.5496 35.8019 73.5946 35.8199C73.6395 35.8379 73.6754 35.8648 73.7113 35.8917C73.7472 35.9187 73.7831 35.9546 73.8191 35.9905C73.855 36.0264 73.8819 36.0624 73.9089 36.1073C73.1994 34.4728 72.3642 32.9012 71.4212 31.4014C71.4841 31.5541 71.4482 31.7427 71.2686 31.7786H71.1069C70.9273 31.7427 70.7656 31.6259 70.6668 31.4643C69.67 29.8837 68.5564 28.3659 67.362 26.938C67.2542 26.8122 67.1285 26.5339 67.344 26.4261C67.4158 26.3902 67.4967 26.3902 67.5685 26.4081C67.5955 26.4171 67.6224 26.4171 67.6493 26.4261C67.6763 26.4351 67.7032 26.444 67.7302 26.462C67.7571 26.471 67.784 26.4889 67.802 26.5069C67.8289 26.5249 67.8469 26.5428 67.8738 26.5608C66.6435 25.1059 65.3233 23.7319 63.9313 22.4387C64.0211 22.5554 64.1109 22.7709 63.9672 22.8787L63.6888 22.9326L63.3566 22.762C61.9286 21.4418 60.4019 20.2114 58.8123 19.0889C58.6686 18.9811 58.4531 18.7206 58.5788 18.532C58.5968 18.5051 58.6147 18.4871 58.6327 18.4692C58.6507 18.4512 58.6776 18.4422 58.7046 18.4333C58.7315 18.4243 58.7584 18.4243 58.7944 18.4243C58.8213 18.4243 58.8572 18.4243 58.8932 18.4333C58.9021 18.4333 58.9201 18.4422 58.9291 18.4422C58.9381 18.4422 58.956 18.4512 58.965 18.4512C58.974 18.4512 58.9919 18.4602 59.0009 18.4692C59.0099 18.4782 59.0279 18.4782 59.0368 18.4871C57.4562 17.3646 55.8038 16.3318 54.0885 15.4157C54.2411 15.5145 54.4477 15.7301 54.3848 15.9366C54.3579 16.0983 54.1783 16.1342 54.0436 16.1073L53.8819 16.0354C53.0108 15.5774 52.1217 15.1463 51.2236 14.7422C61.7939 19.475 71.7266 29.0305 74.5824 40.5437C74.2142 39.0529 73.7203 37.5981 73.1096 36.1881C73.0827 36.1342 73.0737 36.0803 73.0737 36.0354C73.0737 35.9905 73.0827 35.9456 73.1096 35.9097C73.1276 35.8738 73.1635 35.8468 73.1994 35.8289C73.2353 35.8109 73.2892 35.8019 73.3431 35.8019C73.406 35.766 73.4329 35.766 73.4688 35.775Z" fill="#B07608"/>
<path d="M21.839 23.4259C22.6203 19.1242 25.2965 15.487 29.2031 13.5023C33.3163 11.4187 38.1569 11.2481 42.6203 12.0204C41.3001 11.7869 39.962 11.6433 38.6239 11.6073L38.5431 11.5894C38.3365 11.5445 38.1299 11.4008 38.0581 11.2032C37.9773 11.0146 38.0581 10.826 38.2736 10.817C36.6841 10.7721 35.0855 10.8709 33.5139 11.1493C33.5588 11.1403 33.6127 11.1403 33.6665 11.1493C33.7114 11.1583 33.7474 11.1763 33.7923 11.1942C33.8372 11.2122 33.8731 11.2391 33.918 11.2661C33.9539 11.293 33.9988 11.3289 34.0258 11.3559C34.0617 11.3918 34.0886 11.4277 34.1156 11.4726C34.1515 11.5265 34.1695 11.5804 34.1784 11.6253C34.1874 11.6702 34.1874 11.7241 34.1784 11.76C34.1695 11.8049 34.1425 11.8408 34.1156 11.8678C34.0797 11.8947 34.0437 11.9127 33.9898 11.9217C33.6216 11.9845 33.2624 12.0653 32.9122 12.1462C32.5619 12.227 32.2117 12.3258 31.8614 12.4336C31.5202 12.5413 31.1789 12.6491 30.8466 12.7748C30.5143 12.9005 30.191 13.0263 29.8767 13.17L29.6522 13.179L29.257 12.9365C29.1492 12.8107 29.0594 12.5862 29.2121 12.4515C27.9907 12.9993 26.8322 13.6998 25.7994 14.562C25.8623 14.535 25.9431 14.535 26.006 14.553C26.0329 14.562 26.0599 14.571 26.0958 14.5799C26.1228 14.5889 26.1497 14.6069 26.1856 14.6159C26.2126 14.6338 26.2395 14.6518 26.2754 14.6697C26.3024 14.6877 26.3293 14.7147 26.3563 14.7326C26.491 14.8494 26.6526 15.1278 26.473 15.2804C26.2215 15.487 25.9791 15.7115 25.7366 15.936C25.5031 16.1605 25.2786 16.403 25.054 16.6455C24.8385 16.888 24.632 17.1394 24.4344 17.3999C24.2368 17.6603 24.0482 17.9297 23.8686 18.1992L23.5363 18.298L23.2669 18.1722C23.1232 18.0645 22.9705 17.8759 23.0064 17.6873C22.288 18.8009 21.7402 20.0133 21.354 21.2885C21.4258 21.1808 21.5695 21.1628 21.6863 21.1897C21.7042 21.1897 21.7132 21.1987 21.7312 21.1987C21.7492 21.1987 21.7581 21.2077 21.7761 21.2167C21.7941 21.2257 21.803 21.2257 21.821 21.2346C21.839 21.2436 21.8479 21.2526 21.8659 21.2526C22.0455 21.3514 22.2611 21.5849 22.1892 21.8094C22.1533 21.9351 22.1174 22.0698 22.0814 22.2046C22.0455 22.3393 22.0186 22.465 21.9827 22.5997C21.9557 22.7344 21.9198 22.8691 21.8928 23.0038C21.8839 23.1475 21.8569 23.2912 21.839 23.4259C22.2251 21.2706 21.8569 23.2912 21.839 23.4259Z" fill="#B07608"/>
<path d="M20.6712 25.7705C20.6353 27.3331 20.7879 28.8958 21.0933 30.4315C21.0843 30.3776 21.0933 30.3327 21.1022 30.2968C21.1202 30.2609 21.1382 30.2249 21.1741 30.198C21.21 30.1711 21.2459 30.1531 21.2998 30.1441C21.3447 30.1351 21.4076 30.1351 21.4705 30.1441C21.704 30.189 21.9375 30.3776 21.9824 30.6201L22.0093 30.7368C21.704 29.2011 21.5423 27.6385 21.5782 26.0669C21.5423 26.2285 21.3627 26.2824 21.219 26.2555L21.1202 26.2375C20.9137 26.1567 20.7161 25.986 20.6712 25.7705C20.6622 26.1387 20.6802 25.8154 20.6712 25.7705Z" fill="#B07608"/>
<path d="M23.1319 35.9631C22.9254 35.9272 22.7278 35.7745 22.647 35.5859C23.3385 37.2923 24.1827 38.9447 25.1346 40.5253C25.1167 40.4804 25.1077 40.4265 25.1077 40.3816C25.1077 40.3367 25.1167 40.3008 25.1256 40.2649C25.1436 40.2289 25.1616 40.202 25.1885 40.1751C25.2155 40.1481 25.2604 40.1302 25.3053 40.1212C25.3142 40.1212 25.3322 40.1212 25.3412 40.1122C25.3502 40.1122 25.3681 40.1122 25.3861 40.1122C25.4041 40.1122 25.413 40.1122 25.431 40.1122C25.4489 40.1122 25.4579 40.1122 25.4759 40.1212C25.6465 40.1571 25.8082 40.2649 25.9159 40.3996C24.973 38.8459 24.1468 37.2204 23.4642 35.541V35.55V35.559V35.568V35.5769C23.554 35.7925 23.4463 35.9901 23.2038 35.9901L23.1319 35.9631Z" fill="#B07608"/>
<path d="M42.1351 56.6724C42.6201 56.9418 43.114 57.2023 43.6079 57.4537C43.4553 57.3729 43.2936 57.2921 43.1409 57.2113C43.0781 57.1753 43.0242 57.1394 42.9793 57.0945C42.9344 57.0496 42.8895 56.9957 42.8536 56.9508C42.8176 56.8969 42.7997 56.8431 42.7907 56.7892C42.7817 56.7353 42.7817 56.6814 42.7907 56.6365C42.7997 56.6006 42.8176 56.5647 42.8356 56.5467C42.8536 56.5198 42.8805 56.5018 42.9164 56.4838C42.9434 56.4659 42.9793 56.4569 43.0242 56.4569C43.0601 56.4569 43.105 56.4569 43.1499 56.4659C43.1679 56.4659 43.1769 56.4748 43.1948 56.4748C43.2128 56.4748 43.2218 56.4838 43.2397 56.4838C43.2577 56.4928 43.2667 56.4928 43.2846 56.5018C43.3026 56.5108 43.3116 56.5198 43.3295 56.5198C43.5361 56.6275 43.7337 56.7263 43.9402 56.8341C44.1468 56.9329 44.3444 57.0316 44.5509 57.1304C44.7575 57.2292 44.964 57.328 45.1616 57.4178C45.3682 57.5166 45.5747 57.6064 45.7813 57.6962C38.5249 54.4811 32.0498 49.2095 27.4517 42.7344C28.0444 43.5696 28.6641 44.3868 29.3196 45.1771C29.4454 45.3208 29.5352 45.6172 29.3017 45.707L29.0772 45.7339L28.691 45.5184C29.9842 47.0721 31.3762 48.5449 32.858 49.9189C32.7593 49.7842 32.6784 49.5597 32.8221 49.425C32.8401 49.407 32.858 49.3981 32.885 49.3891C32.9029 49.3801 32.9299 49.3711 32.9568 49.3621C32.9838 49.3532 33.0107 49.3532 33.0377 49.3532C33.0646 49.3532 33.0915 49.3532 33.1185 49.3621C33.1454 49.3711 33.1724 49.3711 33.2083 49.3891C33.2352 49.3981 33.2622 49.416 33.2981 49.425C33.325 49.443 33.352 49.4609 33.3789 49.4789C33.4059 49.4969 33.4328 49.5238 33.4598 49.5417C33.8369 49.883 34.2141 50.2243 34.6003 50.5566C34.9865 50.8889 35.3726 51.2122 35.7678 51.5355C36.1629 51.8588 36.5581 52.1731 36.9622 52.4784C37.3664 52.7838 37.7795 53.0801 38.1926 53.3765C38.2554 53.4214 38.3003 53.4663 38.3453 53.5202C38.3902 53.5741 38.4171 53.628 38.444 53.6819C38.462 53.7357 38.48 53.7896 38.48 53.8435C38.48 53.8974 38.471 53.9423 38.444 53.9872L38.1118 54.095L37.8962 54.0141C38.8122 54.6608 39.7462 55.2714 40.7072 55.8552" fill="#B07608"/>
<g opacity="0.7">
<path opacity="0.7" d="M9.61609 31.7601C9.3826 30.9788 9.17604 30.1885 8.98744 29.3982C9.16705 30.1885 9.3826 30.9788 9.61609 31.7601ZM55.732 72.3079C53.7742 71.9218 51.8433 71.4099 49.9394 70.8082C49.6431 67.8895 49.2749 64.9707 48.8528 62.0699L48.8079 61.8095C49.2928 61.9801 49.7778 62.1418 50.2717 62.2855C50.7567 62.4382 51.2506 62.5729 51.7446 62.7076C52.1577 62.8154 52.5708 62.9141 52.9839 63.0039C45.503 37.5257 34.807 0.0851675 34.807 0.0851675C31.3494 -0.130369 27.8469 0.0941444 24.4881 0.965272C22.8896 1.37838 21.3539 1.96213 19.881 2.68059C19.872 2.67161 19.8721 2.6716 19.8631 2.66262C18.2196 3.45293 16.6839 4.45876 15.3009 5.63523C15.2739 5.66218 15.238 5.68911 15.2111 5.71606C14.6992 6.15611 14.2142 6.61413 13.7472 7.09909C13.3072 7.55711 12.903 8.04207 12.5079 8.54499C12.454 8.61683 12.3911 8.68868 12.3372 8.76053C12.2923 8.82339 12.2385 8.87727 12.1936 8.94014L12.2025 8.94911C11.8523 9.42509 11.502 9.91004 11.1967 10.4309C8.27796 15.2805 7.66728 21.1269 8.47554 26.6501C8.26899 25.2221 8.15224 23.7762 8.15224 22.3304C11.3853 23.2374 14.6273 24.0996 17.8783 24.9078L18.1927 24.9976C18.1837 25.4018 18.1837 25.8059 18.2016 26.219C18.2106 26.6321 18.2376 27.0542 18.2735 27.4763C18.3094 27.8984 18.3633 28.3295 18.4262 28.7695C18.489 29.2096 18.5609 29.6496 18.6507 30.0987C19.0099 31.9307 19.5757 33.7179 20.2762 35.4512L19.9708 35.4242C16.8096 35.0111 13.6394 34.6429 10.4693 34.3286C11.6457 37.5437 13.1814 40.624 14.9955 43.5248C16.621 46.1292 18.4711 48.5989 20.4738 50.9339C20.5097 50.9788 20.5546 51.0237 20.5905 51.0686C21.1473 51.7152 21.7221 52.3528 22.3058 52.9725C22.3597 53.0264 22.4136 53.0803 22.4585 53.1431C23.0602 53.7808 23.6709 54.4004 24.2906 55.0111C24.3534 55.074 24.4073 55.1369 24.4702 55.1907C25.0809 55.7835 25.7005 56.3582 26.3292 56.924C26.41 56.9959 26.4908 57.0767 26.5806 57.1485C27.2811 57.7772 27.9996 58.3968 28.727 58.9896C28.745 59.0075 28.7719 59.0255 28.7899 59.0435C30.0651 60.0942 31.3584 61.109 32.7055 62.061C39.5667 66.9555 47.4248 70.6914 55.732 72.3079ZM10.4603 34.3196C10.4513 34.3016 10.4513 34.2837 10.4423 34.2657C10.4513 34.2837 10.4513 34.3016 10.4603 34.3196Z" fill="url(#paint0_linear)"/>
</g>
<defs>
<linearGradient id="paint0_linear" x1="8.14667" y1="36.1565" x2="55.7297" y2="36.1565" gradientUnits="userSpaceOnUse">
<stop stop-color="white"/>
<stop offset="0.9062"/>
</linearGradient>
</defs>
</svg>
