<svg width="97" height="95" viewBox="0 0 97 95" fill="none" xmlns="http://www.w3.org/2000/svg">
<path d="M86.2631 30.8691C88.2031 33.0991 90.1431 35.3191 92.0731 37.5391C93.2031 38.8391 94.3331 40.1291 95.4531 41.4291C95.6531 41.6591 96.0831 41.9891 96.1931 42.2791C96.3131 42.5891 96.0731 43.3291 96.0131 43.6691C95.8431 44.6291 95.6331 45.5891 95.4031 46.5391C94.3531 50.7791 92.7031 54.8691 90.6531 58.7291C87.8031 64.0991 84.0531 69.2391 79.6531 73.8791C75.2531 78.5191 70.2131 82.6491 64.8031 85.9891C59.4031 89.3191 53.6331 91.8691 47.7631 93.3491C44.2431 89.7091 40.7231 86.0591 37.2031 82.4191C43.2731 80.8491 49.0531 78.2191 54.3731 74.9091C59.8431 71.5191 64.9331 67.3391 69.3831 62.6491C73.8331 57.9591 77.6331 52.7791 80.5331 47.3691C83.4331 41.9891 85.4231 36.3991 86.2631 30.8691Z" fill="#961C2E"/>
<path d="M81.0234 8.33789C84.1534 11.9879 87.2934 15.6479 90.4234 19.2979C91.6034 20.6779 92.6834 22.1179 93.5534 23.7179C94.3234 25.1279 94.9534 26.6579 95.4434 28.2779C95.9334 29.9079 96.2834 31.6379 96.4734 33.4579C96.6634 35.2879 96.7034 37.2079 96.5634 39.2179C93.3634 35.5379 90.1734 31.8579 86.9834 28.1779C86.6734 27.8179 86.6534 27.8479 86.6434 27.3779C86.5934 25.5679 86.7434 23.7879 86.5634 21.9679C86.3834 20.1379 86.0434 18.4079 85.5634 16.7779C85.0834 15.1479 84.4534 13.6279 83.6934 12.2179C82.9334 10.8279 82.0434 9.52789 81.0234 8.33789Z" fill="#961C2E"/>
<path d="M36.2332 82.6585C39.7532 86.2985 43.2732 89.9385 46.7932 93.5785C43.8232 94.2685 40.7932 94.6985 37.7432 94.7685C34.8932 94.8285 32.2132 94.5785 29.7232 94.0285C27.2432 93.4785 24.9632 92.6385 22.9032 91.5385C20.8532 90.4385 19.0232 89.0785 17.4332 87.4785C13.8832 83.8985 10.3332 80.3185 6.7832 76.7285C8.3832 78.3385 10.2332 79.6985 12.2432 80.7585C14.3032 81.8485 16.5932 82.6785 19.0732 83.2085C21.5732 83.7385 24.2632 83.9785 27.1232 83.8985C30.0032 83.8285 33.0432 83.4185 36.2332 82.6585Z" fill="#961C2E"/>
<path d="M44.094 80.1289C47.594 83.7889 51.104 87.4489 54.604 91.1089C54.044 91.3289 53.474 91.5389 52.904 91.7489C52.334 91.9589 51.764 92.1489 51.194 92.3389C50.624 92.5289 50.054 92.6989 49.484 92.8689C48.914 93.0389 48.344 93.1889 47.764 93.3389C47.724 93.3489 47.684 93.3589 47.644 93.3689C47.604 93.3789 47.564 93.3889 47.524 93.3989C47.484 93.4089 47.444 93.4189 47.404 93.4289C47.364 93.4389 47.324 93.4489 47.284 93.4589C47.244 93.4689 47.204 93.4789 47.164 93.4889C47.124 93.4989 47.084 93.5089 47.044 93.5189C47.004 93.5289 46.964 93.5389 46.924 93.5489C46.884 93.5589 46.844 93.5689 46.804 93.5789C46.234 93.7089 45.664 93.8289 45.104 93.9389C44.544 94.0489 43.984 94.1389 43.434 94.2289C42.884 94.3189 42.334 94.3889 41.794 94.4589C41.254 94.5289 40.714 94.5789 40.184 94.6289C36.654 91.0089 33.114 87.3789 29.584 83.7589C30.124 83.7089 30.664 83.6489 31.204 83.5789C31.754 83.5089 32.304 83.4289 32.854 83.3389C33.404 83.2489 33.974 83.1489 34.534 83.0389C35.094 82.9289 35.664 82.7989 36.244 82.6689C36.284 82.6589 36.324 82.6489 36.364 82.6389C36.404 82.6289 36.444 82.6189 36.484 82.6089C36.524 82.5989 36.564 82.5889 36.604 82.5789C36.644 82.5689 36.684 82.5589 36.724 82.5489C36.764 82.5389 36.804 82.5289 36.844 82.5189C36.884 82.5089 36.924 82.4989 36.964 82.4889C37.004 82.4789 37.044 82.4689 37.084 82.4589C37.124 82.4489 37.164 82.4389 37.204 82.4289C37.784 82.2789 38.354 82.1189 38.934 81.9489C39.514 81.7789 40.084 81.5989 40.654 81.3989C41.224 81.2089 41.804 81.0089 42.374 80.7989C42.954 80.5789 43.524 80.3589 44.094 80.1289Z" fill="#9A95A0"/>
<path d="M86.6333 22.9492C88.3733 24.9592 90.1133 26.9692 91.8433 28.9792C92.9833 30.2892 94.1133 31.6092 95.2533 32.9192C95.5933 33.3092 95.9833 33.6892 96.2833 34.1092C96.6233 34.5992 96.5933 34.9092 96.6233 35.5792C96.6433 35.9692 96.6533 36.3692 96.6533 36.7692C96.6533 37.1692 96.6533 37.5792 96.6333 37.9892C96.6233 38.3992 96.6032 38.8092 96.5732 39.2292V39.2392V39.2492V39.2592V39.2692C96.5732 39.2992 96.5733 39.3192 96.5633 39.3492C96.5633 39.3792 96.5633 39.3992 96.5633 39.4292C96.5633 39.4592 96.5633 39.4792 96.5533 39.5092C96.5533 39.5392 96.5533 39.5592 96.5433 39.5892C96.5433 39.6092 96.5433 39.6192 96.5433 39.6392C96.5433 39.6592 96.5433 39.6692 96.5433 39.6892C96.5433 39.7092 96.5433 39.7192 96.5433 39.7392C96.5433 39.7592 96.5433 39.7692 96.5433 39.7892C96.5433 39.8092 96.5433 39.8292 96.5433 39.8492C96.5433 39.8692 96.5433 39.8892 96.5433 39.9092C96.5433 39.9292 96.5433 39.9492 96.5433 39.9692C96.5433 39.9892 96.5433 40.0092 96.5333 40.0292C96.5333 40.0492 96.5333 40.0792 96.5233 40.0992C96.5233 40.1192 96.5233 40.1492 96.5133 40.1692C96.5133 40.1892 96.5133 40.2192 96.5033 40.2392C96.5033 40.2592 96.5033 40.2892 96.4933 40.3092C96.4933 40.3192 96.4933 40.3392 96.4933 40.3492C96.4933 40.3592 96.4933 40.3792 96.4933 40.3892C96.4933 40.3992 96.4933 40.4192 96.4933 40.4292C96.4933 40.4392 96.4933 40.4592 96.4933 40.4692C96.4933 40.5092 96.4833 40.5492 96.4833 40.5892C96.4833 40.6292 96.4733 40.6692 96.4733 40.7092C96.4733 40.7492 96.4632 40.7892 96.4632 40.8292C96.4632 40.8692 96.4533 40.9092 96.4533 40.9492C96.4533 40.9892 96.4433 41.0292 96.4433 41.0692C96.4433 41.1092 96.4333 41.1492 96.4333 41.1892C96.4333 41.2292 96.4233 41.2692 96.4233 41.3092C96.4233 41.3492 96.4133 41.3892 96.4133 41.4292C96.4133 41.4492 96.4133 41.4592 96.4033 41.4792C96.4033 41.4992 96.4033 41.5092 96.3933 41.5292C96.3933 41.5492 96.3933 41.5592 96.3833 41.5792C96.3833 41.5992 96.3833 41.6092 96.3733 41.6292C96.3733 41.6492 96.3633 41.6692 96.3633 41.6892C96.3633 41.7092 96.3532 41.7292 96.3532 41.7492C96.3532 41.7692 96.3433 41.7892 96.3433 41.8092C96.3433 41.8292 96.3333 41.8492 96.3333 41.8692C96.3333 41.8892 96.3232 41.9192 96.3232 41.9392C96.3232 41.9692 96.3133 41.9892 96.3133 42.0092C96.3133 42.0292 96.3033 42.0592 96.3033 42.0792C96.3033 42.0992 96.2933 42.1292 96.2933 42.1492C96.2933 42.1592 96.2933 42.1692 96.2933 42.1792C96.2933 42.1892 96.2933 42.1992 96.2933 42.2092C96.2933 42.2192 96.2933 42.2292 96.2933 42.2392C96.2933 42.2492 96.2933 42.2592 96.2933 42.2692C96.2233 42.7292 96.1533 43.1992 96.0633 43.6592C95.9833 44.1192 95.8833 44.5892 95.7833 45.0492C95.6833 45.5092 95.5733 45.9792 95.4533 46.4392C95.3333 46.8992 95.2133 47.3692 95.0833 47.8292C93.3333 45.8292 91.5732 43.8292 89.8232 41.8292C88.6832 40.5292 87.5433 39.2292 86.4033 37.9292C86.0633 37.5392 85.6533 37.1592 85.3633 36.7392C85.3033 36.6492 85.1432 36.5492 85.1032 36.4492C84.9932 36.1492 85.3633 35.3492 85.4533 35.0092C85.5733 34.5392 85.6833 34.0792 85.7933 33.6092C85.8933 33.1392 85.9933 32.6792 86.0833 32.2092C86.1733 31.7392 86.2532 31.2792 86.3232 30.8192C86.3232 30.8092 86.3232 30.7992 86.3232 30.7892C86.3232 30.7792 86.3232 30.7692 86.3232 30.7592C86.3232 30.7492 86.3232 30.7392 86.3232 30.7292C86.3232 30.7192 86.3232 30.7092 86.3232 30.6992C86.3232 30.6792 86.3333 30.6492 86.3333 30.6292C86.3333 30.6092 86.3433 30.5792 86.3433 30.5592C86.3433 30.5392 86.3532 30.5092 86.3532 30.4892C86.3532 30.4692 86.3633 30.4392 86.3633 30.4192C86.3633 30.3992 86.3733 30.3792 86.3733 30.3592C86.3733 30.3392 86.3833 30.3192 86.3833 30.2992C86.3833 30.2792 86.3933 30.2592 86.3933 30.2392C86.3933 30.2192 86.4033 30.1992 86.4033 30.1792C86.4033 30.1592 86.4033 30.1492 86.4133 30.1292C86.4133 30.1092 86.4133 30.0992 86.4233 30.0792C86.4233 30.0592 86.4233 30.0492 86.4333 30.0292C86.4333 30.0092 86.4333 29.9992 86.4433 29.9792C86.4433 29.9392 86.4532 29.8992 86.4632 29.8592C86.4632 29.8192 86.4733 29.7792 86.4733 29.7392C86.4833 29.6992 86.4833 29.6592 86.4933 29.6192C86.4933 29.5792 86.5033 29.5392 86.5033 29.4992C86.5033 29.4592 86.5133 29.4192 86.5133 29.3792C86.5133 29.3392 86.5233 29.2992 86.5233 29.2592C86.5233 29.2192 86.5333 29.1792 86.5333 29.1392C86.5333 29.0992 86.5433 29.0592 86.5433 29.0192C86.5433 29.0092 86.5433 28.9892 86.5433 28.9792C86.5433 28.9692 86.5433 28.9492 86.5433 28.9392C86.5433 28.9292 86.5433 28.9092 86.5433 28.8992C86.5433 28.8892 86.5433 28.8692 86.5433 28.8592C86.5433 28.8392 86.5433 28.8092 86.5533 28.7892C86.5533 28.7692 86.5533 28.7392 86.5633 28.7192C86.5633 28.6992 86.5632 28.6692 86.5732 28.6492C86.5732 28.6292 86.5733 28.5992 86.5833 28.5792C86.5833 28.5592 86.5833 28.5392 86.5833 28.5192C86.5833 28.4992 86.5833 28.4792 86.5933 28.4592C86.5933 28.4392 86.5932 28.4192 86.6032 28.3992C86.6032 28.3792 86.6032 28.3592 86.6032 28.3392C86.6032 28.3192 86.6032 28.3092 86.6032 28.2892C86.6032 28.2692 86.6032 28.2592 86.6032 28.2392C86.6032 28.2192 86.6032 28.2092 86.6032 28.1892C86.6032 28.1692 86.6032 28.1592 86.6032 28.1392C86.6032 28.1092 86.6033 28.0892 86.6133 28.0592C86.6133 28.0292 86.6133 28.0092 86.6233 27.9792C86.6233 27.9492 86.6233 27.9292 86.6333 27.8992C86.6333 27.8692 86.6333 27.8492 86.6433 27.8192V27.8092V27.7992V27.7892V27.7792C86.6733 27.3592 86.6932 26.9492 86.7132 26.5292C86.7332 26.1192 86.7333 25.7092 86.7333 25.3092C86.7333 24.9092 86.7232 24.5092 86.7132 24.1192C86.6832 23.7192 86.6633 23.3292 86.6333 22.9492Z" fill="#9A95A0"/>
<path d="M75.2336 55.6992C78.4436 59.2492 81.6436 62.7992 84.8536 66.3492C84.9636 66.4692 85.3936 66.8092 85.4136 66.9692C85.4436 67.2292 84.6536 68.0092 84.4736 68.2392C83.9336 68.9392 83.3836 69.6192 82.8236 70.2992C81.9136 71.3792 80.9836 72.4492 80.0036 73.4892C79.0336 74.5292 78.0336 75.5392 76.9936 76.5292C75.9636 77.5092 74.9036 78.4692 73.8136 79.3992C70.3636 75.6792 66.9236 71.9592 63.4736 68.2392C64.5736 67.2992 65.6436 66.3392 66.6936 65.3392C67.7336 64.3392 68.7536 63.3192 69.7336 62.2692C70.7136 61.2192 71.6636 60.1492 72.5836 59.0492C73.5136 57.9492 74.3936 56.8292 75.2336 55.6992Z" fill="#9A95A0"/>
<path d="M74.5532 38.4278C78.0332 37.7178 81.5232 37.0578 85.0232 36.4578C85.5532 34.6278 85.9832 32.7578 86.2732 30.8778C84.7932 40.5678 80.0632 49.6078 74.0632 57.2578C68.1632 64.7878 60.8032 71.2378 52.5232 76.0378C47.7232 78.8178 42.5832 81.0378 37.2132 82.4278C39.5532 81.8178 41.8432 81.0378 44.0932 80.1478C44.1832 76.8778 44.3632 73.6178 44.6032 70.3578L44.6232 70.0578C44.0932 70.2878 43.5632 70.4978 43.0332 70.7078C42.5032 70.9178 41.9632 71.1078 41.4332 71.2878C40.8932 71.4678 40.3632 71.6478 39.8232 71.8078C39.2832 71.9678 38.7432 72.1178 38.2032 72.2578C36.1632 72.7778 34.0832 73.1278 31.9932 73.2678L31.9332 73.5778C31.2032 76.9878 30.4232 80.3978 29.5732 83.7778C31.8132 83.5678 34.0432 83.2078 36.2332 82.6878C28.9232 84.4378 20.9032 84.6578 13.9032 81.5978C7.47318 78.7878 2.81319 73.2578 0.993187 66.4978C-0.116813 62.3678 -0.196824 58.0178 0.373176 53.7878C0.143176 55.4978 0.0231744 57.2178 0.0431744 58.9378C3.37317 57.7478 6.71317 56.6078 10.0732 55.5178L10.3832 55.4078C10.3632 54.9578 10.3532 54.5078 10.3532 54.0578C10.3532 53.5978 10.3732 53.1378 10.3932 52.6678C10.4232 52.1978 10.4632 51.7278 10.5132 51.2378C10.5632 50.7578 10.6332 50.2678 10.7132 49.7778C11.0432 47.7578 11.5732 45.7778 12.2532 43.8478L11.9632 43.8978C8.74317 44.5678 5.50318 45.1878 2.26318 45.7578C1.75318 47.2978 1.32318 48.8578 0.973182 50.4478C4.46318 34.3678 15.9732 20.2878 29.2732 11.0678C33.0632 8.43783 37.1032 6.16783 41.3432 4.34783C41.2532 7.32783 41.0732 10.3078 40.8432 13.2778L40.8232 13.5478C41.3232 13.3178 41.8332 13.1078 42.3432 12.8978C42.8532 12.6878 43.3632 12.4878 43.8832 12.3078C44.4032 12.1178 44.9132 11.9378 45.4332 11.7778C45.9532 11.6078 46.4732 11.4478 47.0032 11.3078C48.9832 10.7478 51.0132 10.3478 53.0632 10.1378L53.1232 9.84783C53.7832 6.68783 54.4932 3.52783 55.2832 0.397829C61.7532 -0.472171 68.6132 0.0678289 74.4732 3.14783C79.8932 5.99783 83.8332 10.9278 85.5832 16.7878C86.6432 20.3478 86.9232 24.1078 86.6432 27.7978C86.7632 26.1878 86.7732 24.5778 86.6532 22.9778C83.1332 24.2378 79.6032 25.4578 76.0532 26.6178L75.7132 26.7378C75.7532 27.1878 75.7832 27.6378 75.8032 28.0978C75.8232 28.5578 75.8232 29.0278 75.8232 29.4978C75.8132 29.9778 75.7932 30.4578 75.7632 30.9478C75.7332 31.4378 75.6832 31.9378 75.6132 32.4378C75.3532 34.4978 74.8732 36.5278 74.2332 38.5078L74.5532 38.4278ZM56.1332 60.4978C56.6032 60.1178 57.0532 59.7278 57.5032 59.3378C57.9532 58.9478 58.3932 58.5478 58.8232 58.1478C59.2532 57.7478 59.6732 57.3378 60.0932 56.9278C60.5032 56.5178 60.9132 56.0978 61.3132 55.6778C62.8732 53.9878 64.3432 52.2178 65.6732 50.3378C66.9732 48.5178 68.1632 46.6078 69.1932 44.6178C69.4432 44.1278 69.6732 43.6378 69.9032 43.1478C70.1232 42.6578 70.3432 42.1778 70.5432 41.6978C70.7432 41.2178 70.9332 40.7378 71.1132 40.2578C71.2932 39.7778 71.4532 39.3078 71.6132 38.8278C71.6532 38.7178 71.6832 38.6078 71.7232 38.4978C71.7532 38.3878 71.7932 38.2778 71.8232 38.1778C71.8532 38.0678 71.8832 37.9678 71.9132 37.8578C71.9432 37.7478 71.9732 37.6478 72.0032 37.5378C72.0132 37.5078 72.0232 37.4778 72.0332 37.4478C72.0432 37.4178 72.0532 37.3878 72.0532 37.3578C72.0632 37.3278 72.0732 37.2978 72.0732 37.2778C72.0832 37.2478 72.0832 37.2278 72.0932 37.1978C72.1032 37.1578 72.1132 37.1278 72.1232 37.0978C72.1332 37.0678 72.1432 37.0378 72.1432 37.0078C72.1532 36.9778 72.1532 36.9578 72.1632 36.9378C72.1732 36.9178 72.1732 36.8878 72.1832 36.8678C72.1932 36.8178 72.2032 36.7778 72.2132 36.7378C72.2232 36.6978 72.2332 36.6678 72.2332 36.6478C72.2432 36.6178 72.2432 36.5978 72.2532 36.5778C72.2532 36.5578 72.2632 36.5378 72.2632 36.5178C72.2832 36.4178 72.3032 36.3378 72.3232 36.2778C72.3332 36.2178 72.3532 36.1678 72.3632 36.1278C72.3732 36.0878 72.3732 36.0678 72.3832 36.0378C72.3832 36.0178 72.3932 35.9978 72.3932 35.9878C72.4032 35.9278 72.4132 35.8878 72.4232 35.8478C72.4332 35.8078 72.4432 35.7778 72.4432 35.7478C72.4532 35.7178 72.4532 35.6978 72.4632 35.6778C72.4632 35.6578 72.4732 35.6378 72.4732 35.6278C72.4832 35.5778 72.4932 35.5278 72.5032 35.4878C72.5132 35.4478 72.5132 35.4178 72.5232 35.3878C72.5332 35.3578 72.5332 35.3378 72.5332 35.3178C72.5332 35.2978 72.5432 35.2778 72.5432 35.2578C72.5532 35.2078 72.5632 35.1678 72.5732 35.1278C72.5832 35.0878 72.5832 35.0578 72.5932 35.0278C72.6032 34.9978 72.6032 34.9778 72.6032 34.9578C72.6032 34.9378 72.6132 34.9178 72.6132 34.8978C72.6232 34.8478 72.6332 34.8078 72.6332 34.7678C72.6432 34.7278 72.6432 34.6978 72.6532 34.6778C72.6532 34.6478 72.6632 34.6278 72.6632 34.6078C72.6632 34.5878 72.6732 34.5678 72.6732 34.5478C72.6832 34.4978 72.6932 34.4578 72.6932 34.4178C72.7032 34.3778 72.7032 34.3478 72.7132 34.3278C72.7132 34.2978 72.7232 34.2778 72.7232 34.2578C72.7232 34.2378 72.7332 34.2178 72.7332 34.1978C72.7432 34.1378 72.7532 34.0878 72.7532 34.0478C72.7632 34.0078 72.7632 33.9778 72.7732 33.9478C72.7732 33.9178 72.7832 33.8978 72.7832 33.8878C72.7832 33.8678 72.7832 33.8578 72.7932 33.8378C72.7932 33.8178 72.8032 33.7878 72.8032 33.7678C72.8032 33.7478 72.8132 33.7178 72.8132 33.6978C72.8132 33.6778 72.8232 33.6478 72.8232 33.6278C72.8232 33.6078 72.8332 33.5778 72.8332 33.5578C72.8532 33.4178 72.8732 33.2778 72.8932 33.1378C72.9532 32.6378 73.0032 32.1578 73.0332 31.6878C73.0632 31.2178 73.0832 30.7678 73.0932 30.3178C73.1032 29.8778 73.0932 29.4378 73.0832 29.0178C73.0632 28.5978 73.0432 28.1778 73.0032 27.7678C72.9632 27.3278 72.9032 26.8878 72.8432 26.4678C72.7732 26.0478 72.7032 25.6278 72.6132 25.2278C72.5232 24.8278 72.4232 24.4278 72.3032 24.0478C72.1932 23.6678 72.0632 23.2878 71.9232 22.9278C71.7732 22.5578 71.6232 22.1978 71.4632 21.8478C71.3032 21.4978 71.1332 21.1578 70.9532 20.8378C70.7732 20.5078 70.5832 20.1978 70.3832 19.8878C70.1832 19.5778 69.9732 19.2878 69.7632 18.9978C69.5232 18.6778 69.2832 18.3678 69.0232 18.0778C68.7732 17.7878 68.5032 17.5078 68.2332 17.2378C67.9632 16.9678 67.6832 16.7178 67.3932 16.4678C67.1032 16.2278 66.8032 15.9878 66.4932 15.7678C66.1732 15.5478 65.8532 15.3378 65.5332 15.1478C65.2032 14.9478 64.8732 14.7678 64.5432 14.5878C64.2132 14.4178 63.8732 14.2478 63.5232 14.0978C63.1732 13.9478 62.8232 13.7978 62.4632 13.6678C62.0732 13.5278 61.6832 13.3978 61.2832 13.2778C60.8832 13.1578 60.4832 13.0578 60.0832 12.9678C59.6732 12.8778 59.2632 12.7978 58.8532 12.7278C58.4332 12.6578 58.0132 12.6078 57.5932 12.5578C57.1732 12.5178 56.7432 12.4778 56.3132 12.4578C55.8832 12.4378 55.4432 12.4278 55.0032 12.4278C54.5632 12.4278 54.1132 12.4378 53.6532 12.4678C53.2032 12.4878 52.7432 12.5278 52.2732 12.5778C52.2332 12.5778 52.1932 12.5878 52.1532 12.5878C52.1132 12.5878 52.0832 12.5978 52.0432 12.5978C52.0032 12.5978 51.9732 12.6078 51.9332 12.6078C51.9032 12.6078 51.8632 12.6178 51.8332 12.6178C51.4532 12.6678 51.0832 12.7178 50.7332 12.7678C50.3832 12.8178 50.0432 12.8778 49.7032 12.9378C49.3732 12.9978 49.0432 13.0678 48.7132 13.1378C48.3832 13.2078 48.0632 13.2878 47.7432 13.3578C47.6932 13.3678 47.6532 13.3778 47.6132 13.3878C47.5732 13.3978 47.5432 13.4078 47.5232 13.4078C47.4932 13.4178 47.4732 13.4178 47.4532 13.4278C47.4332 13.4278 47.4132 13.4378 47.4032 13.4378C47.1632 13.4978 46.9232 13.5678 46.6832 13.6278C45.8232 13.8678 44.9832 14.1378 44.1532 14.4278C43.3232 14.7178 42.5032 15.0378 41.6832 15.3878C40.8732 15.7378 40.0732 16.1078 39.2832 16.4978C38.4932 16.8878 37.7132 17.3078 36.9432 17.7478C36.7532 17.8578 36.5732 17.9678 36.4032 18.0578C36.2332 18.1578 36.0832 18.2478 35.9332 18.3378C35.7832 18.4278 35.6432 18.5178 35.5032 18.5978C35.3632 18.6778 35.2332 18.7678 35.0932 18.8478C34.6232 19.1478 34.1632 19.4478 33.7132 19.7578C33.2632 20.0678 32.8132 20.3778 32.3732 20.6978C31.9332 21.0178 31.4932 21.3478 31.0632 21.6778C30.6332 22.0078 30.2132 22.3478 29.7932 22.6978C29.3332 23.0778 28.8932 23.4478 28.4532 23.8278C28.0132 24.2078 27.5932 24.5978 27.1732 24.9778C26.7532 25.3678 26.3532 25.7578 25.9532 26.1578C25.5532 26.5578 25.1632 26.9578 24.7832 27.3578C24.3932 27.7778 24.0232 28.1878 23.6532 28.6078C23.2932 29.0278 22.9332 29.4378 22.5932 29.8578C22.2532 30.2778 21.9132 30.6878 21.5932 31.1078C21.2632 31.5278 20.9532 31.9478 20.6432 32.3678C20.3032 32.8378 19.9732 33.3078 19.6532 33.7778C19.3332 34.2478 19.0332 34.7078 18.7432 35.1678C18.4532 35.6278 18.1732 36.0978 17.9032 36.5578C17.6332 37.0178 17.3832 37.4778 17.1332 37.9478C16.8832 38.4178 16.6532 38.8778 16.4332 39.3478C16.2132 39.8078 15.9932 40.2678 15.7932 40.7278C15.5932 41.1878 15.4032 41.6478 15.2232 42.0978C15.0432 42.5578 14.8732 43.0078 14.7132 43.4678C14.6232 43.7278 14.5332 43.9878 14.4532 44.2478C14.3732 44.4978 14.2932 44.7578 14.2132 44.9978C14.1432 45.2478 14.0632 45.4878 14.0032 45.7378C13.9332 45.9778 13.8732 46.2278 13.8132 46.4678C13.8032 46.5078 13.7932 46.5478 13.7832 46.5778C13.7732 46.6078 13.7732 46.6378 13.7632 46.6578C13.7532 46.6778 13.7532 46.7078 13.7432 46.7178C13.7432 46.7378 13.7332 46.7578 13.7332 46.7778C13.7132 46.8778 13.6932 46.9478 13.6832 47.0078C13.6732 47.0678 13.6532 47.1178 13.6532 47.1578C13.6432 47.1978 13.6432 47.2178 13.6332 47.2478C13.6332 47.2678 13.6232 47.2878 13.6232 47.3078C13.6132 47.3578 13.6032 47.3978 13.5932 47.4378C13.5832 47.4778 13.5832 47.5078 13.5732 47.5278C13.5632 47.5578 13.5632 47.5778 13.5532 47.5978C13.5532 47.6178 13.5432 47.6378 13.5432 47.6578C13.5332 47.6978 13.5232 47.7378 13.5232 47.7678C13.5132 47.7978 13.5132 47.8278 13.5032 47.8578C13.4932 47.8878 13.4932 47.9078 13.4832 47.9378C13.4832 47.9578 13.4732 47.9878 13.4732 48.0078C13.4632 48.0478 13.4632 48.0878 13.4532 48.1178C13.4432 48.1478 13.4432 48.1778 13.4332 48.2078C13.4332 48.2378 13.4232 48.2578 13.4232 48.2878C13.4232 48.3078 13.4132 48.3378 13.4132 48.3578C13.4032 48.4078 13.3932 48.4578 13.3932 48.4878C13.3832 48.5278 13.3832 48.5578 13.3732 48.5778C13.3732 48.6078 13.3632 48.6278 13.3632 48.6378C13.3632 48.6578 13.3532 48.6678 13.3532 48.6878C13.3332 48.8078 13.3132 48.9178 13.2932 49.0378C13.2032 49.5978 13.1332 50.1478 13.0832 50.6778C13.0332 51.2178 12.9932 51.7478 12.9732 52.2578C12.9532 52.7778 12.9532 53.2878 12.9632 53.7778C12.9732 54.2778 13.0032 54.7678 13.0532 55.2478C13.0932 55.6278 13.1332 55.9878 13.1832 56.3378C13.2332 56.6878 13.2932 57.0178 13.3532 57.3378C13.4132 57.6578 13.4832 57.9778 13.5632 58.2778C13.6432 58.5878 13.7232 58.8778 13.8132 59.1778C13.9332 59.5578 14.0632 59.9278 14.2032 60.2878C14.3432 60.6478 14.4932 60.9978 14.6532 61.3378C14.8132 61.6778 14.9832 62.0078 15.1532 62.3278C15.3332 62.6478 15.5232 62.9578 15.7132 63.2678C16.5432 64.5578 17.5632 65.7178 18.7432 66.6978C19.0332 66.9378 19.3332 67.1578 19.6432 67.3778C19.9532 67.5978 20.2632 67.7978 20.5932 67.9978C20.9132 68.1978 21.2532 68.3778 21.5932 68.5578C21.9332 68.7378 22.2832 68.8978 22.6332 69.0578C24.1632 69.7378 25.7932 70.1778 27.4432 70.4278C27.9432 70.4978 28.4532 70.5578 28.9732 70.6078C29.4932 70.6478 30.0132 70.6778 30.5532 70.6878C31.0932 70.6978 31.6332 70.6878 32.1832 70.6678C32.7332 70.6478 33.2932 70.5978 33.8632 70.5478C33.8932 70.5478 33.9132 70.5378 33.9432 70.5378C33.9732 70.5378 33.9932 70.5278 34.0232 70.5278C34.0432 70.5278 34.0732 70.5178 34.0932 70.5178C34.1132 70.5178 34.1432 70.5078 34.1632 70.5078C34.2632 70.4978 34.3432 70.4878 34.4132 70.4778C34.4832 70.4678 34.5332 70.4678 34.5732 70.4578C34.6132 70.4478 34.6532 70.4478 34.6832 70.4478C34.7132 70.4478 34.7332 70.4378 34.7632 70.4378C36.0332 70.2678 37.2832 70.0178 38.5232 69.7078C39.4432 69.4678 40.3532 69.2078 41.2532 68.8978C42.1532 68.5978 43.0432 68.2678 43.9232 67.8978C44.8032 67.5378 45.6732 67.1378 46.5332 66.7178C47.3932 66.2978 48.2432 65.8478 49.0832 65.3678C49.1132 65.3478 49.1532 65.3278 49.1832 65.3078C49.2132 65.2878 49.2432 65.2678 49.2732 65.2578C49.3032 65.2378 49.3332 65.2178 49.3632 65.2078C49.3932 65.1878 49.4232 65.1778 49.4532 65.1578C50.0332 64.8178 50.6132 64.4678 51.1832 64.0978C51.7532 63.7278 52.3232 63.3578 52.8832 62.9678C53.4432 62.5778 53.9932 62.1778 54.5432 61.7678C55.0732 61.3578 55.6132 60.9378 56.1332 60.4978ZM63.4832 68.2278C67.8532 64.5078 71.8132 60.2978 75.2332 55.6978C72.7432 54.3478 70.3032 52.8878 67.8932 51.3878L67.6832 51.2678C64.7832 55.3078 61.3332 58.9678 57.4932 62.1278L57.6732 62.3078C59.6732 64.2178 61.6032 66.1978 63.4832 68.2278ZM20.5332 71.8078L20.7732 71.5278C17.7832 70.2178 15.1832 68.0978 13.3832 65.3778L13.1332 65.6178C10.2632 68.4078 7.37318 71.1778 4.42318 73.8978C6.56318 76.9378 9.47318 79.3878 12.8032 81.0378C15.3332 77.9178 17.9132 74.8478 20.5332 71.8078ZM64.5232 11.0178L64.2832 11.2978C67.3432 12.4278 70.1032 14.3378 72.0932 16.9378L72.3432 16.6978C75.2232 13.8978 78.1232 11.1178 81.0732 8.39783C78.6432 5.56783 75.5132 3.40783 72.0532 2.03783C69.5832 5.06783 67.0732 8.06782 64.5232 11.0178ZM12.0132 27.5478C14.2432 28.7778 16.4232 30.0978 18.5832 31.4678L18.7732 31.5778C21.5832 27.7378 24.8832 24.2678 28.5432 21.2378L28.3732 21.0778C26.5632 19.3778 24.8232 17.6178 23.1232 15.8078C19.0232 19.3178 15.2832 23.2578 12.0132 27.5478Z" fill="#ED0E1C"/>
<path d="M23.1237 15.8086C24.8137 17.6186 26.5637 19.3786 28.3737 21.0786L28.5437 21.2386C24.8837 24.2686 21.5737 27.7386 18.7737 31.5786L18.5837 31.4686C16.4337 30.0986 14.2537 28.7786 12.0137 27.5486C15.2837 23.2586 19.0237 19.3186 23.1237 15.8086C23.4337 16.1386 22.0937 16.6886 23.1237 15.8086Z" fill="#F6F6F6"/>
<path d="M48.3535 1.82961C48.3935 1.81961 48.4335 1.80961 48.4735 1.79961C48.5135 1.78961 48.5535 1.77961 48.5935 1.76961C48.6335 1.75961 48.6735 1.74961 48.7135 1.73961C48.7535 1.72961 48.7935 1.71961 48.8335 1.70961C48.8535 1.69961 48.8735 1.69961 48.8935 1.68961C48.9135 1.67961 48.9335 1.67961 48.9535 1.66961C48.9735 1.65961 48.9935 1.65961 49.0135 1.64961C49.0335 1.63961 49.0535 1.63961 49.0735 1.62961C49.0935 1.61961 49.1135 1.61961 49.1335 1.60961C49.1535 1.59961 49.1735 1.59961 49.1935 1.58961C49.2135 1.58961 49.2335 1.57961 49.2535 1.56961C49.2735 1.55961 49.2935 1.55961 49.3135 1.54961C49.3435 1.53961 49.3635 1.53961 49.3935 1.52961C49.4235 1.51961 49.4435 1.51961 49.4735 1.50961C49.5035 1.49961 49.5235 1.49961 49.5535 1.48961C49.5835 1.47961 49.6035 1.47961 49.6335 1.46961C49.6435 1.46961 49.6535 1.46961 49.6635 1.45961C49.6735 1.45961 49.6835 1.44961 49.6935 1.44961C49.7035 1.44961 49.7135 1.43961 49.7235 1.43961C49.7335 1.43961 49.7435 1.43961 49.7535 1.42961C50.1535 1.32961 50.5435 1.22961 50.9435 1.13961C51.3335 1.04961 51.7235 0.959608 52.1135 0.879608C52.5035 0.799608 52.8935 0.729607 53.2735 0.659607C53.6635 0.589607 54.0435 0.529612 54.4235 0.469612C54.4535 0.459612 54.4935 0.459608 54.5235 0.449608C54.5535 0.449608 54.5835 0.439613 54.6135 0.439613C54.6435 0.439613 54.6735 0.429611 54.6935 0.429611C54.7235 0.429611 54.7435 0.419609 54.7735 0.419609C54.9435 0.399609 55.1035 0.369609 55.2735 0.349609C54.4935 3.48961 53.7735 6.63961 53.1135 9.79961L53.0535 10.0896C52.5735 10.1396 52.0835 10.1996 51.5835 10.2696C51.0835 10.3396 50.5835 10.4296 50.0835 10.5296C49.5835 10.6296 49.0735 10.7396 48.5535 10.8596C48.0435 10.9796 47.5235 11.1196 46.9935 11.2596C44.8835 11.8496 42.8135 12.6096 40.8135 13.5096L40.8335 13.2396C41.0635 10.2696 41.2435 7.28961 41.3335 4.30961C41.3735 4.28961 41.4235 4.26961 41.4635 4.24961C41.5035 4.22961 41.5535 4.20961 41.5935 4.19961C41.6335 4.17961 41.6735 4.15961 41.7235 4.14961C41.7635 4.12961 41.8135 4.10961 41.8535 4.09961C41.8835 4.08961 41.9135 4.07961 41.9435 4.05961C41.9735 4.04961 42.0035 4.03961 42.0335 4.01961C42.0635 4.00961 42.0935 3.99961 42.1235 3.97961C42.1535 3.96961 42.1835 3.95961 42.2135 3.93961C42.6035 3.77961 43.0035 3.61961 43.3935 3.46961C43.7835 3.31961 44.1835 3.16961 44.5835 3.02961C44.9835 2.88961 45.3735 2.74961 45.7735 2.60961C46.1735 2.47961 46.5735 2.34961 46.9735 2.21961C46.9835 2.21961 46.9935 2.20961 47.0035 2.20961C47.0135 2.20961 47.0235 2.19961 47.0335 2.19961C47.0435 2.19961 47.0535 2.18961 47.0635 2.18961C47.0735 2.18961 47.0835 2.17961 47.0935 2.17961C47.1235 2.16961 47.1435 2.15961 47.1735 2.15961C47.2035 2.14961 47.2235 2.13961 47.2535 2.13961C47.2835 2.12961 47.3035 2.11961 47.3335 2.11961C47.3635 2.10961 47.3835 2.09961 47.4135 2.09961C47.4335 2.08961 47.4535 2.08961 47.4735 2.07961C47.4935 2.06961 47.5135 2.06961 47.5335 2.05961C47.5535 2.04961 47.5735 2.04961 47.5935 2.03961C47.6135 2.02961 47.6335 2.02961 47.6535 2.01961C47.6735 2.00961 47.6935 2.00961 47.7135 1.99961C47.7335 1.98961 47.7535 1.98961 47.7735 1.97961C47.7935 1.96961 47.8135 1.96961 47.8335 1.95961C47.8535 1.94961 47.8735 1.94961 47.8935 1.93961C47.9335 1.92961 47.9735 1.91961 48.0135 1.89961C48.0535 1.88961 48.0935 1.87961 48.1335 1.85961C48.1735 1.84961 48.2135 1.83961 48.2535 1.81961C48.2735 1.85961 48.3135 1.84961 48.3535 1.82961Z" fill="#F6F6F6"/>
<path d="M2.2532 45.7284C5.4932 45.1584 8.7332 44.5384 11.9532 43.8684L12.2432 43.8184C12.0732 44.3084 11.9132 44.7984 11.7632 45.2884C11.6132 45.7784 11.4732 46.2784 11.3432 46.7684C11.2132 47.2584 11.0932 47.7584 10.9932 48.2484C10.8832 48.7484 10.7932 49.2384 10.7132 49.7384C10.4132 51.5984 10.2932 53.4884 10.3732 55.3684L10.0632 55.4784C6.7032 56.5684 3.3632 57.7084 0.0332031 58.8984C0.0332031 58.4884 0.0331976 58.0684 0.0431976 57.6484C0.0531976 57.2284 0.0731952 56.7984 0.103195 56.3684C0.133195 55.9384 0.163196 55.5084 0.213196 55.0684C0.253196 54.6284 0.313199 54.1884 0.373199 53.7484C0.373199 53.7384 0.373199 53.7284 0.373199 53.7284C0.373199 53.7184 0.373199 53.7084 0.373199 53.6984C0.373199 53.6884 0.373199 53.6784 0.373199 53.6784C0.373199 53.6684 0.373199 53.6584 0.373199 53.6584C0.373199 53.6384 0.383209 53.6084 0.383209 53.5884C0.383209 53.5684 0.393204 53.5384 0.393204 53.5184C0.393204 53.4984 0.403198 53.4684 0.403198 53.4484C0.403198 53.4284 0.413208 53.3984 0.413208 53.3784C0.413208 53.3584 0.413203 53.3384 0.423203 53.3184C0.423203 53.2984 0.433197 53.2784 0.433197 53.2584C0.433197 53.2384 0.433207 53.2184 0.443207 53.1984C0.443207 53.1784 0.453201 53.1584 0.453201 53.1384C0.453201 53.1184 0.453196 53.0984 0.463196 53.0884C0.463196 53.0684 0.473206 53.0484 0.473206 53.0384C0.473206 53.0184 0.4732 52.9984 0.4832 52.9884C0.4832 52.9684 0.49321 52.9484 0.49321 52.9384C0.50321 52.8984 0.503199 52.8584 0.513199 52.8184C0.523199 52.7784 0.523203 52.7384 0.533203 52.6984C0.543203 52.6584 0.543207 52.6184 0.553207 52.5784C0.563207 52.5384 0.563196 52.4984 0.573196 52.4584C0.583196 52.4184 0.583201 52.3784 0.593201 52.3384C0.603201 52.2984 0.603205 52.2584 0.613205 52.2184C0.623205 52.1784 0.623209 52.1384 0.633209 52.0984C0.643209 52.0584 0.643198 52.0184 0.653198 51.9784C0.653198 51.9584 0.663208 51.9484 0.663208 51.9284C0.663208 51.9084 0.673203 51.8984 0.673203 51.8784C0.673203 51.8584 0.683197 51.8484 0.683197 51.8284C0.683197 51.8084 0.693207 51.7984 0.693207 51.7784C0.693207 51.7584 0.703201 51.7384 0.703201 51.7184C0.703201 51.6984 0.713196 51.6784 0.713196 51.6584C0.713196 51.6384 0.723206 51.6184 0.723206 51.5884C0.723206 51.5684 0.7332 51.5484 0.7332 51.5184C0.7332 51.4984 0.74321 51.4784 0.74321 51.4584C0.74321 51.4384 0.753204 51.4184 0.753204 51.3984C0.753204 51.3784 0.763199 51.3584 0.763199 51.3384C0.763199 51.3184 0.773209 51.2984 0.773209 51.2784C0.773209 51.2684 0.783203 51.2484 0.783203 51.2384C0.783203 51.2284 0.793198 51.2084 0.793198 51.1984C0.793198 51.1884 0.803207 51.1684 0.803207 51.1584C0.803207 51.1484 0.813202 51.1284 0.813202 51.1184C1.1932 49.2884 1.6732 47.4884 2.2532 45.7284C2.8532 45.6284 2.1132 46.1784 2.2532 45.7284Z" fill="#F6F6F6"/>
<path d="M72.0639 2.04883C75.5239 3.41883 78.654 5.57882 81.084 8.40882C78.124 11.1288 75.2239 13.9088 72.3539 16.7088L72.1039 16.9488C70.1039 14.3488 67.3539 12.4388 64.2939 11.3088L64.534 11.0288C67.074 8.06882 69.5839 5.06883 72.0639 2.04883C72.9539 2.39883 71.6039 2.60883 72.0639 2.04883Z" fill="#F6F6F6"/>
<path d="M13.3838 65.3691C15.1838 68.0991 17.7838 70.2091 20.7738 71.5191L20.5338 71.7991C17.9138 74.8391 15.3438 77.9092 12.8038 81.0191C9.47383 79.3591 6.56383 76.9192 4.42383 73.8792C7.37383 71.1692 10.2638 68.3992 13.1338 65.5992L13.3838 65.3691Z" fill="#F6F6F6"/>
<path d="M86.6339 22.9492C86.6639 23.3292 86.6839 23.7192 86.6939 24.1192C86.7039 24.5092 86.7139 24.9092 86.7139 25.3092C86.7139 25.7092 86.7039 26.1192 86.6939 26.5292C86.6739 26.9392 86.6539 27.3592 86.6239 27.7792V27.7892V27.7992V27.8092V27.8192C86.6239 27.8492 86.6239 27.8692 86.6139 27.8992C86.6139 27.9292 86.6139 27.9492 86.6039 27.9792C86.6039 28.0092 86.6039 28.0292 86.5939 28.0592C86.5939 28.0892 86.5939 28.1092 86.5839 28.1392C86.5839 28.1592 86.5839 28.1692 86.5839 28.1892C86.5839 28.2092 86.5839 28.2192 86.5839 28.2392C86.5839 28.2592 86.5839 28.2692 86.5839 28.2892C86.5839 28.3092 86.5839 28.3192 86.5839 28.3392C86.5839 28.3592 86.5839 28.3792 86.5839 28.3992C86.5839 28.4192 86.5839 28.4392 86.5739 28.4592C86.5739 28.4792 86.5739 28.4992 86.5639 28.5192C86.5639 28.5392 86.5639 28.5592 86.5639 28.5792C86.5639 28.5992 86.5639 28.6292 86.5539 28.6492C86.5539 28.6692 86.5539 28.6992 86.5439 28.7192C86.5439 28.7392 86.5439 28.7692 86.5339 28.7892C86.5339 28.8092 86.5339 28.8392 86.5239 28.8592C86.5239 28.8692 86.5239 28.8892 86.5239 28.8992C86.5239 28.9092 86.5239 28.9292 86.5239 28.9392C86.5239 28.9492 86.5239 28.9692 86.5239 28.9792C86.5239 28.9892 86.5239 29.0092 86.5239 29.0192C86.5239 29.0592 86.5139 29.0992 86.5139 29.1392C86.5139 29.1792 86.5039 29.2192 86.5039 29.2592C86.5039 29.2992 86.4939 29.3392 86.4939 29.3792C86.4939 29.4192 86.4839 29.4592 86.4839 29.4992C86.4839 29.5392 86.4739 29.5792 86.4739 29.6192C86.4739 29.6592 86.4639 29.6992 86.4539 29.7392C86.4539 29.7792 86.4439 29.8192 86.4439 29.8592C86.4339 29.8992 86.4339 29.9392 86.4239 29.9792C86.4239 29.9992 86.4239 30.0092 86.4139 30.0292C86.4139 30.0492 86.4139 30.0592 86.4039 30.0792C86.4039 30.0992 86.4039 30.1092 86.3939 30.1292C86.3939 30.1492 86.3939 30.1592 86.3839 30.1792C86.3839 30.1992 86.3739 30.2192 86.3739 30.2392C86.3739 30.2592 86.3639 30.2792 86.3639 30.2992C86.3639 30.3192 86.3539 30.3392 86.3539 30.3592C86.3539 30.3792 86.3439 30.3992 86.3439 30.4192C86.3439 30.4392 86.3339 30.4692 86.3339 30.4892C86.3339 30.5092 86.3239 30.5392 86.3239 30.5592C86.3239 30.5792 86.3139 30.6092 86.3139 30.6292C86.3139 30.6492 86.3039 30.6792 86.3039 30.6992C86.3039 30.7092 86.3039 30.7192 86.3039 30.7292C86.3039 30.7392 86.3039 30.7492 86.3039 30.7592C86.3039 30.7692 86.3039 30.7792 86.3039 30.7892C86.3039 30.7992 86.3039 30.8092 86.3039 30.8192C86.0139 32.7092 85.5939 34.5692 85.0539 36.3992C81.5539 36.9992 78.0639 37.6592 74.5839 38.3692L74.2539 38.4292C74.4139 37.9192 74.5639 37.4192 74.7039 36.9092C74.8439 36.3992 74.9739 35.8892 75.0839 35.3892C75.2039 34.8792 75.3039 34.3792 75.3939 33.8692C75.4839 33.3692 75.5639 32.8592 75.6239 32.3592C75.8639 30.4692 75.9039 28.5492 75.7239 26.6592L76.0639 26.5392C79.5839 25.4292 83.1139 24.2092 86.6339 22.9492C86.6639 23.3292 85.9739 23.1892 86.6339 22.9492Z" fill="#F6F6F6"/>
<path d="M44.6237 70.0391L44.6037 70.3391C44.3637 73.5991 44.1938 76.8691 44.0938 80.1291C43.5238 80.3591 42.9538 80.5691 42.3838 80.7791C41.8138 80.9891 41.2438 81.1891 40.6638 81.3791C40.0938 81.5691 39.5138 81.7491 38.9438 81.9291C38.3638 82.0991 37.7937 82.2591 37.2137 82.4091C37.1737 82.4191 37.1337 82.4291 37.0938 82.4391C37.0538 82.4491 37.0138 82.4591 36.9738 82.4691C36.9338 82.4791 36.8937 82.4891 36.8537 82.4991C36.8137 82.5091 36.7737 82.5191 36.7337 82.5291C36.6937 82.5391 36.6538 82.5491 36.6138 82.5591C36.5738 82.5691 36.5338 82.5791 36.4938 82.5891C36.4538 82.5991 36.4137 82.6091 36.3737 82.6191C36.3337 82.6291 36.2938 82.6391 36.2538 82.6491C34.0638 83.1691 31.8338 83.5291 29.5938 83.7391C30.4438 80.3591 31.2338 76.9491 31.9538 73.5391L32.0137 73.2291C32.5037 73.1991 33.0037 73.1491 33.5137 73.0891C34.0237 73.0291 34.5338 72.9591 35.0538 72.8791C35.5738 72.7991 36.0937 72.6991 36.6237 72.5891C37.1537 72.4791 37.6937 72.3591 38.2337 72.2191C40.4037 71.6791 42.5437 70.9391 44.6237 70.0391Z" fill="#F6F6F6"/>
<path d="M67.6939 51.2695L67.9039 51.3895C70.3139 52.8895 72.7539 54.3395 75.2439 55.6995C71.8239 60.2995 67.8639 64.5095 63.4939 68.2295C61.6139 66.1995 59.6839 64.2195 57.6839 62.3095L57.5039 62.1295C61.3439 58.9695 64.7939 55.3095 67.6939 51.2695Z" fill="#F6F6F6"/>
<path d="M32.5137 70.1791C32.4937 70.2491 32.4837 70.3091 32.4837 70.3591C32.4837 70.4191 32.5037 70.4691 32.5237 70.5091C32.5537 70.5491 32.5837 70.5791 32.6337 70.6091C32.6737 70.6291 32.7337 70.6391 32.7937 70.6391C32.8837 70.6291 32.9637 70.6291 33.0537 70.6191C33.1437 70.6091 33.2237 70.6091 33.3137 70.5991C33.4037 70.5891 33.4837 70.5791 33.5737 70.5791C33.6637 70.5691 33.7437 70.5591 33.8337 70.5491C31.7037 70.7691 29.5537 70.7591 27.4337 70.4391L27.5837 70.4291C27.7837 70.3791 27.9837 70.2191 28.0737 70.0291C28.1737 69.8391 28.1837 69.5291 27.9037 69.4791C26.3237 69.2491 24.7637 68.8191 23.2937 68.1991C23.2737 68.1891 23.2537 68.1891 23.2437 68.1791C23.2237 68.1791 23.2037 68.1691 23.1837 68.1691C23.1637 68.1691 23.1437 68.1691 23.1237 68.1691C23.1037 68.1691 23.0837 68.1791 23.0537 68.1791C23.0137 68.1891 22.9737 68.1991 22.9337 68.2191C22.8937 68.2391 22.8537 68.2591 22.8237 68.2891C22.7837 68.3191 22.7537 68.3491 22.7137 68.3791C22.6837 68.4091 22.6537 68.4491 22.6237 68.4891C22.5137 68.6391 22.4137 68.9091 22.5937 69.0591C21.2137 68.4591 19.9037 67.6691 18.7337 66.7091L19.0237 66.7491L19.3837 66.5291C19.5137 66.3791 19.6737 66.0691 19.4837 65.8891C18.3637 64.9591 17.3637 63.8691 16.5737 62.6391C16.4837 62.5291 16.3337 62.5191 16.2037 62.5491C16.1837 62.5591 16.1637 62.5591 16.1337 62.5691C16.1137 62.5791 16.0837 62.5891 16.0637 62.5991C16.0437 62.6091 16.0137 62.6291 15.9937 62.6391C15.9737 62.6591 15.9437 62.6691 15.9237 62.6891C15.7737 62.8191 15.6137 63.0491 15.6637 63.2591C14.8537 62.0191 14.2337 60.6591 13.7837 59.2491C13.8537 59.3791 14.0237 59.3791 14.1537 59.3491L14.3237 59.2691C14.5137 59.1491 14.7537 58.8691 14.6737 58.6191C14.5637 58.2491 14.4637 57.8791 14.3737 57.4991C14.2837 57.1191 14.2037 56.7391 14.1437 56.3491C14.0737 55.9591 14.0237 55.5691 13.9737 55.1691C13.9337 54.7691 13.8937 54.3691 13.8737 53.9591C13.8737 53.9091 13.8537 53.8691 13.8337 53.8291C13.8137 53.7891 13.7837 53.7591 13.7437 53.7391C13.7037 53.7191 13.6637 53.7091 13.6237 53.6991C13.5737 53.6991 13.5237 53.6991 13.4737 53.7091C13.4637 53.7091 13.4637 53.7091 13.4537 53.7191C13.4437 53.7191 13.4437 53.7191 13.4337 53.7291C13.4237 53.7291 13.4237 53.7391 13.4137 53.7391C13.4037 53.7391 13.4037 53.7491 13.3937 53.7491C13.1537 53.8491 12.9237 54.1091 12.9337 54.3791C12.9337 54.4491 12.9437 54.5291 12.9437 54.5991C12.9437 54.6691 12.9537 54.7491 12.9537 54.8191C12.9537 54.8891 12.9637 54.9691 12.9737 55.0391C12.9837 55.1091 12.9837 55.1891 12.9937 55.2591C12.8037 53.2091 12.9137 51.1291 13.2337 49.0991C13.1937 49.3591 13.4237 49.4391 13.6337 49.3791C13.6937 49.3591 13.7637 49.3291 13.8237 49.2891C13.8837 49.2491 13.9437 49.1991 13.9937 49.1491C14.0437 49.0991 14.0837 49.0391 14.1237 48.9691C14.1537 48.9091 14.1837 48.8491 14.1937 48.7891C13.3137 54.2391 14.1337 60.1791 17.9537 64.4091C21.7437 68.5991 27.5337 70.0191 33.0137 69.6691C32.7937 69.7491 32.5937 69.9491 32.5137 70.1791Z" fill="#6D1627"/>
<path d="M44.5033 67.648L44.5933 67.608C45.7333 67.118 46.8433 66.578 47.9433 65.998C44.9933 67.578 41.8633 68.848 38.6133 69.678C38.6833 69.658 38.7433 69.628 38.8033 69.588C38.8633 69.548 38.9133 69.498 38.9633 69.448C39.0133 69.398 39.0533 69.338 39.0833 69.278C39.1133 69.218 39.1333 69.158 39.1433 69.088C39.1833 68.828 38.9333 68.688 38.7033 68.748C41.2633 68.098 43.7533 67.158 46.1233 66.008C45.9933 66.068 45.8533 66.138 45.7233 66.198C45.5933 66.258 45.4533 66.328 45.3233 66.388C45.1933 66.448 45.0533 66.508 44.9233 66.568C44.7933 66.628 44.6533 66.688 44.5233 66.748C44.2733 66.858 44.0633 67.108 44.0733 67.398C44.0933 67.638 44.3133 67.698 44.5033 67.648Z" fill="#A2000C"/>
<path d="M69.0031 44.0884C69.0531 44.0984 69.0931 44.1084 69.1331 44.1384C69.1731 44.1584 69.1931 44.1984 69.2131 44.2384C69.2331 44.2784 69.2431 44.3184 69.2431 44.3684C69.2431 44.4184 69.2431 44.4684 69.2231 44.5284C69.2131 44.5684 69.2031 44.5984 69.1831 44.6384C68.1531 46.6184 66.9831 48.5184 65.6931 50.3384L65.6631 50.3584L65.2631 50.6384L65.0131 50.6284C64.7431 50.5384 64.8231 50.1984 64.9531 50.0384C65.1231 49.7984 65.2831 49.5684 65.4431 49.3284C65.6031 49.0884 65.7631 48.8484 65.9231 48.6184C66.0831 48.3784 66.2331 48.1384 66.3831 47.8984C66.5331 47.6584 66.6831 47.4184 66.8331 47.1784C66.8631 47.1384 66.8831 47.0884 66.9131 47.0484C66.9431 47.0084 66.9631 46.9584 66.9931 46.9184C67.0231 46.8784 67.0431 46.8284 67.0731 46.7884C67.1031 46.7484 67.1231 46.6984 67.1531 46.6584C67.1531 46.6584 67.1531 46.6484 67.1631 46.6484C67.1631 46.6484 67.1631 46.6384 67.1731 46.6384C67.1731 46.6384 67.1731 46.6284 67.1831 46.6284C67.1831 46.6284 67.1831 46.6184 67.1931 46.6184C67.2931 46.4484 67.3931 46.2784 67.4931 46.0984C67.5931 45.9284 67.6831 45.7484 67.7831 45.5784C67.8731 45.4084 67.9731 45.2284 68.0631 45.0584C68.1531 44.8884 68.2431 44.7084 68.3331 44.5384C68.3331 44.5384 68.3331 44.5284 68.3431 44.5184C68.3431 44.5084 68.3531 44.5084 68.3531 44.4984C68.3531 44.4984 68.3631 44.4884 68.3631 44.4784L68.3731 44.4684C68.4031 44.4284 68.4331 44.3884 68.4631 44.3484C68.5031 44.3084 68.5331 44.2784 68.5731 44.2484C68.6131 44.2184 68.6531 44.1884 68.7031 44.1684C68.7431 44.1484 68.7931 44.1284 68.8331 44.1184C68.8531 44.1184 68.8631 44.1084 68.8831 44.1084C68.9031 44.1084 68.9131 44.1084 68.9331 44.0984C68.9531 44.0984 68.9631 44.0984 68.9831 44.0984C68.9731 44.0784 68.9931 44.0884 69.0031 44.0884Z" fill="#FEFEFE"/>
<path d="M50.4833 63.6587C50.5333 63.6487 50.5733 63.6387 50.6233 63.6387C50.6633 63.6387 50.7033 63.6487 50.7433 63.6587C50.7833 63.6787 50.8133 63.6987 50.8333 63.7187C50.8633 63.7487 50.8833 63.7787 50.8933 63.8187C50.9133 63.8687 50.9133 63.9287 50.9033 63.9887C50.8933 64.0487 50.8733 64.1087 50.8433 64.1687C50.8133 64.2287 50.7733 64.2887 50.7233 64.3387C50.6733 64.3887 50.6133 64.4387 50.5533 64.4787C50.4633 64.5387 50.3733 64.5887 50.2833 64.6487C50.1933 64.7087 50.1033 64.7587 50.0133 64.8187C49.9233 64.8687 49.8333 64.9287 49.7433 64.9787C49.6533 65.0287 49.5633 65.0887 49.4733 65.1387C49.4433 65.1587 49.4133 65.1787 49.3833 65.1887C49.3533 65.2087 49.3233 65.2287 49.2933 65.2387C49.2633 65.2587 49.2333 65.2687 49.2033 65.2887C49.1733 65.3087 49.1433 65.3187 49.1133 65.3387C47.6533 66.1687 46.1633 66.9187 44.6233 67.5787L44.5333 67.6187C44.3433 67.6687 44.1133 67.5987 44.1133 67.3687C44.1133 67.3087 44.1233 67.2387 44.1433 67.1787C44.1633 67.1187 44.1933 67.0587 44.2333 66.9987C44.2733 66.9387 44.3233 66.8887 44.3733 66.8387C44.4333 66.7887 44.4933 66.7487 44.5633 66.7287C44.6933 66.6687 44.8333 66.6087 44.9633 66.5487C45.0933 66.4887 45.2333 66.4287 45.3633 66.3687C45.4933 66.3087 45.6333 66.2487 45.7633 66.1787C45.8933 66.1187 46.0333 66.0487 46.1633 65.9887C46.2033 65.9687 46.2333 65.9487 46.2733 65.9387C46.3133 65.9187 46.3433 65.8987 46.3833 65.8887C46.4233 65.8687 46.4533 65.8487 46.4933 65.8387C46.5333 65.8187 46.5733 65.7987 46.6033 65.7787C46.6233 65.7687 46.6433 65.7587 46.6633 65.7487C46.6833 65.7387 46.7033 65.7287 46.7233 65.7187C46.7433 65.7087 46.7633 65.6987 46.7833 65.6887C46.8033 65.6787 46.8233 65.6687 46.8433 65.6587C46.8833 65.6387 46.9233 65.6187 46.9533 65.5987C46.9933 65.5787 47.0233 65.5587 47.0633 65.5387C47.1033 65.5187 47.1433 65.4987 47.1733 65.4787C47.2133 65.4587 47.2433 65.4387 47.2833 65.4187C47.3133 65.4087 47.3333 65.3887 47.3633 65.3787C47.3933 65.3687 47.4133 65.3487 47.4433 65.3387C47.4733 65.3287 47.4933 65.3087 47.5233 65.2987C47.5533 65.2887 47.5733 65.2687 47.6033 65.2587C47.6033 65.2587 47.6133 65.2587 47.6133 65.2487C47.6133 65.2487 47.6233 65.2487 47.6233 65.2387C47.6233 65.2387 47.6333 65.2387 47.6333 65.2287C47.6333 65.2287 47.6433 65.2287 47.6433 65.2187C47.8633 65.0987 48.0833 64.9787 48.3033 64.8587C48.5233 64.7387 48.7433 64.6187 48.9633 64.4887C49.1833 64.3687 49.4033 64.2387 49.6233 64.1087C49.8433 63.9787 50.0633 63.8487 50.2733 63.7187C50.2933 63.7087 50.3033 63.6987 50.3233 63.6887C50.3433 63.6787 50.3533 63.6687 50.3733 63.6687C50.3933 63.6587 50.4033 63.6587 50.4233 63.6487C50.4533 63.6687 50.4733 63.6587 50.4833 63.6587Z" fill="#FEFEFE"/>
<path d="M24.9938 28.0389L24.6837 28.0089C24.6537 27.9889 24.6238 27.9589 24.6138 27.9189C24.5938 27.8789 24.5938 27.8389 24.5938 27.7989C24.5938 27.7589 24.6037 27.7089 24.6237 27.6589C24.6437 27.6089 24.6638 27.5589 24.6938 27.5089C24.7038 27.4989 24.7037 27.4889 24.7137 27.4789C24.7237 27.4689 24.7237 27.4589 24.7337 27.4489C24.7437 27.4389 24.7538 27.4289 24.7538 27.4189C24.7638 27.4089 24.7738 27.3989 24.7838 27.3889C25.1638 26.9889 25.5538 26.5789 25.9538 26.1889C26.3538 25.7989 26.7538 25.3989 27.1638 25.0189C27.5738 24.6389 27.9938 24.2589 28.4138 23.8789C28.8338 23.5089 29.2638 23.1389 29.7038 22.7789C29.7138 22.7689 29.7138 22.7689 29.7238 22.7589C29.7338 22.7489 29.7338 22.7489 29.7438 22.7389C29.7538 22.7389 29.7537 22.7289 29.7637 22.7289C29.7737 22.7289 29.7738 22.7189 29.7838 22.7189C29.7938 22.7089 29.8137 22.6989 29.8237 22.6989C29.8337 22.6889 29.8538 22.6889 29.8638 22.6789C29.8738 22.6689 29.8937 22.6689 29.9037 22.6589C29.9137 22.6489 29.9338 22.6489 29.9438 22.6489C29.9838 22.6389 30.0138 22.6289 30.0538 22.6289C30.0938 22.6289 30.1237 22.6289 30.1537 22.6389C30.1837 22.6489 30.2137 22.6589 30.2337 22.6689C30.2637 22.6889 30.2838 22.7089 30.3038 22.7289C30.4638 22.9389 30.2438 23.2389 30.0938 23.3689C28.4237 24.7489 26.8238 26.2289 25.3438 27.8089L24.9938 28.0389Z" fill="#FEFEFE"/>
<path d="M40.8239 16.6085C40.8039 16.6185 40.7839 16.6285 40.7739 16.6385C40.7539 16.6485 40.7339 16.6585 40.7239 16.6685C40.7039 16.6785 40.6839 16.6885 40.6739 16.6985C40.6539 16.7085 40.6339 16.7185 40.6239 16.7285C40.5839 16.7485 40.5539 16.7585 40.5139 16.7785C40.4739 16.7985 40.4439 16.8085 40.4139 16.8285C40.3739 16.8485 40.3439 16.8585 40.3039 16.8785C40.2739 16.8985 40.2339 16.9085 40.2039 16.9285C40.1939 16.9285 40.1939 16.9385 40.1839 16.9385C40.1739 16.9385 40.1739 16.9485 40.1639 16.9485C40.1539 16.9485 40.1539 16.9585 40.1439 16.9585C40.1339 16.9585 40.1339 16.9685 40.1239 16.9685C39.9639 17.0485 39.7939 17.1285 39.6339 17.2085C39.4739 17.2885 39.3039 17.3685 39.1439 17.4485C38.9839 17.5285 38.8139 17.6185 38.6539 17.6985C38.4939 17.7785 38.3339 17.8685 38.1639 17.9585C37.1939 18.4785 36.2439 19.0285 35.3139 19.6085L35.1439 19.6985C34.9939 19.7385 34.7939 19.7085 34.7539 19.5385C34.7339 19.4985 34.7339 19.4485 34.7439 19.3885C34.7539 19.3385 34.7639 19.2785 34.7939 19.2285C34.8239 19.1785 34.8539 19.1185 34.8939 19.0685C34.9339 19.0185 34.9839 18.9685 35.0439 18.9285L35.0539 18.9185L35.0639 18.9085L35.0739 18.8985L35.0839 18.8885C35.2139 18.8085 35.3539 18.7185 35.4839 18.6385C35.6139 18.5585 35.7539 18.4785 35.8839 18.3885C36.0139 18.3085 36.1539 18.2285 36.2839 18.1485C36.4139 18.0685 36.5539 17.9885 36.6839 17.9085L36.6939 17.8985L36.7039 17.8885L36.7139 17.8785L36.7239 17.8685C36.7439 17.8585 36.7539 17.8485 36.7639 17.8385C36.7739 17.8285 36.7939 17.8185 36.8039 17.8085C36.8139 17.7985 36.8339 17.7885 36.8439 17.7785C36.8539 17.7685 36.8739 17.7585 36.8839 17.7485C37.2039 17.5685 37.5139 17.3885 37.8339 17.2185C38.1539 17.0485 38.4739 16.8785 38.7939 16.7185C39.1139 16.5585 39.4339 16.3985 39.7539 16.2385C40.0739 16.0885 40.3939 15.9385 40.7239 15.7885C40.7339 15.7885 40.7439 15.7785 40.7539 15.7785C40.7639 15.7785 40.7739 15.7685 40.7739 15.7685C40.7839 15.7685 40.7939 15.7585 40.7939 15.7585C40.8039 15.7585 40.8139 15.7585 40.8139 15.7485C40.8639 15.7285 40.9239 15.7285 40.9639 15.7285C41.0139 15.7285 41.0539 15.7385 41.0939 15.7585C41.1339 15.7785 41.1639 15.7985 41.1839 15.8385C41.2039 15.8685 41.2239 15.9085 41.2239 15.9585C41.2239 16.0085 41.2139 16.0685 41.1939 16.1285C41.1739 16.1885 41.1439 16.2485 41.1039 16.2985C41.0639 16.3585 41.0139 16.4085 40.9539 16.4585C40.9539 16.5385 40.8939 16.5785 40.8239 16.6085Z" fill="#FEFEFE"/>
<path d="M17.2837 38.4781C17.2337 38.4681 17.1937 38.4582 17.1637 38.4282C17.1337 38.4082 17.1037 38.3781 17.0837 38.3381C17.0637 38.2981 17.0537 38.2582 17.0537 38.2182C17.0537 38.1682 17.0637 38.1182 17.0837 38.0682C17.0837 38.0582 17.0937 38.0482 17.0937 38.0482C17.0937 38.0382 17.1037 38.0282 17.1037 38.0282C17.1037 38.0181 17.1137 38.0082 17.1137 38.0082C17.1137 37.9982 17.1237 37.9881 17.1237 37.9881C17.3737 37.5281 17.6237 37.0581 17.8937 36.5981C18.1637 36.1381 18.4337 35.6782 18.7237 35.2182C19.0137 34.7582 19.3037 34.3082 19.6037 33.8582C19.9037 33.4082 20.2237 32.9582 20.5437 32.5082C20.5537 32.4982 20.5537 32.4881 20.5637 32.4781C20.5737 32.4681 20.5837 32.4581 20.5837 32.4481C20.5937 32.4381 20.6037 32.4281 20.6037 32.4181C20.6137 32.4081 20.6237 32.3982 20.6337 32.3982C20.6537 32.3782 20.6837 32.3581 20.7037 32.3381C20.7337 32.3181 20.7537 32.2982 20.7837 32.2882C20.8137 32.2682 20.8437 32.2582 20.8637 32.2482C20.8937 32.2382 20.9237 32.2282 20.9437 32.2182C21.0237 32.1982 21.1137 32.1882 21.1937 32.2182C21.4437 32.3182 21.3237 32.6382 21.2137 32.7882C19.9937 34.4782 18.8837 36.2482 17.9037 38.0782C17.8137 38.2582 17.6437 38.4082 17.4437 38.4582L17.2837 38.4781Z" fill="#FEFEFE"/>
<path d="M46.523 14.528C46.463 14.548 46.403 14.548 46.343 14.548C46.283 14.538 46.233 14.528 46.193 14.498C46.153 14.468 46.123 14.438 46.103 14.388C46.083 14.348 46.073 14.288 46.083 14.238C46.123 13.988 46.313 13.758 46.553 13.688L46.663 13.658C46.723 13.638 46.783 13.628 46.843 13.608C46.903 13.588 46.963 13.578 47.023 13.558C47.083 13.538 47.143 13.528 47.203 13.508C47.263 13.488 47.323 13.478 47.383 13.458C47.403 13.458 47.423 13.448 47.433 13.448C47.453 13.448 47.473 13.438 47.483 13.438C47.503 13.438 47.523 13.428 47.533 13.428C47.553 13.428 47.573 13.418 47.583 13.418C47.593 13.418 47.603 13.408 47.613 13.408C47.623 13.408 47.633 13.398 47.643 13.398C47.653 13.398 47.663 13.388 47.673 13.388C47.683 13.388 47.693 13.378 47.703 13.378C48.023 13.298 48.343 13.228 48.663 13.158C48.983 13.088 49.303 13.028 49.613 12.968C49.923 12.908 50.243 12.858 50.563 12.808C50.873 12.758 51.193 12.718 51.503 12.678C51.513 12.678 51.523 12.678 51.533 12.678C51.543 12.678 51.553 12.678 51.563 12.678C51.573 12.678 51.583 12.678 51.593 12.678C51.603 12.678 51.613 12.678 51.623 12.678C51.633 12.678 51.653 12.678 51.663 12.668C51.673 12.668 51.693 12.668 51.703 12.658C51.713 12.658 51.733 12.658 51.743 12.648C51.753 12.648 51.773 12.648 51.783 12.638C51.813 12.638 51.853 12.628 51.883 12.628C51.913 12.628 51.953 12.618 51.983 12.618C52.013 12.618 52.053 12.608 52.083 12.608C52.113 12.608 52.153 12.598 52.183 12.598C52.183 12.598 52.183 12.598 52.193 12.598C52.193 12.598 52.193 12.598 52.203 12.598C52.203 12.598 52.203 12.598 52.213 12.598C52.213 12.598 52.213 12.598 52.223 12.598C52.463 12.588 52.573 12.798 52.493 13.008C52.423 13.238 52.203 13.418 51.983 13.478L51.903 13.498C51.493 13.538 51.093 13.588 50.673 13.648C50.263 13.708 49.843 13.778 49.433 13.858C49.013 13.938 48.603 14.018 48.183 14.118C47.763 14.218 47.343 14.318 46.913 14.428C46.903 14.428 46.903 14.428 46.893 14.428C46.883 14.428 46.883 14.428 46.873 14.428C46.873 14.428 46.863 14.428 46.853 14.428C46.843 14.428 46.843 14.428 46.833 14.428C46.803 14.438 46.773 14.448 46.743 14.448C46.713 14.458 46.683 14.468 46.653 14.468C46.623 14.478 46.593 14.488 46.563 14.488C46.583 14.508 46.553 14.518 46.523 14.528Z" fill="#FEFEFE"/>
<path d="M14.2038 48.8186C14.1938 48.8786 14.1738 48.9386 14.1338 48.9986C14.1038 49.0586 14.0538 49.1186 14.0038 49.1786C13.9538 49.2286 13.8938 49.2786 13.8338 49.3186C13.7738 49.3586 13.7138 49.3886 13.6438 49.4086C13.4338 49.4686 13.2038 49.3786 13.2438 49.1286C13.2538 49.0786 13.2538 49.0286 13.2638 48.9886C13.2638 48.9586 13.2738 48.9286 13.2738 48.8986C13.2738 48.8686 13.2838 48.8386 13.2838 48.8086C13.2838 48.7786 13.2938 48.7486 13.2938 48.7186C13.2938 48.6986 13.3038 48.6886 13.3038 48.6686C13.3038 48.6486 13.3138 48.6386 13.3138 48.6186C13.3138 48.5986 13.3238 48.5886 13.3238 48.5686C13.3238 48.5486 13.3338 48.5386 13.3338 48.5186C13.3338 48.5086 13.3338 48.4986 13.3438 48.4786C13.3438 48.4686 13.3438 48.4586 13.3538 48.4386C13.3538 48.4286 13.3538 48.4186 13.3638 48.3986C13.3638 48.3886 13.3638 48.3786 13.3738 48.3586C13.3738 48.3386 13.3838 48.3186 13.3838 48.2886C13.3838 48.2686 13.3938 48.2486 13.3938 48.2186C13.3938 48.1986 13.4038 48.1786 13.4038 48.1486C13.4038 48.1286 13.4138 48.1086 13.4138 48.0786C13.4138 48.0686 13.4138 48.0686 13.4138 48.0586C13.4138 48.0486 13.4138 48.0486 13.4138 48.0386C13.4138 48.0286 13.4138 48.0286 13.4138 48.0186C13.4138 48.0086 13.4138 48.0086 13.4138 47.9986C13.4138 47.9786 13.4238 47.9586 13.4238 47.9286C13.4238 47.9086 13.4338 47.8786 13.4338 47.8586C13.4338 47.8386 13.4438 47.8186 13.4438 47.7886C13.4438 47.7686 13.4538 47.7486 13.4538 47.7186C13.4538 47.7086 13.4538 47.7086 13.4538 47.6986C13.4538 47.6886 13.4538 47.6886 13.4538 47.6786C13.4538 47.6686 13.4538 47.6686 13.4538 47.6586C13.4538 47.6486 13.4538 47.6486 13.4538 47.6386C13.4538 47.6186 13.4638 47.5986 13.4638 47.5786C13.4638 47.5586 13.4738 47.5386 13.4738 47.5186C13.4738 47.4986 13.4838 47.4786 13.4838 47.4586C13.4838 47.4386 13.4938 47.4186 13.4938 47.3986C13.4938 47.3886 13.4938 47.3786 13.5038 47.3686C13.5038 47.3586 13.5038 47.3486 13.5138 47.3386C13.5138 47.3286 13.5138 47.3186 13.5238 47.3086C13.5238 47.2986 13.5238 47.2886 13.5338 47.2786C13.5338 47.2586 13.5438 47.2386 13.5438 47.2286C13.5438 47.2086 13.5538 47.1886 13.5538 47.1786C13.5538 47.1586 13.5638 47.1386 13.5638 47.1286C13.5638 47.1086 13.5738 47.0886 13.5738 47.0786C13.5738 47.0686 13.5838 47.0586 13.5838 47.0386C13.5838 47.0286 13.5938 47.0186 13.5938 46.9986C13.5938 46.9886 13.6038 46.9786 13.6038 46.9586C13.6038 46.9486 13.6138 46.9286 13.6138 46.9186C13.6138 46.9086 13.6238 46.8886 13.6238 46.8786C13.6238 46.8686 13.6338 46.8486 13.6338 46.8386C13.6338 46.8286 13.6438 46.8086 13.6438 46.7986C13.6438 46.7886 13.6538 46.7686 13.6538 46.7586C13.6538 46.7386 13.6638 46.7186 13.6638 46.7086C13.6638 46.6886 13.6738 46.6686 13.6738 46.6586C13.6738 46.6386 13.6838 46.6186 13.6838 46.6086C13.6838 46.5886 13.6938 46.5686 13.6938 46.5586C13.6938 46.5486 13.6938 46.5386 13.7038 46.5386C13.7038 46.5286 13.7038 46.5186 13.7138 46.5186C13.7138 46.5086 13.7138 46.4986 13.7238 46.4986C13.7238 46.4886 13.7238 46.4786 13.7338 46.4786C13.7938 46.2386 13.8538 45.9886 13.9238 45.7486C13.9938 45.5086 14.0638 45.2586 14.1338 45.0186C14.2038 44.7786 14.2838 44.5286 14.3538 44.2886C14.4338 44.0486 14.5138 43.7986 14.5938 43.5586C14.5938 43.5486 14.6038 43.5486 14.6038 43.5386C14.6038 43.5286 14.6038 43.5186 14.6138 43.5186C14.6138 43.5086 14.6238 43.5086 14.6238 43.4986C14.6238 43.4886 14.6338 43.4886 14.6338 43.4786C14.6538 43.4286 14.6838 43.3886 14.7238 43.3486C14.7538 43.3086 14.7938 43.2686 14.8338 43.2286C14.8738 43.1986 14.9138 43.1686 14.9638 43.1386C15.0038 43.1186 15.0538 43.0986 15.1038 43.0786C15.1438 43.0686 15.1738 43.0586 15.2138 43.0586C15.2738 43.0586 15.3238 43.0586 15.3738 43.0786C15.4138 43.0986 15.4538 43.1286 15.4838 43.1586C15.5138 43.1986 15.5238 43.2386 15.5238 43.2886C15.5238 43.3386 15.5238 43.3986 15.4938 43.4586C15.3538 43.8686 15.2138 44.2886 15.0938 44.6986C14.9638 45.1086 14.8538 45.5286 14.7438 45.9386C14.6338 46.3486 14.5338 46.7686 14.4538 47.1786C14.3638 47.5886 14.2838 47.9986 14.2138 48.4086C14.2138 48.4086 14.2138 48.4086 14.2138 48.4186C14.2138 48.4186 14.2138 48.4186 14.2138 48.4286C14.2138 48.4286 14.2138 48.4286 14.2138 48.4386C14.2138 48.4386 14.2138 48.4386 14.2138 48.4486C14.2138 48.4786 14.2038 48.5086 14.2038 48.5386C14.2038 48.5686 14.1938 48.5986 14.1938 48.6286C14.1938 48.6586 14.1838 48.6886 14.1838 48.7186C14.2138 48.7586 14.2138 48.7886 14.2038 48.8186Z" fill="#FEFEFE"/>
<path d="M57.1037 13.4586C57.0437 13.4486 57.0037 13.4286 56.9637 13.4086C56.9237 13.3786 56.8938 13.3386 56.8838 13.2986C56.8638 13.2586 56.8638 13.1986 56.8738 13.1486C56.8838 13.0886 56.9037 13.0286 56.9337 12.9686C56.9637 12.9186 56.9938 12.8786 57.0238 12.8386C57.0638 12.7986 57.0938 12.7586 57.1438 12.7286C57.1838 12.6986 57.2238 12.6686 57.2738 12.6386C57.3138 12.6186 57.3638 12.5986 57.4138 12.5786C57.4238 12.5786 57.4438 12.5686 57.4538 12.5686C57.4638 12.5686 57.4838 12.5686 57.4938 12.5586C57.5038 12.5586 57.5238 12.5586 57.5338 12.5586C57.5438 12.5586 57.5637 12.5586 57.5737 12.5586C59.2137 12.7286 60.8338 13.0786 62.3938 13.6286C62.4038 13.6286 62.4038 13.6386 62.4138 13.6386C62.4238 13.6386 62.4237 13.6486 62.4338 13.6486C62.4438 13.6486 62.4438 13.6586 62.4538 13.6586C62.4638 13.6586 62.4638 13.6686 62.4738 13.6686C62.6538 13.8086 62.5737 14.0586 62.4637 14.2086L62.0438 14.5086L61.7938 14.5186C61.4338 14.3886 61.0637 14.2686 60.6837 14.1586C60.3038 14.0486 59.9238 13.9486 59.5338 13.8586C59.1438 13.7686 58.7537 13.6886 58.3537 13.6286C57.9237 13.5586 57.5137 13.5086 57.1037 13.4586C57.0437 13.4586 57.5137 13.5086 57.1037 13.4586Z" fill="#FEFEFE"/>
<path d="M13.8939 53.9895C13.9139 54.3995 13.954 54.7995 13.994 55.1995C14.034 55.5995 14.0939 55.9895 14.1639 56.3795C14.2339 56.7695 14.3039 57.1495 14.3939 57.5295C14.4839 57.9095 14.5839 58.2794 14.6939 58.6494C14.7739 58.8994 14.5439 59.1795 14.3439 59.2995L14.1739 59.3795C14.1339 59.3895 14.0939 59.3994 14.0539 59.3994C14.0139 59.3994 13.9839 59.3995 13.9539 59.3895C13.9239 59.3795 13.8939 59.3695 13.8639 59.3495C13.8339 59.3295 13.8139 59.3095 13.8039 59.2795C13.7939 59.2595 13.784 59.2395 13.774 59.2195C13.684 58.9295 13.604 58.6294 13.524 58.3194C13.444 58.0194 13.3739 57.7094 13.3139 57.3994C13.2539 57.0894 13.1939 56.7795 13.1539 56.4595C13.1039 56.1395 13.0639 55.8195 13.0339 55.4995C13.0339 55.4895 13.0339 55.4895 13.0339 55.4795C13.0339 55.4695 13.0339 55.4695 13.0339 55.4595C13.0339 55.4495 13.0339 55.4495 13.0339 55.4395C13.0339 55.4295 13.0339 55.4295 13.0339 55.4195C13.0339 55.4095 13.0339 55.3995 13.0339 55.3795C13.0339 55.3695 13.0339 55.3595 13.0339 55.3395C13.0339 55.3295 13.0339 55.3195 13.0339 55.2995C13.0339 55.2895 13.0339 55.2795 13.0339 55.2595C13.0239 55.1895 13.0239 55.1094 13.0139 55.0394C13.0039 54.9694 13.004 54.8894 12.994 54.8194C12.994 54.7494 12.9839 54.6695 12.9839 54.5995C12.9839 54.5295 12.9739 54.4495 12.9739 54.3795C12.9639 54.1095 13.1939 53.8495 13.4339 53.7495C13.4439 53.7495 13.4439 53.7395 13.4539 53.7395C13.4639 53.7395 13.4639 53.7295 13.4739 53.7295C13.4839 53.7295 13.484 53.7295 13.494 53.7195C13.504 53.7195 13.5039 53.7195 13.5139 53.7095C13.5639 53.6995 13.6139 53.6895 13.6639 53.6995C13.7139 53.6995 13.7539 53.7195 13.7839 53.7395C13.8239 53.7595 13.8539 53.7895 13.8739 53.8295C13.8739 53.8895 13.8839 53.9395 13.8939 53.9895C13.9139 54.3895 13.8839 53.9395 13.8939 53.9895Z" fill="#FEFEFE"/>
<path d="M68.8438 19.6287C68.6238 19.3387 68.3938 19.0587 68.1538 18.7787C67.9138 18.5087 67.6638 18.2387 67.4038 17.9887C67.1438 17.7387 66.8738 17.4888 66.5938 17.2588C66.3138 17.0288 66.0238 16.7987 65.7238 16.5887C65.5038 16.4287 65.6638 16.1087 65.8038 15.9688C65.8338 15.9387 65.8638 15.9087 65.8938 15.8887C65.9238 15.8687 65.9538 15.8387 65.9838 15.8187C66.0138 15.7987 66.0438 15.7787 66.0738 15.7687C66.1038 15.7587 66.1338 15.7387 66.1638 15.7387C66.1838 15.7287 66.2038 15.7287 66.2238 15.7287C66.2438 15.7287 66.2638 15.7287 66.2838 15.7188C66.3038 15.7188 66.3238 15.7188 66.3438 15.7188C66.3638 15.7188 66.3838 15.7287 66.3938 15.7287C66.4238 15.7387 66.4538 15.7488 66.4738 15.7588C66.7838 15.9788 67.0838 16.2087 67.3738 16.4487C67.6638 16.6887 67.9438 16.9487 68.2138 17.2087C68.4838 17.4687 68.7438 17.7387 68.9938 18.0187C69.2438 18.2987 69.4838 18.5887 69.7038 18.8787C69.7138 18.8887 69.7138 18.8888 69.7238 18.8988C69.7238 18.9088 69.7338 18.9187 69.7338 18.9187C69.7338 18.9287 69.7438 18.9388 69.7438 18.9388C69.7438 18.9488 69.7538 18.9588 69.7538 18.9688C69.8038 19.1788 69.6538 19.3987 69.5038 19.5287L69.2138 19.6888L68.8438 19.6287Z" fill="#FEFEFE"/>
<path d="M16.5832 62.659C17.3732 63.889 18.3732 64.969 19.4932 65.909C19.6832 66.089 19.5332 66.399 19.3932 66.549L19.0332 66.769L18.7432 66.729H18.7132C18.4232 66.489 18.1432 66.239 17.8732 65.979C17.6032 65.719 17.3432 65.449 17.0932 65.169C16.8432 64.889 16.6032 64.599 16.3732 64.309C16.1432 64.009 15.9232 63.709 15.7232 63.389C15.7232 63.379 15.7132 63.379 15.7132 63.369C15.7132 63.359 15.7032 63.359 15.7032 63.349C15.7032 63.339 15.6932 63.329 15.6932 63.329C15.6932 63.319 15.6932 63.309 15.6832 63.309C15.6332 63.099 15.7932 62.869 15.9432 62.739C15.9632 62.719 15.9932 62.699 16.0132 62.689C16.0332 62.669 16.0632 62.659 16.0832 62.649C16.1032 62.639 16.1332 62.629 16.1532 62.619C16.1732 62.609 16.2032 62.599 16.2232 62.599C16.3432 62.539 16.4932 62.549 16.5832 62.659C16.7832 62.969 16.5632 62.639 16.5832 62.659Z" fill="#FEFEFE"/>
<path d="M72.4432 28.3593C72.3932 28.3693 72.3532 28.3793 72.3032 28.3793C72.2632 28.3793 72.2232 28.3693 72.1832 28.3493C72.1432 28.3293 72.1132 28.3093 72.0832 28.2893C72.0532 28.2593 72.0332 28.2293 72.0232 28.1893C72.0232 28.1693 72.0132 28.1593 72.0132 28.1393C71.9932 27.8893 71.9632 27.6493 71.9232 27.4093C71.8932 27.1693 71.8532 26.9293 71.8132 26.6893C71.7732 26.4493 71.7232 26.2193 71.6732 25.9793C71.6232 25.7393 71.5732 25.5093 71.5132 25.2893C71.4732 25.1393 71.4332 24.9893 71.3932 24.8393C71.3532 24.6893 71.3132 24.5393 71.2632 24.3993C71.2232 24.2493 71.1732 24.1093 71.1232 23.9593C71.0732 23.8193 71.0232 23.6693 70.9732 23.5293C70.8732 23.2793 71.0932 23.0093 71.2932 22.8893C71.3132 22.8793 71.3232 22.8693 71.3432 22.8593C71.3632 22.8493 71.3732 22.8393 71.3932 22.8393C71.4132 22.8293 71.4232 22.8293 71.4432 22.8193C71.4632 22.8093 71.4732 22.8093 71.4932 22.7993C71.5332 22.7893 71.5732 22.7793 71.6132 22.7793C71.6532 22.7793 71.6832 22.7793 71.7132 22.7893C71.7432 22.7993 71.7732 22.8093 71.8032 22.8193C71.8332 22.8393 71.8532 22.8593 71.8732 22.8793C71.8732 22.8793 71.8832 22.8893 71.8832 22.8993C71.8832 22.9093 71.8932 22.9093 71.8932 22.9193C71.8932 22.9293 71.9032 22.9293 71.9032 22.9393C71.9032 22.9493 71.9132 22.9493 71.9132 22.9593C72.0532 23.3193 72.1832 23.6993 72.2932 24.0793C72.4032 24.4593 72.5132 24.8493 72.6032 25.2493C72.6932 25.6493 72.7732 26.0493 72.8432 26.4593C72.9132 26.8693 72.9632 27.2893 73.0132 27.7093C73.0132 27.7193 73.0132 27.7193 73.0132 27.7293C73.0132 27.7393 73.0132 27.7393 73.0132 27.7493C73.0132 27.7593 73.0132 27.7693 73.0132 27.7693C73.0132 27.7793 73.0132 27.7893 73.0132 27.7893C72.9832 28.0293 72.7732 28.2393 72.5632 28.3393L72.4432 28.3593Z" fill="#FEFEFE"/>
<path d="M72.9138 32.9886C72.9138 32.9986 72.9138 32.9986 72.9138 33.0086C72.9038 33.0786 72.8938 33.1586 72.8838 33.2286C72.8838 33.2586 72.8738 33.2886 72.8738 33.3186C72.8738 33.3486 72.8638 33.3786 72.8638 33.4086C72.8638 33.4386 72.8538 33.4686 72.8538 33.4986V33.5086C72.8538 33.5186 72.8538 33.5186 72.8538 33.5286C72.8538 33.5386 72.8538 33.5386 72.8538 33.5486C72.8538 33.5486 72.8538 33.5586 72.8538 33.5686C72.8538 33.5886 72.8438 33.6186 72.8438 33.6386C72.8438 33.6586 72.8338 33.6886 72.8338 33.7086C72.8338 33.7286 72.8238 33.7586 72.8238 33.7786C72.8238 33.7986 72.8138 33.8286 72.8138 33.8486C72.8138 33.8686 72.8138 33.8786 72.8038 33.8986C72.8038 33.9186 72.8038 33.9286 72.7938 33.9486C72.7938 33.9686 72.7938 33.9786 72.7838 33.9986C72.7838 34.0186 72.7838 34.0286 72.7738 34.0486C72.7738 34.0586 72.7738 34.0786 72.7638 34.0886C72.7638 34.0986 72.7638 34.1186 72.7538 34.1286C72.7538 34.1386 72.7538 34.1586 72.7438 34.1686C72.7438 34.1786 72.7438 34.1986 72.7338 34.2086C72.7338 34.2286 72.7238 34.2486 72.7238 34.2586C72.7238 34.2786 72.7138 34.2986 72.7138 34.3086C72.7138 34.3286 72.7038 34.3486 72.7038 34.3586C72.7038 34.3786 72.6938 34.3986 72.6938 34.4086C72.6938 34.4186 72.6938 34.4286 72.6838 34.4386C72.6838 34.4486 72.6838 34.4586 72.6838 34.4686C72.6838 34.4786 72.6838 34.4886 72.6738 34.4986C72.6738 34.5086 72.6738 34.5186 72.6638 34.5286C72.6638 34.5486 72.6538 34.5686 72.6538 34.5886C72.6538 34.6086 72.6438 34.6286 72.6438 34.6486C72.6438 34.6686 72.6338 34.6886 72.6338 34.7086C72.6338 34.7286 72.6238 34.7486 72.6238 34.7686C72.6238 34.7786 72.6238 34.7886 72.6138 34.7986C72.6138 34.8086 72.6138 34.8186 72.6138 34.8286C72.6138 34.8386 72.6138 34.8486 72.6038 34.8586C72.6038 34.8686 72.6038 34.8786 72.6038 34.8886C72.6038 34.9086 72.5938 34.9286 72.5938 34.9486C72.5938 34.9686 72.5838 34.9886 72.5838 35.0086C72.5838 35.0286 72.5738 35.0486 72.5738 35.0686C72.5738 35.0886 72.5638 35.1086 72.5638 35.1286C72.5638 35.1386 72.5638 35.1486 72.5538 35.1586C72.5538 35.1686 72.5538 35.1786 72.5438 35.1886C72.5438 35.1986 72.5438 35.2086 72.5338 35.2186C72.5338 35.2286 72.5338 35.2386 72.5238 35.2486C72.5238 35.2686 72.5138 35.2886 72.5138 35.3086C72.5138 35.3286 72.5038 35.3486 72.5038 35.3686C72.5038 35.3886 72.4938 35.4086 72.4938 35.4286C72.4938 35.4486 72.4838 35.4686 72.4838 35.4886C72.4838 35.4986 72.4838 35.5086 72.4738 35.5286C72.4738 35.5386 72.4738 35.5486 72.4638 35.5686C72.4638 35.5786 72.4638 35.5886 72.4538 35.6086C72.4538 35.6186 72.4538 35.6286 72.4438 35.6486C72.4438 35.6686 72.4338 35.6886 72.4338 35.6986C72.4338 35.7186 72.4238 35.7386 72.4238 35.7486C72.4238 35.7686 72.4138 35.7886 72.4138 35.7986C72.4138 35.8186 72.4038 35.8386 72.4038 35.8486C72.4038 35.8586 72.3938 35.8686 72.3938 35.8886C72.3938 35.8986 72.3938 35.9086 72.3838 35.9286C72.3838 35.9386 72.3738 35.9586 72.3738 35.9686C72.3738 35.9786 72.3638 35.9986 72.3638 36.0086C72.3638 36.0286 72.3538 36.0386 72.3538 36.0586C72.3538 36.0786 72.3438 36.0886 72.3438 36.1086C72.3438 36.1286 72.3338 36.1386 72.3338 36.1586C72.3338 36.1786 72.3238 36.1886 72.3238 36.2086C72.3238 36.2286 72.3138 36.2386 72.3138 36.2586C72.3138 36.2786 72.3038 36.2886 72.3038 36.3086C72.3038 36.3286 72.2938 36.3386 72.2938 36.3586C72.2938 36.3686 72.2838 36.3886 72.2838 36.3986C72.2838 36.4086 72.2738 36.4286 72.2738 36.4386C72.2738 36.4486 72.2638 36.4586 72.2638 36.4786C72.2638 36.4886 72.2538 36.4986 72.2538 36.5186C72.2538 36.5286 72.2438 36.5486 72.2438 36.5586C72.2438 36.5786 72.2338 36.5986 72.2338 36.6186C72.2338 36.6386 72.2238 36.6586 72.2238 36.6786C72.2238 36.6986 72.2138 36.7186 72.2138 36.7386C72.2138 36.7586 72.2038 36.7786 72.2038 36.7986C72.2038 36.8086 72.2038 36.8186 72.1938 36.8286C72.1938 36.8386 72.1938 36.8486 72.1838 36.8586C72.1838 36.8686 72.1838 36.8786 72.1738 36.8886C72.1738 36.8986 72.1738 36.9086 72.1638 36.9186C72.1538 36.9386 72.1538 36.9586 72.1438 36.9886C72.1338 37.0086 72.1338 37.0386 72.1238 37.0586C72.1138 37.0786 72.1138 37.1086 72.1038 37.1286C72.0938 37.1486 72.0938 37.1786 72.0838 37.1986C72.0838 37.1986 72.0838 37.2086 72.0838 37.2186C72.0838 37.2286 72.0838 37.2286 72.0838 37.2386C72.0838 37.2486 72.0838 37.2486 72.0838 37.2586C72.0838 37.2586 72.0838 37.2686 72.0838 37.2786C72.0738 37.3086 72.0738 37.3286 72.0638 37.3586C72.0538 37.3886 72.0538 37.4086 72.0438 37.4386C72.0338 37.4686 72.0338 37.4886 72.0238 37.5186C72.0138 37.5486 72.0138 37.5686 72.0038 37.5986C72.0038 37.5986 72.0038 37.5986 72.0038 37.6086C72.0038 37.6086 72.0038 37.6086 72.0038 37.6186C72.0038 37.6186 72.0038 37.6186 72.0038 37.6286C72.0038 37.6286 72.0038 37.6286 72.0038 37.6386C71.8838 38.0586 71.7538 38.4786 71.6238 38.8986C71.6238 38.8986 71.6238 38.8986 71.6238 38.9086C71.6238 38.9086 71.6238 38.9086 71.6238 38.9186C71.6238 38.9186 71.6238 38.9186 71.6238 38.9286C71.6238 38.9286 71.6238 38.9286 71.6238 38.9386C71.5438 39.1586 71.3338 39.3386 71.1138 39.3986L71.0238 39.4186C70.9538 39.4286 70.8938 39.4186 70.8438 39.3986C70.7938 39.3786 70.7538 39.3486 70.7238 39.3086C70.6938 39.2686 70.6838 39.2186 70.6738 39.1686C70.6738 39.1086 70.6738 39.0486 70.6938 38.9886V38.9786V38.9686V38.9586V38.9486C70.8238 38.5486 70.9438 38.1486 71.0538 37.7486C71.1638 37.3486 71.2738 36.9486 71.3638 36.5486C71.4538 36.1486 71.5438 35.7486 71.6238 35.3586C71.7038 34.9586 71.7738 34.5686 71.8338 34.1786C71.8338 34.1486 71.8438 34.1186 71.8438 34.0986C71.8438 34.0686 71.8538 34.0386 71.8538 34.0186C71.8538 33.9886 71.8638 33.9686 71.8638 33.9386C71.8638 33.9086 71.8738 33.8886 71.8738 33.8586C71.8938 33.7486 71.9038 33.6286 71.9238 33.5186C71.9338 33.4186 71.9538 33.2986 72.0038 33.2086C72.0338 33.1486 72.0738 33.0886 72.1238 33.0386C72.1738 32.9886 72.2238 32.9386 72.2838 32.9086C72.3438 32.8686 72.4038 32.8386 72.4738 32.8286C72.5438 32.8086 72.6038 32.8086 72.6638 32.8086C72.7238 32.8186 72.7638 32.8286 72.8038 32.8586C72.8438 32.8886 72.8738 32.9186 72.8938 32.9686C72.9038 32.8786 72.9138 32.9286 72.9138 32.9886Z" fill="#FEFEFE"/>
<path d="M38.7032 68.7588C38.7732 68.7388 38.8332 68.7388 38.8832 68.7488C38.9432 68.7588 38.9932 68.7788 39.0332 68.8088C39.0732 68.8388 39.1032 68.8788 39.1232 68.9288C39.1432 68.9788 39.1532 69.0388 39.1432 69.0988C39.1032 69.3688 38.8632 69.6188 38.6132 69.6888L38.5732 69.6988C38.2432 69.7788 37.9032 69.8688 37.5732 69.9388C37.2632 70.0088 36.9532 70.0788 36.6432 70.1388C36.3332 70.1988 36.0231 70.2588 35.7132 70.3088C35.4032 70.3588 35.0932 70.4088 34.7832 70.4488H34.7732H34.7632H34.7532H34.7432C34.7232 70.4488 34.6932 70.4588 34.6732 70.4588C34.6532 70.4588 34.6231 70.4688 34.6031 70.4688C34.5831 70.4688 34.5532 70.4788 34.5332 70.4788C34.5132 70.4788 34.4832 70.4888 34.4632 70.4888C34.4532 70.4888 34.4332 70.4888 34.4232 70.4888C34.4132 70.4888 34.3932 70.4888 34.3832 70.4888C34.3732 70.4888 34.3532 70.4888 34.3432 70.4888C34.3332 70.4888 34.3132 70.4888 34.3032 70.4888C34.2932 70.4888 34.2732 70.4888 34.2632 70.4888C34.2532 70.4888 34.2432 70.4888 34.2232 70.4888C34.2132 70.4888 34.1932 70.4888 34.1832 70.4888C34.1732 70.4888 34.1632 70.4888 34.1432 70.4888C34.1232 70.4888 34.0932 70.4988 34.0732 70.4988C34.0532 70.4988 34.0232 70.5088 34.0032 70.5088C33.9832 70.5088 33.9532 70.5188 33.9332 70.5188C33.9132 70.5188 33.8832 70.5288 33.8632 70.5288C33.7732 70.5388 33.6832 70.5488 33.5932 70.5588C33.5032 70.5688 33.4132 70.5788 33.3232 70.5788C33.2332 70.5888 33.1532 70.5888 33.0632 70.5988C32.9732 70.6088 32.8932 70.6088 32.8032 70.6188C32.7432 70.6188 32.6832 70.6088 32.6432 70.5888C32.5932 70.5688 32.5632 70.5388 32.5332 70.4888C32.5032 70.4488 32.4932 70.3988 32.4932 70.3388C32.4932 70.2788 32.5032 70.2188 32.5232 70.1588C32.5432 70.0988 32.5731 70.0488 32.6031 69.9888C32.6331 69.9388 32.6832 69.8888 32.7232 69.8388C32.7732 69.7988 32.8232 69.7588 32.8732 69.7288C32.9232 69.6988 32.9832 69.6788 33.0332 69.6588C33.0332 69.6588 33.0332 69.6588 33.0432 69.6588H33.0532C33.0532 69.6588 33.0532 69.6588 33.0632 69.6588H33.0732H33.0832H33.0932H33.1031H33.1132C33.5332 69.6288 33.9632 69.5888 34.3932 69.5388C34.8232 69.4888 35.2532 69.4288 35.6932 69.3588C36.1332 69.2888 36.5732 69.2088 37.0132 69.1188C37.4532 69.0288 37.8932 68.9288 38.3432 68.8288C38.3732 68.8188 38.4032 68.8188 38.4332 68.8088C38.4632 68.7988 38.4932 68.7888 38.5232 68.7888C38.5532 68.7788 38.5832 68.7688 38.6132 68.7688C38.6432 68.7788 38.6732 68.7688 38.7032 68.7588Z" fill="#FEFEFE"/>
<path d="M67.1831 46.5879C67.1531 46.6479 67.1231 46.6979 67.0931 46.7479C67.0631 46.7979 67.0331 46.8479 67.0031 46.8979C66.9731 46.9479 66.9431 46.9879 66.9231 47.0379C66.8931 47.0879 66.8731 47.1279 66.8431 47.1679C65.7231 49.0079 64.4531 50.7979 63.0531 52.5179C61.6531 54.2379 60.1231 55.8779 58.4931 57.4179C56.8631 58.9579 55.1231 60.3979 53.3131 61.7179C51.5031 63.0279 49.6131 64.2179 47.6631 65.2479C47.6231 65.2679 47.5831 65.2879 47.5531 65.3079C47.5131 65.3279 47.4831 65.3479 47.4531 65.3579C47.4231 65.3779 47.3931 65.3879 47.3631 65.4079C47.3331 65.4179 47.3131 65.4379 47.2831 65.4479C47.2431 65.4679 47.2031 65.4879 47.1731 65.5079C47.1331 65.5279 47.1031 65.5479 47.0631 65.5679C47.0231 65.5879 46.9931 65.6079 46.9531 65.6279C46.9131 65.6479 46.8731 65.6679 46.8431 65.6879C46.8231 65.6979 46.8031 65.7079 46.7831 65.7179C46.7631 65.7279 46.7431 65.7379 46.7231 65.7479C46.7031 65.7579 46.6831 65.7679 46.6631 65.7779C46.6431 65.7879 46.6231 65.7979 46.6031 65.8079C46.5631 65.8279 46.5231 65.8479 46.4931 65.8679C46.4531 65.8879 46.4231 65.9079 46.3831 65.9179C46.3431 65.9379 46.3131 65.9579 46.2731 65.9679C46.2331 65.9879 46.1931 66.0079 46.1631 66.0179C45.5531 66.3079 44.9531 66.5879 44.3331 66.8479C43.7231 67.1079 43.1031 67.3579 42.4831 67.5879C41.8631 67.8179 41.2431 68.0279 40.6131 68.2279C39.9931 68.4279 39.3631 68.5979 38.7331 68.7579C38.7031 68.7679 38.6731 68.7779 38.6431 68.7779C38.6131 68.7879 38.5831 68.7979 38.5531 68.7979C38.5231 68.8079 38.4931 68.8179 38.4631 68.8179C38.4331 68.8279 38.4031 68.8279 38.3731 68.8379C37.9331 68.9479 37.4831 69.0479 37.0431 69.1279C36.6031 69.2179 36.1631 69.2979 35.7231 69.3679C35.2831 69.4379 34.8531 69.4979 34.4231 69.5479C33.9931 69.5979 33.5631 69.6379 33.1431 69.6679C29.8931 69.8779 26.9431 69.4979 24.3931 68.5979C21.8531 67.6979 19.6931 66.2779 18.0031 64.4279C16.3231 62.5879 15.1231 60.3079 14.4631 57.6779C13.8131 55.0579 13.7031 52.0779 14.2231 48.8179C14.2231 48.7879 14.2331 48.7579 14.2331 48.7279C14.2331 48.6979 14.2431 48.6679 14.2431 48.6379C14.2431 48.6079 14.2531 48.5779 14.2531 48.5479C14.2531 48.5179 14.2631 48.4879 14.2631 48.4579C14.7831 45.4579 15.8031 42.4379 17.2031 39.5179C18.6131 36.5979 20.4131 33.7579 22.5231 31.0879C24.6331 28.4279 27.0431 25.9379 29.6731 23.7079C32.3031 21.4779 35.1631 19.5179 38.1531 17.9179C38.3131 17.8279 38.4731 17.7479 38.6431 17.6579C38.8031 17.5779 38.9631 17.4879 39.1331 17.4079C39.2931 17.3279 39.4631 17.2479 39.6231 17.1679C39.7831 17.0879 39.9531 17.0079 40.1131 16.9279C40.1631 16.8979 40.2231 16.8779 40.2631 16.8579C40.3131 16.8379 40.3531 16.8179 40.3931 16.7979C40.4331 16.7779 40.4731 16.7579 40.5031 16.7479C40.5431 16.7279 40.5731 16.7179 40.6131 16.6979C41.0931 16.4779 41.5831 16.2679 42.0731 16.0579C42.5631 15.8579 43.0531 15.6579 43.5431 15.4779C44.0331 15.2979 44.5331 15.1279 45.0331 14.9579C45.5331 14.7979 46.0331 14.6479 46.5331 14.5079C46.5631 14.4979 46.5931 14.4879 46.6231 14.4879C46.6531 14.4779 46.6831 14.4679 46.7131 14.4679C46.7431 14.4579 46.7731 14.4479 46.8031 14.4479C46.8331 14.4379 46.8631 14.4279 46.8931 14.4279C50.0031 13.5979 52.9431 13.2679 55.6331 13.3779C58.3331 13.4879 60.7931 14.0479 62.9331 14.9979C65.0831 15.9579 66.9231 17.3279 68.3831 19.0479C69.8431 20.7779 70.9231 22.8679 71.5431 25.2679C71.6031 25.4979 71.6531 25.7279 71.7031 25.9579C71.7531 26.1879 71.7931 26.4279 71.8431 26.6679C71.8831 26.9079 71.9231 27.1479 71.9531 27.3879C71.9831 27.6279 72.0131 27.8779 72.0431 28.1179C72.0831 28.5379 72.1131 28.9679 72.1331 29.3879C72.1531 29.8179 72.1531 30.2479 72.1531 30.6879C72.1431 31.1279 72.1231 31.5679 72.0931 32.0179C72.0631 32.4679 72.0131 32.9179 71.9531 33.3879C71.9531 33.4179 71.9431 33.4479 71.9431 33.4779C71.9431 33.5079 71.9331 33.5379 71.9331 33.5679C71.9331 33.5979 71.9231 33.6279 71.9231 33.6579C71.9231 33.6879 71.9131 33.7179 71.9131 33.7479C71.9131 33.7779 71.9031 33.7979 71.9031 33.8279C71.9031 33.8579 71.8931 33.8779 71.8931 33.9079C71.8931 33.9379 71.8831 33.9579 71.8831 33.9879C71.8831 34.0179 71.8731 34.0379 71.8731 34.0679C71.8131 34.4579 71.7431 34.8579 71.6631 35.2479C71.5831 35.6479 71.4931 36.0379 71.4031 36.4379C71.3131 36.8379 71.2031 37.2379 71.0931 37.6379C70.9831 38.0379 70.8631 38.4379 70.7331 38.8379C70.5831 39.3079 70.4231 39.7779 70.2431 40.2479C70.0731 40.7179 69.8831 41.1879 69.6931 41.6479C69.5031 42.1179 69.2931 42.5779 69.0731 43.0479C68.8531 43.5079 68.6331 43.9779 68.3931 44.4379C68.2931 44.6279 68.1931 44.8179 68.1031 44.9979C68.0031 45.1779 67.9131 45.3579 67.8131 45.5379C67.7131 45.7179 67.6131 45.8879 67.5231 46.0679C67.3831 46.2379 67.2831 46.4079 67.1831 46.5879C67.1431 46.6379 67.2831 46.4079 67.1831 46.5879Z" fill="#ED0E1C"/>
<path d="M53.1631 62.7695C52.6531 63.1295 52.143 63.4795 51.623 63.8195L53.1631 62.7695Z" fill="#6D1627"/>
<path d="M61.0734 54.9692C61.1034 54.9592 61.1334 54.9592 61.1634 54.9492C61.1934 54.9492 61.2234 54.9492 61.2534 54.9492C61.2834 54.9492 61.3034 54.9592 61.3334 54.9692C61.3534 54.9792 61.3834 54.9892 61.4034 55.0092C61.4434 55.0392 61.4634 55.0692 61.4834 55.1092C61.5034 55.1492 61.5134 55.1992 61.5134 55.2492C61.5134 55.2992 61.5034 55.3492 61.4834 55.3992C61.4634 55.4492 61.4434 55.5092 61.4034 55.5592C61.3934 55.5692 61.3934 55.5792 61.3834 55.5892C61.3734 55.5992 61.3734 55.6092 61.3634 55.6192C61.3534 55.6292 61.3534 55.6392 61.3434 55.6492C61.3334 55.6592 61.3234 55.6692 61.3134 55.6792C59.7134 57.3792 58.0034 58.9792 56.2034 60.4692L56.1434 60.4992L55.9134 60.6092L55.5334 60.5092C55.5034 60.4692 55.4934 60.4092 55.4834 60.3592C55.4834 60.2992 55.4934 60.2392 55.5134 60.1792C55.5334 60.1192 55.5634 60.0592 55.6034 59.9992C55.6434 59.9392 55.6934 59.8792 55.7634 59.8292C56.2034 59.4692 56.6334 59.1092 57.0534 58.7392C57.4734 58.3692 57.8934 57.9892 58.3134 57.5992C58.7234 57.2092 59.1334 56.8192 59.5334 56.4192C59.9334 56.0192 60.3234 55.6092 60.7134 55.1992C60.7434 55.1692 60.7734 55.1392 60.8034 55.1192C60.8334 55.0992 60.8634 55.0692 60.8934 55.0592C60.9234 55.0392 60.9534 55.0192 60.9834 55.0092C61.0034 54.9892 61.0434 54.9792 61.0734 54.9692Z" fill="#FEFEFE"/>
<path d="M40.8636 15.7794C40.8536 15.7794 40.8436 15.7795 40.8436 15.7895C40.8336 15.7895 40.8236 15.7995 40.8236 15.7995C40.8136 15.7995 40.8036 15.8094 40.8036 15.8094C40.7936 15.8094 40.7836 15.8195 40.7736 15.8195C39.4636 16.4095 38.1836 17.0694 36.9336 17.7794C39.9636 16.0494 43.1936 14.6395 46.5636 13.6895C46.4936 13.7095 46.4336 13.7394 46.3836 13.7794C46.3336 13.8194 46.2836 13.8594 46.2436 13.9094C46.2036 13.9594 46.1736 14.0095 46.1436 14.0695C46.1136 14.1295 46.1036 14.1794 46.0936 14.2394C46.0536 14.4994 46.3336 14.5895 46.5336 14.5395C44.5036 15.1095 42.5336 15.8495 40.6136 16.7195C40.6336 16.7095 40.6536 16.6995 40.6636 16.6895C40.6836 16.6795 40.7036 16.6694 40.7136 16.6594C40.7336 16.6494 40.7536 16.6394 40.7636 16.6294C40.7836 16.6194 40.8036 16.6094 40.8136 16.5994C40.8836 16.5694 40.9436 16.5294 40.9936 16.4894C41.0536 16.4394 41.0936 16.3895 41.1436 16.3295C41.1836 16.2695 41.2136 16.2094 41.2336 16.1594C41.2536 16.0994 41.2636 16.0394 41.2636 15.9894C41.2636 15.9394 41.2436 15.8995 41.2236 15.8695C41.2036 15.8395 41.1736 15.8095 41.1336 15.7895C41.0936 15.7695 41.0536 15.7595 41.0036 15.7595C40.9736 15.7595 40.9236 15.7694 40.8636 15.7794Z" fill="#A2000C"/>
<path d="M15.1634 43.0995C15.1134 43.1095 15.0734 43.1295 15.0234 43.1595C14.9834 43.1795 14.9334 43.2094 14.8934 43.2495C14.8534 43.2795 14.8134 43.3194 14.7834 43.3694C14.7534 43.4094 14.7234 43.4594 14.6934 43.4995C15.3434 41.6294 16.1534 39.8195 17.0734 38.0695C17.0134 38.2395 17.0734 38.4494 17.2734 38.4794L17.4534 38.4594C17.6534 38.4095 17.8234 38.2595 17.9134 38.0795C18.8934 36.2395 20.0034 34.4695 21.2234 32.7895C21.3334 32.6395 21.4434 32.3195 21.2034 32.2195C21.1234 32.1895 21.0334 32.1895 20.9534 32.2195C20.9234 32.2295 20.8934 32.2395 20.8734 32.2495C20.8434 32.2595 20.8134 32.2795 20.7934 32.2895C20.7634 32.3095 20.7434 32.3194 20.7134 32.3394C20.6834 32.3594 20.6634 32.3795 20.6434 32.3995C21.8934 30.6895 23.2434 29.0595 24.6934 27.5095C24.6034 27.6395 24.5234 27.8895 24.6934 28.0095L25.0034 28.0395L25.3534 27.8195C26.8334 26.2395 28.4334 24.7594 30.1034 23.3794C30.2534 23.2494 30.4734 22.9494 30.3134 22.7394C30.2934 22.7094 30.2734 22.6895 30.2434 22.6795C30.2134 22.6595 30.1934 22.6495 30.1634 22.6495C30.1334 22.6395 30.1034 22.6395 30.0634 22.6395C30.0334 22.6395 29.9934 22.6494 29.9534 22.6594C29.9434 22.6594 29.9234 22.6694 29.9134 22.6694C29.9034 22.6794 29.8834 22.6795 29.8734 22.6895C29.8634 22.6995 29.8434 22.6994 29.8334 22.7094C29.8234 22.7194 29.8034 22.7294 29.7934 22.7294C31.4634 21.3494 33.2134 20.0794 35.0434 18.9194C34.8734 19.0394 34.6734 19.2894 34.7534 19.5194C34.8034 19.6894 35.0034 19.7195 35.1434 19.6795L35.3134 19.5894C36.2434 19.0094 37.1934 18.4595 38.1634 17.9395C26.7934 24.0395 16.5334 35.4495 14.2734 48.4595C14.5634 46.7795 14.9934 45.1194 15.5634 43.5094C15.5834 43.4494 15.5934 43.3894 15.5934 43.3394C15.5934 43.2894 15.5734 43.2395 15.5534 43.2095C15.5234 43.1695 15.4934 43.1395 15.4434 43.1295C15.4034 43.1095 15.3434 43.1095 15.2834 43.1095C15.2334 43.0895 15.1934 43.0895 15.1634 43.0995Z" fill="#6D1627"/>
<path d="M71.5232 25.2693C70.3132 20.5493 67.0532 16.7293 62.5532 14.8393C57.8232 12.8493 52.4332 13.0493 47.5332 14.2693C48.9832 13.9093 50.4532 13.6393 51.9432 13.4893L52.0232 13.4693C52.2432 13.4093 52.4632 13.2193 52.5332 12.9993C52.6032 12.7893 52.5032 12.5793 52.2632 12.5893C54.0232 12.4093 55.8132 12.3893 57.5732 12.5793C57.5132 12.5693 57.4632 12.5793 57.4132 12.5993C57.3632 12.6093 57.3232 12.6293 57.2732 12.6593C57.2232 12.6793 57.1832 12.7093 57.1432 12.7493C57.1032 12.7793 57.0632 12.8193 57.0232 12.8593C56.9832 12.8993 56.9532 12.9493 56.9332 12.9893C56.9032 13.0493 56.8832 13.1093 56.8732 13.1693C56.8632 13.2293 56.8732 13.2793 56.8832 13.3193C56.9032 13.3593 56.9232 13.3993 56.9632 13.4293C57.0032 13.4593 57.0432 13.4793 57.1032 13.4793C57.5132 13.5193 57.9132 13.5793 58.3132 13.6493C58.7132 13.7193 59.1032 13.7893 59.4932 13.8793C59.8832 13.9693 60.2632 14.0693 60.6432 14.1793C61.0232 14.2893 61.3932 14.4093 61.7532 14.5393L62.0032 14.5293L62.4232 14.2293C62.5332 14.0793 62.6232 13.8293 62.4332 13.6893C63.8332 14.1993 65.1732 14.8893 66.3932 15.7593C66.3132 15.7393 66.2332 15.7493 66.1632 15.7693C66.1332 15.7793 66.1032 15.7893 66.0732 15.7993C66.0432 15.8093 66.0132 15.8293 65.9832 15.8493C65.9532 15.8693 65.9232 15.8893 65.8932 15.9193C65.8632 15.9393 65.8332 15.9693 65.8032 15.9993C65.6632 16.1393 65.5032 16.4593 65.7232 16.6193C66.0232 16.8293 66.3132 17.0593 66.5932 17.2893C66.8732 17.5193 67.1432 17.7693 67.4032 18.0193C67.6632 18.2693 67.9132 18.5393 68.1532 18.8093C68.3932 19.0793 68.6232 19.3693 68.8432 19.6593L69.2232 19.7393L69.5132 19.5793C69.6632 19.4493 69.8132 19.2293 69.7632 19.0193C70.6532 20.1993 71.3632 21.5093 71.8832 22.8793C71.7932 22.7693 71.6332 22.7593 71.5032 22.7993C71.4832 22.7993 71.4732 22.8093 71.4532 22.8193C71.4332 22.8293 71.4232 22.8293 71.4032 22.8393C71.3832 22.8493 71.3732 22.8593 71.3532 22.8593C71.3332 22.8593 71.3232 22.8793 71.3032 22.8893C71.1132 23.0093 70.8832 23.2893 70.9832 23.5293C71.0332 23.6693 71.0832 23.8093 71.1332 23.9593C71.1832 24.0993 71.2332 24.2493 71.2732 24.3993C71.3132 24.5493 71.3632 24.6893 71.4032 24.8393C71.4432 24.9693 71.4832 25.1193 71.5232 25.2693C70.9132 22.9093 71.4832 25.1193 71.5232 25.2693Z" fill="#6D1627"/>
<path d="M73.0038 27.7793C73.1738 29.5093 73.1238 31.2593 72.9138 32.9893C72.9138 32.9293 72.9138 32.8793 72.8938 32.8393C72.8738 32.7993 72.8438 32.7593 72.8038 32.7293C72.7638 32.6993 72.7138 32.6893 72.6638 32.6793C72.6038 32.6693 72.5438 32.6793 72.4738 32.6993C72.2238 32.7693 71.9738 32.9993 71.9438 33.2693L71.9238 33.3993C72.1438 31.6693 72.1938 29.9193 72.0338 28.1793C72.0938 28.3593 72.2938 28.3993 72.4538 28.3593L72.5638 28.3293C72.7638 28.2293 72.9738 28.0193 73.0038 27.7793C73.0438 28.1893 72.9938 27.8293 73.0038 27.7793Z" fill="#A2000C"/>
<path d="M71.0838 39.2979C71.3038 39.2379 71.5238 39.0579 71.5938 38.8379C70.9637 40.7879 70.1538 42.6879 69.2238 44.5179C69.2438 44.4579 69.2438 44.4079 69.2438 44.3579C69.2438 44.3079 69.2337 44.2679 69.2137 44.2279C69.1937 44.1879 69.1638 44.1579 69.1338 44.1279C69.0938 44.1079 69.0538 44.0879 69.0038 44.0779C68.9938 44.0779 68.9737 44.0779 68.9637 44.0779C68.9437 44.0779 68.9338 44.0779 68.9138 44.0779C68.8938 44.0779 68.8838 44.0779 68.8638 44.0879C68.8438 44.0879 68.8338 44.0979 68.8138 44.0979C68.6238 44.1479 68.4537 44.2779 68.3438 44.4379C69.2638 42.6379 70.0538 40.7679 70.6738 38.8379V38.8479V38.8579V38.8679V38.8779C70.5938 39.1179 70.7238 39.3379 70.9938 39.3179L71.0838 39.2979Z" fill="#A2000C"/>
<path d="M51.6233 63.8194C51.1033 64.1594 50.5833 64.4894 50.0533 64.8094C50.2233 64.7094 50.3833 64.6094 50.5533 64.5094C50.6233 64.4694 50.6733 64.4194 50.7233 64.3694C50.7733 64.3194 50.8133 64.2594 50.8433 64.1994C50.8733 64.1394 50.8933 64.0795 50.9033 64.0195C50.9133 63.9595 50.9033 63.8995 50.8933 63.8495C50.8833 63.8095 50.8533 63.7795 50.8333 63.7495C50.8033 63.7194 50.7733 63.6995 50.7433 63.6895C50.7033 63.6795 50.6633 63.6694 50.6233 63.6694C50.5833 63.6694 50.5333 63.6695 50.4833 63.6895C50.4633 63.6895 50.4533 63.6994 50.4333 63.6994C50.4133 63.7094 50.4033 63.7095 50.3833 63.7195C50.3633 63.7295 50.3533 63.7295 50.3333 63.7395C50.3133 63.7495 50.3033 63.7595 50.2833 63.7695C50.0633 63.8995 49.8433 64.0295 49.6333 64.1595C49.4133 64.2895 49.1933 64.4194 48.9733 64.5394C48.7533 64.6694 48.5333 64.7895 48.3133 64.9095C48.0933 65.0295 47.8733 65.1495 47.6533 65.2695C55.4533 61.1195 62.2333 54.7495 66.8233 47.1895C66.2333 48.1695 65.6033 49.1195 64.9433 50.0495C64.8133 50.2195 64.7333 50.5495 65.0033 50.6395L65.2533 50.6494L65.6533 50.3694C64.3433 52.1994 62.9133 53.9494 61.3733 55.5894C61.4733 55.4394 61.5433 55.1694 61.3733 55.0394C61.3533 55.0194 61.3333 55.0095 61.3033 54.9995C61.2733 54.9895 61.2533 54.9794 61.2233 54.9794C61.1933 54.9794 61.1633 54.9794 61.1333 54.9794C61.1033 54.9794 61.0733 54.9895 61.0433 54.9995C61.0133 55.0095 60.9833 55.0194 60.9533 55.0294C60.9233 55.0394 60.8933 55.0595 60.8633 55.0795C60.8333 55.0995 60.8033 55.1195 60.7733 55.1395C60.7433 55.1595 60.7133 55.1895 60.6833 55.2195C60.2933 55.6295 59.9033 56.0395 59.5033 56.4395C59.1033 56.8395 58.6933 57.2294 58.2833 57.6194C57.8733 58.0094 57.4533 58.3894 57.0233 58.7594C56.6033 59.1294 56.1733 59.4995 55.7333 59.8495C55.6733 59.8995 55.6133 59.9595 55.5733 60.0195C55.5333 60.0795 55.5033 60.1394 55.4833 60.1994C55.4633 60.2594 55.4533 60.3195 55.4533 60.3795C55.4533 60.4395 55.4733 60.4894 55.5033 60.5294L55.8833 60.6295L56.1133 60.5195C55.1533 61.3095 54.1533 62.0694 53.1333 62.7894" fill="#6D1627"/>
<path opacity="0.7" d="M4.42349 73.8787C5.75349 75.7687 7.38348 77.4187 9.21348 78.7987L77.7735 5.29874C77.4335 5.03874 77.0835 4.76874 76.7335 4.52874C76.4935 4.35874 76.2435 4.19874 75.9935 4.03874C75.7035 3.85874 75.4135 3.68874 75.1135 3.51874C74.8935 3.38874 74.6835 3.24874 74.4535 3.12874C68.5935 0.0487382 61.7335 -0.501262 55.2635 0.378738C54.4835 3.51874 53.7635 6.66874 53.1035 9.82874L53.0435 10.1187C50.9935 10.3287 48.9735 10.7387 46.9835 11.2887C46.4635 11.4387 45.9335 11.5887 45.4135 11.7587C44.8935 11.9287 44.3735 12.1087 43.8635 12.2887C43.3535 12.4787 42.8335 12.6787 42.3235 12.8787C41.8135 13.0887 41.3035 13.3087 40.8035 13.5287L40.8235 13.2587C41.0535 10.2887 41.2335 7.30874 41.3235 4.32874C37.0835 6.13874 33.0435 8.41874 29.2535 11.0487C16.6435 19.7787 5.66348 32.8987 1.57348 47.9287C1.77348 47.1887 1.99349 46.4587 2.23349 45.7387C5.47348 45.1687 8.71348 44.5487 11.9335 43.8787L12.2235 43.8287C11.5535 45.7587 11.0135 47.7387 10.6835 49.7587C10.6035 50.2487 10.5335 50.7387 10.4835 51.2187C10.4335 51.6987 10.3935 52.1787 10.3635 52.6487C10.3335 53.1187 10.3235 53.5787 10.3235 54.0387C10.3235 54.4987 10.3335 54.9487 10.3535 55.3887L10.0435 55.4987C6.68348 56.5887 3.34348 57.7287 0.0134841 58.9187C0.00348412 58.0887 0.0334914 57.2487 0.0834914 56.4187C-0.146509 59.7987 0.0834811 63.2087 0.963481 66.4787C1.68348 69.1687 2.86349 71.6587 4.42349 73.8687C4.44349 73.8587 4.43349 73.8687 4.42349 73.8787Z" fill="url(#paint0_linear)"/>
<defs>
<linearGradient id="paint0_linear" x1="44.0585" y1="42.5089" x2="-2.87731" y2="5.05104" gradientUnits="userSpaceOnUse">
<stop stop-color="white"/>
<stop offset="0.0848" stop-color="#F6F6F6"/>
<stop offset="0.2247" stop-color="#DDDDDD"/>
<stop offset="0.4024" stop-color="#B4B4B4"/>
<stop offset="0.6108" stop-color="#7C7C7C"/>
<stop offset="0.8422" stop-color="#353535"/>
<stop offset="1"/>
</linearGradient>
</defs>
</svg>
