<svg width="67" height="64" viewBox="0 0 67 64" fill="none" xmlns="http://www.w3.org/2000/svg">
<path d="M31.9561 0.0191416C31.988 0.0191416 32.0199 0.0191416 32.0518 0.0191416C32.0837 0.0191416 32.1156 0.0191416 32.1411 0.0191416C32.173 0.0191416 32.2049 0.0191416 32.2304 0.0191416C32.2623 0.0191416 32.2942 0.0191416 32.3198 0.0191416C32.3389 0.0191416 32.358 0.0191416 32.3836 0.0191416C32.4027 0.0191416 32.4218 0.0191416 32.4474 0.0191416C32.4665 0.0191416 32.4856 0.0191416 32.5112 0.0191416C32.5303 0.0191416 32.5495 0.0191416 32.575 0.0191416C32.5814 0.0191416 32.5877 0.0191416 32.5941 0.0191416C32.6005 0.0191416 32.6069 0.0191416 32.6133 0.0191416C32.6196 0.0191416 32.626 0.0191416 32.6324 0.0191416C32.6388 0.0191416 32.6452 0.0191416 32.6515 0.0191416C34.2148 0.0638054 35.7716 0.210558 37.3157 0.440257C37.2136 2.67983 37.169 4.91939 37.169 7.15896L37.1753 7.36314C36.7861 7.29933 36.4033 7.23553 36.0141 7.18448C35.6249 7.13344 35.2357 7.08878 34.8401 7.05049C34.4445 7.01221 34.0489 6.98669 33.6533 6.96117C33.2577 6.94202 32.8557 6.92926 32.4537 6.92288C30.8905 6.91012 29.3273 7.04411 27.7832 7.29933L27.7513 7.09516C27.4323 4.83645 27.0686 2.5905 26.6475 0.350929C27.0239 0.299885 27.4004 0.255221 27.7832 0.210558C28.166 0.172275 28.5489 0.133991 28.9317 0.102089C29.3145 0.0701859 29.7037 0.0510443 30.0929 0.0319027C30.4822 0.0127611 30.8714 0.00638054 31.267 0C31.2733 0 31.2797 0 31.2797 0C31.2861 0 31.2861 0 31.2925 0C31.2989 0 31.3053 0 31.3053 0C31.3116 0 31.3116 0 31.318 0C31.3435 0 31.3627 0 31.3882 0C31.4073 0 31.4329 0 31.452 0C31.4775 0 31.4967 0 31.5222 0C31.5413 0 31.5669 0 31.586 0C31.6179 0 31.6498 0 31.6753 0C31.7072 0 31.7391 0 31.7646 0C31.7966 0 31.8285 0 31.854 0C31.8923 0.0191416 31.9242 0.0191416 31.9561 0.0191416Z" fill="#F3F3F4"/>
<path d="M55.8262 41.6006L56.0113 41.7346C58.1424 43.3233 60.3118 44.8738 62.4939 46.386C60.5797 49.2126 58.136 51.6563 55.3605 53.6279C53.5165 51.7265 51.6406 49.8634 49.7264 48.0322L49.5605 47.8727C52.049 46.2329 54.2056 44.1018 55.8262 41.6006Z" fill="#F3F3F4"/>
<path d="M56.1002 32.8536C55.8067 35.157 55.0602 37.3327 53.9436 39.2979C52.8142 41.2759 51.3084 43.0369 49.4963 44.5236C47.6779 46.0103 45.5468 47.2098 43.1924 48.0393C40.8252 48.8687 38.2347 49.3345 35.4847 49.3473C35.4592 49.3473 35.44 49.3473 35.4145 49.3473C35.389 49.3473 35.3635 49.3473 35.3443 49.3473C35.3188 49.3473 35.2997 49.3473 35.2741 49.3473C35.2486 49.3473 35.2231 49.3473 35.2039 49.3473C35.1657 49.3473 35.1338 49.3473 35.1019 49.3473C35.07 49.3473 35.0508 49.3473 35.0253 49.3473C34.9998 49.3473 34.987 49.3473 34.9679 49.3473C34.9487 49.3473 34.936 49.3473 34.9168 49.3473C34.8785 49.3473 34.8403 49.3473 34.8147 49.3473C34.7828 49.3473 34.7573 49.3473 34.7382 49.3473C34.7126 49.3473 34.6999 49.3473 34.6807 49.3473C34.6616 49.3473 34.6488 49.3473 34.6297 49.3473C34.5914 49.3473 34.5595 49.3473 34.5276 49.3473C34.4957 49.3473 34.4766 49.3473 34.451 49.3473C34.4319 49.3473 34.4128 49.3473 34.3936 49.3473C34.3745 49.3473 34.3617 49.3473 34.3426 49.3473C34.3043 49.3473 34.266 49.3409 34.2341 49.3409C34.2022 49.3409 34.1767 49.3409 34.1575 49.3345C34.132 49.3345 34.1129 49.3345 34.1001 49.3345C34.081 49.3345 34.0682 49.3345 34.0491 49.3345C34.0108 49.3345 33.9853 49.3281 33.9534 49.3281C33.9278 49.3281 33.9023 49.3281 33.8768 49.3218C33.8513 49.3218 33.8321 49.3218 33.813 49.3154C33.7939 49.3154 33.7747 49.3154 33.7556 49.309C33.7237 49.309 33.6918 49.3026 33.6662 49.3026C33.6407 49.3026 33.6152 49.2962 33.5897 49.2962C33.5641 49.2962 33.545 49.2899 33.5195 49.2899C33.5003 49.2899 33.4748 49.2899 33.4557 49.2835C31.0757 49.0984 28.7724 48.588 26.6157 47.7904C24.4591 46.9929 22.4429 45.9146 20.6372 44.6065C18.8315 43.3049 17.2364 41.7736 15.9028 40.07C14.5757 38.3728 13.5165 36.5033 12.7827 34.5125C12.7764 34.487 12.7636 34.4679 12.7572 34.4487C12.7508 34.4296 12.7445 34.4104 12.7381 34.3977C12.7317 34.3849 12.7253 34.3722 12.7253 34.3594C12.7189 34.3466 12.7189 34.3339 12.7126 34.3211C12.7062 34.3084 12.7062 34.2956 12.6998 34.2828C12.6934 34.2701 12.6934 34.2573 12.687 34.2509C12.6807 34.2382 12.6807 34.2254 12.6743 34.2127C12.6679 34.1999 12.6679 34.1871 12.6615 34.1744C12.6232 34.0595 12.5849 33.951 12.553 33.8426C12.5211 33.7341 12.4829 33.632 12.451 33.5299C12.4191 33.4278 12.3872 33.3258 12.3616 33.23C12.3297 33.128 12.3042 33.0323 12.2787 32.9365C12.1894 32.6111 12.1064 32.2857 12.0362 31.9603C11.966 31.6349 11.9022 31.3031 11.8512 30.9713C11.8001 30.6395 11.7555 30.3078 11.7172 29.9696C11.6789 29.6314 11.6534 29.2996 11.6406 28.9551C11.6406 28.9359 11.6406 28.9168 11.6406 28.8913C11.6406 28.8721 11.6406 28.853 11.6406 28.8275C11.6406 28.8083 11.6406 28.7828 11.6406 28.7637C11.6406 28.7445 11.6406 28.7254 11.6406 28.6999C11.6406 28.6871 11.6406 28.6743 11.6406 28.6616C11.6406 28.6488 11.6406 28.6361 11.6406 28.6233C11.6406 28.6105 11.6406 28.5978 11.6406 28.585C11.6406 28.5723 11.6406 28.5595 11.6406 28.5467C11.6406 28.5084 11.6406 28.4765 11.6406 28.4446C11.6406 28.4191 11.6406 28.3936 11.6406 28.3745C11.6406 28.3553 11.6406 28.3362 11.6406 28.3234C11.6406 28.3107 11.6406 28.2979 11.6406 28.2851C11.6406 28.2468 11.6406 28.2149 11.6406 28.1894C11.6406 28.1639 11.6406 28.1384 11.6406 28.1192C11.6406 28.1001 11.6406 28.081 11.6406 28.0682C11.6406 28.0554 11.6406 28.0427 11.6406 28.0235C11.6406 27.9852 11.6406 27.9597 11.6406 27.9278C11.6406 27.9023 11.6406 27.8768 11.6406 27.8576C11.6406 27.8385 11.6406 27.8194 11.6406 27.8066C11.6406 27.7938 11.6406 27.7747 11.6406 27.7619C11.6406 27.73 11.6406 27.6981 11.6406 27.6726C11.6406 27.6471 11.6406 27.6279 11.6406 27.6024C11.6406 27.5833 11.6406 27.5641 11.6406 27.5514C11.6406 27.5322 11.6406 27.5195 11.6406 27.5067C11.6406 27.4748 11.6406 27.4493 11.6406 27.4238C11.6406 27.3982 11.6406 27.3791 11.6406 27.36C11.6406 27.3408 11.6406 27.3217 11.6406 27.3089C11.6406 27.2961 11.6406 27.277 11.6406 27.2642C11.6406 27.2323 11.6406 27.2068 11.647 27.1813C11.647 27.1558 11.647 27.1366 11.647 27.1175C11.647 27.0984 11.647 27.0792 11.647 27.0664C11.647 27.0537 11.647 27.0345 11.647 27.0218C11.647 26.9899 11.6534 26.958 11.6534 26.9388C11.6534 26.9133 11.6534 26.8942 11.6598 26.875C11.6598 26.8559 11.6598 26.8368 11.6661 26.8176C11.6661 26.7985 11.6661 26.7857 11.6725 26.7666C11.6725 26.7347 11.6789 26.7091 11.6789 26.6836C11.6789 26.6581 11.6853 26.639 11.6853 26.6134C11.6853 26.5943 11.6853 26.5751 11.6917 26.556C11.6917 26.5369 11.6917 26.5177 11.6981 26.505C11.7108 26.3837 11.7236 26.2561 11.7363 26.1349C11.7491 26.0137 11.7619 25.8924 11.781 25.7712C11.7938 25.65 11.8129 25.5351 11.832 25.4139C11.8512 25.2927 11.8703 25.1778 11.8895 25.063C12.2787 22.7723 13.1209 20.6349 14.3205 18.7207C15.5136 16.8129 17.0705 15.1221 18.9081 13.7247C20.7393 12.3274 22.8512 11.2172 25.1737 10.4643C27.4835 9.71139 30.0038 9.30304 32.6581 9.32218C32.6836 9.32218 32.7028 9.32218 32.7283 9.32218C32.7538 9.32218 32.773 9.32218 32.7985 9.32218C32.824 9.32218 32.8431 9.32218 32.8687 9.32218C32.8942 9.32218 32.9133 9.32218 32.9389 9.32218C32.9516 9.32218 32.9644 9.32218 32.9835 9.32218C32.9963 9.32218 33.009 9.32218 33.0282 9.32218C33.0409 9.32218 33.0537 9.32218 33.0728 9.32218C33.0856 9.32218 33.0984 9.32218 33.1175 9.32218C33.1558 9.32218 33.1941 9.32218 33.226 9.32218C33.2579 9.32218 33.2834 9.32218 33.3025 9.32218C33.3281 9.32218 33.3472 9.32218 33.3663 9.32218C33.3855 9.32218 33.4046 9.32218 33.4174 9.32218C33.4557 9.32218 33.4876 9.32218 33.5131 9.32856C33.5386 9.32856 33.5705 9.32856 33.5897 9.32856C33.6152 9.32856 33.6343 9.32856 33.6535 9.32856C33.6726 9.32856 33.6918 9.32856 33.7173 9.32856C33.7428 9.32856 33.7683 9.32856 33.7939 9.33494C33.8194 9.33494 33.8385 9.33494 33.864 9.34132C33.8832 9.34132 33.9087 9.34132 33.9278 9.3477C33.947 9.3477 33.9725 9.3477 33.9916 9.35408C34.0172 9.35408 34.0427 9.35408 34.0682 9.36046C34.0937 9.36046 34.1129 9.36046 34.1384 9.36684C34.1639 9.36684 34.1831 9.36684 34.2022 9.37322C34.2213 9.37322 34.2469 9.37322 34.266 9.3796C34.2851 9.3796 34.3107 9.3796 34.3298 9.38598C34.349 9.38598 34.3745 9.38598 34.3936 9.39236C34.4128 9.39236 34.4383 9.39236 34.4574 9.39874C34.4766 9.39874 34.5021 9.39874 34.5212 9.40512C34.5468 9.40512 34.5723 9.4115 34.5914 9.4115C34.6169 9.4115 34.6361 9.41788 34.6552 9.41788C34.6744 9.41788 34.6935 9.42427 34.7126 9.42427C34.7318 9.42427 34.7509 9.42427 34.7701 9.43065C34.802 9.43065 34.8275 9.43703 34.8466 9.43703C34.8722 9.43703 34.8913 9.44341 34.9104 9.44341C34.9296 9.44341 34.9487 9.44979 34.9615 9.44979C34.9806 9.44979 34.9934 9.45617 35.0125 9.45617C35.0508 9.46255 35.0827 9.46255 35.1082 9.46255C35.1338 9.46255 35.1593 9.46893 35.172 9.46893C35.1912 9.46893 35.2039 9.47531 35.2167 9.47531C35.2295 9.47531 35.2422 9.47531 35.255 9.48169C35.2678 9.48169 35.2805 9.48169 35.2997 9.48807C35.3124 9.48807 35.3252 9.48807 35.3443 9.49445C35.3571 9.49445 35.3698 9.49445 35.389 9.50083C35.4017 9.50083 35.4145 9.50721 35.4336 9.50721C37.7562 9.78158 39.9957 10.3686 42.0822 11.2236C44.1686 12.0722 46.1083 13.1888 47.8438 14.5223C49.5793 15.8558 51.1106 17.4063 52.3803 19.1227C53.6501 20.8454 54.6518 22.7341 55.3282 24.7439C55.3409 24.7886 55.3537 24.8269 55.3664 24.8588C55.3792 24.8907 55.3856 24.9162 55.392 24.9417C55.3983 24.9609 55.4047 24.98 55.4111 24.9992C55.4175 25.0183 55.4239 25.0311 55.4239 25.0438C55.526 25.3628 55.6153 25.6819 55.7046 26.0073C55.7876 26.3327 55.8641 26.6581 55.9343 26.9835C56.0045 27.3153 56.0619 27.6471 56.1066 27.9789C56.1576 28.3107 56.1959 28.6488 56.2278 28.987C56.2278 29.0061 56.2342 29.0317 56.2342 29.0508C56.2342 29.0699 56.2406 29.0955 56.2406 29.1146C56.2406 29.1337 56.247 29.1593 56.247 29.1784C56.247 29.1975 56.2533 29.2231 56.2533 29.2422C56.2533 29.2741 56.2597 29.2996 56.2597 29.3252C56.2597 29.3507 56.2661 29.3698 56.2661 29.389C56.2661 29.4081 56.2661 29.4272 56.2725 29.4464C56.2725 29.4655 56.2725 29.4847 56.2725 29.4974C56.2852 29.708 56.298 29.9249 56.3044 30.1355C56.3108 30.346 56.3108 30.5566 56.3108 30.7672C56.3108 30.9777 56.3044 31.1819 56.298 31.3925C56.2916 31.5966 56.2789 31.8072 56.2597 32.0114C56.2597 32.0369 56.2533 32.056 56.2533 32.0752C56.2533 32.0943 56.2533 32.1135 56.247 32.1262C56.247 32.139 56.247 32.1581 56.2406 32.1709C56.2406 32.1836 56.2406 32.1964 56.2406 32.2092C56.2342 32.2666 56.2278 32.324 56.2214 32.3751C56.2151 32.4325 56.2087 32.4899 56.2023 32.541C56.1959 32.5984 56.1895 32.6558 56.1832 32.7068C56.113 32.7387 56.1066 32.7962 56.1002 32.8536C55.8067 35.157 56.1066 32.7962 56.1002 32.8536Z" fill="#EB0F1D"/>
<path d="M65.9068 24.1059C63.361 24.3484 60.8024 24.5398 58.2502 24.6929L58.0205 24.7057C58.1226 25.0502 58.2247 25.3948 58.314 25.7457C58.4033 26.0967 58.4863 26.4476 58.5565 26.8049C58.633 27.1622 58.6968 27.5195 58.7479 27.8768C58.8053 28.2341 58.85 28.5978 58.8819 28.9679C59.0159 30.3971 58.9903 31.8391 58.8245 33.262L59.0605 33.2748C61.6766 33.4343 64.2926 33.6321 66.9022 33.8809C66.9915 32.8409 67.0171 31.7945 66.9788 30.7481C67.2085 36.8606 65.256 42.8838 61.5362 47.7331C57.9758 52.3653 52.9799 55.7598 47.4862 57.6676C44.2066 58.8097 40.7484 59.4222 37.2838 59.5498C38.8023 59.4924 40.3209 59.3393 41.8203 59.0904C41.3482 56.6275 40.9334 54.1583 40.557 51.6826L40.5315 51.4657C40.1422 51.5359 39.7467 51.5997 39.3447 51.6571C38.9491 51.7145 38.5471 51.7656 38.1388 51.8038C37.7368 51.8421 37.3284 51.874 36.9137 51.8995C36.499 51.9187 36.0842 51.9314 35.6631 51.9378C34.0105 51.9442 32.3644 51.7975 30.7309 51.5231V51.7464C30.7182 54.2284 30.6608 56.7105 30.5395 59.1861C32.0709 59.4094 33.615 59.5434 35.159 59.5753C22.2512 59.3137 9.38805 52.1356 3.569 40.3891C1.94834 37.1095 0.933841 33.5364 0.659478 29.8867C0.761566 31.2521 0.972125 32.6112 1.27839 33.9447C3.93907 33.6895 6.60614 33.4853 9.2732 33.3194L9.52204 33.3067C9.42634 32.9557 9.34339 32.5984 9.26682 32.2411C9.19025 31.8838 9.12007 31.5201 9.06264 31.1564C9.00522 30.7927 8.95418 30.429 8.91589 30.059C8.87761 29.6953 8.85209 29.3252 8.83294 28.9551C8.76276 27.5131 8.85847 26.0648 9.10093 24.6419L8.85209 24.6291C6.19141 24.4632 3.53072 24.2591 0.870037 24.0038C0.67224 25.331 0.576532 26.6773 0.576532 28.0172C0.54463 21.9812 2.63106 16.0856 6.4211 11.3895C10.0835 6.84657 15.1433 3.54784 20.6752 1.74853C23.9931 0.663834 27.4705 0.108727 30.9543 0.0449219C29.5059 0.070444 28.0639 0.191674 26.6283 0.389471C27.0494 2.62904 27.4131 4.88137 27.7321 7.1337L27.764 7.33788C28.1405 7.27407 28.5233 7.22303 28.9061 7.17198C29.2889 7.12732 29.6782 7.08265 30.0674 7.05075C30.4566 7.01885 30.8522 6.99333 31.2478 6.98057C31.6434 6.9678 32.039 6.95504 32.4409 6.96142C34.0233 6.97419 35.6057 7.12732 37.1689 7.3953L37.1625 7.19112C37.1625 4.95155 37.2072 2.71199 37.3093 0.472418C35.8673 0.25548 34.4061 0.115108 32.945 0.0576829C45.068 0.478798 57.0634 6.96142 63.1505 17.6233C64.8477 20.5903 66.0408 23.8443 66.6087 27.2196C66.4428 26.1541 66.2067 25.1204 65.9068 24.1059C65.4347 24.1506 65.9834 24.3611 65.9068 24.1059ZM48.1817 46.374C48.4944 46.1762 48.7942 45.972 49.0877 45.7615C49.3813 45.5509 49.6684 45.334 49.9427 45.1107C50.2171 44.8873 50.4851 44.6576 50.7467 44.4216C51.0083 44.1855 51.2635 43.9494 51.506 43.7006C51.7548 43.4453 51.9909 43.1901 52.2206 42.9349C52.4503 42.6797 52.6672 42.4181 52.8778 42.1565C53.0883 41.8949 53.2861 41.6333 53.4839 41.3653C53.6754 41.0973 53.8604 40.8293 54.0391 40.555C54.2369 40.2551 54.4219 39.9488 54.5942 39.6489C54.7664 39.349 54.9323 39.0428 55.0855 38.7365C55.2386 38.4302 55.379 38.124 55.513 37.8113C55.6469 37.5051 55.7682 37.1924 55.883 36.8734C55.9979 36.5544 56.1 36.2353 56.1957 35.9163C56.2914 35.5973 56.3807 35.2782 56.4573 34.9592C56.5338 34.6402 56.604 34.3212 56.6615 33.9958C56.7189 33.6704 56.7699 33.3513 56.8146 33.0195C56.8529 32.7069 56.8912 32.3942 56.9103 32.0816C56.9358 31.769 56.9486 31.4563 56.955 31.15C56.9613 30.8374 56.9613 30.5311 56.955 30.2185C56.9486 29.9058 56.9294 29.5996 56.9039 29.2869C56.9039 29.255 56.8975 29.2231 56.8975 29.1976C56.8975 29.1721 56.8912 29.1529 56.8912 29.1338C56.8912 29.1146 56.8911 29.0955 56.8848 29.0827C56.8848 29.07 56.8848 29.0508 56.8784 29.0381C56.8401 28.6552 56.7954 28.2916 56.7444 27.9342C56.6934 27.5769 56.6296 27.2324 56.5594 26.8942C56.4892 26.5561 56.4126 26.2243 56.3297 25.9052C56.2467 25.5798 56.1574 25.2608 56.0553 24.9482C55.9468 24.61 55.832 24.2718 55.7108 23.94C55.5895 23.6082 55.4555 23.2828 55.3215 22.9638C55.1812 22.6448 55.0344 22.3258 54.8813 22.0131C54.7281 21.7005 54.5623 21.3942 54.39 21.0879C54.2113 20.7753 54.0327 20.4754 53.8476 20.1755C53.6626 19.882 53.4712 19.5885 53.2734 19.3078C53.0756 19.027 52.8714 18.7463 52.6672 18.4719C52.4567 18.1975 52.2461 17.9296 52.0228 17.668C51.7803 17.3808 51.5379 17.1001 51.289 16.8257C51.0402 16.5514 50.785 16.2898 50.5234 16.0282C50.2618 15.7666 50.0002 15.5177 49.7258 15.2753C49.4578 15.0328 49.1771 14.7903 48.8963 14.5606C48.6092 14.3246 48.3157 14.1012 48.0286 13.8843C47.7351 13.6674 47.448 13.4568 47.1481 13.259C46.8546 13.0548 46.5547 12.8634 46.2548 12.672C45.9549 12.487 45.6486 12.3019 45.3424 12.1297C45.0042 11.9319 44.6597 11.7468 44.3215 11.5746C43.9833 11.3959 43.6388 11.23 43.3006 11.0769C42.9561 10.9174 42.6179 10.7706 42.267 10.6302C41.9224 10.4899 41.5715 10.3559 41.2206 10.2346C40.8696 10.1134 40.5187 9.99218 40.1678 9.88371C39.8168 9.77524 39.4659 9.67315 39.115 9.57744C38.764 9.48174 38.4067 9.39879 38.0494 9.31584C37.6921 9.23928 37.3348 9.16271 36.9775 9.0989C35.5227 8.8373 34.0488 8.70331 32.5749 8.69693C32.1793 8.69693 31.7837 8.70331 31.4009 8.71607C31.0181 8.72883 30.6416 8.75436 30.2716 8.78626C29.9015 8.81816 29.5378 8.85644 29.1805 8.90111C28.8232 8.94577 28.4659 9.0032 28.1149 9.06062C28.0639 9.07338 28.0192 9.07976 27.9809 9.08614C27.9427 9.09252 27.9171 9.0989 27.8916 9.10528C27.8661 9.11166 27.8469 9.11167 27.8278 9.11805C27.8087 9.11805 27.7959 9.12443 27.7831 9.12443C27.445 9.18823 27.1132 9.25842 26.7878 9.33498C26.4624 9.41155 26.137 9.4945 25.8179 9.57744C25.4989 9.66039 25.1799 9.76248 24.8736 9.85819C24.561 9.96028 24.2547 10.0687 23.9484 10.1772C23.6103 10.3048 23.2785 10.4388 22.9531 10.5792C22.6277 10.7196 22.315 10.8599 22.0024 11.0131C21.6897 11.1662 21.3898 11.3193 21.09 11.4788C20.7901 11.6384 20.4966 11.8106 20.2094 11.9829C19.8904 12.1743 19.5842 12.3721 19.2843 12.5699C18.9844 12.7677 18.6973 12.9783 18.4165 13.1888C18.1358 13.3994 17.8614 13.6163 17.5998 13.8396C17.3318 14.063 17.0766 14.2863 16.8278 14.5224C16.5789 14.7648 16.3365 15.0009 16.1004 15.2434C15.8643 15.4858 15.641 15.7347 15.424 15.9835C15.2071 16.2323 14.9965 16.4812 14.7924 16.7428C14.5882 16.998 14.3968 17.2596 14.2054 17.5212C13.9948 17.8147 13.8034 18.1018 13.612 18.4017C13.4269 18.6952 13.2483 18.9887 13.0824 19.2886C12.9165 19.5885 12.7634 19.8884 12.6166 20.1883C12.4699 20.4882 12.3359 20.7944 12.2082 21.1007C12.0806 21.4133 11.9658 21.726 11.8509 22.0386C11.7425 22.3513 11.6404 22.6703 11.5511 22.983C11.4617 23.302 11.3788 23.621 11.3022 23.94C11.2256 24.2591 11.1618 24.5845 11.1044 24.9163C11.0534 25.2098 11.0087 25.4969 10.9768 25.7904C10.9385 26.0839 10.913 26.371 10.8939 26.6645C10.8747 26.958 10.8556 27.2452 10.8492 27.5387C10.8428 27.8322 10.8428 28.1193 10.8492 28.4128C10.8492 28.4319 10.8492 28.4511 10.8492 28.4702C10.8492 28.4894 10.8492 28.5085 10.8492 28.5276C10.8492 28.5468 10.8492 28.5659 10.8492 28.5851C10.8492 28.6042 10.8492 28.6233 10.8492 28.6425C10.8556 28.7446 10.8556 28.8467 10.862 28.9488C10.8811 29.3061 10.9066 29.6506 10.9449 30.0015C10.9832 30.3461 11.0279 30.6906 11.0789 31.0288C11.1299 31.367 11.1937 31.7051 11.2703 32.0369C11.3405 32.3687 11.4234 32.7005 11.5128 33.0259C11.6085 33.3705 11.7106 33.715 11.819 34.0532C11.9275 34.3914 12.0487 34.7295 12.1827 35.0613C12.3103 35.3931 12.4507 35.7185 12.5975 36.0439C12.7442 36.3693 12.8973 36.6883 13.0632 37.0074C13.2355 37.3264 13.4078 37.6454 13.5864 37.9517C13.7651 38.258 13.9565 38.5642 14.1479 38.8577C14.3393 39.1576 14.5435 39.4447 14.7477 39.7319C14.9519 40.019 15.1688 40.2997 15.3858 40.5805C15.6282 40.8867 15.8707 41.1802 16.1195 41.4738C16.3684 41.7609 16.63 42.0416 16.8916 42.316C17.1532 42.5903 17.4211 42.8519 17.6955 43.1135C17.9699 43.3688 18.2506 43.624 18.5314 43.8665C18.8249 44.1153 19.1184 44.3514 19.4183 44.5811C19.7181 44.8108 20.018 45.0341 20.3179 45.2446C20.6178 45.4616 20.9241 45.6658 21.2367 45.8636C21.543 46.0614 21.8556 46.2592 22.1747 46.4442C23.5337 47.2481 24.9629 47.9245 26.4432 48.4604C26.8005 48.588 27.1642 48.7093 27.5279 48.8241C27.8916 48.939 28.2553 49.0474 28.6254 49.1432C28.9954 49.2389 29.3655 49.3346 29.7356 49.4175C30.1057 49.5005 30.4821 49.577 30.8586 49.6408C32.3771 49.9024 33.9148 50.0428 35.4525 50.0364C36.9839 50.0237 38.5152 49.8897 40.021 49.6089C40.4038 49.5387 40.7803 49.4558 41.1504 49.3729C41.5204 49.2835 41.8841 49.1878 42.2478 49.0857C42.6115 48.9836 42.9624 48.8688 43.3134 48.7476C43.6643 48.6263 44.0088 48.4987 44.347 48.3647C44.6979 48.2244 45.0361 48.0776 45.3679 47.9245C45.6997 47.7713 46.0251 47.6118 46.3377 47.4459C46.6568 47.28 46.963 47.1141 47.2629 46.9355C47.6011 46.7441 47.8946 46.5654 48.1817 46.374ZM20.956 48.1605L21.1091 47.9947C18.3336 46.3612 15.8324 44.2365 13.8098 41.7162L13.6375 41.8566C11.6787 43.4836 9.68794 45.0724 7.66531 46.6101C10.0516 49.4494 12.8973 51.8932 16.043 53.8647C17.6317 51.9251 19.2779 50.03 20.956 48.1605ZM6.07655 11.8362C8.18851 13.2909 10.2686 14.7967 12.3231 16.3344L12.5018 16.4684C14.2117 14.0885 16.4258 12.085 18.927 10.56L18.7611 10.4069C16.9554 8.69055 15.1752 6.94228 13.4461 5.14935C10.6386 6.9359 8.1247 9.20099 6.07655 11.8362ZM53.7073 16.4939C55.4938 14.9945 57.3186 13.5334 59.169 12.1041C56.8146 9.47536 54.0518 7.21665 51.0338 5.40457C49.5791 7.15922 48.0796 8.87558 46.5419 10.56L46.4079 10.7068C49.1005 12.2509 51.5379 14.2544 53.5477 16.6216L53.7073 16.4939ZM62.4996 46.3868C60.3111 44.8746 58.1481 43.3241 56.017 41.7353L55.832 41.6014C54.2113 44.1025 52.0547 46.2336 49.5663 47.867L49.7322 48.0266C51.6464 49.8578 53.5286 51.7209 55.3662 53.6223C58.1417 51.6571 60.5855 49.2133 62.4996 46.3868Z" fill="#EB0F1D"/>
<path d="M51.0341 5.39856C54.0585 7.21701 56.8149 9.47572 59.1693 12.0981C57.3189 13.5274 55.4941 14.9821 53.7075 16.4879L53.548 16.6155C51.5382 14.242 49.1008 12.2449 46.4082 10.7008L46.5422 10.554C48.0735 8.86957 49.5793 7.15321 51.0341 5.39856C51.7998 5.85796 50.7661 5.72397 51.0341 5.39856Z" fill="#F3F3F4"/>
<path d="M13.4525 5.14307C15.1817 6.936 16.9618 8.68426 18.7675 10.4006L18.9334 10.5538C16.4322 12.0787 14.2182 14.0758 12.5082 16.4621L12.3296 16.3281C10.275 14.7904 8.19497 13.291 6.08301 11.8299C8.12478 9.20109 10.6387 6.936 13.4525 5.14307C13.7716 5.47485 12.7379 5.60247 13.4525 5.14307Z" fill="#F3F3F4"/>
<path d="M65.9067 24.1052C65.9896 24.3987 66.0726 24.6859 66.1491 24.9857C66.2257 25.2792 66.2959 25.5727 66.3597 25.8726C66.4235 26.1725 66.4873 26.466 66.5447 26.7659C66.6021 27.0658 66.6532 27.3657 66.6978 27.6719C66.6978 27.6783 66.6978 27.6847 66.6978 27.6911C66.6978 27.6975 66.6978 27.7038 66.6978 27.7102C66.6978 27.7166 66.6978 27.723 66.6978 27.7294C66.6978 27.7358 66.6978 27.7421 66.6978 27.7485C66.6978 27.7677 66.7042 27.7804 66.7042 27.7996C66.7042 27.8187 66.7106 27.8315 66.7106 27.8506C66.7106 27.8697 66.717 27.8825 66.717 27.9016C66.717 27.9208 66.7234 27.9335 66.7234 27.9527C66.7234 27.9654 66.7298 27.9782 66.7298 27.9974C66.7298 28.0101 66.7361 28.0229 66.7361 28.042C66.7361 28.0548 66.7425 28.0675 66.7425 28.0867C66.7425 28.0994 66.7489 28.1122 66.7489 28.1313C66.7489 28.1441 66.7489 28.1569 66.7553 28.1696C66.7553 28.1824 66.7617 28.1951 66.7617 28.2079C66.7617 28.2207 66.7617 28.2334 66.768 28.2462C66.768 28.259 66.7744 28.2717 66.7744 28.2845C66.7744 28.3036 66.7808 28.3228 66.7808 28.3419C66.7808 28.361 66.7872 28.3802 66.7872 28.3993C66.7872 28.4185 66.7936 28.4376 66.7936 28.4568C66.7936 28.4759 66.7999 28.495 66.7999 28.5142C66.7999 28.5269 66.7999 28.5333 66.7999 28.5397C66.7999 28.5461 66.7999 28.5588 66.8063 28.5652C66.8063 28.578 66.8063 28.5844 66.8063 28.5907C66.8063 28.5971 66.8063 28.6099 66.8063 28.6163C66.8127 28.6482 66.8127 28.6737 66.8191 28.7056C66.8191 28.7375 66.8255 28.763 66.8255 28.7949C66.8318 28.8268 66.8318 28.8523 66.8382 28.8842C66.8382 28.9162 66.8446 28.9417 66.8446 28.9736C66.8446 29.0055 66.851 29.031 66.851 29.0629C66.851 29.0948 66.8574 29.1203 66.8574 29.1522C66.8574 29.1841 66.8637 29.2097 66.8637 29.2416C66.8637 29.2735 66.8701 29.299 66.8701 29.3309C66.8701 29.3373 66.8701 29.35 66.8701 29.3564C66.8701 29.3628 66.8701 29.3755 66.8701 29.3819C66.8701 29.3947 66.8701 29.4011 66.8701 29.4075C66.8701 29.4138 66.8701 29.4266 66.8701 29.433C66.8701 29.4521 66.8701 29.4713 66.8765 29.4904C66.8765 29.5095 66.8765 29.5287 66.8829 29.5478C66.8829 29.567 66.8829 29.5861 66.8893 29.6052C66.8893 29.6244 66.8893 29.6435 66.8956 29.6627C66.8956 29.6754 66.8956 29.6882 66.8956 29.701C66.8956 29.7137 66.8956 29.7265 66.8956 29.7392C66.8956 29.752 66.8956 29.7648 66.8956 29.7775C66.8956 29.7903 66.8956 29.803 66.8956 29.8158C66.8956 29.8286 66.8956 29.8413 66.8956 29.8605C66.8956 29.8732 66.8956 29.886 66.8956 29.9051C66.8956 29.9179 66.8956 29.9307 66.8956 29.9498C66.8956 29.9626 66.8956 29.9753 66.8956 29.9945C66.8956 30.0136 66.8956 30.0264 66.902 30.0455C66.902 30.0646 66.902 30.0774 66.902 30.0965C66.902 30.1157 66.902 30.1285 66.902 30.1476C66.902 30.1667 66.902 30.1795 66.902 30.1986C66.902 30.205 66.902 30.2114 66.902 30.2178C66.902 30.2242 66.902 30.2305 66.902 30.2369C66.902 30.2433 66.902 30.2497 66.902 30.2561C66.902 30.2624 66.902 30.2688 66.902 30.2752C66.9658 31.4747 66.9531 32.6807 66.851 33.8802C64.2413 33.6314 61.6253 33.4336 59.0093 33.2741L58.7732 33.2613C58.8115 32.9104 58.8434 32.5594 58.8689 32.2085C58.8944 31.8576 58.9072 31.5003 58.9136 31.143C58.92 30.7856 58.9136 30.422 58.9008 30.0646C58.8881 29.701 58.8625 29.3373 58.8306 28.9736C58.6903 27.5252 58.3904 26.1023 57.9629 24.7178L58.1926 24.705C60.8086 24.5391 63.3608 24.3477 65.9067 24.1052C65.996 24.3923 65.4345 24.1499 65.9067 24.1052Z" fill="#F3F3F4"/>
<path d="M0.882863 23.9844C3.53717 24.2396 6.19785 24.4438 8.86491 24.6097L9.11376 24.6224C9.05633 24.967 9.00529 25.3179 8.96062 25.6752C8.91596 26.0261 8.88406 26.3835 8.86491 26.7471C8.83939 27.1045 8.82663 27.4681 8.82663 27.8318C8.82663 28.1955 8.83301 28.5656 8.84577 28.9357C8.91596 30.4032 9.15204 31.8643 9.53487 33.2872L9.28603 33.3C6.61897 33.4659 3.9519 33.67 1.29122 33.9253C1.20827 33.5679 1.13808 33.2106 1.0679 32.8533C0.997713 32.496 0.940289 32.1323 0.889245 31.775C0.8382 31.4113 0.787155 31.0476 0.748872 30.6839C0.710589 30.3202 0.678685 29.9502 0.653163 29.5865C0.653163 29.5801 0.653163 29.5737 0.653163 29.5673C0.653163 29.561 0.653163 29.5546 0.653163 29.5482C0.653163 29.5418 0.653163 29.5354 0.653163 29.5291C0.653163 29.5227 0.653163 29.5163 0.653163 29.5099C0.653163 29.4908 0.653166 29.4716 0.646786 29.4525C0.646786 29.4334 0.646785 29.4142 0.640404 29.3951C0.640404 29.3759 0.640403 29.3568 0.634022 29.3376C0.634022 29.3185 0.634022 29.2994 0.634022 29.2802C0.634022 29.2547 0.634021 29.2228 0.62764 29.1973C0.62764 29.1718 0.627644 29.1398 0.621263 29.1143C0.621263 29.0888 0.621262 29.0569 0.614881 29.025C0.614881 28.9995 0.61488 28.9676 0.608499 28.9421C0.608499 28.9165 0.608499 28.8846 0.608499 28.8591C0.608499 28.8336 0.608499 28.8017 0.608499 28.7762C0.608499 28.7506 0.608499 28.7187 0.608499 28.6932C0.608499 28.6677 0.608499 28.6358 0.608499 28.6103C0.608499 28.5911 0.608499 28.572 0.608499 28.5528C0.608499 28.5337 0.608499 28.5146 0.608499 28.4954C0.608499 28.4763 0.608499 28.4571 0.608499 28.438C0.608499 28.4188 0.608499 28.3997 0.608499 28.3806C0.608499 28.3742 0.608499 28.3678 0.608499 28.3614C0.608499 28.355 0.608499 28.3487 0.608499 28.3423C0.608499 28.3359 0.608499 28.3295 0.608499 28.3231C0.608499 28.3168 0.608499 28.3104 0.608499 28.304C0.570216 26.8429 0.672305 25.4072 0.882863 23.9844C1.38054 24.0354 0.831818 24.3353 0.882863 23.9844Z" fill="#F3F3F4"/>
<path d="M13.8095 41.7228C15.8257 44.2431 18.3269 46.3614 21.1088 48.0012L20.9557 48.1671C19.2776 50.0302 17.6314 51.9316 16.0427 53.8713C12.9035 51.8997 10.0514 49.4624 7.66504 46.6166C9.68767 45.0726 11.6784 43.4902 13.6372 41.8632L13.8095 41.7228Z" fill="#F3F3F4"/>
<path d="M40.5319 51.4592L40.5574 51.6825C40.9275 54.1582 41.3422 56.6338 41.8208 59.0904C41.4252 59.1542 41.0296 59.2116 40.634 59.2626C40.232 59.3137 39.83 59.3583 39.4281 59.403C39.0261 59.4413 38.6177 59.4732 38.203 59.4987C37.7946 59.5242 37.3799 59.5434 36.9652 59.5561C36.9524 59.5561 36.946 59.5561 36.9333 59.5561C36.9205 59.5561 36.9141 59.5561 36.9014 59.5561C36.8886 59.5561 36.8822 59.5561 36.8695 59.5561C36.8567 59.5561 36.8503 59.5561 36.8376 59.5561C36.8184 59.5561 36.7993 59.5561 36.7801 59.5561C36.761 59.5561 36.7419 59.5561 36.7227 59.5561C36.7036 59.5561 36.6844 59.5561 36.6653 59.5561C36.6462 59.5561 36.627 59.5561 36.6079 59.5561C36.576 59.5561 36.5441 59.5561 36.5122 59.5561C36.4803 59.5561 36.4483 59.5561 36.4164 59.5561C36.3845 59.5561 36.3526 59.5561 36.3207 59.5561C36.2888 59.5561 36.2569 59.5561 36.225 59.5561C36.1931 59.5561 36.1612 59.5561 36.1293 59.5561C36.0974 59.5561 36.0655 59.5561 36.0336 59.5561C36.0017 59.5561 35.9698 59.5561 35.9379 59.5561C35.906 59.5561 35.8741 59.5561 35.8422 59.5561C35.8231 59.5561 35.7975 59.5561 35.7784 59.5561C35.7592 59.5561 35.7337 59.5561 35.7146 59.5561C35.6954 59.5561 35.6699 59.5561 35.6508 59.5561C35.6316 59.5561 35.6061 59.5561 35.587 59.5561C35.5806 59.5561 35.5678 59.5561 35.5615 59.5561C35.5551 59.5561 35.5423 59.5561 35.5359 59.5561C35.5296 59.5561 35.5168 59.5561 35.5104 59.5561C35.504 59.5561 35.4913 59.5561 35.4849 59.5561C33.8323 59.537 32.1862 59.3966 30.5527 59.1605C30.674 56.6849 30.7378 54.2029 30.7442 51.7208V51.4975C31.1461 51.5677 31.5481 51.6251 31.9565 51.6762C32.3648 51.7272 32.7732 51.7719 33.1815 51.8102C33.5899 51.8484 34.0046 51.874 34.4193 51.8867C34.8341 51.9059 35.2488 51.9122 35.6699 51.9122C37.3033 51.9122 38.9304 51.7464 40.5319 51.4592Z" fill="#F3F3F4"/>
<path d="M65.1167 41.4922C64.6254 42.6981 64.1405 43.9104 63.6492 45.1163C62.6028 47.6941 61.1991 50.0931 59.4253 52.237C57.6834 54.349 55.597 56.2248 53.2425 57.8008C50.8754 59.3832 48.2211 60.6657 45.3498 61.5781C42.4722 62.4969 39.3713 63.0456 36.1172 63.1669C36.2958 62.599 36.4809 62.0375 36.6595 61.4696C36.7935 61.0613 36.9211 60.6529 37.0551 60.2446C37.1062 60.0851 37.1508 59.6767 37.2721 59.5619C37.3805 59.4598 37.8144 59.5172 37.9867 59.5108C38.4525 59.4853 38.9182 59.4534 39.384 59.4087C40.2199 59.3322 41.0557 59.2237 41.8852 59.0833C43.4995 58.8153 45.0882 58.4389 46.6515 57.9412C49.561 57.016 52.2472 55.7272 54.6526 54.1257C57.0453 52.5305 59.1509 50.6419 60.9183 48.5044C62.673 46.3861 64.0958 44.0253 65.1167 41.4922Z" fill="#A01D34"/>
<path d="M35.1653 59.5625C34.942 60.2835 34.7123 61.0045 34.489 61.7319C34.3677 62.1211 34.2912 62.5997 34.1061 62.9634C34.0806 63.0144 34.0806 63.1484 34.0359 63.1867C33.8637 63.3271 32.964 63.1548 32.7534 63.142C28.8549 62.9315 24.9947 62.0956 21.3578 60.6791C17.4146 59.1478 13.816 56.9657 10.747 54.2986C7.68431 51.6379 5.15124 48.4923 3.31365 45.0213C1.48243 41.5694 0.346694 37.7985 0.0595703 33.8617C0.263747 32.5346 0.467929 31.2011 0.672106 29.8739C0.965611 33.8171 2.12687 37.6709 3.9836 41.1611C5.8531 44.6704 8.42446 47.8543 11.5318 50.5468C14.6519 53.2522 18.3015 55.4599 22.3021 57.0103C26.3027 58.5672 30.6542 59.4668 35.1653 59.5625Z" fill="#A01D34"/>
<path d="M41.8205 59.0835C41.5844 59.7854 41.3483 60.4872 41.1059 61.1827C40.9655 61.591 40.8634 62.0377 40.6848 62.4269C40.6529 62.4971 40.6529 62.6311 40.5954 62.6885C40.4232 62.8672 39.6703 62.848 39.415 62.8799C39.0194 62.931 38.6238 62.9756 38.2283 63.0139C37.8327 63.0522 37.4307 63.0841 37.0223 63.1096C36.6204 63.1351 36.212 63.1543 35.8036 63.167C35.7909 63.167 35.7845 63.167 35.7717 63.167C35.759 63.167 35.7526 63.167 35.7398 63.167C35.7271 63.167 35.7207 63.167 35.7079 63.167C35.6952 63.167 35.6888 63.167 35.676 63.167C35.6569 63.167 35.6377 63.167 35.6186 63.167C35.5995 63.167 35.5803 63.167 35.5612 63.167C35.542 63.167 35.5229 63.167 35.5038 63.167C35.4846 63.167 35.4655 63.167 35.4463 63.167C35.4144 63.167 35.3825 63.167 35.3506 63.167C35.3187 63.167 35.2868 63.167 35.2549 63.167C35.223 63.167 35.1911 63.167 35.1592 63.167C35.1273 63.167 35.0954 63.167 35.0635 63.167C35.0316 63.167 34.9997 63.167 34.9678 63.167C34.9359 63.167 34.904 63.167 34.8721 63.167C34.8402 63.167 34.8083 63.167 34.7764 63.167C34.7445 63.167 34.7126 63.167 34.6807 63.167C34.6615 63.167 34.636 63.167 34.6169 63.167C34.5977 63.167 34.5722 63.167 34.5531 63.167C34.5339 63.167 34.5084 63.167 34.4893 63.167C34.4701 63.167 34.4446 63.167 34.4254 63.167C34.4191 63.167 34.4127 63.167 34.3999 63.167C34.3936 63.167 34.3872 63.167 34.3744 63.167C34.368 63.167 34.3616 63.167 34.3489 63.167C34.3425 63.167 34.3361 63.167 34.3234 63.167C33.915 63.1607 33.5066 63.1479 33.0983 63.1288C32.6899 63.1096 32.2816 63.0841 31.8796 63.0522C31.4713 63.0203 31.0693 62.982 30.6673 62.9373C30.2653 62.8927 29.8634 62.8416 29.4678 62.7842C29.672 62.0824 29.8825 61.3741 30.0867 60.6722C30.2079 60.2639 30.3291 59.8492 30.444 59.4408C30.4631 59.3834 30.4823 59.2047 30.5206 59.1664C30.6609 59.0452 31.5351 59.2813 31.7456 59.3004C32.154 59.3451 32.5623 59.3898 32.9771 59.4217C33.3854 59.4536 33.8002 59.4791 34.2149 59.4982C34.6296 59.5174 35.0444 59.5301 35.4591 59.5365C35.4655 59.5365 35.4719 59.5365 35.4846 59.5365C35.491 59.5365 35.4974 59.5365 35.5101 59.5365C35.5165 59.5365 35.5229 59.5365 35.5357 59.5365C35.542 59.5365 35.5484 59.5365 35.5612 59.5365C35.5803 59.5365 35.6059 59.5365 35.625 59.5365C35.6441 59.5365 35.6697 59.5365 35.6888 59.5365C35.7079 59.5365 35.7335 59.5365 35.7526 59.5365C35.7717 59.5365 35.7973 59.5365 35.8164 59.5365C35.8483 59.5365 35.8802 59.5365 35.9121 59.5365C35.944 59.5365 35.9759 59.5365 36.0078 59.5365C36.0397 59.5365 36.0716 59.5365 36.1035 59.5365C36.1354 59.5365 36.1673 59.5365 36.1992 59.5365C36.2311 59.5365 36.263 59.5365 36.295 59.5365C36.3269 59.5365 36.3588 59.5365 36.3907 59.5365C36.4226 59.5365 36.4545 59.5365 36.4864 59.5365C36.5183 59.5365 36.5502 59.5365 36.5821 59.5365C36.6012 59.5365 36.6204 59.5365 36.6395 59.5365C36.6586 59.5365 36.6778 59.5365 36.6969 59.5365C36.7161 59.5365 36.7352 59.5365 36.7544 59.5365C36.7735 59.5365 36.7926 59.5365 36.8118 59.5365C36.8245 59.5365 36.8309 59.5365 36.8437 59.5365C36.8564 59.5365 36.8628 59.5365 36.8756 59.5365C36.8883 59.5365 36.8947 59.5365 36.9075 59.5365C36.9202 59.5365 36.9266 59.5365 36.9394 59.5365C37.3541 59.5238 37.7689 59.5046 38.1772 59.4791C38.5856 59.4536 38.9939 59.4217 39.4023 59.3834C39.8042 59.3451 40.2062 59.3004 40.6082 59.243C41.0293 59.2111 41.4249 59.1473 41.8205 59.0835Z" fill="#A59DAC"/>
<path d="M16.043 53.8638C15.7622 55.1017 15.4751 56.3395 15.1944 57.5709C14.4096 57.0796 13.6439 56.5564 12.8974 56.0013C12.1572 55.4526 11.4426 54.8783 10.7471 54.2786C10.058 53.6788 9.39446 53.0535 8.76279 52.4091C8.13111 51.7646 7.52496 51.0947 6.94434 50.4056C7.1868 49.1422 7.42288 47.8725 7.66534 46.6028C8.25235 47.3046 8.87126 47.981 9.50931 48.6254C10.1537 49.2762 10.8301 49.9079 11.5256 50.5141C12.2274 51.1202 12.9548 51.7008 13.7077 52.2623C14.467 52.8366 15.2454 53.3662 16.043 53.8638Z" fill="#A59DAC"/>
<path d="M62.5001 46.386C62.1683 47.2155 61.8302 48.0513 61.4984 48.8808C61.3452 49.27 61.2112 49.6911 61.0198 50.0612C60.6434 50.8013 60.0308 51.484 59.5076 52.1221C58.9781 52.7665 58.4229 53.3854 57.8359 53.9852C57.2489 54.585 56.63 55.1656 55.9792 55.7143C55.3284 56.2694 54.6521 56.7926 53.9502 57.2967C54.2628 56.48 54.5819 55.6569 54.8945 54.8402C55.0285 54.4893 55.1242 54.0107 55.3348 53.6981C55.4751 53.4875 55.7367 53.3599 55.9409 53.2068C56.445 52.8303 56.9363 52.4347 57.4212 52.0264C58.0784 51.4713 58.7037 50.8843 59.3035 50.2781C59.8969 49.672 60.4647 49.0467 61.0007 48.3959C61.5303 47.7514 62.028 47.0815 62.5001 46.386Z" fill="#A59DAC"/>
<path d="M1.28513 33.9313C1.08095 35.2457 0.870396 36.5601 0.666219 37.8745C0.589653 37.5236 0.513084 37.1663 0.449278 36.8153C0.385473 36.458 0.321668 36.1071 0.270624 35.7434C0.21958 35.3861 0.174917 35.0288 0.136633 34.6651C0.0983501 34.3014 0.0664464 33.9441 0.0409243 33.5804C0.0409243 33.574 0.0409243 33.5676 0.0409243 33.5612C0.0409243 33.5549 0.0409243 33.5485 0.0409243 33.5421C0.0409243 33.5357 0.0409243 33.5293 0.0409243 33.523C0.0409243 33.5166 0.0409243 33.5102 0.0409243 33.5038C0.0409243 33.4847 0.0409278 33.4655 0.0345473 33.4464C0.0345473 33.4273 0.0345459 33.4081 0.0281654 33.389C0.0281654 33.3698 0.0281654 33.3507 0.0281654 33.3316C0.0281654 33.3124 0.0281654 33.2933 0.0281654 33.2741C0.0281654 33.2486 0.028164 33.2167 0.0217835 33.1912C0.0217835 33.1657 0.0217821 33.1338 0.0154016 33.1082C0.0154016 33.0827 0.0154051 33.0508 0.00902452 33.0253C0.00902452 32.9998 0.00902316 32.9679 0.00264262 32.9423C0.00264262 32.9168 0.00264262 32.8849 0.00264262 32.8594C0.00264262 32.8339 0.00264262 32.802 0.00264262 32.7764C0.00264262 32.7509 0.00264262 32.719 0.00264262 32.6935C0.00264262 32.668 0.00264262 32.6361 0.00264262 32.6106C0.00264262 32.5914 0.00264262 32.5723 0.00264262 32.5531C0.00264262 32.534 0.00264262 32.5148 0.00264262 32.4957C0.00264262 32.4766 0.00264262 32.4574 0.00264262 32.4383C0.00264262 32.4191 0.00264262 32.4 0.00264262 32.3809C0.00264262 32.3745 0.00264262 32.3681 0.00264262 32.3617C0.00264262 32.3553 0.00264262 32.3489 0.00264262 32.3426C0.00264262 32.3362 0.00264262 32.3298 0.00264262 32.3234C0.00264262 32.317 0.00264262 32.3107 0.00264262 32.3043C-0.00373791 31.9406 0.00264399 31.5833 0.00902452 31.2196C0.0217856 30.8623 0.034543 30.505 0.0600651 30.1477C0.0855873 29.7904 0.117491 29.4394 0.155774 29.0885C0.194057 28.7376 0.238721 28.393 0.289765 28.0485C0.493942 26.6958 0.698122 25.3495 0.895919 23.9968C0.844875 24.3478 0.800211 24.6987 0.761928 25.0496C0.723645 25.4005 0.691741 25.7579 0.666219 26.1152C0.640697 26.4725 0.621554 26.8362 0.615174 27.1935C0.602413 27.5572 0.602411 27.9209 0.608792 28.2909C0.608792 28.2973 0.608792 28.3037 0.608792 28.3101C0.608792 28.3164 0.608792 28.3228 0.608792 28.3292C0.608792 28.3356 0.608792 28.342 0.608792 28.3484C0.608792 28.3547 0.608792 28.3611 0.608792 28.3675C0.608792 28.3866 0.608792 28.4058 0.608792 28.4249C0.608792 28.4441 0.608792 28.4632 0.608792 28.4823C0.608792 28.5015 0.608792 28.5206 0.608792 28.5398C0.608792 28.5589 0.608792 28.5781 0.608792 28.5972C0.608792 28.6227 0.608792 28.6546 0.608792 28.6801C0.608792 28.7057 0.608792 28.7376 0.608792 28.7631C0.608792 28.7886 0.608792 28.8205 0.608792 28.846C0.608792 28.8779 0.608792 28.9035 0.608792 28.929C0.608792 28.9545 0.608793 28.9864 0.615174 29.0119C0.615174 29.0374 0.615175 29.0694 0.621556 29.1013C0.621556 29.1268 0.621552 29.1587 0.627933 29.1842C0.627933 29.2097 0.627934 29.2416 0.634314 29.2671C0.634314 29.2863 0.634314 29.3054 0.634314 29.3246C0.634314 29.3437 0.634316 29.3629 0.640696 29.382C0.640696 29.4011 0.640698 29.4203 0.647078 29.4394C0.647078 29.4586 0.647075 29.4777 0.653455 29.4968C0.653455 29.5032 0.653455 29.5096 0.653455 29.516C0.653455 29.5224 0.653455 29.5287 0.653455 29.5351C0.653455 29.5415 0.653455 29.5479 0.653455 29.5543C0.653455 29.5607 0.653455 29.567 0.653455 29.5734C0.678977 29.9435 0.710881 30.3072 0.749164 30.6709C0.787448 31.0346 0.832112 31.3982 0.889537 31.7619C0.940581 32.1256 1.00439 32.4829 1.06819 32.8402C1.132 33.2167 1.20219 33.574 1.28513 33.9313Z" fill="#A59DAC"/>
<path d="M36.9136 9.71162L36.8434 9.70524C36.7285 9.68609 36.6073 9.66695 36.4924 9.64781C36.3776 9.62867 36.2564 9.60953 36.1415 9.59677C36.0267 9.57763 35.9054 9.56486 35.7906 9.54572C35.6757 9.53296 35.5545 9.51382 35.4397 9.50106C35.4333 9.50106 35.4269 9.50106 35.4269 9.50106C35.4205 9.50106 35.4141 9.50106 35.4141 9.50106C35.4078 9.50106 35.4014 9.50106 35.4014 9.50106C35.395 9.50106 35.3886 9.50106 35.3886 9.50106C35.3759 9.50106 35.3631 9.50106 35.3439 9.49468C35.3312 9.49468 35.3184 9.4883 35.2993 9.4883C35.2865 9.4883 35.2738 9.4883 35.2546 9.48192C35.2419 9.48192 35.2291 9.48192 35.21 9.47554C35.1972 9.47554 35.1844 9.47554 35.1717 9.46916C35.1589 9.46916 35.1462 9.46916 35.1334 9.46278C35.1206 9.46278 35.1079 9.46278 35.0951 9.45639C35.0823 9.45639 35.0696 9.45639 35.0568 9.45001C35.0504 9.45001 35.0377 9.45001 35.0313 9.45001C35.0249 9.45001 35.0122 9.45001 35.0058 9.45001C34.9994 9.45001 34.9866 9.45001 34.9803 9.45001C34.9739 9.45001 34.9611 9.45001 34.9547 9.45001C34.9356 9.45001 34.9228 9.45001 34.9037 9.44363C34.8845 9.44363 34.8718 9.44363 34.8526 9.43725C34.8399 9.43725 34.8207 9.43725 34.808 9.43087C34.7888 9.43087 34.7761 9.43087 34.7569 9.42449C34.7506 9.42449 34.7506 9.42449 34.7442 9.42449C34.7378 9.42449 34.7378 9.42449 34.7314 9.42449C34.725 9.42449 34.725 9.42449 34.7187 9.42449C34.7123 9.42449 34.7123 9.42449 34.7059 9.42449C34.6868 9.42449 34.6676 9.41811 34.6485 9.41811C34.6293 9.41811 34.6102 9.41811 34.5911 9.41173C34.5719 9.41173 34.5528 9.41173 34.5336 9.40535C34.5145 9.40535 34.4953 9.40535 34.4762 9.39897H34.4698H34.4634H34.4571H34.4507C34.4315 9.39897 34.4124 9.39897 34.3869 9.39259C34.3677 9.39259 34.3486 9.39259 34.3231 9.38621C34.3039 9.38621 34.2848 9.38621 34.2593 9.37983C34.2401 9.37983 34.221 9.37983 34.1955 9.37345C34.1699 9.37345 34.1508 9.37345 34.1253 9.36707C34.0997 9.36707 34.0806 9.36707 34.0615 9.36069C34.0423 9.36069 34.0168 9.36069 33.9977 9.35431C33.9785 9.35431 33.953 9.35431 33.9338 9.34793C33.9338 9.34793 33.9339 9.34793 33.9275 9.34793C33.9275 9.34793 33.9275 9.34793 33.9211 9.34793C33.9211 9.34793 33.9211 9.34793 33.9147 9.34793C33.9147 9.34793 33.9147 9.34793 33.9083 9.34793C33.8892 9.34793 33.87 9.34793 33.8445 9.34154C33.8254 9.34154 33.7999 9.34155 33.7807 9.33516C33.7616 9.33516 33.7361 9.33516 33.7169 9.33516C33.6978 9.33516 33.6786 9.33516 33.6531 9.33516H33.6467H33.6403H33.634H33.6276C33.6084 9.33516 33.5893 9.33516 33.5702 9.33516C33.551 9.33516 33.5319 9.33516 33.5127 9.33516C33.4936 9.33516 33.4744 9.33516 33.4553 9.33516C33.4362 9.33516 33.417 9.33516 33.3979 9.33516C33.3915 9.33516 33.3851 9.33516 33.3851 9.33516C33.3787 9.33516 33.3724 9.33516 33.3724 9.33516C33.366 9.33516 33.3596 9.33516 33.3596 9.33516C33.3532 9.33516 33.3468 9.33516 33.3468 9.33516C33.3277 9.33516 33.3149 9.33516 33.2958 9.33516C33.2767 9.33516 33.2639 9.33516 33.2448 9.33516C33.2256 9.33516 33.2129 9.33516 33.1937 9.33516C33.1746 9.33516 33.1618 9.33516 33.1427 9.33516C33.1363 9.33516 33.1235 9.33516 33.1171 9.33516C33.1108 9.33516 33.1044 9.33516 33.0916 9.33516C33.0852 9.33516 33.0725 9.33516 33.0661 9.33516C33.0597 9.33516 33.0533 9.33516 33.0406 9.33516C33.0278 9.33516 33.0151 9.33516 32.9959 9.33516C32.9832 9.33516 32.9704 9.33516 32.9512 9.33516C32.9385 9.33516 32.9257 9.33516 32.9066 9.33516C32.8938 9.33516 32.8811 9.33516 32.8619 9.33516C32.8364 9.33516 32.8173 9.33516 32.7917 9.33516C32.7662 9.33516 32.7471 9.33516 32.7215 9.33516C32.696 9.33516 32.6769 9.33516 32.6514 9.33516C32.6258 9.33516 32.6067 9.33516 32.5812 9.33516C32.5301 9.33516 32.4791 9.3224 32.4344 9.30964C32.3898 9.2905 32.3451 9.27136 32.3004 9.23946C32.2621 9.20755 32.2302 9.17565 32.2047 9.13737C32.1792 9.09908 32.1664 9.0608 32.1601 9.01614C32.1473 8.83748 32.2749 8.70349 32.4536 8.70349H32.5493C34.004 8.70987 35.4588 8.84386 36.888 9.0927C36.8944 9.0927 36.9008 9.0927 36.9072 9.09908C36.9136 9.09908 36.9199 9.09908 36.9263 9.10547C36.9327 9.10547 36.9391 9.10547 36.9455 9.11185C36.9518 9.11185 36.9582 9.11823 36.9582 9.11823C36.9965 9.13099 37.0348 9.15013 37.0667 9.17565C37.0986 9.20117 37.1305 9.2267 37.1496 9.2586C37.1752 9.2905 37.1879 9.3224 37.1943 9.36069C37.2007 9.39897 37.2071 9.43725 37.2007 9.47554C37.2198 9.61591 37.0667 9.71162 36.9136 9.71162Z" fill="#FBFBFC"/>
<path d="M51.4232 17.961C50.5235 16.889 49.5218 15.9064 48.4435 15.0132C48.4052 14.9813 48.3733 14.9494 48.3542 14.9111C48.335 14.8728 48.3222 14.8345 48.3159 14.7899C48.3095 14.7516 48.3159 14.7069 48.335 14.6686C48.3478 14.6303 48.3733 14.5921 48.4052 14.5602C48.418 14.5474 48.4371 14.5346 48.4562 14.5219C48.4754 14.5091 48.4945 14.5027 48.5137 14.4963C48.5328 14.49 48.5583 14.4836 48.5775 14.4772C48.5966 14.4708 48.6221 14.4708 48.6477 14.4708C48.6604 14.4708 48.6796 14.4708 48.6923 14.4708C48.7051 14.4708 48.7242 14.4772 48.737 14.4772C48.7497 14.4836 48.7689 14.4836 48.7816 14.49C48.7944 14.4963 48.8136 14.5027 48.8263 14.5091C48.8327 14.5091 48.8391 14.5155 48.8455 14.5219C48.8518 14.5282 48.8582 14.5283 48.8646 14.5346C48.871 14.541 48.8774 14.541 48.8837 14.5474C48.8901 14.5538 48.8965 14.5538 48.9029 14.5602C49.1836 14.7899 49.4644 15.0323 49.7323 15.2748C50.0003 15.5172 50.2683 15.7661 50.5235 16.0213C50.7788 16.2765 51.034 16.5317 51.2764 16.7997C51.5189 17.0613 51.755 17.3293 51.9847 17.6037C51.9911 17.61 51.9911 17.6164 51.9974 17.6228C52.0038 17.6292 52.0038 17.6356 52.0102 17.642C52.0166 17.6483 52.0166 17.6547 52.023 17.6611C52.023 17.6675 52.0293 17.6739 52.0293 17.6802C52.0995 17.8142 52.0549 17.9737 51.9336 18.0567L51.7358 18.1141C51.7103 18.1141 51.6784 18.1077 51.6529 18.1014C51.6274 18.095 51.5955 18.0886 51.5699 18.0758C51.5444 18.0631 51.5189 18.0503 51.4934 18.0312C51.4679 17.9993 51.4423 17.9801 51.4232 17.961C51.2062 17.693 51.4423 17.9801 51.4232 17.961Z" fill="#FBFBFC"/>
<path d="M55.7427 25.2798C55.6981 25.2798 55.6598 25.2734 55.6151 25.2607C55.5768 25.2479 55.5385 25.2288 55.5003 25.2096C55.4684 25.1841 55.4365 25.1586 55.4109 25.1267C55.3854 25.0948 55.3663 25.0629 55.3535 25.0246C55.3471 25.0118 55.3407 24.9927 55.3407 24.9799C55.3344 24.9672 55.328 24.948 55.328 24.9353C55.3216 24.9225 55.3216 24.9034 55.3152 24.8906C55.3089 24.8779 55.3088 24.8651 55.3025 24.8459C55.3025 24.8396 55.2961 24.8268 55.2961 24.8204C55.2961 24.814 55.2897 24.8013 55.2897 24.7949C55.2897 24.7885 55.2833 24.7758 55.2833 24.7694C55.2833 24.763 55.277 24.7502 55.277 24.7439V24.7375V24.7311V24.7247V24.7183C55.1812 24.4248 55.0728 24.1377 54.9643 23.8506C54.8558 23.5635 54.7346 23.2763 54.607 22.9956C54.4794 22.7148 54.3518 22.4341 54.2114 22.1534C54.071 21.8726 53.9243 21.5983 53.7711 21.3303C53.7456 21.292 53.7329 21.2473 53.7329 21.209C53.7265 21.1644 53.7329 21.1261 53.752 21.0878C53.7648 21.0495 53.7903 21.0112 53.8222 20.9857C53.8541 20.9538 53.8924 20.9283 53.937 20.9155C53.9498 20.9092 53.9626 20.9092 53.9689 20.9028C53.9817 20.9028 53.9945 20.8964 54.0008 20.8964C54.0136 20.8964 54.0264 20.89 54.0327 20.89C54.0455 20.89 54.0583 20.89 54.0646 20.89C54.0965 20.89 54.1221 20.8964 54.154 20.9028C54.1795 20.9092 54.2114 20.9155 54.2369 20.9283C54.2624 20.9411 54.288 20.9538 54.3135 20.973C54.339 20.9921 54.3582 21.0112 54.3773 21.0368C54.3837 21.0431 54.3837 21.0431 54.3901 21.0495C54.3964 21.0559 54.3964 21.0559 54.4028 21.0623C54.4028 21.0687 54.4092 21.0751 54.4092 21.0751C54.4156 21.0814 54.4156 21.0878 54.4156 21.0878C54.5878 21.3941 54.7474 21.7003 54.9069 22.013C55.06 22.3256 55.2068 22.6383 55.3471 22.9573C55.4875 23.2763 55.6151 23.5954 55.7363 23.9144C55.8576 24.2398 55.9724 24.5588 56.0745 24.8906C56.0745 24.897 56.0745 24.9034 56.0809 24.9034C56.0809 24.9098 56.0809 24.9161 56.0873 24.9161C56.0873 24.9225 56.0873 24.9289 56.0873 24.9289C56.0873 24.9353 56.0873 24.9417 56.0873 24.9417C56.1064 25.1076 55.9788 25.2352 55.8257 25.2671L55.7427 25.2798Z" fill="#FBFBFC"/>
<path d="M56.8786 28.865C56.8786 28.8714 56.8786 28.8714 56.8786 28.8778C56.8786 28.9097 56.8849 28.948 56.8849 28.9799C56.8849 28.9862 56.8849 28.9926 56.8849 29.0054C56.8849 29.0118 56.8849 29.0181 56.8849 29.0245C56.8849 29.0309 56.8849 29.0373 56.8849 29.0437C56.8849 29.0564 56.8849 29.0692 56.8913 29.0883C56.8913 29.1011 56.8913 29.1138 56.8977 29.133C56.8977 29.1458 56.8977 29.1585 56.9041 29.1777C56.9041 29.1904 56.9041 29.2032 56.9105 29.2223C56.9105 29.2287 56.9105 29.2351 56.9105 29.2415C56.9105 29.2478 56.9105 29.2542 56.9105 29.2606C56.9105 29.267 56.9105 29.2734 56.9105 29.2797C56.9105 29.2861 56.9105 29.2925 56.9105 29.2989C56.936 29.6115 56.9487 29.9178 56.9615 30.2304C56.9679 30.5367 56.9743 30.8494 56.9615 31.1556C56.9551 31.4619 56.9424 31.7682 56.9168 32.0744C56.8913 32.3807 56.8658 32.6869 56.8211 32.9868C56.8211 32.9932 56.8211 32.9932 56.8211 32.9996C56.8211 33.006 56.8211 33.006 56.8211 33.0124C56.8211 33.0187 56.8211 33.0187 56.8211 33.0251C56.8211 33.0315 56.8211 33.0315 56.8211 33.0379C56.7828 33.1782 56.6425 33.2612 56.5021 33.2612L56.4319 33.2548C56.3809 33.2484 56.3362 33.2293 56.2979 33.2102C56.2596 33.1846 56.2214 33.1591 56.1895 33.1272C56.1576 33.0953 56.1384 33.057 56.1193 33.0124C56.1001 32.9741 56.0938 32.9294 56.0938 32.8847C56.0938 32.8784 56.0938 32.872 56.0938 32.8656C56.1001 32.8082 56.1065 32.7508 56.1129 32.6997C56.1193 32.6423 56.1257 32.5849 56.132 32.5338C56.1384 32.4764 56.1448 32.419 56.1512 32.3679C56.1576 32.3105 56.1639 32.2531 56.1703 32.202C56.1703 32.1893 56.1703 32.1765 56.1703 32.1637C56.1703 32.151 56.1703 32.1382 56.1703 32.1255C56.1703 32.1127 56.1703 32.0999 56.1703 32.0872C56.1703 32.0744 56.1703 32.0617 56.1703 32.0489C56.1703 32.0425 56.1703 32.0425 56.1703 32.0361C56.1703 32.0298 56.1703 32.0298 56.1703 32.0234C56.1703 32.017 56.1703 32.017 56.1703 32.0106C56.1703 32.0042 56.1703 32.0042 56.1703 31.9978C56.1895 31.7937 56.1958 31.5831 56.2086 31.3789C56.215 31.1748 56.2214 30.9642 56.2214 30.7536C56.2214 30.5431 56.2214 30.3389 56.215 30.1284C56.2086 29.9178 56.1958 29.7072 56.1831 29.5031C56.1831 29.4839 56.1831 29.4648 56.1767 29.4456C56.1767 29.4265 56.1767 29.4074 56.1703 29.3882C56.1703 29.3691 56.1703 29.3499 56.1639 29.3372C56.1639 29.318 56.1639 29.2989 56.1575 29.2861C56.1575 29.2797 56.1575 29.2797 56.1575 29.2734C56.1575 29.267 56.1575 29.267 56.1575 29.2606C56.1575 29.2542 56.1575 29.2542 56.1575 29.2478C56.1575 29.2415 56.1575 29.2415 56.1575 29.2351C56.1512 29.1521 56.1448 29.0692 56.1384 28.9862C56.1256 28.9224 56.1257 28.8331 56.1448 28.7757C56.1576 28.7374 56.1831 28.6991 56.215 28.6736C56.2469 28.6417 56.2788 28.6225 56.3234 28.6034C56.3681 28.5843 56.4128 28.5779 56.4638 28.5779C56.5149 28.5779 56.5595 28.5843 56.6042 28.6034C56.6489 28.6225 56.6871 28.6417 56.7254 28.6736C56.7573 28.6991 56.7892 28.7374 56.8084 28.7757C56.853 28.7821 56.8722 28.8203 56.8786 28.865Z" fill="#FBFBFC"/>
<path d="M41.0163 10.8089C40.9717 10.7898 40.927 10.7643 40.8951 10.7388C40.8632 10.7069 40.8313 10.675 40.8122 10.6367C40.793 10.5984 40.7803 10.5601 40.7739 10.5154C40.7675 10.4772 40.7739 10.4325 40.793 10.3942C40.8058 10.3623 40.8249 10.3368 40.8441 10.3113C40.8632 10.2857 40.8887 10.2666 40.9206 10.2475C40.9462 10.2283 40.9781 10.2156 41.01 10.2092C41.0419 10.2028 41.0738 10.1964 41.112 10.1964C41.1184 10.1964 41.1248 10.1964 41.1376 10.1964C41.144 10.1964 41.1503 10.1964 41.1631 10.1964C41.1695 10.1964 41.1759 10.1964 41.1886 10.2028C41.195 10.2028 41.2014 10.2028 41.2141 10.2092C41.2333 10.2156 41.246 10.2156 41.2652 10.2219C41.6161 10.3432 41.9607 10.4772 42.3052 10.6175C42.6498 10.7579 42.9879 10.9047 43.3261 11.0578C43.6643 11.2109 43.9961 11.3768 44.3278 11.5427C44.6596 11.7086 44.985 11.8873 45.3041 12.0659C45.3104 12.0723 45.3168 12.0723 45.3232 12.0787C45.3296 12.085 45.336 12.0851 45.3423 12.0914C45.3487 12.0978 45.3551 12.1042 45.3615 12.1042C45.3679 12.1106 45.3742 12.117 45.3806 12.117C45.4125 12.1425 45.4317 12.1744 45.4508 12.2063C45.47 12.2382 45.4827 12.2701 45.4891 12.3084C45.4955 12.3403 45.4955 12.3786 45.4891 12.4105C45.4827 12.4424 45.47 12.4806 45.4508 12.5125C45.387 12.6083 45.2785 12.6529 45.1637 12.6529L44.9659 12.6019C44.6532 12.4232 44.3342 12.2573 44.0152 12.0914C43.6962 11.9255 43.3708 11.7724 43.0454 11.6193C42.7199 11.4725 42.3882 11.3258 42.0564 11.1918C41.6863 11.0578 41.3545 10.9302 41.0163 10.8089C40.9653 10.7962 41.3545 10.9302 41.0163 10.8089Z" fill="#FBFBFC"/>
<path d="M24.1402 10.7898C24.1019 10.7898 24.07 10.7834 24.0317 10.7771C23.9998 10.7707 23.9679 10.7515 23.936 10.7388C23.9041 10.7196 23.8786 10.7005 23.8531 10.675C23.8276 10.6494 23.8084 10.6239 23.7893 10.592C23.7701 10.5537 23.7574 10.5218 23.7574 10.4836C23.751 10.4453 23.7574 10.407 23.7701 10.3751C23.7829 10.3432 23.7957 10.3049 23.8212 10.2794C23.8467 10.2475 23.8722 10.222 23.9105 10.2028C23.9169 10.2028 23.9169 10.1964 23.9233 10.1964C23.9297 10.1964 23.9297 10.19 23.936 10.19C23.9424 10.19 23.9424 10.1837 23.9488 10.1837C23.9552 10.1837 23.9616 10.1773 23.9616 10.1773C24.2678 10.0624 24.5741 9.95397 24.8867 9.85826C25.1994 9.75617 25.512 9.66684 25.8311 9.57752C26.1501 9.48819 26.4691 9.41162 26.7881 9.33506C27.1072 9.25849 27.4326 9.19468 27.758 9.13088C27.7644 9.13088 27.7644 9.13088 27.7707 9.13088C27.7771 9.13088 27.7771 9.13088 27.7835 9.13088C27.7899 9.13088 27.7899 9.13088 27.7963 9.13088C27.8026 9.13088 27.8026 9.13088 27.809 9.13088C27.8218 9.13088 27.8409 9.1245 27.8537 9.1245C27.8665 9.1245 27.8856 9.11812 27.8984 9.11812C27.9111 9.11812 27.9303 9.11174 27.943 9.11174C27.9558 9.11174 27.9749 9.10536 27.9877 9.10536C27.9941 9.10536 28.0068 9.09898 28.0132 9.09898C28.0196 9.09898 28.0323 9.0926 28.0387 9.0926C28.0451 9.0926 28.0579 9.08621 28.0642 9.08621C28.0706 9.08621 28.0834 9.07983 28.0898 9.07983H28.0962H28.1025H28.1089H28.1153C28.1217 9.07983 28.1281 9.07983 28.1344 9.07983C28.1408 9.07983 28.1472 9.07983 28.1536 9.07983C28.16 9.07983 28.1663 9.07983 28.1727 9.07983C28.1791 9.07983 28.1855 9.07983 28.1919 9.07983C28.2365 9.07983 28.2748 9.08621 28.3131 9.09898C28.3514 9.11174 28.3897 9.13088 28.4216 9.15002C28.4535 9.17554 28.4854 9.20106 28.5045 9.23297C28.53 9.26487 28.5492 9.29677 28.5556 9.33506C28.613 9.51371 28.4726 9.6796 28.3003 9.70513C26.9221 9.94121 25.5695 10.3113 24.2614 10.7962L24.1402 10.7898Z" fill="#FBFBFC"/>
<path d="M17.1279 15.0644C17.0321 15.0644 16.9364 15.0325 16.8599 14.9687C16.828 14.9432 16.8024 14.9113 16.7833 14.8794C16.7642 14.8475 16.7514 14.8092 16.745 14.7773C16.7386 14.7454 16.7386 14.7071 16.745 14.6752C16.7514 14.6433 16.7642 14.605 16.7833 14.5731C16.7961 14.5476 16.8152 14.5285 16.8343 14.5093C17.8489 13.5714 18.9591 12.7355 20.1395 12.0082C20.1458 12.0018 20.1522 12.0018 20.1586 11.9954C20.165 11.9954 20.1714 11.989 20.1778 11.989C20.1841 11.989 20.1905 11.9826 20.1969 11.9826C20.2033 11.9826 20.2097 11.9763 20.216 11.9763C20.2288 11.9763 20.2352 11.9699 20.2479 11.9699C20.2607 11.9699 20.2671 11.9635 20.2798 11.9635C20.2926 11.9635 20.299 11.9635 20.3117 11.9635C20.3245 11.9635 20.3309 11.9635 20.3436 11.9635C20.4649 11.9635 20.5861 12.0145 20.6563 12.1103C20.6882 12.1485 20.7073 12.1868 20.7201 12.2251C20.7329 12.2634 20.7329 12.3081 20.7265 12.3463C20.7201 12.3846 20.701 12.4293 20.6818 12.4612C20.6563 12.4995 20.6244 12.525 20.5797 12.5505C20.2926 12.7228 20.0119 12.9078 19.7311 13.0992C19.4504 13.2907 19.1824 13.4821 18.9144 13.6862C18.6464 13.8904 18.3848 14.0946 18.1296 14.3115C17.8744 14.5285 17.6255 14.7454 17.3831 14.9751C17.3639 14.9879 17.3512 15.0006 17.332 15.0134C17.3129 15.0262 17.2937 15.0325 17.2682 15.0389C17.2491 15.0453 17.2236 15.0517 17.198 15.0581C17.1789 15.0644 17.1534 15.0644 17.1279 15.0644Z" fill="#FBFBFC"/>
<path d="M12.4514 21.5213C12.4067 21.5086 12.3684 21.4894 12.3365 21.4639C12.3046 21.4384 12.2791 21.4065 12.2536 21.3746C12.2344 21.3427 12.2153 21.3044 12.2089 21.2661C12.2025 21.2278 12.2025 21.1896 12.2089 21.1513C12.2089 21.1449 12.2089 21.1449 12.2089 21.1385C12.2089 21.1321 12.2089 21.1321 12.2153 21.1258C12.2153 21.1194 12.2153 21.1194 12.2217 21.113C12.2217 21.1066 12.2216 21.1066 12.228 21.1002C12.3556 20.794 12.4896 20.4877 12.6364 20.1878C12.7831 19.8879 12.9363 19.588 13.0958 19.2945C13.2553 19.001 13.4276 18.7075 13.6062 18.4268C13.7849 18.1397 13.9699 17.8589 14.1677 17.5846C14.1741 17.5782 14.1741 17.5718 14.1805 17.5718C14.1869 17.5654 14.1869 17.559 14.1932 17.559C14.1996 17.5527 14.1996 17.5463 14.206 17.5463C14.2124 17.5399 14.2188 17.5399 14.2188 17.5335C14.2379 17.5207 14.2507 17.508 14.2698 17.4952C14.2889 17.4825 14.3081 17.4761 14.3272 17.4697C14.3464 17.4633 14.3655 17.4569 14.391 17.4569C14.4102 17.4506 14.4357 17.4506 14.4548 17.4506C14.5314 17.4506 14.6016 17.4697 14.6654 17.508C14.8185 17.5973 14.8951 17.8015 14.7866 17.9546C14.6016 18.2226 14.4229 18.497 14.2507 18.7713C14.0784 19.0457 13.9125 19.3264 13.7594 19.6136C13.5998 19.9007 13.4531 20.1878 13.3127 20.4749C13.1724 20.7684 13.0384 21.0619 12.9171 21.3618C12.8661 21.4958 12.7257 21.5724 12.5853 21.5724L12.4514 21.5213Z" fill="#FBFBFC"/>
<path d="M55.6596 36.446C55.7042 36.4588 55.7362 36.4843 55.7744 36.5098C55.8063 36.5353 55.8319 36.5672 55.8574 36.5991C55.8765 36.631 55.8957 36.6693 55.902 36.7076C55.9084 36.7459 55.9148 36.7842 55.9084 36.8225C55.9084 36.8288 55.9084 36.8352 55.9084 36.8352C55.9084 36.8416 55.9084 36.848 55.9084 36.848C55.9084 36.8544 55.9084 36.8607 55.902 36.8607C55.902 36.8671 55.902 36.8671 55.8957 36.8735C55.7808 37.1861 55.6596 37.4988 55.5256 37.8051C55.3916 38.1113 55.2512 38.4176 55.1045 38.7239C54.9513 39.0237 54.7982 39.3236 54.6259 39.6171C54.46 39.9106 54.2814 40.2041 54.1027 40.4913C54.1027 40.4976 54.0964 40.504 54.09 40.504C54.0836 40.5104 54.0836 40.5168 54.0772 40.5168C54.0708 40.5232 54.0708 40.5232 54.0644 40.5295C54.0581 40.5359 54.0581 40.5359 54.0517 40.5423C53.9879 40.6061 53.8986 40.638 53.8092 40.638L53.605 40.5806C53.5604 40.5551 53.5221 40.5232 53.4902 40.4849C53.4583 40.4466 53.4392 40.4083 53.4264 40.3636C53.4136 40.319 53.4073 40.2743 53.4136 40.236C53.42 40.1914 53.4328 40.1531 53.4583 40.1148C53.637 39.8404 53.8092 39.5597 53.9687 39.2726C54.1283 38.9855 54.2878 38.6983 54.4281 38.4048C54.5749 38.1113 54.7089 37.8178 54.8365 37.5179C54.9641 37.218 55.0853 36.9182 55.1938 36.6119C55.2066 36.58 55.2193 36.5481 55.2448 36.5226C55.264 36.497 55.2895 36.4779 55.3214 36.4588C55.3469 36.4396 55.3788 36.4269 55.4171 36.4205C55.449 36.4141 55.4873 36.4077 55.5256 36.4077C55.5384 36.4077 55.5511 36.4077 55.5639 36.4077C55.5766 36.4077 55.5894 36.4077 55.6022 36.4141C55.6149 36.4141 55.6277 36.4205 55.6404 36.4205C55.6341 36.4396 55.6468 36.446 55.6596 36.446C55.6979 36.4651 55.6468 36.446 55.6596 36.446Z" fill="#FBFBFC"/>
<path d="M11.6277 28.942C11.6277 28.9867 11.6213 29.0314 11.6086 29.076C11.5894 29.1207 11.5703 29.159 11.5384 29.1909C11.5065 29.2228 11.4682 29.2483 11.4235 29.2674C11.3789 29.2866 11.3278 29.2994 11.2768 29.2994C11.0981 29.2994 10.9067 29.1845 10.8939 28.9931C10.8939 28.9548 10.8876 28.9165 10.8876 28.8846C10.8876 28.8655 10.8876 28.84 10.8876 28.8208C10.8876 28.8017 10.8876 28.7761 10.8876 28.757C10.8876 28.7379 10.8876 28.7123 10.8876 28.6932C10.8876 28.6868 10.8876 28.6868 10.8876 28.6804C10.8876 28.6741 10.8876 28.6741 10.8876 28.6677C10.8876 28.6613 10.8876 28.6613 10.8876 28.6549C10.8876 28.6485 10.8876 28.6485 10.8876 28.6422C10.8876 28.623 10.8876 28.6039 10.8876 28.5847C10.8876 28.5656 10.8876 28.5464 10.8876 28.5273C10.8876 28.5082 10.8876 28.489 10.8876 28.4699C10.8876 28.4507 10.8876 28.4316 10.8876 28.4125C10.862 27.2576 10.9386 26.0963 11.1364 24.9542C11.1364 24.9478 11.1364 24.9478 11.1364 24.9414C11.1364 24.9351 11.1364 24.9351 11.1364 24.9287C11.1364 24.9287 11.1364 24.9223 11.1364 24.9159C11.1364 24.9095 11.1364 24.9095 11.1364 24.9032C11.1492 24.8713 11.1619 24.8394 11.1874 24.8075C11.2066 24.7819 11.2385 24.7564 11.2704 24.7373C11.3023 24.7181 11.3342 24.699 11.3725 24.6926C11.4108 24.6798 11.449 24.6735 11.4873 24.6735C11.5065 24.6735 11.532 24.6735 11.5511 24.6798C11.6022 24.6926 11.6468 24.7054 11.6851 24.7309C11.7234 24.7564 11.7553 24.7819 11.7872 24.8138C11.8127 24.8457 11.8383 24.884 11.851 24.9223C11.8638 24.9606 11.8702 25.0053 11.8702 25.0435C11.8702 25.0499 11.8702 25.0563 11.8702 25.0691C11.851 25.1839 11.8319 25.3051 11.8127 25.42C11.7936 25.5412 11.7808 25.6561 11.7617 25.7773C11.7489 25.8985 11.7298 26.0134 11.717 26.1346C11.7043 26.2558 11.6915 26.3707 11.6851 26.4919C11.6851 26.4919 11.6851 26.4919 11.6851 26.4983C11.6851 26.4983 11.6851 26.4983 11.6851 26.5047C11.6851 26.5047 11.6851 26.5047 11.6851 26.5111C11.6851 26.5111 11.6851 26.5111 11.6851 26.5174C11.6851 26.5366 11.6851 26.5557 11.6788 26.5685C11.6788 26.5876 11.6787 26.6068 11.6724 26.6195C11.6724 26.6387 11.6724 26.6578 11.666 26.6706C11.666 26.6897 11.666 26.7089 11.6596 26.7216C11.6596 26.728 11.6596 26.728 11.6596 26.7344C11.6596 26.7408 11.6596 26.7408 11.6596 26.7471C11.6596 26.7535 11.6596 26.7535 11.6596 26.7599C11.6596 26.7663 11.6596 26.7663 11.6596 26.7727C11.6596 26.7854 11.6596 26.8046 11.6532 26.8173C11.6532 26.8301 11.6532 26.8492 11.6532 26.862C11.6532 26.8747 11.6532 26.8939 11.6532 26.9066C11.6532 26.9194 11.6532 26.9386 11.6532 26.9513C11.6532 26.9577 11.6532 26.9641 11.6532 26.9705C11.6532 26.9768 11.6532 26.9832 11.6532 26.9896C11.6532 26.996 11.6532 27.0024 11.6532 27.0087C11.6532 27.0151 11.6532 27.0215 11.6532 27.0279C11.6532 27.0406 11.6532 27.0598 11.6532 27.0725C11.6532 27.0853 11.6532 27.1044 11.6532 27.1172C11.6532 27.13 11.6532 27.1491 11.6532 27.1619C11.6532 27.1746 11.6532 27.1938 11.6532 27.2065C11.6532 27.2129 11.6532 27.2193 11.6532 27.2257C11.6532 27.2321 11.6532 27.2384 11.6532 27.2448C11.6532 27.2512 11.6532 27.2576 11.6532 27.264C11.6532 27.2703 11.6532 27.2767 11.6532 27.2831C11.6532 27.2959 11.6532 27.315 11.6532 27.3278C11.6532 27.3405 11.6532 27.3597 11.6532 27.3724C11.6532 27.3852 11.6532 27.4043 11.6532 27.4171C11.6532 27.4299 11.6532 27.449 11.6532 27.4618C11.6532 27.4681 11.6532 27.4745 11.6532 27.4809C11.6532 27.4873 11.6532 27.4937 11.6532 27.5C11.6532 27.5064 11.6532 27.5128 11.6532 27.5192C11.6532 27.5256 11.6532 27.5319 11.6532 27.5383C11.6532 27.5511 11.6532 27.5702 11.6532 27.583C11.6532 27.5957 11.6532 27.6149 11.6532 27.6277C11.6532 27.6404 11.6532 27.6596 11.6532 27.6723C11.6532 27.6851 11.6532 27.7042 11.6532 27.717C11.6532 27.7234 11.6532 27.7297 11.6532 27.7361C11.6532 27.7425 11.6532 27.7489 11.6532 27.7553C11.6532 27.7616 11.6532 27.768 11.6532 27.7744C11.6532 27.7808 11.6532 27.7872 11.6532 27.7935C11.6532 27.8063 11.6532 27.8191 11.6532 27.8382C11.6532 27.851 11.6532 27.8637 11.6532 27.8829C11.6532 27.8956 11.6532 27.9084 11.6532 27.9275C11.6532 27.9403 11.6532 27.9531 11.6532 27.9722C11.6532 27.9786 11.6532 27.985 11.6532 27.9913C11.6532 27.9977 11.6532 28.0041 11.6532 28.0105C11.6532 28.0169 11.6532 28.0232 11.6532 28.0296C11.6532 28.036 11.6532 28.0424 11.6532 28.0488C11.6532 28.0615 11.6532 28.0743 11.6532 28.0871C11.6532 28.0998 11.6532 28.1126 11.6532 28.1253C11.6532 28.1381 11.6532 28.1509 11.6532 28.1636C11.6532 28.1764 11.6532 28.1891 11.6532 28.2019C11.6532 28.2083 11.6532 28.2147 11.6532 28.2274C11.6532 28.2338 11.6532 28.2402 11.6532 28.2529C11.6532 28.2593 11.6532 28.2657 11.6532 28.2785C11.6532 28.2848 11.6532 28.2912 11.6532 28.304C11.6532 28.3168 11.6532 28.3295 11.6532 28.3423C11.6532 28.355 11.6532 28.3678 11.6532 28.3806C11.6532 28.3933 11.6532 28.4061 11.6532 28.4188C11.6532 28.4316 11.6532 28.4444 11.6532 28.4571C11.6532 28.4635 11.6532 28.4763 11.6532 28.4826C11.6532 28.489 11.6532 28.5018 11.6532 28.5082C11.6532 28.5145 11.6532 28.5273 11.6532 28.5337C11.6532 28.5401 11.6532 28.5528 11.6532 28.5592C11.6532 28.572 11.6532 28.5847 11.6532 28.5975C11.6532 28.6103 11.6532 28.623 11.6532 28.6358C11.6532 28.6485 11.6532 28.6613 11.6532 28.6741C11.6532 28.6868 11.6532 28.6996 11.6532 28.7123C11.6532 28.7315 11.6532 28.7506 11.6532 28.7761C11.6532 28.7953 11.6532 28.8144 11.6532 28.84C11.6532 28.8591 11.6532 28.8782 11.6532 28.9038C11.6277 28.8974 11.6277 28.9165 11.6277 28.942Z" fill="#FBFBFC"/>
<path d="M51.2005 43.126C51.226 43.126 51.2451 43.126 51.2707 43.1324C51.2962 43.1387 51.3153 43.1451 51.3408 43.1515C51.3664 43.1579 51.3855 43.1706 51.4046 43.1834C51.4238 43.1962 51.4429 43.2089 51.4621 43.2281C51.494 43.2536 51.5195 43.2855 51.545 43.3174C51.5642 43.3493 51.5833 43.3876 51.5897 43.4195C51.5961 43.4578 51.6024 43.4897 51.5961 43.528C51.5897 43.5662 51.5833 43.5981 51.5642 43.63C51.5514 43.6619 51.5259 43.6875 51.5067 43.7066C50.5114 44.702 49.4075 45.5952 48.2335 46.3609L48.1825 46.3737L48.0293 46.4183C47.9974 46.4183 47.9655 46.412 47.94 46.4056C47.9081 46.3992 47.8826 46.3864 47.8571 46.3737C47.8315 46.3609 47.806 46.3418 47.7805 46.3226C47.755 46.3035 47.7358 46.2843 47.7167 46.2588C47.5955 46.1121 47.6146 45.8887 47.7805 45.793C48.9226 45.0465 49.9818 44.1788 50.9516 43.2217C50.9708 43.2025 50.9899 43.1898 51.009 43.177C51.0282 43.1643 51.0473 43.1579 51.0728 43.1451C51.0984 43.1387 51.1175 43.1324 51.143 43.126C51.1558 43.1324 51.1813 43.126 51.2005 43.126Z" fill="#FBFBFC"/>
<path d="M12.7768 34.4935C12.847 34.6849 12.9171 34.8699 12.9937 35.0613C13.0703 35.2464 13.1468 35.4378 13.2298 35.6228C13.3127 35.8078 13.3957 35.9929 13.485 36.1779C13.5743 36.363 13.6637 36.548 13.7594 36.7266C13.8487 36.8989 13.753 37.0967 13.5807 37.1669L13.4403 37.1924C13.4084 37.1924 13.3765 37.186 13.351 37.1797C13.3191 37.1733 13.2936 37.1605 13.2617 37.1478C13.2362 37.135 13.2043 37.1159 13.1851 37.0967C13.1596 37.0776 13.1405 37.0584 13.1213 37.0329C13.1086 37.0201 13.0958 37.001 13.0894 36.9819C12.445 35.7249 11.9218 34.4041 11.5517 33.0451C11.5517 33.0387 11.5517 33.0387 11.5517 33.0323C11.5517 33.0323 11.5517 33.0259 11.5517 33.0196C11.5517 33.0132 11.5517 33.0132 11.5517 33.0068C11.5517 33.0004 11.5517 33.0004 11.5517 32.994C11.5326 32.8154 11.6602 32.675 11.8325 32.6431C11.8388 32.6431 11.8452 32.6431 11.8516 32.6367C11.858 32.6367 11.8644 32.6367 11.8707 32.6367C11.8771 32.6367 11.8835 32.6367 11.8899 32.6367C11.8963 32.6367 11.9026 32.6367 11.909 32.6367C12.0749 32.6367 12.2408 32.7452 12.2855 32.9047C12.311 33.0068 12.3429 33.1025 12.3684 33.2046C12.4003 33.3067 12.4258 33.4024 12.4577 33.4981C12.4896 33.5938 12.5215 33.6959 12.5535 33.7916C12.5854 33.8873 12.6173 33.9894 12.6492 34.0851C12.6492 34.0915 12.6555 34.0979 12.6555 34.0979C12.6555 34.1042 12.6619 34.1106 12.6619 34.1106C12.6619 34.117 12.6683 34.1234 12.6683 34.1234C12.6683 34.1298 12.6747 34.1361 12.6747 34.1361C12.6811 34.1489 12.6811 34.1617 12.6874 34.1744C12.6938 34.1872 12.6938 34.2 12.7002 34.2127C12.7066 34.2255 12.7066 34.2382 12.713 34.2446C12.7193 34.2574 12.7193 34.2701 12.7257 34.2829C12.7321 34.2957 12.7321 34.3084 12.7385 34.3148C12.7449 34.3276 12.7449 34.3403 12.7512 34.3531C12.7576 34.3658 12.7576 34.3786 12.764 34.3914C12.7704 34.4041 12.7704 34.4169 12.7768 34.4297C12.7768 34.436 12.7768 34.436 12.7832 34.4424C12.7832 34.4488 12.7895 34.4488 12.7895 34.4552C12.7895 34.4616 12.7895 34.4616 12.7959 34.4679C12.7704 34.4871 12.7768 34.4935 12.7768 34.4935Z" fill="#FBFBFC"/>
<path d="M44.1814 47.6884C44.3281 47.6884 44.4749 47.765 44.5451 47.8989C44.5642 47.9372 44.577 47.9755 44.577 48.0138C44.5834 48.0521 44.577 48.0904 44.5706 48.1286C44.5642 48.1669 44.5451 48.1988 44.5259 48.2307C44.5068 48.2626 44.4749 48.2882 44.443 48.3137C44.4366 48.3201 44.4366 48.3201 44.4302 48.3201C44.4238 48.3201 44.4175 48.3264 44.4175 48.3264C44.4111 48.3264 44.4047 48.3328 44.3983 48.3328C44.3919 48.3328 44.3856 48.3392 44.3792 48.3392C42.9946 48.8879 41.559 49.3027 40.0978 49.5834H40.0532H40.0213C39.849 49.5834 39.6831 49.4749 39.6384 49.309C39.581 49.124 39.715 48.939 39.9 48.9071C40.2574 48.8369 40.6147 48.7603 40.9656 48.6774C41.3165 48.5944 41.6674 48.4987 42.012 48.403C42.3565 48.3009 42.7011 48.1925 43.0393 48.0776C43.3774 47.9628 43.7092 47.8351 44.041 47.7075C44.0538 47.7011 44.0665 47.7012 44.0793 47.6948C44.0921 47.6884 44.1048 47.6884 44.1176 47.6884C44.1303 47.6884 44.1431 47.682 44.1559 47.682C44.1622 47.6948 44.1686 47.6884 44.1814 47.6884Z" fill="#FBFBFC"/>
<path d="M16.05 40.2543C16.9497 41.3836 17.9642 42.4236 19.0617 43.3616C19.202 43.4892 19.2275 43.7061 19.0872 43.8465C19.068 43.8656 19.0489 43.8784 19.0298 43.8912C19.0106 43.9039 18.9915 43.9167 18.966 43.9231C18.9404 43.9295 18.9213 43.9358 18.8958 43.9422C18.8702 43.9486 18.8447 43.9486 18.8256 43.9486C18.8064 43.9486 18.7937 43.9486 18.7745 43.9486C18.7554 43.9486 18.7426 43.9422 18.7235 43.9422C18.7043 43.9358 18.6916 43.9358 18.6724 43.9295C18.6597 43.9231 18.6405 43.9167 18.6278 43.9103C18.6214 43.9039 18.615 43.9039 18.6086 43.8975C18.6023 43.8912 18.5959 43.8912 18.5895 43.8848C18.5831 43.8784 18.5767 43.8784 18.5704 43.872C18.564 43.8656 18.5576 43.8593 18.5512 43.8593C18.2641 43.6168 17.9833 43.3616 17.7154 43.1064C17.441 42.8511 17.173 42.5895 16.9178 42.3216C16.6562 42.0536 16.4074 41.7792 16.1585 41.5048C15.9161 41.2241 15.68 40.9434 15.4503 40.6562C15.4439 40.6499 15.4439 40.6435 15.4375 40.6371C15.4311 40.6307 15.4311 40.6243 15.4248 40.618C15.4184 40.6116 15.4184 40.6052 15.412 40.5988C15.412 40.5924 15.4056 40.5861 15.4056 40.5797C15.3418 40.4329 15.3865 40.267 15.5205 40.1777C15.5396 40.1649 15.5524 40.1586 15.5715 40.1522C15.5906 40.1458 15.6034 40.1394 15.6225 40.133C15.6417 40.1267 15.6608 40.1267 15.6736 40.1203C15.6927 40.1203 15.7119 40.1139 15.731 40.1139C15.7629 40.1139 15.7884 40.1139 15.8203 40.1203C15.8522 40.1267 15.8778 40.133 15.9033 40.1458C15.9288 40.1586 15.9543 40.1713 15.9799 40.1905C16.0118 40.2096 16.0309 40.2287 16.05 40.2543C16.2734 40.5286 16.0309 40.2287 16.05 40.2543Z" fill="#FBFBFC"/>
<path d="M35.4851 49.3411C35.5362 49.3411 35.5936 49.3475 35.6383 49.3666C35.6829 49.3858 35.7276 49.4113 35.7659 49.4368C35.8041 49.4687 35.8361 49.507 35.8552 49.5453C35.8807 49.5836 35.8935 49.6282 35.8935 49.6793C35.9062 49.8707 35.7467 50.0175 35.5553 50.0238H35.5234C33.9921 50.0366 32.4544 49.9026 30.9422 49.6474C30.9358 49.6474 30.9294 49.6474 30.923 49.641C30.9167 49.641 30.9103 49.641 30.9039 49.6346C30.8975 49.6346 30.8911 49.6282 30.8848 49.6282C30.8784 49.6282 30.872 49.6219 30.8656 49.6219C30.7061 49.5644 30.5785 49.4113 30.6104 49.2326C30.6168 49.1944 30.6295 49.1561 30.6487 49.1178C30.6678 49.0859 30.6933 49.054 30.7252 49.0285C30.7571 49.0029 30.789 48.9838 30.8273 48.971C30.8656 48.9583 30.9103 48.9519 30.9549 48.9519C30.9613 48.9519 30.9677 48.9519 30.9741 48.9519C30.9805 48.9519 30.9868 48.9519 30.9932 48.9519C30.9996 48.9519 31.006 48.9519 31.0124 48.9519C31.0187 48.9519 31.0251 48.9519 31.0315 48.9583C31.2293 48.9902 31.4271 49.0221 31.6249 49.054C31.8227 49.0859 32.0205 49.1114 32.2183 49.1369C32.4161 49.1625 32.6139 49.1816 32.8181 49.2071C33.0158 49.2263 33.2136 49.2454 33.4178 49.2582C33.4433 49.2582 33.4625 49.2645 33.488 49.2645C33.5135 49.2645 33.5327 49.2709 33.5518 49.2709C33.571 49.2709 33.5965 49.2709 33.6156 49.2773C33.6348 49.2773 33.6603 49.2773 33.6794 49.2837C33.6858 49.2837 33.6858 49.2837 33.6922 49.2837C33.6986 49.2837 33.6986 49.2837 33.7049 49.2837C33.7113 49.2837 33.7113 49.2837 33.7177 49.2837C33.7241 49.2837 33.7241 49.2837 33.7305 49.2837C33.7496 49.2837 33.7688 49.2837 33.7879 49.2901C33.807 49.2901 33.8262 49.2901 33.8453 49.2965C33.8645 49.2965 33.8836 49.2965 33.9027 49.2965C33.9219 49.2965 33.941 49.2965 33.9602 49.2965C33.9666 49.2965 33.9729 49.2965 33.9793 49.2965C33.9857 49.2965 33.9921 49.2965 33.9985 49.2965C34.0048 49.2965 34.0112 49.2965 34.0176 49.2965C34.024 49.2965 34.0304 49.2965 34.0367 49.2965C34.0559 49.2965 34.0686 49.2965 34.0878 49.2965C34.1069 49.2965 34.1197 49.2965 34.1388 49.2965C34.158 49.2965 34.1707 49.2965 34.1899 49.2965C34.209 49.2965 34.2218 49.2965 34.2409 49.2965C34.2473 49.2965 34.2601 49.2965 34.2664 49.2965C34.2728 49.2965 34.2856 49.2965 34.292 49.2965C34.2983 49.2965 34.3111 49.2965 34.3175 49.2965C34.3239 49.2965 34.3366 49.2965 34.343 49.2965C34.3558 49.2965 34.3749 49.2965 34.3877 49.2965C34.4004 49.2965 34.4196 49.2965 34.4323 49.2965C34.4451 49.2965 34.4642 49.2965 34.477 49.2965C34.4898 49.2965 34.5089 49.2965 34.5217 49.2965C34.528 49.2965 34.5344 49.2965 34.5472 49.2965C34.5536 49.2965 34.5663 49.2965 34.5727 49.2965C34.5791 49.2965 34.5918 49.2965 34.5982 49.2965C34.6046 49.2965 34.6174 49.2965 34.6237 49.2965C34.6429 49.2965 34.6556 49.2965 34.6748 49.2965C34.6876 49.2965 34.7067 49.2965 34.7195 49.2965C34.7322 49.2965 34.7514 49.2965 34.7641 49.2965C34.7833 49.2965 34.796 49.2965 34.8152 49.2965C34.8215 49.2965 34.8343 49.2965 34.8407 49.2965C34.8471 49.2965 34.8598 49.2965 34.8662 49.2965C34.8726 49.2965 34.8853 49.2965 34.8917 49.2965C34.8981 49.2965 34.9109 49.2965 34.9173 49.2965C34.9364 49.2965 34.9492 49.2965 34.9683 49.2965C34.9874 49.2965 35.0002 49.2965 35.0193 49.2965C35.0385 49.2965 35.0512 49.2965 35.0704 49.2965C35.0895 49.2965 35.1023 49.2965 35.1214 49.2965C35.1278 49.2965 35.1342 49.2965 35.1406 49.2965C35.1469 49.2965 35.1533 49.2965 35.1661 49.2965C35.1725 49.2965 35.1788 49.2965 35.1916 49.2965C35.198 49.2965 35.2044 49.2965 35.2108 49.2965C35.2363 49.2965 35.2618 49.2965 35.2809 49.2965C35.3065 49.2965 35.3256 49.2965 35.3511 49.2965C35.3766 49.2965 35.4022 49.2965 35.4213 49.2965C35.4405 49.3411 35.4596 49.3411 35.4851 49.3411Z" fill="#FBFBFC"/>
<path d="M26.7117 47.8089C26.7628 47.8281 26.8074 47.8536 26.8457 47.8855C26.884 47.9174 26.9095 47.9557 26.935 47.994C26.9542 48.0322 26.9669 48.0769 26.9733 48.1216C26.9733 48.1662 26.9669 48.2109 26.9542 48.2556C26.9031 48.3959 26.7691 48.4789 26.6224 48.4789L26.5075 48.4534L26.482 48.447C26.1183 48.3194 25.761 48.179 25.4037 48.0322C25.0464 47.8855 24.6891 47.726 24.3445 47.5665C23.9936 47.4006 23.6491 47.2347 23.3045 47.0496C22.96 46.871 22.6218 46.6859 22.29 46.4882C22.2836 46.4818 22.2772 46.4818 22.2709 46.4754C22.2645 46.469 22.2581 46.469 22.2517 46.4626C22.2453 46.4562 22.239 46.4499 22.2326 46.4499C22.2262 46.4435 22.2198 46.4371 22.2134 46.4307C22.105 46.3223 22.0794 46.1436 22.1624 46.0096C22.1815 45.9841 22.2007 45.9649 22.2198 45.9458C22.2453 45.9267 22.2645 45.9075 22.2964 45.8948C22.3219 45.882 22.3538 45.8692 22.3793 45.8629C22.4112 45.8565 22.4368 45.8501 22.4687 45.8501C22.4878 45.8501 22.5006 45.8501 22.5197 45.8501C22.5388 45.8501 22.5516 45.8565 22.5707 45.8629C22.5899 45.8692 22.6026 45.8756 22.6218 45.882C22.6409 45.8884 22.6537 45.8948 22.6728 45.9075C22.9919 46.0926 23.3173 46.2776 23.6491 46.4499C23.9808 46.6221 24.3126 46.788 24.6508 46.9476C24.989 47.1071 25.3335 47.2602 25.6781 47.4006C26.0099 47.5473 26.3608 47.6877 26.7117 47.8089Z" fill="#FBFBFC"/>
<path d="M55.2643 24.7182C52.425 16.2576 44.1111 10.5215 35.4336 9.49426C35.9058 9.55168 36.3779 9.61549 36.8437 9.69844L36.9139 9.70482C37.067 9.70482 37.2201 9.60911 37.2457 9.44959C37.252 9.41131 37.252 9.37303 37.2393 9.33475C37.2329 9.29646 37.2138 9.26456 37.1946 9.23266C37.1755 9.20075 37.1436 9.17523 37.1117 9.14971C37.0798 9.12419 37.0415 9.10505 37.0032 9.09229C38.4261 9.34751 39.8362 9.71758 41.1952 10.2025C41.1633 10.1961 41.1378 10.1897 41.1059 10.1897C41.074 10.1897 41.0357 10.1961 41.0038 10.2025C40.9719 10.2089 40.94 10.2216 40.9145 10.2408C40.889 10.2599 40.8634 10.2791 40.8379 10.3046C40.8188 10.3301 40.7996 10.3556 40.7869 10.3875C40.7741 10.4258 40.7677 10.4705 40.7677 10.5088C40.7741 10.547 40.7869 10.5917 40.806 10.63C40.8251 10.6683 40.8571 10.7002 40.889 10.7321C40.9209 10.764 40.9655 10.7895 41.0102 10.8023C41.3484 10.9235 41.6865 11.0511 42.0183 11.1851C42.3501 11.3191 42.6819 11.4658 43.0073 11.6126C43.3327 11.7593 43.6581 11.9189 43.9771 12.0848C44.2962 12.2507 44.6152 12.4165 44.9278 12.5952L45.1256 12.6462C45.2341 12.6462 45.3489 12.5952 45.4128 12.5059C45.4319 12.474 45.4447 12.4421 45.451 12.4038C45.4574 12.3719 45.4574 12.3336 45.451 12.3017C45.4447 12.2698 45.4319 12.2315 45.4128 12.1996C45.3936 12.1677 45.3745 12.1358 45.3426 12.1103C46.5612 12.8058 47.7289 13.6033 48.8136 14.4966C48.7562 14.4711 48.6924 14.4519 48.6349 14.4519C48.6094 14.4519 48.5903 14.4519 48.5647 14.4583C48.5392 14.4647 48.5201 14.4647 48.5009 14.4775C48.4818 14.4838 48.4626 14.4966 48.4435 14.503C48.4244 14.5157 48.4052 14.5285 48.3925 14.5413C48.3606 14.5732 48.335 14.6114 48.3223 14.6497C48.3095 14.688 48.3031 14.7327 48.3031 14.771C48.3095 14.8092 48.3223 14.8539 48.3414 14.8922C48.3606 14.9305 48.3925 14.9688 48.4307 14.9943C49.5091 15.8876 50.5108 16.8702 51.4105 17.9421C51.4296 17.9676 51.4487 17.9868 51.4743 18.0059C51.4998 18.025 51.5253 18.0378 51.5508 18.0506C51.5763 18.0633 51.6083 18.0697 51.6338 18.0761C51.6593 18.0825 51.6912 18.0888 51.7167 18.0888L51.9145 18.0314C52.0421 17.9485 52.0804 17.789 52.0102 17.655C52.8844 18.7014 53.6692 19.8243 54.3391 21.0111C54.2626 20.9218 54.1477 20.8644 54.0329 20.8644C54.0201 20.8644 54.0073 20.8644 54.001 20.8644C53.9882 20.8644 53.9754 20.8644 53.9691 20.8708C53.9563 20.8708 53.9435 20.8771 53.9371 20.8771C53.9244 20.8771 53.9116 20.8835 53.9052 20.8899C53.8606 20.909 53.8223 20.9346 53.7904 20.9601C53.7585 20.992 53.7394 21.0239 53.7202 21.0622C53.7075 21.1005 53.7011 21.1387 53.7011 21.1834C53.7075 21.2281 53.7202 21.2663 53.7394 21.3046C53.8925 21.579 54.0392 21.8534 54.1796 22.1277C54.32 22.4085 54.4476 22.6892 54.5752 22.97C54.7028 23.2507 54.8177 23.5378 54.9325 23.8249C55.0601 24.1376 55.1686 24.4311 55.2643 24.7182C54.588 22.7084 55.1686 24.4311 55.2643 24.7182Z" fill="#72182F"/>
<path d="M55.8134 25.273C55.9665 25.2411 56.0941 25.1135 56.075 24.9476C56.477 26.2237 56.7449 27.5381 56.8789 28.8653C56.8725 28.8206 56.8598 28.7823 56.8343 28.7441C56.8151 28.7058 56.7832 28.6739 56.7513 28.642C56.7194 28.6164 56.6747 28.5909 56.6301 28.5718C56.5854 28.559 56.5408 28.5463 56.4897 28.5463C56.3111 28.5463 56.1388 28.6802 56.1579 28.8717L56.1643 28.9546C56.0431 27.6147 55.7687 26.2939 55.3604 25.0114C55.4114 25.1709 55.5837 25.273 55.7432 25.273H55.8134Z" fill="#A1010D"/>
<path d="M11.4818 24.6796C11.4435 24.6796 11.3988 24.6859 11.3669 24.6987C11.3287 24.7115 11.2968 24.7242 11.2649 24.7434C11.2329 24.7625 11.2074 24.788 11.1819 24.8136C11.1628 24.8391 11.1436 24.871 11.1309 24.9093C11.3542 23.6204 11.7179 22.357 12.2155 21.1447C12.1773 21.317 12.2985 21.4702 12.4516 21.5212L12.592 21.5531C12.7324 21.5531 12.8664 21.4765 12.9238 21.3425C13.045 21.0427 13.179 20.7492 13.3194 20.4556C13.4598 20.1621 13.6065 19.875 13.766 19.5943C13.9255 19.3071 14.085 19.0264 14.2573 18.752C14.4296 18.4777 14.6083 18.2033 14.7933 17.9353C14.9081 17.7822 14.8252 17.578 14.6721 17.4887C14.6082 17.4504 14.5317 17.4313 14.4615 17.4313C14.436 17.4313 14.4168 17.4313 14.3977 17.4377C14.3785 17.444 14.353 17.444 14.3339 17.4504C14.3147 17.4568 14.2956 17.4632 14.2765 17.4759C14.2573 17.4887 14.2382 17.4951 14.2254 17.5142C14.9783 16.4487 15.8461 15.4661 16.7968 14.5792C16.7138 14.7132 16.7585 14.8727 16.8733 14.9748C16.9499 15.0322 17.0392 15.0705 17.1413 15.0705C17.1668 15.0705 17.186 15.0705 17.2115 15.0641C17.237 15.0577 17.2562 15.0577 17.2817 15.045C17.3008 15.0386 17.3264 15.0258 17.3455 15.0194C17.3646 15.0067 17.3838 14.9939 17.3965 14.9811C17.639 14.7514 17.8878 14.5345 18.1431 14.3176C18.3983 14.1006 18.6599 13.8965 18.9279 13.6923C19.1959 13.4881 19.4702 13.2967 19.7446 13.1053C20.0253 12.9139 20.3061 12.7352 20.5932 12.5565C20.6379 12.531 20.6698 12.4991 20.6953 12.4672C20.7208 12.4289 20.7336 12.3906 20.7399 12.3524C20.7463 12.3141 20.7463 12.2694 20.7336 12.2311C20.7208 12.1929 20.7017 12.1482 20.6698 12.1163C20.5932 12.0206 20.472 11.9695 20.3571 11.9695C20.3444 11.9695 20.338 11.9695 20.3252 11.9695C20.3124 11.9695 20.3061 11.9695 20.2933 11.9695C20.2806 11.9695 20.2742 11.9759 20.2614 11.9759C20.2486 11.9759 20.2423 11.9823 20.2295 11.9823C21.3971 11.2741 22.635 10.6807 23.9111 10.2021C23.7707 10.2787 23.7197 10.451 23.7962 10.5913C23.8154 10.6232 23.8345 10.6488 23.86 10.6743C23.8856 10.6998 23.9111 10.7189 23.943 10.7381C23.9749 10.7572 24.0068 10.77 24.0387 10.7764C24.0706 10.7828 24.1089 10.7891 24.1472 10.7891L24.2811 10.77C25.5892 10.2851 26.9482 9.92138 28.32 9.67892C28.4923 9.6534 28.6391 9.4875 28.5752 9.30885C28.5625 9.27057 28.5433 9.23866 28.5242 9.20676C28.4987 9.17486 28.4732 9.14934 28.4413 9.12381C28.4094 9.09829 28.3711 9.08553 28.3328 9.07277C28.2945 9.06001 28.2562 9.05363 28.2116 9.05363C28.2052 9.05363 28.1988 9.05363 28.1924 9.05363C28.186 9.05363 28.1797 9.05363 28.1733 9.05363C28.1669 9.05363 28.1605 9.05363 28.1541 9.05363C28.1478 9.05363 28.1414 9.05363 28.135 9.05363C29.577 8.80479 31.0381 8.68356 32.4993 8.68994C32.327 8.69632 32.193 8.83031 32.2058 9.00258C32.2058 9.04725 32.2249 9.08553 32.2504 9.12381C32.276 9.1621 32.3079 9.194 32.3461 9.2259C32.3844 9.2578 32.4291 9.27695 32.4801 9.29609C32.5248 9.31523 32.5758 9.32161 32.6269 9.32161C25.2382 9.27695 17.7475 12.7224 13.9638 19.2625C12.9302 21.049 12.2092 23.0142 11.8646 25.0496C11.8774 24.8646 11.7242 24.7178 11.552 24.6796C11.5265 24.6796 11.5009 24.6796 11.4818 24.6796Z" fill="#72182F"/>
<path d="M11.2774 29.2927C11.4688 29.2927 11.6411 29.1332 11.6283 28.9418C11.6985 30.2881 11.9154 31.6216 12.2727 32.9232C12.26 32.8849 12.2408 32.8467 12.2153 32.8148C12.1898 32.7829 12.1579 32.7573 12.126 32.7318C12.0941 32.7063 12.0558 32.6871 12.0175 32.6744C11.9792 32.6616 11.9346 32.6552 11.8963 32.6552C11.8708 32.6552 11.8452 32.6552 11.8197 32.6616C11.6474 32.6871 11.5198 32.8339 11.539 33.0126C11.1817 31.6982 10.9647 30.3455 10.8945 28.9864C10.8945 29.0311 10.9137 29.0758 10.9328 29.114C10.952 29.1523 10.9839 29.1842 11.0158 29.2098C11.0477 29.2353 11.0923 29.2608 11.137 29.2736C11.1753 29.2863 11.2263 29.2927 11.2774 29.2927Z" fill="#A1010D"/>
<path d="M56.5025 33.2488C56.6428 33.2488 56.7832 33.1659 56.8215 33.0255C56.6556 34.3207 56.3493 35.5905 55.9027 36.8219C55.9282 36.656 55.807 36.5029 55.6602 36.4454C55.6475 36.4391 55.6347 36.4391 55.6219 36.4327C55.6092 36.4263 55.5964 36.4263 55.5837 36.4263C55.5709 36.4263 55.5581 36.4199 55.5454 36.4199C55.5326 36.4199 55.5198 36.4199 55.5071 36.4199C55.4688 36.4199 55.4369 36.4263 55.3986 36.4327C55.3667 36.4391 55.3348 36.4582 55.3029 36.471C55.2774 36.4901 55.2519 36.5093 55.2263 36.5348C55.2072 36.5603 55.1881 36.5922 55.1753 36.6241C55.0668 36.9304 54.9456 37.2303 54.818 37.5301C54.6904 37.83 54.5564 38.1235 54.4096 38.417C54.2629 38.7105 54.1097 38.9977 53.9502 39.2848C53.7907 39.5719 53.6184 39.8527 53.4398 40.127C53.4143 40.1653 53.4015 40.2036 53.3951 40.2482C53.3887 40.2929 53.3951 40.3376 53.4079 40.3759C53.4206 40.4205 53.4462 40.4588 53.4717 40.4971C53.5036 40.5354 53.5419 40.5673 53.5865 40.5928L53.7907 40.6502C53.88 40.6502 53.9694 40.6183 54.0332 40.5545C53.3186 41.6583 52.4827 42.6856 51.5575 43.6236C51.6341 43.4832 51.5703 43.3173 51.4554 43.2216C51.4363 43.2088 51.4172 43.1897 51.398 43.1769C51.3789 43.1642 51.3534 43.1578 51.3342 43.145C51.3087 43.1386 51.2895 43.1322 51.264 43.1259C51.2385 43.1195 51.2194 43.1195 51.1938 43.1195C51.1683 43.1195 51.1492 43.1195 51.1237 43.1259C51.0981 43.1322 51.079 43.1386 51.0535 43.145C51.0343 43.1514 51.0088 43.1642 50.9897 43.1769C50.9705 43.1897 50.9514 43.2024 50.9322 43.2216C49.9688 44.185 48.9032 45.0464 47.7611 45.7929C47.5888 45.8886 47.5761 46.1183 47.6973 46.2587C47.7164 46.2842 47.742 46.3034 47.7611 46.3225C47.7866 46.3417 47.8122 46.3544 47.8377 46.3736C47.8632 46.3927 47.8951 46.3991 47.9206 46.4055C47.9525 46.4118 47.9781 46.4182 48.01 46.4182L48.1631 46.3736C46.9827 47.1392 45.7257 47.79 44.4241 48.3132C44.5581 48.2239 44.5964 48.0453 44.5262 47.8985C44.456 47.7645 44.3092 47.688 44.1625 47.688C44.1497 47.688 44.137 47.688 44.1242 47.688C44.1114 47.688 44.0987 47.688 44.0859 47.6943C44.0732 47.6943 44.0604 47.7007 44.0476 47.7007C44.0349 47.7071 44.0221 47.7071 44.0094 47.7135C43.6776 47.8475 43.3458 47.9687 43.0076 48.0835C42.6694 48.1984 42.3249 48.3069 41.9803 48.409C41.6358 48.511 41.2849 48.6004 40.9339 48.6833C40.583 48.7663 40.2257 48.8428 39.8684 48.913C39.6834 48.9449 39.543 49.1236 39.6068 49.315C39.6578 49.5 39.8429 49.5894 40.0215 49.5894C38.5412 49.8701 37.0354 50.0105 35.536 50.0169C35.721 50.0169 35.8869 49.8701 35.8742 49.6723C35.8742 49.6276 35.855 49.583 35.8359 49.5383C35.8104 49.5 35.7848 49.4617 35.7466 49.4298C35.7083 49.3979 35.6636 49.3724 35.6189 49.3597C35.5679 49.3405 35.5169 49.3341 35.4658 49.3341C42.9183 49.2959 50.4218 45.7036 54.0778 39.0104C55.1179 37.109 55.8006 35.0162 56.075 32.866C56.0686 33.051 56.2281 33.2105 56.4067 33.236L56.5025 33.2488Z" fill="#72182F"/>
<path d="M12.7764 34.4935C15.8645 42.8457 24.2805 48.3967 32.9771 49.2262C32.3391 49.1624 31.6947 49.0794 31.063 48.971C31.0566 48.971 31.0502 48.971 31.0438 48.9646C31.0375 48.9646 31.0311 48.9646 31.0247 48.9646C31.0183 48.9646 31.0119 48.9646 31.0056 48.9646C30.9992 48.9646 30.9928 48.9646 30.9864 48.9646C30.9418 48.9646 30.8971 48.971 30.8588 48.9837C30.8205 48.9965 30.7822 49.0156 30.7567 49.0412C30.7248 49.0667 30.6993 49.0922 30.6802 49.1305C30.661 49.1624 30.6483 49.2007 30.6419 49.2453C30.61 49.4176 30.7376 49.5771 30.8971 49.6345C29.404 49.3729 27.9301 48.9773 26.5073 48.4605L26.6221 48.486C26.7689 48.486 26.9029 48.4031 26.9539 48.2627C26.9731 48.2181 26.9794 48.1734 26.9731 48.1287C26.9731 48.0841 26.9603 48.0394 26.9348 48.0011C26.9156 47.9628 26.8837 47.9246 26.8455 47.8927C26.8072 47.8608 26.7625 47.8352 26.7115 47.8161C26.3605 47.6885 26.0096 47.5545 25.6651 47.4141C25.3205 47.2737 24.976 47.1206 24.6378 46.9611C24.2996 46.8016 23.9615 46.6357 23.636 46.4634C23.3043 46.2911 22.9788 46.1061 22.6598 45.9211C22.6471 45.9083 22.6279 45.9019 22.6088 45.8956C22.5896 45.8892 22.5769 45.8828 22.5577 45.8764C22.5386 45.87 22.5258 45.87 22.5067 45.8636C22.4875 45.8636 22.4748 45.8636 22.4556 45.8636C22.4237 45.8636 22.3982 45.87 22.3663 45.8764C22.3344 45.8828 22.3089 45.8955 22.2834 45.9083C22.2578 45.9211 22.2323 45.9402 22.2068 45.9594C22.1813 45.9785 22.1621 45.9976 22.1494 46.0232C22.06 46.1572 22.0856 46.3294 22.2004 46.4443C20.9435 45.7041 19.7503 44.8555 18.6401 43.9112C18.6975 43.9431 18.7677 43.9559 18.8315 43.9559C18.857 43.9559 18.8825 43.9559 18.9017 43.9495C18.9272 43.9431 18.9463 43.9367 18.9719 43.9303C18.9974 43.924 19.0165 43.9112 19.0357 43.8984C19.0548 43.8857 19.074 43.8729 19.0931 43.8538C19.2335 43.7134 19.2079 43.4965 19.0676 43.3689C17.9701 42.4309 16.9556 41.3909 16.056 40.2615C16.0368 40.236 16.0177 40.2169 15.9922 40.1977C15.9666 40.1786 15.9411 40.1658 15.9156 40.1531C15.8901 40.1403 15.8582 40.1339 15.8326 40.1275C15.8007 40.1212 15.7752 40.1212 15.7433 40.1212C15.7242 40.1212 15.705 40.1212 15.6859 40.1275C15.6668 40.1275 15.6476 40.1339 15.6348 40.1403C15.6157 40.1467 15.5966 40.1531 15.5838 40.1594C15.5647 40.1658 15.5519 40.1722 15.5328 40.185C15.3988 40.2743 15.3477 40.4402 15.4179 40.5869C14.5438 39.4895 13.7781 38.3091 13.1273 37.0649C13.2039 37.1606 13.3251 37.2244 13.4527 37.2244L13.5931 37.1989C13.7717 37.1351 13.8674 36.9309 13.7717 36.7586C13.676 36.5736 13.5867 36.3949 13.4974 36.2099C13.408 36.0249 13.3251 35.8398 13.2421 35.6548C13.1592 35.4698 13.0826 35.2783 13.0061 35.0933C12.9167 34.8764 12.8466 34.6849 12.7764 34.4935C13.4974 36.4524 12.8466 34.6849 12.7764 34.4935Z" fill="#72182F"/>
<path d="M28.8242 0.133371C29.5388 0.0759466 30.2535 0.0376634 30.9681 0.0249023C30.2535 0.0376634 29.5388 0.0759466 28.8242 0.133371Z" fill="url(#paint0_linear)"/>
<path d="M37.2585 0.445708C35.8356 0.22877 34.3936 0.0883978 32.958 0.0373535C34.4 0.0947784 35.8356 0.23515 37.2585 0.445708Z" fill="url(#paint1_linear)"/>
<path d="M37.2588 0.446167C37.2779 0.446167 37.2971 0.452548 37.3162 0.452548C37.2971 0.452548 37.2779 0.452548 37.2588 0.446167Z" fill="url(#paint2_linear)"/>
<path d="M65.9074 24.1052C65.9138 24.118 65.9138 24.1307 65.9202 24.1435C65.9138 24.1307 65.9138 24.118 65.9074 24.1052C65.4416 24.1499 65.9712 24.3541 65.9074 24.1052Z" fill="url(#paint3_linear)"/>
<path d="M0.838867 24.3288C0.851628 24.2139 0.870771 24.1055 0.889913 23.9906H0.883531C0.864389 24.0991 0.851628 24.2139 0.838867 24.3288Z" fill="url(#paint4_linear)"/>
<defs>
<linearGradient id="paint0_linear" x1="29.8964" y1="0.025349" x2="29.8964" y2="0.132542" gradientUnits="userSpaceOnUse">
<stop stop-color="white"/>
<stop offset="1"/>
</linearGradient>
<linearGradient id="paint1_linear" x1="35.1081" y1="0.0415647" x2="35.1081" y2="0.447175" gradientUnits="userSpaceOnUse">
<stop stop-color="white"/>
<stop offset="1"/>
</linearGradient>
<linearGradient id="paint2_linear" x1="37.2894" y1="0.447635" x2="37.2894" y2="0.456376" gradientUnits="userSpaceOnUse">
<stop stop-color="white"/>
<stop offset="1"/>
</linearGradient>
<linearGradient id="paint3_linear" x1="65.8176" y1="24.1039" x2="65.8176" y2="24.2265" gradientUnits="userSpaceOnUse">
<stop stop-color="white"/>
<stop offset="1"/>
</linearGradient>
<linearGradient id="paint4_linear" x1="0.864198" y1="23.9855" x2="0.864198" y2="24.3257" gradientUnits="userSpaceOnUse">
<stop stop-color="white"/>
<stop offset="1"/>
</linearGradient>
</defs>
</svg>
