<svg width="39" height="39" viewBox="0 0 39 39" fill="none" xmlns="http://www.w3.org/2000/svg">
<g clip-path="url(#clip0)">
<path d="M38.2009 19.1005C38.2009 8.55156 29.6494 0 19.1005 0C8.55156 0 0 8.55156 0 19.1005C0 28.6339 6.98472 36.536 16.116 37.9689V24.6217H11.2663V19.1005H16.116V14.8924C16.116 10.1053 18.9676 7.46112 23.3305 7.46112C25.4196 7.46112 27.6061 7.83417 27.6061 7.83417V12.5347H25.1977C22.825 12.5347 22.0849 14.0071 22.0849 15.5191V19.1005H27.3823L26.5355 24.6217H22.0849V37.9689C31.2162 36.536 38.2009 28.6339 38.2009 19.1005Z" fill="white"/>
</g>
<defs>
<clipPath id="clip0">
<rect width="38.2009" height="38.2009" fill="white"/>
</clipPath>
</defs>
</svg>
