<svg width="39" height="39" viewBox="0 0 39 39" fill="none" xmlns="http://www.w3.org/2000/svg">
<g clip-path="url(#clip0)">
<path d="M19.7489 3.43957C24.8523 3.43957 25.4567 3.46196 27.4637 3.55149C29.329 3.63356 30.3362 3.94693 31.0077 4.20807C31.8956 4.55128 32.5373 4.9691 33.2013 5.63314C33.8728 6.30464 34.2832 6.93884 34.6264 7.82671C34.8875 8.49821 35.2009 9.51292 35.2829 11.3707C35.3725 13.3852 35.3949 13.9896 35.3949 19.0855C35.3949 24.1889 35.3725 24.7933 35.2829 26.8003C35.2009 28.6656 34.8875 29.6729 34.6264 30.3444C34.2832 31.2322 33.8653 31.8739 33.2013 32.5379C32.5298 33.2094 31.8956 33.6198 31.0077 33.963C30.3362 34.2241 29.3215 34.5375 27.4637 34.6196C25.4492 34.7091 24.8448 34.7315 19.7489 34.7315C14.6455 34.7315 14.0411 34.7091 12.0341 34.6196C10.1688 34.5375 9.16157 34.2241 8.49007 33.963C7.6022 33.6198 6.96054 33.202 6.2965 32.5379C5.625 31.8664 5.21464 31.2322 4.87143 30.3444C4.61029 29.6729 4.29692 28.6581 4.21485 26.8003C4.12532 24.7858 4.10293 24.1815 4.10293 19.0855C4.10293 13.9821 4.12532 13.3778 4.21485 11.3707C4.29692 9.50546 4.61029 8.49821 4.87143 7.82671C5.21464 6.93884 5.63246 6.29718 6.2965 5.63314C6.968 4.96164 7.6022 4.55128 8.49007 4.20807C9.16157 3.94693 10.1763 3.63356 12.0341 3.55149C14.0411 3.46196 14.6455 3.43957 19.7489 3.43957ZM19.7489 0C14.5634 0 13.9143 0.0223833 11.8774 0.111917C9.84799 0.20145 8.45277 0.529739 7.24406 0.999789C5.98314 1.49222 4.9162 2.14134 3.85672 3.20828C2.78978 4.26776 2.14066 5.3347 1.64823 6.58817C1.17818 7.80433 0.849888 9.19209 0.760354 11.2215C0.670821 13.2659 0.648438 13.915 0.648438 19.1005C0.648438 24.2859 0.670821 24.935 0.760354 26.9719C0.849888 29.0014 1.17818 30.3966 1.64823 31.6053C2.14066 32.8662 2.78978 33.9332 3.85672 34.9926C4.9162 36.0521 5.98314 36.7087 7.2366 37.1937C8.45277 37.6637 9.84053 37.992 11.87 38.0815C13.9068 38.1711 14.556 38.1935 19.7414 38.1935C24.9269 38.1935 25.576 38.1711 27.6129 38.0815C29.6423 37.992 31.0376 37.6637 32.2463 37.1937C33.4997 36.7087 34.5667 36.0521 35.6262 34.9926C36.6856 33.9332 37.3422 32.8662 37.8272 31.6128C38.2972 30.3966 38.6255 29.0088 38.7151 26.9794C38.8046 24.9425 38.827 24.2934 38.827 19.1079C38.827 13.9224 38.8046 13.2733 38.7151 11.2364C38.6255 9.20702 38.2972 7.81179 37.8272 6.60309C37.3571 5.3347 36.708 4.26776 35.6411 3.20828C34.5816 2.1488 33.5147 1.49222 32.2612 1.00725C31.045 0.5372 29.6573 0.208911 27.6278 0.119378C25.5835 0.0223834 24.9344 0 19.7489 0Z" />
<path d="M19.7489 9.28909C14.3321 9.28909 9.9375 13.6837 9.9375 19.1005C9.9375 24.5172 14.3321 28.9118 19.7489 28.9118C25.1656 28.9118 29.5602 24.5172 29.5602 19.1005C29.5602 13.6837 25.1656 9.28909 19.7489 9.28909ZM19.7489 25.4648C16.2347 25.4648 13.3845 22.6146 13.3845 19.1005C13.3845 15.5863 16.2347 12.7361 19.7489 12.7361C23.2631 12.7361 26.1132 15.5863 26.1132 19.1005C26.1132 22.6146 23.2631 25.4648 19.7489 25.4648Z" />
<path d="M32.2384 8.90093C32.2384 10.1693 31.2087 11.1915 29.9478 11.1915C28.6794 11.1915 27.6572 10.1619 27.6572 8.90093C27.6572 7.63254 28.6869 6.61037 29.9478 6.61037C31.2087 6.61037 32.2384 7.64 32.2384 8.90093Z" />
</g>
<defs>
<clipPath id="clip0">
<rect width="38.2009" height="38.2009"  transform="translate(0.648438)"/>
</clipPath>
</defs>
</svg>
