<svg width="219" height="73" viewBox="0 0 219 73" fill="none" xmlns="http://www.w3.org/2000/svg">
<path d="M117.349 71.4909C115.803 71.4909 114.372 71.1447 113.056 70.4523C111.764 69.7368 110.725 68.7212 109.94 67.4057C109.179 66.067 108.798 64.4629 108.798 62.5934C108.798 61.3933 109.017 60.2277 109.456 59.0968C109.894 57.9659 110.506 56.9503 111.291 56.0502C112.098 55.127 113.056 54.4 114.164 53.8691C115.272 53.3383 116.495 53.0728 117.834 53.0728C119.126 53.0728 120.246 53.269 121.192 53.6614C122.161 54.0538 122.911 54.5731 123.442 55.2193C123.973 55.8656 124.239 56.5695 124.239 57.3311C124.239 57.8389 124.1 58.2774 123.823 58.6467C123.546 58.9929 123.142 59.166 122.611 59.166C122.034 59.1891 121.619 59.016 121.365 58.6467C121.134 58.2544 121.019 57.9082 121.019 57.6081C121.019 57.3773 121.054 57.1465 121.123 56.9157C121.192 56.6618 121.33 56.431 121.538 56.2233C121.354 55.6694 121.03 55.2655 120.569 55.0116C120.107 54.7346 119.623 54.5615 119.115 54.4923C118.63 54.4 118.226 54.3538 117.903 54.3538C116.334 54.3538 115.007 54.9885 113.922 56.2579C112.86 57.5042 112.329 59.3276 112.329 61.7279C112.329 63.2743 112.572 64.6476 113.056 65.8477C113.564 67.0479 114.268 67.9942 115.168 68.6866C116.068 69.3559 117.107 69.6906 118.284 69.6906C119.369 69.6906 120.407 69.4021 121.4 68.8251C122.392 68.2481 123.165 67.5441 123.719 66.7133L124.619 67.4057C124.019 68.375 123.292 69.1598 122.438 69.7598C121.607 70.3599 120.742 70.7985 119.842 71.0754C118.965 71.3524 118.134 71.4909 117.349 71.4909ZM137.785 70.9369C137.715 70.5446 137.669 70.1984 137.646 69.8983C137.623 69.5983 137.588 69.2867 137.542 68.9636C136.758 69.7483 135.904 70.3715 134.98 70.8331C134.08 71.2716 133.122 71.4909 132.107 71.4909C130.353 71.4909 129.049 71.0985 128.195 70.3138C127.341 69.506 126.914 68.5251 126.914 67.371C126.914 66.3094 127.237 65.3977 127.883 64.636C128.553 63.8513 129.406 63.2166 130.445 62.7319C131.507 62.2242 132.649 61.8549 133.873 61.6241C135.119 61.3702 136.319 61.2548 137.473 61.2779V59.1314C137.473 58.3236 137.404 57.5619 137.265 56.8465C137.127 56.131 136.827 55.5424 136.365 55.0808C135.904 54.6192 135.165 54.3769 134.149 54.3538C133.48 54.3307 132.788 54.4577 132.072 54.7346C131.38 55.0116 130.872 55.4847 130.549 56.1541C130.734 56.3387 130.849 56.558 130.895 56.8118C130.964 57.0426 130.999 57.2619 130.999 57.4696C130.999 57.7466 130.884 58.0697 130.653 58.439C130.422 58.7852 130.018 58.9468 129.441 58.9237C128.956 58.9237 128.587 58.7621 128.333 58.439C128.079 58.0928 127.952 57.6889 127.952 57.2273C127.952 56.4426 128.241 55.7386 128.818 55.1154C129.418 54.4923 130.237 53.9961 131.276 53.6268C132.315 53.2575 133.492 53.0728 134.807 53.0728C136.746 53.0728 138.177 53.5921 139.1 54.6308C140.023 55.6463 140.473 57.2619 140.45 59.4776C140.45 60.7701 140.439 62.0741 140.416 63.3897C140.416 64.6822 140.416 65.9747 140.416 67.2672C140.416 67.6365 140.404 68.0057 140.381 68.375C140.358 68.7443 140.323 69.1598 140.277 69.6214C140.693 69.5983 141.097 69.5752 141.489 69.5521C141.904 69.529 142.32 69.506 142.735 69.4829V70.9369H137.785ZM137.473 62.455C136.688 62.478 135.857 62.5819 134.98 62.7665C134.126 62.9281 133.33 63.182 132.592 63.5282C131.876 63.8744 131.288 64.336 130.826 64.913C130.387 65.4669 130.18 66.1478 130.203 66.9556C130.249 67.8096 130.526 68.4558 131.034 68.8943C131.564 69.3098 132.188 69.5175 132.903 69.5175C133.849 69.5175 134.669 69.3444 135.361 68.9982C136.077 68.6289 136.781 68.1211 137.473 67.4749C137.45 67.221 137.438 66.9441 137.438 66.644C137.438 66.344 137.438 66.0324 137.438 65.7093C137.438 65.5939 137.438 65.2246 137.438 64.6014C137.461 63.9782 137.473 63.2628 137.473 62.455ZM152.208 71.4909C151.054 71.4909 150.027 71.3293 149.127 71.0062C148.227 70.7061 147.488 70.3599 146.911 69.9676L147.05 71.1793H145.596L145.388 65.2246H146.461C146.507 66.1709 146.773 67.0248 147.258 67.7865C147.742 68.5251 148.365 69.1021 149.127 69.5175C149.889 69.9329 150.708 70.1407 151.585 70.1407C152.185 70.1407 152.774 70.0483 153.351 69.8637C153.928 69.656 154.412 69.3559 154.805 68.9636C155.197 68.5481 155.393 68.0288 155.393 67.4057C155.393 66.7594 155.197 66.2286 154.805 65.8131C154.436 65.3746 153.939 64.9938 153.316 64.6707C152.693 64.3475 152.024 64.0475 151.308 63.7705C150.385 63.4012 149.462 63.0089 148.539 62.5934C147.638 62.1549 146.888 61.5894 146.288 60.897C145.688 60.1816 145.388 59.2468 145.388 58.0928C145.388 57.6081 145.48 57.0773 145.665 56.5003C145.85 55.9233 146.161 55.3809 146.6 54.8731C147.038 54.3423 147.638 53.9153 148.4 53.5921C149.162 53.2459 150.131 53.0728 151.308 53.0728C151.931 53.0728 152.624 53.1767 153.385 53.3844C154.147 53.5921 154.886 53.9845 155.601 54.5615L155.532 53.2459H156.986V59.3045H155.878C155.832 58.4967 155.647 57.7235 155.324 56.9849C155.001 56.2233 154.528 55.6001 153.905 55.1154C153.282 54.6077 152.474 54.3538 151.481 54.3538C150.42 54.3538 149.589 54.6192 148.989 55.1501C148.389 55.6809 148.088 56.2925 148.088 56.9849C148.088 57.7004 148.308 58.3005 148.746 58.7852C149.208 59.2468 149.796 59.6507 150.512 59.9969C151.227 60.3431 151.989 60.6778 152.797 61.0009C153.674 61.3702 154.528 61.7741 155.359 62.2126C156.19 62.6511 156.871 63.2051 157.401 63.8744C157.932 64.5206 158.198 65.3631 158.198 66.4017C158.198 67.5557 157.898 68.5135 157.298 69.2752C156.72 70.0368 155.97 70.5907 155.047 70.9369C154.147 71.3062 153.201 71.4909 152.208 71.4909ZM161.137 69.8983C161.852 69.8983 162.348 69.7252 162.625 69.379C162.902 69.0097 163.064 68.5135 163.11 67.8903C163.156 67.2441 163.179 66.5055 163.179 65.6746V57.7812C163.179 57.4119 163.191 57.0657 163.214 56.7426C163.237 56.3964 163.271 55.9925 163.318 55.5309C162.902 55.554 162.487 55.577 162.071 55.6001C161.679 55.6232 161.275 55.6463 160.86 55.6694V54.2153C161.875 54.2153 162.66 54.1692 163.214 54.0768C163.768 53.9845 164.183 53.8691 164.46 53.7306C164.76 53.5921 164.991 53.4421 165.153 53.2806H166.157V67.2672C166.157 67.7288 166.145 68.1442 166.122 68.5135C166.122 68.8597 166.087 69.229 166.018 69.6214C166.387 69.5983 166.745 69.5867 167.091 69.5867C167.461 69.5637 167.83 69.5406 168.199 69.5175V70.9369H161.137V69.8983ZM164.495 49.8532C164.01 49.8532 163.583 49.657 163.214 49.2646C162.845 48.8722 162.66 48.3876 162.66 47.8106C162.66 47.2335 162.845 46.7489 163.214 46.3565C163.606 45.9411 164.045 45.7333 164.529 45.7333C165.06 45.7333 165.499 45.9411 165.845 46.3565C166.214 46.7489 166.399 47.2335 166.399 47.8106C166.399 48.3876 166.203 48.8722 165.81 49.2646C165.441 49.657 165.003 49.8532 164.495 49.8532ZM170.874 70.9369V69.8983C171.589 69.8983 172.085 69.7252 172.362 69.379C172.639 69.0097 172.801 68.5135 172.847 67.8903C172.893 67.2441 172.916 66.5055 172.916 65.6746L172.951 57.7812C172.951 57.4119 172.951 57.0426 172.951 56.6734C172.974 56.3041 173.02 55.9233 173.089 55.5309C172.674 55.554 172.258 55.577 171.843 55.6001C171.451 55.6232 171.047 55.6463 170.631 55.6694V54.2153C171.647 54.2153 172.408 54.1692 172.916 54.0768C173.447 53.9845 173.839 53.8691 174.093 53.7306C174.347 53.5921 174.555 53.4421 174.716 53.2806H175.72C175.767 53.5344 175.79 53.8345 175.79 54.1807C175.813 54.5038 175.836 54.9077 175.859 55.3924C176.597 54.7231 177.474 54.1692 178.49 53.7306C179.506 53.2921 180.51 53.0728 181.502 53.0728C183.51 53.0728 184.976 53.7075 185.899 54.977C186.822 56.2233 187.284 58.1736 187.284 60.8278V67.2672C187.284 67.7288 187.272 68.1442 187.249 68.5135C187.249 68.8597 187.214 69.229 187.145 69.6214C187.514 69.5983 187.872 69.5867 188.218 69.5867C188.588 69.5637 188.957 69.5406 189.326 69.5175V70.9369H182.264V69.8983C182.979 69.8983 183.475 69.7252 183.752 69.379C184.029 69.0097 184.191 68.5135 184.237 67.8903C184.283 67.2441 184.306 66.5055 184.306 65.6746V60.8278C184.283 58.8429 183.948 57.3427 183.302 56.3272C182.679 55.3116 181.687 54.8154 180.325 54.8385C179.494 54.8616 178.675 55.0808 177.867 55.4963C177.082 55.9117 176.424 56.4426 175.893 57.0888C175.917 57.2734 175.928 57.4812 175.928 57.712C175.928 57.9428 175.928 58.1851 175.928 58.439L175.893 67.2672C175.893 67.7288 175.882 68.1442 175.859 68.5135C175.859 68.8597 175.824 69.229 175.755 69.6214C176.124 69.5983 176.482 69.5867 176.828 69.5867C177.198 69.5637 177.567 69.5406 177.936 69.5175V70.9369H170.874ZM200.489 71.4909C198.873 71.4909 197.407 71.1216 196.092 70.383C194.776 69.6214 193.726 68.5828 192.941 67.2672C192.18 65.9285 191.799 64.4052 191.799 62.6973C191.799 60.874 192.18 59.2353 192.941 57.7812C193.703 56.3272 194.742 55.1847 196.057 54.3538C197.373 53.4998 198.85 53.0728 200.489 53.0728C202.104 53.0728 203.57 53.4652 204.885 54.2499C206.201 55.0116 207.251 56.0502 208.036 57.3658C208.82 58.6813 209.213 60.1816 209.213 61.8664C209.213 63.6436 208.82 65.2707 208.036 66.7479C207.274 68.2019 206.236 69.3559 204.92 70.2099C203.604 71.0639 202.127 71.4909 200.489 71.4909ZM200.765 70.106C201.989 70.106 202.958 69.7598 203.674 69.0674C204.389 68.375 204.897 67.4749 205.197 66.3671C205.52 65.2592 205.682 64.0936 205.682 62.8704C205.682 61.8318 205.578 60.8163 205.37 59.8238C205.185 58.8083 204.885 57.8966 204.47 57.0888C204.054 56.2579 203.512 55.6001 202.843 55.1154C202.196 54.6308 201.412 54.3884 200.489 54.3884C199.288 54.3884 198.307 54.7346 197.546 55.427C196.784 56.1194 196.219 57.0196 195.849 58.1274C195.503 59.2353 195.33 60.4239 195.33 61.6933C195.33 63.1243 195.526 64.486 195.919 65.7785C196.311 67.0479 196.911 68.0865 197.719 68.8943C198.527 69.7021 199.542 70.106 200.765 70.106Z" fill="#A2000C"/>
<path d="M111.918 15.2794C111.918 11.6415 112.573 8.77379 113.884 6.67626C115.228 4.57873 117.522 3.52997 120.767 3.52997C121.488 3.52997 122.242 3.66106 123.028 3.92325C123.848 4.15267 124.552 4.54596 125.142 5.10311C125.732 5.6275 126.027 6.31575 126.027 7.16787C126.027 7.79057 125.847 8.31496 125.486 8.74102C125.159 9.16708 124.667 9.38011 124.011 9.38011C123.225 9.41288 122.668 9.18347 122.34 8.69186C122.045 8.16748 121.897 7.72503 121.897 7.36451C121.897 7.16787 121.914 6.97123 121.947 6.77459C121.979 6.57794 122.045 6.36491 122.143 6.13549C121.914 5.84053 121.586 5.6275 121.16 5.4964C120.767 5.36531 120.39 5.29976 120.029 5.29976C119.013 5.29976 118.227 5.59472 117.67 6.18465C117.113 6.77459 116.719 7.512 116.49 8.39689C116.26 9.28179 116.146 10.1995 116.146 11.1499V16.3118H122.782V18.2291L116.146 18.3765L116.195 35.6812C116.195 36.3367 116.178 36.9266 116.146 37.451C116.146 37.9426 116.097 38.467 115.998 39.0241C116.523 38.9913 117.031 38.975 117.522 38.975C118.047 38.9422 118.571 38.9094 119.095 38.8766V40.8922H109.067V39.4174C110.083 39.4174 110.787 39.1716 111.18 38.68C111.574 38.1556 111.803 37.451 111.869 36.5661C111.934 35.6484 111.967 34.5996 111.967 33.4198L111.918 18.4257L107.887 18.524V16.3118H111.918V15.2794ZM137.384 41.6788C135.089 41.6788 133.008 41.1544 131.14 40.1057C129.272 39.0241 127.781 37.5493 126.666 35.6812C125.585 33.7803 125.044 31.6172 125.044 29.1919C125.044 26.6028 125.585 24.2759 126.666 22.2111C127.748 20.1463 129.223 18.524 131.091 17.3442C132.959 16.1315 135.057 15.5252 137.384 15.5252C139.678 15.5252 141.759 16.0824 143.627 17.1967C145.495 18.2782 146.986 19.7531 148.101 21.6212C149.215 23.4893 149.772 25.6196 149.772 28.0121C149.772 30.5357 149.215 32.8462 148.101 34.9438C147.019 37.0085 145.544 38.6472 143.676 39.8598C141.808 41.0725 139.711 41.6788 137.384 41.6788ZM137.777 39.7124C139.514 39.7124 140.89 39.2208 141.906 38.2375C142.922 37.2543 143.643 35.9761 144.069 34.403C144.528 32.8298 144.758 31.1748 144.758 29.4377C144.758 27.9629 144.61 26.5209 144.315 25.1116C144.053 23.6695 143.627 22.375 143.037 21.2279C142.447 20.048 141.677 19.114 140.726 18.4257C139.809 17.7375 138.695 17.3933 137.384 17.3933C135.679 17.3933 134.286 17.8849 133.205 18.8682C132.123 19.8514 131.32 21.1296 130.796 22.7027C130.304 24.2759 130.059 25.9637 130.059 27.7663C130.059 29.7983 130.337 31.7319 130.894 33.5673C131.451 35.3698 132.304 36.8446 133.451 37.9917C134.598 39.1388 136.04 39.7124 137.777 39.7124ZM166.141 41.6788C163.847 41.6788 161.765 41.1544 159.897 40.1057C158.029 39.0241 156.538 37.5493 155.424 35.6812C154.342 33.7803 153.801 31.6172 153.801 29.1919C153.801 26.6028 154.342 24.2759 155.424 22.2111C156.505 20.1463 157.98 18.524 159.848 17.3442C161.716 16.1315 163.814 15.5252 166.141 15.5252C168.435 15.5252 170.516 16.0824 172.384 17.1967C174.252 18.2782 175.743 19.7531 176.858 21.6212C177.972 23.4893 178.529 25.6196 178.529 28.0121C178.529 30.5357 177.972 32.8462 176.858 34.9438C175.776 37.0085 174.301 38.6472 172.433 39.8598C170.565 41.0725 168.468 41.6788 166.141 41.6788ZM166.534 39.7124C168.271 39.7124 169.648 39.2208 170.664 38.2375C171.68 37.2543 172.401 35.9761 172.827 34.403C173.285 32.8298 173.515 31.1748 173.515 29.4377C173.515 27.9629 173.367 26.5209 173.072 25.1116C172.81 23.6695 172.384 22.375 171.794 21.2279C171.204 20.048 170.434 19.114 169.484 18.4257C168.566 17.7375 167.452 17.3933 166.141 17.3933C164.436 17.3933 163.044 17.8849 161.962 18.8682C160.881 19.8514 160.078 21.1296 159.553 22.7027C159.062 24.2759 158.816 25.9637 158.816 27.7663C158.816 29.7983 159.094 31.7319 159.652 33.5673C160.209 35.3698 161.061 36.8446 162.208 37.9917C163.355 39.1388 164.797 39.7124 166.534 39.7124ZM193.226 41.6788C191.227 41.6788 189.425 41.1872 187.819 40.204C186.213 39.188 184.935 37.7459 183.984 35.8778C183.067 34.0097 182.608 31.8139 182.608 29.2903C182.608 26.6028 183.148 24.2267 184.23 22.1619C185.312 20.0972 186.803 18.4749 188.704 17.295C190.637 16.1151 192.817 15.5252 195.242 15.5252C196.324 15.5252 197.389 15.6727 198.438 15.9677C199.519 16.2299 200.371 16.5412 200.994 16.9017V10.1667C200.994 9.6423 200.994 9.15069 200.994 8.69186C201.027 8.20025 201.076 7.62671 201.141 6.97123C200.551 7.004 199.961 7.03678 199.372 7.06955C198.814 7.10232 198.241 7.1351 197.651 7.16787V5.10311C199.093 5.10311 200.207 5.03757 200.994 4.90647C201.78 4.77537 202.37 4.61151 202.764 4.41486C203.19 4.21822 203.517 4.00519 203.747 3.77577H205.173V35.6812C205.173 36.2056 205.156 36.7299 205.123 37.2543C205.091 37.7787 205.041 38.3686 204.976 39.0241C205.566 38.9913 206.139 38.9586 206.697 38.9258C207.286 38.893 207.876 38.8602 208.466 38.8275V40.8922H201.436C201.272 40.0073 201.158 39.1552 201.092 38.3359C200.175 39.3519 199.044 40.1712 197.7 40.7939C196.356 41.3838 194.865 41.6788 193.226 41.6788ZM194.996 39.2699C196.078 39.2699 197.159 38.9586 198.241 38.3359C199.355 37.7132 200.273 36.943 200.994 36.0253C200.961 35.632 200.945 35.2223 200.945 34.7963C200.945 34.3374 200.945 33.8458 200.945 33.3215L200.994 19.1631C200.207 18.5732 199.339 18.1471 198.388 17.8849C197.471 17.59 196.52 17.4425 195.537 17.4425C193.898 17.4425 192.473 17.9177 191.26 18.8682C190.047 19.8186 189.13 21.1459 188.507 22.8502C187.884 24.5544 187.606 26.5536 187.671 28.8478C187.737 30.847 188.048 32.6332 188.605 34.2063C189.195 35.7795 190.015 37.0249 191.063 37.9426C192.145 38.8275 193.456 39.2699 194.996 39.2699Z" fill="#A2000C"/>
<mask id="path-3-inside-1" fill="white">
<path fill-rule="evenodd" clip-rule="evenodd" d="M0 40.812L32.0221 22.324L50.5101 54.3461L26.5002 68.2082C26.4036 67.8011 26.2459 67.3986 26.0242 67.0145C24.8743 65.0229 22.4353 64.2784 20.5765 65.3516C19.8267 65.7844 19.2859 66.4469 18.9829 67.2141C18.5667 67.1034 18.1369 67.0606 17.7106 67.0907C17.6489 66.4993 17.4623 65.9049 17.1413 65.3489C16.2377 63.7839 14.538 62.9889 12.9494 63.241L0 40.812ZM28.4767 45.7191C29.6265 47.7107 29.0518 50.1952 27.193 51.2684C25.3341 52.3416 22.8951 51.5971 21.7453 49.6055C20.5954 47.6139 21.1702 45.1294 23.029 44.0562C24.8878 42.983 27.3268 43.7276 28.4767 45.7191Z"/>
</mask>
<path fill-rule="evenodd" clip-rule="evenodd" d="M0 40.812L32.0221 22.324L50.5101 54.3461L26.5002 68.2082C26.4036 67.8011 26.2459 67.3986 26.0242 67.0145C24.8743 65.0229 22.4353 64.2784 20.5765 65.3516C19.8267 65.7844 19.2859 66.4469 18.9829 67.2141C18.5667 67.1034 18.1369 67.0606 17.7106 67.0907C17.6489 66.4993 17.4623 65.9049 17.1413 65.3489C16.2377 63.7839 14.538 62.9889 12.9494 63.241L0 40.812ZM28.4767 45.7191C29.6265 47.7107 29.0518 50.1952 27.193 51.2684C25.3341 52.3416 22.8951 51.5971 21.7453 49.6055C20.5954 47.6139 21.1702 45.1294 23.029 44.0562C24.8878 42.983 27.3268 43.7276 28.4767 45.7191Z" fill="#A2000C"/>
<path d="M32.0221 22.324L33.9988 21.1828L32.8575 19.2061L30.8809 20.3473L32.0221 22.324ZM0 40.812L-1.14123 38.8353L-3.11791 39.9765L-1.97667 41.9532L0 40.812ZM50.5101 54.3461L51.6513 56.3228L53.628 55.1816L52.4867 53.2049L50.5101 54.3461ZM26.5002 68.2082L24.2794 68.7353L24.9871 71.7174L27.6414 70.1849L26.5002 68.2082ZM18.9829 67.2141L18.3965 69.4199L20.3595 69.9418L21.1057 68.0526L18.9829 67.2141ZM17.7106 67.0907L15.4405 67.3278L15.6698 69.5235L17.8719 69.3675L17.7106 67.0907ZM12.9494 63.241L10.9727 64.3822L11.7573 65.7412L13.3071 65.4952L12.9494 63.241ZM30.8809 20.3473L-1.14123 38.8353L1.14123 42.7887L33.1633 24.3007L30.8809 20.3473ZM52.4867 53.2049L33.9988 21.1828L30.0454 23.4653L48.5334 55.4874L52.4867 53.2049ZM27.6414 70.1849L51.6513 56.3228L49.3688 52.3694L25.359 66.2316L27.6414 70.1849ZM24.0475 68.1557C24.1579 68.3469 24.2336 68.5424 24.2794 68.7353L28.721 67.6812C28.5735 67.0598 28.334 66.4503 28.0008 65.8733L24.0475 68.1557ZM21.7177 67.3283C22.3586 66.9582 23.4525 67.1252 24.0475 68.1557L28.0008 65.8733C26.2961 62.9206 22.512 61.5986 19.4353 63.3749L21.7177 67.3283ZM21.1057 68.0526C21.2313 67.7347 21.4416 67.4877 21.7177 67.3283L19.4353 63.3749C18.2119 64.0812 17.3405 65.1592 16.86 66.3755L21.1057 68.0526ZM17.8719 69.3675C18.0383 69.3557 18.2156 69.3718 18.3965 69.4199L19.5693 65.0082C18.9178 64.835 18.2354 64.7654 17.5494 64.814L17.8719 69.3675ZM15.1646 66.4901C15.324 66.7663 15.4117 67.0523 15.4405 67.3278L19.9808 66.8536C19.886 65.9463 19.6005 65.0435 19.1179 64.2077L15.1646 66.4901ZM13.3071 65.4952C13.9156 65.3987 14.7096 65.7021 15.1646 66.4901L19.1179 64.2077C17.7658 61.8657 15.1604 60.5791 12.5917 60.9867L13.3071 65.4952ZM-1.97667 41.9532L10.9727 64.3822L14.9261 62.0998L1.97667 39.6708L-1.97667 41.9532ZM28.3342 53.2451C31.4109 51.4687 32.158 47.5305 30.4533 44.5779L26.5 46.8604C27.095 47.8909 26.6926 48.9217 26.0517 49.2917L28.3342 53.2451ZM19.7686 50.7467C21.4733 53.6994 25.2574 55.0214 28.3342 53.2451L26.0517 49.2917C25.4108 49.6618 24.317 49.4948 23.722 48.4643L19.7686 50.7467ZM21.8878 42.0796C18.811 43.8559 18.0639 47.7941 19.7686 50.7467L23.722 48.4643C23.127 47.4337 23.5293 46.4029 24.1702 46.0329L21.8878 42.0796ZM30.4533 44.5779C28.7486 41.6253 24.9645 40.3032 21.8878 42.0796L24.1702 46.0329C24.8111 45.6629 25.905 45.8298 26.5 46.8604L30.4533 44.5779Z" fill="#A2000C" mask="url(#path-3-inside-1)"/>
<mask id="path-5-inside-2" fill="white">
<path fill-rule="evenodd" clip-rule="evenodd" d="M65.4287 0C65.2507 1.11671 64.6187 2.12259 63.6044 2.70821C62.7194 3.21919 61.7028 3.3181 60.7565 3.06652C60.4534 3.83365 59.9126 4.49612 59.1628 4.92899C57.304 6.00218 54.865 5.25767 53.7152 3.26608C53.3942 2.71007 53.2076 2.11564 53.1458 1.52423C52.8219 1.54719 52.4959 1.52798 52.1754 1.46889L43.8604 32.5011L79.5764 42.0712L89.1464 6.35514L65.4287 0ZM62.632 18.2183C64.7052 18.7738 66.8684 17.4234 67.4636 15.202C68.0588 12.9807 66.8606 10.7296 64.7874 10.1741C62.7141 9.61859 60.5509 10.969 59.9557 13.1903C59.3605 15.4117 60.5587 17.6627 62.632 18.2183ZM75.8897 26.6564C75.2944 28.8777 73.1312 30.2281 71.058 29.6726C68.9848 29.1171 67.7866 26.866 68.3818 24.6446C68.977 22.4233 71.1402 21.0729 73.2134 21.6284C75.2867 22.184 76.4849 24.435 75.8897 26.6564Z"/>
</mask>
<path fill-rule="evenodd" clip-rule="evenodd" d="M65.4287 0C65.2507 1.11671 64.6187 2.12259 63.6044 2.70821C62.7194 3.21919 61.7028 3.3181 60.7565 3.06652C60.4534 3.83365 59.9126 4.49612 59.1628 4.92899C57.304 6.00218 54.865 5.25767 53.7152 3.26608C53.3942 2.71007 53.2076 2.11564 53.1458 1.52423C52.8219 1.54719 52.4959 1.52798 52.1754 1.46889L43.8604 32.5011L79.5764 42.0712L89.1464 6.35514L65.4287 0ZM62.632 18.2183C64.7052 18.7738 66.8684 17.4234 67.4636 15.202C68.0588 12.9807 66.8606 10.7296 64.7874 10.1741C62.7141 9.61859 60.5509 10.969 59.9557 13.1903C59.3605 15.4117 60.5587 17.6627 62.632 18.2183ZM75.8897 26.6564C75.2944 28.8777 73.1312 30.2281 71.058 29.6726C68.9848 29.1171 67.7866 26.866 68.3818 24.6446C68.977 22.4233 71.1402 21.0729 73.2134 21.6284C75.2867 22.184 76.4849 24.435 75.8897 26.6564Z" fill="#A2000C"/>
<path d="M65.4287 0L66.0195 -2.20469L63.5734 -2.86012L63.1747 -0.359322L65.4287 0ZM63.6044 2.70821L62.4632 0.731541V0.731541L63.6044 2.70821ZM60.7565 3.06652L61.3429 0.860673L59.3799 0.338812L58.6336 2.22796L60.7565 3.06652ZM59.1628 4.92899L58.0216 2.95232L58.0216 2.95232L59.1628 4.92899ZM53.7152 3.26608L55.6919 2.12485L55.6919 2.12485L53.7152 3.26608ZM53.1458 1.52423L55.4159 1.28714L55.1866 -0.908684L52.9844 -0.752523L53.1458 1.52423ZM52.1754 1.46889L52.5893 -0.775743L50.5163 -1.15797L49.9707 0.87814L52.1754 1.46889ZM43.8604 32.5011L41.6557 31.9103L41.0649 34.115L43.2696 34.7058L43.8604 32.5011ZM79.5764 42.0712L78.9856 44.2758L81.1903 44.8666L81.7811 42.6619L79.5764 42.0712ZM89.1464 6.35514L91.3511 6.94589L91.9419 4.7412L89.7372 4.15045L89.1464 6.35514ZM62.632 18.2183L63.2227 16.0136V16.0136L62.632 18.2183ZM64.7874 10.1741L64.1966 12.3788L64.1966 12.3788L64.7874 10.1741ZM71.058 29.6726L71.6488 27.4679V27.4679L71.058 29.6726ZM75.8897 26.6564L78.0943 27.2471V27.2471L75.8897 26.6564ZM73.2134 21.6284L73.8042 19.4237H73.8042L73.2134 21.6284ZM63.1747 -0.359322C63.0951 0.140343 62.8293 0.520129 62.4632 0.731541L64.7456 4.68489C66.4081 3.72505 67.4063 2.09308 67.6827 0.359322L63.1747 -0.359322ZM62.4632 0.731541C62.1406 0.917776 61.7514 0.969267 61.3429 0.860673L60.17 5.27237C61.6542 5.66693 63.2981 5.52061 64.7456 4.68489L62.4632 0.731541ZM60.3041 6.90566C61.5274 6.19937 62.3988 5.12138 62.8793 3.90508L58.6336 2.22796C58.508 2.54591 58.2978 2.79287 58.0216 2.95232L60.3041 6.90566ZM51.7385 4.40731C53.4432 7.35992 57.2273 8.68202 60.3041 6.90566L58.0216 2.95232C57.3807 3.32234 56.2869 3.15541 55.6919 2.12485L51.7385 4.40731ZM50.8757 1.76131C50.9704 2.66862 51.2559 3.57148 51.7385 4.40731L55.6919 2.12485C55.5324 1.84866 55.4447 1.56265 55.4159 1.28714L50.8757 1.76131ZM51.7615 3.71351C52.2666 3.80664 52.7859 3.83794 53.3072 3.80097L52.9844 -0.752523C52.8579 -0.743555 52.7252 -0.750677 52.5893 -0.775743L51.7615 3.71351ZM46.065 33.0918L54.3801 2.05963L49.9707 0.87814L41.6557 31.9103L46.065 33.0918ZM80.1671 39.8665L44.4511 30.2964L43.2696 34.7058L78.9856 44.2758L80.1671 39.8665ZM86.9417 5.7644L77.3717 41.4804L81.7811 42.6619L91.3511 6.94589L86.9417 5.7644ZM64.838 2.20469L88.5557 8.55984L89.7372 4.15045L66.0195 -2.20469L64.838 2.20469ZM65.2589 14.6113C64.9509 15.7608 63.9375 16.2051 63.2227 16.0136L62.0412 20.423C65.4729 21.3425 68.7859 19.086 69.6683 15.7928L65.2589 14.6113ZM64.1966 12.3788C64.9115 12.5703 65.5669 13.4619 65.2589 14.6113L69.6683 15.7928C70.5507 12.4996 68.8098 8.88893 65.3781 7.96942L64.1966 12.3788ZM62.1604 13.7811C62.4684 12.6316 63.4818 12.1873 64.1966 12.3788L65.3781 7.96942C61.9465 7.04991 58.6335 9.30637 57.751 12.5996L62.1604 13.7811ZM63.2227 16.0136C62.5079 15.822 61.8524 14.9305 62.1604 13.7811L57.751 12.5996C56.8686 15.8928 58.6096 19.5034 62.0412 20.423L63.2227 16.0136ZM70.4673 31.8773C73.8989 32.7968 77.2119 30.5403 78.0943 27.2471L73.685 26.0656C73.377 27.2151 72.3636 27.6594 71.6488 27.4679L70.4673 31.8773ZM66.1771 24.0539C65.2947 27.3471 67.0356 30.9578 70.4673 31.8773L71.6488 27.4679C70.9339 27.2764 70.2785 26.3848 70.5865 25.2354L66.1771 24.0539ZM73.8042 19.4237C70.3725 18.5042 67.0595 20.7607 66.1771 24.0539L70.5865 25.2354C70.8945 24.0859 71.9079 23.6416 72.6227 23.8331L73.8042 19.4237ZM78.0943 27.2471C78.9768 23.9539 77.2358 20.3433 73.8042 19.4237L72.6227 23.8331C73.3375 24.0247 73.993 24.9162 73.685 26.0656L78.0943 27.2471Z" fill="#A2000C" mask="url(#path-5-inside-2)"/>
</svg>
