<svg width="52" height="53" viewBox="0 0 52 53" fill="none" xmlns="http://www.w3.org/2000/svg">
<ellipse cx="25.8073" cy="26.7307" rx="25.5446" ry="26.0957" fill="#2F89CE"/>
<path d="M12.2057 27.2178L18.0786 29.4549L20.368 36.9797C20.4675 37.4882 21.0647 37.5899 21.4629 37.2848L24.7477 34.5393C25.0463 34.2342 25.544 34.2342 25.9422 34.5393L31.815 38.9118C32.2131 39.2168 32.8104 39.0135 32.9099 38.505L37.2896 17.1509C37.3892 16.6424 36.8915 16.134 36.3938 16.3374L12.2057 25.8959C11.6085 26.0993 11.6085 27.0145 12.2057 27.2178ZM20.0694 28.3364L31.6159 21.1166C31.8149 21.0149 32.014 21.32 31.815 21.4217L22.3587 30.4718C22.0601 30.7769 21.7615 31.1836 21.7615 31.692L21.4629 34.1325C21.4629 34.4376 20.9652 34.5393 20.8657 34.1325L19.6712 29.6583C19.3726 29.1499 19.5717 28.5397 20.0694 28.3364Z" fill="white"/>
</svg>
