<svg width="40" height="39" viewBox="0 0 40 39" fill="none" xmlns="http://www.w3.org/2000/svg">
<g clip-path="url(#clip0)">
<path d="M19.8503 38.198C9.33327 38.1648 0.772639 29.5169 0.822482 18.975C0.872326 8.46221 9.54925 -0.0776503 20.0995 -0.00288499C30.5292 0.0718803 39.0317 8.66158 39.0234 19.1163C39.0151 29.6457 30.388 38.2313 19.8503 38.198ZM19.9915 1.65857C10.3883 1.62949 2.53378 9.40093 2.48393 18.975C2.43409 28.5865 10.1806 36.4618 19.7506 36.5366C29.4493 36.6113 37.3536 28.7901 37.3578 19.1121C37.3661 9.50892 29.5822 1.68764 19.9915 1.65857Z" fill="white"/>
<path d="M16.0268 18.3462C15.6489 17.449 15.4204 16.4439 14.8597 15.6754C14.1328 14.6744 14.4858 13.9018 15.3706 13.7731C17.032 13.528 18.7682 13.5114 20.4297 13.7191C20.8907 13.7772 21.4016 14.9361 21.5387 15.6547C21.7298 16.6349 21.5844 17.6816 21.5844 18.6993C21.763 18.7782 21.9416 18.853 22.1202 18.9319C22.7599 17.7896 23.6114 16.7138 23.9935 15.4927C24.5252 13.8063 25.4639 13.042 27.1752 13.3079C28.5999 13.5322 30.0079 13.8561 31.4285 14.1344C30.901 15.5799 30.4773 17.0794 29.8086 18.4584C29.3351 19.4303 28.5251 20.2361 27.6653 21.3784C28.5625 22.1717 29.5594 22.8404 30.2489 23.7418C30.8137 24.4811 31.0048 25.4988 31.362 26.3959C30.5147 26.7324 29.6923 27.2391 28.8117 27.3762C26.2115 27.7874 23.8855 27.1187 21.6218 24.5434C21.9001 27.6379 20.2178 27.4759 18.5689 27.4011C15.9978 27.2807 13.7216 26.2713 12.2761 24.2444C10.2824 21.4531 8.62092 18.4127 6.93871 15.4138C6.16198 14.0264 6.95117 13.3037 8.38001 13.2996C12.6333 13.2871 12.841 12.8634 13.9999 16.5269C14.2366 17.2829 14.8306 17.9225 15.2584 18.6204C15.5159 18.529 15.7735 18.4376 16.0268 18.3462ZM8.72892 15.0067C11.3789 22.4334 15.1255 25.9889 19.7443 25.6192C20.6914 22.882 21.6218 22.5331 23.8357 24.4437C25.6051 25.9723 27.4535 25.91 29.7836 25.5112C28.9571 24.722 28.3714 24.1447 27.7691 23.5922C25.63 21.6234 25.6176 21.2538 27.3579 18.9693C28.251 17.7938 29.036 16.5352 29.9581 15.1895C27.4618 14.6536 25.6965 14.6453 25.007 17.3244C24.7495 18.3213 23.9187 19.2559 23.1462 20.0035C22.6768 20.4563 21.6301 20.8633 21.1649 20.6307C20.5834 20.3441 20.1015 19.422 19.9894 18.7117C19.7983 17.5363 19.9396 16.3068 19.9396 15.1147C18.7932 15.1147 18.0081 15.1147 17.2895 15.1147C17.3477 16.2985 17.5554 17.3535 17.3934 18.3504C17.2646 19.1437 16.7662 20.4313 16.2927 20.4936C15.5409 20.5975 14.3903 20.0824 13.9085 19.4511C12.8825 18.1095 12.1806 16.5269 11.3291 15.015C10.5233 15.0067 9.70087 15.0067 8.72892 15.0067Z" fill="white"/>
</g>
<defs>
<clipPath id="clip0">
<rect width="38.2009" height="38.2009" fill="white" transform="translate(0.824219)"/>
</clipPath>
</defs>
</svg>
