<svg width="52" height="53" viewBox="0 0 52 53" fill="none" xmlns="http://www.w3.org/2000/svg">
<ellipse cx="25.779" cy="26.7307" rx="25.5446" ry="26.0957" fill="#48C95F"/>
<path d="M35.9035 16.3735C33.3802 13.8047 30.0158 12.3776 26.4645 12.3776C19.0815 12.3776 13.1003 18.4666 13.1003 25.9827C13.1003 28.3612 13.7545 30.7397 14.876 32.7376L13.0068 39.778L20.1095 37.8752C22.0721 38.9218 24.2215 39.4926 26.4645 39.4926C33.8475 39.4926 39.8287 33.4036 39.8287 25.8875C39.7352 22.3673 38.4268 18.9423 35.9035 16.3735ZM32.9129 30.8348C32.6326 31.596 31.3242 32.3571 30.67 32.4522C30.1093 32.5474 29.3616 32.5474 28.614 32.3571C28.1467 32.1668 27.4925 31.9765 26.7449 31.596C23.3804 30.1689 21.231 26.7438 21.044 26.4584C20.8571 26.2681 19.6422 24.6507 19.6422 22.9382C19.6422 21.2256 20.4833 20.4645 20.7637 20.0839C21.044 19.7034 21.4179 19.7034 21.6982 19.7034C21.8851 19.7034 22.1655 19.7034 22.3524 19.7034C22.5393 19.7034 22.8197 19.6082 23.1001 20.2742C23.3804 20.9402 24.0346 22.6527 24.1281 22.7479C24.2215 22.9382 24.2215 23.1284 24.1281 23.3187C24.0346 23.509 23.9412 23.6993 23.7543 23.8896C23.5673 24.0799 23.3804 24.3653 23.287 24.4604C23.1001 24.6507 22.9132 24.841 23.1001 25.1264C23.287 25.507 23.9412 26.5535 24.9692 27.5049C26.2776 28.6466 27.3056 29.0272 27.6794 29.2174C28.0532 29.4077 28.2401 29.3126 28.4271 29.1223C28.614 28.932 29.2682 28.1709 29.4551 27.7903C29.642 27.4098 29.9223 27.5049 30.2027 27.6001C30.4831 27.6952 32.1653 28.5515 32.4457 28.7417C32.8195 28.932 33.0064 29.0272 33.0998 29.1223C33.1933 29.4077 33.1933 30.0737 32.9129 30.8348Z" fill="white"/>
</svg>
